<?xml version="1.0" encoding="utf-8"?>
<!-- Generator: Adobe Illustrator 15.0.0, SVG Export Plug-In . SVG Version: 6.00 Build 0)  -->
<!DOCTYPE svg PUBLIC "-//W3C//DTD SVG 1.1//EN" "http://www.w3.org/Graphics/SVG/1.1/DTD/svg11.dtd">
<svg version="1.1" id="Layer_1" xmlns="http://www.w3.org/2000/svg" xmlns:xlink="http://www.w3.org/1999/xlink" x="0px" y="0px"
	 width="4000px" height="4000px" viewBox="0 0 4000 4000" enable-background="new 0 0 4000 4000" xml:space="preserve">
<g>
	<g>
		<g>
			<path fill="#FFFFFF" d="M1931.771,1833.888c0,0,86.797,212.774,302.502,237.702c0,0,7.122,227.797-163.81,262.25
				c-91.7,18.482-198.723,25.947-256.049-55.958C1757.089,2195.978,1931.771,1833.888,1931.771,1833.888z"/>
		</g>
		<g opacity="0.35">
			<path fill="#371A45" d="M2070.462,2333.846c-91.708,18.481-198.737,25.957-256.029-55.978
				c-16.839-24.067-13.677-72.325-0.74-128.508c0.246,0.37,0.493,0.739,0.74,1.108c57.292,81.894,164.32,74.46,256.029,55.979
				c82.551-16.633,123.579-78.361,143.909-137.748c6.489,1.109,13.143,2.094,19.919,2.875
				C2234.29,2071.574,2241.395,2299.389,2070.462,2333.846z"/>
		</g>
		<g>
			<path fill="#371A45" d="M1968.05,2362.113c-62.915,0.003-126.367-16.623-167.095-74.813
				c-27.402-39.149-15.889-126.725,35.195-267.727c36.37-100.385,80.383-191.911,80.825-192.824l16.053-33.274l13.952,34.202
				c1.092,2.644,86.307,204.148,289.18,227.595l14.09,1.629l0.444,14.177c0.075,2.439,1.636,60.501-18.579,123.721
				c-27.549,86.162-82.324,139.811-158.404,155.145C2041.832,2356.369,2005.03,2362.113,1968.05,2362.113z M1932.095,1871.799
				c-63.738,138.846-139.25,346.616-104.221,396.665c53.013,75.739,155.759,66.12,239.346,49.272
				c131.888-26.585,148.445-183.926,150.405-231.831C2053.602,2060.23,1965.315,1932.418,1932.095,1871.799z"/>
		</g>
		<g>
			<path fill="#FFFFFF" d="M1554.156,3278.21c71.026,164.567,375.123,137.487,451.843,69.374
				c78.632-69.853-63.506-157.005-63.506-157.005c63.419-107.712,65.288-313.312,58.638-445.366
				c-3.608-72.373-9.824-122.664-9.824-122.664l-448.235-242.592c0.305,91.238,15.562,169.262,29.254,231.768
				c29.08,132.881,27.21,235.115,15.431,318.616C1565.892,3085.258,1509.993,3175.888,1554.156,3278.21z"/>
		</g>
		<g opacity="0.35">
			<path fill="#371A45" d="M1554.156,3278.21c71.026,164.567,375.123,137.487,451.843,69.374
				c24.776-21.995,27.646-45.729,19.908-67.896c-103.67,61.115-367.864,107.365-419.069-48.205
				c-25.042-76.165,23.971-128.797,50.69-231.611c11.27-43.363,45.587-77.02,88.971-88.217
				c92.028-23.756,205.154-73.371,251.85-160.834c0.957-1.781,1.913-3.65,2.782-5.607c-3.608-72.373-9.824-122.664-9.824-122.664
				l-401.247-217.163l-46.988-25.429c0.305,91.238,15.562,169.262,29.254,231.768c2.13,9.736,4.086,19.343,5.912,28.732
				c1.826,9.432,3.477,18.691,4.955,27.818c0.739,4.564,1.478,9.042,2.13,13.52c2.042,13.431,3.738,26.514,5.129,39.294
				c0.478,4.26,0.913,8.476,1.304,12.649c0.783,7.998,1.435,15.908,1.956,23.689c1.695,23.994,2.26,46.771,2.043,68.418
				c-0.043,2.347-0.087,4.694-0.13,7.041c-0.087,4.738-0.217,9.433-0.391,14.084c-0.261,6.346-0.565,12.562-0.913,18.689
				c-0.304,4.479-0.608,8.912-0.913,13.258c-0.261,2.913-0.478,5.782-0.739,8.607c-0.218,2.521-0.435,4.955-0.695,7.434
				c-0.218,2.303-0.435,4.606-0.695,6.867c-1.044,9.779-2.217,19.256-3.521,28.515
				C1565.892,3085.258,1509.993,3175.888,1554.156,3278.21z"/>
		</g>
		<g>
			<path fill="#371A45" d="M1803.953,3417.307c-32.019,0.002-64.678-3.104-96.094-10.08
				c-83.877-18.626-142.246-60.996-168.801-122.527c-31.938-74.002-15.588-140.406,5.11-224.478
				c25.823-104.88,57.959-235.407,12.095-444.971c-15.207-69.478-29.318-146.064-29.609-235.259
				c-0.029-9.072,7.303-16.453,16.375-16.482c0.02,0,0.036,0,0.054,0c9.047,0,16.398,7.32,16.428,16.375
				c0.281,86.121,14.031,160.64,28.848,228.34c47.5,217.026,14.351,351.668-12.285,459.854
				c-19.976,81.127-34.407,139.744-6.848,203.604c28.052,64.994,94.746,92.141,145.757,103.472
				c107.705,23.926,236.704-1.318,280.092-39.866c13.337-11.846,19.236-24.281,18.035-38.018
				c-3.337-38.1-58.325-79.828-79.23-92.689l-13.721-8.443l8.162-13.891c94.238-160.064,47.151-553.73,46.665-557.688
				c-1.108-9.007,5.293-17.202,14.297-18.311c9.016-1.143,17.205,5.293,18.311,14.296c1.992,16.178,46.519,388.58-43.462,564.7
				c25.466,17.942,77.386,60.2,81.704,109.103c1.487,16.838-2.326,41.869-28.938,65.508
				C1980.357,3392.307,1894.791,3417.305,1803.953,3417.307z"/>
		</g>
		<g>
			<path fill="#371A45" d="M1677.801,3062.768c-70.518,0-122.686-5.6-127.693-6.156c-6.76-0.756-11.633-6.846-10.879-13.609
				c0.752-6.763,6.875-11.615,13.606-10.884c2.864,0.32,288.367,30.887,437.942-53.19c5.938-3.338,13.447-1.229,16.777,4.702
				c3.335,5.933,1.23,13.444-4.702,16.777C1911.504,3051.755,1776.641,3062.768,1677.801,3062.768z"/>
		</g>
		<g>
			<path fill="#371A45" d="M1720.436,3194.546c6.931-7.7,15.26-13.384,23.935-18.311c4.358-2.432,8.874-4.524,13.442-6.528
				c4.626-1.802,9.309-3.518,14.053-5.027c18.981-6.037,38.799-9.982,58.952-11.335c20.119-1.604,40.664-0.677,60.673,3.317
				c20.206,3.27,39.509,10.572,57.985,19.056c8.234,3.782,11.846,13.521,8.064,21.755c-3.652,7.955-12.861,11.592-20.905,8.428
				l-1.16-0.459c-16.565-6.555-33.098-13.174-50.571-16.709c-8.607-2.336-17.492-3.203-26.308-4.738
				c-4.441-0.48-8.917-0.695-13.387-1.069c-4.468-0.522-8.963-0.568-13.47-0.591c-17.998-0.248-36.265,1.033-54.285,4.484
				c-18.057,3.475-35.935,7.425-55.667,10.105l-0.088,0.013c-0.788,0.106-1.514-0.444-1.621-1.233
				C1720.02,3195.269,1720.166,3194.849,1720.436,3194.546z"/>
		</g>
		<g>
			<path fill="#FFFFFF" d="M932.534,2635.455c88.423,115.283,318.661,75.322,318.661,75.322l2.012-779.012l0.411-157.339
				c0,0-131.341,3.491-231.141,44.725c-48.093,19.836-88.834,48.462-104.071,89.655
				C865.344,2051.936,859.881,2540.707,932.534,2635.455z"/>
		</g>
		<g opacity="0.35">
			<path fill="#371A45" d="M878.671,2233.826c-3.093,170.822,13.069,348.398,53.86,401.609
				c88.414,115.291,318.683,75.336,318.683,75.336l2.381-936.318c0,0-2.445,0.052-6.934,0.301l-1.844,730.044
				c0,0-230.269,39.953-318.682-75.336C902.194,2398.219,886.734,2324.176,878.671,2233.826z"/>
		</g>
		<g>
			<path fill="#371A45" d="M1160.657,2734.076c-77.856,0.003-184.705-15.026-241.154-88.633
				c-50.169-65.412-56.99-270.09-57.596-355.053c-1.154-162.213,15.359-317.848,41.089-387.281
				c50.242-135.564,337.942-144.785,350.164-145.113c9.18-0.061,16.616,6.917,16.86,15.982c0.245,9.067-6.912,16.618-15.979,16.863
				c-2.771,0.076-277.678,8.853-320.234,123.684c-53.854,145.315-55.417,623.323,11.766,710.923
				c81.286,105.983,300.625,69.525,302.832,69.147c8.933-1.546,17.441,4.45,18.984,13.386c1.545,8.938-4.441,17.438-13.377,18.987
				C1250.135,2727.641,1211.6,2734.076,1160.657,2734.076z"/>
		</g>
		<g>
			<path fill="#FFFFFF" d="M895.566,2305.651l156.918,11.782c14.009,1.052,25.553,11.396,28.054,25.22
				c9.158,50.623,24.241,168.64-25,207.612c-40.869,32.347-107.228,28.549-146.111-4.361
				c-43.496-36.813-47.745-152.563-47.041-209.863C862.606,2318.227,877.801,2304.318,895.566,2305.651z"/>
		</g>
		<g opacity="0.35">
			<path fill="#371A45" d="M1080.528,2342.672c9.184,50.604,24.245,168.627-25.001,207.582
				c-40.876,32.363-107.218,28.562-146.123-4.358c-26.731-22.658-38.637-75.163-43.669-125.545
				c7.069,25.172,18.167,45.614,31.971,59.025c79.089,76.845,138.129-13.757,138.129-13.757s10.247,22,18.413,23.246
				c34.146,5.21,27.085-101.685,22.148-156.912C1078.397,2335.138,1079.833,2338.744,1080.528,2342.672z"/>
		</g>
		<g>
			<path fill="#371A45" d="M986.399,2589.118c-31.575,0-63.516-10.3-87.585-30.674c-45.471-38.484-53.84-142.295-52.854-222.605
				c0.159-13.003,5.747-25.495,15.33-34.276c9.589-8.785,22.543-13.268,35.505-12.293h0.003l156.916,11.781
				c21.484,1.615,39.163,17.521,42.988,38.678c11.755,64.982,23.364,180.414-30.967,223.418
				C1043.782,2580.52,1015.245,2589.118,986.399,2589.118z M893.219,2321.992c-3.619,0-7.037,1.325-9.731,3.793
				c-2.964,2.718-4.624,6.432-4.676,10.459c-1.233,100.537,14.18,174.229,41.229,197.122c34.15,28.906,91.535,30.745,125.305,4.019
				c29.429-23.293,36.541-94.996,19.028-191.807c-1.165-6.434-6.56-11.27-13.12-11.763l-156.917-11.782h0.002
				C893.963,2322.004,893.59,2321.992,893.219,2321.992z"/>
		</g>
		<g>
			<path fill="#371A45" d="M1029.96,2373.494c3.296,19.079,6.518,37.756,7.916,57.123c1.499,19.307,1.008,39.053-2.438,59.075
				c-3.513,19.871-10.563,40.53-24.379,58.071c-6.925,8.628-15.362,16.359-24.907,22.144c-9.479,5.898-19.863,9.949-30.298,12.466
				c-8.055,1.943-16.161-3.01-18.105-11.064c-1.841-7.629,2.505-15.303,9.813-17.746l0.416-0.137
				c15.629-5.174,29.151-13.082,39.317-25.154c10.34-11.883,17.439-27.531,22.322-44.468c4.986-16.976,7.494-35.215,10.203-53.757
				c0.595-4.646,1.254-9.319,1.959-14.014c0.641-4.699,1.311-9.422,2.106-14.156
				C1025.379,2392.42,1027.108,2382.817,1029.96,2373.494z"/>
		</g>
		<g>
			<path fill="#371A45" d="M988.375,1895.25c15.059-5.738,30.212-6.79,45.189-6.492c14.999,0.244,30.019,0.835,44.993,2.166
				c14.993,1.167,29.951,3.008,44.827,5.513c14.9,2.334,29.686,5.669,44.288,9.678c7.99,2.192,12.688,10.449,10.495,18.438
				c-2.122,7.732-9.923,12.383-17.665,10.686l-0.25-0.056l-42.422-9.375l-21.347-4.468l-21.471-4.169
				c-14.353-2.657-28.757-5.359-43.247-7.64c-14.51-2.244-28.905-5.239-43.433-11.782l-0.031-0.015
				c-0.677-0.305-0.979-1.101-0.674-1.78C987.779,1895.615,988.055,1895.371,988.375,1895.25z"/>
		</g>
		<g opacity="0.35">
			<path fill="#371A45" d="M1050.486,1819.152c68.792,52.282,147.359,90.518,230.73,112.614l0.411-157.339
				C1281.627,1774.427,1150.286,1777.918,1050.486,1819.152z"/>
		</g>
		<g opacity="0.35">
			<path fill="#371A45" d="M1610.392,2613.73c1.684,8.912,3.245,17.66,4.682,26.285
				C1613.677,2631.391,1612.116,2622.643,1610.392,2613.73z"/>
		</g>
		<g>
			<path fill="none" stroke="#293856" stroke-width="32.8559" stroke-linecap="round" stroke-miterlimit="10" d="M1656.903,2697.534
				"/>
		</g>
		<g>
			<path fill="#32B1D1" d="M1752.737,1997.79"/>
		</g>
		<g>
			<path fill="#FFFFFF" d="M2007.338,2656.326c-62.755,117.502-252.415,162.719-331.188,168.223
				c-17.783,1.231-35.073,1.725-51.789,1.52c-126.413-1.438-220.709-40.084-255.701-55.65
				c-77.622-34.539-141.526-90.559-184.404-163.334c-13.307-22.506-24.56-46.655-33.595-72.242
				c-0.451-1.314-0.903-2.629-1.355-3.983c-14.046-41.522-21.973-95.036-23.656-158.324
				c-3.286-122.471,16.962-281.534,62.467-461.132c6.776-26.654,14.087-53.802,21.931-81.318
				c23.205-81.031,51.255-165.512,84.316-252.128l613.501-33.143c27.599,144.566,51.05,277.345,69.983,397.228
				c3.49,22.177,6.817,43.944,10.021,65.26C2039.29,2351.137,2049.394,2577.596,2007.338,2656.326z"/>
		</g>
		<g opacity="0.35">
			<path fill="#371A45" d="M1150.656,2534.836c38.195,108.301,116.351,190.358,217.999,235.576
				c39.591,17.619,155.285,64.85,307.49,54.13c78.772-5.503,268.433-50.721,331.188-168.222
				c19.508-36.512,27.804-104.77,25.915-201.816c-1.561,57.62-10.021,99.306-25.915,123.701
				c-62.755,96.391-252.416,133.477-331.188,137.995c-152.205,8.788-267.899-29.94-307.49-44.397
				c-101.648-37.086-179.804-104.398-217.999-193.232c-15.935-37.005-24.437-86.042-25.258-144.73
				C1124.371,2416.309,1132.955,2484.689,1150.656,2534.836z"/>
		</g>
		<g opacity="0.35">
			<path fill="#371A45" d="M2016.285,2222.088c9.979,89.738,15.771,167.525,16.962,232.416
				C2034.89,2394.049,2029.017,2316.057,2016.285,2222.088z"/>
		</g>
		<g opacity="0.35">
			<path fill="#371A45" d="M1125.397,2333.84c0.411-34.869,2.547-72.283,6.448-111.916
				C1127,2262.214,1124.864,2299.67,1125.397,2333.84z"/>
		</g>
		<g>
			<path fill="#371A45" d="M1631.128,2842.57c-114.88,0-208.337-30.081-269.143-57.131
				c-107.349-47.757-187.905-134.814-226.831-245.14c-64.868-183.838-7.061-572.928,143.845-968.201
				c3.235-8.477,12.727-12.729,21.207-9.487c8.476,3.235,12.725,12.729,9.487,21.206
				c-171.309,448.721-195.537,798.227-143.557,945.549c35.893,101.724,110.19,182.002,209.204,226.053
				c65.22,29.016,169.958,61.682,298.916,52.807l79.927-13.076c52.007-12.443,147.488-42.414,207.114-103.972
				c13.001-13.423,23.616-27.764,31.55-42.617c53.259-99.724,19.239-470.046-101.121-1100.684
				c-1.699-8.911,4.146-17.515,13.06-19.216c8.903-1.687,17.512,4.143,19.216,13.059
				c123.516,647.188,155.516,1014.302,97.825,1122.319c-9.375,17.554-21.8,34.375-36.929,49.997
				c-65.647,67.773-168.313,100.022-223.67,113.213l-1.157,0.232l-82.766,13.467
				C1661.563,2842.055,1646.163,2842.57,1631.128,2842.57z M1757.42,2811.27h0.049H1757.42z"/>
		</g>
		<g>
			<path fill="#FFFFFF" d="M1639.248,2734.576c0,0,68.026,339.746-73.084,504.703c0,0,142.134,87.154,63.509,156.992
				c-76.706,68.133-380.815,95.204-451.845-69.382c-67.982-157.525,101.173-287.208,18.169-666.452
				c-13.687-62.535-28.93-140.539-29.229-231.799L1639.248,2734.576z"/>
		</g>
		<g opacity="0.35">
			<path fill="#371A45" d="M1196.018,2661.368c82.979,379.253-86.152,508.958-18.169,666.485
				c71.025,164.566,375.123,137.486,451.843,69.373c20.604-18.299,26.037-37.773,22.821-56.594
				c-103.192,54.464-361.866,63.81-426.632-86.283c-23.388-54.193,117.949-159.547,118.891-277.327
				c0.79-98.705-26.836-199.552-55.782-277.606c-23.295-62.817,21.179-129.777,88.083-133.317c0.604-0.032,1.208-0.064,1.813-0.099
				c37.86-2.043,79.154-7.172,123.491-16.561c0,0,71.678-90.629-8.172-141.747c0,0-242.809,33.34-368.56-35.165
				c1.782,66.983,10.171,123.621,25.038,167.566c7.259,2.304,15.431,4.695,24.428,7.043
				C1180.804,2589.473,1188.628,2627.682,1196.018,2661.368z"/>
		</g>
		<g>
			<path fill="#371A45" d="M1644.617,2734.443c8.439,21.025,13.625,42.588,17.992,64.387c4.27,21.8,6.867,43.863,8.502,66.006
				c3.431,44.287,2.886,88.992-1.822,133.445c-1.035,11.118-2.581,22.212-3.955,33.313c-1.75,11.074-3.353,22.158-5.629,33.172
				c-4.307,22.036-9.383,44.035-16.525,65.564c-7.111,21.496-15.249,42.846-26.133,63.086
				c-10.729,20.271-23.441,39.68-38.399,57.484l-3.896-24.682c8.049,5.08,14.928,10.026,22.069,15.434
				c7.032,5.367,13.868,11.014,20.481,17.016c13.145,12.076,25.738,25.221,35.959,41.32c5.076,8.047,9.576,16.828,12.675,26.608
				c3.073,9.731,4.708,20.64,3.418,31.655c-1.221,11.008-5.338,21.57-10.952,30.435c-2.714,4.6-6.033,8.431-9.309,12.344
				c-1.669,1.897-3.489,3.525-5.241,5.288c-1.766,1.736-3.516,3.494-5.475,4.959c-15.242,12.551-31.684,20.659-48.264,27.426
				c-16.623,6.67-33.544,11.683-50.594,15.752c-34.14,7.867-68.829,11.787-103.63,12.42c-17.405,0.203-34.832-0.437-52.229-1.968
				c-17.377-1.81-34.751-4.144-51.93-8.066c-34.285-7.669-68.279-20.046-98.627-40.151c-15.032-10.178-29.176-22.061-41.298-36.047
				c-11.953-14.119-21.813-30.039-29.315-46.951c-14.346-33.403-19.747-70.967-16.894-106.396
				c2.531-35.566,10.571-69.204,18.49-102.065c8.041-32.847,16.222-65.183,22.554-97.734
				c13.02-64.987,18.664-131.019,15.529-197.065c-1.467-33.006-4.893-65.947-9.753-98.721
				c-5.117-32.881-12.098-64.829-19.162-98.373c-6.686-33.305-14.444-66.742-17.55-100.932
				c-3.227-34.082-3.336-68.818,5.588-102.805c0.795-3.027,3.893-4.836,6.92-4.043c2.018,0.529,3.495,2.085,4.02,3.957l0.013,0.05
				c9.255,33.378,13.369,65.969,18.059,98.781c4.655,32.731,8.412,65.729,15.163,98.425c6.779,32.371,14.21,66.256,19.426,99.959
				c5.027,33.857,8.579,67.988,10.102,102.28c1.537,34.287,1.008,68.726-1.758,102.983c-2.738,34.258-7.741,68.306-14.359,101.857
				c-6.537,33.582-14.897,66.58-22.866,99.156c-7.881,32.537-15.415,64.772-17.632,96.498c-2.467,31.727,2.174,62.627,14.319,91.263
				c6.212,13.874,14.201,26.795,23.999,38.431c9.975,11.496,21.801,21.442,34.617,30.144c25.905,17.192,56.211,28.442,87.536,35.425
				c15.673,3.589,31.741,5.737,47.846,7.427c16.158,1.414,32.418,2.017,48.694,1.831c32.538-0.586,65.127-4.294,96.647-11.561
				c15.703-3.747,31.149-8.354,45.787-14.229c14.553-5.859,28.56-13.117,39.339-22.045c11.07-9.129,18.192-20.193,19.539-31.582
				c1.392-11.502-3.332-24.668-11.178-37.008c-7.819-12.414-18.651-23.936-30.277-34.58c-5.858-5.316-12.016-10.407-18.371-15.256
				c-6.269-4.773-13.105-9.629-19.299-13.537l-16.079-10.146l12.184-14.537c13.167-15.713,24.539-33.021,34.262-51.374
				c9.868-18.291,17.362-37.979,23.97-57.935c6.578-19.995,11.567-40.646,15.349-61.555c3.818-20.901,6.571-42.09,8.073-63.418
				c3.192-42.649,2.854-85.613,1.84-128.623c-1.47-43.014-3.639-86.131-3.297-130.047l0.001-0.117
				c0.024-3.076,2.537-5.549,5.613-5.527C1641.817,2730.967,1643.799,2732.412,1644.617,2734.443z"/>
		</g>
		<g>
			<path fill="#371A45" d="M1429.3,3076.691c-122.637,0-223.059-31.143-229.634-33.228c-6.487-2.058-10.076-8.979-8.02-15.467
				c2.053-6.483,8.962-10.075,15.464-8.024c2.473,0.781,249.384,77.202,437.559-10.63c6.167-2.879,13.496-0.215,16.376,5.952
				c2.878,6.167,0.212,13.498-5.952,16.377C1581.939,3065.82,1501.736,3076.691,1429.3,3076.691z"/>
		</g>
		<g>
			<circle fill="#FFFFFF" cx="2024.906" cy="2358.565" r="76.372"/>
		</g>
		<g opacity="0.35">
			<path fill="#371A45" d="M2101.236,2360.543c-1.098,42.164-36.146,75.49-78.31,74.393s-75.49-36.206-74.392-78.37
				c0.304-11.649,3.202-22.683,8.191-32.448c11.583,26.104,37.447,44.686,67.902,45.479c30.455,0.793,57.251-16.418,70.117-41.883
				C2099.22,2337.725,2101.54,2348.895,2101.236,2360.543z"/>
		</g>
		<g>
			<path fill="#371A45" d="M2024.939,2451.367c-0.817,0-1.631-0.013-2.451-0.032c-51.152-1.333-91.685-44.034-90.352-95.186
				c0.647-24.78,10.903-47.825,28.882-64.89c17.976-17.063,41.561-26.043,66.304-25.465c51.152,1.334,91.685,44.033,90.352,95.186
				l-16.423-0.427l16.423,0.427C2116.36,2411.313,2074.996,2451.367,2024.939,2451.367z M2024.866,2298.62
				c-15.417,0-30.005,5.813-41.228,16.468c-11.614,11.025-18.24,25.91-18.655,41.916c-0.862,33.042,25.32,60.625,58.359,61.484
				c16.06,0.461,31.218-5.422,42.83-16.445c11.613-11.025,18.239-25.91,18.654-41.916l0,0c0.417-16.006-5.422-31.217-16.445-42.83
				c-11.025-11.613-25.91-18.24-41.914-18.654C2025.934,2298.627,2025.398,2298.62,2024.866,2298.62z"/>
		</g>
		<g>
			<g opacity="0.35">
				<path fill="#371A45" d="M2028.178,2428.313c-13.039-85.742-15.514-165.238-11.9-235.998c1.75,40.866,5.63,83.755,12.438,128.405
					c7.934,52.364,10.376,107.038,5.515,160.719C2032.875,2463.586,2030.814,2445.818,2028.178,2428.313z"/>
			</g>
			<g>
				<path fill="#FFFFFF" d="M1954.664,2576.205l-398.828,20.496c-47.203,2.44-87.849-34.205-90.289-81.469l-10.896-212.236
					c-2.127-41.377,25.719-77.651,64.399-87.664c5.474-1.457,11.184-2.311,17.069-2.624l398.768-20.497
					c47.264-2.44,87.908,34.206,90.289,81.469l8.67,168.096l2.285,44.141C2038.573,2533.18,2001.867,2573.764,1954.664,2576.205z"/>
			</g>
			<g opacity="0.35">
				<path fill="#371A45" d="M1954.664,2576.205l-398.828,20.496c-47.203,2.44-87.849-34.205-90.289-81.469l-10.896-212.236
					c-2.127-41.377,25.719-77.651,64.399-87.664c23.42,13.875,38.296,22.76,38.296,22.76
					c28.174,169.363,81.052,251.82,292.778,244.403c91.393-3.226,148.317-20.115,183.722-40.72l2.285,44.141
					C2038.573,2533.18,2001.867,2573.764,1954.664,2576.205z"/>
			</g>
			<g>
				<path fill="#371A45" d="M1551.368,2613.264c-25.298,0-49.434-9.287-68.462-26.455c-20.362-18.369-32.347-43.482-33.745-70.708
					l-10.916-212.263c-2.897-56.402,40.628-104.646,97.026-107.547l398.796-20.503c56.428-2.8,104.644,40.625,107.544,97.024
					l10.913,212.268c2.9,56.398-40.625,104.644-97.024,107.544l-398.796,20.503
					C1554.92,2613.22,1553.143,2613.264,1551.368,2613.264z M1939.366,2208.508c-1.201,0-2.402,0.031-3.608,0.093l-398.799,20.503
					c-38.305,1.971-67.869,34.738-65.901,73.047l10.916,212.264c0.949,18.461,9.096,35.51,22.941,48
					c13.846,12.492,31.646,18.853,50.1,17.9l398.799-20.503c18.459-0.95,35.508-9.097,48-22.944
					c12.49-13.846,18.848-31.639,17.898-50.1l-10.913-212.266c-0.95-18.465-9.097-35.511-22.942-48.004
					C1972.916,2214.824,1956.524,2208.508,1939.366,2208.508z"/>
			</g>
			<g>
				<path fill="#FFFFFF" d="M1970.591,2573.813c-5.113,1.34-10.402,2.137-15.927,2.393l-398.828,20.496
					c-34.591,1.762-65.653-17.398-80.726-46.453c-5.498-10.551-8.884-22.404-9.502-35.016l-4.883-94.287l-1.61-31.108l-4.463-86.841
					c-2.44-47.263,34.266-87.848,81.469-90.288l86.18-4.408c-39.337,9.528-67.786,46.097-65.662,87.896l5.859,114.645l5.035,97.65
					c2.441,47.204,43.086,83.91,90.29,81.469L1970.591,2573.813z"/>
			</g>
			<g opacity="0.35">
				<path fill="#371A45" d="M1970.591,2573.813c-5.113,1.34-10.402,2.137-15.927,2.393l-398.828,20.496
					c-47.203,2.44-87.849-34.205-90.229-81.469l-6.493-125.396c11.171,21.641,30.589,47.911,59.573,49.285
					c15.901,0.788,30.887-11.396,43.81-28.282l5.035,97.65c2.441,47.204,43.086,83.91,90.29,81.469L1970.591,2573.813z"/>
			</g>
			<g>
				<path fill="#371A45" d="M1551.302,2613.262c-25.262,0-49.371-9.283-68.394-26.445c-20.368-18.379-32.349-43.494-33.733-70.721
					l-10.911-212.261c-1.416-27.217,7.927-53.428,26.304-73.796c18.369-20.357,43.481-32.347,70.711-33.763l86.154-4.412l4.72,32.37
					c-32.483,7.895-54.817,37.813-53.104,71.144l10.913,212.256c0.938,18.47,9.082,35.518,22.932,48.015
					c13.843,12.493,31.609,18.86,50.061,17.889l312.81-16.108l4.89,32.329c-6.282,1.597-12.754,2.557-19.236,2.856l-398.743,20.508
					C1554.881,2613.215,1553.089,2613.262,1551.302,2613.262z M1562.657,2227.772l-25.686,1.316
					c-38.317,1.991-67.886,34.763-65.894,73.052l10.911,212.28c0.937,18.457,9.082,35.503,22.932,48.001
					c13.845,12.49,31.624,18.874,50.062,17.888l28.591-1.47c-19.573-18.27-31.069-42.889-32.422-69.529l-10.913-212.246
					C1538.909,2271.247,1547.376,2246.82,1562.657,2227.772z"/>
			</g>
			<g>
				<path fill="#22A7F0" d="M1719.433,2395.984c0.358,7.851-7.786,71.73-7.786,71.73s-20.077,0.917-44.729,2.043
					c-30.799,1.405-57.223-29.344-59.019-68.682s21.716-72.367,52.516-73.773c20.785-0.949,44.729-2.042,44.729-2.042
					S1718.849,2383.193,1719.433,2395.984z"/>
			</g>
			<g opacity="0.35">
				<path fill="#371A45" d="M1719.433,2395.984c0.358,7.851-7.786,71.73-7.786,71.73s-20.077,0.917-44.729,2.043
					c-30.799,1.405-57.223-29.344-59.019-68.682s21.716-72.367,52.516-73.773c20.785-0.949,44.729-2.042,44.729-2.042
					S1718.849,2383.193,1719.433,2395.984z"/>
			</g>
			<g>
				<path fill="#371A45" d="M1664.913,2482.123c-36.431,0.006-67.265-35.473-69.321-80.485
					c-0.996-21.763,4.795-42.651,16.304-58.818c12.163-17.087,29.195-26.97,47.957-27.825l31.23-1.426
					c13.784-0.664,26.063,8.697,29.131,22.168c7.305,32.076,11.185,52.154,11.526,59.684l0,0c0.093,2.021,0.339,7.393-6.167,60.229
					c-1.707,13.848-13.072,24.361-27.024,24.998l-31.069,1.418C1666.622,2482.104,1665.765,2482.123,1664.913,2482.123z
					 M1692.383,2338.181c-0.061,0-0.12,0-0.181,0.003l-31.228,1.426c-11.03,0.505-21.33,6.719-29.004,17.5
					c-8.33,11.701-12.507,27.116-11.765,43.404c1.484,32.491,22.231,57.975,46.149,56.938l31.067-1.419
					c1.906-0.088,3.459-1.517,3.691-3.396c5.822-47.273,6.03-55.02,6.008-56.121c-0.105-2.207-1.216-12.632-10.935-55.303
					C1695.782,2339.431,1694.197,2338.181,1692.383,2338.181z"/>
			</g>
			<g>
				
					<ellipse transform="matrix(0.999 -0.0456 0.0456 0.999 -107.5139 80.4045)" fill="#22A7F0" cx="1708.395" cy="2396.487" rx="55.825" ry="71.302"/>
				<path fill="#371A45" d="M1709.642,2480.08c-36.431,0.005-67.266-35.475-69.321-80.483c-0.996-21.763,4.795-42.651,16.304-58.818
					c12.163-17.087,29.194-26.97,47.957-27.825c18.781-0.898,36.623,7.432,50.292,23.34c12.932,15.049,20.603,35.325,21.595,57.088
					c0.996,21.762-4.795,42.651-16.304,58.818c-12.163,17.085-29.194,26.968-47.957,27.822
					C1711.351,2480.061,1710.494,2480.08,1709.642,2480.08z M1707.156,2337.536c-0.483,0-0.967,0.01-1.453,0.032
					c-11.03,0.505-21.331,6.719-29.004,17.5c-8.33,11.701-12.507,27.116-11.765,43.405c1.487,32.487,22.21,58.02,46.15,56.934
					c11.03-0.506,21.33-6.719,29.006-17.5c8.328-11.699,12.505-27.114,11.763-43.403l0,0c-0.745-16.289-6.309-31.258-15.669-42.15
					C1727.938,2342.756,1717.682,2337.536,1707.156,2337.536z"/>
			</g>
			<g>
				<path fill="#371A45" d="M1830.596,2593.366c-6.646,0-12.124-5.296-12.31-11.979l-4.27-153.998l65.959-46.359l-8.889-185.456
					c-0.325-6.797,4.92-12.571,11.716-12.897c6.924-0.279,12.571,4.924,12.898,11.716l9.539,199.001l-66.224,46.546l3.904,140.765
					c0.188,6.801-5.173,12.468-11.975,12.658C1830.828,2593.363,1830.713,2593.366,1830.596,2593.366z"/>
			</g>
		</g>
		<g>
			<path fill="#FFFFFF" d="M1108.404,2299.387c0,0-36.909,29.372-38.533,74.688c-1.877,52.394,30.901,73.639,30.901,73.639
				s143.439,73.44,373.568,24.646c0,0,67.737-85.614-7.711-133.931C1466.629,2338.429,1223.736,2371.791,1108.404,2299.387z"/>
		</g>
		<g opacity="0.35">
			<path fill="#371A45" d="M1069.887,2374.107c-1.876,52.332,30.882,73.573,30.882,73.573s143.415,73.468,373.594,24.657
				c0,0,22.269-28.229,27.006-61.324c-1.085,1.635-1.791,2.485-1.791,2.485c-168.214,35.694-290.1,6.034-343.499-12.504
				c-37.092-12.877-61.887-46.554-61.022-84.166c0.012-0.517,0.027-1.037,0.046-1.561c0.02-0.874,0.04-1.747,0.204-2.585
				C1084.535,2325.533,1070.839,2346.957,1069.887,2374.107z"/>
		</g>
		<g>
			<path fill="#371A45" d="M1318.45,2505.648c-138.467,0.003-220.632-40.99-225.166-43.313l-1.448-0.838
				c-1.658-1.074-40.569-27.014-38.384-88.012c1.875-52.271,42.974-85.563,44.722-86.953l9.107-7.249l9.858,6.188
				c109.016,68.445,344.885,37.01,347.253,36.683l5.999-0.825l5.098,3.264c23.801,15.244,37.941,35.342,42.028,59.739
				c8.188,48.896-28.721,96.23-30.295,98.22l-3.677,4.648l-5.798,1.23C1418.748,2500.939,1365.359,2505.646,1318.45,2505.648z
				 M1109.207,2433.549c12.554,5.943,147.596,66.369,355.521,24.031c7.517-11.113,25.012-40.566,20.366-67.933
				c-2.281-13.442-9.686-24.65-22.579-34.13c-38.989,4.736-239.197,25.285-351.646-35.684c-9.296,10.178-23.687,29.848-24.58,54.828
				C1084.915,2412.982,1105.14,2430.437,1109.207,2433.549z"/>
		</g>
		<g>
			<g opacity="0.35">
				<path fill="#371A45" d="M1977.85,1942.04c-2.341,1.561-4.683,3.121-7.023,4.641c-18.399,11.993-37.497,22.999-57.292,32.979
					c-9.651,4.888-19.549,9.488-29.57,13.965c-30.269,13.183-60.989,23.532-91.873,31.171
					c-26.613,6.654-53.391,11.213-80.086,13.883c-32.24,3.244-64.397,3.572-96.227,1.231c-11.582-0.862-23.122-2.094-34.622-3.655
					c-141.321-19.303-273.607-91.914-371.107-206.17c23.205-81.031,51.255-165.512,84.316-252.128l613.501-33.143
					C1935.466,1689.378,1958.917,1822.157,1977.85,1942.04z"/>
			</g>
			<g>
				<path fill="#FFFFFF" d="M2215.511,1652.034c-53.323,93.494-130.611,174.097-227.686,232.041
					c-19.801,11.806-40.351,22.676-61.699,32.502c-10.372,4.812-21.011,9.348-31.811,13.719
					c-32.618,12.999-65.672,23.18-98.947,30.661c-28.664,6.517-57.506,10.979-86.258,13.557
					c-34.721,3.13-69.386,3.402-103.671,1.042c-12.501-0.902-24.942-2.129-37.321-3.676
					c-226.53-28.81-431.76-174.128-524.428-397.88c-136.578-329.58,22.881-704.403,356.053-837.231
					c64.188-25.537,130.188-40.351,195.827-45.032c7.666-0.62,15.382-1.021,23.094-1.262c20.625-0.783,41.177-0.596,61.601,0.557
					c47.235,2.682,93.825,10.471,138.901,22.968c45.077,12.445,88.749,29.654,130.095,51.229c13.15,6.852,26.074,14.13,38.77,21.889
					c19.017,11.635,37.468,24.174,55.298,37.777c88.939,67.465,161.568,158.366,207.041,268.171
					C2328.942,1282.648,2309.533,1487.17,2215.511,1652.034z"/>
				<path fill="#371A45" d="M1650.838,1978.771c-15.164,0-30.359-0.522-45.515-1.565c-12.476-0.903-25.064-2.144-37.412-3.687
					c-234.761-29.856-436.216-182.7-525.752-398.887c-65.959-159.167-65.544-333.894,1.165-491.992
					c67.244-159.363,193.604-282.744,355.806-347.41c63.284-25.178,129.333-40.366,196.321-45.146
					c7.322-0.591,14.905-1.006,23.162-1.265c20.586-0.781,41.37-0.594,61.746,0.562c46.887,2.661,93.738,10.407,139.248,23.025
					c45.085,12.446,88.965,29.727,130.417,51.357c13.315,6.933,26.392,14.316,38.867,21.941
					c19.429,11.887,38.081,24.631,55.439,37.875c91.785,69.622,163.563,162.591,207.566,268.853
					c76.138,183.704,63.398,387.969-34.949,560.42c-54.521,95.598-133.459,176.045-228.273,232.642
					c-20.074,11.968-40.884,22.93-61.856,32.583c-9.602,4.456-20.032,8.955-31.882,13.752
					c-32.236,12.847-65.612,23.188-99.204,30.74c-28.12,6.394-57.214,10.967-86.475,13.591
					C1689.961,1977.9,1670.43,1978.771,1650.838,1978.771z M1643.563,691.657c-8.283,0-16.574,0.156-24.836,0.469
					c-8.213,0.256-15.743,0.669-23.025,1.257c-66.662,4.756-132.383,19.868-195.349,44.919
					c-161.372,64.336-287.085,187.083-353.982,345.623c-66.362,157.278-66.772,331.099-1.155,489.443
					c89.083,215.093,289.526,367.166,523.108,396.871c12.29,1.538,24.819,2.771,37.234,3.667
					c34.556,2.38,69.348,2.026,103.404-1.038c29.113-2.612,58.061-7.161,86.04-13.523c33.428-7.515,66.633-17.805,98.702-30.583
					c11.789-4.773,22.172-9.25,31.728-13.684c20.869-9.607,41.575-20.515,61.548-32.424
					c94.327-56.304,172.854-136.335,227.097-231.438l1.436,0.818l-1.436-0.818c97.837-171.556,110.508-374.764,34.764-557.517
					c-43.779-105.72-115.19-198.215-206.512-267.485c-17.272-13.179-35.83-25.857-55.161-37.686
					c-12.412-7.585-25.422-14.932-38.672-21.831c-41.248-21.524-84.907-38.716-129.771-51.101
					c-45.286-12.556-91.901-20.264-138.552-22.913C1668.069,691.999,1655.826,691.657,1643.563,691.657z"/>
			</g>
			<g opacity="0.35">
				<path fill="#371A45" d="M1043.692,1573.984c92.646,223.774,297.908,369.106,524.439,397.88
					c12.378,1.564,24.811,2.792,37.295,3.682c34.294,2.376,68.953,2.078,103.67-1.026c28.754-2.601,57.61-7.044,86.252-13.553
					c33.295-7.471,66.334-17.656,98.978-30.655c10.776-4.407,21.414-8.917,31.807-13.71c21.351-9.841,41.88-20.748,61.69-32.539
					c97.074-57.945,174.379-138.52,227.698-232.046c29.302-51.354,51.37-106.603,65.473-164.029
					c-52.951,88.069-127.564,163.937-220.174,219.224c-19.789,11.845-40.34,22.697-61.691,32.538
					c-10.354,4.809-20.992,9.319-31.806,13.71c-32.644,12.999-65.682,23.183-98.939,30.672
					c-28.682,6.492-57.498,10.951-86.252,13.552c-34.716,3.104-69.415,3.386-103.67,1.027c-12.523-0.908-24.955-2.134-37.334-3.698
					c-226.531-28.774-431.755-174.09-524.439-397.881c-54.104-130.535-61.711-268.158-30.532-395.008
					C985.604,1169.149,963.063,1379.458,1043.692,1573.984z"/>
			</g>
			<g>
				<path fill="#371A45" d="M1650.838,1989.851c-15.415,0-30.867-0.53-46.274-1.589c-12.707-0.918-25.486-2.178-38.027-3.745
					c-238.718-30.359-443.56-185.791-534.614-405.642c-67.102-161.927-66.68-339.69,1.191-500.542
					c68.406-162.117,196.936-287.62,361.912-353.394c64.351-25.601,131.514-41.045,199.636-45.906
					c7.402-0.598,15.161-1.023,23.604-1.287c20.859-0.793,41.995-0.599,62.717,0.571c47.678,2.708,95.313,10.583,141.584,23.413
					c45.825,12.649,90.437,30.217,132.583,52.209c13.53,7.046,26.829,14.556,39.52,22.31c19.756,12.089,38.723,25.049,56.382,38.521
					c93.325,70.791,166.328,165.347,211.081,273.423c77.458,186.89,64.497,394.702-35.559,570.149l0,0
					c-55.469,97.255-135.77,179.094-232.222,236.667c-20.415,12.17-41.575,23.317-62.9,33.135
					c-9.741,4.519-20.336,9.089-32.358,13.958c-32.834,13.083-66.772,23.601-100.932,31.279
					c-28.574,6.497-58.162,11.147-87.913,13.816C1690.625,1988.967,1670.762,1989.851,1650.838,1989.851z M1643.563,702.736
					c-8.142,0-16.294,0.154-24.419,0.461c-8.101,0.254-15.449,0.657-22.549,1.231c-65.632,4.683-130.239,19.541-192.146,44.172
					c-158.588,63.225-282.133,183.845-347.869,339.634c-65.202,154.524-65.603,325.308-1.128,480.891
					c87.566,211.43,284.622,360.916,514.271,390.122c12.075,1.509,24.409,2.725,36.633,3.608
					c33.936,2.337,68.135,1.995,101.611-1.025c28.625-2.566,57.08-7.039,84.575-13.292c32.886-7.392,65.532-17.507,97.058-30.071
					c11.563-4.682,21.778-9.086,31.167-13.444c20.542-9.456,40.898-20.178,60.537-31.887
					c92.683-55.325,169.849-133.965,223.145-227.412c96.128-168.557,108.576-368.218,34.152-547.783
					c-43.027-103.909-113.215-194.817-202.971-262.9c-16.997-12.969-35.24-25.432-54.249-37.063
					c-12.192-7.452-24.98-14.67-38.008-21.456c-40.562-21.167-83.488-38.071-127.6-50.246
					c-44.536-12.349-90.366-19.927-136.233-22.529C1667.649,703.073,1655.616,702.736,1643.563,702.736z M2215.511,1652.033h0.052
					H2215.511z"/>
			</g>
			<g>
				<path fill="#371A45" d="M1650.838,1993.544c-15.5,0-31.038-0.532-46.528-1.599c-12.783-0.923-25.627-2.19-38.232-3.765
					c-240.037-30.527-446.008-186.821-537.568-407.893c-67.483-162.847-67.056-341.621,1.201-503.391
					c68.794-163.035,198.044-289.248,363.948-355.388c64.705-25.745,132.239-41.272,200.74-46.16
					c7.43-0.601,15.249-1.028,23.75-1.296c20.957-0.791,42.202-0.598,63.044,0.579c47.94,2.72,95.837,10.64,142.361,23.54
					c46.074,12.717,90.93,30.38,133.306,52.495c13.601,7.085,26.975,14.634,39.736,22.434
					c19.863,12.153,38.938,25.183,56.697,38.733c93.838,71.181,167.248,166.264,212.253,274.949
					c77.898,187.949,64.863,396.943-35.764,573.391l0,0c-55.784,97.806-136.538,180.108-233.536,238.008
					c-20.53,12.239-41.806,23.447-63.25,33.318c-9.788,4.541-20.437,9.136-32.517,14.026
					c-33.035,13.164-67.158,23.738-101.509,31.46c-28.726,6.533-58.479,11.208-88.393,13.892
					C1690.845,1992.656,1670.872,1993.544,1650.838,1993.544z M1643.565,706.43c-8.099,0-16.201,0.154-24.28,0.459
					c-8.064,0.254-15.354,0.652-22.393,1.221c-65.288,4.658-129.523,19.431-191.077,43.921
					c-157.664,62.856-280.486,182.769-345.833,337.639c-64.814,153.606-65.212,323.376-1.12,478.042
					c87.06,210.21,282.988,358.833,511.325,387.871c12.005,1.501,24.275,2.71,36.433,3.589c33.728,2.317,67.732,1.979,101.014-1.021
					c28.464-2.551,56.752-6.997,84.089-13.213c32.705-7.354,65.162-17.41,96.509-29.902c11.487-4.651,21.646-9.031,30.979-13.362
					c20.435-9.407,40.674-20.069,60.2-31.711c92.137-54.998,168.846-133.171,221.828-226.07
					c95.558-167.558,107.933-366.035,33.951-544.538c-42.778-103.306-112.557-193.684-201.795-261.372
					c-16.904-12.898-35.042-25.288-53.943-36.853c-12.117-7.408-24.834-14.585-37.786-21.331
					c-40.332-21.048-83.018-37.854-126.875-49.963c-44.29-12.278-89.858-19.814-135.459-22.402
					C1667.513,706.764,1655.548,706.43,1643.565,706.43z M2215.511,1652.033h0.052H2215.511z"/>
			</g>
			<g>
				<path fill="#371A45" d="M2115.763,1783.722c-385.903,255.556-902.692,57.233-923.313-397.861
					c-14.029-309.619,282.302-560.438,584.471-552.944c219.923,5.454,432.778,105.695,519.515,444.75
					c0,0,14.939,155.809-29.319,258.44c-44.259,102.63-104.902,194.973-104.902,194.973L2115.763,1783.722z"/>
			</g>
			<g>
				<path fill="#220F2D" d="M1192.467,1385.865c20.61,455.082,537.411,653.399,923.298,397.875l9.406-10.682
					c-421.392,65.454-836.484-191.333-866.005-651.13C1213.342,1200.369,1188.153,1290.316,1192.467,1385.865z"/>
			</g>
			<g>
				<path fill="#371A45" d="M1749.395,1977.453c-167.309,0-327.138-58.262-444.389-163.232
					c-120.557-107.932-188.365-254.905-196.092-425.024c-7.085-156.238,54.263-308.887,172.744-429.827
					c131.619-134.351,318.289-211.926,499.558-207.38c100.696,2.498,191.05,22.468,268.557,59.36l1.39,0.664l1.228,0.93
					c93.675,71.055,166.927,165.936,211.836,274.383c77.728,187.542,64.722,396.079-35.686,572.139l0,0
					c-55.662,97.593-136.24,179.717-233.028,237.49c-20.483,12.212-41.716,23.398-63.115,33.247
					c-9.769,4.534-20.398,9.119-32.454,14c-32.959,13.135-67.009,23.684-101.287,31.389l-2.317,0.334
					C1780.657,1976.945,1764.981,1977.453,1749.395,1977.453z M1766.204,781.804c-168.516,0-340.669,73.577-463.115,198.562
					c-112.595,114.929-170.911,259.636-164.204,407.471c7.352,161.885,71.717,301.599,186.13,404.033
					c121.938,109.167,292.515,165.322,468.206,154.194c32.352-7.336,64.49-17.327,95.542-29.7
					c11.514-4.663,21.697-9.055,31.05-13.394c20.479-9.426,40.762-20.112,60.332-31.78
					c92.347-55.125,169.233-133.479,222.337-226.589c95.778-167.944,108.181-366.877,34.028-545.793
					c-42.679-103.064-112.171-193.291-201.021-261.028c-73.374-34.651-159.163-53.423-255.015-55.801
					C1775.721,781.862,1770.962,781.804,1766.204,781.804z M2215.511,1652.033h0.052H2215.511z"/>
			</g>
			<g>
				<path fill="#371A45" d="M1747.723,1913.071c-96.482,0-191.655-21.636-277.954-65.505
					c-177.485-90.225-284.546-258.237-293.73-460.96c-6.338-139.868,48.555-276.486,154.568-384.694
					c117.685-120.12,284.663-189.441,446.721-185.418c279.194,6.924,459.202,160.716,535.024,457.103l0.438,2.505
					c0.627,6.533,14.819,161.218-30.589,266.514c-44.316,102.761-103.745,193.662-106.255,197.483l-1.414,1.85l-47.888,54.272
					l-1.812,1.199C2009.124,1874.045,1877.257,1913.071,1747.723,1913.071z M1763.89,849.184
					c-149.116,0-301.442,65.107-409.814,175.72c-99.563,101.626-151.135,229.551-145.215,360.212
					c8.635,190.571,109.158,348.45,275.796,433.159c191.038,97.112,428.494,79.048,620.234-47.061l44.209-50.103
					c6.475-9.998,62.146-96.937,102.93-191.511c40.034-92.832,29.39-234.543,28.159-249.153
					c-71.921-279.565-241.374-424.604-503.677-431.108C1772.317,849.235,1768.091,849.184,1763.89,849.184z M2115.763,1783.722
					h0.048H2115.763z"/>
			</g>
			<g>
				<path fill="#FFFFFF" d="M903.754,1351.671c-9.756,126.487,57.777,238.651,150.872,250.506
					c93.096,11.855,176.47-81.082,186.226-207.569c0.076-0.792,0.119-1.634,0.152-2.434c8.74-125.49-58.582-236.309-151.024-248.072
					c-71.916-9.163-138.03,44.221-168.896,127.278C912.01,1295.838,905.975,1322.907,903.754,1351.671z"/>
			</g>
			<g opacity="0.35">
				<path fill="#371A45" d="M903.754,1351.671c-9.756,126.487,57.777,238.651,150.872,250.506
					c93.096,11.855,176.47-81.082,186.226-207.569c0.076-0.792,0.119-1.634,0.152-2.434c-11.235,11.676-28.151,22.431-49.4,15.374
					c-37.216-12.376-98.777-102.351-98.777-102.351s-74.382-15.149-171.743-33.817
					C912.01,1295.838,905.975,1322.907,903.754,1351.671z"/>
			</g>
			<g>
				<path fill="#371A45" d="M1070.855,1619.628c-6.074,0-12.178-0.386-18.304-1.167
					c-101.494-12.922-175.601-133.171-165.195-268.054c6.006-77.854,38.311-146.018,88.635-187.014
					c34.98-28.499,75.098-40.815,116.045-35.591c101.495,12.922,175.598,133.171,165.193,268.057
					c-6.006,77.854-38.311,146.018-88.635,187.012C1138.851,1607.102,1105.377,1619.628,1070.855,1619.628z M1073.941,1159.506
					c-27.001,0-53.44,10.008-77.197,29.361c-42.745,34.819-71.392,96.155-76.629,164.067v0.002
					c-9.079,117.693,52.192,222.188,136.587,232.932c31.772,4.046,63.309-5.796,91.143-28.471
					c42.742-34.819,71.389-96.152,76.626-164.065c9.08-117.698-52.192-222.193-136.584-232.937
					C1083.23,1159.801,1078.577,1159.506,1073.941,1159.506z M903.736,1351.672h0.049H903.736z"/>
			</g>
			<g>
				<path fill="#FFFFFF" d="M885.189,1442.956c23.794,96.148,101.811,149.418,174.256,118.982
					c72.445-30.436,111.884-133.053,88.09-229.201c-23.793-96.148-101.811-149.418-174.256-118.982
					S861.396,1346.808,885.189,1442.956z"/>
				<path fill="#371A45" d="M1017.728,1572.289c-16.816,0-33.606-4.079-49.827-12.221c-40.273-20.217-71.03-62.751-84.38-116.7
					c-23.95-96.779,16.016-200.496,89.094-231.198c30.386-12.759,62.273-11.567,92.209,3.457
					c40.274,20.218,71.028,62.752,84.377,116.7c23.95,96.779-16.016,200.493-89.094,231.196
					C1046.187,1569.372,1031.949,1572.289,1017.728,1572.289z M1014.988,1206.847c-13.774,0-27.561,2.828-41.045,8.492
					c-71.582,30.073-110.649,131.997-87.087,227.204c13.107,52.971,43.21,94.688,82.588,114.454
					c29.006,14.563,59.899,15.73,89.336,3.357c71.579-30.073,110.649-131.995,87.087-227.202
					c-13.107-52.972-43.208-94.688-82.583-114.453C1047.562,1210.805,1031.285,1206.847,1014.988,1206.847z"/>
			</g>
			<g opacity="0.35">
				<path fill="#371A45" d="M1140.458,1475.452c11.104-32.752,13.124-68.678,7.511-103.022
					c-31.703,72.54-102.884,97.424-164.859,54.982c-40.058-27.408-67.031-76.662-75.687-129.811
					c-2.03,4.562-3.86,9.384-5.554,14.347c-28.233,83.415,2.285,187.639,68.182,232.785S1112.229,1558.818,1140.458,1475.452z"/>
			</g>
			<g>
				<path fill="#371A45" d="M1014.334,1587.08c-4.712,0-9.446-0.32-14.189-0.962c-78.564-10.628-135.847-109.98-127.69-221.472
					c4.834-66.091,32.009-125.256,72.69-158.267c26.353-21.382,56.346-30.518,86.733-26.401
					c78.567,10.627,135.85,109.98,127.69,221.472c-4.834,66.089-32.007,125.254-72.688,158.262
					C1064.64,1577.758,1039.808,1587.08,1014.334,1587.08z M1017.896,1211.889c-17.976,0-35.793,6.816-52.048,20.005
					c-33.776,27.405-56.44,77.927-60.625,135.149c-6.914,94.5,37.644,178.171,99.326,186.516c21.187,2.861,42.49-3.831,61.629-19.36
					c33.774-27.405,56.438-77.927,60.622-135.146c6.914-94.5-37.642-178.171-99.326-186.516
					C1024.283,1212.104,1021.084,1211.889,1017.896,1211.889z"/>
			</g>
			<g opacity="0.7">
				<path fill="#FFFFFF" d="M1615.709,951.089c0,0,288.192,25.317,443.706,193.135c0.163,0.176,0.326,0.353,0.489,0.529
					c32.7,35.348,55.163,78.743,65.365,125.447c13.491,61.764,13.631,106.225,12.223,145.361
					c-4.336,119.021-28.938,173.861-28.938,173.861c70.916-60.058,112.187-129.855,116.794-228.951
					c0.429-9.77,0.503-19.862,0.25-30.226c-0.05-2.388-0.154-4.754-0.295-7.137c0.054-0.02,0.031-0.074-0.028-0.143
					c-2.01-20.963-5.704-48.419-12.492-79.061c-20.414-92.428-68.703-213.879-182.961-274.028
					C1816.179,857.408,1606.225,938.25,1615.709,951.089z"/>
			</g>
			<g opacity="0.7">
				<path fill="#FFFFFF" d="M1482.039,1259.019c-16.433,52.823-67.064,84.147-113.089,69.967
					c-46.025-14.181-70.014-68.498-53.581-121.32c16.433-52.823,67.065-84.148,113.09-69.967
					C1474.483,1151.879,1498.472,1206.196,1482.039,1259.019z"/>
			</g>
			<g opacity="0.7">
				<path fill="#FFFFFF" d="M1368.043,1420.54c-8.63,21.158-30.58,32.299-49.026,24.885c-18.446-7.415-26.402-30.578-17.771-51.736
					c8.63-21.158,30.581-32.299,49.026-24.885C1368.717,1376.219,1376.674,1399.382,1368.043,1420.54z"/>
			</g>
		</g>
		<g>
			<path fill="#371A45" d="M1320.271,3254.033c14.918-17.072,34.993-27.713,55.773-34.883c20.852-7.199,42.646-12.432,64.895-14.217
				c5.541-0.781,11.119-0.856,16.705-1.057c5.581-0.041,11.192-0.535,16.765-0.041l16.773,0.91
				c5.588,0.391,11.084,1.509,16.637,2.241c11.182,1.216,21.934,4.392,32.811,7.028c5.503,1.141,10.623,3.431,15.923,5.174
				l15.703,5.776c8.502,3.128,12.86,12.554,9.733,21.055c-3.061,8.323-12.16,12.676-20.517,9.922l-1.401-0.464l-14.298-4.729
				c-4.766-1.541-9.415-3.521-14.305-4.58c-9.696-2.415-19.275-5.442-29.164-6.912c-19.59-4.143-39.635-5.354-59.721-5.363
				c-20.109,0.127-40.304,2.639-60.138,7.175c-19.859,4.69-39.425,10.127-60.653,15.237l-0.126,0.031
				c-0.758,0.184-1.522-0.285-1.705-1.043C1319.851,3254.834,1319.984,3254.367,1320.271,3254.033z"/>
		</g>
		<g>
			<path fill="#FFFFFF" d="M1238.749,2211.461c0,0,71.439,203.641,315.035,221.791c243.596,18.15,372.666-143.09,410.983-221.791
				H1238.749z"/>
		</g>
		<g opacity="0.35">
			<path fill="#371A45" d="M1964.749,2211.458c-38.318,78.69-167.36,239.931-410.945,221.776
				c-180.133-13.43-266.133-128.26-298.701-187.154c48.791,41.768,117.551,92.307,215.035,99.784
				c165.59,12.701,180.947-63.671,209.916-134.406H1964.749z"/>
		</g>
		<g>
			<path fill="#371A45" d="M1243.916,2209.648c14.248,13.579,24.661,28.206,34.83,42.979c10.474,14.551,20.435,29.399,31.65,43.42
				c11.146,14.072,23.973,26.738,37.55,38.418c13.572,11.705,28.101,22.278,43.415,31.551c15.308,9.277,31.29,17.453,47.87,24.282
				c16.662,6.614,33.723,12.308,51.23,16.495c34.951,8.482,71.356,11.623,107.691,11.389c36.253-0.758,72.395-5.35,107.136-15.154
				c34.787-9.575,68.099-24.162,98.89-42.932c30.844-18.709,58.945-41.934,83.74-68.203c6.188-6.582,12.144-13.377,17.905-20.33
				c5.689-7.014,10.659-14.58,15.562-22.109c5.038-7.451,10.192-14.727,16.177-21.584c6.005-6.863,12.71-13.27,22.283-18.805
				l0.15-0.088c3.102-1.794,7.072-0.732,8.866,2.369c0.456,0.788,0.729,1.664,0.83,2.512c1.295,11.336-1.186,21.333-4.842,30.581
				c-3.891,9.121-8.946,17.63-14.929,25.396c-5.954,7.808-12.571,15.039-18.7,22.627c-6.277,7.473-12.672,14.842-19.365,21.937
				c-26.759,28.358-57.118,53.444-90.541,73.729c-33.357,20.345-69.543,36.178-107.215,46.553
				c-37.633,10.611-76.624,15.563-115.462,16.354c-38.745,0.266-77.782-3.072-115.91-12.308
				c-19.05-4.56-37.714-10.765-55.958-18.027c-18.172-7.48-35.734-16.452-52.547-26.65c-16.821-10.195-32.781-21.812-47.665-34.644
				c-14.928-12.798-28.686-26.834-41.974-41.304c-13.288-14.47-25.409-30.159-34.829-47.474
				c-9.55-17.172-16.99-35.822-16.173-57.354c0.123-3.239,2.848-5.764,6.087-5.642c1.485,0.057,2.821,0.659,3.82,1.608
				L1243.916,2209.648z"/>
		</g>
		<g>
			<g>
				<g>
					<path fill="#371A45" d="M3036.946,2899.854c-1.128,0-2.271-0.115-3.418-0.359c-8.874-1.877-14.548-10.596-12.671-19.473
						l76.392-361.115c1.878-8.877,10.604-14.559,19.473-12.672c8.875,1.878,14.548,10.596,12.671,19.473l-76.392,361.116
						C3051.365,2894.553,3044.544,2899.854,3036.946,2899.854z"/>
				</g>
				<g>
					<path fill="#371A45" d="M2945.24,2899.854c-0.904,0-1.816-0.076-2.737-0.23c-8.947-1.501-14.985-9.971-13.483-18.918
						l60.581-361.116c1.501-8.947,9.982-14.985,18.918-13.483c8.948,1.502,14.985,9.971,13.484,18.918l-60.581,361.115
						C2960.076,2894.167,2953.118,2899.854,2945.24,2899.854z"/>
				</g>
				<g>
					<path fill="#371A45" d="M2853.533,2899.854c-0.674,0-1.355-0.042-2.041-0.127c-9.004-1.117-15.398-9.322-14.282-18.326
						l44.769-361.115c1.118-9.004,9.333-15.41,18.324-14.282c9.004,1.115,15.398,9.321,14.283,18.325l-44.769,361.115
						C2868.785,2893.762,2861.705,2899.854,2853.533,2899.854z"/>
				</g>
				<g>
					<path fill="#371A45" d="M2761.824,2899.851c-0.439,0-0.884-0.017-1.33-0.054c-9.043-0.725-15.787-8.643-15.062-17.688
						l28.955-361.116c0.723-9.04,8.643-15.806,17.688-15.062c9.043,0.726,15.786,8.643,15.061,17.688l-28.955,361.116
						C2777.493,2893.332,2770.303,2899.851,2761.824,2899.851z"/>
				</g>
				<g>
					<path fill="#371A45" d="M2670.108,2899.851c-0.2,0-0.403-0.005-0.608-0.013c-9.067-0.329-16.149-7.946-15.818-17.014
						l13.146-361.115c0.329-9.063,7.783-16.077,17.014-15.818c9.067,0.329,16.149,7.947,15.818,17.014l-13.145,361.116
						C2686.192,2892.883,2678.906,2899.851,2670.108,2899.851z"/>
				</g>
				<g>
					<path fill="#371A45" d="M2578.39,2899.851c-9.017,0-16.358-7.275-16.426-16.306l-2.669-361.116
						c-0.065-9.073,7.234-16.481,16.307-16.55c9.287-0.111,16.481,7.233,16.55,16.306l2.669,361.116
						c0.066,9.071-7.234,16.481-16.307,16.55C2578.473,2899.851,2578.431,2899.851,2578.39,2899.851z"/>
				</g>
				<g>
					<path fill="#371A45" d="M2486.668,2899.851c-8.687,0-15.942-6.813-16.392-15.589l-18.481-361.115
						c-0.464-9.061,6.507-16.782,15.566-17.246c9.043-0.418,16.782,6.506,17.246,15.566l18.481,361.115
						c0.464,9.061-6.507,16.782-15.566,17.246C2487.237,2899.844,2486.951,2899.851,2486.668,2899.851z"/>
				</g>
			</g>
			<g>
				<path fill="#E2E2E2" d="M3164.587,2487.201v0.041c0,19.344-15.73,35.074-35.074,35.074h-723.158l6.9,196.889
					c1.725,50.187-6.858,99.307-25.546,145.962l-7.311,18.276h672.725c19.344,0,35.073,15.688,35.073,35.032
					c0,9.692-3.942,18.44-10.268,24.806c-6.365,6.366-15.113,10.268-24.806,10.268h-700.898l-35.565,88.752
					c-9.652,24.149,0.574,43.411,5.421,50.599c4.846,7.146,18.933,23.82,44.931,23.82h748.128c18.646,0,34.868,14.128,36.101,32.732
					c0.698,10.638-3.368,20.288-10.186,27.188c-6.324,6.324-15.114,10.268-24.847,10.268h-749.196
					c-50.722,0-92.202-29.529-111.998-70.188c-14.538-29.94-17.331-65.876-3.45-100.539l25.095-62.632l28.132-70.105l17.783-44.396
					c14.949-37.292,21.932-77.253,20.535-117.419l-6.94-199.312l-1.108-31.625c-0.452-12.979-1.767-25.873-3.943-38.564
					c-7.968-46.572-27.271-90.641-56.43-128.261l-10.555-13.595l-76.719-98.813l-4.313-5.544h90.066l4.188,5.544l52.693,69.408
					c7.392,9.528,14.292,19.344,20.616,29.405c27.188,43.206,44.643,91.299,51.42,141.855h727.429
					C3148.856,2452.127,3164.587,2467.816,3164.587,2487.201z"/>
			</g>
			<g>
				<path fill="#371A45" d="M3116.224,3203.334h-749.211c-46.816,0-90.423-23.149-116.65-61.924
					c-26.229-38.776-31.482-87.871-14.056-131.328l71.009-177.146c14.185-35.329,20.698-72.588,19.367-110.742l-8.032-230.918
					c-2.012-57.464-21.709-111.875-56.965-157.347l-91.546-117.953c-3.845-4.957-4.533-11.668-1.774-17.301
					c2.758-5.629,8.481-9.201,14.753-9.201h90.034c5.137,0,9.979,2.402,13.084,6.494l56.914,74.951
					c37.446,48.242,62.563,104.985,73.024,164.783h713.33c28.396,0,51.499,23.1,51.499,51.496c0,28.436-23.103,51.535-51.499,51.535
					h-706.147l6.302,179.886c1.768,50.96-6.65,100.854-25.024,148.374h648.479c28.396,0,51.499,23.104,51.499,51.499
					s-23.103,51.496-51.499,51.496h-689.766l-31.445,78.431c-6.743,16.846,0.389,30.269,3.77,35.259
					c3.387,5,13.213,16.621,31.341,16.621h748.124c27.659,0,50.716,21.113,52.491,48.063c0.974,14.801-4.468,29.326-14.935,39.856
					C3142.931,3197.98,3129.99,3203.334,3116.224,3203.334z M2216.663,2222.33l70.984,91.461
					c39.512,50.965,61.584,111.938,63.84,176.34l8.032,230.918c1.492,42.762-5.813,84.521-21.711,124.121l-71.006,177.142
					c-13.563,33.815-9.634,70.518,10.773,100.69c20.408,30.172,53.008,47.477,89.437,47.477h749.211
					c4.993,0,9.683-1.939,13.206-5.459c3.838-3.863,5.773-9.023,5.414-14.498c-0.632-9.574-9.472-17.365-19.707-17.365h-748.124
					c-33.86,0-52.222-21.717-58.543-31.053c-6.321-9.328-19.665-34.432-7.067-65.902l35.583-88.753
					c2.5-6.23,8.538-10.315,15.249-10.315h700.879c10.281,0,18.643-8.361,18.643-18.64c0-10.28-8.361-18.643-18.643-18.643h-672.725
					c-5.451,0-10.549-2.705-13.605-7.222c-3.055-4.515-3.672-10.252-1.646-15.313l7.312-18.262
					c17.837-44.533,26.035-91.398,24.373-139.289l-6.897-196.883c-0.156-4.455,1.504-8.781,4.6-11.987s7.363-5.017,11.819-5.017
					h723.161c10.281,0,18.643-8.362,18.643-18.641c0-10.317-8.361-18.68-18.643-18.68h-727.404c-8.223,0-15.181-6.081-16.279-14.23
					c-8.001-59.275-31.769-115.779-68.733-163.4l-52.087-68.598H2216.663z"/>
			</g>
			<g opacity="0.35">
				<path fill="#371A45" d="M2350.664,2310.271h-86.533l-76.719-98.813h89.942l52.693,69.408
					C2337.439,2290.395,2344.34,2300.21,2350.664,2310.271z"/>
			</g>
			<g opacity="0.35">
				<path fill="#371A45" d="M3151.239,3149.452c0.698,10.638-3.368,20.288-10.186,27.188c-6.324,6.324-15.114,10.268-24.847,10.268
					h-749.196c-50.722,0-92.202-29.529-111.998-70.188c-10.021-20.658-14.497-44.191-11.664-68.218
					c1.644,13.924,5.668,27.313,11.664,39.715c19.796,40.659,61.276,70.188,111.998,70.188h749.196
					c9.732,0,18.522-3.942,24.847-10.268c2.999-2.998,5.421-6.53,7.188-10.473
					C3149.925,3141.279,3150.951,3145.264,3151.239,3149.452z"/>
			</g>
			<g>
				<rect x="2644.709" y="2409.054" fill="#4089FF" width="301.961" height="469.28"/>
			</g>
			<g opacity="0.35">
				<path fill="#371A45" d="M2946.67,2721.341v156.993h-301.961v-182.586c23.122,74.266,69.527,130.066,156.832,130.066
					C2878.479,2825.814,2922.657,2782.445,2946.67,2721.341z"/>
			</g>
			<g>
				<path fill="#371A45" d="M2946.656,2894.772h-301.963c-9.072,0-16.429-7.356-16.429-16.429v-469.309
					c0-9.072,7.356-16.428,16.429-16.428h301.963c9.072,0,16.428,7.355,16.428,16.428v469.309
					C2963.084,2887.416,2955.729,2894.772,2946.656,2894.772z M2661.121,2861.916h269.106v-436.453h-269.106V2861.916z"/>
			</g>
			<g>
				<rect x="2228.516" y="2409.054" fill="#4089FF" width="416.193" height="469.28"/>
			</g>
			<g opacity="0.35">
				<path fill="#371A45" d="M2644.709,2721.705v156.629h-416.193v-156.629c32.921,62.522,95.564,107.916,208.096,107.916
					C2549.144,2829.621,2611.787,2784.228,2644.709,2721.705z"/>
			</g>
			<g>
				<path fill="#371A45" d="M2644.693,2894.772h-416.177c-9.072,0-16.429-7.356-16.429-16.429v-469.309
					c0-9.072,7.356-16.428,16.429-16.428h416.177c9.072,0,16.428,7.355,16.428,16.428v469.309
					C2661.121,2887.416,2653.766,2894.772,2644.693,2894.772z M2244.944,2861.916h383.32v-436.453h-383.32V2861.916z"/>
			</g>
			<g>
				<rect x="2644.692" y="2267.158" fill="#4089FF" width="342.458" height="141.877"/>
			</g>
			<g opacity="0.4">
				<rect x="2644.709" y="2267.164" fill="#FFFFFF" width="342.455" height="28.346"/>
			</g>
			<g>
				<path fill="#371A45" d="M2987.148,2425.463h-342.455c-9.072,0-16.429-7.355-16.429-16.428v-141.877
					c0-9.073,7.356-16.429,16.429-16.429h342.455c9.073,0,16.429,7.355,16.429,16.429v141.877
					C3003.577,2418.107,2996.222,2425.463,2987.148,2425.463z M2661.121,2392.607h309.6v-109.021h-309.6V2392.607z"/>
			</g>
			<g>
				<rect x="2188.023" y="2267.158" fill="#4089FF" width="456.669" height="141.877"/>
			</g>
			<g opacity="0.4">
				<rect x="2188.021" y="2267.164" fill="#FFFFFF" width="456.688" height="28.346"/>
			</g>
			<g>
				<path fill="#371A45" d="M2644.693,2425.463h-456.67c-9.072,0-16.429-7.355-16.429-16.428v-141.877
					c0-9.073,7.356-16.429,16.429-16.429h456.67c9.072,0,16.428,7.355,16.428,16.429v141.877
					C2661.121,2418.107,2653.766,2425.463,2644.693,2425.463z M2204.451,2392.607h423.813v-109.021h-423.813V2392.607z"/>
			</g>
			<g>
				<rect x="2341.716" y="2267.158" fill="#FCD629" width="125.403" height="141.877"/>
			</g>
			<g opacity="0.4">
				<rect x="2341.735" y="2267.164" fill="#FFFFFF" width="125.368" height="28.346"/>
			</g>
			<g>
				<path fill="#371A45" d="M2467.119,2425.463h-125.402c-9.072,0-16.428-7.355-16.428-16.428v-141.877
					c0-9.073,7.355-16.429,16.428-16.429h125.402c9.073,0,16.429,7.355,16.429,16.429v141.877
					C2483.548,2418.107,2476.192,2425.463,2467.119,2425.463z M2358.145,2392.607h92.547v-109.021h-92.547V2392.607z"/>
			</g>
			<g>
				<rect x="2787.774" y="2267.158" fill="#FCD629" width="100.679" height="141.877"/>
			</g>
			<g opacity="0.4">
				<rect x="2787.773" y="2267.164" fill="#FFFFFF" width="100.667" height="28.346"/>
			</g>
			<g>
				<path fill="#371A45" d="M2888.453,2425.463h-100.68c-9.071,0-16.428-7.355-16.428-16.428v-141.877
					c0-9.073,7.356-16.429,16.428-16.429h100.68c9.072,0,16.428,7.355,16.428,16.429v141.877
					C2904.881,2418.107,2897.525,2425.463,2888.453,2425.463z M2804.202,2392.607h67.822v-109.021h-67.822V2392.607z"/>
			</g>
			<g>
				<rect x="2760.124" y="2409.029" fill="#FCD629" width="100.679" height="469.314"/>
			</g>
			<g opacity="0.35">
				<path fill="#371A45" d="M2860.783,2712.229v166.104h-100.667v-166.428c32.22,42.385,19.931,108.438,33.507,105.328
					c17.188-3.938,13.854-89.66,16.826-90.144c6.498-1.056,7.08,79.267,18.424,86.56
					C2842.699,2822.538,2856.005,2758.028,2860.783,2712.229z"/>
			</g>
			<g>
				<path fill="#371A45" d="M2860.804,2894.772h-100.679c-9.072,0-16.428-7.356-16.428-16.429V2409.03
					c0-9.072,7.355-16.429,16.428-16.429h100.679c9.072,0,16.429,7.356,16.429,16.429v469.313
					C2877.232,2887.416,2869.876,2894.772,2860.804,2894.772z M2776.553,2861.916h67.823v-436.457h-67.823V2861.916z"/>
			</g>
			<g>
				<rect x="2373.903" y="2409.035" fill="#FCD629" width="125.402" height="469.309"/>
			</g>
			<g opacity="0.35">
				<path fill="#371A45" d="M2499.296,2649.95v228.384h-125.409V2649.99c5.184,66.938,14.895,178.034,38.81,178.034
					s15.385-99.788,26.237-99.788c11.257,0,0.11,100.715,20.731,100.715C2480.285,2828.951,2494.194,2715.914,2499.296,2649.95z"/>
			</g>
			<g>
				<path fill="#371A45" d="M2499.305,2894.772h-125.402c-9.072,0-16.429-7.356-16.429-16.429v-469.309
					c0-9.072,7.356-16.428,16.429-16.428h125.402c9.072,0,16.429,7.355,16.429,16.428v469.309
					C2515.733,2887.416,2508.377,2894.772,2499.305,2894.772z M2390.33,2861.916h92.547v-436.453h-92.547V2861.916z"/>
			</g>
			<g>
				<path fill="#FCD629" d="M2877.588,2151.919c-6.276,20.409-15.793,38.308-26.888,49.808
					c-51.913,53.855-188.498,65.438-188.498,65.438h-2.187c53.371-15.469,126.705-59.85,115.771-98.156
					c-1.336-4.697-3.928-9.314-7.978-13.729c-12.311-13.523-26.077-17.533-40.21-14.779c-41.182,7.937-85.199,73.01-103.785,126.664
					h-45.394c0,0,16.278-78.193,57.42-149.057c30.734-52.967,75.399-101.842,137.436-110.912
					C2883.581,1991.078,2898.158,2084.983,2877.588,2151.919z"/>
			</g>
			<g opacity="0.35">
				<path fill="#371A45" d="M2877.588,2151.919c-6.276,20.409-15.793,38.308-26.888,49.808
					c-51.913,53.855-188.498,65.438-188.498,65.438h-2.187c53.371-15.469,126.705-59.85,115.771-98.156
					c5.183,3.766,10.204,6.681,15.671,6.397c8.787-0.445,30.046-52.439,35.229-9.88
					C2830.008,2192.898,2852.239,2153.457,2877.588,2151.919z"/>
			</g>
			<g opacity="0.35">
				<path fill="#371A45" d="M2727.6,2140.5c-41.182,7.937-85.199,73.01-103.785,126.664h-45.394c0,0,16.278-78.193,57.42-149.057
					c1.822,6.154,5.629,12.107,13.403,10.771c15.388-2.633,39.725-28.104,50.698-25.229c10.974,2.835-27.212,32.922-14.699,40.129
					C2696.702,2150.421,2711.848,2125.76,2727.6,2140.5z"/>
			</g>
			<g>
				<path fill="#371A45" d="M2662.22,2283.594h-2.209c-8.182,0-15.115-6.019-16.265-14.117c-1.15-8.098,3.832-15.811,11.687-18.09
					c49.09-14.239,97.861-47.005,104.375-70.123c1.106-3.934,1.484-8.781-4.118-14.926c-7.887-8.653-15.711-11.621-25.332-9.648
					c-32.713,6.713-73.484,65.332-91.038,115.866c-2.295,6.608-8.522,11.038-15.517,11.038h-45.364
					c-4.944,0-9.627-2.229-12.747-6.064c-3.12-3.838-4.346-8.875-3.335-13.717c2.127-10.207,53.884-250.244,208.55-272.875
					c74.902-10.959,105.916,26.003,117.734,49.014c27.573,53.691,8.608,137.18-26.105,173.181l0,0
					c-55.569,57.627-193.099,69.907-198.926,70.403C2663.147,2283.574,2662.684,2283.594,2662.22,2283.594z M2599.493,2250.736
					h12.894c22.336-56.428,66.877-117.102,111.364-126.232c21.079-4.326,40.527,2.485,56.221,19.699
					c12.199,13.382,16.162,29.28,11.46,45.973c-4.095,14.535-14.561,28.178-28.27,40.385c29.438-9.172,58.279-22.148,75.721-40.236
					l0,0c23.659-24.536,42.705-92.186,20.529-135.361c-13.869-27.014-42.039-37.605-83.75-31.516
					C2667.031,2039.343,2614.827,2194.924,2599.493,2250.736z"/>
			</g>
			<g opacity="0.35">
				<rect x="2644.709" y="2409.054" fill="#371A45" width="301.961" height="52.718"/>
			</g>
			<g opacity="0.35">
				<rect x="2228.516" y="2409.054" fill="#371A45" width="416.193" height="52.718"/>
			</g>
			<g opacity="0.35">
				<rect x="2644.709" y="2375.529" fill="#371A45" width="342.455" height="33.524"/>
			</g>
			<g opacity="0.35">
				<rect x="2188.021" y="2376.457" fill="#371A45" width="456.688" height="32.597"/>
			</g>
			<g opacity="0.4">
				<path fill="#FFFFFF" d="M2738.572,2061.879c6.18-17.535,37.434-32.564,66.491-30.659c40.159,2.634,53.114,48.636,49.156,59.25
					s-22.384-20.188-61.444-22.384C2774.282,2067.047,2731.521,2081.888,2738.572,2061.879z"/>
			</g>
			<g>
				<path fill="#371A45" d="M3053.108,2970.002H2648.16c-9.072,0-16.429-7.355-16.429-16.428v-70.146
					c0-9.072,7.356-16.429,16.429-16.429h404.948c28.398,0,51.504,23.103,51.504,51.501c0,13.699-5.342,26.621-15.041,36.385
					C3079.806,2964.647,3066.871,2970.002,3053.108,2970.002z M2664.588,2937.146h388.521c4.988,0,9.673-1.938,13.194-5.456
					c3.503-3.525,5.453-8.226,5.453-13.189c0-10.28-8.364-18.645-18.647-18.645h-388.521V2937.146z"/>
			</g>
			<g>
				<path fill="#371A45" d="M3129.5,2538.728h-481.34c-9.072,0-16.429-7.356-16.429-16.429v-70.188
					c0-9.072,7.356-16.428,16.429-16.428h481.34c28.398,0,51.502,23.103,51.502,51.501v0.042
					C3181.002,2515.625,3157.898,2538.728,3129.5,2538.728z M2664.588,2505.871H3129.5c10.281,0,18.645-8.364,18.645-18.645v-0.042
					c0-10.28-8.363-18.646-18.645-18.646h-464.912V2505.871z"/>
			</g>
			<g opacity="0.35">
				<path fill="#371A45" d="M2316.659,3013.799l35.565-88.752h700.898c9.692,0,18.44-3.902,24.806-10.268
					c2.998-2.998,5.504-6.57,7.229-10.596c1.931,4.354,3.039,9.199,3.039,14.292c0,9.692-3.942,18.44-10.268,24.806
					c-6.365,6.366-15.113,10.268-24.806,10.268h-700.898l-35.565,88.752c-0.78,2.013-1.479,3.984-2.013,5.914
					C2312.059,3039.057,2311.319,3027.188,2316.659,3013.799z"/>
			</g>
			<g opacity="0.35">
				<path fill="#371A45" d="M3164.587,2487.201v0.041c0,19.344-15.73,35.074-35.074,35.074H2407.34l-0.985-28.504h723.158
					c14.292,0,26.613-8.583,32.076-20.863C3163.52,2477.303,3164.587,2482.149,3164.587,2487.201z"/>
			</g>
			<g>
				<g>
					<g>
						<path fill="#E2E2E2" d="M3088.184,2918.501c0,9.651-3.943,18.44-10.268,24.806c-6.325,6.325-15.114,10.268-24.807,10.268
							H2648.16v-70.146h404.949C3072.494,2883.428,3088.184,2899.115,3088.184,2918.501z"/>
					</g>
					<g opacity="0.35">
						<path fill="#371A45" d="M3088.184,2918.501c0,9.651-3.943,18.44-10.268,24.806c-6.325,6.325-15.114,10.268-24.807,10.268
							H2648.16v-35.073h386.92c9.692,0,18.481-3.942,24.806-10.268c5.38-5.421,9.036-12.567,10.021-20.535
							C3080.79,2893.654,3088.184,2905.194,3088.184,2918.501z"/>
					</g>
					<g>
						<path fill="#E2E2E2" d="M3164.572,2487.186v0.041c0,19.385-15.688,35.074-35.072,35.074h-481.34v-70.189h481.34
							C3148.885,2452.111,3164.572,2467.842,3164.572,2487.186z"/>
					</g>
					<g opacity="0.35">
						<path fill="#371A45" d="M3164.572,2487.186v0.041c0,19.385-15.688,35.074-35.072,35.074h-481.34v-35.115h468.895
							c16.757,0,30.762-11.746,34.253-27.477C3159.398,2466.158,3164.572,2476.055,3164.572,2487.186z"/>
					</g>
				</g>
				<g>
					<path fill="#371A45" d="M3053.108,2970.002H2648.16c-9.072,0-16.429-7.355-16.429-16.428v-70.146
						c0-9.072,7.356-16.429,16.429-16.429h404.948c28.398,0,51.504,23.103,51.504,51.501c0,13.699-5.342,26.621-15.041,36.385
						C3079.806,2964.647,3066.871,2970.002,3053.108,2970.002z M2664.588,2937.146h388.521c4.988,0,9.673-1.938,13.194-5.456
						c3.503-3.525,5.453-8.226,5.453-13.189c0-10.28-8.364-18.645-18.647-18.645h-388.521V2937.146z"/>
				</g>
				<g>
					<path fill="#371A45" d="M3129.5,2538.728h-481.34c-9.072,0-16.429-7.356-16.429-16.429v-70.188
						c0-9.072,7.356-16.428,16.429-16.428h481.34c28.398,0,51.502,23.103,51.502,51.501v0.042
						C3181.002,2515.625,3157.898,2538.728,3129.5,2538.728z M2664.588,2505.871H3129.5c10.281,0,18.645-8.364,18.645-18.645v-0.042
						c0-10.28-8.363-18.646-18.645-18.646h-464.912V2505.871z"/>
				</g>
			</g>
			<g>
				<g>
					<path fill="#371A45" d="M3036.946,2899.854c-1.128,0-2.271-0.115-3.418-0.359c-8.874-1.877-14.548-10.596-12.671-19.473
						l76.392-361.115c1.878-8.877,10.604-14.559,19.473-12.672c8.875,1.878,14.548,10.596,12.671,19.473l-76.392,361.116
						C3051.365,2894.553,3044.544,2899.854,3036.946,2899.854z"/>
				</g>
				<g>
					<path fill="#371A45" d="M2945.24,2899.854c-0.904,0-1.816-0.076-2.737-0.23c-8.947-1.501-14.985-9.971-13.483-18.918
						l60.581-361.116c1.501-8.947,9.982-14.985,18.918-13.483c8.948,1.502,14.985,9.971,13.484,18.918l-60.581,361.115
						C2960.076,2894.167,2953.118,2899.854,2945.24,2899.854z"/>
				</g>
				<g>
					<path fill="#371A45" d="M2853.533,2899.854c-0.674,0-1.355-0.042-2.041-0.127c-9.004-1.117-15.398-9.322-14.282-18.326
						l44.769-361.115c1.118-9.004,9.333-15.41,18.324-14.282c9.004,1.115,15.398,9.321,14.283,18.325l-44.769,361.115
						C2868.785,2893.762,2861.705,2899.854,2853.533,2899.854z"/>
				</g>
				<g>
					<path fill="#371A45" d="M2761.824,2899.851c-0.439,0-0.884-0.017-1.33-0.054c-9.043-0.725-15.787-8.643-15.062-17.688
						l28.955-361.116c0.723-9.04,8.643-15.806,17.688-15.062c9.043,0.726,15.786,8.643,15.061,17.688l-28.955,361.116
						C2777.493,2893.332,2770.303,2899.851,2761.824,2899.851z"/>
				</g>
			</g>
			<g>
				<g>
					<circle fill="#A0A0A0" cx="2934.546" cy="3315.914" r="107.771"/>
				</g>
				<g>
					<path fill="#371A45" d="M2934.547,3440.111c-68.484,0-124.199-55.715-124.199-124.199c0-68.483,55.715-124.199,124.199-124.199
						c68.483,0,124.199,55.716,124.199,124.199C3058.746,3384.396,3003.03,3440.111,2934.547,3440.111z M2934.547,3224.57
						c-50.366,0-91.344,40.977-91.344,91.342c0,50.367,40.978,91.344,91.344,91.344s91.343-40.977,91.343-91.344
						C3025.89,3265.547,2984.913,3224.57,2934.547,3224.57z"/>
				</g>
				<g opacity="0.35">
					<path fill="#371A45" d="M3036.357,3282.806l-3.531,12.444c-12.444,43.616-52.281,73.68-97.623,73.68
						c-45.382,0-85.22-30.063-97.664-73.68l-4.805-16.879c6.037-16.306,15.935-30.721,28.543-42.18h145.018
						C3020.053,3248.677,3030.526,3264.694,3036.357,3282.806z"/>
				</g>
				<g>
					<path fill="#A0A0A0" d="M2597.135,3315.908c0,59.51-48.258,107.768-107.768,107.768c-59.551,0-107.809-48.258-107.809-107.768
						c0-13.184,2.383-25.833,6.736-37.537c6.037-16.306,15.935-30.721,28.543-42.18c19.139-17.413,44.603-28.051,72.529-28.051
						c27.928,0,53.391,10.638,72.489,28.051c13.758,12.485,24.23,28.503,30.062,46.614
						C2595.328,3293.238,2597.135,3304.367,2597.135,3315.908z"/>
				</g>
				<g>
					<circle fill="#371A45" cx="2489.349" cy="3315.914" r="41.76"/>
				</g>
				<g>
					<circle fill="#371A45" cx="2935.947" cy="3315.914" r="41.76"/>
				</g>
				<g>
					<path fill="#371A45" d="M2489.349,3440.111c-68.483,0-124.199-55.715-124.199-124.199c0-68.483,55.716-124.199,124.199-124.199
						s124.199,55.716,124.199,124.199C2613.548,3384.396,2557.832,3440.111,2489.349,3440.111z M2489.349,3224.57
						c-50.366,0-91.343,40.977-91.343,91.342c0,50.367,40.977,91.344,91.343,91.344s91.343-40.977,91.343-91.344
						C2580.691,3265.547,2539.715,3224.57,2489.349,3224.57z"/>
				</g>
				<g>
					<path fill="#E2E2E2" d="M2605.266,3186.908l-11.745,41.07l-5.134,17.988c-12.443,43.615-52.281,73.679-97.623,73.679
						c-45.382,0-85.22-30.063-97.664-73.679l-5.134-17.988l-11.745-41.07H2605.266z"/>
				</g>
				<g>
					<path fill="#371A45" d="M2490.75,3336.086c-52.412,0-99.063-35.2-113.449-85.598l-16.863-59.072
						c-1.416-4.957-0.422-10.289,2.681-14.404c3.105-4.114,7.962-6.533,13.115-6.533h229.031c5.153,0,10.009,2.419,13.115,6.533
						c3.103,4.115,4.097,9.447,2.681,14.404l-16.863,59.072C2589.815,3300.886,2543.162,3336.086,2490.75,3336.086z
						 M2398.009,3203.334l10.884,38.135c10.381,36.365,44.043,61.761,81.857,61.761c37.815,0,71.475-25.396,81.855-61.761
						l10.887-38.135H2398.009z"/>
				</g>
				<g>
					<path fill="#E2E2E2" d="M3050.464,3186.908l-11.746,41.07l-5.134,17.988c-12.444,43.615-52.282,73.679-97.623,73.679
						c-45.382,0-85.221-30.063-97.664-73.679l-5.134-17.988l-11.745-41.07H3050.464z"/>
				</g>
				<g>
					<path fill="#371A45" d="M2935.945,3336.086c-52.412,0-99.064-35.2-113.449-85.598l-16.86-59.072
						c-1.417-4.957-0.423-10.289,2.681-14.404c3.105-4.114,7.961-6.533,13.115-6.533h229.03c5.153,0,10.01,2.419,13.115,6.533
						c3.104,4.115,4.097,9.447,2.681,14.404l-16.863,59.072C3035.013,3300.886,2988.36,3336.086,2935.945,3336.086z
						 M2843.203,3203.334l10.887,38.135c10.381,36.365,44.041,61.761,81.855,61.761c37.817,0,71.478-25.396,81.855-61.761
						l10.887-38.135H2843.203z"/>
				</g>
				<g opacity="0.35">
					<polygon fill="#371A45" points="2376.221,3186.908 2605.266,3186.908 2593.521,3227.979 2387.966,3227.979 					"/>
				</g>
				<g opacity="0.35">
					<polygon fill="#371A45" points="3050.464,3186.908 3038.718,3227.979 2833.163,3227.979 2821.418,3186.908 					"/>
				</g>
			</g>
			<g>
				<circle fill="#A0A0A0" cx="2540.915" cy="3315.914" r="107.771"/>
			</g>
			<g>
				<path fill="#371A45" d="M2540.914,3440.111c-68.484,0-124.199-55.715-124.199-124.199c0-68.483,55.715-124.199,124.199-124.199
					c68.483,0,124.199,55.716,124.199,124.199C2665.113,3384.396,2609.397,3440.111,2540.914,3440.111z M2540.914,3224.57
					c-50.366,0-91.343,40.977-91.343,91.342c0,50.367,40.977,91.344,91.343,91.344s91.343-40.977,91.343-91.344
					C2632.257,3265.547,2591.28,3224.57,2540.914,3224.57z"/>
			</g>
			<g opacity="0.35">
				<path fill="#371A45" d="M2642.727,3282.806l-3.531,12.444c-12.444,43.616-52.282,73.68-97.623,73.68
					c-45.383,0-85.221-30.063-97.664-73.68l-4.806-16.879c6.037-16.306,15.935-30.721,28.544-42.18h145.018
					C2626.422,3248.677,2636.895,3264.694,2642.727,3282.806z"/>
			</g>
			<g>
				<path fill="#A0A0A0" d="M2203.503,3315.908c0,59.51-48.257,107.768-107.767,107.768c-59.552,0-107.809-48.258-107.809-107.768
					c0-13.184,2.382-25.833,6.736-37.537c6.037-16.306,15.934-30.721,28.543-42.18c19.138-17.413,44.602-28.051,72.529-28.051
					s53.391,10.638,72.488,28.051c13.758,12.485,24.23,28.503,30.063,46.614C2201.696,3293.238,2203.503,3304.367,2203.503,3315.908
					z"/>
			</g>
			<g>
				<circle fill="#371A45" cx="2095.717" cy="3315.914" r="41.76"/>
			</g>
			<g>
				<circle fill="#371A45" cx="2542.315" cy="3315.914" r="41.76"/>
			</g>
			<g>
				<path fill="#371A45" d="M2095.719,3440.111c-68.484,0-124.199-55.715-124.199-124.199c0-68.483,55.715-124.199,124.199-124.199
					c68.483,0,124.199,55.716,124.199,124.199C2219.918,3384.396,2164.202,3440.111,2095.719,3440.111z M2095.719,3224.57
					c-50.366,0-91.343,40.977-91.343,91.342c0,50.367,40.977,91.344,91.343,91.344s91.342-40.977,91.342-91.344
					C2187.061,3265.547,2146.085,3224.57,2095.719,3224.57z"/>
			</g>
			<g>
				<path fill="#E2E2E2" d="M2211.635,3186.908l-11.745,41.07l-5.134,17.988c-12.444,43.615-52.281,73.679-97.623,73.679
					c-45.383,0-85.22-30.063-97.664-73.679l-5.134-17.988l-11.746-41.07H2211.635z"/>
			</g>
			<g>
				<path fill="#371A45" d="M2097.117,3336.086c-52.412,0-99.064-35.2-113.45-85.598l-16.86-59.072
					c-1.416-4.957-0.422-10.289,2.681-14.404c3.105-4.114,7.961-6.533,13.115-6.533h229.031c5.154,0,10.01,2.419,13.115,6.533
					c3.104,4.115,4.097,9.447,2.681,14.404l-16.862,59.072C2196.18,3300.886,2149.529,3336.086,2097.117,3336.086z
					 M2004.376,3203.334l10.886,38.135c10.381,36.365,44.041,61.761,81.855,61.761s71.477-25.396,81.858-61.761l10.884-38.135
					H2004.376z"/>
			</g>
			<g>
				<path fill="#E2E2E2" d="M2656.832,3186.908l-11.746,41.07l-5.133,17.988c-12.445,43.615-52.282,73.679-97.624,73.679
					c-45.382,0-85.22-30.063-97.663-73.679l-5.134-17.988l-11.746-41.07H2656.832z"/>
			</g>
			<g>
				<path fill="#371A45" d="M2542.315,3336.086c-52.412,0-99.063-35.2-113.45-85.598l-16.86-59.072
					c-1.416-4.957-0.423-10.291,2.684-14.404c3.103-4.114,7.959-6.533,13.112-6.533h229.028c5.154,0,10.01,2.419,13.113,6.533
					c3.105,4.113,4.099,9.447,2.683,14.404l-16.857,59.072C2641.378,3300.886,2594.728,3336.086,2542.315,3336.086z
					 M2449.573,3203.334l10.884,38.135c10.381,36.365,44.043,61.761,81.858,61.761c37.814,0,71.477-25.396,81.857-61.761
					l10.884-38.135H2449.573z"/>
			</g>
			<g>
				<path fill="#E2E2E2" d="M2790.77,2487.201v0.041c0,19.344-15.689,35.074-35.074,35.074h-723.158l6.9,196.889
					c1.725,50.187-6.859,99.307-25.546,145.962l-7.31,18.276h672.724c19.344,0,35.073,15.688,35.073,35.032
					c0,9.692-3.943,18.44-10.268,24.806c-6.365,6.366-15.113,10.268-24.806,10.268h-700.898l-35.566,88.752
					c-9.651,24.149,0.575,43.411,5.421,50.599c4.846,7.146,18.933,23.82,44.931,23.82h748.127c18.646,0,34.869,14.128,36.101,32.732
					c0.698,10.638-3.368,20.288-10.185,27.188c-6.325,6.324-15.114,10.268-24.807,10.268h-749.237
					c-88.054,0-148.222-88.957-115.448-170.728l71.01-177.134c14.949-37.292,21.932-77.253,20.535-117.419l-8.05-230.937
					c-2.095-60.578-23.246-118.938-60.373-166.825l-10.555-13.595l-76.677-98.813l-4.312-5.544h90.024l4.23,5.544l52.693,69.408
					c7.392,9.528,14.251,19.344,20.576,29.405c27.188,43.206,44.642,91.299,51.418,141.855h727.43
					C2775.08,2452.127,2790.77,2467.816,2790.77,2487.201z"/>
			</g>
			<g opacity="0.35">
				<polygon fill="#371A45" points="1982.589,3186.908 2211.635,3186.908 2199.89,3227.979 1994.334,3227.979 				"/>
			</g>
			<g opacity="0.35">
				<polygon fill="#371A45" points="2656.832,3186.908 2645.086,3227.979 2439.532,3227.979 2427.786,3186.908 				"/>
			</g>
			<g>
				<path fill="#E2E2E2" d="M2790.77,2487.201v0.041c0,19.344-15.689,35.074-35.074,35.074h-723.158l6.9,196.889
					c1.725,50.187-6.859,99.307-25.546,145.962l-7.31,18.276h672.724c19.344,0,35.073,15.688,35.073,35.032
					c0,9.692-3.943,18.44-10.268,24.806c-6.365,6.366-15.113,10.268-24.806,10.268h-700.898l-35.566,88.752
					c-9.651,24.149,0.575,43.411,5.421,50.599c4.846,7.146,18.933,23.82,44.931,23.82h748.127c18.646,0,34.869,14.128,36.101,32.732
					c0.698,10.638-3.368,20.288-10.185,27.188c-6.325,6.324-15.114,10.268-24.807,10.268h-749.237
					c-88.054,0-148.222-88.957-115.448-170.728l71.01-177.134c14.949-37.292,21.932-77.253,20.535-117.419l-8.05-230.937
					c-2.095-60.578-23.246-118.938-60.373-166.825l-10.555-13.595l-76.677-98.813l-4.312-5.544h90.024l4.23,5.544l52.693,69.408
					c7.392,9.528,14.251,19.344,20.576,29.405c27.188,43.206,44.642,91.299,51.418,141.855h727.43
					C2775.08,2452.127,2790.77,2467.816,2790.77,2487.201z"/>
			</g>
			<g opacity="0.35">
				<path fill="#371A45" d="M1930.808,3007.597l24.157-60.282c6.892-17.197,23.554-28.47,42.08-28.47h670.227
					c9.693,0,18.44-3.901,24.807-10.267c4.6-4.642,7.967-10.556,9.446-17.209c7.844,6.448,12.854,16.182,12.854,27.106
					c0,9.692-3.943,18.44-10.268,24.806c-6.365,6.366-15.113,10.268-24.806,10.268h-700.898l-35.566,88.752
					c-2.751,6.941-3.901,13.471-3.983,19.426c-1.068-1.313-1.931-2.505-2.629-3.531
					C1931.382,3051.008,1921.156,3031.746,1930.808,3007.597z"/>
			</g>
			<g opacity="0.35">
				<path fill="#371A45" d="M2777.421,3149.452c0.698,10.638-3.368,20.288-10.185,27.188c-6.325,6.324-15.114,10.268-24.807,10.268
					h-749.237c-63.125,0-111.916-45.711-122.43-101.73c20.371,39.017,60.989,67.025,110.396,67.025h749.237
					c9.691,0,18.481-3.941,24.806-10.268c4.559-4.599,7.886-10.39,9.364-16.92
					C2771.836,3130.889,2776.764,3139.514,2777.421,3149.452z"/>
			</g>
			<g opacity="0.35">
				<path fill="#371A45" d="M2790.77,2487.201v0.041c0,19.344-15.689,35.074-35.074,35.074h-723.158l6.9,196.889
					c1.519,44.355-5.011,87.848-19.427,129.533h-13.429l7.297-16.611c18.687-46.655,15.25-97.439,13.525-147.627l-5.81-165.751
					c-0.596-17.018,13.038-31.138,30.065-31.138h692.002c16.797,0,30.803-11.828,34.252-27.558
					C2785.759,2466.461,2790.77,2476.236,2790.77,2487.201z"/>
			</g>
			<g>
				<path fill="#371A45" d="M2742.41,3203.334h-749.211c-46.816,0-90.425-23.149-116.65-61.924
					c-26.228-38.776-31.482-87.871-14.055-131.328l71.009-177.146c14.184-35.335,20.698-72.593,19.367-110.742l-8.032-230.918
					c-2.014-57.468-21.714-111.878-56.968-157.347l-91.543-117.953c-3.845-4.957-4.534-11.668-1.774-17.301
					c2.759-5.629,8.481-9.201,14.753-9.201h90.034c5.137,0,9.978,2.402,13.084,6.494l56.914,74.951
					c37.447,48.242,62.564,104.985,73.025,164.783h713.33c28.396,0,51.499,23.1,51.499,51.496c0,28.436-23.103,51.535-51.499,51.535
					h-706.147l6.302,179.886c1.768,50.96-6.65,100.854-25.024,148.374H2679.3c28.396,0,51.499,23.104,51.499,51.499
					s-23.103,51.496-51.499,51.496h-689.768l-31.445,78.431c-6.743,16.846,0.391,30.269,3.772,35.259
					c3.384,5,13.208,16.621,31.34,16.621h748.125c27.658,0,50.713,21.113,52.487,48.063c0.975,14.803-4.468,29.329-14.932,39.856
					C2769.117,3197.98,2756.178,3203.334,2742.41,3203.334z M1842.85,2222.33l70.981,91.463
					c39.509,50.955,61.584,111.932,63.843,176.336l8.032,230.92c1.492,42.754-5.813,84.515-21.709,124.121l-71.008,177.142
					c-13.562,33.818-9.634,70.518,10.773,100.69c20.408,30.172,53.006,47.477,89.436,47.477h749.211
					c4.993,0,9.683-1.939,13.205-5.459c3.838-3.86,5.772-9.023,5.413-14.498l0,0c-0.632-9.574-9.47-17.365-19.704-17.365h-748.125
					c-33.87,0-52.227-21.719-58.544-31.055c-6.318-9.326-19.664-34.43-7.068-65.898l35.583-88.755
					c2.5-6.23,8.538-10.315,15.25-10.315H2679.3c10.281,0,18.643-8.361,18.643-18.64c0-10.28-8.361-18.643-18.643-18.643h-672.727
					c-5.452,0-10.55-2.705-13.606-7.222s-3.672-10.254-1.643-15.314l7.314-18.262c17.834-44.531,26.033-91.396,24.371-139.287
					l-6.897-196.883c-0.156-4.455,1.504-8.781,4.6-11.987s7.363-5.017,11.819-5.017h723.161c10.281,0,18.643-8.362,18.643-18.641
					c0-10.317-8.361-18.68-18.643-18.68h-727.404c-8.223,0-15.181-6.081-16.279-14.23c-8.001-59.275-31.768-115.779-68.733-163.4
					l-52.087-68.598H1842.85z"/>
			</g>
			<g>
				<g>
					<path fill="#371A45" d="M2679.317,2899.854c-1.128,0-2.271-0.115-3.419-0.359c-8.874-1.877-14.548-10.596-12.67-19.473
						l76.391-361.115c1.878-8.877,10.596-14.559,19.474-12.672c8.874,1.878,14.548,10.596,12.671,19.473l-76.392,361.116
						C2693.736,2894.553,2686.915,2899.854,2679.317,2899.854z"/>
				</g>
				<g>
					<path fill="#371A45" d="M2587.613,2899.854c-0.903,0-1.816-0.076-2.737-0.23c-8.948-1.501-14.985-9.971-13.483-18.918
						l60.578-361.116c1.502-8.947,9.98-14.985,18.919-13.483c8.947,1.502,14.985,9.971,13.483,18.918l-60.578,361.115
						C2602.449,2894.167,2595.491,2899.854,2587.613,2899.854z"/>
				</g>
				<g>
					<path fill="#371A45" d="M2495.904,2899.854c-0.674,0-1.355-0.042-2.041-0.127c-9.004-1.117-15.398-9.322-14.282-18.326
						l44.768-361.115c1.116-9.004,9.31-15.41,18.325-14.282c9.004,1.115,15.398,9.321,14.282,18.325l-44.768,361.115
						C2511.155,2893.762,2504.075,2899.854,2495.904,2899.854z"/>
				</g>
				<g>
					<path fill="#371A45" d="M2404.195,2899.851c-0.439,0-0.885-0.017-1.331-0.054c-9.043-0.725-15.786-8.643-15.062-17.688
						l28.956-361.116c0.723-9.04,8.643-15.806,17.688-15.062c9.043,0.726,15.786,8.643,15.062,17.688l-28.955,361.116
						C2419.864,2893.332,2412.674,2899.851,2404.195,2899.851z"/>
				</g>
				<g>
					<path fill="#371A45" d="M2312.481,2899.851c-0.2,0-0.403-0.005-0.608-0.013c-9.067-0.329-16.149-7.946-15.817-17.014
						l13.142-361.115c0.33-9.063,7.806-16.124,17.014-15.818c9.068,0.329,16.15,7.947,15.818,17.014l-13.142,361.116
						C2328.565,2892.883,2321.277,2899.851,2312.481,2899.851z"/>
				</g>
				<g>
					<path fill="#371A45" d="M2220.76,2899.851c-9.016,0-16.357-7.275-16.426-16.306l-2.668-361.116
						c-0.066-9.073,7.233-16.481,16.306-16.55c0.042,0,0.083,0,0.125,0c9.016,0,16.357,7.275,16.426,16.306l2.668,361.116
						c0.066,9.071-7.233,16.481-16.306,16.55C2220.843,2899.851,2220.802,2899.851,2220.76,2899.851z"/>
				</g>
				<g>
					<path fill="#371A45" d="M2129.041,2899.851c-8.687,0-15.942-6.813-16.392-15.589l-18.481-361.115
						c-0.464-9.061,6.507-16.782,15.566-17.246c9.041-0.418,16.782,6.506,17.246,15.566l18.481,361.115
						c0.464,9.061-6.506,16.782-15.566,17.246C2129.61,2899.844,2129.324,2899.851,2129.041,2899.851z"/>
				</g>
			</g>
			<g>
				<path fill="#E2E2E2" d="M3065.952,2722.688h-324.898c-12.65,0-22.905-10.255-22.905-22.905l0,0
					c0-12.65,10.255-22.905,22.905-22.905h324.898c12.65,0,22.905,10.255,22.905,22.905l0,0
					C3088.857,2712.433,3078.603,2722.688,3065.952,2722.688z"/>
			</g>
			<g opacity="0.35">
				<path fill="#371A45" d="M3088.854,2699.778c0,6.325-2.546,12.075-6.735,16.182c-4.106,4.189-9.856,6.735-16.181,6.735h-324.904
					c-12.649,0-22.875-10.268-22.875-22.917c0-4.188,1.107-8.091,3.08-11.458c3.942,6.858,11.334,11.458,19.795,11.458h324.904
					c6.324,0,12.074-2.546,16.181-6.735c1.438-1.396,2.67-2.998,3.655-4.723C3087.745,2691.688,3088.854,2695.59,3088.854,2699.778z
					"/>
			</g>
			<g>
				<path fill="#371A45" d="M3065.953,2739.115h-324.9c-21.689,0-39.334-17.644-39.334-39.333s17.645-39.333,39.334-39.333h324.9
					c21.689,0,39.333,17.644,39.333,39.333S3087.643,2739.115,3065.953,2739.115z M2741.053,2693.305
					c-3.571,0-6.477,2.905-6.477,6.478c0,3.571,2.905,6.478,6.477,6.478h324.9c3.571,0,6.477-2.906,6.477-6.478
					c0-3.572-2.905-6.478-6.477-6.478H2741.053z"/>
			</g>
			<g>
				<path fill="#E2E2E2" d="M2695.242,2722.688H2061.76c-12.65,0-22.905-10.255-22.905-22.905l0,0
					c0-12.65,10.255-22.905,22.905-22.905h633.482c12.65,0,22.906,10.255,22.906,22.905l0,0
					C2718.148,2712.433,2707.893,2722.688,2695.242,2722.688z"/>
			</g>
			<g opacity="0.35">
				<path fill="#371A45" d="M2718.158,2699.778c0,6.325-2.547,12.075-6.736,16.182c-4.107,4.189-9.856,6.735-16.182,6.735h-633.461
					c-12.65,0-22.918-10.268-22.918-22.917c0-4.188,1.109-8.091,3.081-11.458c3.942,6.858,11.376,11.458,19.837,11.458h633.461
					c6.325,0,12.074-2.546,16.182-6.735c1.438-1.396,2.67-2.998,3.656-4.723C2717.049,2691.688,2718.158,2695.59,2718.158,2699.778z
					"/>
			</g>
			<g>
				<path fill="#371A45" d="M2695.242,2739.115h-633.481c-21.689,0-39.333-17.644-39.333-39.333s17.644-39.333,39.333-39.333
					h633.481c21.689,0,39.334,17.644,39.334,39.333S2716.932,2739.115,2695.242,2739.115z M2061.761,2693.305
					c-3.571,0-6.477,2.905-6.477,6.478c0,3.571,2.905,6.478,6.477,6.478h633.481c3.572,0,6.477-2.906,6.477-6.478
					c0-3.572-2.904-6.478-6.477-6.478H2061.761z"/>
			</g>
			<g opacity="0.35">
				<path fill="#371A45" d="M1976.847,2310.271h-86.535l-76.677-98.813h89.943l52.693,69.408
					C1963.663,2290.395,1970.522,2300.21,1976.847,2310.271z"/>
			</g>
			<g>
				<path fill="#EC0411" d="M2386.188,2196.049c0,27.262-22.1,49.387-49.388,49.387h-579.021v-98.801H2336.8
					C2364.088,2146.635,2386.188,2168.76,2386.188,2196.049z"/>
			</g>
			<g opacity="0.7">
				<path fill="#FFFFFF" d="M2386.189,2196.057c0,4.518-0.615,8.871-1.766,13.061c-5.709-20.946-24.848-36.348-47.641-36.348
					H1757.78v-26.119h579.003C2364.094,2146.65,2386.189,2168.745,2386.189,2196.057z"/>
			</g>
			<g opacity="0.35">
				<path fill="#371A45" d="M2386.189,2196.057c0,27.271-22.096,49.366-49.406,49.366H1757.78v-43.657h579.003
					c19.467,0,36.265-11.212,44.314-27.558C2384.342,2180.779,2386.189,2188.213,2386.189,2196.057z"/>
			</g>
			<g>
				<path fill="#371A45" d="M2336.8,2261.864h-579.021c-9.072,0-16.429-7.355-16.429-16.428v-98.802
					c0-9.072,7.356-16.428,16.429-16.428H2336.8c36.292,0,65.815,29.536,65.815,65.842
					C2402.615,2232.341,2373.092,2261.864,2336.8,2261.864z M1774.207,2229.008H2336.8c18.174,0,32.959-14.785,32.959-32.959
					c0-18.188-14.785-32.985-32.959-32.985h-562.593V2229.008z"/>
			</g>
			<g>
				<circle fill="#EC0411" cx="1757.787" cy="2196.037" r="49.392"/>
			</g>
			<g opacity="0.35">
				<path fill="#371A45" d="M1807.188,2196.057c0,27.271-22.137,49.366-49.407,49.366s-49.366-22.096-49.366-49.366
					c0-6.57,1.273-12.855,3.614-18.604c7.352,18.07,25.053,30.802,45.752,30.802s38.441-12.731,45.752-30.802
					C1805.914,2183.201,1807.188,2189.486,1807.188,2196.057z"/>
			</g>
			<g>
				<path fill="#371A45" d="M1757.786,2261.857c-36.294,0-65.82-29.527-65.82-65.82c0-36.294,29.526-65.82,65.82-65.82
					s65.82,29.526,65.82,65.82C1823.606,2232.33,1794.08,2261.857,1757.786,2261.857z M1757.786,2163.073
					c-18.176,0-32.964,14.788-32.964,32.964s14.788,32.964,32.964,32.964c18.176,0,32.964-14.788,32.964-32.964
					S1775.962,2163.073,1757.786,2163.073z"/>
			</g>
		</g>
		<g>
			<path fill="#FFFFFF" d="M2124.528,2146.635c0,0,20.05,13.092,34.072,71.85c8.02,33.607,200.278,54.822,239.037-3.152
				c35.389-52.934,9.897-149.823-65.435-178.703c-70.776-27.135-285.109-27.135-331.181,106.138L2124.528,2146.635z"/>
		</g>
		<g opacity="0.35">
			<path fill="#371A45" d="M2410.603,2184.475c-2.546,11.213-6.858,21.686-12.978,30.844
				c-38.729,57.99-231.018,36.758-239.027,3.162c-14.005-58.771-34.088-71.83-34.088-71.83l-71.584-2.26
				c30.597-21.438,67.478-41.973,89.367-35.402c28.051,8.461,25.682,27.99,45.917,80.587
				C2201.509,2224.145,2354.008,2226.284,2410.603,2184.475z"/>
		</g>
		<g>
			<path fill="#371A45" d="M2282.264,2267.992c-23.815,0-47.002-2.25-66.13-5.684c-44.344-7.953-69.077-21.416-73.514-40.01
				c-6.599-27.653-14.406-43.732-19.795-52.351c-2.766-4.427-7.48-7.163-12.612-7.324l-56.018-1.756
				c-19.227-0.603-35.745-12.04-43.108-29.855c-7.314-17.692-3.73-37.317,9.358-51.212c80.728-85.702,252.175-83.605,317.639-58.512
				c39.946,15.314,70.74,48.906,84.487,92.16c12.698,39.956,8.481,81.457-11.276,111.014
				C2389.397,2257.217,2334.347,2267.99,2282.264,2267.992z M2174.322,2213.604c7.349,8.439,54.824,22.559,114.187,21.486
				c47.581-0.906,84.163-11.976,95.472-28.889c14.043-21.006,16.833-52.734,7.277-82.801c-10.703-33.68-34.37-59.715-64.937-71.434
				c-51.53-19.758-209.614-26.453-281.96,50.363c-6.177,6.559-3.789,14.005-2.91,16.129c0.896,2.173,4.543,9.279,13.771,9.567
				l56.021,1.756c16.108,0.508,30.854,9.011,39.443,22.749C2160.279,2167.878,2168.229,2188.42,2174.322,2213.604z
				 M2174.578,2214.672h0.052H2174.578z M2173.98,2213.176"/>
		</g>
		<g>
			<path fill="#FFFFFF" d="M1680.41,2221.749c0,0,8.319-93.021,81.197-95.737c72.878-2.717,70.057,81.367,85.845,102.543
				c15.789,21.176,142.469,24.379,187.899,15.043c58.485-12.018,109.504-152.319-81.677-202.598
				c-203.235-53.448-367.735,99.828-483.004,67.561c-86.422-24.192-106.382-151.15-106.382-151.15l-111.928,253.865
				L1680.41,2221.749z"/>
		</g>
		<g opacity="0.35">
			<path fill="#371A45" d="M2088.492,2164.844c-0.041,39.469-25.792,73.146-53.145,78.771
				c-45.423,9.323-172.124,6.119-187.895-15.072c-15.771-21.15-12.979-105.262-85.836-102.551
				c-72.899,2.751-81.195,95.774-81.195,95.774l0,0c-9.194-0.233-7.985-7.935-5.421-16.767
				c15.65-53.92,37.975-116.773,93.271-115.109c72.899,2.137,85.959,63.918,101.729,85.109
				c15.813,21.15,132.697,31.406,178.12,22.084C2063.521,2193.922,2078.43,2181.847,2088.492,2164.844z"/>
		</g>
		<g>
			<path fill="#371A45" d="M1369.698,1956.56c13.729,27.324,25.463,54.165,40.047,78.206c14.847,23.709,33.174,44.414,56.756,54.409
				c11.584,5.104,24.929,7.317,38.53,7.43c13.665,0.124,27.787-1.893,41.934-4.891c28.35-6.066,56.812-15.962,85.501-25.977
				c28.699-10.098,57.785-20.425,87.626-29.241c29.887-8.649,60.504-16.091,91.96-19.895c62.756-8.387,128.533-1.47,188.052,22.529
				c14.98,6.016,29.701,13.345,43.491,22.762c13.785,9.328,26.761,20.658,37.389,34.516c10.744,13.719,18.419,30.439,21.973,48.076
				c3.355,17.701,2.256,36.243-3.292,53.33c-5.526,17.081-15.072,32.984-29.267,45.428c-7.1,6.174-15.475,11.506-25.343,14.712
				c-2.425,0.671-5.241,1.514-7.378,1.921c-2.104,0.394-4.231,0.812-6.268,1.1c-4.136,0.668-8.162,1.159-12.171,1.582
				c-31.91,3.135-62.863,2.966-94.264,1.081c-15.69-1.048-31.372-2.61-47.473-5.661c-8.091-1.604-16.208-3.453-25.111-6.951
				c-4.555-2.051-9.281-3.882-15.11-9.309c-3.316-3.328-4.865-6.014-6.208-8.45c-1.399-2.524-2.34-4.763-3.237-6.966
				c-3.395-8.682-5.234-16.11-7.389-23.408c-2.076-7.214-4.129-14.125-6.553-20.576c-4.78-12.907-11.141-24.063-19.639-30.766
				c-8.302-6.855-19.36-9.524-32.034-9.104c-12.41,0.513-23.25,5.073-32.037,12.554c-8.871,7.402-16.488,17.547-23.21,29.238
				c-6.902,11.577-13.319,24.607-21.112,37.998l-0.257,0.441c-1.616,2.779-5.179,3.721-7.958,2.103
				c-1.376-0.801-2.307-2.095-2.694-3.521c-2.307-8.586-2.582-16.777-2.142-25.197c0.558-8.355,2.201-16.686,4.998-24.808
				c5.655-16.071,15.375-32.161,30.582-43.728c7.5-5.771,16.166-10.254,25.183-13.193c9.024-2.959,18.34-4.4,27.423-4.756
				c8.948-0.247,18.323,0.451,27.667,3.034c9.318,2.526,18.521,7.067,26.14,13.304c7.668,6.174,13.838,13.659,18.605,21.371
				c4.752,7.74,8.312,15.694,11.26,23.528c2.938,7.839,5.213,15.576,7.359,23.021c2.125,7.341,4.102,14.724,6.306,20.248
				c0.536,1.332,1.094,2.613,1.563,3.416c0.429,0.936,1.012,1.46,0.43,0.801c-0.281-0.145,2.031,1.346,4.447,2.293
				c5.308,2.1,12.103,3.804,18.971,5.127c13.888,2.641,28.631,4.162,43.379,5.131c29.488,1.807,59.784,1.898,88.627-0.967
				c3.578-0.373,7.129-0.813,10.524-1.361c1.741-0.244,3.355-0.574,5.002-0.877c1.608-0.314,2.423-0.688,3.692-0.962
				c4.674-1.499,9.506-4.411,13.875-8.245c8.837-7.663,15.752-18.764,19.538-30.681c3.882-11.95,4.608-24.795,2.306-37.07
				c-2.544-12.231-7.739-24.069-15.848-34.377c-7.967-10.379-18.193-19.454-29.648-27.2c-11.414-7.822-24.166-14.219-37.485-19.551
				c-53.845-21.626-113.401-28.127-171.554-20.359c-29.176,3.512-58.092,10.514-86.791,18.816
				c-28.703,8.479-57.166,18.566-86.033,28.729c-28.902,10.059-58.217,20.371-89.594,27.119c-15.675,3.322-31.95,5.681-48.838,5.629
				c-16.844-0.063-34.3-2.312-51.008-8.799c-16.676-6.267-31.616-16.396-43.958-28.405c-6.13-6.064-11.628-12.583-16.638-19.362
				c-4.841-6.881-9.342-13.895-13.17-21.214c-7.667-14.587-13.71-29.751-17.288-45.449c-3.475-15.745-5.578-31.531-3.958-48.003
				c0.306-3.108,3.072-5.378,6.179-5.073c1.988,0.195,3.633,1.399,4.48,3.054L1369.698,1956.56z"/>
		</g>
		<g>
			<g>
				<path fill="#FCD629" d="M2420.01,2162.244c-11.095,13.85-6.642,28.953,5.305,43.855c0,0,0,0,0.041,0.04
					c18.424,22.88,54.746,45.151,79.65,61.024h-46.365c0,0-137.111-25.065-188.741-86.494c-3.158-3.767-5.952-7.856-8.342-12.189
					c-28.346-51.143-0.485-136.261,122.655-152.822c83.377-11.217,132.576,75.196,159.222,149.745c-0.04,0,0,0.04,0,0.04
					c19.234,53.979,26.685,101.721,26.685,101.721h-38.347c-7.411-33.043-26.281-72.848-48.228-97.063
					C2462.771,2147.182,2439.244,2138.232,2420.01,2162.244z"/>
			</g>
			<g opacity="0.35">
				<path fill="#371A45" d="M2570.119,2267.164h-38.347c-7.411-33.043-26.281-72.848-48.228-97.063
					c6.397,2.43,14.132,4.575,17.169,2.349c5.548-4.131-6.925-26.199-1.984-31.545c4.94-5.345,32.921,19.518,38.185,30.047
					c1.661,3.32,4.01,0.243,6.521-5.508C2562.669,2219.422,2570.119,2267.164,2570.119,2267.164z"/>
			</g>
			<g opacity="0.35">
				<path fill="#371A45" d="M2505.006,2267.164h-46.365c0,0-137.111-25.065-188.741-86.494c-3.158-3.767-5.952-7.856-8.342-12.189
					c3.928-1.072,8.39-16.785,8.39-16.785s23.543,25.701,34.563,22.548c6.274-1.785,4.005-15.528,2.194-30.009
					c-2.853-22.822,3.292-35.149,8.778-36.356c5.486-1.206,6.145,26.7,20.847,47.548c14.381,20.391,35.857,22.313,35.331,9.436
					c-1.296-32.881,8.463-44.852,15.793-13.833c6.114,25.835,8.139,39.562,37.861,55.071c0,0,0,0,0.041,0.04
					C2443.779,2229.02,2480.102,2251.291,2505.006,2267.164z"/>
			</g>
			<g>
				<path fill="#371A45" d="M2570.138,2283.594h-38.348c-5.444,0-10.373-2.674-13.384-6.9c-3.02,4.241-7.961,6.9-13.384,6.9h-46.364
					c-0.991,0-1.98-0.091-2.954-0.27c-5.838-1.066-143.56-26.879-198.362-92.087c-22.915-27.292-28.701-66.062-15.1-101.187
					c18.662-48.198,69.619-81.248,139.802-90.674c157.908-21.213,202.503,253.555,204.326,265.262
					c0.737,4.74-0.635,9.566-3.755,13.213C2579.493,2281.496,2574.935,2283.594,2570.138,2283.594z M2445.584,2164.395
					c-3.018,0-7.354,1.359-12.752,8.103c-0.002,0.003-0.004,0.005-0.007,0.007c-2.93,3.655-2.979,6.289-2.598,8.592
					c3.563,21.421,52.469,52.446,78.743,69.116l1.203,0.765c-14.097-41.783-41.604-81.563-61.506-86.162
					C2447.884,2164.633,2446.849,2164.395,2445.584,2164.395z M2544.479,2250.736h5.795
					c-12.406-58.773-58.288-232.982-163.854-218.796c-57.949,7.783-99.333,33.288-113.537,69.976
					c-9.275,23.95-5.589,50.078,9.616,68.188c37.598,44.733,128.172,69.392,164.09,77.686c-24.16-18.196-45.064-39.021-48.77-61.304
					c-2.059-12.373,1.182-24.312,9.365-34.526l0,0c13.269-16.572,30.63-23.376,48.882-19.157
					C2497.008,2142.263,2530.896,2204.506,2544.479,2250.736z M2420.008,2162.229h0.049H2420.008z"/>
			</g>
			<g opacity="0.4">
				<path fill="#FFFFFF" d="M2333.195,2071.205c6.18-17.534,28.055-25.121,56.88-29.257c21.315-3.059,70.858,16.976,66.901,27.591
					c-3.959,10.615-27.945,3.463-68.198,6.877C2370.322,2077.98,2326.143,2091.215,2333.195,2071.205z"/>
			</g>
			<g>
				<path fill="#FCD629" d="M2460.948,2294.619c-2.632,26.563,10.569,72.199,17.857,114.395
					c14.497,83.619,1.985,132.414,1.985,132.414s-32.922-20.409-71.756-22.394c-28.507-1.458-72.321,20.976-74.953,22.312
					c27.899-24.66,5.952-95.646-9.517-160.557c-11.621-48.633-19.559-93.824-0.243-113.625c71.553-73.334,195.747,0,195.747,0
					s-38.186-6.641-53.128,10.488C2463.5,2281.62,2461.637,2287.41,2460.948,2294.619z"/>
			</g>
			<g opacity="0.4">
				<path fill="#FFFFFF" d="M2520.069,2267.164c0,0-34.46-5.993-50.698,8.139c-42.519-13.646-102.936-21.299-145.049,21.867
					c-5.952,6.154-9.354,14.699-10.771,25.065c-2.431-23.972-0.324-43.692,10.771-55.071
					C2395.875,2193.83,2520.069,2267.164,2520.069,2267.164z"/>
			</g>
			<g opacity="0.35">
				<path fill="#371A45" d="M2480.791,2541.428c0,0-32.922-20.409-71.756-22.394c-28.507-1.458-72.321,20.976-74.953,22.312
					c27.899-24.66,5.952-95.646-9.517-160.557c30.452,22.758,36.89,82.607,56.976,77.707c24.376-5.912-6.862-104.492,6.906-130.367
					c9.435-17.736,6.663,125.098,48.156,128.705c26.876,2.336,19.323-85.236,13.412-118.725
					c-3.483-19.519,4.049-34.461,10.933-43.49c-2.632,26.563,10.569,72.199,17.857,114.395
					C2493.303,2492.633,2480.791,2541.428,2480.791,2541.428z"/>
			</g>
			<g>
				<path fill="#371A45" d="M2480.784,2557.858c-3.02,0-6.022-0.833-8.659-2.468c-0.267-0.164-30.013-18.213-63.931-19.938
					c-20.317-0.959-54.985,14.478-66.614,20.54c-7.378,3.843-16.47,1.575-21.162-5.293c-4.694-6.868-3.521-16.157,2.742-21.636
					c17.312-15.145,2.69-74.302-9.061-121.836c-15.527-62.824-30.197-122.166-1.54-151.543
					c79.636-81.616,210.337-5.926,215.859-2.666c6.831,4.033,9.805,12.373,7.065,19.819c-2.737,7.437-10.396,11.855-18.198,10.517
					c-12.254-2.064-32.246-1.441-37.944,5.096c-6.961,7.983,2.31,52.037,7.849,78.357c2.72,12.922,5.53,26.287,7.806,39.419
					c14.914,86.089,2.248,137.151,1.701,139.282c-1.299,5.066-4.932,9.211-9.785,11.162
					C2484.939,2557.465,2482.857,2557.858,2480.784,2557.858z M2406.395,2502.556c1.17,0,2.322,0.026,3.467,0.085
					c22.744,1.155,43.47,7.896,58.071,14.064c2.031-20.896,2.993-56.945-5.31-104.87c-2.176-12.551-4.925-25.622-7.586-38.261
					c-10.156-48.268-18.179-86.39-0.461-106.715c2.222-2.546,4.712-4.738,7.393-6.621c-38.325-11.828-90.547-17.832-125.892,18.392
					c-15.892,16.292-1.579,74.192,9.92,120.716c10.183,41.195,20.007,80.941,17.524,111.716
					C2377.215,2506.408,2392.691,2502.556,2406.395,2502.556z"/>
			</g>
		</g>
	</g>
</g>
</svg>
