<?xml version="1.0" encoding="utf-8"?>
<!-- Generator: Adobe Illustrator 15.0.0, SVG Export Plug-In . SVG Version: 6.00 Build 0)  -->
<!DOCTYPE svg PUBLIC "-//W3C//DTD SVG 1.1//EN" "http://www.w3.org/Graphics/SVG/1.1/DTD/svg11.dtd">
<svg version="1.1" id="Layer_1" xmlns="http://www.w3.org/2000/svg" xmlns:xlink="http://www.w3.org/1999/xlink" x="0px" y="0px"
	 width="4000px" height="4000px" viewBox="0 0 4000 4000" enable-background="new 0 0 4000 4000" xml:space="preserve">
<g>
	<g>
		<g>
			<g>
				<g>
					<g>
						<path fill="#FF1542" d="M3072.618,1423.471c-4.668,0-9.292-1.807-12.769-5.289c-5.801-5.801-6.963-14.78-2.827-21.865
							l36.377-62.305c7.188-12.305,5.679-27.593-3.755-38.042c-37.153-41.157-57.852-94.346-58.286-149.771
							c-0.962-123.428,98.599-225.781,221.938-228.154c1.494-0.029,2.974-0.044,4.458-0.044c61.152,0,118.457,24.004,161.362,67.593
							c42.896,43.579,65.981,101.279,65.015,162.475c-1.943,122.813-103.516,222.739-226.396,222.739c-0.01,0-1.953-0.01-1.953-0.01
							c-19.219-0.166-38.32-2.764-56.777-7.715c-2.563-0.688-5.215-1.035-7.881-1.035c-5.503,0-10.957,1.485-15.771,4.292
							l-93.638,54.668C3078.878,1422.665,3075.738,1423.471,3072.618,1423.471z"/>
					</g>
				</g>
				<g>
					<g>
						<g>
							<path fill="#000072" d="M3257.755,936.054c116.191,0,210.176,95.115,208.325,211.728
								c-1.792,113.24-95.303,204.971-208.35,204.971c-0.596,0-1.196-0.002-1.792-0.007c-18.062-0.154-35.571-2.617-52.256-7.098
								c-4.136-1.108-8.354-1.652-12.559-1.652c-8.662,0-17.256,2.31-24.868,6.753l-93.643,54.673l36.377-62.308
								c11.064-18.947,8.76-42.946-5.942-59.235c-32.988-36.543-53.223-84.813-53.638-137.822
								c-0.884-113.509,90.742-207.778,204.233-209.963C3255.021,936.066,3256.383,936.054,3257.755,936.054 M3257.755,899.948
								c-1.602,0-3.198,0.015-4.805,0.046c-133.179,2.563-240.684,113.074-239.644,246.343
								c0.469,59.854,22.822,117.293,62.939,161.736c4.141,4.583,4.771,11.35,1.567,16.833l-36.382,62.313
								c-8.271,14.167-5.952,32.131,5.649,43.733c6.958,6.956,16.201,10.576,25.542,10.576c6.24,0,12.52-1.613,18.193-4.926
								l93.643-54.673c2.051-1.197,4.355-1.829,6.665-1.829c1.084,0,2.163,0.142,3.203,0.42c19.922,5.352,40.552,8.154,61.304,8.33
								l2.1,0.01c132.69,0,242.354-107.891,244.448-240.506c1.05-66.066-23.882-128.366-70.195-175.422
								C3385.66,925.868,3323.785,899.948,3257.755,899.948L3257.755,899.948z"/>
						</g>
					</g>
				</g>
			</g>
			<g opacity="0.3">
				<g>
					<path fill="#000072" d="M3461.549,1121.827c-0.105-2.287-0.245-4.564-0.423-6.832c-0.092-1.162-0.185-2.323-0.295-3.479
						c-0.219-2.295-0.487-4.576-0.78-6.849c-0.127-0.984-0.229-1.976-0.37-2.955c-0.433-3.021-0.936-6.02-1.496-8.997
						c-0.245-1.297-0.533-2.579-0.802-3.867c-0.368-1.764-0.746-3.524-1.158-5.272c-0.364-1.542-0.749-3.076-1.147-4.604
						c-0.371-1.426-0.765-2.843-1.164-4.257c-0.471-1.66-0.938-3.322-1.447-4.965c-0.307-0.986-0.647-1.957-0.966-2.937
						c-1.253-3.824-2.602-7.604-4.065-11.328c-0.207-0.529-0.402-1.064-0.614-1.592c-0.83-2.063-1.705-4.104-2.599-6.133
						c-0.271-0.614-0.542-1.228-0.817-1.838c-0.958-2.118-1.938-4.224-2.965-6.304c-0.08-0.162-0.164-0.321-0.244-0.482
						c-4.684-9.435-10.054-18.47-16.056-27.03c10.223,25.169,15.697,52.774,15.238,81.718
						c-1.54,97.266-70.765,178.609-161.896,199.639c-96.621,21.397-152.856,3.326-187.073-30.421
						c-0.171-0.195-25.097-46.172-30.015-53.18c0.002,0.003,0.004,0.007,0.005,0.011c0.779,1.916,1.6,3.81,2.434,5.696
						c-0.016-0.019-0.028-0.034-0.044-0.052c9.021,20.422,21.203,39.135,35.964,55.487c14.704,16.288,17.011,40.287,5.946,59.237
						l-36.377,62.305l93.643-54.673c11.305-6.6,24.78-8.494,37.423-5.1c16.686,4.479,34.195,6.943,52.258,7.098
						c3.274,0.028,6.528-0.041,9.769-0.165c3.011-0.115,5.999-0.322,8.978-0.565c0.448-0.037,0.902-0.053,1.35-0.092
						c2.732-0.242,5.441-0.569,8.145-0.917c0.682-0.088,1.371-0.149,2.052-0.244c2.541-0.353,5.057-0.785,7.568-1.23
						c0.826-0.146,1.66-0.267,2.483-0.423c2.394-0.454,4.762-0.981,7.126-1.517c0.922-0.208,1.851-0.394,2.768-0.616
						c2.272-0.548,4.52-1.163,6.763-1.785c0.986-0.274,1.981-0.527,2.961-0.815c2.168-0.636,4.312-1.334,6.45-2.04
						c1.029-0.339,2.064-0.661,3.087-1.016c2.072-0.72,4.119-1.495,6.162-2.277c1.062-0.406,2.129-0.799,3.182-1.223
						c1.982-0.797,3.938-1.644,5.891-2.5c1.083-0.475,2.171-0.94,3.245-1.433c1.892-0.868,3.759-1.781,5.621-2.704
						c1.101-0.545,2.205-1.084,3.295-1.649c1.808-0.936,3.592-1.913,5.37-2.9c1.104-0.614,2.211-1.225,3.305-1.857
						c1.727-1,3.431-2.037,5.127-3.085c1.105-0.684,2.211-1.368,3.304-2.071c1.644-1.059,3.266-2.149,4.879-3.252
						c1.103-0.755,2.204-1.513,3.292-2.289c1.563-1.114,3.106-2.254,4.637-3.41c1.093-0.824,2.18-1.654,3.255-2.499
						c1.482-1.165,2.947-2.353,4.398-3.557c1.079-0.896,2.15-1.8,3.212-2.716c1.402-1.211,2.787-2.441,4.156-3.688
						c1.059-0.964,2.106-1.94,3.145-2.925c1.325-1.257,2.636-2.529,3.928-3.82c1.032-1.032,2.051-2.078,3.063-3.131
						c1.245-1.297,2.478-2.604,3.689-3.933c1.004-1.101,1.991-2.218,2.973-3.341c1.167-1.334,2.324-2.678,3.458-4.042
						c0.97-1.167,1.918-2.352,2.862-3.54c1.087-1.368,2.167-2.74,3.22-4.135c0.934-1.237,1.843-2.494,2.75-3.751
						c1.007-1.396,2.011-2.797,2.983-4.219c0.892-1.303,1.755-2.626,2.616-3.949c0.927-1.422,1.853-2.844,2.745-4.29
						c0.847-1.371,1.659-2.764,2.475-4.155c0.847-1.445,1.696-2.889,2.509-4.355c0.796-1.437,1.555-2.896,2.316-4.353
						c0.767-1.462,1.538-2.92,2.27-4.403c0.742-1.502,1.44-3.029,2.147-4.552c0.686-1.479,1.382-2.952,2.034-4.45
						c0.681-1.565,1.314-3.154,1.958-4.739c0.606-1.493,1.228-2.978,1.8-4.487c0.617-1.628,1.182-3.281,1.759-4.928
						c0.526-1.503,1.072-2.997,1.564-4.514c0.55-1.694,1.041-3.413,1.549-5.125c0.445-1.504,0.913-2.999,1.325-4.517
						c0.48-1.772,0.897-3.569,1.332-5.359c0.361-1.489,0.75-2.968,1.079-4.469c0.409-1.867,0.748-3.76,1.105-5.646
						c0.276-1.454,0.587-2.896,0.832-4.36c0.334-1.993,0.59-4.01,0.866-6.021c0.19-1.385,0.42-2.758,0.582-4.151
						c0.264-2.256,0.44-4.538,0.631-6.815c0.097-1.169,0.238-2.326,0.315-3.5c0.23-3.464,0.377-6.95,0.433-10.457
						c0.053-3.338,0.003-6.653-0.1-9.955C3461.655,1123.906,3461.597,1122.868,3461.549,1121.827z"/>
				</g>
			</g>
			<g opacity="0.5">
				<g>
					<g>
						<path fill="#FFFFFF" d="M3060.615,1160.996c-0.883-113.508,90.743-207.778,204.234-209.964
							c66.38-1.279,125.852,28.495,164.873,75.772c-38.256-55.834-102.962-92.12-176.077-90.711
							c-113.491,2.186-205.117,96.456-204.234,209.964c0.387,49.55,18.096,94.95,47.345,130.51
							C3074.247,1243.6,3060.949,1203.851,3060.615,1160.996z"/>
					</g>
				</g>
			</g>
			<g>
				<g>
					<path fill="#FFFFFF" d="M3174.035,1076.353L3174.035,1076.353c22.166-22.166,58.104-18.194,80.271,3.972l3.45,3.45l3.449-3.45
						c22.167-22.167,58.104-26.138,80.271-3.972l0,0c22.166,22.166,22.166,58.104,0,80.271l-3.45,3.45l-69.689,69.69
						c-5.844,5.843-15.318,5.843-21.162,0l-69.689-69.69l-3.45-3.45C3151.869,1134.458,3151.869,1098.52,3174.035,1076.353z"/>
				</g>
			</g>
		</g>
		<g>
			<g>
				<g>
					<g>
						<g>
							<path fill="#FA9B27" d="M1207.269,2488.711c115.567,60.512,160.972,192.555,115.52,291.223l76.284,5.29
								c3.822,63.015-8.938,127.842-40.358,187.847c-91.932,175.574-308.787,243.379-484.36,151.447
								c-175.573-91.933-243.378-308.788-151.446-484.361C814.84,2464.583,1031.695,2396.778,1207.269,2488.711z"/>
						</g>
					</g>
					<g>
						<g opacity="0.6">
							<g>
								<path fill="#FFFFFF" d="M753.525,2698.179c91.932-175.572,308.788-243.378,484.36-151.445
									c36.938,19.342,66.617,46.032,88.544,76.563c-0.346-1.189-0.766-2.366-1.13-3.554
									c-20.149-52.8-60.348-100.827-118.032-131.033c-175.572-91.932-392.428-24.127-484.359,151.446
									c-45.604,87.095-51.857,184.335-25.191,271.458c9.062,25.627,21.013,50.254,35.702,73.338
									C701.076,2894.026,705.229,2790.416,753.525,2698.179z"/>
							</g>
						</g>
					</g>
					<g>
						<g>
							<path fill="#FFFFFF" d="M925.991,3025.898c158.685,83.089,351.07,35.669,454.49-103.844
								c-5.895,17.275-13.037,34.344-21.768,51.016c-91.932,175.574-308.787,243.379-484.36,151.447
								c-175.573-91.933-243.378-308.788-151.446-484.361c8.783-16.774,18.724-32.547,29.643-47.308
								C696.577,2757.41,767.192,2942.749,925.991,3025.898z"/>
						</g>
					</g>
					<g>
						<g>
							<path fill="#000072" d="M1040.182,3185.303c-59.161,0.004-119.116-13.873-175.059-43.164
								c-185.005-96.871-256.709-326.197-159.84-511.211c96.875-185.006,326.187-256.72,511.211-159.84
								c110.909,58.071,166.978,183.784,134.371,290.85l49.584,3.442c9.966,0.693,17.872,8.667,18.477,18.638
								c4.16,68.555-10.566,137.119-42.588,198.281C1308.755,3111.366,1176.67,3185.287,1040.182,3185.303z M1041.373,2467.699
								c-122.163,0-240.357,66.162-300.845,181.685c-86.695,165.576-22.525,370.815,143.051,457.51
								c165.586,86.714,370.82,22.524,457.515-143.052c25.952-49.561,39.214-104.541,38.726-160.015l-58.408-4.053
								c-6.519-0.454-12.402-4.082-15.737-9.702c-3.33-5.625-3.686-12.524-0.952-18.462
								c42.856-93.037-5.005-212.041-106.685-265.278l0,0C1147.983,2480.121,1094.307,2467.699,1041.373,2467.699z"/>
						</g>
					</g>
					<g>
						<g>
							<path fill="#000072" d="M1026.294,2634.348c-15.013,7.083-28.647,16.165-39.473,27.322
								c-10.679,11.281-18.548,24.507-22.249,38.765c-3.967,14.134-4.025,29.104-0.744,43.14c1.587,7.033,3.967,13.857,7.046,20.317
								c3.127,6.448,7.09,12.427,11.538,17.915c4.375,5.557,9.465,10.486,14.978,14.793c5.467,4.377,11.507,7.98,17.882,10.83
								c12.543,5.771,27.182,8.949,41.481,9.418c14.434,0.484,29.038-1.709,43.104-6.094c14.152-4.209,27.44-11.423,39.992-19.606
								c6.398-3.945,12.144-8.938,18.089-13.608c5.473-5.295,11.303-10.178,16.239-16.074c2.493-2.905,5.301-5.503,7.559-8.638
								l7.059-9.118c2.424-2.979,4.321-6.396,6.519-9.561c2.072-3.265,4.404-6.338,6.206-9.798l5.757-10.122
								c2.082-3.41,3.269-6.597,4.982-9.891c2.793-6.713,5.477-13.508,7.249-20.639c3.967-14.134,5.376-29.056,5.407-44.068
								c-0.324-30.088-8.061-60.732-21.413-88.369c-3.313-6.926-7.065-13.617-11.143-20.043c-3.989-6.497-8.45-12.627-13.193-18.406
								c-9.482-11.553-20.398-21.604-32.166-28.408l-0.539-0.311c-9.51-5.495-12.762-17.66-7.266-27.17
								c5.313-9.191,16.904-12.512,26.257-7.762c18.157,9.264,33.23,21.932,45.721,36.141c12.59,14.178,23.034,29.785,31.462,46.323
								c17.07,32.949,26.792,69.612,27.638,107.386c0.31,18.871-1.8,38.018-6.958,56.584c-2.396,9.324-5.901,18.379-9.703,27.271
								c-2.144,4.255-4.128,8.978-6.467,12.817l-6.854,11.971c-9.673,15.654-20.596,30.713-33.581,44.108
								c-6.145,6.982-13.374,13.015-20.257,19.319c-7.437,5.744-14.692,11.693-22.807,16.592
								c-31.526,20.534-70.11,32.279-109.078,29.74c-9.727-0.517-19.385-2.309-28.859-4.646c-4.688-1.442-9.378-2.778-14.019-4.395
								c-4.603-1.931-9.229-3.774-13.604-6.206c-8.862-4.572-17.207-10.207-24.658-16.821c-7.471-6.56-14.334-13.86-19.91-22.048
								c-5.58-8.167-10.303-16.875-13.843-26.035c-3.493-9.176-5.942-18.699-7.277-28.369c-1.274-9.688-1.084-19.527,0.095-29.156
								c1.236-9.621,3.53-19.145,7.393-28.01c3.818-8.853,8.584-17.258,14.507-24.688c5.911-7.414,12.7-14.002,20.146-19.49
								c14.829-11.11,31.943-17.836,49.019-21.537c2.381-0.516,4.727,0.996,5.244,3.376c0.442,2.044-0.61,4.065-2.427,4.922
								L1026.294,2634.348z"/>
						</g>
					</g>
				</g>
				<g>
					<g>
						<path fill="#FA9B27" d="M2929,2873.026c-65.044,0-131.26,30.143-186.851,83.458c0,0-24.019-67.085-85.574-109.138l-0.177,0.22
							c0.396-4.528,0.603-9.172,0.931-13.742c78.124-23.255,144.707-80.936,158.201-205.874
							c54.673-506.236-792.475-743.047-792.475-743.047h-106.682c0,0-911.806,236.812-852.96,743.047
							c13.295,114.376,74.482,172.378,149.244,199.214c0.436,6.816,0.793,13.68,1.383,20.402l-0.177-0.22
							c-61.556,42.053-85.575,109.138-85.575,109.138c-55.59-53.315-121.806-83.458-186.85-83.458
							c-130.087,0-206.224,120.568-161.142,305.96c45.083,185.393,187.285,328.496,317.174,335.683
							c145.704,8.062,363.354-133.813,557.158-121.813l-0.024-0.03c86.306,28.303,181.109,42.844,280.614,42.844
							s194.309-14.541,280.615-42.844l-0.025,0.03c193.805-12.001,411.454,129.874,557.158,121.813
							c129.889-7.187,272.091-150.29,317.174-335.683C3135.225,2993.595,3059.087,2873.026,2929,2873.026z"/>
					</g>
				</g>
				<g>
					<g>
						<path fill="#FFFFFF" d="M2705.967,2894.229c25.404,32.371,36.183,62.256,36.183,62.256
							c55.591-53.315,121.807-83.458,186.851-83.458c130.087,0,206.225,120.568,161.142,305.96
							c-45.083,185.393-187.285,328.496-317.174,335.683c-73.512,4.067-165.346-30.03-263.183-63.276
							c-12.172-50.96-16.819-106.035-12.555-163.516C2509.433,3123.416,2591.529,2978.705,2705.967,2894.229z"/>
					</g>
				</g>
				<g>
					<g>
						<path fill="#FFFFFF" d="M1164.473,2894.229c-25.404,32.371-36.184,62.256-36.184,62.256
							c-55.59-53.315-121.806-83.458-186.85-83.458c-130.087,0-206.224,120.568-161.142,305.96
							c45.083,185.393,187.285,328.496,317.174,335.683c73.512,4.067,165.346-30.03,263.183-63.276
							c12.172-50.96,16.819-106.035,12.555-163.516C1361.007,3123.416,1278.91,2978.705,1164.473,2894.229z"/>
					</g>
				</g>
				<g>
					<g>
						<path fill="#FFFFFF" d="M2473.252,2745.451c0,401.467-233.841,542.701-522.297,542.701s-522.295-141.234-522.295-542.701
							c0-401.466,233.839-726.919,522.295-726.919S2473.252,2343.985,2473.252,2745.451z"/>
					</g>
				</g>
				<g opacity="0.3">
					<g>
						<path fill="#000072" d="M2600.355,2180.09c-235.376-199.551-577.3-295.187-577.3-295.187h-106.682
							c0,0-354.002,91.966-606.621,283.747c81.354,67.26,184.354,113.082,284.35,144.242c239.396,74.599,496.847,74.599,736.243,0
							C2424.56,2283.535,2521.424,2241.145,2600.355,2180.09z"/>
					</g>
				</g>
				<g>
					<g>
						<path fill="#FFFFFF" d="M1824.605,2560.624l-145.39,99.828c50.592-87.543,132.427-98.86,144.423-100.118L1824.605,2560.624z"
							/>
					</g>
				</g>
				<g>
					<g>
						<path fill="#FFFFFF" d="M2243.459,2660.452l-135.136-99.828l0.87-0.29C2120.318,2561.592,2196.351,2572.909,2243.459,2660.452
							z"/>
					</g>
				</g>
				<g>
					<g>
						<g>
							<path fill="#FC4C97" d="M3026.382,3146.781c-7.985,30.515,5.408,55.951,29.914,56.814
								c24.507,0.863,50.846-23.175,58.83-53.689c7.985-30.516-5.408-55.953-29.914-56.815
								C3060.705,3092.228,3034.366,3116.266,3026.382,3146.781z"/>
						</g>
					</g>
					<g>
						<g>
							<path fill="#FC4C97" d="M2947.235,3044.046c-7.983,30.516,5.409,55.952,29.915,56.815s50.846-23.175,58.83-53.69
								c7.984-30.515-5.408-55.952-29.915-56.815C2981.56,2989.493,2955.221,3013.531,2947.235,3044.046z"/>
						</g>
					</g>
					<g>
						<g>
							<path fill="#FC4C97" d="M2819.064,3029.536c-7.984,30.515,5.408,55.952,29.915,56.815
								c24.506,0.862,50.845-23.176,58.83-53.69s-5.409-55.952-29.915-56.815
								C2853.389,2974.983,2827.049,2999.021,2819.064,3029.536z"/>
						</g>
					</g>
					<g>
						<g>
							<path fill="#FC4C97" d="M2769.737,3260.965c-19.955,76.262,13.517,139.832,74.761,141.989
								c61.244,2.156,127.069-57.918,147.024-134.179c19.955-76.262-13.517-139.833-74.761-141.989
								C2855.518,3124.629,2789.692,3184.703,2769.737,3260.965z"/>
						</g>
					</g>
				</g>
				<g>
					<g>
						<g>
							<path fill="#FC4C97" d="M881.668,3146.781c7.985,30.515-5.408,55.951-29.914,56.814
								c-24.507,0.863-50.846-23.175-58.83-53.689c-7.985-30.516,5.408-55.953,29.914-56.815
								C847.345,3092.228,873.684,3116.266,881.668,3146.781z"/>
						</g>
					</g>
					<g>
						<g>
							<path fill="#FC4C97" d="M960.814,3044.046c7.984,30.516-5.409,55.952-29.915,56.815s-50.846-23.175-58.83-53.69
								c-7.984-30.515,5.408-55.952,29.915-56.815C926.49,2989.493,952.829,3013.531,960.814,3044.046z"/>
						</g>
					</g>
					<g>
						<g>
							<path fill="#FC4C97" d="M1088.985,3029.536c7.984,30.515-5.408,55.952-29.915,56.815
								c-24.506,0.862-50.845-23.176-58.83-53.69c-7.984-30.515,5.409-55.952,29.915-56.815
								C1054.661,2974.983,1081.001,2999.021,1088.985,3029.536z"/>
						</g>
					</g>
					<g>
						<g>
							<path fill="#FC4C97" d="M1138.313,3260.965c19.954,76.262-13.518,139.832-74.762,141.989
								c-61.244,2.156-127.069-57.918-147.024-134.179c-19.955-76.262,13.517-139.833,74.761-141.989
								C1052.533,3124.629,1118.358,3184.703,1138.313,3260.965z"/>
						</g>
					</g>
				</g>
				<g>
					<g>
						<path fill="#000072" d="M2753.187,2969.514c-14.944,17.135-29.234,34.695-41.819,53.77
							c-12.619,18.99-24.189,38.975-33.845,60.12c-9.64,21.128-17.833,43.239-24.109,66.04
							c-6.416,22.775-10.874,46.223-13.343,70.354c-0.141,1.432-1.413,2.479-2.844,2.34c-1.182-0.115-2.103-1.016-2.309-2.127
							c-4.43-24.321-4.84-49.471-2.67-74.383c2.283-24.919,7.271-49.67,14.869-73.842c7.658-24.109,17.688-47.818,31.267-69.615
							c13.426-21.828,29.937-42.121,49.81-58.713c7.671-6.406,19.082-5.379,25.486,2.293c5.78,6.926,5.505,16.898-0.249,23.486
							L2753.187,2969.514z"/>
					</g>
				</g>
				<g>
					<g>
						<path fill="#000072" d="M1109.654,3534.887c-4.483,0-8.901-0.117-13.281-0.356c-142.149-7.861-289.474-161.968-335.4-350.84
							c-26.285-108.076-14.298-201.26,33.744-262.388c34.552-43.96,86.661-68.169,146.724-68.169
							c61.733,0,124.814,24.907,180.063,70.659c12.153-22.847,34.194-56.572,68.979-83.945
							c-85.488-36.24-134.863-106.675-146.83-209.604c-14.072-121.063,23.905-237.017,112.88-344.639
							c69.893-84.546,171.378-164.087,301.636-236.406c220.259-122.295,450.898-182.949,453.203-183.55
							c1.631-0.425,3.315-0.639,5-0.639h106.686c1.812,0,3.613,0.249,5.356,0.737c2.144,0.595,216.719,61.333,421.587,183.764
							c121.157,72.407,215.547,152.026,280.542,236.65c82.554,107.48,117.803,223.193,104.761,343.921
							c-11.524,106.724-62.92,180.488-149.175,214.8c31.24,26.382,51.387,57.446,62.808,78.911
							c55.249-45.752,118.33-70.659,180.063-70.659c60.063,0,112.173,24.209,146.724,68.169
							c48.042,61.128,60.029,154.312,33.745,262.388c-45.928,188.872-193.252,342.979-335.4,350.84
							c-71.196,3.921-156.284-25.171-246.318-55.991c-102.632-35.132-208.779-71.436-308.291-65.972
							c-87.988,28.525-183.608,42.993-284.239,42.993c-100.634,0-196.25-14.468-284.232-42.993
							c-99.532-5.454-205.664,30.84-308.302,65.972C1258.184,3507.465,1178.072,3534.887,1109.654,3534.887z M941.44,2892.919
							c-48.291,0-88.208,18.315-115.444,52.97c-40.341,51.322-49.706,132.436-26.372,228.397
							c20.724,85.205,63.979,165.322,121.812,225.601c55.621,57.969,118.525,91.68,177.134,94.918
							c63.56,3.559,144.976-24.381,231.23-53.902c101.813-34.848,217.183-74.326,324.961-67.969c2.018,0.015,4.048,0.337,6.04,0.991
							c84.688,27.769,177.017,41.851,274.419,41.851c97.398,0,189.728-14.082,274.42-41.851c2.002-0.654,4.053-0.981,6.079-0.991
							c107.764-6.362,223.13,33.125,324.917,67.969c86.255,29.527,167.744,57.525,231.235,53.902
							c58.608-3.238,121.514-36.949,177.134-94.918c57.832-60.278,101.089-140.396,121.812-225.601
							c23.335-95.962,13.97-177.075-26.372-228.397c-27.236-34.654-67.153-52.97-115.444-52.97
							c-59.219,0-120.688,27.671-173.081,77.92c-4.868,4.673-11.763,6.558-18.33,5.005c-6.563-1.543-11.895-6.309-14.165-12.656
							c-0.205-0.562-22.393-60.356-76.221-98.135c-7.036-3.687-11.333-11.191-10.62-19.238c0.229-2.607,0.391-5.254,0.552-7.9
							c0.112-1.841,0.225-3.682,0.356-5.513c0.591-8.257,6.23-15.283,14.165-17.642c84.805-25.239,133.281-88.813,144.097-188.945
							c21.763-201.538-101.431-383.945-366.162-542.153c-188.379-112.578-384.795-171.718-409.336-178.867h-101.275
							c-24.873,6.724-238.179,66.177-442.118,179.526c-195.664,108.755-422.794,290.947-393.688,541.333
							c10.776,92.715,56.602,154.214,136.201,182.788c7.466,2.681,12.628,9.541,13.13,17.456l0.313,5.015
							c0.308,5,0.61,9.995,1.04,14.912c0.732,8.35-3.843,16.221-11.362,19.751c-53.286,37.803-75.273,97.051-75.492,97.656
							c-2.296,6.323-7.638,11.074-14.19,12.603c-6.548,1.533-13.438-0.337-18.291-4.995
							C1062.129,2920.59,1000.66,2892.919,941.44,2892.919z"/>
					</g>
				</g>
				<g>
					<g opacity="0.3">
						<g>
							<path fill="#000072" d="M1044.133,3468.279c8.207,2.652,16.541,4.906,25.017,6.621c26.28,5.312,53.092,4.745,79.557,1.193
								c57.074-7.661,112.305-26.844,166.594-45.32c61.146-20.811,122.147-42.575,185.069-57.53
								c30.643-7.283,61.744-12.935,93.15-15.587c15.231-1.287,30.528-1.863,45.813-1.539c10.146,0.217,20.146,2.268,29.852,5.236
								c148.136,45.283,311.214,50.451,462.729,17.979c17.874-3.83,35.625-8.23,53.209-13.225c5.256-1.493,10.5-3.04,15.726-4.636
								c8.188-2.507,21.835-5.174,30.396-5.355c31.116-0.656,62.23,2.408,92.872,7.659c63.837,10.943,125.689,31.111,186.871,51.914
								c56.996,19.38,113.874,40.462,172.751,53.528c48.91,10.85,96.701,13.127,143.674-1.549c0.007,0,0.013,0.002,0.018,0.002
								c-42.407-5.321-83.35-20.332-118.692-45.461c-52.682-37.458-88.535-94.145-103.556-156.696
								c-55.445,43.91-138.739,49.939-202.246,20.302c-64.758-30.225-139.363-28.877-203.435,2.783
								c-50.617,25.011-107.684,39.588-159.89,47.597c-115.048,17.655-240.512,7.16-347.397-40.851
								c-4.843-2.176-9.663-4.439-14.451-6.799c-64.426-31.752-139.479-34.025-204.366-3.229
								c-63.636,30.202-147.55,24.352-203.304-19.803c-24.464,101.896-104.737,182.342-209.014,200.435
								c-5.639,0.978-11.311,1.716-16.994,2.335C1044.1,3468.281,1044.117,3468.281,1044.133,3468.279z"/>
						</g>
					</g>
				</g>
				<g>
					<g>
						<path fill="#FFFFFF" d="M2463.043,2839.31c-58.33-9.576-100.215-24.376-100.215-24.376
							c-72.55,64.52-213.49,52.429-213.49,52.429c-146.647,33.856-167.348-93.058-52.816-142.681
							c114.629-49.527,11.222-164.447,11.222-164.447c-0.484,0.388-0.968,0.774-1.354,1.161
							c-35.5,27.183-84.738,1.258-88.317-45.561c-4.256-56.396,3.773-153.516,111.05-146.647
							c84.061,5.417,147.131,51.945,186.404,91.896l2.321-2.419c78.45-9.963,141.521-9.77,190.081-5.514v0.097
							C2507.928,2453.248,2570.997,2673.412,2463.043,2839.31z"/>
					</g>
				</g>
				<g>
					<g>
						<path fill="#FFFFFF" d="M1825.187,2560.234c0,0-111.244,114.92,12.091,164.447c123.335,49.623,100.989,176.537-56.782,142.681
							c0,0-151.677,12.091-229.838-52.429c0,0-45.077,14.8-107.857,24.376c-116.176-165.897-48.366-386.062-48.366-386.062v-0.097
							c52.236-4.256,120.046-4.449,204.591,5.514l1.644,3.29c42.177-40.145,110.373-87.351,201.495-92.768
							c115.499-6.868,124.108,90.252,119.562,146.647c-3.771,46.818-56.782,72.743-94.991,45.561
							C1826.25,2561.009,1825.669,2560.622,1825.187,2560.234z"/>
					</g>
				</g>
				<g>
					<g>
						<path fill="#000072" d="M2554.767,2867.305c-102.153,0-193.496-31.778-198.608-33.59
							c-10.356-3.667-15.781-15.029-12.114-25.386c3.662-10.361,15.024-15.781,25.376-12.119l0,0
							c1.577,0.552,158.413,54.976,281.377,18.818c10.562-3.086,21.602,2.939,24.692,13.477
							c3.101,10.542-2.935,21.597-13.477,24.697C2627.076,2863.466,2590.265,2867.305,2554.767,2867.305z"/>
					</g>
				</g>
				<g>
					<g>
						<path fill="#000072" d="M2104,2892.89c-56.963,0-87.656-27.983-97.114-56.758c-13.496-41.04,10.259-98.774,81.758-129.707
							c23.76-10.278,37.134-23.569,40.889-40.635c7.437-33.817-23.872-78.071-36.563-92.271c-7.31-8.184-6.631-20.752,1.538-28.076
							c8.174-7.329,20.718-6.67,28.057,1.489c2.422,2.69,59.102,66.553,45.85,127.271c-6.567,30.083-28.091,53.213-63.97,68.735
							c-49.087,21.235-67.432,57.461-59.766,80.767c8.794,26.768,48.135,36.299,100.186,24.277c2.031-0.469,4.131-0.61,6.182-0.439
							c1.816,0.146,182.886,14.303,224.927-83.555c4.336-10.093,16.03-14.761,26.128-10.425
							c10.093,4.336,14.761,16.035,10.425,26.128c-50.391,117.314-234.16,109.565-261.709,107.729
							C2133.58,2891.2,2117.994,2892.89,2104,2892.89z"/>
					</g>
				</g>
				<g>
					<g>
						<path fill="#000072" d="M2087.565,2567.9c-0.961-2.391-1.496-3.83-2.128-5.682c-0.603-1.76-1.192-3.483-1.692-5.229
							c-1.021-3.489-1.919-6.976-2.705-10.501c-1.447-7.063-2.617-14.235-3.059-21.567c-1.009-14.629,0.273-29.943,4.846-45.07
							c4.761-14.954,12.983-29.805,24.817-40.916c5.759-5.662,12.187-10.49,18.899-14.412c3.2-1.994,7.105-3.757,10.897-5.461
							c1.897-0.852,3.95-1.431,5.918-2.127c1.976-0.703,3.979-1.296,6.045-1.696c16.398-4.036,33.161-1.997,47.093,3.052
							c14.189,4.829,26.255,12.373,37.116,20.659c10.884,8.298,20.447,17.705,29.188,27.601
							c8.708,9.961,16.581,20.355,23.373,31.696c0.955,1.589,0.438,3.65-1.151,4.603c-1.263,0.757-2.823,0.586-3.89-0.313
							l-0.125-0.107c-19.238-16.279-39.758-31.25-61.057-41.912c-5.315-2.637-10.674-5.034-16.062-6.854
							c-5.352-1.906-10.672-3.513-15.889-4.35c-5.206-0.936-10.294-1.275-15.013-0.867c-4.729,0.305-9.189,1.099-13.23,2.805
							c-4.18,1.65-7.627,3.623-11.608,6.731c-4.043,2.871-7.576,6.126-10.562,9.707c-6.003,7.109-10.349,15.247-12.808,24.653
							c-2.728,9.287-3.625,19.709-3.398,30.471c0.183,5.379,0.503,10.872,1.253,16.344c0.3,2.744,0.692,5.49,1.172,8.188
							l1.325,7.464l0.393,2.207c1.917,10.794-5.277,21.099-16.071,23.018C2100.036,2581.707,2090.994,2576.436,2087.565,2567.9z"/>
					</g>
				</g>
				<g>
					<g>
						<path fill="#000072" d="M2345.645,2530.412c-1.204-1.977-3-4.779-4.653-7.207c-1.694-2.512-3.46-5.021-5.262-7.512
							c-3.62-4.979-7.373-9.904-11.284-14.717c-7.793-9.65-16.143-18.879-24.882-27.674c-17.527-17.531-36.717-33.354-57.522-46.271
							c-10.391-6.467-21.145-12.256-32.189-17.319c-11.102-4.927-22.493-9.063-34.09-12.425c-11.621-3.281-23.484-5.5-35.422-7.094
							c-12.166-1.295-23.683-1.979-34.632-0.732c-10.991,1.071-20.986,4.219-29.673,8.955c-4.241,2.529-8.232,5.375-11.813,8.764
							c-3.523,3.455-6.729,7.317-9.595,11.582c-11.336,17.337-16.246,40.928-17.262,64.827c-0.283,6.001-0.279,12.075-0.097,18.167
							c0.07,3.044,0.241,6.098,0.427,9.152c0.223,3.352,0.373,5.498,0.776,7.756c1.465,9.088,5.674,17.342,11.905,23.436
							c6.156,6.174,14.345,9.832,22.279,10.363c8.052,0.433,15.516-1.943,22.715-7.775c3.986-3.228,8.855-4.627,13.599-4.307
							l0.088,0.008h0.005c1.968,0.238,2.915,0.443,4.214,0.695l3.538,0.771c2.3,0.542,4.523,1.143,6.726,1.772
							c4.385,1.276,8.636,2.741,12.817,4.31c8.328,3.203,16.325,6.95,23.984,11.203c15.298,8.525,29.258,18.992,41.448,30.969
							c12.178,11.982,22.736,25.309,31.359,39.563c8.674,14.226,15.659,29.214,21.123,44.567c0.664,1.866-0.311,3.919-2.178,4.583
							c-1.672,0.596-3.501-0.14-4.341-1.638c-7.759-13.836-16.78-26.8-26.968-38.482c-10.137-11.721-21.659-21.972-34.025-30.57
							c-12.381-8.594-25.765-15.379-39.578-20.234c-6.909-2.417-13.94-4.329-20.962-5.726c-3.511-0.661-7.017-1.23-10.468-1.614
							c-1.725-0.18-3.431-0.336-5.089-0.43l-2.409-0.095c-0.687-0.015-1.731-0.022-1.758,0.054l13.684-4.302
							c-12.966,10.825-31.902,17.796-50.068,16.38c-18.223-1.201-35.229-9.375-47.607-21.678
							c-12.529-12.225-20.586-28.563-23.276-45.305c-0.737-4.188-1.033-8.59-1.238-11.764c-0.212-3.479-0.402-6.96-0.485-10.459
							c-0.212-6.992-0.215-14.018,0.114-21.094c0.613-14.135,2.35-28.467,5.916-42.814c3.584-14.318,9.167-28.742,17.815-42.095
							c4.409-6.624,9.564-12.9,15.427-18.577c5.928-5.632,12.609-10.469,19.646-14.577c14.251-7.905,29.85-12.38,44.903-13.884
							c15.114-1.705,29.88-0.723,43.721,0.771c14.011,1.838,27.927,4.473,41.516,8.308c13.552,3.913,26.81,8.737,39.639,14.446
							c12.764,5.837,25.096,12.484,36.929,19.854c23.691,14.727,45.156,32.461,64.626,51.938
							c9.715,9.771,18.948,19.986,27.605,30.703c4.346,5.348,8.53,10.836,12.607,16.443c2.033,2.813,4.034,5.659,5.999,8.572
							c2.021,2.992,3.786,5.681,5.974,9.301c5.685,9.402,2.669,21.629-6.731,27.313c-9.401,5.682-21.628,2.666-27.309-6.733
							L2345.645,2530.412z"/>
					</g>
				</g>
				<g>
					<g>
						<path fill="#000072" d="M2631.909,2486.994c-13.252-0.534-26.44-1.853-39.295-3.154c-6.366-0.85-12.883-1.359-19.177-2.429
							c-6.396-0.788-12.773-1.667-19.092-2.786c-6.385-0.918-12.736-2.006-19.077-3.252l-19.224-2.966
							c-6.406-1.042-12.938-1.328-19.409-1.938l-9.731-0.77l-9.777-0.393l-19.565-0.734l-19.619-0.039l-9.813-0.016l-9.824,0.352
							l-19.648,0.699c-13.098,0.684-26.193,1.836-39.289,2.725l-39.227,4.281l-0.652,0.071c-9.909,1.081-18.82-6.074-19.902-15.983
							c-1.081-9.91,6.074-18.818,15.984-19.902l40.537-4.427c13.584-0.931,27.141-2.116,40.749-2.825l20.444-0.729l10.223-0.361
							l10.249,0.013l20.498,0.043l20.525,0.768l10.261,0.417l10.269,0.806c6.843,0.578,13.691,0.884,20.555,1.523l20.614,1.772
							c6.87,0.833,13.729,1.816,20.553,2.976c13.605,2.822,27.075,6.58,40.012,12.262c6.468,2.756,12.813,6.029,18.901,9.766
							c6.159,3.881,11.865,7.9,17.449,13.527c2.45,2.471,2.434,6.463-0.037,8.914c-1.287,1.276-2.988,1.885-4.668,1.823
							L2631.909,2486.994z"/>
					</g>
				</g>
				<g>
					<g>
						<path fill="#000072" d="M1344.132,2867.338c-46.05,0-94.127-5.61-138.199-21.431c-10.342-3.711-15.713-15.103-12.001-25.439
							c3.71-10.342,15.121-15.703,25.438-12.002c135.87,48.76,323.243-11.782,325.118-12.397
							c10.439-3.438,21.679,2.246,25.111,12.681s-2.246,21.681-12.681,25.112
							C1551.153,2835.756,1453.354,2867.338,1344.132,2867.338z"/>
					</g>
				</g>
				<g>
					<g>
						<path fill="#000072" d="M1829.399,2892.919c-15.01,0-31.753-1.709-50.326-5.518c-27.818,1.787-226.021,10.132-280.279-107.212
							c-4.608-9.976-0.263-21.792,9.707-26.406c9.986-4.609,21.787-0.259,26.406,9.707c45.646,98.726,241.978,84.214,243.95,84.043
							c1.924-0.146,3.867-0.024,5.762,0.381c66.495,14.253,103.398-2.725,110.483-25.884c7.129-23.306-12.998-57.891-65.244-78.892
							c-39.043-15.693-62.173-39.351-68.76-70.308c-12.934-60.801,47.231-123.779,49.8-126.431
							c7.642-7.896,20.234-8.096,28.125-0.449c7.886,7.632,8.092,20.21,0.474,28.101l0,0
							c-13.398,13.921-46.602,57.329-39.473,90.566c3.683,17.173,18.712,31.172,44.668,41.606
							c77.964,31.338,100.504,88.027,88.452,127.437C1923.979,2863.642,1891.582,2892.914,1829.399,2892.919z"/>
					</g>
				</g>
				<g>
					<g>
						<path fill="#000072" d="M1808.101,2554.37l1.514-7.622c0.527-2.769,0.986-5.581,1.315-8.396
							c0.843-5.607,1.17-11.237,1.309-16.726c0.154-10.986-1.037-21.521-4.25-30.774c-2.903-9.426-8.221-17.236-15.015-24.377
							c-3.567-3.438-7.601-6.611-12.065-9.471c-4.116-2.478-8.213-4.863-12.871-6.146c-9.153-2.842-19.771-3.121-30.926-1.178
							c-5.567,0.963-11.218,2.49-16.88,4.446c-5.695,1.833-11.372,4.167-16.984,6.804c-22.518,10.53-44.316,25.313-64.79,41.593
							l-0.121,0.1c-1.451,1.152-3.561,0.911-4.713-0.54c-0.926-1.162-0.95-2.751-0.179-3.928
							c7.529-11.445,16.136-21.87,25.569-31.814c9.46-9.873,19.727-19.213,31.237-27.385c11.463-8.205,24.109-15.52,38.533-20.347
							c14.253-4.993,30.773-7.31,47.448-4.316c8.348,1.292,16.438,4.341,24.026,7.9c7.033,3.646,13.879,8.037,20.3,13.259
							c12.811,10.535,22.938,25.137,28.673,40.73c5.614,15.693,7.357,31.893,6.423,47.258c-0.398,7.708-1.606,15.232-3.193,22.605
							c-0.84,3.684-1.834,7.319-2.938,10.949c-0.547,1.816-1.184,3.611-1.843,5.438c-0.691,1.924-1.274,3.42-2.332,5.91
							c-4.289,10.081-15.938,14.781-26.021,10.491c-8.799-3.743-13.498-13.091-11.699-22.114L1808.101,2554.37z"/>
					</g>
				</g>
				<g>
					<g>
						<path fill="#000072" d="M1533.895,2509.702c2.409-3.704,4.35-6.438,6.564-9.487c2.155-2.967,4.351-5.854,6.574-8.711
							c4.458-5.695,9.048-11.238,13.774-16.647c9.464-10.812,19.48-21.087,29.995-30.857c21.053-19.492,44.139-36.982,69.229-51.448
							c12.549-7.214,25.56-13.688,38.945-19.375c13.45-5.554,27.278-10.227,41.355-14.072c14.136-3.637,28.501-6.42,43.005-8.168
							c3.621-0.481,7.269-0.68,10.901-1.025c3.639-0.313,7.238-0.67,11.06-0.723c7.51-0.32,15.142-0.264,22.863,0.402
							c15.376,1.316,31.333,4.468,46.382,11.68c15.059,6.932,28.865,17.879,38.992,31.125c10.32,13.187,17.012,28.226,21.392,43.152
							c4.377,14.998,6.44,30.07,7.248,44.917c0.398,7.429,0.413,14.808,0.193,22.142c-0.332,7.563-0.403,13.835-2.07,23.432
							c-2.959,17.835-12.985,34.365-26.442,46.266c-13.641,11.755-31.165,19.064-49.449,19.867c-4.58,0.066-9.16,0.149-13.711-0.646
							c-4.592-0.415-9.016-1.678-13.43-2.964c-4.407-1.267-8.506-3.371-12.664-5.222c-3.762-2.285-8.015-4.707-11.245-7.109
							l-0.015-0.01l13.032,3.874c-0.268-0.065-1.218-0.042-2.028-0.032c-0.794-0.01-1.683,0.042-2.581,0.101
							c-1.774,0.088-3.571,0.2-5.425,0.43c-3.674,0.296-7.397,0.974-11.138,1.521c-7.448,1.426-14.938,3.191-22.285,5.582
							c-14.675,4.76-29.131,11.166-42.353,19.816c-13.146,8.662-25.987,18.523-36.792,30.586
							c-5.896,5.63-10.53,12.329-15.758,18.664c-4.953,6.529-9.12,13.636-13.781,20.516l-0.244,0.363
							c-1.106,1.629-3.32,2.057-4.951,0.953c-1.465-0.994-1.956-2.887-1.238-4.443c3.55-7.703,6.668-15.738,10.687-23.333
							c4.304-7.419,8.091-15.296,13.308-22.256c9.422-14.69,21.478-27.695,34.554-39.72c13.161-12.021,28.264-22.016,44.375-30.324
							c8.063-4.162,16.486-7.7,25.139-10.861c4.395-1.429,8.758-2.959,13.333-4.121c2.244-0.652,4.578-1.204,6.945-1.722
							c1.17-0.271,2.349-0.534,3.641-0.755c1.27-0.227,2.397-0.463,4.216-0.674c3.587-0.412,7.036,0.387,9.935,2.073l3.098,1.802
							l0.013,0.008c7.896,6.027,16.477,8.34,25.576,8.161c9.016-0.363,18.14-4.146,25.154-10.166
							c6.804-6.228,11.986-14.271,13.422-23.532c0.794-3.863,1.229-11.285,1.412-17.366c0.188-6.318,0.175-12.614-0.159-18.831
							c-1.235-24.766-7.225-48.906-20.35-65.756c-12.829-16.961-33.371-25.809-57.146-27.532
							c-11.763-1.032-24.188-0.14-36.966,1.204c-12.629,1.527-25.131,3.955-37.463,7.111c-12.28,3.369-24.375,7.446-36.194,12.319
							c-11.763,5.007-23.252,10.72-34.392,17.119c-22.275,12.835-43.035,28.538-62.065,46.157
							c-9.502,8.826-18.584,18.14-27.118,27.893c-4.262,4.879-8.388,9.863-12.353,14.925c-1.973,2.534-3.908,5.085-5.769,7.644
							c-1.812,2.471-3.794,5.33-5.115,7.352l-0.295,0.454c-6.006,9.196-18.33,11.784-27.529,5.778
							C1530.495,2531.191,1527.888,2518.898,1533.895,2509.702z"/>
					</g>
				</g>
				<g>
					<g>
						<path fill="#000072" d="M1255.498,2476.211c12.16-10.861,25.654-17.629,39.614-23.357c13.97-5.664,28.433-9.418,43.022-12.206
							c7.312-1.153,14.658-2.134,22.014-2.959l22.07-1.751l22.015-1.502l10.996-0.795l10.993-0.413
							c29.329-1.494,58.592-0.794,87.788,0.28c14.585,0.713,29.126,1.891,43.691,2.818l43.496,4.414
							c9.917,1.008,17.142,9.863,16.136,19.779c-1.006,9.92-9.863,17.145-19.78,16.136l-0.605-0.062l-42.275-4.289
							c-14.114-0.891-28.226-2.041-42.339-2.729c-28.221-1.032-56.479-1.719-84.57-0.273l-10.545,0.388l-10.5,0.765
							c-6.985,0.608-14.021,0.911-20.949,1.937l-20.777,2.963c-6.862,1.248-13.735,2.344-20.639,3.265
							c-6.847,1.101-13.731,2.017-20.652,2.788c-6.816,1.082-13.841,1.592-20.726,2.446c-13.894,1.255-28.063,2.676-42.295,3.22
							l-0.785,0.029c-3.445,0.133-6.346-2.553-6.478-5.998C1253.345,2479.18,1254.172,2477.407,1255.498,2476.211z"/>
					</g>
				</g>
				<g>
					<g>
						
							<path fill="none" stroke="#000072" stroke-width="39.7827" stroke-linecap="round" stroke-linejoin="round" stroke-miterlimit="10" d="
							M1962.225,2353.873"/>
					</g>
				</g>
				<g>
					<g>
						<path fill="#000072" d="M2440.933,2284.741c11.133,10.854,21.05,22.181,30.611,34.192
							c9.486,11.996,18.303,24.616,26.403,37.844c8.195,13.176,15.156,27.264,21.357,41.885
							c6.164,14.668,10.617,30.283,13.918,46.45c2.204,10.804-4.766,21.351-15.571,23.558c-10.806,2.204-21.353-4.766-23.558-15.572
							c-0.192-0.939-0.314-1.877-0.371-2.81l-0.038-0.767c-0.716-13.315-2.315-26.953-5.737-40.498
							c-3.458-13.501-7.708-27.088-13.374-40.266c-5.56-13.213-11.966-26.227-19.171-38.873
							c-7.196-12.572-15.22-25.082-23.838-36.498l-0.175-0.234c-2.122-2.811-1.565-6.813,1.247-8.934
							C2435.188,2282.293,2438.716,2282.576,2440.933,2284.741z"/>
					</g>
				</g>
				<g>
					<g>
						<path fill="#000072" d="M1433.345,2287.666c-8.818,12.02-17.033,25.054-24.482,38.152
							c-7.451,13.164-14.141,26.674-20.013,40.381c-5.871,13.715-10.524,27.756-14.258,41.768
							c-3.589,14.063-5.537,28.174-6.26,41.934l-0.026,0.521c-0.581,11.009-9.974,19.461-20.981,18.883
							c-11.009-0.579-19.463-9.974-18.885-20.982c0.049-0.925,0.186-1.945,0.354-2.832c3.34-16.836,8.176-32.927,14.514-48.105
							c6.482-15.092,13.818-29.555,22.197-43.22c8.382-13.657,17.449-26.724,27.153-39.204c9.773-12.495,19.891-24.351,31.157-35.76
							c2.476-2.507,6.517-2.531,9.021-0.056c2.282,2.253,2.51,5.804,0.661,8.313L1433.345,2287.666z"/>
					</g>
				</g>
				<g id="Head_9_">
					<g>
						<g>
							<g>
								<path fill="#FA9B27" d="M1189.465,1298.665c0,0-102.8-338.39,31.571-642.186c25.536-57.734,87.248-91.042,149.228-79.045
									c82.561,15.981,204.929,61.235,331.414,184.819C1701.678,762.253,1348.185,850.438,1189.465,1298.665z"/>
							</g>
						</g>
						<g opacity="0.6">
							<g>
								<path fill="#FFFFFF" d="M1250.302,678.487c21.104-59.498,80.124-97.371,142.832-90.088c14.554,1.69,30.405,4.2,47.334,7.753
									c-25.584-8.67-49.189-14.65-70.204-18.718c-61.979-11.997-123.691,21.311-149.228,79.045
									c-134.371,303.795-31.571,642.186-31.571,642.186c12.905-36.445,27.116-70.47,42.302-102.3
									C1204.396,1071.953,1181.641,872.067,1250.302,678.487z"/>
							</g>
						</g>
						<g>
							<g>
								<path fill="#000072" d="M1189.469,1318.402c-0.152,0-0.304,0-0.454-0.005c-8.521-0.19-15.958-5.835-18.438-13.994
									c-4.283-14.102-103.37-348.94,32.406-655.908c29.64-67.011,99.99-104.18,171.031-90.439
									c83.578,16.182,210.663,62.291,341.454,190.083c5.117,5,7.13,12.373,5.259,19.277c-1.875,6.904-7.333,12.261-14.277,13.99
									c-0.835,0.209-87.26,22.592-191.381,98.115c-95.913,69.565-227.027,199.897-306.997,425.732
									C1205.273,1313.148,1197.808,1318.402,1189.469,1318.402z M1344.648,594.711c-44.95,0-86.483,26.616-105.562,69.751
									c-96.605,218.414-66.924,458.237-45.063,567.813c84.399-199.96,207.344-319.404,299.517-385.908
									c71.275-51.421,133.965-79.16,170.303-92.578c-115.068-103.896-224.131-142.803-297.328-156.973
									C1359.195,595.395,1351.875,594.711,1344.648,594.711z"/>
							</g>
						</g>
						<g>
							<g>
								<path fill="#FC4C97" d="M1267.739,1188.397c0,0-71.43-235.127,21.937-446.218c17.744-40.116,60.624-63.26,103.69-54.924
									c57.366,11.104,142.393,42.549,230.279,128.42C1623.646,815.676,1378.024,876.951,1267.739,1188.397z"/>
							</g>
						</g>
						<g opacity="0.3">
							<g>
								<path fill="#000072" d="M1328.289,814.361c17.743-40.117,60.624-63.26,103.689-54.924
									c41.259,7.987,96.825,26.497,157.473,68.206c21.247-8.727,34.194-11.967,34.194-11.967
									c-87.887-85.871-172.913-117.315-230.279-128.42c-43.066-8.336-85.946,14.808-103.69,54.924
									c-93.365,211.09-21.937,446.218-21.937,446.218c5.386-15.21,11.104-29.803,17.091-43.841
									C1275.413,1056.855,1276.305,931.892,1328.289,814.361z"/>
							</g>
						</g>
						<g>
							<g>
								<path fill="#000072" d="M1267.74,1202.26c-0.104,0-0.21-0.004-0.313-0.004c-5.987-0.137-11.212-4.102-12.95-9.829
									c-2.979-9.8-71.841-242.505,22.525-455.85c20.614-46.626,69.555-72.491,118.993-62.93
									c58.096,11.245,146.426,43.291,237.34,132.119c3.593,3.511,5.004,8.691,3.691,13.54c-1.314,4.849-5.152,8.604-10.024,9.82
									c-2.369,0.601-239.898,63.706-346.196,363.901C1278.844,1198.568,1273.599,1202.26,1267.74,1202.26z M1375.572,699.403
									c-31.183,0-59.986,18.462-73.219,48.384c-67.074,151.646-46.621,317.778-31.416,394.033
									c58.652-138.735,143.999-221.64,208.003-267.817c49.39-35.63,92.852-54.902,118.146-64.263
									c-79.869-72.046-155.553-99.043-206.354-108.876C1385.655,699.882,1380.582,699.403,1375.572,699.403z"/>
							</g>
						</g>
						<g>
							<g>
								<path fill="#FA9B27" d="M2747.764,1302.918c0,0,104.646-337.824-28.064-642.348
									c-25.221-57.873-86.751-91.518-148.794-79.859c-82.646,15.53-205.26,60.116-332.418,183.007
									C2238.487,763.718,2591.493,853.833,2747.764,1302.918z"/>
							</g>
						</g>
						<g opacity="0.7">
							<g>
								<path fill="#FFFFFF" d="M2690.313,682.418c-20.778-59.612-79.591-97.807-142.338-90.867
									c-14.563,1.611-30.428,4.034-47.376,7.495c25.631-8.53,49.269-14.381,70.306-18.334
									c62.043-11.658,123.573,21.986,148.794,79.859c132.71,304.524,28.064,642.348,28.064,642.348
									c-12.707-36.515-26.731-70.617-41.743-102.529C2734.07,1076.129,2757.917,876.37,2690.313,682.418z"/>
							</g>
						</g>
						<g>
							<g>
								<path fill="#000072" d="M2747.76,1322.656c-8.384,0-15.874-5.308-18.638-13.248
									c-78.735-226.274-209.136-357.319-304.668-427.407c-103.711-76.089-190.015-98.941-190.874-99.166
									c-6.919-1.782-12.344-7.172-14.165-14.082c-1.821-6.904,0.22-14.263,5.356-19.228
									c131.494-127.081,258.828-172.495,342.49-188.213c71.162-13.34,141.26,24.204,170.532,91.372
									c134.097,307.71,33.188,641.997,28.823,656.075c-2.52,8.144-9.985,13.75-18.511,13.896
									C2747.989,1322.656,2747.877,1322.656,2747.76,1322.656z M2276.363,755.458c36.265,13.619,98.804,41.699,169.8,93.511
									c91.807,67.002,214.097,187.114,297.402,387.534c22.461-109.453,53.452-349.111-41.963-568.047
									c-21.875-50.19-74.155-78.296-127.051-68.345C2501.275,613.876,2392.008,652.187,2276.363,755.458z"/>
							</g>
						</g>
						<g>
							<g>
								<path fill="#FC4C97" d="M2670.093,1192.226c0,0,72.711-234.734-19.501-446.331c-17.524-40.212-60.277-63.59-103.389-55.489
									c-57.426,10.792-142.623,41.771-230.978,127.161C2316.226,817.566,2561.509,880.182,2670.093,1192.226z"/>
							</g>
						</g>
						<g opacity="0.3">
							<g>
								<path fill="#000072" d="M2611.585,817.864c-17.523-40.212-60.277-63.59-103.388-55.489
									c-41.302,7.761-96.969,25.967-157.843,67.345c-21.199-8.843-34.128-12.153-34.128-12.153
									c88.354-85.39,173.551-116.37,230.977-127.161c43.111-8.101,85.864,15.276,103.389,55.489
									c92.213,211.597,19.5,446.331,19.5,446.331c-5.303-15.239-10.94-29.863-16.851-43.934
									C2663.137,1060.643,2662.928,935.677,2611.585,817.864z"/>
							</g>
						</g>
						<g>
							<g>
								<path fill="#000072" d="M2670.094,1206.088c-5.889,0-11.147-3.731-13.091-9.307
									C2552.345,896.01,2315.162,831.61,2312.779,830.99c-4.858-1.25-8.667-5.034-9.946-9.888
									c-1.279-4.849,0.151-10.014,3.76-13.501c91.392-88.325,179.897-119.892,238.052-130.82
									c49.478-9.292,98.286,16.841,118.652,63.574c93.198,213.858,23.066,446.187,20.039,455.972
									c-1.772,5.718-7.017,9.653-13.003,9.756C2670.25,1206.088,2670.172,1206.088,2670.094,1206.088z M2342.818,811.776
									c25.244,9.497,68.599,29.004,117.793,64.908c63.74,46.518,148.623,129.878,206.519,268.896
									c15.591-76.25,36.899-242.374-29.243-394.15c-15.171-34.815-51.416-54.307-88.125-47.403
									C2498.907,713.583,2423.077,740.17,2342.818,811.776z"/>
							</g>
						</g>
						<g>
							<g>
								<path fill="#FA9B27" d="M1965.976,2267.291c-602.479-1.645-1000.771-325.308-830.618-784.038
									c4.34-11.673,9.033-23.404,14.082-35.252c5.523-12.851,9.455-26.295,12.03-40.039
									c21.504-116.141,160.029-684.607,808.716-682.836s784.106,570.985,804.976,687.242c2.5,13.758,6.358,27.224,11.812,40.104
									C2988.736,1930.924,2583.798,2268.978,1965.976,2267.291z"/>
							</g>
						</g>
						<g>
							<g>
								<path fill="#FFFFFF" d="M2800.862,1487.8c0,0-93.692-8.518-168.954,127.837c-59.13,107.01-235.645,107.177-330.596,41.116
									c-94.893-66.001-212.56-102.355-333.126-102.685c-120.567-0.329-238.958,35.38-334.209,100.863
									c-95.312,65.542-271.822,64.411-330.366-42.92c-74.517-136.764-168.254-128.758-168.254-128.758
									c-170.153,458.73,228.14,782.394,830.618,784.038S2968.508,1947.452,2800.862,1487.8z"/>
							</g>
						</g>
						<g>
							<g opacity="0.3">
								<g>
									<path fill="#000072" d="M1965.976,2225.184c499.848,1.364,860.235-219.688,872.831-557.52
										c-2.022-55.282-13.021-113.419-34.028-174.04c0,0,0.001,0,0.001,0.002c2.582,7.451,4.995,14.86,7.279,22.236
										c1.172,17.402,1.433,34.519,0.798,51.337c13.376,348.244-343.889,578.773-846.56,577.401
										c-501.321-1.367-856.775-232.638-843.511-579.259c-0.66-17.307-0.379-34.925,0.88-52.843
										c2.379-7.587,4.885-15.207,7.581-22.874l0,0c-21.543,61.255-32.822,120.022-34.884,175.903
										C1108.893,2001.935,1467.453,2223.82,1965.976,2225.184z"/>
								</g>
							</g>
						</g>
						<g opacity="0.3">
							<g>
								<path fill="#000072" d="M2301.787,1680.807c0,0-33.417,78.155-130.523,71.611c-37.604-2.534-64.711-12.084-84.204-23.861
									c-7.422-4.483-8.022-15.197-1.045-20.344c39.79-29.352,63.43-70.251,52.108-106.385
									c-20.501-65.431-170.161-62.171-170.161-62.171s-149.64-4.077-170.497,61.241c-11.541,36.139,11.982,77.253,51.744,106.834
									c6.972,5.187,6.313,15.931-1.16,20.362c-19.536,11.582-46.606,20.896-84.021,23.211
									c-97.14,6.014-130.13-72.322-130.13-72.322s-42.704,79.391,22.31,145.843c5.533,5.655,9.861,12.34,12.402,19.833
									c18.114,53.405,104.348,272.931,298.036,273.459c193.689,0.529,281.118-218.522,299.524-271.828
									c2.582-7.479,6.946-14.139,12.51-19.765C2344.058,1760.43,2301.787,1680.807,2301.787,1680.807z"/>
							</g>
						</g>
						<g opacity="0.6">
							<g>
								<path fill="#FFFFFF" d="M2786.973,1452.471c-5.453-12.88-9.312-26.346-11.812-40.104
									c-20.869-116.257-156.289-685.471-804.976-687.242c-648.687-1.771-787.212,566.696-808.716,682.836
									c-2.574,13.744-6.507,27.188-12.03,40.039c-5.049,11.849-9.742,23.58-14.082,35.252
									c-30.463,82.127-42.614,159.895-38.728,232.291c3.245-56.227,15.749-115.308,38.576-176.848
									c4.34-11.673,9.033-23.404,14.082-35.252c5.524-12.85,9.455-26.295,12.031-40.039
									c17.977-97.097,117.827-510.266,529.108-642.145c0.017,0.113-0.009,0.229,0.011,0.341
									c3.405,19.777,50.032,28.257,104.145,18.94c54.113-9.317,95.219-32.902,91.814-52.679c-0.246-1.425-0.776-2.773-1.457-4.079
									c27.351-2.168,55.682-3.295,85.094-3.215c648.687,1.771,784.106,570.985,804.976,687.242
									c2.5,13.758,6.358,27.224,11.812,40.104c31.326,74.286,48.004,145.179,51.553,211.949
									C2843.178,1637.332,2827.129,1547.695,2786.973,1452.471z"/>
							</g>
						</g>
						<g>
							<g>
								<path fill="#000072" d="M1693.403,1511.711l-9.852-9.736c-3.562-3.591-7.378-7.043-11.13-10.574
									c-7.62-6.943-15.428-13.777-23.54-20.222c-16.248-12.825-33.286-24.773-51.741-34.304
									c-9.263-4.614-18.721-9.065-28.569-12.603c-9.865-3.345-19.943-6.702-30.385-8.762c-20.841-4.658-42.765-6.013-65.525-5.339
									l-0.345,0.01c-6.184,0.183-11.343-4.68-11.525-10.862c-0.14-4.724,2.692-8.86,6.784-10.625
									c22.776-9.756,47.913-15.61,73.721-16.802c25.806-1.174,52.166,2.158,77.305,9.556c12.591,3.655,24.949,8.162,36.797,13.718
									c5.97,2.7,11.8,5.659,17.537,8.787c5.7,3.193,11.274,6.584,16.768,10.103c10.913,7.141,21.335,14.998,31.094,23.687
									c4.946,4.277,9.6,8.889,14.216,13.647c2.295,2.388,4.508,4.88,6.751,7.446c1.123,1.25,2.204,2.632,3.308,3.984l3.702,4.741
									c12.001,15.369,9.271,37.556-6.097,49.558c-14.16,11.06-34.111,9.609-46.548-2.708L1693.403,1511.711z"/>
							</g>
						</g>
						<g>
							<g>
								<path fill="#000072" d="M2187.541,1468.76l3.729-4.722c1.111-1.348,2.199-2.725,3.33-3.967
									c2.258-2.554,4.482-5.034,6.792-7.407c4.641-4.734,9.318-9.321,14.29-13.569c9.804-8.638,20.271-16.436,31.223-23.516
									c5.514-3.491,11.104-6.851,16.821-10.015c5.754-3.093,11.602-6.023,17.586-8.691c11.877-5.491,24.26-9.929,36.87-13.516
									c25.18-7.261,51.558-10.449,77.355-9.131c25.801,1.331,50.906,7.322,73.628,17.202c5.671,2.466,8.271,9.063,5.806,14.734
									c-1.885,4.336-6.182,6.875-10.635,6.731l-0.374-0.015c-22.756-0.798-44.689,0.435-65.552,4.978
									c-10.454,2.007-20.549,5.308-30.434,8.599c-9.869,3.484-19.349,7.883-28.638,12.446
									c-18.507,9.431-35.61,21.284-51.929,34.021c-8.146,6.401-15.991,13.191-23.65,20.093c-3.77,3.511-7.604,6.941-11.187,10.515
									l-9.904,9.68l-2.737,2.678c-13.945,13.63-36.299,13.376-49.93-0.566C2177.441,1502.476,2176.677,1482.485,2187.541,1468.76z
									"/>
							</g>
						</g>
						<g>
							<g>
								<path fill="#000072" d="M1967.453,1726.053c92.105,0.251,181.259-76.646,161.826-138.665
									c-19.432-62.019-161.286-58.928-161.286-58.928s-141.837-3.865-161.607,58.047
									C1786.616,1648.418,1875.349,1725.801,1967.453,1726.053z"/>
							</g>
						</g>
						<g>
							<g>
								<path fill="#000072" d="M1988.006,1722.764c-1.424,3.503-2.396,5.576-3.641,8.193c-1.188,2.488-2.412,4.89-3.679,7.263
									c-2.515,4.761-5.203,9.358-8.097,13.831c-5.798,8.921-12.118,17.498-19.167,25.525
									c-14.111,15.979-30.576,30.349-49.429,41.213c-18.64,11.121-39.448,18.887-60.681,22.754
									c-21.233,3.901-42.82,4.578-63.609,1.956c-20.757-2.6-40.852-7.161-60.66-14.883c-19.623-7.742-38.546-18.972-54.259-34.031
									c-15.784-14.863-28.203-33.835-33.587-54.473c-5.42-20.471-5.576-42.09,2.176-61.208c0.166-0.415,0.637-0.613,1.052-0.444
									c0.239,0.095,0.408,0.295,0.474,0.525l0.022,0.081c5.386,19.15,12.204,36.15,20.718,51.311
									c8.647,15.022,18.786,28.337,31.797,38.765c12.915,10.449,28.229,18.02,44.689,22.979
									c16.297,5.122,34.043,8.213,51.404,9.285c17.354,0.981,34.438-0.168,50.769-3.799c8.149-1.863,16.113-4.309,23.758-7.498
									c7.722-2.988,15.137-6.726,22.204-11.074c14.17-8.616,27.103-19.551,38.403-32.195c5.65-6.316,10.996-12.988,15.806-20.02
									c2.363-3.533,4.754-7.063,6.895-10.676c1.087-1.797,2.134-3.613,3.105-5.4c0.923-1.653,2.041-3.892,2.495-4.795l0.718-1.438
									c5.477-10.938,18.782-15.364,29.72-9.888C1987.795,1699.824,1992.277,1712.173,1988.006,1722.764z"/>
							</g>
						</g>
						<g>
							<g>
								<path fill="#000072" d="M1988.052,1706.057c0.446,0.908,1.553,3.152,2.468,4.81c0.962,1.794,2,3.616,3.074,5.417
									c2.121,3.625,4.495,7.17,6.838,10.715c4.771,7.058,10.081,13.757,15.696,20.105c11.232,12.705,24.104,23.711,38.226,32.405
									c7.045,4.385,14.44,8.164,22.146,11.194c7.628,3.232,15.578,5.72,23.716,7.627c16.309,3.721,33.389,4.963,50.747,4.077
									c17.365-0.979,35.129-3.972,51.453-9.004c16.488-4.868,31.843-12.356,44.816-22.734
									c13.066-10.356,23.276-23.616,32.007-38.591c8.597-15.112,15.508-32.075,20.998-51.196l0.022-0.076
									c0.122-0.43,0.571-0.679,0.998-0.554c0.249,0.071,0.438,0.254,0.528,0.476c7.646,19.163,7.372,40.779,1.843,61.221
									c-5.498,20.608-18.022,39.512-33.884,54.287c-15.796,14.976-34.78,26.101-54.443,33.733
									c-19.852,7.617-39.971,12.065-60.743,14.556c-20.803,2.507-42.385,1.711-63.596-2.305
									c-21.214-3.984-41.978-11.863-60.557-23.083c-18.791-10.969-35.178-25.427-49.204-41.484
									c-7.002-8.064-13.276-16.677-19.025-25.63c-2.872-4.487-5.533-9.099-8.021-13.872c-1.255-2.383-2.466-4.792-3.641-7.285
									c-1.232-2.622-2.192-4.702-3.596-8.213c-4.544-11.357,0.979-24.246,12.336-28.789c10.792-4.316,22.964,0.452,28.05,10.679
									L1988.052,1706.057z"/>
							</g>
						</g>
						<g>
							<g>
								<path fill="#000072" d="M2217.924,1808.312c0,0-55.031,291.974-251.491,291.438
									c-85.275-0.233-143.608-55.453-182.329-117.879c-50.472-81.342-67.566-174.927-67.566-174.927
									s152.724,67.458,250.916-80.874C2064.835,1874.935,2217.924,1808.312,2217.924,1808.312z"/>
							</g>
						</g>
						<g>
							<g>
								<path fill="#FC4C97" d="M1967.027,1882.222c-147.772-0.403-182.924,99.648-182.924,99.648
									c38.721,62.426,97.054,117.646,182.329,117.879c85.276,0.232,143.91-54.669,182.971-116.881
									C2149.403,1982.868,2114.8,1882.625,1967.027,1882.222z"/>
							</g>
						</g>
						<g opacity="0.3">
							<g>
								<path fill="#000072" d="M1966.674,2011.59c-65.376-0.178-117.008-28.5-157.409-68.688
									c-18.738,20.808-25.161,38.968-25.161,38.968c38.721,62.426,97.054,117.646,182.329,117.879
									c85.276,0.232,143.91-54.669,182.971-116.882c0,0-6.323-18.195-24.948-39.105
									C2083.835,1983.729,2032.049,2011.769,1966.674,2011.59z"/>
							</g>
						</g>
						<g>
							<g>
								<path fill="#000072" d="M1966.993,2119.145c-0.205,0-0.41,0-0.615,0c-210.147-0.576-266.656-296.143-268.956-308.726
									c-1.294-7.065,1.427-14.272,7.066-18.726c5.64-4.448,13.285-5.429,19.857-2.514c5.596,2.422,139.253,58.589,226.924-73.838
									c3.595-5.43,9.674-8.691,16.183-8.691c0.02,0,0.034,0,0.054,0c6.528,0.02,12.612,3.315,16.187,8.78
									c87.417,133.627,220.879,77.519,226.514,75.073c6.592-2.88,14.229-1.851,19.849,2.622c5.615,4.482,8.296,11.704,6.963,18.77
									C2234.649,1824.447,2176.642,2119.145,1966.993,2119.145z M1743.238,1835.122c19.95,72.622,82.147,244.829,223.247,245.214
									c0.151,0,0.322,0,0.474,0c140.771,0,203.779-171.543,224.11-243.994c-51.205,11.001-149.052,15.923-223.705-77.334
									C1892.212,1851.84,1794.375,1846.401,1743.238,1835.122z"/>
							</g>
						</g>
						<g>
							<g>
								
									<ellipse transform="matrix(1 0.0027 -0.0027 1 4.2987 -5.3673)" fill="#FFFFFF" cx="1968.138" cy="1571.852" rx="78.247" ry="17.784"/>
							</g>
						</g>
						<g>
							<g>
								
									<ellipse transform="matrix(0.8134 0.5817 -0.5817 0.8134 1068.5664 -759.3721)" fill="#FFFFFF" cx="1717.934" cy="1285.913" rx="81.365" ry="47.86"/>
							</g>
						</g>
						<g>
							<g>
								<path fill="#FFFFFF" d="M2152.932,1334.249c15.258,21.584,57.373,18.053,94.067-7.886s54.071-64.465,38.813-86.048
									c-15.258-21.584-51.828-18.038-88.522,7.901S2137.674,1312.666,2152.932,1334.249z"/>
							</g>
						</g>
						<g>
							<g>
								<path fill="#000072" d="M1970.484,2287.045c-1.538,0-3.018-0.005-4.561-0.01c-371.417-1.011-674.503-125.313-810.763-332.5
									c-96.713-147.055-104.961-324.897-23.857-514.302c4.8-11.211,8.419-23.271,10.753-35.849
									c21.646-116.851,163.144-699,825.093-699c1.05,0,2.036,0,3.091,0.005c664.634,1.816,803.306,586.353,824.36,703.511
									c2.256,12.563,5.806,24.643,10.552,35.908c80.068,189.834,70.85,367.631-26.665,514.155
									C2641.671,2164.55,2339.801,2287.045,1970.484,2287.045z M1967.188,744.863c-630.836,0-765.669,555.253-786.319,666.718
									c-2.866,15.445-7.333,30.308-13.275,44.189c-75.641,176.646-68.536,341.617,20.551,477.076
									c128.955,196.088,419.756,313.74,777.887,314.716c1.484,0,2.998,0.005,4.482,0.005
									c356.089,0.005,645.625-115.903,775.112-310.473c89.819-134.971,97.827-299.897,23.149-476.949
									c-5.874-13.95-10.259-28.838-13.032-44.263c-20.078-111.748-152.314-669.287-785.61-671.02
									C1969.166,744.863,1968.155,744.863,1967.188,744.863z"/>
							</g>
						</g>
					</g>
				</g>
				<g>
					<g>
						<path fill="#000072" d="M1138.474,2943.457c19.876,16.592,36.387,36.885,49.81,58.713
							c13.582,21.797,23.608,45.506,31.268,69.615c7.598,24.172,12.585,48.923,14.868,73.842c2.17,24.912,1.76,50.062-2.666,74.383
							c-0.259,1.416-1.614,2.354-3.03,2.098c-1.167-0.213-2.009-1.188-2.124-2.311c-2.471-24.131-6.929-47.578-13.345-70.354
							c-6.276-22.801-14.47-44.912-24.108-66.04c-9.656-21.146-21.226-41.13-33.846-60.12
							c-12.585-19.074-26.875-36.635-41.816-53.77l-0.241-0.275c-6.567-7.531-5.786-18.963,1.745-25.529
							C1121.787,2937.778,1131.768,2937.844,1138.474,2943.457z"/>
					</g>
				</g>
			</g>
			<g opacity="0.3">
				<g>
					<path fill="#000072" d="M1856.321,2572.235c0,0-116.986-39.809-185.304,103.477c-68.317,143.286-154.168,80.409-154.168,80.409
						s-476.945,117.546-445.843-233.844c0,0-135.765,456.33,463.98,381.362c0,0,346.62,95.391,367.985-56.293
						c0,0,36.683-81.952-53.805-117.422C1758.682,2694.454,1778.633,2576.979,1856.321,2572.235z"/>
				</g>
			</g>
			<g opacity="0.3">
				<g>
					<path fill="#000072" d="M2075.441,2572.235c0,0,108.384-39.809,171.678,103.478c63.294,143.285,142.832,80.408,142.832,80.408
						s441.873,117.546,413.06-233.844c0,0,97.146,463.797-429.863,381.362c0,0-321.133,95.391-340.927-56.293
						c0,0-33.985-81.952,49.848-117.422C2165.901,2694.454,2147.418,2576.979,2075.441,2572.235z"/>
				</g>
			</g>
		</g>
	</g>
</g>
</svg>
