<?xml version="1.0" encoding="utf-8"?>
<!-- Generator: Adobe Illustrator 15.0.0, SVG Export Plug-In . SVG Version: 6.00 Build 0)  -->
<!DOCTYPE svg PUBLIC "-//W3C//DTD SVG 1.1//EN" "http://www.w3.org/Graphics/SVG/1.1/DTD/svg11.dtd">
<svg version="1.1" id="Layer_1" xmlns="http://www.w3.org/2000/svg" xmlns:xlink="http://www.w3.org/1999/xlink" x="0px" y="0px"
	 width="4000px" height="4000px" viewBox="0 0 4000 4000" enable-background="new 0 0 4000 4000" xml:space="preserve">
<g>
	<g>
		<g>
			<path fill="#EC0411" d="M1478.554,2009.986c-88.902,114.34-88.561,556.268-119.764,883.742
				c-18.795,197.258-103.93,336.426-71.837,384.238c68.81,102.514,255.05-28.701,600.794-28.701h-0.133
				c345.745,0,501.039,135.588,569.848,33.074c29.281-43.624-32.519-147.936-41.532-320.222
				c-17.267-330.021-27.938-818.619-146.29-970.554L1478.554,2009.986z"/>
		</g>
		<g opacity="0.5">
			<path fill="#FFFFFF" d="M2457.459,3282.336c-68.801,102.508-224.064-33.016-569.764-33.055
				c-345.699,0-531.938,131.215-600.739,28.668c-32.092-47.792,53.023-186.972,71.84-384.217
				c22.741-238.456,28.706-537.595,64.607-726.76c-16.162,197.245-6.391,493.726-30.802,692.334
				c-29.593,240.768-97.012,343.265-76.749,379.816c65.013,117.278,242.42-32.746,571.073-32.784
				c328.613,0,476.258,154.841,541.673,37.786c27.82-49.83-26.952-112.285-35.533-309.029
				c-8.58-196.898-19.377-499.96-40.041-715.06c42.366,215.716,51.102,516.085,62.914,742.074
				C2424.944,3134.421,2486.741,3238.699,2457.459,3282.336z"/>
		</g>
		<g opacity="0.25">
			<path fill="#371A45" d="M1522.011,2081.256c-79.096,101.728-78.792,494.91-106.554,786.264
				c-16.723,175.499-92.466,299.316-63.914,341.855c61.22,91.206,226.917-25.535,534.525-25.535h-0.119
				c307.608,0,445.772,120.633,506.992,29.426c26.052-38.813-28.931-131.617-36.95-284.9
				c-15.362-293.619-24.857-728.323-130.154-863.499"/>
		</g>
		<g>
			<path fill="#371A45" d="M2379.603,3335.99c-36.263,0-80.188-10.425-132.785-22.905c-86.121-20.435-204.058-48.418-359.117-48.43
				c-150.718,0.007-269.265,24.888-364.517,44.878c-123.289,25.879-204.736,42.966-249.014-22.988
				c-20.654-30.774-5.701-80.571,16.936-155.945c19.351-64.436,43.433-144.629,52.361-238.33
				c8.113-85.148,14.194-179.724,20.078-271.187c17.603-273.73,34.229-532.28,102.857-620.544
				c5.219-6.712,14.885-7.923,21.599-2.703c6.711,5.218,7.92,14.888,2.703,21.6c-62.817,80.788-79.91,346.582-96.438,603.623
				c-5.898,91.694-11.995,186.511-20.153,272.131c-9.217,96.727-33.785,178.53-53.523,244.263
				c-17.925,59.69-33.406,111.24-20.857,129.935c31.313,46.657,92.581,36.162,217.129,10.02
				c96.626-20.281,216.879-45.518,370.752-45.532l0,0l0,0l0,0c0.048,0.002,0.085,0.002,0.134,0
				c158.631,0.017,278.589,28.477,366.177,49.26c110.342,26.18,160.405,35.854,190.757-9.372
				c11.551-17.207,1.849-56.948-10.437-107.264c-13.063-53.491-29.314-120.061-33.685-203.576
				c-1.777-33.963-3.483-69.603-5.246-106.385c-15.43-322.139-34.634-723.054-137.817-855.515
				c-5.223-6.707-4.021-16.377,2.686-21.602c6.704-5.215,16.379-4.021,21.602,2.686c109.177,140.158,128.64,546.477,144.279,872.959
				c1.758,36.733,3.465,72.329,5.239,106.25c4.219,80.627,20.093,145.642,32.847,197.881c15.181,62.17,25.208,103.244,6.094,131.724
				C2447.848,3324.284,2418.025,3335.988,2379.603,3335.99z"/>
		</g>
		<g>
			<path fill="#FFFFFF" d="M2250.965,2009.975c0,0,134.188,282.484,293.729,345.877c112.493,44.698,254.991,46.711,254.991,46.711
				v242.486c0,0-181.589,62.307-331.73,17.758c-124.562-36.959-186.842-180.613-186.842-180.613"/>
		</g>
		<g opacity="0.35">
			<path fill="#371A45" d="M2799.684,2400.413v242.497c0,0-181.584,62.298-331.73,17.777
				c-124.559-36.979-186.855-180.622-186.855-180.622l31.797-124.677c0,0,36.388,154.036,152.365,212.563
				c179.006,90.351,211.29-62.182,211.29-62.182l54.524-110.013C2771.863,2400.028,2799.684,2400.413,2799.684,2400.413z"/>
		</g>
		<g>
			<path fill="#371A45" d="M2589.844,2694.367c-41.447,0-84.854-4.517-126.267-16.805
				c-129.954-38.56-193.926-183.112-196.584-189.245c-3.382-7.801,0.2-16.863,7.997-20.244c7.804-3.372,16.863,0.197,20.245,7.998
				c0.593,1.359,61.081,137.554,177.097,171.979c123.706,36.704,271.89-2.312,311.963-14.299v-216.304
				c-40.195-1.834-151.807-10.149-245.285-47.293c-163.286-64.883-296.362-341.818-301.949-353.576
				c-3.645-7.679-0.378-16.858,7.298-20.506c7.681-3.645,16.86-0.383,20.508,7.295c1.318,2.771,133.472,277.767,285.511,338.179
				c108.457,43.096,248.132,45.605,249.528,45.625l15.169,0.22l0.002,268.647l-10.396,3.567
				C2799.134,2661.511,2701.624,2694.367,2589.844,2694.367z"/>
		</g>
		<g>
			<circle fill="#FCD629" cx="2771.867" cy="1507.622" r="45.417"/>
		</g>
		<g>
			<path fill="#FCD629" d="M2817.279,1507.63c0,7.58-1.847,14.737-5.156,21.048c-7.58,14.468-22.741,24.357-40.249,24.357
				c-17.509,0-32.669-9.889-40.249-24.357c-3.31-6.311-5.157-13.468-5.157-21.048c0-25.089,20.317-45.406,45.406-45.406
				S2817.279,1482.541,2817.279,1507.63z"/>
		</g>
		<g opacity="0.35">
			<path fill="#371A45" d="M2812.123,1528.678c-7.58,14.468-22.741,24.357-40.249,24.357c-17.509,0-32.669-9.889-40.249-24.357
				c7.58-14.468,22.74-24.358,40.249-24.358C2789.382,1504.32,2804.543,1514.21,2812.123,1528.678z"/>
		</g>
		<g>
			<path fill="#371A45" d="M2771.865,1565.952c-32.162,0-58.327-26.167-58.327-58.33c0-32.164,26.165-58.331,58.327-58.331
				c32.164,0,58.331,26.167,58.331,58.331C2830.196,1539.785,2804.029,1565.952,2771.865,1565.952z M2771.865,1475.116
				c-17.922,0-32.502,14.583-32.502,32.505s14.58,32.505,32.502,32.505c17.923,0,32.506-14.583,32.506-32.505
				S2789.788,1475.116,2771.865,1475.116z"/>
		</g>
		<g>
			<path fill="#FFFFFF" d="M1432.146,2451.163c0.35,0.351,0.701,0.701,1.013,1.052c196.071,200.317,80.524,410.92-71.875,379.832
				c-152.634-31.127-106.197-175.931-106.197-175.931c-387.311-246.56,177.06-550.073,177.06-550.073
				c106.625-58.864,216.367-96.068,216.367-96.068l-68.915,210.68l-54.735,167.398
				C1450.884,2420.153,1432.146,2451.163,1432.146,2451.163z"/>
		</g>
		<g opacity="0.35">
			<path fill="#371A45" d="M1541.189,2251.852l-16.326,136.201c-73.979,32.101-92.717,63.11-92.717,63.11
				c0.35,0.351,0.701,0.701,1.013,1.052c-19.829-16.361-46.437-35.062-74.369-45.541c0,0,51.501-28.282,68.682-48.501
				c74.096-87.225,55.021-138.985,124.676-130.103C1563.094,2229.473,1548.423,2236.882,1541.189,2251.852z"/>
		</g>
		<g>
			<path fill="#371A45" d="M1390.66,2850.427c-10.679,0-21.528-1.084-32.437-3.309c-50.127-10.22-85.908-33.103-106.348-68.018
				c-25.676-43.853-19.236-93.884-14.431-116.099c-91.375-60.773-136.252-130.654-133.415-207.827
				c7.048-191.799,308.005-355.817,320.813-362.705c106.473-58.755,217.612-96.685,218.721-97.06
				c8.05-2.72,16.79,1.584,19.517,9.636c2.729,8.049-1.584,16.787-9.634,19.519c-1.084,0.366-109.736,37.471-213.877,94.937
				c-3.125,1.683-298.411,162.615-304.778,336.834c-2.488,68.062,40.764,130.908,128.557,186.797l10.018,6.377l-3.628,11.306
				c-0.169,0.54-17.764,57.764,8.811,102.918c15.854,26.938,44.729,44.846,85.823,53.225
				c56.536,11.514,109.153-13.601,137.349-65.562c35.113-64.699,32.388-174.716-80.557-289.453l-8.398-8.532l6.201-10.239
				c1.919-3.167,20.613-31.841,85.313-62.646c7.661-3.657,16.858-0.398,20.512,7.28c3.655,7.673,0.396,16.857-7.28,20.513
				c-35.652,16.978-55.12,32.842-64.627,42.231c114.99,123.171,115.176,243.145,75.894,315.529
				C1499.817,2819.442,1447.74,2850.424,1390.66,2850.427z"/>
		</g>
		<g>
			<path fill="#371A45" d="M1261.522,2644.028c5.987,3.633,12.219,7.595,18.323,11.494l18.468,11.79l18.662,11.75
				c6.261,3.94,12.616,7.736,19.126,11.685c-7.61-0.171-15.146-1.228-22.641-2.487c-7.465-1.348-14.845-3.063-22.121-5.071
				c-7.225-2.116-14.522-4.138-21.594-6.689c-7.142-2.49-14.08-5.078-21.106-8.298L1261.522,2644.028z"/>
		</g>
		<g opacity="0.3">
			<path fill="#421861" d="M1361.277,2832.045c-150.823-30.755-107.25-172.541-106.235-175.906l0.046-0.047
				c0,0,26.19,140.356,162.535,101.855c87.192-24.668,79.814-147.549,63.169-232.896c1.476-3.366,2.674-6.871,3.643-10.422
				c0,0,0,0,0.046,0C1604.825,2693.671,1497.852,2859.895,1361.277,2832.045z"/>
		</g>
		<g>
			<path fill="#371A45" d="M1153.204,2575.683c-6.362,0-11.528-5.148-11.542-11.514c-0.11-43.137,35.786-87.886,91.445-114.004
				c63.259-29.678,159.377-37.565,239.465,29.321c4.893,4.087,5.547,11.367,1.46,16.26c-4.084,4.893-11.36,5.552-16.26,1.46
				c-71.76-59.932-158.037-52.803-214.858-26.14c-47.568,22.322-78.252,58.843-78.166,93.044c0.017,6.377-5.14,11.558-11.514,11.572
				C1153.224,2575.683,1153.214,2575.683,1153.204,2575.683z"/>
		</g>
		<g>
			<path fill="#371A45" d="M1428.17,2461.948c-4.881-5.181-10.377-10.518-15.789-15.612c-5.465-5.125-11.065-10.127-16.798-15.003
				c-11.514-9.678-23.515-18.848-36.793-26.465c14.955,3.359,29.628,8.733,43.946,14.785c7.147,3.066,14.237,6.312,21.257,9.733
				c7.061,3.467,13.883,6.927,21.011,10.953L1428.17,2461.948z"/>
		</g>
		<g>
			<path fill="#FFFFFF" d="M2416.979,3439.639c-0.27,2.425-0.576,4.771-1.039,7.08c-12.467,70.303-98.814,95.391-254.232,76.074
				c-70.418-8.773-167.693-19.163-193.359-72.61c-51.215-106.665,1.039-349.508-5.002-487.841v-0.231c0,0-28.282,3.348-63.375,3.348
				c-35.093,0-63.375-3.348-63.375-3.348c-0.039,1.116-0.077,2.271-0.116,3.386c-5.232,138.449,45.907,378.791-4.925,484.687
				c-25.666,53.447-122.941,63.837-193.358,72.61c-155.61,19.316-241.958-5.811-254.31-76.305c-0.385-2.232-0.731-4.502-0.962-6.85
				c-8.966-85.885,116.668-125.789,116.668-125.789s-27.397-209.25-45.443-373.749c-8.465-77.306-9.658-163.114-6.003-251.425
				c1.962-46.944,5.271-94.582,9.62-142.065c10.774-118.824,27.821-236.456,45.367-338.811c1.693-9.89,3.386-19.663,5.08-29.245
				c4.425-24.973,8.85-48.868,13.16-71.494c15.814-83.038,30.321-148.915,38.941-186.547c5.156-22.472,8.234-34.901,8.234-34.901
				h662.769c0,0,2.731,11.082,7.349,31.245c7.966,34.439,21.511,95.467,36.595,173.156c5.656,29.399,11.582,61.222,17.547,94.853
				c2.809,16.046,5.617,32.477,8.426,49.33c15.893,95.892,31.015,203.556,40.904,312.222c4.31,47.406,7.657,95.006,9.582,141.873
				c3.693,88.465,2.539,174.389-5.965,251.81c-18.086,164.499-45.444,373.749-45.444,373.749S2425.945,3353.754,2416.979,3439.639z"
				/>
		</g>
		<g opacity="0.35">
			<path fill="#371A45" d="M1678.854,2898.451c0,0,116.999,18.817,207.358,18.817s234.987-18.817,234.987-18.817
				s-86.831,66.533-225.273,63.667C1754.016,2959.18,1678.854,2898.451,1678.854,2898.451z"/>
		</g>
		<g>
			<path fill="#371A45" d="M2323.337,2343.691c9.267,39.729,16.601,79.824,22.8,120.105c6.294,40.271,11.042,80.781,14.828,121.403
				c7.724,81.233,10.775,163.06,8.367,245.01c-1.397,40.903-4.428,82.116-9.315,122.7l-15.031,120.959l-29.414,241.99
				l-10.603-16.665c6.848,2.275,12.599,4.575,18.708,7.165c6.004,2.564,11.911,5.325,17.745,8.265
				c11.646,5.928,22.984,12.624,33.793,20.425c10.819,7.752,21.052,16.756,30.199,27.178c8.977,10.559,16.92,22.729,21.793,36.592
				c4.85,13.807,6.702,29.019,4.92,43.465c-0.95,7.316-2.277,14.066-4.548,21.135c-2.362,6.938-5.308,13.784-9.238,20.103
				c-7.771,12.692-18.599,23.239-30.457,31.003c-11.836,7.959-24.621,13.309-37.403,17.432
				c-25.68,8.096-51.633,10.977-77.202,12.103c-25.604,1.04-50.963,0-76.089-2.106c-12.577-0.996-25.071-2.435-37.545-3.914
				l-37.012-4.717c-24.816-3.423-49.871-7.449-74.875-14.25c-12.495-3.389-24.981-7.571-37.272-13.043
				c-12.25-5.544-24.396-12.494-35.318-22.139c-5.405-4.885-10.444-10.451-14.728-16.729c-2.167-3.129-4.03-6.479-5.776-9.906
				l-4.125-9.417c-5.012-12.583-8.776-25.366-11.428-38.147c-10.327-51.221-9.604-101.855-7.761-151.804
				c2.117-49.983,6.619-99.468,10.563-148.714c1.971-24.619,3.828-49.177,5.103-73.635c0.613-12.224,1.107-24.426,1.288-36.564
				c0.274-12.32,0.054-23.766-0.367-36.871l17.201,15.283c-11.184,1.23-21.759,1.995-32.646,2.578
				c-10.819,0.569-21.659,0.862-32.534,0.877c-10.875-0.015-21.714-0.308-32.533-0.877c-10.887-0.583-21.462-1.348-32.646-2.578
				l17.19-14.714c-1.787,48.198,2.203,97.28,6.026,146.504c3.933,49.251,8.446,98.733,10.549,148.721
				c1.82,49.951,2.542,100.584-7.776,151.802c-2.678,12.781-6.411,25.566-11.434,38.149l-4.129,9.419
				c-1.747,3.426-3.61,6.775-5.777,9.902c-4.284,6.279-9.323,11.844-14.729,16.729c-10.92,9.644-23.068,16.594-35.318,22.139
				c-12.292,5.474-24.777,9.653-37.273,13.042c-25.005,6.802-50.06,10.827-74.876,14.248l-37.014,4.717
				c-12.478,1.479-24.97,2.915-37.547,3.909c-25.127,2.102-50.485,3.142-76.089,2.097c-25.569-1.128-51.523-4.007-77.204-12.106
				c-12.78-4.131-25.569-9.471-37.403-17.438c-11.858-7.771-22.677-18.32-30.453-31.01c-3.909-6.328-6.874-13.162-9.237-20.104
				c-2.234-7.031-3.634-13.949-4.542-21.123c-1.776-14.484,0.081-29.67,4.936-43.48c4.884-13.86,12.827-26.028,21.81-36.582
				c9.151-10.42,19.385-19.422,30.207-27.171c10.81-7.798,22.151-14.489,33.796-20.415c5.834-2.939,11.742-5.698,17.747-8.262
				c6.109-2.59,11.861-4.888,18.708-7.163l-10.604,16.667l-31.92-262.367l-7.979-65.592c-2.535-21.934-5.664-43.537-7.449-65.886
				c-4.057-44.385-6.077-88.841-6.104-133.203c-0.153-44.368,1.122-88.677,3.284-132.888c2.485-44.188,4.814-88.396,9.265-132.396
				c4.04-44.033,9.717-87.896,16.956-131.481c7.391-43.564,16.195-86.902,28.476-129.559c0.79-2.744,3.654-4.326,6.397-3.537
				c2.326,0.671,3.817,2.846,3.735,5.16c-1.57,44.275-5.5,88.043-9.675,131.741c-4.353,43.672-8.531,87.295-13.189,130.854
				c-4.241,43.599-8.381,87.197-10.878,130.891c-2.787,43.678-3.605,87.408-3.586,131.058c0.023,43.662,2.019,87.239,5.972,130.501
				c1.705,21.537,4.869,43.52,7.39,65.305l7.967,65.48l31.865,261.922l1.537,12.635l-12.142,4.035
				c-4.898,1.626-10.668,3.879-15.945,6.135c-5.378,2.298-10.688,4.778-15.907,7.405c-10.414,5.298-20.439,11.238-29.708,17.927
				c-9.305,6.648-17.724,14.163-24.922,22.332c-7.008,8.264-12.757,17.234-16.097,26.771c-3.284,9.53-4.585,19.528-3.356,29.646
				c0.655,5.103,1.719,10.352,3.235,15.122c1.654,4.753,3.612,9.349,6.224,13.56c10.241,16.992,29.419,28.445,50.952,35.184
				c21.6,6.855,45.303,9.662,69.104,10.676c23.868,0.977,48.083,0.01,72.271-2.017c12.102-0.954,24.205-2.349,36.307-3.779
				l36.649-4.671c24.199-3.322,48.138-7.229,70.927-13.441c22.595-6.178,44.748-14.813,60.197-28.443
				c3.768-3.422,7.061-7.109,9.76-11.049c1.374-1.963,2.491-4.031,3.581-6.111l3.311-7.59c4.135-10.4,7.423-21.441,9.813-32.891
				c9.36-46.058,8.992-95.345,7.13-144.114c-2.055-48.952-6.525-98.112-10.478-147.549c-3.818-49.427-7.956-99.274-6.104-150.104
				l0.603-16.541l16.589,1.826c9.852,1.084,20.393,1.865,30.636,2.404c10.314,0.545,20.636,0.82,30.923,0.838
				c10.288-0.018,20.609-0.293,30.924-0.838c10.243-0.539,20.784-1.32,30.636-2.404l16.606-1.828l0.596,17.111
				c0.405,11.631,0.65,24.943,0.362,37.373c-0.188,12.612-0.697,25.145-1.324,37.642c-1.302,24.98-3.181,49.792-5.16,74.519
				c-3.964,49.439-8.423,98.594-10.492,147.547c-1.886,48.771-2.253,98.059,7.115,144.109c2.366,11.459,5.683,22.484,9.808,32.893
				l3.309,7.591c1.091,2.079,2.206,4.149,3.58,6.11c2.699,3.94,5.99,7.627,9.758,11.05c15.448,13.631,37.602,22.263,60.196,28.442
				c22.788,6.213,46.727,10.119,70.925,13.445l36.649,4.67c12.104,1.434,24.206,2.827,36.307,3.784
				c24.188,2.034,48.401,3.001,72.269,2.024c23.802-1.012,47.503-3.818,69.104-10.672c21.539-6.73,40.714-18.19,50.958-35.174
				c2.632-4.199,4.569-8.806,6.223-13.557c1.538-4.719,2.589-10.154,3.235-15.105c1.242-10.153-0.063-20.127-3.341-29.668
				c-3.331-9.538-9.082-18.508-16.083-26.774c-7.194-8.171-15.611-15.687-24.913-22.337c-9.268-6.693-19.291-12.634-29.704-17.932
				c-5.218-2.629-10.527-5.109-15.904-7.407c-5.277-2.259-11.047-4.512-15.944-6.138l-12.139-4.035l1.535-12.633l29.363-241.582
				l14.358-120.827c4.588-40.054,6.873-79.925,7.847-120.169c1.102-40.176,0.575-80.473-0.767-120.749
				c-1.148-40.29-3.156-80.608-5.838-120.913c-1.262-20.154-2.656-40.322-4.178-60.479l-4.414-60.539
				c-3.033-40.384-6.086-80.816-8.24-121.468c-0.156-2.839,2.02-5.269,4.859-5.425
				C2320.571,2339.578,2322.778,2341.304,2323.337,2343.691z"/>
		</g>
		<g>
			<path fill="#371A45" d="M2231.316,1901.01h-662.759c-8.501,0-15.391-6.89-15.391-15.391s6.89-15.391,15.391-15.391h662.759
				c8.501,0,15.391,6.89,15.391,15.391S2239.817,1901.01,2231.316,1901.01z"/>
		</g>
		<g opacity="0.35">
			<path fill="#371A45" d="M1831.545,3450.194c-25.67,53.449-122.937,63.825-193.334,72.589
				c-155.635,19.346-241.988-5.787-254.307-76.309c127.401,48.281,351.986,20.709,390.389-40.553
				c49.729-79.326,57.79-158.61-19.553-257.448c-77.3-98.796-83.294-254.745-83.294-254.745
				c36.955,25.96,112.974,54.152,165.018,71.762C1831.256,3103.929,1882.39,3344.289,1831.545,3450.194z"/>
		</g>
		<g opacity="0.35">
			<path fill="#371A45" d="M2415.93,3446.723c-12.442,70.314-98.796,95.406-254.225,76.061
				c-70.396-8.764-167.705-19.14-193.375-72.589c-51.217-106.691,1.075-349.531-5.002-487.846
				c43.073-12.855,122.813-39.146,164.812-68.62c0,0,21.165,119.697-68.909,246.479c-72.671,102.309-77.962,183.702-28.233,262.987
				C2066.258,3459.454,2275.879,3482.562,2415.93,3446.723z"/>
		</g>
		<g>
			<path fill="#371A45" d="M2165.843,3211.335c-55.109,0-126.311-10.286-217.122-39.905c-8.081-2.637-12.495-11.325-9.861-19.406
				c2.637-8.084,11.318-12.503,19.407-9.861c268.399,87.547,350.413-2.689,351.208-3.607c5.518-6.375,15.195-7.2,21.634-1.761
				c6.44,5.441,7.365,14.98,1.999,21.484C2330.579,3161.345,2287.322,3211.335,2165.843,3211.335z"/>
		</g>
		<g>
			<path fill="#371A45" d="M1620.218,3217.883c-57.776,0-113.308-10.335-148.882-41.699c-6.377-5.623-6.99-15.35-1.367-21.724
				c5.625-6.382,15.354-6.987,21.723-1.367c89.16,78.605,348.11-2.3,350.715-3.125c8.098-2.566,16.755,1.914,19.326,10.015
				s-1.912,16.753-10.012,19.326C1844.349,3181.649,1728.37,3217.883,1620.218,3217.883z"/>
		</g>
		<g>
			<path fill="#371A45" d="M1834.117,2977.313c-8.367-1.258-15.672-2.871-23.316-4.778c-7.521-1.958-14.977-4.087-22.321-6.538
				c-14.718-4.79-29.107-10.537-43.057-17.195c-7.014-3.223-13.88-6.799-20.682-10.43c-6.67-3.936-13.449-7.578-19.911-11.826
				c-13.157-7.959-25.192-18.181-34.102-31.748c-0.418-0.637-0.241-1.491,0.396-1.908c0.313-0.205,0.678-0.27,1.018-0.203
				l0.052,0.01c15.994,3.125,29.233,9.139,42.723,14.985c13.353,6.001,27.045,11.162,40.804,15.972
				c6.875,2.417,13.836,4.585,20.739,6.86l20.925,6.133c7.008,1.89,14.005,3.774,21.02,5.501c6.915,1.684,14.234,3.425,20.635,4.777
				l0.548,0.117c8.314,1.758,13.628,9.924,11.869,18.24C1849.766,2973.279,1842.097,2978.494,1834.117,2977.313z"/>
		</g>
		<g>
			<path fill="#371A45" d="M1960.543,2946.924c6.4-1.353,13.721-3.094,20.635-4.777c7.015-1.727,14.011-3.611,21.02-5.501
				l20.925-6.133c6.903-2.275,13.864-4.443,20.739-6.86c13.759-4.81,27.451-9.971,40.804-15.972
				c13.49-5.847,26.729-11.86,42.723-14.985l0.049-0.01c0.748-0.145,1.473,0.342,1.618,1.092c0.072,0.365-0.011,0.729-0.2,1.02
				c-8.91,13.567-20.945,23.789-34.103,31.748c-6.461,4.248-13.24,7.891-19.91,11.826c-6.802,3.631-13.668,7.207-20.683,10.43
				c-13.949,6.658-28.338,12.405-43.057,17.195c-7.344,2.451-14.799,4.58-22.32,6.538c-7.644,1.907-14.949,3.521-23.316,4.778
				c-8.404,1.262-16.24-4.527-17.503-12.933c-1.215-8.083,4.097-15.645,11.985-17.329L1960.543,2946.924z"/>
		</g>
		<g>
			<path fill="#371A45" d="M1496.968,3298.687c10.272-1.855,19.724-2.995,29.594-3.799c9.777-0.815,19.562-1.309,29.365-1.362
				c9.797-0.145,19.603,0.008,29.404,0.713c9.798,0.428,19.59,1.604,29.338,2.785c19.515,2.732,38.825,7.246,57.638,13.357
				c18.672,6.44,36.808,16.187,50.222,31.252c0.492,0.553,0.443,1.399-0.11,1.893c-0.326,0.291-0.754,0.393-1.151,0.314
				l-0.065-0.014c-19.554-3.984-36.792-8.668-54.656-12.842c-17.953-3.662-36.173-5.738-54.493-6.91
				c-9.213-0.225-18.368-0.707-27.591-0.598c-4.597-0.07-9.202,0.037-13.811,0.232c-4.605,0.114-9.207,0.166-13.812,0.476
				c-9.202,0.474-18.411,1.048-27.571,1.909c-9.076,0.773-18.531,1.792-27.036,2.922l-0.506,0.066
				c-8.425,1.118-16.161-4.803-17.28-13.228C1483.363,3307.681,1488.943,3300.148,1496.968,3298.687z"/>
		</g>
		<g>
			<path fill="#371A45" d="M2297.703,3329.016c-8.505-1.13-17.96-2.148-27.036-2.922c-9.16-0.861-18.37-1.436-27.571-1.909
				c-4.604-0.31-9.207-0.361-13.812-0.476c-4.608-0.195-9.214-0.303-13.811-0.232c-9.222-0.109-18.378,0.373-27.591,0.598
				c-18.32,1.172-36.54,3.248-54.493,6.91c-17.863,4.174-35.102,8.857-54.655,12.842l-0.058,0.012
				c-0.726,0.148-1.434-0.32-1.581-1.045c-0.087-0.428,0.045-0.854,0.313-1.16c13.413-15.065,31.549-24.812,50.221-31.252
				c18.813-6.111,38.123-10.625,57.639-13.357c9.748-1.182,19.54-2.357,29.339-2.785c9.8-0.705,19.606-0.857,29.403-0.713
				c9.804,0.054,19.588,0.547,29.365,1.362c9.869,0.804,19.321,1.943,29.594,3.799c8.363,1.509,13.919,9.512,12.409,17.876
				c-1.466,8.115-9.043,13.586-17.132,12.524L2297.703,3329.016z"/>
		</g>
		<g>
			<g opacity="0.35">
				<path fill="#371A45" d="M1897.163,2624.589c3.893,5.968,7.677,11.825,11.316,17.574
					C1904.804,2636.414,1901.02,2630.52,1897.163,2624.589z"/>
			</g>
			<g opacity="0.35">
				<path fill="#371A45" d="M2351.719,2688.291c-28.783,3.194-62.452,5.656-96.16,5.35c-2.579,0-5.195-0.039-7.773-0.116
					c-2.693-0.038-5.465-0.153-8.196-0.27c-1.847,0-3.694-0.077-5.425-0.153c-2.194-0.115-4.31-0.27-6.426-0.385
					c-2.733-0.154-5.465-0.347-8.158-0.539h-0.193c-2.654-0.23-5.387-0.423-8.08-0.731c-1.771-0.153-3.54-0.346-5.271-0.538
					c-1.5-0.115-3.002-0.309-4.464-0.501c-2.309-0.23-4.655-0.576-6.926-0.847c-2.155-0.346-4.272-0.653-6.388-1
					c-0.385-0.038-0.848-0.115-1.231-0.23c-2.502-0.308-4.926-0.77-7.349-1.231c-2.464-0.424-4.85-0.924-7.197-1.424
					c-0.23-0.039-0.385-0.077-0.615-0.116c-1.309-0.307-2.655-0.615-4.002-0.923c-1.462-0.308-2.924-0.692-4.348-1.039h-0.078
					c-0.769-0.23-1.577-0.423-2.308-0.654v29.629c0,40.942-33.554,74.458-74.497,74.458h-406.61
					c-40.903,0-74.458-33.516-74.458-74.458v-23.664c-51.1,7.772-110.243,4.849-157.418-0.231
					c1.962-46.944,5.271-94.582,9.62-142.065c43.75,1.771,99.508,2.463,147.799-1.731v-53.14c0-40.942,33.555-74.381,74.458-74.381
					h406.61c24.089,0,45.638,11.582,59.26,29.476c9.543,12.506,15.237,28.089,15.237,44.905v49.792
					c8.619,1.27,17.623,2.309,26.974,3.155c50.255,4.579,109.013,3.655,154.033,1.731
					C2346.446,2593.824,2349.794,2641.424,2351.719,2688.291z"/>
			</g>
			<g>
				<path fill="#FFFFFF" d="M1677.642,2627.874c-57.63,23.33-146.819,18.448-207.625,11.091
					c-36.469-4.412-62.068-38.066-56.696-74.406l0,0c4.902-33.161,34.092-57.276,67.577-55.707
					c56.874,2.665,142.182,3.913,196.208-8.071"/>
			</g>
			<g opacity="0.35">
				<path fill="#371A45" d="M1677.636,2627.879c-57.642,23.318-146.798,18.432-207.634,11.082
					c-36.44-4.426-62.066-38.057-56.68-74.419c1.039-6.966,3.117-13.545,6.118-19.548c9.466,18.933,27.936,32.938,50.562,35.67
					c60.759,7.389,149.762,12.237,207.404-11.004L1677.636,2627.879z"/>
			</g>
			<g>
				<path fill="#371A45" d="M1563.064,2660.434c-33.35,0-66.504-2.754-94.895-6.188c-21.767-2.635-41.082-13.687-54.387-31.123
					c-13.33-17.469-18.901-39.065-15.688-60.813c6.088-41.187,41.975-70.69,83.522-68.833c59.265,2.778,140.713,3.687,192.156-7.722
					c8.086-1.802,28.169-1.846,40.002,36.208c12.019,38.646,10.681,103.564-30.356,120.179
					C1649.607,2655.829,1606.178,2660.434,1563.064,2660.434z M1477.789,2524.172c-24.644,0-45.591,17.951-49.241,42.637
					c-1.99,13.462,1.458,26.828,9.707,37.639c8.223,10.779,20.161,17.61,33.611,19.236c86.937,10.522,157.961,6.938,200-10.078l0,0
					c12.408-5.022,15.999-25.127,16.965-33.538c3.406-29.572-5.574-56.97-11.221-63.649c-54.8,11.506-137.336,10.622-197.434,7.81
					C1479.378,2524.188,1478.58,2524.172,1477.789,2524.172z"/>
			</g>
			<g>
				<path fill="#FFFFFF" d="M2326.07,2638.961c-28.526,3.457-63.346,6.367-98.203,6.04c-2.402,0-4.768-0.036-7.168-0.109
					c-2.511-0.036-5.058-0.109-7.568-0.219c-1.71-0.036-3.384-0.108-5.021-0.181c-2.001-0.109-3.966-0.219-5.931-0.328
					c-2.511-0.146-5.021-0.328-7.495-0.51h-0.182c-2.475-0.182-4.985-0.399-7.459-0.654c-1.637-0.146-3.275-0.328-4.876-0.51
					c-1.382-0.109-2.766-0.291-4.111-0.437c-2.147-0.255-4.294-0.546-6.367-0.837c-2.001-0.291-3.966-0.582-5.896-0.91
					c-0.399-0.036-0.8-0.072-1.164-0.182c-2.292-0.327-4.548-0.728-6.768-1.164c-2.256-0.4-4.475-0.837-6.658-1.31
					c-0.182-0.036-0.363-0.073-0.545-0.109c-1.238-0.291-2.475-0.546-3.676-0.837c-1.346-0.291-2.692-0.618-4.039-0.982h-0.036
					c-4.111-1.02-8.15-2.184-12.079-3.42c-2.111-0.654-4.222-1.383-6.295-2.11c-2.074-0.728-4.111-1.528-6.076-2.329l0.254-61.018
					l0.292-66.075c13.826,3.093,29.727,5.276,46.646,6.804c49.192,4.476,107.227,3.238,149.543,1.274
					c1.019-0.036,2.037-0.073,3.092-0.073c32.165,0,59.745,23.65,64.475,55.778
					C2388.144,2600.902,2362.528,2634.559,2326.07,2638.961z"/>
			</g>
			<g opacity="0.35">
				<path fill="#371A45" d="M2326.053,2638.961c-28.514,3.463-63.338,6.349-98.199,6.041c-2.387,0-4.772-0.038-7.158-0.115
					c-2.501-0.039-5.041-0.115-7.58-0.23c-1.692,0-3.387-0.077-5.002-0.154c-2.001-0.115-3.964-0.231-5.926-0.347
					c-2.502-0.153-5.041-0.308-7.504-0.5h-0.192c-2.462-0.192-4.964-0.385-7.465-0.654c-1.616-0.153-3.271-0.346-4.849-0.5
					c-1.385-0.116-2.771-0.308-4.117-0.462c-2.154-0.23-4.31-0.539-6.388-0.809c-2.001-0.307-3.963-0.576-5.888-0.923
					c-0.384-0.039-0.808-0.077-1.154-0.192c-2.309-0.308-4.54-0.731-6.772-1.154c-2.27-0.385-4.463-0.847-6.656-1.309
					c-0.192-0.038-0.347-0.077-0.538-0.115c-1.232-0.27-2.464-0.539-3.694-0.847c-1.347-0.27-2.694-0.615-4.04-0.962h-0.039
					c-4.079-1.039-8.119-2.193-12.045-3.425c-2.116-0.654-4.231-1.385-6.31-2.116s-4.118-1.539-6.08-2.309l0.27-58.181
					c1.886,0.77,3.81,1.539,5.811,2.231c2.078,0.731,4.193,1.463,6.31,2.116c3.926,1.231,7.966,2.386,12.045,3.425h0.039
					c1.346,0.346,2.693,0.693,4.04,0.962c1.23,0.308,2.462,0.539,3.694,0.847c0.191,0.039,0.346,0.077,0.538,0.115
					c2.193,0.462,4.387,0.886,6.656,1.309c2.232,0.424,4.464,0.809,6.772,1.154c0.347,0.115,0.771,0.154,1.154,0.192
					c1.925,0.308,3.887,0.615,5.888,0.885c2.078,0.308,4.233,0.577,6.388,0.847c1.347,0.154,2.732,0.347,4.117,0.424
					c1.577,0.192,3.232,0.385,4.849,0.538c2.501,0.231,5.003,0.462,7.465,0.654h0.192c2.463,0.153,5.002,0.347,7.504,0.501
					c1.962,0.115,3.925,0.23,5.926,0.307c1.615,0.078,3.31,0.154,5.002,0.192c2.539,0.116,5.079,0.192,7.58,0.231
					c2.386,0.077,4.771,0.115,7.158,0.115c34.861,0.309,69.686-2.578,98.199-6.041c22.625-2.771,41.134-16.776,50.6-35.709
					c3.002,6.003,5.118,12.582,6.118,19.548C2388.158,2600.904,2362.531,2634.574,2326.053,2638.961z"/>
			</g>
			<g>
				<path fill="#371A45" d="M2233.028,2660.434c-43.118,0-86.541-4.604-120.354-18.293c-41.037-16.611-42.375-81.531-30.358-120.174
					c11.838-38.078,31.933-38.013,40.005-36.213c51.445,11.413,132.888,10.505,192.153,7.722
					c41.553-1.875,77.437,27.642,83.524,68.831c3.213,21.748-2.357,43.347-15.688,60.815c-13.306,17.437-32.62,28.488-54.388,31.123
					C2299.534,2657.68,2266.37,2660.434,2233.028,2660.434z M2118.482,2516.418c-5.647,6.678-14.629,34.074-11.224,63.647
					c0.967,8.41,4.559,28.518,16.968,33.54l0,0c42.036,17.017,113.062,20.598,200,10.078c13.45-1.626,25.389-8.46,33.613-19.236
					c8.247-10.811,11.694-24.177,9.705-37.637c-3.765-25.48-26.001-43.884-51.631-42.583
					C2255.821,2527.038,2173.277,2527.924,2118.482,2516.418z"/>
			</g>
			<g>
				<path fill="#FFFFFF" d="M2140.723,2458.779v203.674c0,37.789-30.932,68.721-68.721,68.721h-375.096
					c-37.738,0-68.67-30.932-68.67-68.721v-203.674c0-37.789,30.932-68.67,68.67-68.67h375.096
					c22.247,0,42.106,10.716,54.703,27.223C2135.491,2428.862,2140.723,2443.236,2140.723,2458.779z"/>
			</g>
			<g opacity="0.35">
				<path fill="#371A45" d="M2140.725,2458.782v203.684c0,37.768-30.928,68.694-68.732,68.694h-375.093
					c-37.763,0-68.659-30.896-68.659-68.658v-76.227c40.184,78.127,176.719,108.854,289.05,97.477
					c25.091-2.541,43.037-26.383,37.05-50.882c-1.787-7.312-2.746-15.063-2.746-23.09c0-44.427,29.435-80.447,65.748-80.447
					c35.111,0,63.855,33.692,65.712,76.117c45.008-58.835,47.445-137.571,43.661-188.11
					C2135.485,2428.873,2140.725,2443.246,2140.725,2458.782z"/>
			</g>
			<g>
				<path fill="#371A45" d="M2068.072,2746.553h-367.198c-48.54,0-88.027-39.488-88.027-88.028v-195.793
					c0-48.54,39.487-88.027,88.027-88.027h367.198c48.54,0,88.027,39.487,88.027,88.027v195.793
					C2156.1,2707.064,2116.612,2746.553,2068.072,2746.553z M1700.875,2405.485c-31.565,0-57.246,25.681-57.246,57.246v195.793
					c0,31.565,25.681,57.246,57.246,57.246h367.198c31.564,0,57.246-25.681,57.246-57.246v-195.793
					c0-31.565-25.682-57.246-57.246-57.246H1700.875z"/>
			</g>
			<g>
				<circle fill="#0AA9EF" cx="2017.358" cy="2560.628" r="59.233"/>
			</g>
			<g>
				<path fill="#FFFFFF" d="M2076.6,2560.645c0,3.216-0.245,6.361-0.77,9.438c-4.509-28.241-28.975-49.807-58.475-49.807
					c-29.5,0-53.966,21.565-58.475,49.807c-0.525-3.076-0.77-6.222-0.77-9.438c0-32.715,26.529-59.244,59.244-59.244
					C2050.07,2501.4,2076.6,2527.93,2076.6,2560.645z"/>
			</g>
			<g opacity="0.35">
				<path fill="#371A45" d="M2076.573,2560.616c0,32.71-26.513,59.223-59.223,59.223s-59.223-26.513-59.223-59.223
					c0-7.568,1.422-14.78,4.063-21.435c8.533,22.095,30.018,37.739,55.16,37.739c25.142,0,46.627-15.645,55.159-37.739
					C2075.151,2545.836,2076.573,2553.048,2076.573,2560.616z"/>
			</g>
			<g>
				<path fill="#371A45" d="M2017.359,2631.403c-39.026,0-70.777-31.751-70.777-70.776c0-39.026,31.75-70.774,70.777-70.774
					c39.025,0,70.773,31.748,70.773,70.774C2088.133,2599.652,2056.385,2631.403,2017.359,2631.403z M2017.359,2512.938
					c-26.297,0-47.69,21.395-47.69,47.688c0,26.296,21.394,47.69,47.69,47.69c26.294,0,47.688-21.395,47.688-47.69
					C2065.047,2534.333,2043.653,2512.938,2017.359,2512.938z"/>
			</g>
			<g>
				<path fill="#371A45" d="M1849.5,2746.553c-8.501,0-15.391-6.891-15.391-15.392v-110.438c0-16.98-8.101-33.216-21.67-43.431
					l-19.414-14.617c-21.247-15.995-33.933-41.423-33.933-68.022v-104.558c0-8.501,6.89-15.391,15.391-15.391
					s15.391,6.89,15.391,15.391v104.558c0,16.982,8.101,33.216,21.665,43.428l19.417,14.617
					c21.25,15.998,33.936,41.428,33.936,68.025v110.438C1864.891,2739.662,1858.001,2746.553,1849.5,2746.553z"/>
			</g>
		</g>
		<g>
			<path fill="#FCD629" d="M2799.694,1885.612v1615.671c0,15.353-12.468,27.821-27.82,27.821c-15.354,0-27.821-12.469-27.821-27.821
				V1885.612H2799.694z"/>
		</g>
		<g>
			<path fill="#371A45" d="M2771.865,3544.481c-23.825,0-43.207-19.382-43.207-43.21V1870.229h86.418v1631.043
				C2815.076,3525.1,2795.694,3544.481,2771.865,3544.481z M2759.439,1901.01v1600.262c0,6.853,5.576,12.429,12.426,12.429
				c6.854,0,12.43-5.576,12.43-12.429V1901.01H2759.439z"/>
		</g>
		<g opacity="0.35">
			<rect x="2744.053" y="1885.612" fill="#371A45" width="55.642" height="62.336"/>
		</g>
		<g>
			<path fill="#EC0411" d="M2739.961,1898.135h63.812c25.246,0,48.001-15.437,57.067-39c3.659-9.512,8.493-20.544,14.861-32.85
				c24.367-47.085,75.064-133.476,53.164-195.748c-16.528-46.995-77.199-76.332-118.096-91.216c-25.107-9.137-52.698-9.137-77.805,0
				c-40.897,14.884-101.567,44.221-118.096,91.216c-21.901,62.272,28.797,148.662,53.163,195.748
				c6.369,12.306,11.202,23.338,14.862,32.85C2691.96,1882.698,2714.715,1898.135,2739.961,1898.135L2739.961,1898.135z"/>
		</g>
		<g opacity="0.5">
			<path fill="#FFFFFF" d="M2932.947,1682.672c-0.885-5.618-2.192-11.121-4.078-16.431c-16.546-47.022-77.189-76.343-118.093-91.234
				c-25.127-9.12-52.717-9.12-77.805,0c-40.904,14.891-101.586,44.212-118.094,91.234c-1.886,5.31-3.193,10.813-4.078,16.431
				c-2.386-18.278-1.578-36.017,4.078-52.14c16.508-46.983,77.189-76.343,118.094-91.196c25.088-9.159,52.678-9.159,77.805,0
				c40.903,14.853,101.547,44.213,118.093,91.196C2934.526,1646.655,2935.334,1664.395,2932.947,1682.672z"/>
		</g>
		<g>
			<path fill="#371A45" d="M2803.772,1913.524h-63.812c-31.479,0-60.185-19.636-71.433-48.862
				c-3.909-10.161-8.674-20.693-14.165-31.304c-2.063-3.984-4.316-8.257-6.699-12.771c-27.707-52.51-69.578-131.86-47.314-195.156
				c18.076-51.396,79.231-83.06,127.352-100.571c28.479-10.371,59.854-10.371,88.332,0c48.12,17.512,109.275,49.175,127.352,100.571
				c22.26,63.298-19.609,142.651-47.314,195.158c-2.383,4.515-4.637,8.784-6.699,12.771c-5.484,10.593-10.249,21.125-14.165,31.301
				C2863.958,1893.889,2835.252,1913.524,2803.772,1913.524z M2771.865,1547.865c-11.394,0-22.79,1.973-33.637,5.921
				c-34.285,12.478-94.014,39.702-108.841,81.86c-17.8,50.61,21.826,125.705,45.501,170.573c2.424,4.593,4.717,8.938,6.813,12.991
				c6.009,11.611,11.243,23.184,15.557,34.396c6.706,17.427,23.867,29.136,42.702,29.136h63.812
				c18.835,0,35.996-11.708,42.703-29.136c4.321-11.23,9.556-22.802,15.556-34.396c2.098-4.053,4.391-8.396,6.813-12.986
				c23.674-44.87,63.301-119.968,45.503-170.578c-14.827-42.158-74.556-69.382-108.841-81.86
				C2794.659,1549.838,2783.263,1547.865,2771.865,1547.865z"/>
		</g>
		<g>
			<path fill="#371A45" d="M2803.772,1913.51h-63.799c-31.506,0-60.212-19.633-71.433-48.854
				c-4.051-10.418-8.831-20.967-14.188-31.292c-2.053-3.972-4.292-8.213-6.657-12.698c-27.718-52.532-69.604-131.922-47.337-195.239
				c16.966-48.306,72.414-78.979,115.943-96.206c3.83-1.565,7.733-3.03,11.474-4.37c28.389-10.364,59.766-10.366,88.271,0.026
				c3.667,1.313,7.571,2.779,11.556,4.407c43.342,17.15,98.77,47.813,115.786,96.135c22.288,63.379-19.673,142.815-47.437,195.379
				c-2.344,4.438-4.563,8.638-6.597,12.561c-5.522,10.716-10.286,21.245-14.153,31.304
				C2863.934,1893.886,2835.23,1913.51,2803.772,1913.51z M2771.839,1547.868c-11.389,0-22.766,1.978-33.589,5.928
				c-3.423,1.228-6.906,2.531-10.464,3.984c-53.264,21.081-88.149,48.706-98.386,77.852
				c-17.808,50.64,21.836,125.776,45.522,170.669c2.404,4.561,4.68,8.874,6.765,12.9c5.857,11.294,11.097,22.856,15.566,34.36
				c6.709,17.468,23.867,29.167,42.72,29.167h63.799c18.823,0,35.986-11.706,42.705-29.128c4.266-11.094,9.492-22.664,15.534-34.378
				l0.016-0.029c2.067-3.989,4.323-8.259,6.706-12.773c23.728-44.919,63.438-120.102,45.618-170.783
				c-10.271-29.158-45.156-56.79-98.235-77.793c-3.713-1.517-7.197-2.82-10.534-4.019
				C2794.681,1549.853,2783.253,1547.868,2771.839,1547.868z"/>
		</g>
		<g>
			<path fill="#FCD629" d="M2875.691,1826.277c-6.35,12.313-11.197,23.356-14.853,32.861c-9.082,23.55-31.823,38.98-57.065,38.98
				h-63.799c-25.243,0-48.022-15.43-57.065-38.98c-3.694-9.504-8.504-20.547-14.892-32.861
				c-24.357-47.061-75.034-133.485-53.14-195.745c15.085-42.943,67.031-71.148,107.089-87.001
				c-21.627,26.82-62.414,86.309-53.602,144.182c6.733,44.251,48.099,131.677,59.18,154.572c1.655,3.424,5.119,5.58,8.967,5.58
				h0.038c5.656,0,10.196-4.695,9.927-10.351c-2.078-49.215-8.888-258.851,25.397-305.026
				c34.284,46.175,27.475,255.811,25.396,305.026c-0.27,5.656,4.271,10.351,9.927,10.351c3.848,0,7.313-2.155,8.967-5.58
				c11.082-22.895,52.485-110.32,59.219-154.572c8.813-57.873-31.976-117.362-53.602-144.182
				c40.057,15.853,91.967,44.059,107.088,87.001C2950.764,1692.792,2900.087,1779.217,2875.691,1826.277z"/>
		</g>
		<g opacity="0.35">
			<path fill="#371A45" d="M2875.691,1826.277c-6.35,12.313-11.197,23.356-14.853,32.861c-9.082,23.55-31.823,38.98-57.065,38.98
				h-63.799c-25.243,0-48.022-15.43-57.065-38.98c-3.694-9.504-8.504-20.547-14.892-32.861
				c-24.357-47.061-75.034-133.485-53.14-195.745c3.001-8.542,7.466-16.546,13.045-23.934
				c-19.817,57.026,26.512,136.063,48.792,179.122c5.849,11.274,10.273,21.394,13.621,30.09
				c8.312,21.587,29.168,35.709,52.293,35.709h58.489c23.126,0,43.943-14.122,52.293-35.709c3.349-8.696,7.773-18.816,13.583-30.09
				c22.318-43.059,68.609-122.018,48.869-179.044c5.541,7.388,10.005,15.314,13.006,23.857
				C2950.764,1692.792,2900.087,1779.217,2875.691,1826.277z"/>
		</g>
		<g>
			<path fill="#371A45" d="M2803.772,1908.449h-63.799c-29.426,0-56.233-18.328-66.709-45.608
				c-4.124-10.607-8.979-21.32-14.416-31.809c-2.061-3.977-4.305-8.23-6.678-12.727c-27.305-51.755-68.571-129.966-47.038-191.202
				c16.335-46.504,70.482-76.34,113.032-93.179c4.354-1.721,9.338-0.298,12.121,3.484c2.781,3.776,2.666,8.955-0.278,12.607
				c-18.249,22.632-59.795,81.203-51.431,136.143c5.071,33.325,32.993,99.275,57.663,150.376
				c-3.42-78.504-7.15-263.758,27.34-310.208c1.948-2.624,5.024-4.17,8.293-4.17c3.27,0,6.346,1.546,8.294,4.17
				c34.455,46.404,30.769,231.316,27.482,310.254c12.259-25.803,51.177-108.745,57.522-150.422
				c8.364-54.937-33.184-113.508-51.434-136.143c-2.944-3.652-3.059-8.831-0.278-12.607c2.783-3.782,7.767-5.2,12.122-3.484
				c42.521,16.829,96.65,46.653,113.032,93.174c21.552,61.292-19.783,139.551-47.137,191.336c-2.346,4.443-4.567,8.65-6.606,12.578
				c-5.612,10.886-10.454,21.597-14.39,31.833C2859.959,1890.126,2833.152,1908.449,2803.772,1908.449z M2690.965,1569.14
				c-28.979,15.53-56.548,36.941-66.34,64.814c-18.54,52.725,21.748,129.085,45.82,174.71c2.399,4.546,4.668,8.848,6.748,12.863
				c5.775,11.136,10.939,22.534,15.344,33.867c7.446,19.393,26.504,32.396,47.437,32.396h63.799
				c20.901,0,39.961-13.008,47.427-32.371c4.202-10.925,9.354-22.326,15.311-33.876c0.005-0.007,0.007-0.015,0.01-0.02
				c2.063-3.979,4.312-8.237,6.689-12.739c24.113-45.651,64.473-122.058,45.915-174.824c-9.817-27.881-37.38-49.292-66.343-64.815
				c20.442,32.54,39.487,76.304,32.815,120.125c-6.86,45.068-47.762,131.958-60.135,157.517
				c-3.394,7.032-10.396,11.407-18.264,11.407c-5.53,0-10.887-2.291-14.695-6.287c-3.792-3.977-5.813-9.402-5.552-14.886
				c4.314-102.15,2.405-228.615-15.078-280.991c-17.48,52.376-19.387,178.848-15.073,281.05c0.257,5.43-1.768,10.855-5.56,14.829
				c-3.809,3.994-9.162,6.285-14.689,6.285c-7.905,0-14.904-4.373-18.308-11.414c-12.358-25.532-53.224-112.366-60.091-157.51
				C2651.48,1645.443,2670.523,1601.679,2690.965,1569.14z"/>
		</g>
		<g>
			<path fill="#FFFFFF" d="M2706.513,2507.907c0,0-46.294,18.497-56.303-7.349c-10.01-25.846-20.343-133.283-1.251-148.147
				c43.165-33.607,102.596,27.213,102.596,27.213L2706.513,2507.907z"/>
		</g>
		<g>
			<path fill="#FFFFFF" d="M2751.557,2379.609l-8.889,25.281l-36.171,103.01c0,0-26.435,10.582-43.674,4.54
				c-5.579-1.924-10.158-5.579-12.622-11.89c-10.004-25.819-20.315-133.293-1.23-148.146
				C2692.106,2318.813,2751.557,2379.609,2751.557,2379.609z"/>
		</g>
		<g opacity="0.35">
			<path fill="#371A45" d="M2742.668,2404.891l-36.171,103.01c0,0-26.435,10.582-43.674,4.54
				c-5.772-41.75-7.388-101.2,6.465-111.975C2693.029,2381.957,2721.658,2392.039,2742.668,2404.891z"/>
		</g>
		<g>
			<path fill="#371A45" d="M2675.273,2529.662c-6.957,0-14.03-1.013-20.373-3.773c-8.96-3.899-15.544-10.735-19.043-19.771
				c-8.063-20.82-26.911-142.063,3.646-165.852c53.398-41.575,120.244,25.718,123.062,28.601l6.682,6.836l-50.529,143.904
				l-6.494,2.593C2709.707,2523.205,2692.854,2529.662,2675.273,2529.662z M2706.512,2507.907h0.049H2706.512z M2658.86,2364.213
				c-9.761,13.958-4.274,105.022,5.703,130.786c0.527,1.365,1.187,2.036,2.605,2.656c6.03,2.642,18.057,0.774,27.3-1.906
				l39.204-111.653C2718.919,2371.439,2683.565,2345.632,2658.86,2364.213z"/>
		</g>
		<g opacity="0.35">
			<path fill="#371A45" d="M2799.694,2432.48v281.169c-16.238,5.079-35.593,7.08-55.642,2.731v-270.125
				C2764.601,2435.828,2785.842,2431.634,2799.694,2432.48z"/>
		</g>
		<g>
			<path fill="#FFFFFF" d="M2811.611,2358.354c-21.031-12.355-125.906,12.409-128.454,102.597
				c-2.145,75.935-23.354,130.956,23.902,162.581c39.214,26.243,65.687,45.948,92.626,32.602
				C2826.625,2642.787,2945.069,2436.762,2811.611,2358.354z"/>
		</g>
		<g opacity="0.35">
			<path fill="#371A45" d="M2873.844,2476.348c-1.615,82.808-56.834,171.156-74.149,179.775
				c-26.936,13.352-53.409-6.35-92.62-32.592c-33.438-22.396-32.631-56.449-28.513-101.355
				c3.348,17.316,11.467,31.746,28.513,43.135c39.211,26.244,56.219,35.094,83.885,23.281
				C2823.013,2574.893,2858.221,2529.257,2873.844,2476.348z"/>
		</g>
		<g>
			<path fill="#371A45" d="M2781.683,2675.941c-24.238,0-48.186-16.099-76.602-35.2l-6.582-4.419
				c-43.491-29.104-39.237-73.806-34.313-125.568c1.516-15.945,3.083-32.435,3.586-50.237
				c1.233-43.674,24.146-80.039,64.515-102.393c31.558-17.473,69.831-23.198,87.121-13.042h0.003
				c47.771,28.069,71.889,74.739,69.743,134.966c-2.951,82.969-56.533,176.946-82.634,189.878
				C2798.086,2674.104,2789.866,2675.941,2781.683,2675.941z M2796.48,2370.678c-11.653,0-33.303,4.28-54.3,17.319
				c-19.299,11.987-42.539,34.451-43.638,73.39c-0.531,18.827-2.222,36.601-3.713,52.282c-5.022,52.8-6.238,78.984,20.788,97.072
				l6.636,4.453c34.964,23.501,53.989,35.374,70.599,27.148c12.803-7.949,66.55-93.508,65.64-171.641
				c-0.521-44.689-18.88-78.003-54.57-99.016C2802.501,2371.055,2799.928,2370.678,2796.48,2370.678z M2803.976,2371.711h0.051
				H2803.976z M2803.816,2371.625L2803.816,2371.625c-0.002,0-0.002,0-0.002,0H2803.816z"/>
		</g>
		<g>
			<path fill="#EC0411" d="M2399.895,2240.661c-33.055,7.388-67.07,3.232-98.662-6.465c-16.354-5.002-32.014-11.466-46.598-18.546
				c-52.255-25.436-90.119-58.912-91.966-61.645l112.591-63.992l45.906-26.088c4.732,13.391,12.313,31.745,20.971,51.523
				C2366.764,2172.053,2399.895,2240.661,2399.895,2240.661z"/>
		</g>
		<g>
			<path fill="#371A45" d="M2364.456,2259.872c-107.271,0-209.289-89.387-214.592-97.336l-9.17-13.753l188.818-107.331l6.143,17.312
				c17.861,50.332,77.512,173.965,78.112,175.208l8.442,17.473l-18.94,4.241C2390.369,2258.573,2377.366,2259.872,2364.456,2259.872
				z M2189.046,2156.706c33.13,25.959,113.069,77.656,187.996,71.838c-15.42-32.427-46.71-99.157-63.906-142.373L2189.046,2156.706z
				"/>
		</g>
		<g>
			<path fill="#EC0411" d="M1576.013,2154.006c-1.309,2.001-28.513,13.275-67.8,24.549c-9.465,2.732-19.625,5.427-30.283,8.004
				c-56.026,13.545-126.097,23.473-182.354,10.891c0,0,6.272-6.465,16.084-17.009c25.819-27.858,76.342-84.115,102.585-125.712
				c6.464-10.273,11.428-19.624,14.2-27.474l92.927,79.806L1576.013,2154.006z"/>
		</g>
		<g>
			<path fill="#371A45" d="M1353.504,2218.615c-20.991,0-41.794-1.777-61.274-6.141l-26.765-5.991l19.058-19.724
				c0.059-0.059,6.21-6.429,15.844-16.81c61.956-66.74,104.417-122.017,113.589-147.858l7.505-21.155l174.934,150.262l-7.561,11.338
				c-9.771,14.65-107.922,39.155-108.906,39.39C1444.603,2210.388,1398.636,2218.615,1353.504,2218.615z M1326.824,2186.684
				c79.52,7.153,178.428-21.403,220.691-36.89l-113.821-97.769C1410.684,2092.93,1360.052,2150.668,1326.824,2186.684z
				 M1567.032,2141.615L1567.032,2141.615L1567.032,2141.615z"/>
		</g>
		<g opacity="0.35">
			<path fill="#371A45" d="M2342.137,2115.449c-0.962,2.155-2.001,4.31-3.078,6.426c-12.506,24.436-28.206,45.291-46.252,62.991
				c-11.814,11.544-24.627,21.779-38.172,30.784c-78.998,52.523-183.777,63.76-266.932,58.488
				c-71.956-4.617-95.698-51.678-103.24-88.311c0.039,0,0-0.038,0-0.038v-0.039c-1.154-5.81-1.924-11.352-2.462-16.431
				c-1.539-15.931-0.384-27.166-0.384-27.166s1-0.77,2.847-2.193h0.039c27.358-21.587,243.074-190.011,321.418-218.524
				c10.697-3.887,21.74-5.31,32.745-4.579c7.966,34.439,21.511,95.467,36.595,173.156l45.906-26.088
				C2325.898,2077.316,2333.479,2095.671,2342.137,2115.449z"/>
		</g>
		<g opacity="0.35">
			<path fill="#371A45" d="M1886.926,2169.397c-0.5,5.04-1.271,10.544-2.424,16.354c0,0.039,0,0.039-0.039,0.077
				c-7.542,36.633-31.283,83.693-103.239,88.311c-87.118,5.541-198.015-7.081-278.091-66.339
				c-8.812-6.465-17.238-13.545-25.204-21.241c-18.816-18.046-35.131-39.479-48.061-64.684
				c-11.428-22.317-16.123-45.175-15.623-67.146c6.464-10.273,11.428-19.624,14.2-27.474l92.927,79.806
				c15.814-83.038,30.321-148.915,38.941-186.547c0.923,0.269,1.808,0.577,2.732,0.923
				c78.343,28.513,294.059,196.938,321.417,218.524h0.039c1.847,1.424,2.847,2.193,2.847,2.193S1888.542,2153.429,1886.926,2169.397
				z"/>
		</g>
		<g>
			<path fill="#FFFFFF" d="M2339.277,2071.506c-67.416,131.6-228.914,157.65-346.545,150.146
				c-70.994-4.541-94.428-51.023-101.816-87.156c-1.155-5.732-1.924-11.197-2.425-16.199c-1.539-15.699-0.384-26.781-0.384-26.781
				s0.962-0.77,2.809-2.193c26.82-21.125,239.726-187.395,317.031-215.523c40.519-14.737,86.155,6.695,115.63,45.021
				C2354.168,1958.646,2367.329,2016.711,2339.277,2071.506z"/>
		</g>
		<g opacity="0.35">
			<path fill="#371A45" d="M2339.289,2071.506c-67.416,131.6-228.913,157.65-346.545,150.146
				c-70.994-4.541-94.428-51.023-101.816-87.156c-1.155-5.732-1.924-11.197-2.425-16.199c-1.539-15.699-0.384-26.781-0.384-26.781
				s0.808-0.654,2.424-1.886c0.115,0.692,0.231,1.385,0.385,2.077c7.388,36.133,30.822,82.616,101.816,87.156
				c117.632,7.504,279.129-18.547,346.545-150.146c7.08-13.813,11.544-27.859,13.736-41.75
				C2357.259,2014.057,2353.758,2043.224,2339.289,2071.506z"/>
		</g>
		<g>
			<path fill="#371A45" d="M2029.664,2238.2c-14.314,0-27.109-0.511-37.884-1.196c-38.118-2.435-67.986-16.157-88.772-40.789
				c-36.414-43.151-30.483-103.752-30.214-106.311l0.681-6.44l5.078-4.017c9.769-7.725,240.2-189.57,324.15-220.098
				c41.733-15.176,89.993,0.704,125.947,41.44c44.341,50.242,53.89,120.005,24.324,177.728
				C2282.447,2216.215,2123.678,2238.2,2029.664,2238.2z M1903.116,2099.299c-0.278,14.458,1.433,51.14,23.545,77.212
				c15.166,17.881,37.734,27.897,67.082,29.771c75.464,4.821,258.875,0.645,331.834-141.797
				c28.862-56.353,7.261-112.427-20.008-143.323c-26.978-30.566-63.22-43.474-92.346-32.88
				C2140.714,1914.647,1938.961,2071.232,1903.116,2099.299z"/>
		</g>
		<g>
			<path fill="#FFFFFF" d="M1893.352,2118.374c-0.5,4.964-1.27,10.39-2.423,16.122c-7.427,36.133-30.822,82.615-101.855,87.156
				c-117.593,7.504-279.091-18.547-346.507-150.146c-30.629-59.797-12.16-123.441,24.473-163.075
				c29.283-31.668,70.187-47.984,106.857-34.632c77.305,28.129,290.212,194.398,317.032,215.523
				c1.847,1.424,2.809,2.193,2.809,2.193S1894.93,2102.636,1893.352,2118.374z"/>
		</g>
		<g opacity="0.35">
			<path fill="#371A45" d="M1893.352,2118.374c-0.5,4.964-1.27,10.39-2.423,16.122c-7.427,36.133-30.822,82.615-101.855,87.156
				c-117.593,7.504-279.091-18.547-346.507-150.146c-14.583-28.437-18.046-57.758-13.699-84.962
				c2.232,13.775,6.657,27.705,13.699,41.442c67.416,131.599,228.914,157.649,346.507,150.146
				c71.033-4.541,94.428-51.023,101.855-87.156c0.115-0.5,0.191-1,0.269-1.462c1.694,1.308,2.541,2.001,2.541,2.001
				S1894.93,2102.636,1893.352,2118.374z"/>
		</g>
		<g>
			<path fill="#371A45" d="M1752.181,2238.2c-94.011,0-252.778-21.976-323.311-159.683
				c-29.565-57.723-20.017-127.483,24.324-177.725c35.952-40.74,84.211-56.621,125.947-41.443
				c83.953,30.53,314.382,212.373,324.15,220.098l5.078,4.017l0.682,6.44c0.268,2.559,6.198,63.159-30.213,106.311
				c-20.786,24.632-50.654,38.354-88.774,40.789C1779.295,2237.689,1766.487,2238.2,1752.181,2238.2z M1547.403,1884.631
				c-24.229,0-50.413,13.057-71.128,36.53c-27.268,30.896-48.87,86.971-20.007,143.323
				c72.959,142.443,256.37,146.613,331.833,141.797c29.348-1.873,51.919-11.89,67.085-29.771
				c22.109-26.072,23.821-62.754,23.542-77.212c-35.845-28.066-237.595-184.651-310.107-211.018
				C1561.866,1885.824,1554.723,1884.631,1547.403,1884.631z"/>
		</g>
		<g>
			<g>
				<path fill="#FFFFFF" d="M2443.741,1656.899L2443.741,1656.899c-6.174,0.461-11.553-4.169-12.014-10.344l-24.053-322.004
					c-0.462-6.174,4.17-11.553,10.344-12.014l0,0c64.771-4.838,121.201,43.748,126.039,108.519l8.202,109.805
					C2557.098,1595.631,2508.513,1652.061,2443.741,1656.899z"/>
				<path fill="#371A45" d="M2442.896,1659.697c-7.239,0-13.379-5.603-13.926-12.937l-24.053-322.004
					c-0.278-3.721,0.908-7.329,3.345-10.159c2.437-2.83,5.827-4.541,9.551-4.817c66.113-4.953,124.058,44.883,129.001,111.072
					l8.201,109.805c2.397,32.061-7.838,63.137-28.816,87.502c-20.977,24.365-50.188,39.102-82.253,41.497l0,0
					C2443.594,1659.682,2443.243,1659.697,2442.896,1659.697z M2426.856,1314.97c-2.859,0-5.733,0.107-8.633,0.323
					c-2.249,0.168-4.3,1.204-5.77,2.913c-1.472,1.709-2.189,3.889-2.023,6.14l24.053,322.004c0.349,4.644,4.419,8.105,9.053,7.793
					l0,0c30.588-2.285,58.459-16.348,78.474-39.593c20.013-23.244,29.778-52.893,27.493-83.483l-8.201-109.805
					C2536.8,1361.015,2486.326,1314.97,2426.856,1314.97z"/>
			</g>
			<g opacity="0.35">
				<path fill="#371A45" d="M2548.413,1479.371l3.858,51.499c4.828,64.75-43.752,121.19-108.535,126.053
					c-6.172,0.468-11.55-4.197-12.018-10.368l-6.422-85.599c2.024,3.773,6.132,6.176,10.666,5.872l7.635-0.592
					C2494.783,1562.425,2535.887,1526.359,2548.413,1479.371z"/>
			</g>
			<g>
				<path fill="#371A45" d="M2442.864,1672.323c-6.362,0-12.446-2.251-17.316-6.445c-5.384-4.636-8.641-11.091-9.17-18.176
					l-24.053-322.005c-0.53-7.087,1.733-13.955,6.369-19.341c4.637-5.383,11.092-8.64,18.177-9.17
					c73.135-5.464,137.072,49.593,142.536,122.723l8.201,109.805c2.646,35.427-8.662,69.763-31.841,96.682
					c-23.177,26.922-55.452,43.206-90.879,45.853l0,0C2444.212,1672.299,2443.536,1672.323,2442.864,1672.323z M2442.608,1641.55
					c-0.005,0-0.01,0-0.015,0l0,0C2442.599,1641.55,2442.604,1641.55,2442.608,1641.55z M2423.34,1327.658l23.419,313.496
					c25.585-2.942,48.779-15.213,65.681-34.842c17.815-20.69,26.504-47.08,24.471-74.304l-8.201-109.805
					C2524.615,1367.399,2477.818,1325.915,2423.34,1327.658z"/>
			</g>
			<g>
				<path fill="#FFFFFF" d="M1355.157,1391.929L1355.157,1391.929c6.174-0.461,11.553,4.169,12.014,10.344l24.053,322.004
					c0.461,6.174-4.17,11.553-10.344,12.014h0c-64.771,4.838-121.201-43.747-126.039-108.519l-8.202-109.805
					C1241.8,1453.197,1290.385,1396.767,1355.157,1391.929z"/>
				<path fill="#371A45" d="M1371.932,1739.392c-28.787,0-56.311-10.186-78.35-29.16c-24.367-20.979-39.104-50.19-41.499-82.254
					l-8.201-109.805c-2.397-32.061,7.837-63.137,28.816-87.502c20.979-24.368,50.19-39.104,82.254-41.499l0,0
					c7.663-0.628,14.401,5.212,14.976,12.896l24.053,322.004c0.278,3.721-0.908,7.329-3.345,10.159
					c-2.437,2.829-5.828,4.541-9.551,4.817C1378.025,1739.276,1374.969,1739.392,1371.932,1739.392z M1355.362,1394.685
					c-30.589,2.285-58.457,16.348-78.472,39.592c-20.015,23.247-29.78,52.896-27.495,83.487l8.201,109.805
					c2.288,30.588,16.348,58.457,39.592,78.471c23.25,20.015,52.901,29.78,83.486,27.496c2.249-0.168,4.299-1.204,5.769-2.913
					c1.472-1.709,2.19-3.89,2.024-6.141l-24.052-322.004C1364.068,1397.836,1360.03,1394.364,1355.362,1394.685L1355.362,1394.685z"
					/>
			</g>
			<g opacity="0.35">
				<path fill="#371A45" d="M1384.576,1634.945l6.663,89.331c0.468,6.171-4.197,11.549-10.368,12.018
					c-33.997,2.524-65.728-9.646-88.884-31.183c-20.912-19.45-34.831-46.567-37.133-77.319l-3.459-46.269
					c21.418,39.22,64.496,64.441,111.985,60.902l11.75-0.88C1379.42,1641.216,1382.89,1638.572,1384.576,1634.945z"/>
			</g>
			<g>
				<path fill="#371A45" d="M1372.024,1752.014c-68.877,0-127.322-53.315-132.534-123.094l-8.2-109.805
					c-2.646-35.427,8.662-69.763,31.841-96.685c23.179-26.921,55.454-43.205,90.879-45.852h0.007
					c14.62-1.06,27.41,9.922,28.503,24.546l24.053,322.004c0.529,7.088-1.733,13.956-6.37,19.341
					c-4.636,5.384-11.091,8.641-18.176,9.17C1378.675,1751.889,1375.333,1752.014,1372.024,1752.014z M1352.14,1407.673
					c-25.586,2.941-48.779,15.212-65.682,34.844c-17.814,20.69-26.504,47.08-24.47,74.304l8.2,109.805
					c2.034,27.227,14.549,52.031,35.239,69.847c19.632,16.904,44.419,25.573,70.129,24.699L1352.14,1407.673z"/>
			</g>
			<g opacity="0.35">
				<path fill="#371A45" d="M2323.59,1918.819c-100.73,133.647-267.449,199.072-433.059,196.424
					c-163.956-2.622-326.823-71.973-423.492-206.813c29.283-31.668,70.187-47.984,106.857-34.632
					c77.305,28.129,290.212,194.398,317.032,215.523c26.82-21.125,239.725-187.395,317.031-215.523
					C2248.478,1859.062,2294.115,1880.494,2323.59,1918.819z"/>
			</g>
			<g>
				<circle fill="#FFFFFF" cx="1899.516" cy="1524.409" r="550.251"/>
				<path fill="#371A45" d="M1899.456,2077.424c-146.958,0-285.239-56.98-389.585-160.581
					c-104.822-104.077-162.842-242.744-163.369-390.459c-0.524-147.715,56.501-286.795,160.579-391.619
					c104.077-104.821,242.746-162.842,390.461-163.369c0.652-0.002,1.353-0.002,2.004-0.002
					c304.041,0,551.895,246.763,552.984,551.042c0.524,147.715-56.502,286.792-160.579,391.617
					c-104.077,104.822-242.746,162.841-390.461,163.369C1900.813,2077.424,1900.132,2077.424,1899.456,2077.424z M1899.546,976.923
					c-0.664,0-1.321,0.003-1.985,0.005c-146.238,0.52-283.521,57.959-386.555,161.733
					c-103.038,103.777-159.495,241.465-158.973,387.703c0.52,146.237,57.959,283.518,161.733,386.555
					c103.779,103.04,241.648,159.604,387.703,158.97c146.238-0.52,283.521-57.959,386.555-161.733
					c103.037-103.775,159.494-241.462,158.973-387.7l0,0C2445.921,1221.237,2200.521,976.923,1899.546,976.923z"/>
			</g>
			<g opacity="0.35">
				<path fill="#371A45" d="M2444.218,1446.295c3.593,24.867,5.458,50.287,5.556,76.155
					c1.043,303.884-244.418,551.112-548.301,552.225c-303.885,1.044-551.111-244.418-552.225-548.301
					c-0.037-8.739,0.135-17.486,0.523-26.101c38.052,267.723,268.619,473.127,546.668,472.145
					C2191.584,1971.343,2431.574,1738.125,2444.218,1446.295z"/>
			</g>
			<g>
				<path fill="#371A45" d="M1899.456,2090.051c-150.315,0-291.755-58.281-398.481-164.248
					c-107.214-106.453-166.56-248.286-167.097-399.375c-1.113-311.895,251.726-566.546,563.62-567.656
					c0.664-0.003,1.384-0.005,2.048-0.005c310.982,0,564.498,252.397,565.608,563.623c0.54,151.089-57.79,293.342-164.243,400.559
					c-106.455,107.217-248.288,166.561-399.375,167.098C1900.843,2090.048,1900.147,2090.051,1899.456,2090.051z M1899.546,989.55
					c-0.649,0-1.292,0-1.938,0.003c-294.922,1.052-533.999,241.846-532.949,536.765c0.51,142.866,56.624,276.98,158.005,377.642
					c101.384,100.659,235.916,155.959,378.76,155.305c142.866-0.511,276.982-56.624,377.642-158.005
					c100.662-101.382,155.815-235.894,155.308-378.76v0.003C2433.321,1228.229,2193.577,989.55,1899.546,989.55z"/>
			</g>
			<g>
				<path fill="#371A45" d="M2448.055,1536.584c2.01,107.657-31.07,208.259-89.293,292.072
					c-43.65,62.834-225.819,174.779-453.231,181.071c-210.86,5.835-404.844-103.024-450.81-164.186
					c-61.312-81.58-98.125-180.876-100.137-288.533c-5.321-284.892,237.242-407.568,539.208-413.208
					C2195.758,1138.16,2442.732,1251.692,2448.055,1536.584z"/>
			</g>
			<g>
				<path fill="#371A45" d="M1888.849,2025.349c-211.907,0-399.3-107.85-446.434-170.56
					c-65.52-87.18-101.213-190.054-103.22-297.492c-2.618-140.145,51.569-249.256,161.059-324.307
					c95.396-65.393,231.379-101.556,393.25-104.578c161.897-3.034,299.111,28.035,396.883,89.817
					c112.214,70.91,170.439,177.925,173.057,318.066l0,0c2.007,107.443-29.822,211.577-92.039,301.143
					c-43.171,62.146-224.021,180.993-465.449,187.673C1900.24,2025.271,1894.532,2025.349,1888.849,2025.349z M1915.03,1158.993
					c-6.936,0-13.911,0.063-20.95,0.196c-159.761,2.986-530.64,47.693-524.109,397.532c1.887,100.928,35.447,197.603,97.053,279.572
					c43.724,58.177,232.63,163.777,438.081,158.047c227.62-6.296,402.192-118.579,441.016-174.465
					c58.501-84.214,88.428-182.075,86.546-283.003l0,0c-2.412-129.139-55.815-227.588-158.724-292.62
					C2185.457,1188.337,2061.69,1158.993,1915.03,1158.993z"/>
			</g>
			<g opacity="0.4">
				<g>
					
						<ellipse transform="matrix(-0.9871 -0.1599 0.1599 -0.9871 4270.0537 3345.9805)" fill="#FCD629" cx="2269.64" cy="1501.201" rx="70.561" ry="97.377"/>
				</g>
			</g>
			<g opacity="0.4">
				<g>
					
						<ellipse transform="matrix(-0.9556 -0.2948 0.2948 -0.9556 3776.6748 3960.5928)" fill="#FCD629" cx="2186.818" cy="1695.676" rx="38.355" ry="44.695"/>
				</g>
			</g>
			<g opacity="0.35">
				<path fill="#111A28" d="M2336.753,1272.792c68.028,62.53,109.142,149.354,111.294,263.776
					c2.013,107.679-31.089,208.274-89.27,292.088c-43.664,62.834-225.852,174.773-453.258,181.089
					c-80.296,2.244-158.119-12.173-226.291-34.282c279.373-13.721,501.263-151.083,555.393-229.015
					c73.902-106.374,115.881-234.072,113.31-370.68C2347.271,1339.257,2343.408,1304.96,2336.753,1272.792z"/>
			</g>
			<g>
				<path fill="#371A45" d="M1391.229,1328.698c-3.572,0-7.16-1.238-10.073-3.763c-6.055-5.246-7.019-14.182-2.451-20.571
					c94.148-143.872,280.234-228.842,510.662-233.149c229.065-4.216,418.184,71.143,519.075,206.897
					c4.307,5.52,4.446,13.477-0.127,19.147c-5.322,6.6-14.938,7.686-21.56,2.391l-1.561-1.248l-1.265-1.662
					c-94.834-127.852-274.98-198.714-493.987-194.749c-220.31,4.121-397.358,84.18-485.751,219.648l-1.324,1.746
					C1399.825,1326.896,1395.538,1328.698,1391.229,1328.698z M1390.689,1312.831l0.547,0.474L1390.689,1312.831z"/>
			</g>
			<g opacity="0.4">
				<g>
					<path fill="#FCD629" d="M1480.535,1724.195c0,0-93.485-279.399,55.889-394.225
						c149.374-114.826,367.298-118.444,362.463-104.374c0,0-240.158,62.91-330.989,255.395
						C1497.856,1629.421,1480.535,1724.195,1480.535,1724.195z"/>
				</g>
			</g>
		</g>
		<g>
			<path fill="#FCD629" d="M2034.738,987.354l-35.953-325.339c23.109-5.32,42.018-23.85,46.607-48.653
				c6.165-33.327-15.854-65.342-49.182-71.507s-65.343,15.854-71.508,49.182c-4.721,25.521,7.096,50.257,27.852,63.221
				l-140.178,291.218"/>
		</g>
		<g opacity="0.35">
			<path fill="#371A45" d="M2034.738,987.354l-35.953-325.339c23.109-5.32,42.018-23.85,46.607-48.653
				c6.165-33.327-15.854-65.342-49.182-71.507s-65.343,15.854-71.508,49.182c-4.721,25.521,7.096,50.257,27.852,63.221
				l-140.178,291.218"/>
		</g>
		<g>
			<path fill="#371A45" d="M2034.718,1002.746c-7.742,0-14.409-5.828-15.278-13.704l-37.459-338.956l13.352-3.073
				c17.881-4.116,31.589-18.423,34.924-36.453c2.234-12.075-0.368-24.299-7.326-34.416c-6.961-10.12-17.444-16.922-29.52-19.158
				c-24.907-4.609-48.962,11.915-53.574,36.849c-3.457,18.693,4.734,37.287,20.872,47.368l11.695,7.305L1826.246,952.15
				c-3.689,7.664-12.898,10.879-20.544,7.195c-7.661-3.689-10.881-12.886-7.194-20.544l134.741-279.924
				c-19.429-17.657-28.594-44.087-23.68-70.642c7.698-41.619,47.815-69.209,89.443-61.516c20.161,3.73,37.664,15.087,49.282,31.982
				c11.619,16.892,15.962,37.3,12.231,57.46c-4.712,25.477-21.831,46.504-45.075,56.526l34.585,312.976
				c0.935,8.447-5.159,16.055-13.608,16.987C2035.853,1002.714,2035.281,1002.746,2034.718,1002.746z"/>
		</g>
		<g>
			<path fill="#FCD629" d="M2291.501,1090.74l63.513-321.099c23.64,1.873,47.244-10.116,59.077-32.393
				c15.898-29.932,4.521-67.086-25.411-82.984c-29.933-15.899-67.086-4.522-82.984,25.41c-12.175,22.921-8.341,50.066,7.558,68.67
				l-221.238,235.608"/>
		</g>
		<g opacity="0.35">
			<path fill="#371A45" d="M2291.501,1090.74l63.513-321.099c23.64,1.873,47.244-10.116,59.077-32.393
				c15.898-29.932,4.521-67.086-25.411-82.984c-29.933-15.899-67.086-4.522-82.984,25.41c-12.175,22.921-8.341,50.066,7.558,68.67
				l-221.238,235.608"/>
		</g>
		<g>
			<path fill="#371A45" d="M2291.52,1106.137c-0.991,0-1.995-0.098-3.003-0.295c-8.34-1.65-13.763-9.749-12.114-18.086
				l66.169-334.541l13.657,1.082c18.26,1.435,35.666-8.072,44.268-24.265c11.893-22.391,3.353-50.281-19.035-62.173
				c-10.85-5.76-23.289-6.948-35.029-3.357c-11.743,3.596-21.385,11.547-27.144,22.392c-8.919,16.792-6.694,36.987,5.666,51.451
				l8.958,10.483l-230.677,245.662c-5.82,6.196-15.562,6.504-21.758,0.683c-6.196-5.82-6.501-15.559-0.684-21.757l212.656-226.468
				c-13.223-22.68-14.016-50.64-1.35-74.492c9.618-18.108,25.713-31.387,45.317-37.39c19.604-5.996,40.378-4.009,58.48,5.605
				c37.381,19.854,51.639,66.418,31.785,103.799c-12.153,22.883-34.802,37.79-59.985,40.361l-61.096,308.896
				C2305.152,1101.059,2298.719,1106.137,2291.52,1106.137z"/>
		</g>
		<g>
			<path fill="#FCD629" d="M2568.394,789.741c-8.486,30.126-38.046,48.616-68.207,44.048l-162.373,330.139l-16.094-1.467
				c-96.212-8.648-191.105-26.414-283.521-52.979c-92.378-26.532-182.242-61.865-268.327-105.65l18.23-370.491
				c-29.504-11.12-46.079-43.138-37.391-74.038c5.491-19.325,19.589-33.872,36.98-40.621c11.957-4.623,25.463-5.549,38.766-1.818
				c32.592,9.222,51.588,43.088,42.402,75.713c-4.988,17.668-17.194,31.318-32.541,38.686l31.405,137.521
				c10.124,44.356,50.809,66.912,89.045,62.313c22.979-2.712,45.054-15.257,59.165-38.714l166.266-277.131
				c-19.473-14.808-28.986-40.511-21.925-65.5c9.186-32.625,43.086-51.623,75.711-42.437c32.627,9.221,51.624,43.121,42.404,75.748
				c-6.823,24.249-27.358,40.976-50.867,44.167l5.992,327.255c1.329,73.251,91.603,107.141,140.786,52.837l87.006-96.044
				c-11.852-14.901-16.6-35.103-11.061-54.811c9.22-32.627,43.12-51.624,75.711-42.437
				C2558.582,723.215,2577.579,757.115,2568.394,789.741z"/>
		</g>
		<g opacity="0.35">
			<path fill="#371A45" d="M2233.895,1080.204c112.137-10.504,234.146-181.086,234.146-181.086l-130.215,264.815l-16.122-1.462
				c-96.198-8.658-191.088-26.435-283.516-52.986c-92.351-26.551-182.238-61.875-268.316-105.664l0.962-19.547
				C1969.976,1065.265,2121.403,1090.74,2233.895,1080.204z"/>
		</g>
		<g opacity="0.5">
			<path fill="#FFFFFF" d="M1961.576,830.355c21.241-3.771,41.25-16.162,54.372-37.979l166.27-277.128
				c-19.51-14.814-29.014-40.519-21.934-65.491c8.966-31.938,41.634-50.832,73.611-42.982c-20.74,5.118-38.249,20.933-44.406,42.982
				c-7.079,24.973,2.425,50.677,21.896,65.491l-166.27,277.128c-14.083,23.473-36.171,36.017-59.143,38.71
				C1977.853,832.086,1969.618,831.816,1961.576,830.355z"/>
		</g>
		<g opacity="0.5">
			<path fill="#FFFFFF" d="M1956.769,831.097l-0.536,14.034l-41.067,2.877c-38.821,2.722-73.187-24.849-78.977-63.334
				l-25.471-170.008c0,0,34.669-10.454,28.109-49.682c-6.639-39.699-55.884-33.915-55.884-33.915l4.75-12.386
				c11.957-4.623,25.463-5.549,38.766-1.818c32.592,9.222,51.588,43.088,42.402,75.713c-4.988,17.668-17.194,31.318-32.541,38.686
				l31.405,137.521C1877.847,813.14,1918.532,835.695,1956.769,831.097z"/>
		</g>
		<g opacity="0.5">
			<path fill="#FFFFFF" d="M2257.987,910.266l-6.938,11.788L2283.207,946c30.397,22.64,73.066,18.101,98.045-10.409l110.253-125.996
				c0,0-22.928-26.796,3.071-55.509c26.313-29.058,63.648,1.572,63.648,1.572l2.616-12.652
				c-7.373-10.076-17.96-17.935-30.827-21.869c-31.569-9.572-64.946,8.208-74.566,39.785c-5.197,17.108-2.365,34.715,6.344,48.824
				l-98.041,96.24C2332.133,937.031,2286.919,934.136,2257.987,910.266z"/>
		</g>
		<g>
			<path fill="#FCD629" d="M1869.46,590.188l-12.107-52.987C1869.071,551.554,1874.091,570.979,1869.46,590.188z"/>
		</g>
		<g>
			<path fill="#371A45" d="M2346.976,1180.188l-26.636-2.39c-195.192-17.51-382.739-71.421-557.429-160.237l-8.887-4.519
				l18.204-370.178c-30.242-17.046-45.975-53.477-36.316-87.744c5.562-19.736,18.477-36.123,36.365-46.146
				c17.883-10.022,38.606-12.478,58.34-6.914c19.737,5.562,36.124,18.477,46.146,36.365c10.019,17.886,12.475,38.606,6.914,58.34
				c-4.826,17.134-15.444,31.941-29.839,42.026l28.892,126.572c7.261,31.804,32.417,46.731,53.54,50.095
				c21.128,3.369,49.673-3.005,66.453-30.977l159.834-266.394c-17.729-19.363-24.432-46.519-17.104-72.512
				c11.481-40.74,53.97-64.543,94.704-53.059c40.74,11.481,64.541,53.967,53.06,94.705c-7.029,24.939-26.004,44.306-50.071,52.156
				l5.75,314.829c0.601,32.8,22.334,52.562,42.473,60.118c20.132,7.549,49.502,6.963,71.533-17.351l79.009-87.217
				c-9.46-17.444-11.921-38.125-6.465-57.478c11.481-40.735,53.975-64.546,94.705-53.057c40.739,11.481,64.541,53.967,53.059,94.705
				l0,0c-9.414,33.401-39.98,55.903-73.762,55.935L2346.976,1180.188z M1785.75,994.602
				c168.65,84.367,349.373,135.674,537.339,152.537l5.591,0.5l162.686-330.77l11.146,1.69c22.821,3.474,44.792-10.718,51.066-32.983
				l0,0c3.333-11.822,1.86-24.231-4.143-34.946c-6.001-10.713-15.818-18.448-27.637-21.78c-24.419-6.863-49.852,7.383-56.727,31.779
				c-3.994,14.163-0.898,29.522,8.276,41.084l8.115,10.227l-95.752,105.7c-27.088,29.902-67.383,39.678-105.158,25.503
				c-37.776-14.172-61.702-48.034-62.438-88.376l-6.228-340.962l13.577-1.838c18.184-2.458,33.146-15.449,38.12-33.096
				c6.877-24.402-7.381-49.849-31.78-56.726c-11.818-3.333-24.23-1.861-34.946,4.143c-10.713,6-18.447,15.818-21.779,27.637
				c-5.159,18.301,1.296,37.566,16.44,49.082l10.977,8.345l-173.379,288.968c-20.64,34.399-58.069,51.84-97.693,45.54
				c-39.619-6.311-69.778-34.532-78.706-73.645l-34.131-149.509l11.079-5.317c11.919-5.723,20.803-16.282,24.38-28.972
				c6.877-24.402-7.38-49.849-31.78-56.726c-24.417-6.863-49.851,7.383-56.726,31.78c-6.418,22.773,5.876,47.136,27.991,55.464
				l10.5,3.955L1785.75,994.602z M2568.392,789.75h0.049H2568.392z"/>
		</g>
		<g>
			<polygon fill="#EC0411" points="2066.104,1001.131 2036.951,907.031 2115.63,847.747 2144.783,941.848 			"/>
		</g>
		<g opacity="0.4">
			<polygon fill="#FFFFFF" points="2036.951,907.031 2115.63,847.747 2090.884,923.038 			"/>
		</g>
		<g>
			<path fill="#371A45" d="M2057.882,1026.601l-38.836-125.352l104.808-78.969l38.835,125.349L2057.882,1026.601z M2054.856,912.812
				l19.471,62.852l52.551-39.597l-19.47-62.849L2054.856,912.812z"/>
		</g>
		<g>
			<path fill="#FFDA00" d="M1916.958,2138.53l9.98,34.405c2.248,7.748,9.229,13.168,17.292,13.426l35.806,1.14
				c18.03,0.574,24.793,23.886,9.868,34.02l-29.638,20.124c-6.674,4.531-9.672,12.846-7.424,20.594l9.98,34.406
				c5.026,17.326-15.056,30.961-29.305,19.898l-28.297-21.969c-6.373-4.947-15.206-5.229-21.881-0.697l-29.638,20.124
				c-14.925,10.134-34.098-4.751-27.979-21.722l12.149-33.701c2.736-7.59,0.274-16.078-6.099-21.025l-28.297-21.969
				c-14.25-11.063-6.018-33.897,12.013-33.323l35.806,1.141c8.063,0.257,15.375-4.708,18.111-12.298l12.149-33.701
				C1887.671,2120.432,1911.932,2121.204,1916.958,2138.53z"/>
		</g>
		<g>
			<path fill="#FFDA00" d="M1916.958,2138.53l9.98,34.405c2.248,7.748,9.229,13.168,17.292,13.426l35.806,1.14
				c18.03,0.574,24.793,23.886,9.868,34.02l-29.638,20.124c-6.674,4.531-9.672,12.846-7.424,20.594l9.98,34.406
				c5.026,17.326-15.056,30.961-29.305,19.898l-28.297-21.969c-6.373-4.947-15.206-5.229-21.881-0.697l-29.638,20.124
				c-14.925,10.134-34.098-4.751-27.979-21.722l12.149-33.701c2.736-7.59,0.274-16.078-6.099-21.025l-28.297-21.969
				c-14.25-11.063-6.018-33.897,12.013-33.323l35.806,1.141c8.063,0.257,15.375-4.708,18.111-12.298l12.149-33.701
				C1887.671,2120.432,1911.932,2121.204,1916.958,2138.53z"/>
		</g>
		<g opacity="0.35">
			<path fill="#371A45" d="M1916.958,2138.53l9.98,34.405c2.248,7.748,9.229,13.168,17.292,13.426l35.806,1.14
				c18.03,0.574,24.793,23.886,9.868,34.02l-29.638,20.124c-6.674,4.531-9.672,12.846-7.424,20.594l9.98,34.406
				c5.026,17.326-15.056,30.961-29.305,19.898l-28.297-21.969c-6.373-4.947-15.206-5.229-21.881-0.697l-29.638,20.124
				c-14.925,10.134-34.098-4.751-27.979-21.722l12.149-33.701c2.736-7.59,0.274-16.078-6.099-21.025l-28.297-21.969
				c-14.25-11.063-6.018-33.897,12.013-33.323l35.806,1.141c8.063,0.257,15.375-4.708,18.111-12.298l12.149-33.701
				C1887.671,2120.432,1911.932,2121.204,1916.958,2138.53z"/>
		</g>
		<g>
			<path fill="#FFDA00" d="M1907.405,2145.494l11.192,38.584c1.084,3.738,4.453,6.354,8.344,6.478l40.154,1.279
				c8.7,0.276,11.963,11.525,4.762,16.415l-33.237,22.567c-3.221,2.187-4.667,6.198-3.583,9.938l11.192,38.584
				c2.425,8.36-7.265,14.938-14.141,9.601l-31.733-24.636c-3.075-2.388-7.338-2.523-10.559-0.337l-33.236,22.568
				c-7.202,4.889-16.453-2.293-13.501-10.482l13.624-37.793c1.32-3.662,0.132-7.758-2.942-10.146l-31.734-24.636
				c-6.876-5.339-2.904-16.356,5.796-16.08l40.154,1.279c3.891,0.124,7.419-2.271,8.74-5.934l13.624-37.794
				C1893.273,2136.762,1904.979,2137.134,1907.405,2145.494z"/>
		</g>
		<g opacity="0.4">
			<path fill="#FFFFFF" d="M1966.769,2206.983l-41.154-1.291c-3.144-0.099-5.907-2.111-6.965-5.074l-12.663-35.482
				c-2.328-6.522-11.432-6.842-14.211-0.499l-15.201,34.688c-1.255,2.864-4.127,4.677-7.253,4.575l-42.162-1.359
				c-7.766-0.25-10.522-11.106-3.457-14.339c1.204-0.551,2.588-0.847,4.117-0.797l40.135,1.271c3.886,0.115,7.426-2.271,8.734-5.926
				l13.622-37.787c2.963-8.195,14.661-7.812,17.086,0.539l11.197,38.595c1.077,3.732,4.463,6.349,8.35,6.465l40.134,1.27
				c1.534,0.051,2.897,0.438,4.064,1.07C1977.97,2196.595,1974.526,2207.227,1966.769,2206.983z"/>
		</g>
		<g>
			<path fill="#371A45" d="M1944.898,2335.969c-7.31,0-14.593-2.435-20.821-7.269l-28.296-21.968
				c-1.111-0.864-2.634-0.91-3.799-0.122l-29.634,20.125c-12.424,8.43-28.11,7.93-39.968-1.274
				c-11.857-9.204-16.23-24.28-11.14-38.401l12.149-33.701c0.476-1.32,0.053-2.785-1.055-3.645l-28.298-21.973
				c-11.858-9.204-16.23-24.28-11.14-38.401c5.088-14.126,17.954-22.966,33.082-22.463l35.805,1.14
				c1.382-0.034,2.666-0.815,3.142-2.134l12.148-33.701c5.093-14.123,18.071-22.946,33.081-22.461
				c15.005,0.479,27.402,10.103,31.585,24.521l9.98,34.407c0.391,1.348,1.599,2.282,3.003,2.329l35.803,1.14
				c15.005,0.477,27.402,10.103,31.585,24.52c4.182,14.419-1.141,29.185-13.563,37.617l-29.634,20.124
				c-1.165,0.789-1.68,2.222-1.289,3.569l9.98,34.409c4.182,14.419-1.143,29.183-13.562,37.615
				C1958.147,2333.977,1951.509,2335.969,1944.898,2335.969z M1893.802,2275.251c7.371,0,14.719,2.399,20.856,7.165l28.296,21.968
				c0.508,0.394,1.863,1.44,3.796,0.122c1.943-1.318,1.468-2.959,1.289-3.574l-9.98-34.406
				c-4.119-14.194,1.331-29.312,13.562-37.615l29.634-20.124c0.532-0.361,1.943-1.318,1.292-3.572c-0.654-2.253-2.361-2.307-3-2.329
				l-35.808-1.14c-14.775-0.474-27.466-10.327-31.584-24.52l-9.981-34.409c-0.178-0.615-0.654-2.253-2.998-2.326
				c-2.414-0.047-2.925,1.53-3.142,2.131l-12.148,33.701c-5.018,13.906-18.308,22.905-33.086,22.461l-35.803-1.14
				c-0.651-0.024-2.343-0.071-3.139,2.134c-0.796,2.209,0.549,3.254,1.057,3.647l28.296,21.97
				c11.677,9.061,16.155,24.495,11.14,38.403l-12.148,33.701c-0.217,0.604-0.795,2.207,1.057,3.647
				c1.851,1.434,3.267,0.479,3.796,0.12l29.636-20.125C1880.491,2277.206,1887.156,2275.251,1893.802,2275.251z"/>
		</g>
		<g opacity="0.5">
			<path fill="#FFFFFF" d="M2835.549,1615.844c0,0,17.08,24.068,16.021,62.649c-0.685,24.926-14.718,48.451-19.382,45.856
				c-5.264-2.928-1.355-22.373-5.077-73.631C2825.688,1631.116,2816.839,1586.419,2835.549,1615.844z"/>
		</g>
		<g opacity="0.5">
			<path fill="#FFFFFF" d="M2710.602,1615.844c0,0-17.08,24.068-16.021,62.649c0.685,24.926,14.718,48.451,19.382,45.856
				c5.264-2.928,1.355-22.373,5.076-73.631C2720.463,1631.116,2729.312,1586.419,2710.602,1615.844z"/>
		</g>
	</g>
</g>
</svg>
