<?xml version="1.0" encoding="utf-8"?>
<!-- Generator: Adobe Illustrator 15.0.0, SVG Export Plug-In . SVG Version: 6.00 Build 0)  -->
<!DOCTYPE svg PUBLIC "-//W3C//DTD SVG 1.1//EN" "http://www.w3.org/Graphics/SVG/1.1/DTD/svg11.dtd">
<svg version="1.1" xmlns="http://www.w3.org/2000/svg" xmlns:xlink="http://www.w3.org/1999/xlink" x="0px" y="0px"
	 width="159.051px" height="92.786px" viewBox="0 0 159.051 92.786" enable-background="new 0 0 159.051 92.786"
	 xml:space="preserve">
<g id="Layer_1">
</g>
<g id="Layer_2">
	<g>
		<g>
			<g>
				<path d="M158.882,48.863c-10.104-5.154-22.735-2.307-32.396,2.405c-4.796,2.339-8.86,5.495-11.946,9.878
					c-2.982,4.235-5.001,9.065-6.729,13.922c-0.35,0.98,1.18,1.495,1.528,0.517c1.582-4.453,3.398-8.858,6.029-12.806
					c2.939-4.411,6.763-7.62,11.483-10.005c4.992-2.522,10.397-4.408,15.968-5.076c5.454-0.655,10.556,0.142,15.749,1.808
					C158.941,49.625,159.258,49.055,158.882,48.863L158.882,48.863z"/>
			</g>
		</g>
		<g>
			<g>
				<path d="M108.709,75.178c-2.767-0.393-5.391-1.206-7.928-2.37c-0.523-0.24-1.081,0.345-0.967,0.855
					c1.379,6.182,2.939,12.326,4.42,18.484c0.11,0.459,0.674,0.82,1.125,0.541c5.436-3.363,11.009-6.479,16.726-9.332
					c0.486-0.243,0.577-0.884,0.237-1.283c-1.829-2.152-3.978-3.854-6.496-5.136c-0.938-0.476-1.855,0.893-0.908,1.38
					c2.384,1.223,4.429,2.825,6.181,4.856c0.08-0.429,0.158-0.856,0.237-1.283c-5.693,2.896-11.263,6.027-16.69,9.398
					c0.376,0.181,0.751,0.361,1.126,0.541c-1.492-6.155-2.906-12.337-4.499-18.467c-0.322,0.285-0.646,0.57-0.968,0.854
					c2.68,1.118,5.444,1.747,8.338,1.964C109.295,76.231,109.342,75.268,108.709,75.178L108.709,75.178z"/>
			</g>
		</g>
		<g>
			<g>
				<path d="M158.348,48.856c-3.286,1.297-6.608,2.522-9.982,3.571c-0.475,0.146-0.684,0.663-0.353,1.069
					c1.968,2.407,4.014,4.752,6.032,7.117c0.252-0.383,0.502-0.765,0.755-1.147c-15.711-3.378-31.798,3.619-39.748,17.648
					c-0.568,1.001,0.929,1.993,1.496,0.987c7.478-13.258,22.828-20.415,37.798-17.291c0.66,0.139,1.256-0.565,0.755-1.146
					c-2.032-2.353-4.04-4.729-6.122-7.038c-0.063,0.338-0.125,0.677-0.188,1.014c3.378-1.203,6.693-2.508,9.944-4.024
					C159.241,49.382,158.851,48.658,158.348,48.856L158.348,48.856z"/>
			</g>
		</g>
		<g>
			<g>
				<path d="M139.93,59.335c1.791-1.636,3.068-3.882,4.764-5.644c1.833-1.902,3.851-3.602,6.035-5.087
					c0.856-0.58,0.127-2.044-0.741-1.453c-2.308,1.566-4.438,3.335-6.313,5.408c-1.636,1.809-3.637,4.026-4.274,6.427
					C139.319,59.291,139.675,59.567,139.93,59.335L139.93,59.335z"/>
			</g>
		</g>
		<g>
			<g>
				<path d="M144.755,59.418c0.908-0.614,1.75-1.297,2.553-2.046c0.779-0.729,1.758-1.493,2.266-2.437
					c0.244-0.455-0.218-1.209-0.759-0.849c-0.904,0.604-1.591,1.571-2.334,2.365c-0.748,0.802-1.488,1.606-2.185,2.453
					C144.076,59.172,144.464,59.614,144.755,59.418L144.755,59.418z"/>
			</g>
		</g>
		<g>
			<g>
				<path d="M133.769,61.508c1.629-2.086,2.804-4.634,4.231-6.872c1.456-2.284,3.12-4.395,4.686-6.6
					c0.457-0.645-0.526-1.533-1.071-0.921c-1.826,2.052-3.38,4.395-4.806,6.737c-1.356,2.229-2.948,4.853-3.53,7.416
					C133.21,61.572,133.571,61.761,133.769,61.508L133.769,61.508z"/>
			</g>
		</g>
		<g>
			<g>
				<path d="M128.608,64.135c0.962-5.35,3.244-9.855,5.958-14.517c0.507-0.87-0.81-1.737-1.307-0.861
					c-2.613,4.606-5.671,9.842-5.295,15.336C127.993,64.505,128.534,64.55,128.608,64.135L128.608,64.135z"/>
			</g>
		</g>
		<g>
			<g>
				<path d="M123.832,67.829c0.159-2.691,0.738-5.287,1.493-7.868c0.672-2.301,1.179-5.385,2.786-7.229
					c0.745-0.854-0.448-1.908-1.191-1.024c-1.703,2.024-2.165,4.998-2.752,7.502c-0.659,2.818-1.091,5.673-1.057,8.572
					C123.118,68.239,123.804,68.298,123.832,67.829L123.832,67.829z"/>
			</g>
		</g>
		<g>
			<g>
				<path d="M120.138,71.336c0.103-2.669,0.296-5.306,0.75-7.94c0.424-2.47,1.33-4.81,1.798-7.251
					c-0.257,0.225-0.513,0.449-0.77,0.676c0.018,0,0.037,0.001,0.055,0.002c-0.201-0.229-0.401-0.458-0.603-0.688
					c0.001,0.015,0,0.029,0.001,0.045c-0.001,0.268,0.141,0.504,0.398,0.596c0.013,0.005,0.026,0.009,0.039,0.015
					c0.345,0.124,0.688-0.088,0.82-0.406c0.007-0.019,0.015-0.037,0.022-0.056c0.202-0.488-0.319-1.091-0.833-0.941
					c-0.919,0.268-0.973,1.089-1.211,1.935c-0.426,1.512-0.73,3.057-0.963,4.607c-0.469,3.123-0.549,6.316-0.321,9.463
					C119.355,71.859,120.12,71.793,120.138,71.336L120.138,71.336z"/>
			</g>
		</g>
		<g>
			<g>
				<path d="M117.598,74.177c-0.842-1.818-0.991-4.106-1.217-6.081c-0.254-2.229-0.298-4.457-0.337-6.698
					c-0.017-0.938-1.469-1.049-1.469-0.097c0.001,2.475,0.274,4.956,0.701,7.392c0.311,1.767,0.478,4.507,1.842,5.814
					C117.355,74.733,117.742,74.489,117.598,74.177L117.598,74.177z"/>
			</g>
		</g>
		<g>
			<g>
				<path d="M118.039,83.821c-0.801-2.486-2.248-4.668-3.195-7.094c-1.132-2.895-1.397-5.938-2.229-8.899
					c-0.27-0.962-1.56-0.652-1.486,0.306c0.212,2.783,0.977,5.716,2.003,8.306c1.077,2.716,2.985,4.971,4.1,7.665
					C117.415,84.549,118.189,84.287,118.039,83.821L118.039,83.821z"/>
			</g>
		</g>
		<g>
			<g>
				<path d="M113.523,85.989c-0.847-1.973-1.806-3.888-2.539-5.911c-0.721-1.99-0.993-4.22-1.884-6.124
					c-0.26-0.553-1.184-0.376-1.193,0.246c-0.029,2.073,0.915,4.286,1.69,6.188c0.866,2.123,1.913,4.201,3.329,6.013
					C113.193,86.742,113.679,86.353,113.523,85.989L113.523,85.989z"/>
			</g>
		</g>
		<g>
			<g>
				<path d="M109.104,88.852c-0.448-2.448-1.591-4.811-2.182-7.25c-0.546-2.258-0.592-4.728-1.361-6.904
					c-0.267-0.757-1.319-0.354-1.405,0.289c-0.326,2.432,0.659,5.343,1.423,7.632c0.726,2.181,1.545,4.709,3.063,6.466
					C108.819,89.291,109.15,89.106,109.104,88.852L109.104,88.852z"/>
			</g>
		</g>
	</g>
</g>
<g id="Layer_3">
	<g>
		<g>
			<g>
				<path d="M28.314,17.476c14.614-4.382,30.755,2.386,41.536,12.364c5.312,4.919,9.526,11.692,8.385,19.208
					c-0.49,3.254-1.982,6.401-4.591,8.473c-1.59,1.261-3.808,2.286-5.784,1.31c-3.013-1.488-1.463-4.96,1.252-5.625
					c5.048-1.237,7.856,5.964,8.758,9.657c1.055,4.329,0.961,8.819,0.547,13.226c-0.119,1.255,1.852,1.254,1.963,0
					c0.467-5.275,0.439-10.739-1.297-15.806c-1.262-3.678-3.584-7.885-7.68-8.853c-2.995-0.708-6.731,1.258-7.141,4.497
					c-0.43,3.41,3.129,5.543,6.162,5.145c8.461-1.107,10.983-12.231,9.344-19.11c-2.281-9.568-11.28-16.537-19.49-21.01
					c-9.791-5.336-21.372-7.867-32.199-4.325C27.544,16.801,27.767,17.64,28.314,17.476L28.314,17.476z"/>
			</g>
		</g>
		<g>
			<g>
				<path d="M73.113,68.983c1.938-0.671,3.865,5.573,4.263,6.577c0.34,0.859,0.725,1.892,1.867,1.84
					c1.221-0.054,1.949-1.733,2.508-2.559c1.381-2.04,2.826-4.051,4.115-6.153c0.627-1.023-0.896-1.846-1.578-0.921
					c-1.189,1.612-2.268,3.311-3.381,4.975c-0.246,0.368-1.285,2.441-1.789,2.339c-0.111-0.021-0.561-1.618-0.596-1.702
					c-0.83-1.977-2.65-5.445-5.032-5.802c-0.313-0.047-0.569,0.036-0.748,0.303c-0.074,0.111-0.148,0.222-0.222,0.332
					C72.272,68.584,72.688,69.131,73.113,68.983L73.113,68.983z"/>
			</g>
		</g>
		<g>
			<g>
				<path d="M27.514,15.637c-0.875-0.008-1.328,1.136-0.672,1.725c0.12,0.106,0.302,0.181,0.463,0.121
					c0.732-0.271,1.261-0.833,1.368-1.627c0.027-0.211-0.014-0.486-0.24-0.589c-1.38-0.622-2.449,0.858-2.748,2.061
					c-0.149,0.595-0.141,1.281,0.37,1.704c0.601,0.498,1.377,0.241,1.911-0.224c0.974-0.85,1.836-2.705,0.541-3.675
					c-1.261-0.947-2.713,0.54-2.912,1.769c-0.208,1.297,0.674,2.536,2.045,2.47c1.231-0.059,2.294-1.208,1.741-2.446
					c-0.587-1.316-2.435-1.541-3.182-0.248c-0.307,0.532-0.364,1.244-0.068,1.792c0.354,0.654,1.124,0.923,1.723,0.411
					c0.361-0.308,0.645-0.754,0.937-1.124c0.254-0.321,0.503-0.651,0.528-1.076c0.038-0.661-0.438-1.179-1.054-1.348
					c-0.663-0.183-1.367,0.019-1.799,0.553c-0.563,0.696-0.558,1.63-0.488,2.477c0.026,0.321,0.276,0.685,0.647,0.647
					c1.489-0.148,2.724-1.465,2.527-3.011c-0.041-0.322-0.269-0.695-0.655-0.656c-1.43,0.148-2.117,1.81-1.198,2.921
					c0.538,0.651,1.464-0.282,0.928-0.93c-0.153-0.188,0.02-0.651,0.271-0.68c-0.219-0.217-0.438-0.437-0.655-0.655
					c0.103,0.782-0.367,1.628-1.217,1.718c0.215,0.215,0.431,0.431,0.646,0.646c-0.04-0.463-0.229-1.806,0.511-1.816
					c0.295-0.006,0.256,0.044,0.169,0.231c-0.161,0.352-0.577,0.762-0.832,1.054c-0.089,0.084-0.055,0.09,0.101,0.018
					c-0.029-0.065-0.04-0.134-0.033-0.202c0.057-0.163,0.036-0.314,0.167-0.456c0.236-0.253,0.591-0.174,0.801,0.074
					c0.42,0.499-0.167,0.902-0.647,0.89c-0.654-0.017-0.845-0.703-0.684-1.246c0.09-0.309,0.298-0.646,0.601-0.784
					c0.408-0.184,0.576,0.154,0.532,0.526c-0.046,0.366-0.345,0.772-0.576,1.046c-0.2,0.232-0.665,0.676-0.613,0.103
					c0.047-0.527,0.581-1.858,1.263-1.579c-0.128-0.167-0.255-0.335-0.383-0.502c-0.043,0.438-0.327,0.725-0.711,0.899
					c0.191,0.023,0.383,0.049,0.576,0.073c-0.102-0.054-0.102-0.118,0-0.194C28.06,16.464,28.069,15.643,27.514,15.637
					L27.514,15.637z"/>
			</g>
		</g>
	</g>
</g>
<g id="Layer_4">
	<g>
		<g>
			<g>
				<path d="M44.526,60.811c2.269,7.449,5.421,14.702,8.2,21.972c0.15,0.394,0.304,0.784,0.45,1.179
					c0.12,0.278,0.223,0.563,0.311,0.854c0.178,0.255,0.109,0.358-0.208,0.309c-0.515,0.386-1.973,0.289-2.637,0.376
					c-1.858,0.243-3.722,0.44-5.589,0.595c-3.969,0.325-7.948,0.434-11.928,0.357c0.232,0.274,0.464,0.549,0.695,0.822
					c0.371-2.231,1.094-4.351,2.167-6.344c0.458-0.849-0.782-1.72-1.254-0.857c-1.225,2.233-2.023,4.559-2.431,7.074
					c-0.063,0.388,0.307,0.817,0.695,0.822c4.206,0.065,8.413-0.074,12.604-0.444c2.161-0.191,4.316-0.443,6.463-0.754
					c1.024-0.148,3.026-0.092,3.03-1.564c0.001-0.621-0.398-1.285-0.619-1.846c-0.461-1.173-0.924-2.346-1.387-3.519
					c-0.847-2.149-1.694-4.299-2.542-6.449c-1.686-4.279-3.266-8.672-5.248-12.823C45.108,60.168,44.387,60.354,44.526,60.811
					L44.526,60.811z"/>
			</g>
		</g>
		<g>
			<g>
				<path d="M44.368,60.21c-1.736,1.799-3.569,4.637-4.05,7.12c-0.114,0.587,0.763,0.842,1.064,0.379
					c0.688-1.057,1.093-2.305,1.653-3.437c0.611-1.233,1.338-2.407,1.928-3.651C45.12,60.292,44.622,59.947,44.368,60.21
					L44.368,60.21z"/>
			</g>
		</g>
		<g>
			<g>
				<path d="M41.299,66.916c-1.447-2.818-4.628-4.964-7.321-6.455c-3.133-1.737-6.553-2.898-10.043-3.665
					c-6.897-1.516-14.818-1.948-21.743-0.319C1.16,56.72,1.424,58.21,2.475,58.094c3.474-0.384,6.862-0.866,10.373-0.831
					c3.423,0.033,6.856,0.362,10.214,1.03c3.34,0.665,6.621,1.693,9.665,3.232c1.479,0.747,2.876,1.625,4.198,2.624
					c1.336,1.009,2.457,2.257,3.769,3.279C41.014,67.679,41.482,67.271,41.299,66.916L41.299,66.916z"/>
			</g>
		</g>
		<g>
			<g>
				<path d="M35.848,79.936c-1.749-2.07-4.661-2.332-7.179-2.67c-3.311-0.443-6.638-0.824-9.975-0.995
					c-3.11-0.16-6.238-0.149-9.336,0.188c-2.838,0.309-6.671,0.648-9.083,2.284c-0.642,0.436-0.037,1.28,0.578,1.234
					c1.493-0.112,2.965-0.8,4.436-1.126c1.439-0.318,2.897-0.551,4.362-0.71c2.863-0.311,5.75-0.335,8.625-0.211
					c2.783,0.122,5.561,0.367,8.332,0.644c3,0.3,6.066,0.329,8.707,1.952C35.691,80.759,36.149,80.293,35.848,79.936L35.848,79.936z
					"/>
			</g>
		</g>
	</g>
</g>
<g id="Layer_5">
	<g>
		<g>
			<g>
				<path d="M130.89,2.749c-10.995,20.876-22.453,41.509-34.896,61.563c-0.664,1.07,0.919,2.248,1.58,1.17
					c12.396-20.225,23.998-40.958,34.187-62.386C132.022,2.543,131.166,2.225,130.89,2.749L130.89,2.749z"/>
			</g>
		</g>
		<g>
			<g>
				<path d="M95.765,57.608c1.95,2.004,4.1,3.785,6.265,5.551c-0.007-0.349-0.014-0.696-0.021-1.045
					c-2.455,2.482-5.146,4.635-8.178,6.378c0.333,0.246,0.666,0.493,0.999,0.739c0.336-2.029,0.682-4.057,1.022-6.084
					c0.326-1.94,0.42-4.201,1.328-5.969c-0.367,0.105-0.734,0.21-1.103,0.314c2.155,1.438,3.958,3.186,5.466,5.29
					c0.078-0.319,0.155-0.639,0.232-0.96c-1.422,0.529-2.857,0.966-4.336,1.313c0.161,0.366,0.322,0.733,0.482,1.102
					c0.831-0.673,1.665-1.018,2.717-1.143c-0.198-0.329-0.396-0.659-0.595-0.989c-0.688,1.217-1.564,2.003-2.863,2.524
					c0.171,0.386,0.342,0.771,0.514,1.156c1.196-0.646,2.396-1.294,3.591-1.942c0.506-0.275,0.472-0.915-0.022-1.176
					c-1.271-0.669-2.397-1.495-3.441-2.479c-0.252,0.341-0.504,0.681-0.756,1.021c0.632,0.58,1.197,1.188,1.737,1.852
					c0.467,0.57,1.319,0.008,1.072-0.655c-0.508-1.367-1.32-2.444-2.474-3.334c-0.609-0.47-1.26,0.338-0.879,0.916
					c0.522,0.794,2.936,4.427,4.145,2.585c1.083-1.652-2.34-3.684-3.416-4.232c-0.463-0.236-0.936,0.251-0.884,0.7
					c0.179,1.562,0.089,3.053-0.306,4.574c0.418,0.107,0.836,0.215,1.254,0.32c0.162-0.788,1.6-7.048-0.936-5.88
					c-1.021,0.471-0.828,2.243-0.908,3.112c-0.098,1.038-0.739,3.027,0.001,3.921c0.135,0.165,0.39,0.297,0.609,0.238
					c0.945-0.25,1.315-1.274,2.235-1.705c-0.292-0.281-0.584-0.563-0.877-0.844c-0.512,1.338-1.234,2.424-2.29,3.395
					c0.303,0.291,0.606,0.583,0.91,0.873c0.648-0.682,1.363-1.093,2.241-1.39c-0.251-0.313-0.502-0.626-0.753-0.938
					c-0.477,0.539-0.953,0.931-1.46,1.421c-0.321,0.311-0.69,0.628,0.042,0.304c0.543-0.239,0.894-0.643,1.064-1.199
					c0.193-0.63-0.695-1.26-1.089-0.605c-0.277,0.461-0.555,0.923-0.832,1.384c-0.417,0.694,0.604,1.453,1.019,0.753
					c0.275-0.464,0.55-0.927,0.823-1.391c-0.361-0.201-0.725-0.403-1.088-0.606c-0.248,0.825-3.062,1.636-1.432,2.994
					c1.234,1.028,3.275-1.563,3.953-2.314c0.46-0.512-0.231-1.109-0.753-0.938c-1.056,0.346-1.875,0.856-2.646,1.654
					c-0.552,0.571,0.175,1.553,0.797,0.991c1.221-1.101,2.112-2.369,2.714-3.899c0.207-0.526-0.352-1.084-0.877-0.843
					c-0.469,0.215-0.895,0.451-1.28,0.802c-0.123,0.112-0.737,0.835-0.617,0.803c0.204,0.079,0.407,0.158,0.609,0.237
					c-0.369-0.445,0.893-4.604,0.448-4.759c-0.584-0.201-0.506,1.698-0.538,1.971c-0.094,0.775-0.23,1.54-0.388,2.304
					c-0.146,0.717,1.069,1.038,1.255,0.321c0.452-1.751,0.586-3.455,0.38-5.253c-0.295,0.234-0.59,0.468-0.885,0.702
					c0.508,0.258,0.988,0.546,1.43,0.904c0.463,0.374,0.847,1.028,1.362,1.233c0.277,0.111-0.775-0.86-0.978-1.088
					c-0.396-0.444-0.735-0.919-1.063-1.413c-0.293,0.306-0.586,0.61-0.879,0.915c0.985,0.754,1.641,1.659,2.077,2.819
					c0.356-0.219,0.715-0.437,1.071-0.654c-0.607-0.744-1.262-1.427-1.968-2.077c-0.605-0.555-1.34,0.469-0.756,1.021
					c1.127,1.063,2.356,1.92,3.724,2.643c-0.007-0.392-0.015-0.784-0.021-1.175c-1.196,0.648-2.393,1.301-3.587,1.952
					c-0.707,0.385-0.251,1.468,0.514,1.156c1.459-0.592,2.584-1.563,3.355-2.938c0.257-0.459-0.015-1.062-0.597-0.99
					c-1.257,0.154-2.33,0.612-3.313,1.407c-0.454,0.369-0.139,1.248,0.483,1.102c1.584-0.372,3.133-0.839,4.657-1.406
					c0.4-0.148,0.447-0.65,0.232-0.96c-1.536-2.199-3.406-4.096-5.576-5.672c-0.407-0.298-0.887-0.096-1.103,0.313
					c-0.902,1.715-1.018,3.864-1.342,5.748c-0.381,2.22-0.736,4.443-1.083,6.668c-0.078,0.499,0.525,1.019,1.001,0.74
					c3.162-1.857,6.033-4.1,8.54-6.779c0.247-0.264,0.118-0.726-0.138-0.922c-2.179-1.674-4.29-3.433-6.506-5.057
					C95.958,56.785,95.441,57.277,95.765,57.608L95.765,57.608z"/>
			</g>
		</g>
		<g>
			<g>
				<path d="M129.921,12.798c-1.93,1.669-4.018,3.127-6.238,4.384c0.314,0.172,0.629,0.346,0.943,0.518
					c-0.412-2.261-0.371-4.672-0.882-6.891c-0.151-0.655-1.116-0.698-1.214,0.017c-0.31,2.255,0.308,4.871,0.758,7.074
					c0.078,0.384,0.541,0.758,0.943,0.519c2.304-1.368,4.393-2.976,6.316-4.842C131,13.137,130.415,12.371,129.921,12.798
					L129.921,12.798z"/>
			</g>
		</g>
		<g>
			<g>
				<path d="M133.221,7.569c-2.341,1.75-4.622,3.552-6.841,5.456c0.46,0.18,0.921,0.359,1.381,0.539
					c-0.483-2.188-0.72-4.358-0.631-6.602c0.044-1.093-1.651-1.305-1.696-0.206c-0.099,2.384,0.084,4.738,0.638,7.062
					c0.138,0.581,0.863,1.012,1.381,0.538c2.162-1.977,4.268-4.002,6.355-6.058C134.23,7.883,133.712,7.2,133.221,7.569
					L133.221,7.569z"/>
			</g>
		</g>
		<g>
			<g>
				<path d="M134.97,2.994c-2.271,1.442-4.367,3.056-6.345,4.88c0.392,0.153,0.782,0.306,1.175,0.459
					c-0.449-2.571-0.447-5.204-0.884-7.76c-0.13-0.757-1.299-0.778-1.378,0.02c-0.255,2.589,0.328,5.425,0.823,7.956
					c0.098,0.497,0.754,0.862,1.175,0.459c1.926-1.85,3.941-3.609,6.026-5.276C136.051,3.342,135.473,2.673,134.97,2.994
					L134.97,2.994z"/>
			</g>
		</g>
	</g>
</g>
<g id="Layer_6">
	<g>
		<g>
			<g>
				<path d="M62.794,64.805c0.635,4.503,1.241,9.011,1.679,13.537c0.229-0.168,0.457-0.336,0.687-0.503
					c-4.349-1.585-8.57-3.513-12.646-5.704c0.04,0.359,0.081,0.72,0.121,1.08c1.973-1.112,3.82-2.405,5.493-3.937
					c1.593-1.459,2.963-3.7,4.914-4.653c-0.313-0.188-0.625-0.375-0.939-0.563c0.58,3.086-0.384,6.404-0.897,9.446
					c0.404,0.009,0.81,0.018,1.214,0.027c-0.141-2.262-0.25-4.526-0.368-6.79c-0.389,0.045-0.779,0.088-1.17,0.132
					c0.232,1.865,0.567,3.717,0.824,5.578c0.082,0.591,0.892,0.467,0.897-0.1c0.017-1.858-0.131-3.691-0.476-5.519
					c-0.209,0.2-0.418,0.399-0.627,0.6c0.1,0.062,0.199,0.125,0.299,0.188c0.248,0.255,0.724,0.09,0.847-0.208
					c0.384-0.933,0.298-1.729-0.269-2.56c-0.224-0.326-0.837-0.293-0.967,0.108c-0.417,1.287-0.259,2.444,0.571,3.53
					c0.225,0.294,0.663,0.297,0.897,0.015c0.928-1.121,0.77-2.524-0.268-3.502c-0.289-0.272-0.725-0.084-0.885,0.217
					c-0.682,1.277-0.534,2.635-0.406,4.032c0.18,1.977,0.471,3.937,0.843,5.886c0.143,0.746,1.309,0.633,1.188-0.134
					c-0.066-0.425-0.135-0.85-0.206-1.273c-0.123-0.746-1.287-0.623-1.174,0.133c0.061,0.424,0.125,0.849,0.192,1.274
					c0.396-0.045,0.792-0.09,1.188-0.134c-0.296-1.538-0.546-3.082-0.724-4.638c-0.172-1.504-0.556-3.276,0.152-4.68
					c-0.295,0.072-0.59,0.145-0.886,0.217c0.612,0.653,0.646,1.285,0.101,1.894c0.3,0.006,0.598,0.011,0.897,0.015
					c-0.567-0.738-0.748-1.47-0.45-2.395c-0.323,0.036-0.645,0.072-0.967,0.108c0.055,0.48,0.11,0.96,0.166,1.44
					c0.282-0.069,0.563-0.139,0.847-0.208c-0.302-0.299-0.398-0.328-0.815-0.403c-0.323-0.059-0.701,0.252-0.627,0.6
					c0.386,1.819,0.615,3.637,0.662,5.496c0.299-0.033,0.598-0.066,0.897-0.1c-0.202-1.868-0.324-3.744-0.552-5.61
					c-0.092-0.757-1.207-0.62-1.17,0.132c0.112,2.264,0.231,4.528,0.32,6.795c0.027,0.708,1.094,0.687,1.214,0.027
					c0.586-3.222,1.44-6.501,1.055-9.791c-0.051-0.433-0.524-0.741-0.939-0.562c-2.033,0.881-3.268,2.931-4.832,4.416
					c-1.774,1.684-3.736,3.156-5.815,4.442c-0.428,0.264-0.265,0.884,0.121,1.079c4.136,2.104,8.387,3.896,12.758,5.45
					c0.345,0.123,0.727-0.112,0.687-0.503c-0.474-4.529-1.083-9.035-1.967-13.504C63.397,64.298,62.731,64.358,62.794,64.805
					L62.794,64.805z"/>
			</g>
		</g>
		<g>
			<g>
				<path d="M61.591,74.727c0.014-1.344,0.019-2.688-0.011-4.033c-0.368,0.041-0.736,0.083-1.104,0.124
					c0.184,0.87,0.667,4.842,2.281,3.902c0.765-0.445,0.685-2.002,0.748-2.701c0.125-1.415,0.132-2.832,0.064-4.25
					c-0.386,0.043-0.772,0.087-1.158,0.13c0.368,2.047-0.103,4.119,0.396,6.154c0.152,0.617,0.952,0.668,1.121,0.025
					c0.527-2.01,0.367-3.927-0.557-5.793c-0.25-0.505-1.042-0.484-1.137,0.127c-0.339,2.168,0.579,4.268,0.208,6.421
					c0.359-0.089,0.719-0.178,1.078-0.267c-0.827-1.361-1.644-2.729-2.459-4.097c-0.409-0.685-1.368,0.06-0.986,0.735
					c1.008,1.788,2.019,3.574,3.033,5.36c0.344-0.256,0.687-0.513,1.031-0.769c-0.875-0.907-1.749-1.815-2.625-2.722
					c-0.579-0.599-1.487,0.049-1.046,0.78c0.865,1.437,1.864,2.744,3.022,3.954c0.429,0.447,1.259,0.239,1.188-0.469
					c-0.121-1.21-0.246-2.419-0.371-3.628c-0.424,0.106-0.847,0.214-1.271,0.319c0.487,1.271,0.816,2.551,0.982,3.902
					c0.349-0.191,0.696-0.384,1.042-0.575c-1.031-0.777-2.062-1.555-3.094-2.332c-0.566-0.428-1.441,0.323-0.931,0.901
					c0.37,0.418,0.739,0.835,1.109,1.254c0.312-0.303,0.624-0.604,0.936-0.907c-1.848-1.241-3.793-2.253-5.883-3.026
					c-0.809-0.3-1.328,0.849-0.544,1.229c1.44,0.699,2.925,1.177,4.5,1.462c0.712,0.129,0.991-0.761,0.528-1.199
					c-1.185-1.123-2.431-2.152-3.758-3.104c-0.177,0.402-0.355,0.806-0.532,1.208c1.172,0.152,2.343,0.307,3.514,0.46
					c0.644,0.084,1.122-0.803,0.536-1.213c-0.594-0.417-2.24-1.263-2.161-1.775c0.082-0.532,2.706-1.372,3.261-1.578
					c-0.222-0.397-0.444-0.795-0.667-1.192c-1.292,0.901-2.583,1.801-3.875,2.7c-0.729,0.508,0.093,1.607,0.825,1.105
					c2.126-1.455,3.721-3.403,4.737-5.771c0.309-0.722-0.673-1.325-1.173-0.712c-1.381,1.689-2.797,3.345-4.251,4.972
					c-0.525,0.587,0.341,1.476,0.957,0.989c1.332-1.053,3.86-2.801,3.404-4.772c-0.119-0.513-0.638-0.802-1.107-0.48
					c-2.02,1.385-2.885,3.771-4.776,5.272c0.32,0.332,0.641,0.662,0.961,0.994c1.524-1.517,3.048-3.033,4.573-4.549
					c0.557-0.555-0.372-1.522-0.963-0.996c-1.019,0.907-1.982,1.867-2.848,2.922c-0.633,0.772-1.726,1.861-1.927,2.879
					c-0.435,2.193,3.791,1.53,4.868,1.395c0.667-0.084,0.845-1.047,0.203-1.317c-1.731-0.732-3.484-1.021-5.359-0.896
					c-0.585,0.039-0.852,0.896-0.358,1.239c1.205,0.838,2.405,1.68,3.584,2.553c0.184-0.416,0.367-0.832,0.551-1.248
					c-0.771-0.079-1.505-0.228-2.219-0.549c-0.399-0.177-0.775-0.394-1.128-0.653c-0.667,0.438-0.616,0.495,0.15,0.17
					c1.623-0.238,3.349-1.072,4.914-1.573c0.758-0.242,0.447-1.543-0.345-1.374c-1.762,0.374-3.416,0.948-5.014,1.782
					c-0.569,0.298-0.621,1.304,0.154,1.377c1.295,0.121,6.399-0.56,4.638-3c-1.507-2.086-5.864,1.31-7.148,2.271
					c-0.436,0.326-0.362,1.028,0.14,1.248c1.032,0.452,1.972,0.616,3.096,0.578c0.785-0.026,0.791-1.078,0.214-1.392
					c-1.121-0.607-2.21-1.122-3.485-1.279c-0.725-0.091-1.139,0.819-0.572,1.295c0.966,0.81,1.974,1.509,3.054,2.153
					c0.198-0.448,0.396-0.896,0.596-1.344c-0.857-0.487-1.713-0.976-2.571-1.463c-0.829-0.472-1.408,0.877-0.598,1.349
					c0.152,0.088,0.304,0.177,0.458,0.266c0.82,0.477,1.411-0.877,0.597-1.35c-0.152-0.088-0.305-0.177-0.457-0.265
					c-0.199,0.448-0.398,0.898-0.598,1.349c0.857,0.486,1.715,0.972,2.573,1.458c0.83,0.471,1.394-0.869,0.596-1.344
					c-0.972-0.577-1.87-1.23-2.737-1.953c-0.189,0.431-0.38,0.863-0.57,1.295c1.149,0.141,2.116,0.622,3.123,1.166
					c0.071-0.463,0.142-0.927,0.214-1.391c-0.862,0.03-1.566-0.119-2.345-0.458c0.046,0.416,0.094,0.831,0.14,1.248
					c1.113-0.836,2.272-1.564,3.544-2.137c0.262-0.122,0.528-0.235,0.797-0.341c0.643,0.014,0.697,0.099,0.161,0.256
					c-0.554,0.529-1.953,0.429-2.636,0.365c0.052,0.459,0.103,0.917,0.154,1.376c1.481-0.776,3.002-1.346,4.641-1.696
					c-0.116-0.458-0.23-0.915-0.345-1.373c-1.637,0.526-3.282,1.03-4.913,1.579c-0.594,0.199-1.35,0.369-1.335,1.146
					c0.035,1.709,3.604,2.477,4.841,2.601c0.663,0.067,1.15-0.807,0.55-1.248c-1.181-0.87-2.384-1.708-3.592-2.542
					c-0.12,0.414-0.239,0.828-0.358,1.24c1.653-0.114,3.116,0.132,4.645,0.772c0.067-0.44,0.135-0.879,0.202-1.319
					c-0.899,0.116-2.903,0.529-3.598-0.15c0.084,0.218,0.169,0.437,0.254,0.653c0.026-0.874,1.3-2.113,1.83-2.744
					c0.742-0.883,1.55-1.693,2.412-2.461c-0.321-0.332-0.642-0.663-0.963-0.995c-1.524,1.517-3.047,3.033-4.571,4.55
					c-0.563,0.561,0.35,1.479,0.962,0.993c1.889-1.501,2.781-3.905,4.774-5.273c-0.37-0.161-0.738-0.32-1.106-0.48
					c0.294,1.272-2.067,2.883-2.852,3.504c0.318,0.33,0.638,0.659,0.957,0.989c1.454-1.626,2.868-3.284,4.247-4.974
					c-0.39-0.237-0.782-0.475-1.172-0.712c-0.929,2.167-2.353,3.894-4.297,5.226c0.274,0.368,0.55,0.737,0.825,1.105
					c1.291-0.9,2.583-1.8,3.875-2.701c0.652-0.454,0.054-1.459-0.667-1.191c-1.179,0.438-3.887,1.254-4.328,2.628
					c-0.464,1.451,2.009,2.466,2.884,3.076c0.178-0.404,0.356-0.809,0.535-1.213c-1.173-0.152-2.344-0.303-3.517-0.454
					c-0.643-0.084-1.111,0.794-0.532,1.207c1.328,0.949,2.577,1.976,3.763,3.097c0.176-0.399,0.353-0.8,0.528-1.2
					c-1.471-0.263-2.822-0.706-4.167-1.351c-0.182,0.409-0.364,0.819-0.544,1.229c1.986,0.726,3.846,1.653,5.607,2.825
					c0.575,0.381,1.471-0.309,0.937-0.906c-0.372-0.417-0.743-0.833-1.114-1.249c-0.31,0.3-0.62,0.601-0.932,0.9
					c1.035,0.773,2.07,1.546,3.105,2.318c0.438,0.327,1.111-0.007,1.042-0.576c-0.177-1.474-0.509-2.861-1.037-4.249
					c-0.267-0.702-1.343-0.419-1.27,0.319c0.122,1.21,0.245,2.419,0.372,3.627c0.396-0.156,0.791-0.313,1.187-0.469
					c-1.164-1.206-2.167-2.511-3.036-3.943c-0.31,0.301-0.62,0.601-0.93,0.9c0.878,0.903,1.759,1.806,2.639,2.708
					c0.553,0.566,1.245-0.314,0.916-0.887c-1.024-1.777-2.049-3.553-3.078-5.327c-0.329,0.246-0.658,0.49-0.986,0.735
					c0.831,1.357,1.66,2.718,2.479,4.082c0.28,0.466,0.996,0.206,1.079-0.266c0.386-2.17-0.526-4.262-0.225-6.423
					c-0.38,0.043-0.759,0.085-1.138,0.128c0.855,1.672,1.056,3.36,0.541,5.174c0.373,0.009,0.747,0.018,1.121,0.025
					c-0.45-2.034,0.044-4.112-0.362-6.157c-0.145-0.729-1.209-0.628-1.158,0.13c0.092,1.416,0.106,2.825-0.01,4.242
					c-0.021,0.293-0.049,0.584-0.083,0.876c-0.044,0.342-0.094,0.336-0.15-0.017c-0.4-0.577-0.447-1.634-0.588-2.307
					c-0.145-0.691-1.153-0.601-1.104,0.124c0.091,1.335,0.183,2.67,0.252,4.006C60.759,75.393,61.585,75.271,61.591,74.727
					L61.591,74.727z"/>
			</g>
		</g>
		<g>
			<g>
				<path d="M55.778,72.482c0.156-0.211,0.171-0.389,0.247-0.627c0.134-0.421,0.387-0.53,0.798-0.751
					c0.664-0.352,1.393-0.892,2.12-1.087c-0.175-0.003-0.35-0.007-0.524-0.01c-0.063-0.051-0.125-0.1-0.186-0.149
					c0.148,0.214,0.452,0.286,0.688,0.194c0.012-0.005,0.025-0.011,0.038-0.014c0.204-0.08,0.362-0.275,0.393-0.493
					c0.002-0.017,0.005-0.033,0.006-0.05c0.043-0.31-0.121-0.584-0.393-0.723c-0.422-0.215-0.75-0.005-1.116,0.206
					c-0.56,0.321-1.115,0.649-1.662,0.988c-0.399,0.249-0.925,0.486-1.094,0.96c-0.163,0.46,0.281,0.8,0.14,1.224
					C55.124,72.476,55.544,72.795,55.778,72.482L55.778,72.482z"/>
			</g>
		</g>
		<g>
			<g>
				<path d="M58.216,68.948c-0.486-1.756-1.555-3.502-2.492-5.06c-0.868-1.444-1.895-3.061-3.378-3.924
					c-0.516-0.301-1.001,0.434-0.688,0.861c1.022,1.393,2.327,2.52,3.295,3.979c0.956,1.441,1.599,3.119,2.633,4.495
					C57.849,69.648,58.322,69.328,58.216,68.948L58.216,68.948z"/>
			</g>
		</g>
	</g>
</g>
</svg>
