<?xml version="1.0" encoding="utf-8"?>
<!-- Generator: Adobe Illustrator 15.0.0, SVG Export Plug-In . SVG Version: 6.00 Build 0)  -->
<!DOCTYPE svg PUBLIC "-//W3C//DTD SVG 1.1//EN" "http://www.w3.org/Graphics/SVG/1.1/DTD/svg11.dtd">
<svg version="1.1" id="Layer_1" xmlns="http://www.w3.org/2000/svg" xmlns:xlink="http://www.w3.org/1999/xlink" x="0px" y="0px"
	 width="4000px" height="4000px" viewBox="0 0 4000 4000" enable-background="new 0 0 4000 4000" xml:space="preserve">
<g>
	<g>
		<g>
			<g>
				<g>
					<g>
						<path fill="#E81818" d="M1594.85,2170.409c261.843-36.295,498.541,325.371,552.2,413.759
							c7.449,12.288,20.021,20.543,34.255,22.441c94.65,12.383,161.595,10.675,211.6,0.236c0.048,0.048,0.048,0,0.096,0
							c117.044-24.338,141.288-96.358,211.173-146.886c47.349-34.302,103.949-36.816,161.215-35.868
							c0.047,0.048,0.047,0.048,0.095,0c66.185,1.139,133.317,6.927,188.115-26.331c8.065-4.887,15.087-10.105,21.35-15.609
							c51.477-45.356,50.338-110.544,117.898-160.598c34.729-25.763,79.469-33.543,124.256-31.882
							c68.13,2.372,136.354,26.521,169.375,41.94c6.975,3.226,14.755-2.895,13.236-10.438l-33.779-173.55l-452.568-210.129
							l-1186.052-100.06L1594.85,2170.409z"/>
					</g>
				</g>
			</g>
		</g>
		<g opacity="0.2">
			<g>
				<g>
					<g>
						<path fill="#371A45" d="M1594.85,2170.409c261.843-36.295,498.541,325.371,552.2,413.759
							c7.449,12.288,20.021,20.543,34.255,22.441c94.65,12.383,161.595,10.675,211.6,0.236c0.048,0.048,0.048,0,0.096,0
							c117.044-24.338,141.288-96.358,211.173-146.886c47.349-34.302,103.949-36.816,161.215-35.868
							c0.047,0.048,0.047,0.048,0.095,0c66.185,1.139,133.317,6.927,188.115-26.331c8.065-4.887,15.087-10.105,21.35-15.609
							c51.477-45.356,50.338-110.544,117.898-160.598c34.729-25.763,79.469-33.543,124.256-31.882
							c68.13,2.372,136.354,26.521,169.375,41.94c6.975,3.226,14.755-2.895,13.236-10.438l-33.779-173.55l-452.568-210.129
							l-1186.052-100.06L1594.85,2170.409z"/>
					</g>
				</g>
			</g>
		</g>
		<g opacity="0.35">
			<g>
				<g>
					<g>
						<path fill="#371A45" d="M2461.509,2510.093c-0.712,49.01-34.966,74.819-68.509,88.293
							c117.044-24.339,141.288-96.358,211.173-146.886c47.349-34.303,103.949-36.816,161.215-35.868
							c-94.983-19.167-221.517-58.071-317.638-136.212c-171.558-139.484-377.512-139.627-378.365-139.627
							C2350.253,2211.148,2462.979,2413.639,2461.509,2510.093z"/>
					</g>
				</g>
			</g>
		</g>
		<g opacity="0.35">
			<g>
				<g>
					<g>
						<path fill="#371A45" d="M2261.723,1927.828c-5.124,47.302,328.881-50.623,708.195,354.977
							c24.055,25.714,19.927,62.721,5.029,99.347c51.477-45.356,50.338-110.544,117.898-160.598
							c34.729-25.763,79.469-33.543,124.256-31.882c-68.414-34.871-143.281-73.634-212.359-110.734
							C2672.919,1900.596,2264.996,1897.701,2261.723,1927.828z"/>
					</g>
				</g>
			</g>
		</g>
		<g>
			<g>
				<g>
					<g>
						<path fill="#371A45" d="M2300.076,2632.128c-34.775,0.001-74.696-2.71-120.962-8.757
							c-19.394-2.535-36.362-13.623-46.555-30.423c-26.345-43.421-98.123-154.736-195.403-250.357
							c-119.835-117.793-234.226-170.08-339.993-155.413l-26.271,3.644l144.234-471.405l1202.642,101.486l463.113,214.996
							l35.471,182.016c1.912,9.813-1.799,19.735-9.684,25.895c-7.855,6.137-18.338,7.334-27.355,3.121
							c-29.287-13.678-78.706-30.716-129.576-37.516c-43.333-5.793-103.977-6.031-146.794,25.725
							c-33.927,25.16-48.671,53.988-64.28,84.509c-16.894,33.033-34.362,67.19-76.275,92.606
							c-53.201,32.26-115.672,30.724-176.084,29.24c-63.555-1.56-123.586-3.035-172.218,32.156
							c-21.338,15.439-38.087,32.912-55.819,51.408C2507.65,2577.855,2455.599,2632.121,2300.076,2632.128z M1631.825,2150.947
							c51.844,0,105.434,13.807,159.849,41.246c55.55,28.012,112.482,70.489,169.214,126.254
							c100.002,98.299,173.61,212.432,200.614,256.94c4.833,7.966,12.852,13.22,22,14.415
							c236.199,30.871,291.635-26.952,350.325-88.172c17.992-18.768,36.598-38.175,60.411-55.408
							c57.888-41.889,126.522-40.201,192.896-38.572c58.099,1.43,112.975,2.775,157.699-24.344
							c33.7-20.436,47.597-47.609,63.689-79.074c15.918-31.125,33.96-66.404,74.253-96.287
							c41.698-30.923,99.382-41.717,171.446-32.087c47.614,6.364,94.118,21.11,126.176,34.55l-29.441-151.078l-442.008-205.197
							l-1169.443-98.685l-121.104,395.81C1622.861,2151.051,1627.338,2150.947,1631.825,2150.947z"/>
					</g>
				</g>
			</g>
		</g>
		<g>
			<g>
				<g>
					<g>
						<path fill="#E81818" d="M1570.689,1671.243c254.766,138.162,1115.285-120.755,1752.424,277.411
							c58.839,36.77,116.943,143.807,119.225,272.604c0.359,20.301-23.398,31.643-38.956,18.598
							c-88.496-74.193-326.79-256.22-613.747-330.077c-364.625-93.847-1150.104-89.492-1191.548-173.263
							C1581.043,1702.066,1570.689,1671.243,1570.689,1671.243z"/>
					</g>
				</g>
			</g>
		</g>
		<g opacity="0.5">
			<g>
				<g>
					<g>
						<path fill="#FFFFFF" d="M1570.701,1666.251c0,0,10.343,30.839,27.375,65.283c0.996,1.993,2.42,3.985,4.27,5.883
							c302.597,91.093,1102.361-117.993,1703.38,257.574c54.561,34.112,108.457,128.667,117.804,244.906
							c10.343-2.277,19.024-11.292,18.788-23.627c-2.277-128.811-60.35-235.844-119.228-272.613
							C2685.967,1545.506,1825.475,1804.408,1570.701,1666.251z"/>
					</g>
				</g>
			</g>
		</g>
		<g>
			<g>
				<g>
					<g>
						<path fill="#371A45" d="M3418.472,2262.383c-9.294,0-18.44-3.247-25.965-9.556c-88.184-73.932-323.865-253.76-607.092-326.656
							c-169.841-43.713-434.835-66.212-668.634-86.062c-132.894-11.282-258.416-21.939-352.816-35.302
							c-50.963-7.213-89.429-14.714-117.595-22.931c-36.149-10.544-55.719-22.22-63.455-37.855
							c-17.353-35.075-27.833-66.086-28.271-67.389l-13.697-40.775l37.812,20.506c41.146,22.313,102.192,35.22,192.116,40.617
							c83.056,4.985,184.178,3.036,291.238,0.972c188.347-3.63,401.824-7.745,621.76,20.458
							c256.311,32.867,468.343,103.485,648.211,215.89c33.041,20.648,64.005,59.353,87.187,108.983
							c25.054,53.637,38.883,115.076,39.991,177.677c0.286,16.105-8.581,30.428-23.141,37.377
							C3430.438,2261.05,3424.423,2262.383,3418.472,2262.383z M1601.232,1702.927c3.483,8.089,7.519,16.971,12.027,26.083
							c0.47,0.95,5.659,9.595,42.591,20.368c26.598,7.759,63.515,14.925,112.86,21.91c93.463,13.229,218.527,23.848,350.935,35.089
							c235.125,19.962,501.62,42.588,674.209,87.009c289.934,74.623,530.452,258.085,620.403,333.499
							c2.894,2.426,5.803,1.605,7.279,0.9s3.944-2.451,3.878-6.227c-1.026-57.889-13.757-114.582-36.816-163.949
							c-20.152-43.145-47.29-77.625-74.455-94.601c-396.348-247.689-890.536-238.162-1251.378-231.208
							C1865.17,1735.609,1704.137,1738.713,1601.232,1702.927z"/>
					</g>
				</g>
			</g>
		</g>
		<g>
			<g>
				<g>
					<g>
						<path fill="#FFFFFF" d="M1366.219,1716.191l-19.832,86.206l-36.295,157.609l-1.992,8.682l-47.824,207.615l-80.133,348.144
							c0,0-56.743,34.255-125.536,49.722c-86.917,19.547-193.05,9.156-228.301-138.063
							c-40.564-169.327,121.883-418.551,235.939-567.334c9.679-12.62,19.025-24.529,27.897-35.583
							c28.135-35.298,51.192-62.104,64.145-76.812c7.306-8.303,11.387-12.762,11.387-12.762L1366.219,1716.191z"/>
					</g>
				</g>
			</g>
		</g>
		<g opacity="0.25">
			<g>
				<g>
					<g>
						<path fill="#371A45" d="M826.315,2436.121c63.168,263.722,353.843,88.318,353.843,88.318l-15.847-111.719
							c0,0-264.354,159.556-343.644-54.404C818.804,2385.568,820.448,2411.684,826.315,2436.121z"/>
					</g>
				</g>
			</g>
		</g>
		<g>
			<g>
				<g>
					<g>
						<path fill="#371A45" d="M992.483,2598.521c-27.615,0-52.787-4.69-75.041-14.002c-53.816-22.52-90.014-71.127-107.587-144.475
							c-14.759-61.599-5.393-137.584,27.837-225.846c26.05-69.189,66.834-146.366,121.218-229.387
							c92.184-140.724,193.313-251.543,194.324-252.646l4.129-4.505l230.875-31.606l-193.179,839.162l-6.14,3.705
							c-1.582,0.955-39.322,23.57-91.103,40.727c-30.701,10.171-60.021,16.301-87.145,18.219
							C1004.5,2598.303,998.433,2598.521,992.483,2598.521z M1174.146,1759.533c-19.599,21.934-106.846,121.532-187.157,244.197
							c-52.958,80.887-92.553,155.778-117.688,222.596c-30.743,81.726-39.667,150.977-26.524,205.832
							c14.909,62.224,44.402,102.969,87.661,121.1c19.453,8.154,40.571,11.431,61.943,11.431
							c74.003,0.001,151.094-39.273,172.965-51.304l178.901-777.138L1174.146,1759.533z"/>
					</g>
				</g>
			</g>
		</g>
		<g>
			<g>
				<g>
					<g>
						<path fill="#FFFFFF" d="M1606.617,2475.484c-33.401,193.429-53.185,346.531-66.421,468.13
							c-34.397,315.597-24.861,418.456-95.647,461.202c-44.977,27.186-121.172,50.766-229.012,50.671
							c-150.729-0.048-273.752-7.022-272.471-115.479c0.997-86.11,149.448-124.872,149.448-124.872
							c-23.105-154.146-25.904-374.522-24.434-526.724c0.996-102.146,3.891-173.597,3.891-173.597L1606.617,2475.484z"/>
					</g>
				</g>
			</g>
		</g>
		<g opacity="0.25">
			<g>
				<g>
					<g>
						<path fill="#371A45" d="M1606.617,2475.484c-15.657,90.666-28.324,172.459-38.714,246.329
							c-0.712,4.935-1.376,9.821-2.041,14.66c-0.712,4.887-1.376,9.679-1.993,14.471c-0.427,3.179-0.901,6.357-1.281,9.488
							c-0.427,3.036-0.854,6.025-1.233,9.015c-0.949,6.927-1.85,13.807-2.751,20.591c-2.136,16.511-4.175,32.594-6.12,48.203
							c-0.901,7.116-1.756,14.091-2.562,20.97c-0.095,0.712-0.19,1.471-0.285,2.183c-1.85,15.135-3.559,29.795-5.171,44.075
							c-0.569,5.029-1.139,10.011-1.708,14.992c-0.665,5.741-1.281,11.435-1.898,17.033c-0.237,2.04-0.427,4.08-0.664,6.12
							c-34.397,315.597-24.861,418.456-95.647,461.202c-44.977,27.186-121.172,50.766-229.012,50.671
							c-138.963-0.048-254.347-5.931-270.525-91.853c49.864,23.533,128.383,25.857,216.345,25.905
							c107.792,0.095,184.034-23.485,229.011-50.671c41.832-25.267,55.6-71.563,66.969-170.401
							c13.381-116.327-53.208-228.017-162.824-269.195c-116.061-43.6-191.272-116.81-226.432-210.86
							c0.996-102.146,3.891-173.597,3.891-173.597l468.557-34.444L1606.617,2475.484z"/>
					</g>
				</g>
			</g>
		</g>
		<g>
			<g>
				<g>
					<g>
						<path fill="#371A45" d="M1215.96,3472.428c-0.143,0-0.271,0-0.414,0c-113.829-0.063-211.944-4.055-259.775-52.483
							c-20.058-20.308-30.03-47.272-29.639-80.146c0.967-81.35,107.716-123.719,147.555-136.705
							c-18.328-132.594-22.574-308.397-22.846-434.657c-0.306-141.603,4.178-253.179,4.224-254.288
							c0.381-9.341,8.261-16.596,17.603-16.223c9.341,0.381,16.604,8.263,16.223,17.603c-0.18,4.412-17.562,444.103,20.368,697.074
							l2.255,15.043l-14.717,3.845c-0.345,0.09-36.019,9.578-71.005,28.901c-29.784,16.449-65.378,43.648-65.808,79.81
							c-0.283,23.824,6.218,42.127,19.875,55.954c38.594,39.077,133.517,42.362,235.707,42.419c0.126,0,0.274,0,0.4,0
							c121.773,0.003,189.994-30.221,219.848-48.251c22.913-13.837,36.175-35.786,45.776-75.757
							c10.257-42.702,16.039-105.605,24.043-192.666c12.599-137.046,31.638-344.151,84.313-649.3
							c1.59-9.212,10.347-15.393,19.559-13.801c9.212,1.59,15.391,10.348,13.801,19.56
							c-52.446,303.826-71.411,510.127-83.961,646.641c-8.133,88.473-14.01,152.396-24.837,197.473
							c-11.791,49.089-30.091,78.047-61.191,96.83C1420.448,3439.151,1345.919,3472.425,1215.96,3472.428z"/>
					</g>
				</g>
			</g>
		</g>
		<g opacity="0.35">
			<g>
				<g>
					<g>
						<path fill="#371A45" d="M1538.342,2874.313c0.807-15.704,1.803-31.931,3.036-48.726
							C1540.192,2842.383,1539.148,2858.609,1538.342,2874.313z"/>
					</g>
				</g>
			</g>
		</g>
		<g opacity="0.35">
			<g>
				<g>
					<g>
						<path fill="#371A45" d="M1542.422,2811.924c0.711-9.156,1.471-18.503,2.325-27.992
							C1543.94,2793.421,1543.133,2802.768,1542.422,2811.924z"/>
					</g>
				</g>
			</g>
		</g>
		<g opacity="0.35">
			<g>
				<g>
					<g>
						<path fill="#371A45" d="M1549.017,2740.047c0.901-8.729,1.897-17.649,2.941-26.664
							C1550.914,2722.397,1549.965,2731.317,1549.017,2740.047z"/>
					</g>
				</g>
			</g>
		</g>
		<g opacity="0.35">
			<g>
				<g>
					<g>
						<path fill="#371A45" d="M1552.433,2709.208c1.186-10.248,2.467-20.591,3.795-31.171
							C1554.899,2688.617,1553.619,2699.008,1552.433,2709.208z"/>
					</g>
				</g>
			</g>
		</g>
		<g opacity="0.25">
			<g>
				<g>
					<g>
						<path fill="#371A45" d="M1544.465,2905.469c1.613-14.28,3.321-28.94,5.171-44.075
							C1547.833,2876.528,1546.078,2891.188,1544.465,2905.469z"/>
					</g>
				</g>
			</g>
		</g>
		<g>
			<g>
				<g>
					<g>
						<path fill="#FFFFFF" d="M2085.753,2480.371c0,0.189,0,0.332-0.047,0.521c-0.285,4.697-0.616,9.347-1.044,13.901
							c-8.967,100.818-43.648,173.503-98.399,232.665c-31.218,33.923-69.079,63.48-112.394,91.282
							c-95.553,61.44-214.4,61.488-335.524,55.558c-284.237-10.723-444.123-126.154-483.738-300.131
							c-6.927-30.507-10.201-62.863-9.773-96.738c0.284-24.955,2.609-50.766,6.927-77.286c2.941-18.219,5.835-36.295,8.682-54.229
							c15.324-96.881,29.32-190.251,44.17-287.131c8.683-56.838,17.696-114.862,27.518-175.495c0.665-4.271,1.376-8.493,2.04-12.763
							c4.934-30.412,9.916-60.775,15.419-90.096c1.518-8.113,3.084-16.131,4.697-24.054c7.686-38.145,16.415-73.87,27.138-104.756
							l1.233-1.661l55.415-75.958c180.667-105.041,686.941-42.415,692.444,37.956c3.559,52.283,12.905,103.712,24.623,154.667
							c2.183,9.299,4.413,18.598,6.737,27.85c0.569,2.515,1.233,5.029,1.851,7.544c5.077,18.646,10.485,38.382,16.226,58.973
							c0.047,0.237,0.143,0.474,0.19,0.711c20.686,74.772,44.645,160.598,64.856,246.898
							c18.835,80.323,34.491,161.025,41.323,233.473c0.143,1.139,0.238,2.277,0.332,3.368
							C2091.209,2395.352,2091.494,2441.277,2085.753,2480.371z"/>
					</g>
				</g>
			</g>
		</g>
		<g opacity="0.25">
			<g>
				<g>
					<g>
						<path fill="#371A45" d="M1051.317,2558.047c33.258,182.943,194.046,305.207,487.012,316.262
							c121.125,5.931,239.972,5.883,335.524-55.557c43.316-27.803,81.177-57.36,112.395-91.282
							c57.313-61.962,92.658-138.727,99.49-247.089c5.076-34.444,5.455-74.154,2.324-117.233
							c-0.617,6.974-1.471,13.758-2.467,20.354c-7.069,108.362,4.366,187.736-54.797,249.698
							c-32.214,33.922-119.228,60.869-163.968,88.672c-98.636,61.44-221.326,61.487-346.341,55.557
							C1275.205,2768.461,1119.684,2686.336,1051.317,2558.047z"/>
					</g>
				</g>
			</g>
		</g>
		<g>
			<g>
				<g>
					<g>
						<path fill="#371A45" d="M1176.85,1648.327c7.848-14.107,16.152-27.88,24.556-41.582c4.222-6.835,8.472-13.652,12.773-20.43
							c4.298-6.78,8.627-13.538,13.002-20.263l1.162-1.785l2.956-1.926c14.977-9.754,30.936-17.508,47.2-23.976
							c16.282-6.465,32.918-11.629,49.684-15.888c33.54-8.542,67.534-13.862,101.557-17.239
							c34.034-3.365,68.131-4.678,102.156-4.575c34.029,0.109,67.994,1.615,101.867,4.228c33.872,2.641,67.657,6.377,101.332,11.422
							c33.671,5.099,67.221,11.532,100.515,20.604c16.644,4.595,33.223,9.812,49.684,16.563c8.229,3.387,16.431,7.17,24.581,11.757
							c4.075,2.302,8.137,4.815,12.17,7.709c4.029,2.902,8.044,6.174,11.923,10.204c0.971,0.975,1.923,2.117,2.869,3.188
							c0.932,1.191,1.869,2.287,2.754,3.609c1.794,2.495,3.461,5.411,4.835,8.648c1.386,3.218,2.421,6.914,2.827,10.801l0.149,1.443
							l0.059,0.766l0.117,1.532l0.234,3.064l0.468,6.128l0.565,6.124l0.572,6.124l0.666,6.12c1.783,16.32,4.089,32.618,6.813,48.882
							c5.448,32.528,12.561,64.923,20.493,97.228c1.001,3.988,1.951,7.968,2.992,11.963l3.275,12.009l6.638,24.18l13.419,48.496
							c17.902,64.711,35.627,129.636,51.523,195.156c7.95,32.76,15.461,65.666,22.271,98.773
							c6.804,33.108,12.916,66.418,17.907,100.002c5.009,33.575,8.81,67.455,10.563,101.695c0.981,17.102,1.135,34.34,0.783,51.628
							l-0.524,12.996l-0.133,3.249l-0.247,3.26l-0.514,6.52c-0.522,8.683-1.802,17.409-2.839,26.118l0.146-1.397
							c-1.372,21.664-3.947,43.351-8.051,64.854c-4.099,21.498-9.737,42.812-17.127,63.594c-7.43,20.768-16.77,40.917-27.729,60.13
							c-5.61,9.526-11.428,18.947-17.853,27.934c-3.109,4.569-6.478,8.938-9.79,13.352l-1.244,1.652l-1.293,1.611l-2.59,3.222
							c-1.744,2.131-3.416,4.329-5.223,6.403c-3.593,4.165-7.114,8.402-10.869,12.409c-1.86,2.02-3.684,4.078-5.577,6.063
							l-5.721,5.91c-0.958,0.979-1.897,1.98-2.873,2.941l-2.937,2.867l-5.878,5.732l-6.016,5.563l-3.009,2.78
							c-1.007,0.921-2.043,1.805-3.063,2.709c-16.338,14.449-33.417,27.907-51.044,40.375c-4.42,3.094-8.81,6.243-13.289,9.227
							l-6.69,4.529l-6.748,4.416l-3.375,2.206l-1.69,1.103l-1.775,1.1l-7.105,4.393c-2.392,1.424-4.825,2.775-7.237,4.164
							c-1.213,0.681-2.407,1.398-3.636,2.048l-3.69,1.945l-3.691,1.943l-1.846,0.97l-1.875,0.91l-7.499,3.633
							c-5.064,2.265-10.102,4.609-15.257,6.636c-5.108,2.158-10.314,4.023-15.497,5.959c-5.231,1.769-10.443,3.617-15.729,5.173
							c-5.256,1.682-10.574,3.079-15.875,4.558c-5.329,1.323-10.648,2.714-16.006,3.851c-5.343,1.248-10.718,2.239-16.082,3.311
							c-5.378,0.933-10.752,1.928-16.142,2.701c-5.384,0.871-10.777,1.523-16.168,2.247c-5.393,0.599-10.787,1.268-16.18,1.735
							c-10.787,1.058-21.569,1.782-32.334,2.313c-43.05,2.108-85.879,0.772-128.088-1.231c-10.551-0.508-21.236-0.897-31.938-1.635
							c-5.35-0.295-10.697-0.729-16.044-1.15l-8.02-0.643l-8.015-0.764c-21.371-2.051-42.708-4.812-63.946-8.418
							c-42.453-7.232-84.611-17.729-125.317-33.122c-2.54-0.971-5.093-1.899-7.622-2.905l-7.567-3.07l-3.783-1.537l-3.75-1.628
							l-7.497-3.264c-9.927-4.523-19.794-9.216-29.434-14.403c-9.696-5.068-19.143-10.654-28.47-16.436
							c-4.611-2.986-9.266-5.897-13.765-9.066c-2.255-1.576-4.561-3.07-6.771-4.715l-6.667-4.873
							c-8.781-6.65-17.436-13.504-25.637-20.917l-3.103-2.745l-3.025-2.836c-2.006-1.902-4.054-3.76-6.023-5.702l-5.871-5.868
							c-0.988-0.969-1.949-1.964-2.888-2.982l-2.843-3.028c-3.844-3.987-7.423-8.226-11.093-12.376
							c-3.514-4.289-7.11-8.511-10.436-12.954c-3.445-4.349-6.617-8.905-9.867-13.403c-3.083-4.613-6.26-9.168-9.136-13.918
							c-3.003-4.67-5.721-9.511-8.511-14.309c-2.62-4.891-5.333-9.736-7.73-14.74c-2.531-4.939-4.766-10.015-7.072-15.058
							c-2.133-5.114-4.366-10.193-6.27-15.395c-2.039-5.153-3.792-10.403-5.599-15.635c-0.862-2.628-1.655-5.276-2.484-7.915
							c-0.404-1.322-0.833-2.637-1.215-3.965l-1.11-3.993c-3.043-10.628-5.473-21.403-7.541-32.226l-1.48-8.129l-1.256-8.158
							c-0.449-2.716-0.765-5.445-1.107-8.172c-0.32-2.729-0.729-5.451-0.973-8.185l-0.795-8.196c-0.284-2.732-0.409-5.47-0.62-8.204
							c-0.443-5.47-0.598-10.943-0.848-16.415c-0.267-10.939-0.361-21.885,0.11-32.787c0.124-5.461,0.54-10.894,0.83-16.339
							c0.178-2.72,0.43-5.43,0.643-8.145c0.227-2.713,0.42-5.431,0.731-8.132l0.854-8.115c0.269-2.707,0.668-5.394,0.997-8.091
							c0.361-2.692,0.656-5.396,1.074-8.078l1.213-8.051c0.392-2.712,0.836-5.315,1.276-7.927l1.314-7.847l2.629-15.693
							c1.783-10.456,3.705-20.888,5.551-31.333l5.869-31.266l6.156-31.191l6.259-31.143l12.567-62.158
							c4.215-20.69,8.567-41.298,13.118-61.846l3.445-15.395l3.522-15.375c2.342-10.244,4.716-20.479,7.149-30.705
							c2.363-10.233,4.876-20.441,7.444-30.643c2.492-10.212,5.205-20.389,7.927-30.572c2.699-10.186,5.556-20.352,8.545-30.507
							c2.95-10.163,6.018-20.315,9.583-30.405l0.021-0.058c1.053-2.981,4.323-4.543,7.303-3.49c2.33,0.823,3.791,3.011,3.817,5.345
							c0.096,10.718-0.305,21.373-0.823,32.019c-0.6,10.632-1.492,21.225-2.455,31.813c-1.047,10.573-2.298,21.115-3.664,31.643
							c-1.417,10.515-3.024,20.995-4.707,31.465c-1.783,10.442-3.601,20.883-5.528,31.297c-1.97,10.396-3.981,20.797-6.114,31.148
							c-4.275,20.709-8.919,41.321-13.672,61.856c-4.738,20.553-9.49,41.052-13.991,61.594c-1.163,5.131-2.226,10.271-3.315,15.41
							l-3.225,15.425l-6.123,30.891l-5.806,30.933c-1.825,10.328-3.726,20.644-5.489,30.981l-2.599,15.515l-1.3,7.757
							c-0.436,2.589-0.878,5.185-1.238,7.693l-1.146,7.593c-0.396,2.53-0.668,5.07-1.009,7.605c-0.308,2.537-0.689,5.069-0.938,7.61
							l-0.802,7.619c-0.294,2.539-0.472,5.082-0.685,7.625c-0.198,2.543-0.438,5.084-0.604,7.627
							c-0.265,5.088-0.664,10.175-0.773,15.262c-0.444,10.176-0.346,20.338-0.105,30.483c0.237,5.063,0.372,10.138,0.786,15.183
							c0.196,2.523,0.306,5.058,0.57,7.572l0.732,7.551c0.221,2.52,0.604,5.016,0.896,7.524c0.315,2.506,0.601,5.017,1.017,7.504
							l1.149,7.479l1.356,7.436c1.892,9.893,4.102,19.72,6.872,29.372l1.006,3.63c0.346,1.206,0.739,2.397,1.105,3.597
							c0.754,2.393,1.47,4.798,2.251,7.181c1.643,4.735,3.223,9.495,5.07,14.15c1.716,4.709,3.744,9.286,5.661,13.909
							c2.088,4.545,4.094,9.13,6.38,13.577c2.154,4.516,4.61,8.871,6.961,13.281c2.52,4.315,4.956,8.681,7.666,12.881
							c2.582,4.28,5.454,8.373,8.222,12.533c2.936,4.046,5.781,8.157,8.894,12.074c2.991,4.008,6.248,7.811,9.41,11.687
							c3.323,3.743,6.542,7.577,10.028,11.181l2.57,2.74c0.847,0.923,1.717,1.824,2.614,2.7l5.318,5.317
							c1.784,1.762,3.648,3.445,5.467,5.173l2.744,2.577l2.824,2.494c7.447,6.741,15.354,12.988,23.38,19.075l6.106,4.462
							c2.02,1.508,4.146,2.877,6.213,4.324c4.122,2.911,8.417,5.586,12.656,8.338c8.602,5.326,17.321,10.493,26.325,15.193
							c8.936,4.814,18.133,9.182,27.397,13.408l7.01,3.05l3.506,1.524l3.547,1.438l7.093,2.88c2.371,0.944,4.776,1.816,7.162,2.729
							c38.251,14.473,78.354,24.494,119.043,31.424c20.357,3.456,40.887,6.115,61.511,8.094l7.735,0.738l7.751,0.619
							c5.167,0.409,10.334,0.829,15.516,1.113c10.345,0.715,20.744,1.092,31.263,1.599l15.777,0.712l15.688,0.61
							c10.449,0.364,20.88,0.637,31.295,0.806c20.82,0.293,41.573,0.143,62.179-0.889c41.173-2.031,81.965-7.411,120.502-19.26
							c4.836-1.42,9.565-3.107,14.329-4.709c4.695-1.764,9.425-3.446,14.032-5.4c4.667-1.826,9.191-3.947,13.758-5.979l6.737-3.268
							l1.685-0.814l1.654-0.872l3.309-1.743l3.31-1.741c1.103-0.581,2.168-1.228,3.254-1.837c2.157-1.245,4.338-2.45,6.478-3.724
							l6.352-3.928l1.588-0.98l1.622-1.06l3.247-2.122l6.49-4.247l6.411-4.342c4.301-2.861,8.48-5.864,12.702-8.818
							c33.546-23.843,64.721-50.586,90.666-81.513c1.661-1.901,3.178-3.91,4.775-5.858l2.369-2.942l1.184-1.472l1.132-1.509
							c3.015-4.026,6.097-8.007,8.917-12.164c5.854-8.174,11.118-16.729,16.218-25.369c9.935-17.435,18.416-35.699,25.2-54.657
							c13.512-37.961,20.697-78.307,23.262-119.17l0.019-0.29l0.128-1.106c0.924-7.951,2.113-15.833,2.588-23.907l0.477-6.024
							l0.232-3.013l0.121-3.037l0.49-12.148c0.324-16.251,0.194-32.59-0.752-48.988c-1.677-32.784-5.348-65.674-10.242-98.461
							c-4.874-32.796-10.874-65.515-17.578-98.136c-6.709-32.623-14.132-65.15-22.008-97.604
							c-15.748-64.912-33.372-129.484-51.254-194.12l-13.425-48.518l-6.686-24.354l-3.344-12.27
							c-1.074-4.122-2.075-8.301-3.115-12.449c-8.067-32.859-15.368-66.055-21.007-99.717c-2.818-16.827-5.216-33.764-7.078-50.798
							l-0.694-6.389l-0.599-6.404l-0.59-6.405l-0.491-6.417l-0.245-3.209l-0.123-1.604l-0.061-0.802
							c-0.016-0.057-0.027-0.078-0.033-0.118c-0.023-0.283-0.089-0.688-0.377-1.313c-0.273-0.613-0.649-1.394-1.319-2.292
							c-0.26-0.438-0.717-0.918-1.056-1.394c-0.459-0.485-0.827-0.979-1.345-1.482c-1.939-2.017-4.421-4.106-7.198-6.099
							c-2.781-1.999-5.856-3.917-9.085-5.738c-6.47-3.646-13.521-6.93-20.803-9.921c-14.59-5.992-30.069-10.897-45.76-15.223
							c-31.463-8.579-63.931-14.835-96.595-19.774c-32.69-4.911-65.679-8.337-98.742-10.452c-16.53-1.094-33.085-1.807-49.638-2.245
							c-16.554-0.437-33.109-0.58-49.648-0.389c-33.075,0.363-66.094,1.868-98.875,4.791c-32.766,2.946-65.344,7.281-97.143,14.122
							c-15.885,3.45-31.574,7.482-46.873,12.364c-7.651,2.433-15.197,5.098-22.603,8.015c-7.386,2.952-14.644,6.136-21.677,9.675
							l4.117-3.71c-5.07,6.217-10.187,12.4-15.334,18.561c-5.144,6.163-10.339,12.288-15.563,18.394
							c-10.487,12.181-21.073,24.289-32.116,36.064c-2.148,2.29-5.746,2.406-8.036,0.258
							C1175.987,1653.417,1175.612,1650.552,1176.85,1648.327z"/>
					</g>
				</g>
			</g>
		</g>
		<g>
			<g>
				<g>
					<g>
						<path fill="#371A45" d="M1330.285,3065.174c-30.709,0-61.028-2.262-90.648-6.777c-60.935-9.291-119.032-28.194-172.677-56.186
							c-6.121-3.193-8.494-10.744-5.3-16.864c3.194-6.121,10.744-8.493,16.865-5.3c115.703,60.371,231.468,64.594,308.208,57.508
							c83.603-7.722,140.449-30.159,141.014-30.385c6.407-2.563,13.682,0.549,16.249,6.955c2.567,6.404-0.539,13.676-6.942,16.248
							c-2.415,0.969-60.141,23.838-147.132,31.992C1369.939,3064.238,1350.031,3065.174,1330.285,3065.174z"/>
					</g>
				</g>
			</g>
		</g>
		<g>
			<g>
				<g>
					<g>
						<path fill="#FFFFFF" d="M1620.281,2696.414c-1.024-14.385,16.21,355.532,49.789,589.246
							c24.098,167.728,177.717,185.149,423.378,167.754c90.419-6.402,159.684-33.359,152.695-104.846
							c-9.386-96.02-149.916-132.381-149.916-132.381s-4.178-291.273-31.771-701.201"/>
					</g>
				</g>
			</g>
		</g>
		<g opacity="0.25">
			<g>
				<g>
					<g>
						<path fill="#371A45" d="M1620.224,2696.103c0,6.376,17.192,362.315,49.862,589.555
							c24.096,167.747,177.684,185.16,423.347,167.747c90.446-6.376,159.7-33.329,152.709-104.825
							c-0.176-1.671-0.352-3.298-0.615-4.925c-27.834,18.203-69.474,27.262-117.006,30.604
							c-245.662,17.412-399.294,0-423.39-167.747c-24.975-173.683-65.56-407.518-84.379-510.276l-0.483,0.177
							C1620.268,2696.279,1620.268,2696.191,1620.224,2696.103z"/>
					</g>
				</g>
			</g>
		</g>
		<g>
			<g>
				<g>
					<g>
						<path fill="#371A45" d="M1614.653,2696.814c-0.022-0.005-0.092-0.398-0.065,0.043c22.745-1.309,6.352-0.553,11.45-0.648
							l0.176,0.667c0.125,0.472,0.227,0.957,0.343,1.44l0.687,2.924c0.474,1.953,0.88,3.914,1.316,5.872
							c0.836,3.92,1.636,7.843,2.392,11.769c1.528,7.85,2.865,15.709,4.128,23.572c2.493,15.727,4.587,31.471,6.308,47.234
							c0.87,7.881,1.65,15.768,2.352,23.658l1.084,11.834l1.025,11.836c1.344,15.783,2.613,31.57,3.723,47.366
							c2.251,31.59,4.008,63.214,6.094,94.812c1.078,15.797,2.167,31.592,3.439,47.369c1.276,15.777,2.671,31.543,4.107,47.302
							c5.775,63.022,12.294,125.97,20.701,188.481l1.609,11.712l0.825,5.851l0.418,2.923l0.435,2.783
							c1.085,7.383,2.569,14.642,4.343,21.776c3.518,14.283,8.574,27.949,15.28,40.54c6.704,12.591,15.143,24.048,25.229,33.957
							c10.077,9.919,21.755,18.302,34.489,25.224c12.733,6.932,26.481,12.45,40.78,16.797c14.283,4.396,29.111,7.639,44.158,10.16
							c15.063,2.482,30.361,4.239,45.782,5.42c15.415,1.219,30.956,1.852,46.542,2.16c31.184,0.578,62.569-0.277,93.995-1.811
							c15.715-0.775,31.444-1.729,47.183-2.807c7.963-0.527,15.487-1.108,23.138-1.875c7.602-0.813,15.164-1.761,22.637-2.957
							c7.461-1.223,14.842-2.655,22.086-4.365c7.229-1.738,14.301-3.786,21.124-6.187c13.61-4.792,26.326-11.157,36.003-19.601
							c9.712-8.429,16.011-18.718,18.438-30.729c1.234-6,1.522-12.423,1.02-19.044c-0.406-6.616-1.732-13.108-3.707-19.417
							c-4.014-12.609-11.097-24.412-20.274-34.99c-9.167-10.601-20.354-19.966-32.515-28.218
							c-12.182-8.252-25.375-15.413-39.068-21.628c-6.85-3.104-13.834-5.969-20.895-8.588c-3.53-1.311-7.083-2.55-10.636-3.721
							c-1.775-0.582-3.552-1.148-5.316-1.686l-2.626-0.781l-2.4-0.671l-12.473-3.491l-0.213-12.653
							c-0.486-29.066-1.223-58.321-2.025-87.496l-1.307-43.793l-1.453-43.795c-2.041-58.393-4.407-116.782-7.099-175.157
							l-2.097-43.779c-0.695-14.593-1.412-29.185-2.195-43.773c-1.576-29.177-2.817-58.373-5.144-87.508l-1.712-21.852
							c-0.551-7.285-1.182-14.565-1.656-21.854c-1.016-14.573-1.637-29.171-1.913-43.792c-0.263-14.621-0.271-29.259,0.613-43.958
							c0.444-7.351,1.055-14.712,1.918-22.093c0.881-7.382,1.92-14.775,3.594-22.215l0.006-0.025
							c0.712-3.166,3.857-5.156,7.024-4.444c2.008,0.452,3.557,1.919,4.229,3.712c2.623,7.155,4.61,14.355,6.441,21.567
							c1.812,7.214,3.371,14.445,4.764,21.688c2.748,14.49,4.756,29.033,6.198,43.611c1.492,14.575,2.639,29.174,3.39,43.796
							c0.791,14.619,1.182,29.262,1.705,43.896c0.306,7.314,0.543,14.632,0.905,21.943c0.333,7.313,0.761,14.619,1.155,21.928
							l2.292,43.859c0.784,14.618,1.503,29.24,2.199,43.863l2.102,43.869c2.696,58.497,5.068,117.011,7.113,175.544l1.457,43.904
							l1.311,43.915c0.806,29.303,1.543,58.528,2.036,87.953l-12.686-16.145l1.754,0.477l1.576,0.449l3.076,0.915
							c2.029,0.618,4.031,1.256,6.024,1.909c3.981,1.312,7.919,2.687,11.825,4.137c7.811,2.897,15.514,6.056,23.113,9.5
							c15.188,6.897,29.996,14.899,44.091,24.441c14.062,9.555,27.481,20.658,39.101,34.068c5.788,6.706,11.146,13.95,15.715,21.814
							c4.614,7.821,8.404,16.273,11.232,25.074c2.777,8.82,4.617,17.988,5.213,27.209c0.689,9.183,0.342,18.762-1.617,28.309
							c-1.933,9.534-5.548,18.971-10.666,27.417c-5.098,8.469-11.604,15.888-18.734,22.081c-7.141,6.213-14.879,11.262-22.78,15.478
							c-7.913,4.215-16.009,7.614-24.145,10.487c-8.14,2.865-16.329,5.221-24.523,7.191c-8.196,1.938-16.396,3.523-24.59,4.866
							c-8.192,1.312-16.375,2.336-24.548,3.208c-8.135,0.82-16.429,1.454-24.294,1.975c-15.915,1.089-31.856,2.056-47.83,2.845
							c-31.949,1.558-64.034,2.442-96.299,1.845c-16.133-0.319-32.308-0.976-48.524-2.255c-16.212-1.243-32.466-3.1-48.708-5.777
							c-16.236-2.721-32.477-6.253-48.526-11.188c-16.043-4.883-31.913-11.194-47.055-19.435
							c-15.128-8.219-29.504-18.474-42.048-30.83c-12.562-12.328-23.144-26.723-31.339-42.132
							c-8.215-15.416-14.186-31.761-18.26-48.271c-2.055-8.257-3.739-16.563-4.966-24.875l-0.481-3.095l-0.424-2.966l-0.836-5.931
							l-1.63-11.862c-8.507-63.271-15.059-126.591-20.866-189.942l-8.514-95.015c-2.893-31.661-5.774-63.324-7.869-95.039
							c-1.063-15.857-1.893-31.729-2.578-47.607l-0.481-11.912l-0.396-11.915c-0.275-7.943-0.456-15.892-0.527-23.847
							c-0.16-15.907,0.126-31.84,0.901-47.793c0.405-7.979,0.907-15.961,1.633-23.954c0.355-3.997,0.763-7.995,1.222-11.999
							c0.249-2.003,0.47-4.004,0.767-6.013l0.432-3.021c0.076-0.506,0.139-1.012,0.229-1.531l0.13-0.818
							c5.101-0.277-11.325,0.017,11.466-1.244c0.056,0.687,0,0.541-0.002,0.783c-0.017,1.567-1.301,2.824-2.868,2.808
							c-0.221-0.003-0.435-0.03-0.64-0.08L1614.653,2696.814z"/>
					</g>
				</g>
			</g>
		</g>
		<g>
			<g>
				<g>
					<g>
						<path fill="#371A45" d="M1816.346,3041.42c-7.489,0-14.898-0.145-22.235-0.436c-58.597-2.324-112.313-13.996-159.658-34.695
							c-6.325-2.766-9.211-10.135-6.446-16.461c2.765-6.324,10.135-9.211,16.46-6.445c101.051,44.178,215.043,35.847,292.876,21.077
							c84.804-16.092,145.9-42.97,146.508-43.239c6.31-2.803,13.695,0.043,16.497,6.353s-0.042,13.695-6.353,16.497
							c-2.587,1.148-64.373,28.325-151.992,44.951C1898.565,3037.264,1856.399,3041.42,1816.346,3041.42z"/>
					</g>
				</g>
			</g>
		</g>
		<g>
			<g>
				<g>
					<g>
						<path fill="#371A45" d="M1087.218,3199.037c0.563-0.16,0.894-0.236,1.285-0.334l1.109-0.263l2.133-0.475
							c1.408-0.309,2.783-0.572,4.163-0.845c2.749-0.525,5.474-0.986,8.192-1.42c5.433-0.848,10.842-1.514,16.243-2.092
							c10.801-1.088,21.573-1.686,32.316-1.826c21.48-0.257,42.84,1.198,63.828,4.451c5.252,0.751,10.466,1.749,15.67,2.699
							c2.598,0.508,5.183,1.085,7.77,1.625l3.875,0.824l3.853,0.934c10.29,2.362,20.401,5.381,30.404,8.551
							c19.948,6.598,39.258,14.723,57.697,24.286c-19.572-6.979-39.591-12.336-59.783-16.084
							c-10.126-1.745-20.245-3.321-30.427-4.233l-3.807-0.391l-3.818-0.281c-2.545-0.177-5.082-0.391-7.624-0.537
							c-5.092-0.225-10.166-0.498-15.249-0.527c-20.307-0.364-40.543,1.037-60.384,3.994c-9.918,1.49-19.739,3.399-29.381,5.723
							c-4.81,1.193-9.585,2.458-14.269,3.861c-2.335,0.709-4.655,1.436-6.923,2.203c-1.125,0.388-2.26,0.771-3.344,1.172
							c-0.557,0.196-1.083,0.396-1.603,0.596l-0.753,0.294c-0.228,0.093-0.517,0.205-0.57,0.245
							c-7.703,5.848-18.688,4.344-24.535-3.359c-5.847-7.703-4.343-18.688,3.36-24.535c1.77-1.344,3.714-2.3,5.728-2.881
							L1087.218,3199.037z"/>
					</g>
				</g>
			</g>
		</g>
		<g>
			<g>
				<g>
					<g>
						<path fill="#371A45" d="M2091.131,3232.33c-0.079-0.049-0.385-0.161-0.633-0.257l-0.809-0.3l-1.709-0.606
							c-1.154-0.407-2.357-0.796-3.553-1.188c-2.406-0.777-4.861-1.512-7.332-2.23c-4.954-1.419-9.995-2.698-15.07-3.906
							c-10.172-2.351-20.516-4.284-30.952-5.799c-20.878-3.013-42.135-4.449-63.462-4.136c-21.339,0.216-42.737,2.277-63.988,5.861
							c-21.216,3.735-42.267,9.098-62.878,16.132c19.521-9.637,39.902-17.776,60.895-24.36
							c21.025-6.431,42.642-11.409,64.635-14.507c21.985-3.195,44.318-4.608,66.763-4.304c11.225,0.16,22.476,0.775,33.755,1.877
							c5.64,0.585,11.287,1.258,16.958,2.109c2.837,0.437,5.681,0.897,8.547,1.425c1.438,0.271,2.872,0.537,4.337,0.845l2.219,0.473
							l1.15,0.261c0.403,0.097,0.75,0.173,1.318,0.327l3.207,0.871c9.188,2.495,14.613,11.966,12.118,21.154
							s-11.966,14.614-21.154,12.118C2093.949,3233.771,2092.442,3233.107,2091.131,3232.33z"/>
					</g>
				</g>
			</g>
		</g>
		<g opacity="0.7">
			<g>
				<g>
					<g>
						
							<ellipse transform="matrix(0.9315 -0.3636 0.3636 0.9315 -447.0011 540.7026)" fill="#FFFFFF" cx="1212.602" cy="1457.583" rx="47.366" ry="55.195"/>
					</g>
				</g>
			</g>
		</g>
		<g>
			<g>
				<g>
					<g>
						<circle fill="#FFFFFF" cx="1126.649" cy="2375.245" r="71.05"/>
					</g>
				</g>
			</g>
		</g>
		<g opacity="0.35">
			<g>
				<g>
					<g>
						<path fill="#371A45" d="M1055.612,2375.234c0,39.239,31.787,71.083,71.026,71.083c39.24,0,71.083-31.844,71.083-71.083
							c0-10.84-2.428-21.172-6.832-30.375c-11.405,23.995-35.908,40.65-64.251,40.65c-28.343,0-52.846-16.655-64.194-40.65
							C1058.041,2354.063,1055.612,2364.395,1055.612,2375.234z"/>
					</g>
				</g>
			</g>
		</g>
		<g>
			<g>
				<g>
					<g>
						<path fill="#371A45" d="M1126.648,2463.222c-48.511,0-87.977-39.466-87.977-87.978c0-48.51,39.466-87.977,87.977-87.977
							s87.978,39.467,87.978,87.977C1214.626,2423.756,1175.159,2463.222,1126.648,2463.222z M1126.648,2321.121
							c-29.844,0-54.123,24.279-54.123,54.123s24.279,54.124,54.123,54.124s54.124-24.28,54.124-54.124
							S1156.492,2321.121,1126.648,2321.121z"/>
					</g>
				</g>
			</g>
		</g>
		<g opacity="0.25">
			<g>
				<g>
					<g>
						<path fill="#371A45" d="M2085.753,2480.371c0,0.189,0,0.332-0.047,0.521c-57.691,21.35-171.557,43.744-383.49,25.81
							l-2.23,37.196c-2.609,44.408-41.134,78.567-85.494,75.91l-374.95-22.299c-44.408-2.656-78.615-41.086-75.958-85.541
							l2.467-41.466l9.441-158.036c2.609-44.455,41.087-78.615,85.542-75.958l374.901,22.299c5.504,0.332,10.865,1.187,16.037,2.609
							c36.294,9.727,62.198,44.028,59.874,82.933l-2.42,40.611l0.047-0.047c0,0,247.516,12.762,376.848-42.842
							c0.143,1.139,0.238,2.277,0.332,3.368C2091.209,2395.352,2091.494,2441.277,2085.753,2480.371z"/>
					</g>
				</g>
			</g>
		</g>
		<g>
			<g>
				<g>
					<g>
						<path fill="#FFFFFF" d="M1200.714,2551.502l374.949,22.301c44.377,2.654,82.883-31.504,85.536-75.938l11.857-199.529
							c2.314-38.9-23.6-73.229-59.904-82.939c-5.138-1.411-10.502-2.258-16.035-2.597l-374.893-22.301
							c-44.434-2.654-82.939,31.504-85.536,75.938l-9.429,158.03l-2.484,41.498
							C1122.122,2510.398,1156.337,2548.849,1200.714,2551.502z"/>
					</g>
				</g>
			</g>
		</g>
		<g opacity="0.25">
			<g>
				<g>
					<g>
						<path fill="#371A45" d="M1200.714,2551.502l374.949,22.301c44.377,2.654,82.883-31.504,85.536-75.938l11.857-199.529
							c2.314-38.9-23.6-73.229-59.904-82.939c-22.132,12.873-36.191,21.116-36.191,21.116
							c-27.782,159.075-78.14,236.228-277.217,227.646c-85.932-3.727-139.343-20.043-172.485-39.691l-2.484,41.498
							C1122.122,2510.398,1156.337,2548.849,1200.714,2551.502z"/>
					</g>
				</g>
			</g>
		</g>
		<g>
			<g>
				<g>
					<g>
						<path fill="#371A45" d="M1580.508,2590.894c-1.946,0-3.904-0.058-5.872-0.175l0,0l-374.92-22.309
							c-53.836-3.203-95.028-49.608-91.825-103.443l11.874-199.558c1.547-25.989,13.184-49.878,32.77-67.263
							c19.585-17.387,44.686-26.107,70.674-24.562l374.92,22.309c25.989,1.546,49.877,13.184,67.263,32.769
							c17.385,19.586,26.108,44.685,24.562,70.674l-11.874,199.559C1674.993,2550.762,1631.806,2590.894,1580.508,2590.894z
							 M1576.646,2556.925c16.961,1.01,33.366-4.704,46.189-16.086c12.822-11.382,20.439-26.993,21.449-43.956l11.874-199.557
							c1.009-16.963-4.703-33.367-16.085-46.189s-26.993-20.439-43.956-21.449l-374.921-22.309
							c-16.965-1.008-33.367,4.703-46.189,16.086c-12.823,11.382-20.44,26.992-21.449,43.955l-11.875,199.558
							c-2.094,35.201,24.84,65.544,60.042,67.639L1576.646,2556.925L1576.646,2556.925z"/>
					</g>
				</g>
			</g>
		</g>
		<g>
			<g>
				<g>
					<g>
						<path fill="#FFFFFF" d="M1185.752,2549.131c4.799,1.299,9.767,2.088,14.961,2.371l374.949,22.301
							c32.521,1.92,61.879-15.864,76.277-43.078c5.25-9.88,8.525-21.003,9.202-32.859l5.308-88.642l1.75-29.247l4.856-81.641
							c2.653-44.434-31.561-82.883-75.938-85.536l-81.02-4.8c36.925,9.261,63.405,43.869,61.09,83.166l-6.38,107.781l-5.476,91.804
							c-2.654,44.378-41.159,78.592-85.537,75.938L1185.752,2549.131z"/>
					</g>
				</g>
			</g>
		</g>
		<g opacity="0.25">
			<g>
				<g>
					<g>
						<path fill="#371A45" d="M1185.752,2549.131c4.799,1.299,9.767,2.088,14.961,2.371l374.949,22.301
							c44.377,2.654,82.883-31.504,85.479-75.938l7.058-117.889c-10.67,20.27-29.133,44.83-56.403,45.902
							c-14.961,0.621-28.964-10.953-40.99-26.932l-5.476,91.804c-2.654,44.378-41.159,78.592-85.537,75.938L1185.752,2549.131z"/>
					</g>
				</g>
			</g>
		</g>
		<g>
			<g>
				<g>
					<g>
						<path fill="#371A45" d="M1580.578,2590.893c-1.969,0-3.945-0.059-5.927-0.178l-374.944-22.318
							c-6.098-0.328-12.279-1.298-18.278-2.875l5.312-33.268l294.075,17.523c16.946,1.016,33.336-4.691,46.158-16.074
							c12.827-11.388,20.441-26.998,21.439-43.957l11.872-199.563c1.824-30.626-18.485-58.296-48.289-65.794l5.131-33.313
							l80.984,4.803c53.87,3.236,95.056,49.65,91.825,103.467l-11.871,199.531c-1.529,25.994-13.163,49.889-32.758,67.285
							C1627.212,2582.228,1604.421,2590.893,1580.578,2590.893z M1553.191,2555.523l23.48,1.398
							c16.949,1.018,33.338-4.692,46.16-16.076c12.826-11.387,20.44-26.998,21.438-43.957l0-0.011l11.872-199.552
							c2.113-35.192-24.824-65.537-60.048-67.652l-20.922-1.241c13.192,17.899,20.306,40.259,18.907,63.761l-11.872,199.553
							C1580.778,2516.027,1570.522,2538.488,1553.191,2555.523z"/>
					</g>
				</g>
			</g>
		</g>
		<g>
			<g>
				<g>
					<g>
						<path fill="#22A7F0" d="M1423.32,2383.784c-0.397,7.382,6.779,67.524,6.779,67.524s18.875,1.014,42.053,2.26
							c28.957,1.556,54.042-27.165,56.029-64.149c1.987-36.983-19.876-68.227-48.833-69.782
							c-19.542-1.051-42.053-2.261-42.053-2.261S1423.966,2371.76,1423.32,2383.784z"/>
					</g>
				</g>
			</g>
		</g>
		<g opacity="0.35">
			<g>
				<g>
					<g>
						<path fill="#371A45" d="M1423.32,2383.784c-0.397,7.382,6.779,67.524,6.779,67.524s18.875,1.014,42.053,2.26
							c28.957,1.556,54.042-27.165,56.029-64.149c1.987-36.983-19.876-68.227-48.833-69.782
							c-19.542-1.051-42.053-2.261-42.053-2.261S1423.966,2371.76,1423.32,2383.784z"/>
					</g>
				</g>
			</g>
		</g>
		<g>
			<g>
				<g>
					<g>
						<path fill="#371A45" d="M1474.444,2463.629c-0.94,0-1.883-0.024-2.829-0.076l-50.45-2.71l-0.997-8.351
							c-1.708-14.31-7.246-61.595-6.835-69.244c0.677-12.596,12.862-62.593,14.249-68.252l1.973-8.05l50.33,2.704
							c17.141,0.922,32.652,10.104,43.676,25.858c10.499,15.003,15.685,34.339,14.604,54.447s-8.31,38.777-20.355,52.569
							C1505.861,2456.207,1490.555,2463.629,1474.444,2463.629z M1439.044,2441.774l33.645,1.808
							c10.866,0.58,21.544-4.463,30.06-14.214c9.12-10.44,14.605-24.819,15.447-40.485s-3.072-30.549-11.02-41.907
							c-7.422-10.606-17.495-16.771-28.363-17.354l-33.751-1.813c-4.98,20.836-11.369,49.385-11.755,56.504
							C1433.151,2388.373,1435.961,2415.33,1439.044,2441.774z M1423.32,2383.785h0.01H1423.32z"/>
					</g>
				</g>
			</g>
		</g>
		<g>
			<g>
				<g>
					<g>
						
							<ellipse transform="matrix(-0.9986 -0.0537 0.0537 -0.9986 2737.3687 4842.1904)" fill="#22A7F0" cx="1433.698" cy="2384.342" rx="52.507" ry="67.063"/>
					</g>
				</g>
			</g>
		</g>
		<g opacity="0.35">
			<g>
				<g>
					<g>
						<path fill="#371A45" d="M1430.119,2451.298c28.924,1.563,54.002-27.161,56.006-64.138c0.44-8.494-0.32-16.706-2.204-24.277
							c-6.971,29.365-29.004,50.276-53.802,48.955c-22.314-1.202-40.422-20.031-46.632-45.51c-1.162,4.848-1.923,9.936-2.203,15.183
							C1379.281,2418.527,1401.155,2449.735,1430.119,2451.298z"/>
					</g>
				</g>
			</g>
		</g>
		<g opacity="0.7">
			<g>
				<g>
					<g>
						<path fill="#FFFFFF" d="M1382.125,2398.978c4.888-32.97,28.363-57.448,55.165-56.005
							c24.237,1.281,43.547,23.436,47.994,52.359c0.4-2.645,0.681-5.408,0.841-8.172c2.003-36.977-19.871-68.225-48.835-69.787
							s-54.043,27.161-56.006,64.138C1380.964,2387.521,1381.244,2393.369,1382.125,2398.978z"/>
					</g>
				</g>
			</g>
		</g>
		<g>
			<g>
				<g>
					<g>
						<path fill="#371A45" d="M1432.392,2461.369c-0.941,0-1.883-0.024-2.829-0.075c-34.417-1.85-60.562-37.874-58.281-80.306
							c1.081-20.108,8.31-38.777,20.355-52.568c12.648-14.482,29.055-21.948,46.196-21.029
							c17.141,0.921,32.652,10.104,43.676,25.858c10.499,15.003,15.685,34.339,14.604,54.447s-8.31,38.777-20.355,52.569
							C1463.808,2453.947,1448.501,2461.369,1432.392,2461.369z M1435.063,2327.316c-10.278,0-20.291,5.018-28.364,14.26
							c-9.12,10.441-14.605,24.818-15.447,40.485l0,0c-1.688,31.419,15.979,58.003,39.383,59.261
							c10.865,0.58,21.543-4.463,30.06-14.214c9.12-10.44,14.605-24.819,15.447-40.485s-3.072-30.549-11.02-41.907
							c-7.422-10.606-17.495-16.771-28.363-17.354C1436.194,2327.332,1435.628,2327.316,1435.063,2327.316z M1381.267,2381.525h0.01
							H1381.267z"/>
					</g>
				</g>
			</g>
		</g>
		<g>
			<g>
				<g>
					<g>
						<path fill="#371A45" d="M1317.366,2569.689c-0.154,0-0.308-0.002-0.462-0.008c-7.007-0.252-12.483-6.135-12.232-13.142
							l3.467-96.848c0.845-23.614-7.373-46.313-23.141-63.911l-4.899-5.469c-20.718-23.123-31.447-54.154-29.435-85.137
							l7.304-112.503c0.454-6.997,6.496-12.3,13.491-11.847c6.997,0.455,12.3,6.494,11.846,13.492L1276,2306.821
							c-1.572,24.218,6.814,48.474,23.008,66.548l4.899,5.469c20.173,22.515,30.687,51.552,29.605,81.763l-3.467,96.848
							C1329.799,2564.301,1324.167,2569.689,1317.366,2569.689z"/>
					</g>
				</g>
			</g>
		</g>
		<g>
			<g>
				<g>
					<g>
						<path fill="#FFFFFF" d="M2133.751,2354.061c-3.531,34.622-34.03,52.031-34.03,52.031s-78.247,84.892-436.34,54.585
							c0,0-59.031-65.089,7.266-121.796c0,0,293.923,15.18,408.537-59.496C2105.577,2262.188,2137.826,2314.095,2133.751,2354.061z"
							/>
					</g>
				</g>
			</g>
		</g>
		<g opacity="0.25">
			<g>
				<g>
					<g>
						<path fill="#371A45" d="M2133.767,2354.075c-3.559,34.587-34.065,51.999-34.065,51.999s-78.234,84.924-436.342,54.607
							c0,0-47.871-52.805-8.919-104.709c0.023,0.315,0.048,0.63,0.074,0.943c2.638,31.059,28.349,55.182,59.449,57.264
							c327.813,21.95,400.825-57.306,400.825-57.306s9.82-5.599,18.978-16.843
							C2134.241,2344.776,2134.241,2349.521,2133.767,2354.075z"/>
					</g>
				</g>
			</g>
		</g>
		<g>
			<g>
				<g>
					<g>
						<path fill="#371A45" d="M1808.431,2484.207c-45.092,0.001-93.951-2.219-146.478-6.664l-6.637-0.561l-4.475-4.934
							c-1.272-1.404-31.138-34.86-28.422-77.717c1.622-25.59,14.146-48.574,37.224-68.314l5.13-4.388l6.744,0.347
							c2.885,0.148,289.756,14.028,398.425-56.774c12.622-8.224,27.715-8.154,41.408,0.192
							c24.729,15.076,42.697,56.467,39.238,90.383c-3.816,37.421-32.246,58.43-40.368,63.711
							c-6.892,6.387-31.465,25.744-89.958,41.598C1963.453,2476.484,1892.52,2484.206,1808.431,2484.207z M1672.128,2444.416
							c178.066,14.432,282.676-0.662,339.279-16.004c57.052-15.464,75.705-33.617,75.867-33.793l1.861-2.02l2.145-1.182
							c1.229-0.75,23.121-14.466,25.631-39.074l16.84,1.717l-16.84-1.717c2.335-22.9-10.772-50.478-23.183-58.043
							c-3.322-2.025-4.33-1.369-5.305-0.734c-50.008,32.583-135.945,52.926-255.423,60.463
							c-73.089,4.611-135.539,2.869-156.136,2.066c-12.737,12.346-19.675,25.829-20.644,40.152
							C1654.809,2417.136,1665.995,2435.848,1672.128,2444.416z"/>
					</g>
				</g>
			</g>
		</g>
		<g opacity="0.3">
			<g>
				<g>
					<g>
						<path fill="none" stroke="#FFFFFF" stroke-width="32.1483" stroke-linecap="round" stroke-miterlimit="10" d="
							M2040.327,2340.822"/>
					</g>
				</g>
			</g>
		</g>
		<g>
			<g>
				<g>
					<g>
						<path fill="#FFFFFF" d="M986.195,2197.723c26.265-28.477,73.203-83.789,153.748,9.404
							c64.171,74.25,47.324,257.098-15.881,301.88c-33.887,24.011-69.655-17.147-75.288,33.196c0,0-74.125-49.876-91.324-120.828
							C928.704,2302.788,968.333,2217.087,986.195,2197.723z"/>
					</g>
				</g>
			</g>
		</g>
		<g opacity="0.25">
			<g>
				<g>
					<g>
						<path fill="#371A45" d="M1124.064,2509.027c-33.875,24.006-69.648-17.175-75.294,33.163c0,0-74.107-49.863-91.33-120.792
							c-12.192-50.338-12.098-94.746-6.499-130.708c1.565,10.864,5.049,21.814,6.499,33.543c1.047,8.468,2.368,16.478,3.909,24.047
							c11.125,54.653,65.067,89.619,119.803,78.912c15.136-2.961,30.537-6.513,42.912-15.283
							c26.995-19.167,45.546-63.479,52.899-113.817C1189.585,2379.838,1168.045,2477.856,1124.064,2509.027z"/>
					</g>
				</g>
			</g>
		</g>
		<g>
			<g>
				<g>
					<g>
						<path fill="#371A45" d="M1048.775,2559.129c-3.314,0-6.612-0.973-9.451-2.883c-3.25-2.186-79.792-54.424-98.325-130.883
							c-16.347-67.437-10.753-122.423-3.183-156.676c9.329-42.207,25.189-70.789,35.936-82.441c0,0,0,0,0,0l1.82-1.979
							c15.979-17.385,42.717-46.498,81.56-45.887c31.208,0.477,62.484,19.344,95.616,57.678
							c42.39,49.048,49.554,131.92,42.124,193.121c-3.489,28.738-10.416,55.751-20.03,78.119
							c-10.856,25.259-24.649,43.938-40.996,55.52c-19.556,13.855-39.794,11.754-53.186,10.363c-4.053-0.42-10.071-1.045-12.21-0.51
							c-0.495,0.77-1.987,3.651-2.855,11.413c-0.658,5.882-4.341,10.992-9.711,13.479
							C1053.619,2558.612,1051.192,2559.129,1048.775,2559.129z M998.638,2209.198c-6.874,7.452-19.939,31.39-27.765,66.796
							c-6.798,30.759-11.792,80.258,3.027,141.394c10.387,42.851,44.816,78.083,66.342,96.623
							c2.916-4.424,6.883-8.457,12.307-11.289c10.377-5.417,21.657-4.245,31.609-3.212c11.246,1.168,20.958,2.177,30.117-4.314
							c22.691-16.077,40.697-58.264,46.99-110.096c8.24-67.867-5.157-133.381-34.13-166.904
							c-26.087-30.184-49.813-45.648-70.52-45.965c-23.669-0.383-41.659,19.216-56.118,34.946L998.638,2209.198L998.638,2209.198z"
							/>
					</g>
				</g>
			</g>
		</g>
		<g opacity="0.25">
			<g>
				<g>
					<g>
						<path fill="#371A45" d="M1827.326,1858.76l51.903,70.312c-83.928,46.4-179.101,75.625-281.058,82.742
							c-102.099,7.069-200.451-8.729-290.072-43.126c-62.863-24.102-121.41-57.313-173.93-98.162
							c-15.182-11.813-29.889-24.291-44.028-37.338c28.135-35.298,51.192-62.104,64.145-76.812
							c7.686-38.145,16.415-73.87,27.138-104.756l1.233-1.661l55.415-75.958c180.667-105.041,686.941-42.415,692.444,37.956
							c3.559,52.283,12.905,103.712,24.623,154.667c2.183,9.299,4.413,18.598,6.737,27.85
							C1890.521,1840.684,1827.326,1858.76,1827.326,1858.76z"/>
					</g>
				</g>
			</g>
		</g>
		<g>
			<g>
				<g>
					<g>
						<path fill="#FFFFFF" d="M892.673,1432.95L892.673,1432.95c7.646,0.013,13.854-6.176,13.866-13.821l0.64-398.76
							c0.012-7.646-6.176-13.854-13.821-13.866l0,0c-80.211-0.129-145.339,64.791-145.468,145.001l-0.218,135.979
							C747.543,1367.694,812.462,1432.822,892.673,1432.95z"/>
					</g>
				</g>
			</g>
			<g>
				<g>
					<g>
						<path fill="#371A45" d="M892.697,1435.991c-0.009,0-0.019,0-0.028,0l0.005-3.041l-0.005,3.041
							c-39.606-0.063-76.816-15.546-104.777-43.597c-27.961-28.05-43.324-65.311-43.261-104.916l0.218-135.979
							c0.063-39.606,15.547-76.816,43.597-104.777s65.343-43.33,104.917-43.261c4.51,0.007,8.747,1.77,11.931,4.964
							s4.934,7.437,4.926,11.947l-0.64,398.76c-0.007,4.51-1.77,8.748-4.964,11.932
							C901.428,1434.242,897.196,1435.991,892.697,1435.991z M893.118,1009.543c-37.896,0-73.532,14.727-100.378,41.487
							c-26.9,26.813-41.748,62.498-41.809,100.479l-0.218,135.979c-0.061,37.981,14.673,73.713,41.486,100.612
							c26.814,26.9,62.498,41.748,100.479,41.809l0,0c0.006,0,0.012,0,0.018,0c2.879,0,5.586-1.119,7.626-3.151
							c2.043-2.037,3.171-4.748,3.176-7.634l0.639-398.76c0.005-2.885-1.114-5.6-3.151-7.644c-2.037-2.043-4.748-3.171-7.634-3.176
							C893.276,1009.543,893.194,1009.543,893.118,1009.543z"/>
					</g>
				</g>
			</g>
		</g>
		<g opacity="0.35">
			<g>
				<g>
					<g>
						<path fill="#371A45" d="M747.774,1223.72l-0.116,63.775c-0.118,80.184,64.796,145.325,145.023,145.483
							c7.644,0.021,13.848-6.208,13.868-13.851l0.205-106.005c-2.154,4.829-6.997,8.159-12.609,8.193l-9.456-0.042
							C821.303,1321.186,767.433,1280.466,747.774,1223.72z"/>
					</g>
				</g>
			</g>
		</g>
		<g>
			<g>
				<g>
					<g>
						<path fill="#371A45" d="M892.697,1449.877c-0.018,0-0.034,0-0.051,0c-43.315-0.07-84.01-17.002-114.589-47.68
							c-30.579-30.677-47.381-71.427-47.312-114.741l0.218-135.979c0.069-43.315,17.002-84.011,47.68-114.59
							c30.614-30.516,71.26-47.313,114.474-47.313c0.09,0,0.178,0,0.268,0c8.219,0.013,15.941,3.227,21.744,9.047
							c5.803,5.821,8.991,13.554,8.978,21.773l-0.639,398.76c-0.013,8.219-3.227,15.941-9.047,21.744
							C908.61,1446.69,900.897,1449.877,892.697,1449.877z M892.7,1416.023L892.7,1416.023L892.7,1416.023L892.7,1416.023z
							 M890.247,1023.461c-69.331,1.534-125.318,58.354-125.43,128.07l-0.218,135.979c-0.055,34.272,13.24,66.514,37.435,90.788
							c23.468,23.544,54.467,36.856,87.583,37.685L890.247,1023.461z"/>
					</g>
				</g>
			</g>
		</g>
		<g>
			<g>
				<g>
					<g>
						<path fill="#FFFFFF" d="M2209.572,1008.614L2209.572,1008.614c-7.646-0.013-13.854,6.175-13.865,13.821l-0.64,398.76
							c-0.013,7.646,6.175,13.854,13.821,13.866l0,0c80.211,0.129,145.339-64.791,145.468-145.001l0.218-135.979
							C2354.703,1073.871,2289.783,1008.743,2209.572,1008.614z"/>
					</g>
				</g>
			</g>
			<g>
				<g>
					<g>
						<path fill="#371A45" d="M2209.125,1438.103c-0.084,0-0.156,0-0.241,0c-4.511-0.007-8.747-1.77-11.932-4.964
							c-3.184-3.194-4.934-7.437-4.927-11.947l0.641-398.76c0.015-9.301,7.587-16.857,16.884-16.857c0.01,0,0.018,0,0.027,0
							c39.606,0.063,76.816,15.546,104.777,43.597c27.961,28.051,43.324,65.311,43.261,104.916l-0.218,135.979
							C2357.266,1371.74,2290.769,1438.103,2209.125,1438.103z M2209.55,1011.655c-5.948,0-10.793,4.834-10.802,10.785
							l-0.641,398.76c-0.004,2.885,1.115,5.6,3.152,7.644c2.037,2.043,4.748,3.171,7.634,3.176c0.076,0,0.155,0,0.231,0
							c78.301,0,142.064-63.636,142.189-141.965l0.219-135.979c0.061-37.981-14.672-73.713-41.486-100.612
							c-26.813-26.9-62.498-41.748-100.479-41.809C2209.562,1011.655,2209.556,1011.655,2209.55,1011.655z"/>
					</g>
				</g>
			</g>
		</g>
		<g opacity="0.35">
			<g>
				<g>
					<g>
						<path fill="#371A45" d="M2195.213,1310.572l-0.165,110.624c-0.021,7.643,6.209,13.848,13.852,13.869
							c42.099,0.049,80.085-17.797,106.667-46.408c24.005-25.837,38.707-60.488,38.774-98.572l0.095-57.298
							c-22.849,50.233-73.635,85.174-132.443,85.09l-14.552-0.026C2202.128,1317.831,2197.616,1314.888,2195.213,1310.572z"/>
					</g>
				</g>
			</g>
		</g>
		<g>
			<g>
				<g>
					<g>
						<path fill="#371A45" d="M2209.129,1451.989c-0.09,0-0.178,0-0.268,0c-8.219-0.013-15.941-3.226-21.744-9.047
							c-5.802-5.821-8.99-13.554-8.978-21.772l0.64-398.761c0.027-16.949,13.827-30.721,30.771-30.721c0.018,0,0.032,0,0.05,0l0,0
							c43.314,0.07,84.01,17.002,114.59,47.68c30.579,30.677,47.381,71.427,47.312,114.741l-0.218,135.979
							c-0.07,43.315-17.003,84.01-47.68,114.589C2292.989,1435.192,2252.344,1451.989,2209.129,1451.989z M2212.629,1025.582
							l-0.63,392.521c69.331-1.534,125.318-58.354,125.431-128.07l0.218-135.979c0.055-34.272-13.239-66.514-37.435-90.788
							C2276.744,1039.723,2245.746,1026.41,2212.629,1025.582z"/>
					</g>
				</g>
			</g>
		</g>
		<g>
			<g>
				<g>
					<g>
						<circle fill="#FFFFFF" cx="1551.04" cy="1220.782" r="679.521"/>
					</g>
				</g>
			</g>
			<g>
				<g>
					<g>
						<path fill="#371A45" d="M1550.026,1903.386c-75.266,0.001-149.202-12.318-220.429-36.775
							c-83.467-28.66-159.699-72.696-226.579-130.884s-121.037-127.596-160.967-206.296
							c-41.341-81.481-65.542-169.404-71.931-261.327c-6.388-91.922,5.418-182.347,35.092-268.764
							c28.661-83.467,72.696-159.699,130.884-226.579s127.596-121.037,206.296-160.967c81.481-41.342,169.405-65.543,261.327-71.931
							s182.348,5.418,268.764,35.092c83.467,28.66,159.699,72.696,226.579,130.883c66.88,58.188,121.036,127.596,160.968,206.296
							c41.342,81.481,65.543,169.404,71.931,261.326c6.388,91.923-5.418,182.348-35.092,268.765
							c-28.66,83.468-72.696,159.7-130.884,226.579c-58.188,66.879-127.596,121.037-206.296,160.967
							c-81.481,41.342-169.404,65.543-261.327,71.932C1582.204,1902.825,1566.078,1903.386,1550.026,1903.386z M1551.508,544.282
							c-15.703,0-31.469,0.542-47.368,1.647c-180.26,12.527-344.852,94.502-463.456,230.823
							c-118.604,136.321-177.024,310.67-164.497,490.929c24.756,356.216,322.559,629.577,674.385,629.6
							c15.703,0.001,31.469-0.543,47.368-1.647c372.115-25.861,653.813-349.638,627.952-721.753
							C2201.137,817.666,1903.334,544.282,1551.508,544.282z"/>
					</g>
				</g>
			</g>
		</g>
		<g opacity="0.35">
			<g>
				<g>
					<g>
						<path fill="#371A45" d="M873.129,1173.604c-2.187,30.951-2.195,62.427,0.012,94.296
							c26.069,374.372,350.644,656.773,725.02,630.79c374.372-26.068,656.772-350.643,630.791-725.019
							c-0.741-10.767-1.741-21.524-2.993-32.1c-22.769,333.165-288.255,606.904-630.803,630.723
							C1231.547,1797.536,914.97,1531.897,873.129,1173.604z"/>
					</g>
				</g>
			</g>
		</g>
		<g>
			<g>
				<g>
					<g>
						<path fill="#371A45" d="M1550.015,1917.272c-76.795,0.001-152.244-12.571-224.927-37.529
							c-85.167-29.244-162.948-74.174-231.183-133.542c-68.235-59.367-123.492-130.186-164.236-210.488
							c-42.188-83.148-66.883-172.861-73.4-266.647c-6.518-93.786,5.53-186.053,35.811-274.237
							c29.244-85.167,74.174-162.948,133.541-231.184c59.367-68.235,130.186-123.492,210.489-164.236
							c83.148-42.187,172.861-66.883,266.647-73.4c93.786-6.519,186.053,5.531,274.237,35.811
							c85.167,29.244,162.948,74.174,231.183,133.541c68.235,59.368,123.492,130.187,164.236,210.489
							c42.188,83.148,66.883,172.861,73.4,266.647c6.518,93.787-5.531,186.053-35.811,274.237
							c-29.244,85.167-74.174,162.948-133.541,231.184s-130.187,123.492-210.489,164.236
							c-83.148,42.187-172.861,66.882-266.647,73.4C1582.839,1916.7,1566.393,1917.272,1550.015,1917.272z M1551.498,558.169
							c-15.38,0-30.823,0.531-46.395,1.613c-176.56,12.271-337.773,92.563-453.943,226.085
							C934.99,919.39,877.77,1090.16,890.04,1266.72c24.248,348.904,315.938,616.653,660.542,616.676
							c15.38,0.001,30.823-0.531,46.396-1.613c364.477-25.33,640.393-342.461,615.063-706.938
							C2187.793,825.94,1896.103,558.169,1551.498,558.169z"/>
					</g>
				</g>
			</g>
		</g>
		<g>
			<g>
				<g>
					<g>
						<path fill="#371A45" d="M876.532,1285.153c7.214,132.776,57.012,253.704,136.267,351.691
							c59.417,73.461,293.862,194.939,574.52,182.218c260.229-11.794,489.35-163.331,540.458-242.797
							c68.171-105.997,104.575-231.608,97.36-364.385c-19.09-351.365-328.884-480.624-701.307-460.39
							C1151.407,771.726,857.441,933.788,876.532,1285.153z"/>
					</g>
				</g>
			</g>
		</g>
		<g>
			<g>
				<g>
					<g>
						<path fill="#371A45" d="M1546.044,1836.923c-141.608,0-258.877-32.264-334.901-60.805
							c-95.193-35.736-176.237-85.024-211.506-128.629c-84.418-104.371-132.833-229.347-140.008-361.418
							c-4.768-87.742,9.469-167.455,42.313-236.924c30.925-65.41,78.485-122.139,141.358-168.611
							c114.532-84.655,280.378-135.123,479.609-145.947c199.231-10.823,369.57,21.378,492.599,93.125
							c67.539,39.387,120.965,90.629,158.795,152.303c40.178,65.502,62.967,143.204,67.734,230.946
							c7.176,132.071-27.413,261.556-100.026,374.459c-29.755,46.265-107.603,106.196-198.326,152.684
							c-79.845,40.913-206.352,91.103-355.602,97.867C1573.859,1836.617,1559.825,1836.923,1546.044,1836.923z M893.434,1284.235
							c6.787,124.916,52.614,243.165,132.525,341.964c53.071,65.615,278.945,188.721,560.593,175.954
							c143.172-6.489,264.841-54.796,341.697-94.177c97.566-49.993,163.363-106.773,185.291-140.867
							c68.737-106.876,101.483-229.395,94.696-354.311c-8.694-160.011-79.274-279.733-209.78-355.841
							c-117.296-68.404-281.102-99.027-473.708-88.565c-192.605,10.465-352.129,58.658-461.323,139.368
							C941.933,997.56,884.74,1124.224,893.434,1284.235z"/>
					</g>
				</g>
			</g>
		</g>
		<g opacity="0.35">
			<g>
				<g>
					<g>
						<path fill="#111A28" d="M989.87,950.236c-78.158,83.138-120.98,193.775-113.332,334.896
							c7.214,132.804,57.038,253.722,136.241,351.714c59.435,73.459,293.9,194.93,574.553,182.238
							c99.099-4.464,193.651-29.226,275.625-62.592c-345.323,8.248-630.978-140.959-704.662-232.073
							c-100.596-124.362-163.792-277.863-172.923-446.346C982.898,1033.045,984.569,990.456,989.87,950.236z"/>
					</g>
				</g>
			</g>
		</g>
		<g>
			<g>
				<g>
					<g>
						<path fill="#371A45" d="M917.795,990.781c-4.516,0-9.021-1.792-12.348-5.344c-5.649-6.029-6.047-15.083-1.354-21.52
							c28.421-44.613,64.685-85.524,107.794-121.608c41.939-35.105,90.61-65.861,144.658-91.412
							c52.842-24.981,111.008-45.08,172.883-59.739c61.325-14.529,126.406-23.743,193.433-27.387
							c68.152-3.701,134.57-1.467,197.41,6.639c63.404,8.18,123.492,22.381,178.594,42.211
							c56.263,20.249,107.691,46.5,152.856,78.025c46.388,32.38,86.553,70.597,119.391,113.602
							c5.675,6.86,5.073,17.042-1.533,23.179c-6.849,6.363-17.559,5.968-23.922-0.881l12.401-11.521l-12.42,11.501l-0.566-0.609
							l-0.561-0.722c-121.487-159.451-347.401-242.413-619.813-227.62c-270.903,14.725-486.873,118.708-592.533,285.288
							l-1.171,1.846l-1.602,1.489C926.121,989.263,921.953,990.781,917.795,990.781z"/>
					</g>
				</g>
			</g>
		</g>
		<g>
			<g>
				<g>
					<g>
						<path fill="#FFFFFF" d="M2612.809,1562.33c-11.481,239.83-259.613,479.09-567.81,546.27
							c-9.631,2.088-19.262,4.033-28.988,5.789l-136.781-185.316l-51.903-70.312c0,0,63.195-18.076,134.551-64.287
							c24.149-15.656,49.247-34.539,73.111-57.028c62.341-58.735,113.723-118.23,156.755-176.634c0-0.047,0.048-0.047,0.048-0.047
							c71.734-97.402,120.317-191.911,157.988-275.365c42.794-94.888,177.678-64.477,105.373,116.665
							C2455.152,1402.064,2617.742,1458.808,2612.809,1562.33z"/>
					</g>
				</g>
			</g>
		</g>
		<g opacity="0.25">
			<g>
				<g>
					<g>
						<path fill="#371A45" d="M2612.809,1562.33c-11.481,239.83-259.613,479.09-567.81,546.27
							c-9.631,2.088-19.262,4.033-28.988,5.789c0,0-71.102-39.069-71.102-52.438c0-22.326,36.82-15.654,77.032-19.535
							c237.426-22.913,547.124-276.741,590.107-497.26C2612.809,1550.707,2613.093,1556.447,2612.809,1562.33z"/>
					</g>
				</g>
			</g>
		</g>
		<g>
			<g>
				<g>
					<g>
						<path fill="#371A45" d="M1825.798,1853.32l29.596-16.257c9.825-5.42,19.581-10.854,29.236-16.392
							c9.669-5.509,19.253-11.092,28.761-16.75l7.113-4.265l7.079-4.305c4.678-2.933,9.348-5.871,13.967-8.879
							c18.491-12.009,36.36-24.834,53.494-38.502c2.174-1.671,4.246-3.459,6.375-5.182c2.115-1.739,4.245-3.462,6.306-5.259
							l6.237-5.337l6.114-5.466c1.02-0.921,2.04-1.799,3.059-2.755l3.054-2.893l6.108-5.785l12.229-11.563
							c8.277-7.589,16.026-15.703,23.93-23.669l11.8-12.006c3.876-4.055,7.606-8.247,11.402-12.377
							c15.289-16.432,29.815-33.543,44.208-50.752c28.61-34.575,55.204-70.798,79.956-108.245
							c24.737-37.462,47.606-76.175,68.632-115.933l7.771-14.974c2.578-4.999,5.227-9.958,7.687-15.022l7.504-15.125
							c1.242-2.525,2.522-5.03,3.733-7.573l3.632-7.629l7.265-15.258c2.396-5.101,4.717-10.244,7.078-15.363l3.529-7.688
							l1.776-3.866l2.096-4.402c2.911-5.829,6.27-11.499,10.12-16.901c7.691-10.792,17.4-20.564,29.149-28.01
							c5.886-3.695,12.271-6.787,19.065-9.054c6.777-2.295,14.025-3.628,21.424-3.927c7.398-0.314,14.982,0.654,22.276,2.755
							c7.264,2.21,14.25,5.589,20.343,10.066c6.097,4.464,11.402,9.839,15.688,15.708c4.285,5.875,7.642,12.177,10.226,18.584
							c2.586,6.413,4.411,12.935,5.688,19.424c1.288,6.494,2.007,12.961,2.292,19.344c0.29,6.384,0.26,12.717-0.18,18.936
							l-0.14,2.339l-0.212,2.318l-0.438,4.633l-0.581,4.587l-0.293,2.293l-0.36,2.27c-3.762,24.258-10.982,47.176-19.713,69.149
							l-10.145-22.255l2.357,0.857l2.179,0.822l4.267,1.671c2.821,1.127,5.609,2.285,8.382,3.471
							c5.543,2.37,11.015,4.853,16.438,7.448c10.84,5.194,21.486,10.814,31.896,16.957c20.784,12.296,40.803,26.548,58.588,44.231
							c8.864,8.845,17.134,18.603,24.196,29.519c7.057,10.89,12.896,22.99,16.537,36.007c1.823,6.498,3.092,13.202,3.742,19.975
							c0.13,1.696,0.273,3.392,0.375,5.089l0.137,5.098c-0.013,1.697-0.064,3.394-0.104,5.09c-0.011,0.891-0.075,1.583-0.119,2.352
							l-0.143,2.262c-0.618,12.076-2.01,24.083-3.759,36.013c-7.206,47.732-22.81,93.734-44.14,136.413
							c-5.374,10.655-10.957,21.203-17.011,31.46c-2.935,5.187-6.126,10.208-9.203,15.304l-4.809,7.515l-2.409,3.754l-2.485,3.701
							l-4.978,7.396l-5.132,7.284l-2.567,3.641l-2.641,3.584l-5.284,7.167l-5.429,7.052l-2.715,3.525l-2.782,3.469l-5.57,6.935
							l-5.701,6.821c-30.522,36.288-64.741,69.238-101.472,98.913c-18.346,14.873-37.424,28.802-56.975,42.001
							c-19.552,13.203-39.697,25.504-60.291,36.983c-20.598,11.469-41.63,22.163-63.105,31.884
							c-21.475,9.705-43.035,19.307-65.117,27.68c-22.064,8.4-44.828,14.967-67.974,19.65c-2.896,0.574-5.796,1.129-8.705,1.636
							c-2.918,0.475-5.843,0.913-8.77,1.329c-5.84,0.888-11.75,1.433-17.653,1.922c-11.824,0.894-23.738,1.127-35.776-0.05
							c-3.224-0.314-5.58-3.184-5.265-6.406c0.198-2.03,1.41-3.717,3.085-4.608l0.175-0.091c5.327-2.784,10.711-5.07,16.073-7.356
							c5.354-2.327,10.737-4.386,16.092-6.505c5.358-2.1,10.732-4.051,16.087-6.037c2.682-0.977,5.364-1.931,8.055-2.849
							c2.678-0.966,5.355-1.921,8.041-2.837l64.316-21.799c21.405-7.297,42.701-15.111,63.321-24.504
							c20.644-9.326,40.847-19.613,60.632-30.626c19.78-11.026,39.123-22.835,57.88-35.503
							c18.755-12.664,37.048-26.016,54.61-40.256c35.167-28.411,67.838-59.893,96.833-94.368l5.417-6.479l5.284-6.581l2.642-3.291
							l2.571-3.343l5.146-6.683l5.001-6.786l2.501-3.392l2.427-3.443l4.853-6.886l4.699-6.985l2.348-3.494l2.271-3.541l4.535-7.085
							c2.892-4.799,5.908-9.529,8.66-14.405c5.698-9.646,10.928-19.542,15.963-29.518c19.979-39.962,34.364-82.622,40.965-126.359
							c1.599-10.931,2.88-21.911,3.437-32.92l0.132-2.063c0.039-0.673,0.105-1.421,0.102-1.976l0.076-3.574l-0.096-3.566
							l-0.264-3.554c-0.458-4.73-1.343-9.424-2.641-14.051c-5.173-18.546-17.068-35.815-32.06-50.703
							c-15.013-14.954-32.892-27.823-51.86-39.022c-9.495-5.604-19.307-10.787-29.309-15.579
							c-5.001-2.393-10.055-4.686-15.138-6.859c-2.54-1.087-5.089-2.145-7.633-3.161l-3.804-1.49l-1.876-0.708l-1.714-0.625
							l-16.597-6.054l6.451-16.202c8.061-20.243,14.497-41.012,17.692-61.732l0.312-1.94l0.244-1.936l0.493-3.871l0.361-3.855
							l0.18-1.927l0.11-1.917c0.37-5.122,0.373-10.177,0.152-15.145c-0.083-1.233-0.102-2.489-0.229-3.706l-0.349-3.66l-0.499-3.594
							c-0.156-1.202-0.424-2.352-0.624-3.531c-0.917-4.66-2.189-9.126-3.855-13.256c-1.663-4.131-3.721-7.919-6.131-11.235
							c-2.416-3.313-5.229-6.081-8.291-8.346c-3.066-2.268-6.478-3.868-10.068-4.998c-3.63-1.009-7.46-1.564-11.423-1.38
							c-7.922,0.26-16.179,3.095-23.654,7.782c-7.479,4.74-14.163,11.323-19.646,19.028c-2.747,3.854-5.206,7.989-7.377,12.328
							l-1.569,3.295l-1.783,3.881l-3.585,7.81c-2.399,5.202-4.756,10.421-7.192,15.61l-7.396,15.533l-3.698,7.767
							c-1.232,2.588-2.539,5.146-3.805,7.722l-7.653,15.425c-2.509,5.161-5.214,10.232-7.847,15.337l-7.939,15.294
							c-21.489,40.634-44.925,80.317-70.3,118.744c-25.392,38.414-52.698,75.606-82.067,111.102
							c-14.761,17.677-29.709,35.209-45.352,52.115l-5.798,6.4c-1.946,2.12-3.815,4.315-5.815,6.385l-11.908,12.509
							c-7.94,8.339-15.756,16.808-24.003,24.844l-12.229,12.202l-6.121,6.098l-3.061,3.049c-1.028,1.016-2.135,2.023-3.199,3.035
							l-6.45,6.061l-6.61,5.875c-2.185,1.983-4.444,3.872-6.703,5.762c-2.268,1.879-4.484,3.826-6.796,5.647
							c-9.145,7.424-18.599,14.434-28.255,21.126l-7.291,4.944c-2.452,1.613-4.935,3.177-7.4,4.766
							c-2.458,1.601-4.964,3.124-7.466,4.65c-2.504,1.524-5.009,3.045-7.551,4.501c-10.109,5.924-20.405,11.504-30.916,16.622
							s-21.246,9.755-32.168,13.883c-10.937,4.097-22.036,7.743-33.347,10.699c-5.646,1.499-11.348,2.816-17.1,3.945
							c-2.877,0.559-5.768,1.074-8.677,1.518c-1.455,0.231-2.918,0.414-4.391,0.6c-1.479,0.193-2.913,0.354-4.493,0.493
							c-3.161,0.279-5.948-2.057-6.228-5.217c-0.207-2.339,1.019-4.474,2.951-5.539L1825.798,1853.32z"/>
					</g>
				</g>
			</g>
		</g>
		<g opacity="0.35">
			<g>
				<g>
					<g>
						<path fill="#371A45" d="M2411.188,1463.565c-68.654,25.682-87.632,93.778-81.492,115.546
							c23.419,83.033,208.195,207.637,263.337,49.761c0,0-41.754,2.689-50.396-27.573"/>
					</g>
				</g>
			</g>
		</g>
		<g>
			<g>
				<g>
					<g>
						<path fill="#FFFFFF" d="M2411.188,1463.565c-14.513,35.723-42.979,39.63-49.677,83.725
							c-12.956,85.294,207.079,190.142,248.392,46.252c0,0-11.181-9.424-19.823-39.688"/>
					</g>
				</g>
			</g>
		</g>
		<g opacity="0.35">
			<g>
				<g>
					<g>
						<path fill="#371A45" d="M2411.219,1463.552c-0.047,0.048-0.095,0.095-0.095,0.143c0-0.047,0.048-0.095,0.048-0.143H2411.219z"
							/>
					</g>
				</g>
			</g>
		</g>
		<g opacity="0.35">
			<g>
				<g>
					<g>
						<path fill="#371A45" d="M2606.973,1602.515c-47.775,130.424-258.143,28.229-245.475-55.225
							c5.171-34.16,23.438-44.218,38.145-63.623c-1.992,5.219-3.605,11.197-4.65,18.124
							C2384.317,1572.009,2531.537,1655.463,2606.973,1602.515z"/>
					</g>
				</g>
			</g>
		</g>
		<g opacity="0.35">
			<g>
				<g>
					<g>
						<path fill="#371A45" d="M2411.124,1463.694c-3.273,7.971-7.211,14.375-11.481,19.974
							C2402.68,1475.65,2406.664,1469.34,2411.124,1463.694z"/>
					</g>
				</g>
			</g>
		</g>
		<g>
			<g>
				<g>
					<g>
						<path fill="#371A45" d="M2416.416,1465.689c-1.793,11.209-6.982,22.197-13.164,31.626l-2.31,3.438l-1.173,1.702l-1.148,1.626
							l-4.486,6.331c-2.789,4.096-5.445,7.922-7.375,11.707c-1.137,1.853-1.803,3.812-2.74,5.648
							c-0.412,0.94-0.715,1.921-1.086,2.867c-0.332,0.965-0.775,1.862-0.992,2.883c-0.262,0.995-0.563,1.969-0.85,2.944
							c-0.136,0.494-0.318,0.957-0.419,1.472l-0.301,1.544c-0.387,2.06-0.91,4.037-1.112,6.227
							c-0.259,2.098-0.663,4.447-0.644,5.911c-0.094,0.82-0.005,1.675,0.01,2.514c-0.016,0.833,0.103,1.693,0.182,2.547
							c0.364,3.419,1.2,6.953,2.465,10.559c1.272,3.604,2.937,7.267,4.999,10.916c2.052,3.653,4.504,7.23,7.143,10.782
							c5.379,7.051,11.83,13.744,19.002,19.771c7.148,6.078,15.061,11.43,23.335,16.17c4.153,2.345,8.378,4.583,12.71,6.598
							c4.308,2.065,8.719,3.904,13.164,5.62c4.45,1.711,8.968,3.2,13.51,4.56c4.556,1.28,9.13,2.501,13.737,3.377
							c1.149,0.25,2.3,0.472,3.453,0.652l3.456,0.589c2.306,0.288,4.611,0.677,6.912,0.86c4.606,0.513,9.191,0.68,13.731,0.67
							c4.55,0.012,9.013-0.39,13.413-0.934c4.395-0.584,8.654-1.54,12.808-2.698c4.136-1.205,8.082-2.776,11.88-4.571
							c3.777-1.835,7.304-4.05,10.668-6.472c13.411-9.806,22.589-24.978,27.882-42.498l0.521-1.641
							c0.099-0.312,0.205-0.734,0.328-1.233c0.243-0.973,0.478-2.048,0.699-3.115c0.438-2.159,0.82-4.383,1.121-6.621
							c0.62-4.479,0.961-9.013,1.041-13.504c0.173-8.997-0.911-17.794-3.158-25.97l-0.078-0.283
							c-2.478-9.014,2.821-18.329,11.836-20.807c9.014-2.478,18.316,2.779,20.795,11.793c3.304,11.9,4.668,23.988,4.455,35.806
							c-0.104,5.917-0.551,11.781-1.357,17.615c-0.396,2.92-0.893,5.829-1.491,8.772c-0.307,1.481-0.627,2.95-1.014,4.502
							c-0.19,0.764-0.401,1.604-0.683,2.538l-0.651,2.083l-1.314,4.164c-0.421,1.388-1.002,2.776-1.499,4.163
							c-0.527,1.385-1.019,2.776-1.581,4.153l-1.794,4.11l-0.903,2.052c-0.319,0.679-0.673,1.349-1.009,2.023l-2.052,4.035
							c-0.705,1.337-1.511,2.639-2.267,3.958c-0.775,1.312-1.511,2.639-2.393,3.903l-2.563,3.825
							c-0.865,1.268-1.847,2.475-2.771,3.71c-1.813,2.498-3.951,4.781-5.975,7.136c-4.291,4.525-8.912,8.779-13.949,12.516
							c-5.063,3.684-10.402,6.99-15.994,9.709c-5.6,2.676-11.365,4.932-17.229,6.642c-5.866,1.66-11.794,2.953-17.724,3.746
							c-5.923,0.753-11.854,1.246-17.72,1.244c-5.866,0.021-11.702-0.214-17.446-0.844c-2.89-0.243-5.725-0.7-8.582-1.072
							l-4.242-0.719c-1.418-0.228-2.822-0.498-4.218-0.797c-5.622-1.08-11.12-2.532-16.582-4.077
							c-5.433-1.62-10.807-3.399-16.076-5.422c-5.267-2.029-10.47-4.207-15.553-6.639c-5.106-2.38-10.092-5.015-15.002-7.79
							c-4.903-2.785-9.704-5.774-14.431-8.895c-2.328-1.625-4.69-3.189-6.967-4.904c-1.15-0.841-2.314-1.656-3.45-2.521l-3.395-2.62
							c-8.968-7.112-17.536-15.007-25.18-24.215c-3.823-4.609-7.344-9.586-10.538-14.928l-2.309-4.093l-2.096-4.284
							c-1.329-2.919-2.553-5.913-3.568-9.058c-2.058-6.252-3.418-12.983-3.685-19.957c-0.063-1.745-0.136-3.483,0.003-5.253
							c0.099-1.762,0.157-3.516,0.439-5.276c0.401-3.738,1.187-6.47,1.874-9.489c0.384-1.491,0.633-2.962,1.165-4.462l1.484-4.455
							l0.755-2.215c0.255-0.737,0.609-1.466,0.911-2.197c0.635-1.458,1.256-2.919,1.916-4.358c0.604-1.457,1.469-2.828,2.222-4.226
							c0.791-1.382,1.53-2.793,2.378-4.129c0.871-1.318,1.777-2.613,2.678-3.902c0.458-0.635,0.884-1.308,1.371-1.906l1.453-1.797
							c0.98-1.177,1.919-2.422,2.938-3.521l3.061-3.233c1.018-1.109,2.043-2.036,3.069-3.031c1.032-0.955,2.083-1.98,3.091-2.845
							l3.047-2.689l2.986-2.523l5.782-4.871c0.897-0.799,1.8-1.602,2.727-2.391c0.456-0.398,0.933-0.793,1.375-1.196l1.288-1.223
							l2.633-2.445c0.805-0.854,1.631-1.705,2.475-2.556l1.267-1.287c0.402-0.442,0.778-0.9,1.176-1.35l2.394-2.734
							c1.561-1.869,2.998-3.857,4.621-5.819l0.291-0.352c2.035-2.46,5.68-2.805,8.141-0.769
							C2416.023,1461.671,2416.723,1463.738,2416.416,1465.689z"/>
					</g>
				</g>
			</g>
		</g>
		<g opacity="0.25">
			<g>
				<g>
					<g>
						<path fill="#371A45" d="M2191.743,1560.812c-41.894,118.136-115.716,221.943-211.79,300.178
							c-31.313,25.572-64.998,48.393-100.724,68.082l-51.903-70.312c0,0,63.195-18.076,134.551-64.287
							c24.149-15.656,49.247-34.539,73.111-57.028C2097.329,1678.71,2148.711,1619.216,2191.743,1560.812z"/>
					</g>
				</g>
			</g>
		</g>
		<g>
			<g opacity="0.5">
				<g>
					<g>
						<g>
							
								<ellipse transform="matrix(-0.9815 -0.1915 0.1915 -0.9815 3733.5701 2924.1274)" fill="#FFFFFF" cx="2008.111" cy="1281.616" rx="78.821" ry="108.775"/>
						</g>
					</g>
				</g>
			</g>
			<g opacity="0.5">
				<g>
					<g>
						<g>
							
								<ellipse transform="matrix(-0.9456 -0.3253 0.3253 -0.9456 3226.8984 3531.0972)" fill="#FFFFFF" cx="1908.66" cy="1495.769" rx="42.845" ry="49.927"/>
						</g>
					</g>
				</g>
			</g>
		</g>
		<g opacity="0.5">
			<g>
				<g>
					<g>
						<path fill="#FFFFFF" d="M1027.366,1486.84c0,0-110.547-331.202,66.579-467.154
							c177.126-135.952,435.395-140.05,429.652-123.378c0,0-284.669,74.346-392.483,302.384
							C1047.976,1374.536,1027.366,1486.84,1027.366,1486.84z"/>
					</g>
				</g>
			</g>
		</g>
		<g>
			<g>
				<g>
					<g>
						<path fill="#371A45" d="M2472.508,1880c-0.15,0-0.302-0.003-0.453-0.008c-65.947-2.355-124.217-18.012-173.189-46.534
							c-39.35-22.918-72.716-54.085-99.172-92.635c-44.898-65.424-54.199-128.919-54.572-131.59
							c-0.957-6.837,3.809-13.155,10.646-14.113c6.84-0.954,13.152,3.808,14.112,10.642c0.161,1.104,9.274,61.378,51.006,121.754
							c55.719,80.614,140.524,123.508,252.062,127.492c6.899,0.247,12.292,6.039,12.046,12.938
							C2484.751,1874.693,2479.205,1880,2472.508,1880z"/>
					</g>
				</g>
			</g>
		</g>
	</g>
</g>
</svg>
