<?xml version="1.0" encoding="utf-8"?>
<!-- Generator: Adobe Illustrator 15.0.0, SVG Export Plug-In . SVG Version: 6.00 Build 0)  -->
<!DOCTYPE svg PUBLIC "-//W3C//DTD SVG 1.1//EN" "http://www.w3.org/Graphics/SVG/1.1/DTD/svg11.dtd">
<svg version="1.1" id="Layer_1" xmlns="http://www.w3.org/2000/svg" xmlns:xlink="http://www.w3.org/1999/xlink" x="0px" y="0px"
	 width="4000px" height="4000px" viewBox="0 0 4000 4000" enable-background="new 0 0 4000 4000" xml:space="preserve">
<g>
	<g>
		<g>
			<g>
				<g>
					<path fill="#FFFFFF" d="M2737.37,1929.736c0,0,68.107,54.986,94.144,225.183c26.035,170.196,75.785,448.847,75.785,448.847
						s12.219,283.87-236.093,281.47c-248.312-2.399-203.8-226.67-203.8-226.67l71.665-542.923"/>
				</g>
			</g>
			<g opacity="0.3">
				<g>
					<path fill="#232323" d="M2737.37,1929.736c0,0,68.107,54.986,94.144,225.183c26.035,170.196,75.785,448.847,75.785,448.847
						s12.219,283.87-236.093,281.47c-248.312-2.399-203.8-226.67-203.8-226.67l71.665-542.923"/>
				</g>
			</g>
			<g>
				<g>
					<path fill="#232323" d="M2674.326,2900.252c-1.086,0-2.173-0.005-3.264-0.015c-81.453-0.791-141.865-24.697-179.561-71.064
						c-56.668-69.707-40.555-164.253-38.908-173.008l71.607-542.485c1.084-8.213,8.623-13.975,16.834-12.91
						c8.213,1.084,13.992,8.623,12.908,16.836l-71.665,542.92c-0.042,0.322-0.096,0.64-0.159,0.957
						c-0.166,0.854-16.55,88.433,32.798,148.936c31.81,38.999,84.44,59.121,156.433,59.819
						c63.216,0.518,113.968-18.403,150.892-56.514c71.349-73.643,70.371-196.558,70.099-208.408
						c-3.434-19.268-50.707-285.054-75.652-448.125c-24.637-161.025-88.174-215.317-88.814-215.844
						c-6.35-5.264-7.297-14.698-2.074-21.08c5.222-6.387,14.577-7.393,20.996-2.202c2.963,2.393,72.934,60.645,99.545,234.585
						c25.711,168.062,75.23,445.698,75.726,448.481c0.12,0.659,0.192,1.323,0.22,1.992c0.254,5.874,5.234,144.902-78.369,231.343
						C2801.688,2878.128,2744.644,2900.252,2674.326,2900.252z"/>
				</g>
			</g>
			<g>
				<g>
					<path fill="#FFFFFF" d="M2918.296,2490.127c-44.042,21.419-89.55,36.92-136.733,45.77c-19.951,3.719-40.533,1.781-59.385-5.604
						c-22.361-8.745-49.488-19.586-43.623-18.486l-96.619-194.232l-72.635-146.055l192.82-99.918l65.459-24.718
						c19.377-7.279,41.005-5.446,58.862,4.976l27.022,15.867c23.775,13.93,40.847,36.971,47.235,63.784l14.769,62.265l0.156,0.524
						l47.498,200.046C2972.235,2432.837,2953.854,2472.846,2918.296,2490.127z"/>
				</g>
			</g>
			<g opacity="0.3">
				<g>
					<path fill="#232323" d="M2918.296,2490.127c-44.042,21.419-89.55,36.92-136.733,45.77c-19.951,3.719-40.533,1.781-59.385-5.604
						c-22.361-8.745-49.488-19.586-43.623-18.486l-96.619-194.232c10.422-50.116,22.519-91.958,22.519-91.958
						c160.037,281.007,311.015-31.841,311.015-31.841l0.156,0.524l47.498,200.046
						C2972.235,2432.837,2953.854,2472.846,2918.296,2490.127z"/>
				</g>
			</g>
			<g>
				<g>
					<path fill="#FFFFFF" d="M2664.834,2420.268c53.887,304.207,23.514,586.732-144.902,833.962
						c-36.081,52.997-95.52,85.885-159.67,87.036c-48.441,0.891-97.563-7.541-147.312-25.451h-0.052
						c-27.703-9.949-55.668-22.832-83.842-38.699c-8.222-4.609-16.443-9.479-24.718-14.611
						c-15.815,160.822-188.839,211.672-245.554,53.258c-3.457-9.739-6.232-19.638-8.327-29.691
						c-7.541-36.553-5.917-74.625,3.823-110.916l48.231-180.042l3.666-13.668l-235.656,5.237l-52.368,45.403l-149.197,212.3
						c-19.9,28.331-50.221,48.021-84.417,53.153c-17.857,2.671-39.224,3.143-63.836-0.995
						c-48.807-8.169-93.163-33.516-126.521-70.068c-36.5-39.957-72.111-79.966-99.971-121.127
						c-58.286-86.041-82.637-176.795-10.211-281.008c0,0,90.806-108.192,244.402,7.018l94.262-111.125
						c-8.327,1.886-16.706,3.404-24.979,4.608c0,0-0.052-0.052-0.052,0c-98.242,14.192-190.882-19.952-213.452-111.963
						c-8.327-33.83-7.175-75.515,6.703-125.474c10.055-36.188,34.511-67.293,68.184-83.946c24.979-12.358,56.872-18.015,92.901-1.1
						c0,0,62.842-80.071,130.92,58.81c59.7,17.491,113.429,9.373,162.341-19.533c-86.774-169.307-143.174-326.777-28.802-417.636
						l922.673-354.323l292.737,121.861l9.637,4.033c0,0-52.002,224.083-237.019,375.95c11.312,37.392,21.628,74.468,30.845,111.334
						C2646.925,2329.096,2656.822,2374.918,2664.834,2420.268z"/>
				</g>
			</g>
			<g opacity="0.3">
				<g>
					<path fill="#232323" d="M1763.056,2077.096c148.092,63.723,583.194,130.632,756.036-218.747
						c20.433-41.304,31.529-86.599,34.117-132.608L2560,1605l-247.606-69.546l-334.607,95.084"/>
				</g>
			</g>
			<g opacity="0.3">
				<g>
					<path fill="#232323" d="M2519.932,3254.229c-36.081,52.997-95.52,85.885-159.67,87.036
						c-48.441,0.891-97.563-7.541-147.312-25.451c100.757,9.688,22.833-100.966,22.833-100.966
						c-63.156-73.838-80.857-162.288-80.857-162.288c298.551,262.992,496.764-82.219,354.375-436.069
						c-44.512,74.049-127.516,103.741-127.516,103.741l-383.073,54.516l-83.527-61.324l749.649-293.156
						C2718.721,2724.475,2688.348,3007,2519.932,3254.229z"/>
				</g>
			</g>
			<g>
				<g>
					<g>
						<circle fill="#FFFFFF" cx="1886.977" cy="1341.978" r="747.537"/>
					</g>
				</g>
				<g opacity="0.3">
					<g>
						<path fill="#232323" d="M2634.514,1341.974c0,412.85-334.688,747.538-747.538,747.538
							c-175.456,0-336.802-60.459-464.324-161.664c77,26.794,159.707,41.38,245.85,41.38c412.85,0,747.537-334.688,747.537-747.537
							c0-237.395-110.664-448.946-283.213-585.875C2424.918,737.496,2634.514,1015.266,2634.514,1341.974z"/>
					</g>
				</g>
				<g>
					<g>
						<path fill="#232323" d="M2498.271,1510.982c-98.932,480.284-745.001,594.383-1040.951,442.762
							c-51.474-18.708-110.717-89.367-160.236-161.398c-60.353-87.782-106.277-177.571-106.277-177.571
							c-51.369-272.802,32.501-492.703,245.691-647.231c151.304-109.712,341.875-148.609,526.051-116.636
							c152.203,26.424,275.919,83.289,364.652,172.813c42.332,42.701,76.63,92.907,102.262,150.723L2498.271,1510.982z"/>
					</g>
				</g>
				<g>
					<g>
						<path fill="#020202" d="M2498.271,1510.982c-98.932,480.284-745.001,594.383-1040.951,442.762
							c-51.474-18.708-110.717-89.367-160.236-161.398c7.821-15.908-22.147-33.228-22.147-33.228
							c226.666,233.219,1250.074,59.017,1052.264-735.397c42.332,42.701,76.63,92.907,102.262,150.723L2498.271,1510.982z"/>
					</g>
				</g>
				<g>
					<g>
						<path fill="#232323" d="M1886.978,2107.015c-421.843,0-765.039-343.193-765.039-765.039
							c0-421.84,343.196-765.034,765.039-765.034c421.844,0,765.036,343.193,765.036,765.034
							C2652.014,1763.822,2308.821,2107.015,1886.978,2107.015z M1886.978,611.942c-402.544,0-730.039,327.49-730.039,730.034
							s327.495,730.039,730.039,730.039s730.036-327.495,730.036-730.039S2289.521,611.942,1886.978,611.942z"/>
					</g>
				</g>
				<g>
					<g>
						<path fill="#232323" d="M1756.25,2030.267c-113.762,0.005-221.377-21.177-305.266-64.165
							c-6.831-3.496-9.529-11.87-6.03-18.701c3.501-6.827,11.873-9.532,18.702-6.026c176.623,90.498,463.889,79.927,683.054-25.151
							c127.996-61.362,290.145-181.426,337.383-405.288l-67.967-332.241c-75.39-168.935-228.796-274.609-455.981-314.092
							c-183.486-31.889-371.379,9.727-515.493,114.185c-209.873,152.124-290.688,365.239-240.203,633.418
							c1.418,7.539-3.542,14.805-11.084,16.221c-7.554,1.455-14.805-3.545-16.226-11.084
							c-26.023-138.232-17.844-264.556,24.307-375.469c42.158-110.928,118.496-207.012,226.897-285.586
							c150.147-108.828,345.71-152.231,536.558-119.067c237.51,41.279,398.077,152.842,477.241,331.587
							c0.403,0.908,0.709,1.865,0.908,2.842l68.844,336.533c0.375,1.841,0.375,3.746-0.006,5.586
							c-48.779,236.792-218.977,363.184-353.164,427.515C2035.719,2000.257,1891.636,2030.267,1756.25,2030.267z"/>
					</g>
				</g>
				<g>
					<g>
						<path fill="#FFFFFF" d="M2703.837,1300.545c10.354,126.743-49.604,232.745-133.923,236.762
							c-84.319,4.017-141.927-100.552-152.282-227.295c-10.354-126.743,30.465-227.665,114.784-231.682
							C2616.734,1074.313,2693.482,1173.802,2703.837,1300.545z"/>
					</g>
				</g>
				<g opacity="0.3">
					<g>
						<path fill="#232323" d="M2703.807,1300.539c10.395,126.726-49.574,232.753-133.914,236.762
							c-67.342,3.198-117.679-62.89-140.456-154.277c21.72,20.433,47.298,31.637,76.01,30.25
							c84.341-4.009,144.31-110.037,133.915-236.762c-1.506-18.567-4.479-36.558-8.654-53.69
							C2669.654,1163.153,2697.791,1227.273,2703.807,1300.539z"/>
					</g>
				</g>
				<g>
					<g>
						<path fill="#232323" d="M2565.393,1554.915c-85.842,0-153.398-98.979-165.202-243.477
							c-7.344-89.888,10.413-166.445,48.718-210.044c21.959-24.995,50.547-39.014,82.674-40.547
							c93.416-4.341,178.596,102.437,189.697,238.271l0,0c6.678,81.738-14.634,159.336-57.007,207.568
							c-26.181,29.8-58.521,46.431-93.525,48.101C2568.957,1554.872,2567.168,1554.915,2565.393,1554.915z M2537.437,1095.711
							c-1.399,0-2.788,0.029-4.189,0.098c-22.744,1.083-42.275,10.737-58.044,28.686c-32.078,36.514-46.705,103.608-40.13,184.092
							c8.802,107.725,57.649,214.854,134.009,211.24c25.303-1.206,49.126-13.74,68.896-36.24
							c36.238-41.25,54.338-109.146,48.418-181.616C2676.994,1186.927,2610.654,1095.711,2537.437,1095.711z"/>
					</g>
				</g>
				<g>
					<g>
						<path fill="#232323" d="M2626.392,1530.599c-1.084,0-2.185-0.132-3.281-0.41c-65.571-16.763-114.104-102.861-123.642-219.346
							c-9.877-121.06,28.729-209.653,98.354-225.708c7.1-1.621,14.204,2.793,15.842,9.908c1.641,7.109-2.795,14.204-9.904,15.845
							c-56.104,12.935-86.701,90.576-77.954,197.802c8.472,103.457,50.205,182.183,103.848,195.894
							c7.07,1.812,11.336,9.004,9.528,16.074C2637.656,1526.629,2632.285,1530.599,2626.392,1530.599z"/>
					</g>
				</g>
				<g opacity="0.35">
					<g>
						<path fill="#FFFFFF" d="M1371.604,1719.651c-41.658-375.785,122.977-620.786,524.801-715.417
							c11.514-2.711,12.381-18.621,1.249-22.616c-124.323-44.61-274.311-26.02-401.387,51.038
							c-168.169,101.976-259.274,297.18-229.071,491.52c11.386,73.258,39.557,140.899,83.009,203.427
							C1357.181,1737.64,1372.951,1731.8,1371.604,1719.651z"/>
					</g>
				</g>
				<g opacity="0.35">
					<g>
						<path fill="#FFFFFF" d="M2304.844,1192.084l24.975,40.33c7.393,11.935,9.109,26.687,4.139,39.817
							c-11.619,30.696-35.104,51.062-71.901,59.832c-18.166,4.33-37.103-3.406-47.683-18.794l-28.012-40.733
							c-10.816-15.731-10.797-36.559,0.135-52.211c15.778-22.59,36.584-40.441,67.783-48.492
							C2273.75,1166.808,2294.257,1174.989,2304.844,1192.084z"/>
					</g>
				</g>
				<g opacity="0.35">
					<g>
						<path fill="#FFFFFF" d="M2322.281,1404.043L2322.281,1404.043c40.873,1.442,73.006,36.22,70.297,77.028
							c-3.025,45.593-11.41,90.717-25.154,135.373c-10.664,34.654-45.789,55.611-81.187,47.761h-0.001
							c-36.325-8.055-59.982-43.487-52.949-80.024c7.201-37.413,11.907-74.372,13.574-110.78
							C2248.686,1433.529,2282.392,1402.635,2322.281,1404.043z"/>
					</g>
				</g>
				<g>
					<g>
						<path fill="#232323" d="M1153.574,1211.956c-1.682,0-3.389-0.283-5.063-0.874c-7.878-2.798-12-11.455-9.202-19.331
							c50.615-142.593,135.093-255.713,251.089-336.221c103.206-71.631,229.648-114.648,365.652-124.399
							c309.856-22.246,612.224,125.757,735.349,359.834c3.893,7.397,1.048,16.553-6.352,20.444
							c-7.391,3.887-16.551,1.045-20.445-6.353c-117.697-223.754-408.137-365.098-706.386-343.726
							c-283.013,20.288-498.198,180.864-590.376,440.547C1165.637,1208.084,1159.802,1211.956,1153.574,1211.956z"/>
					</g>
				</g>
				<g>
					<g>
						<path fill="#232323" d="M1799.78,2098.323c-7.588,0-13.789-6.104-13.889-13.716c-0.1-7.671,6.04-13.975,13.713-14.072
							c385.261-5.01,659.243-206.167,732.903-538.091c1.662-7.49,9.074-12.212,16.574-10.556c7.49,1.66,12.217,9.082,10.555,16.572
							c-37.61,169.478-128.629,310.811-263.219,408.716c-132.487,96.381-304.16,148.642-496.452,151.142
							C1799.905,2098.318,1799.844,2098.323,1799.78,2098.323z"/>
					</g>
				</g>
			</g>
			<g>
				<g>
					<g>
						<path fill="#FFFFFF" d="M2911.127,1516.395c-7.855,10.474-13.197,22.623-15.083,35.61
							c-13.615,92.64-31.787,174.962-54.567,246.811c-59.438-8.955-114.372-23.409-164.121-44.303
							c-42.104-17.544-80.49-39.748-114.738-66.979c27.126-71.796,44.146-146.002,45.821-223.874
							c-59.804-61.952-23.984-150.14,27.493-162.341c6.913-32.993,22.832-58.705,48.65-76.406
							c22.309-15.344,49.592-21.47,76.563-19.69c38.805,2.618,70.697,11.312,96.461,24.352
							C2977.319,1289.903,2965.852,1443.341,2911.127,1516.395z"/>
					</g>
				</g>
				<g>
					<g>
						<path fill="#232323" d="M2841.487,1813.816c-0.743,0-1.492-0.053-2.244-0.166c-116.36-17.535-212.571-56.016-285.962-114.38
							c-5.103-4.052-7-10.942-4.697-17.041c27.856-73.736,42.498-143.448,44.697-212.896
							c-27.998-31.948-37.793-73.916-26.189-113.506c9.178-31.304,30.684-56.313,56.209-66.24
							c8.755-33.121,26.482-59.014,52.785-77.061c24.008-16.474,54.605-24.399,86.084-22.251
							c114.588,7.735,164.043,64.707,185.354,111.143c35.757,77.905,14.8,171.626-24.38,223.945
							c-6.551,8.745-10.793,18.706-12.275,28.804c-13.677,93.218-32.212,177.056-55.096,249.185
							C2853.774,1809.656,2847.932,1813.816,2841.487,1813.816z M2580.508,1682.425c66.113,49.956,148.283,82.607,250.498,99.551
							c20.645-67.788,37.512-145.811,50.181-232.163c2.204-15.024,8.408-29.697,17.944-42.432
							c33.037-44.116,51.67-126.904,21.129-193.447c-25.691-55.982-81.059-88.389-160.108-93.726
							c-24.78-1.636-48.626,4.39-67.093,17.056c-22.279,15.288-36.164,37.246-42.445,67.139
							c-1.197,5.684-5.564,10.166-11.217,11.509c-19.157,4.546-36.237,23.525-43.516,48.354
							c-9.255,31.573-0.744,64.004,23.353,88.979c2.774,2.876,4.287,6.738,4.202,10.737
							C2621.902,1535.589,2607.85,1607.151,2580.508,1682.425z"/>
					</g>
				</g>
				<g>
					<g>
						<path fill="#232323" d="M2634.875,1287.59c29.609-3.081,59.518,3.347,85.623,17.058c6.512,3.503,12.832,7.407,18.877,11.794
							c5.962,4.521,11.655,9.482,16.934,15.005c10.435,11.067,19.416,24.819,22.998,41.501c1.736,8.276,1.896,17.266-0.151,25.779
							c-1.882,8.455-6.11,16.55-10.762,22.668c-8.151,12.224-22.725,24.617-40.11,26.917c-8.62,1.414-17.227-0.249-24.812-2.925
							c-7.739-2.69-14.121-7.366-19.899-12.227c-11.082-10.33-18.902-22.917-23.582-36.238c-0.965-2.742,0.477-5.745,3.219-6.709
							c2.375-0.835,4.945,0.134,6.217,2.19l0.055,0.088c6.729,10.859,15.043,20.476,24.867,26.941
							c9.713,6.462,20.846,9.348,30.006,6.853c4.523-1.406,8.896-3.247,12.559-6.824c1.008-0.679,1.85-1.699,2.707-2.681
							l2.603-2.891c1.533-2.4,3.356-4.631,4.795-7.004c6.089-9.128,7.183-18.184,4.834-27.778
							c-2.456-9.553-8.835-18.94-16.833-27.112c-8.147-8.132-18.004-15.039-28.574-20.681
							c-21.302-11.091-45.576-17.036-69.456-16.27l-0.244,0.007c-7.603,0.244-13.962-5.72-14.206-13.323
							C2622.305,1294.478,2627.773,1288.35,2634.875,1287.59z"/>
					</g>
				</g>
				<g>
					<g>
						<path fill="#232323" d="M2769.006,1396.072c10.032,6.863,21.189,12.083,32.813,14.841c11.604,2.815,23.682,2.847,34.773-0.356
							c11.102-3.171,21.099-9.761,28.799-18.95c7.754-9.165,13.174-20.662,16.912-32.864l0.078-0.254
							c1.27-4.146,5.662-6.479,9.809-5.208c3.975,1.216,6.277,5.327,5.342,9.316c-3.314,14.021-8.674,28.064-17.736,40.344
							c-8.945,12.273-21.904,22.283-36.697,27.524c-14.762,5.332-30.808,6.179-45.83,3.569
							c-15.088-2.561-29.375-8.198-42.321-15.874c-6.228-3.682-8.296-11.714-4.616-17.942c3.682-6.228,11.713-8.296,17.941-4.617
							C2768.506,1395.742,2768.781,1395.92,2769.006,1396.072z"/>
					</g>
				</g>
				<g opacity="0.3">
					<g>
						<path fill="#232323" d="M2911.127,1516.395c-7.855,10.474-13.197,22.623-15.083,35.61
							c-13.615,92.64-31.787,174.962-54.567,246.811c-59.438-8.955-114.372-23.409-164.121-44.303
							c2.566-2.357,5.341-4.609,8.326-6.756c129.611-94.263,104.736-280.169,104.736-280.169
							c-89.025,19.638-118.143-59.543-118.143-59.543c84.784,4.608,55.982-81.066,55.982-81.066l28.436,33.673
							c73.473,55.353,126.678-33.149,100.912-131.077C2977.319,1289.903,2965.852,1443.341,2911.127,1516.395z"/>
					</g>
				</g>
			</g>
			<g>
				<g>
					<path fill="#232323" d="M1972.358,3429.422c-46.519,0-101.458-27.92-130.032-107.773
						c-17.002-47.515-18.715-99.746-4.961-151.04l45.881-171.133l-206.013,4.575l-45.979,39.854l-148.008,210.562
						c-22.935,32.632-57.964,54.634-96.106,60.356c-22.148,3.325-45.474,2.974-69.329-1.02
						c-51.43-8.623-99.934-35.445-136.572-75.533c-102.798-112.476-230.732-252.456-111.594-423.896
						c0.3-0.435,0.623-0.854,0.962-1.26c0.986-1.177,97.803-113.086,254.888-5.396l53.557-63.12
						c-71.028,5.62-133.625-13.833-172.971-55.156c-31.596-33.178-62.802-95.972-32.046-206.699
						c11.621-41.851,39.792-76.475,77.286-94.995c31.477-15.562,64.616-17.573,96.543-6.025
						c10.996-9.526,30.734-22.167,56.24-19.468c33.352,3.506,63.918,31.797,90.923,84.106c45.08,11.641,86.794,7.71,126.882-11.987
						c-82.588-164.131-138.152-327.295-16.372-424.077c7.573-6.016,18.579-4.751,24.59,2.813c6.013,7.568,4.753,18.574-2.813,24.59
						c-99.929,79.414-58.887,215.723,33.487,395.952c4.221,8.238,1.301,18.335-6.663,23.047
						c-54.641,32.329-113.911,39.478-176.167,21.265c-4.717-1.382-8.635-4.683-10.798-9.092
						c-21.509-43.882-45.125-69.37-66.495-71.782c-19.856-2.256-34.875,15.986-35.024,16.172c-5.068,6.255-13.843,8.35-21.128,4.937
						c-25.796-12.119-51.938-11.797-77.7,0.928c-28.579,14.116-50.107,40.718-59.067,72.983
						c-20.87,75.132-12.686,135.024,23.669,173.198c39.346,41.318,109.404,55.479,187.38,37.872
						c7.351-1.637,14.922,1.562,18.824,8.002c3.898,6.44,3.244,14.648-1.624,20.391l-94.263,111.094
						c-5.991,7.046-16.443,8.237-23.845,2.676c-133.789-100.342-212.59-18.55-220.056-10.21
						c-94.729,137.197-10.588,248.428,109.231,379.526c31.387,34.341,72.769,57.29,116.526,64.624
						c20.22,3.399,39.851,3.701,58.345,0.933c28.723-4.312,55.207-21.03,72.666-45.874l149.243-212.319
						c0.818-1.167,1.777-2.227,2.854-3.159l52.368-45.386c3.081-2.67,6.997-4.185,11.074-4.272l235.657-5.233
						c5.474-0.294,10.752,2.353,14.153,6.688c3.403,4.336,4.565,10.015,3.137,15.337l-51.929,193.677
						c-11.902,44.39-10.479,89.404,4.111,130.186c20.85,58.257,60.759,89.663,106.824,83.97
						c44.731-5.521,96.616-49.507,104.821-133.032c0.594-6.021,4.248-11.309,9.671-13.984c5.417-2.676,11.841-2.368,16.979,0.83
						c83.655,51.968,166.565,77.549,246.393,76.133c57.976-1.054,112.377-30.732,145.524-79.395
						c188.831-277.227,215.718-626.509,82.192-1067.808c-2.049-6.772,0.181-14.106,5.646-18.594
						c178.375-146.406,230.611-364.194,231.119-366.377c2.182-9.414,11.602-15.249,21.003-13.086
						c9.414,2.188,15.276,11.587,13.089,21.006c-2.145,9.233-53.831,224.512-234.029,378.003
						c63.105,211.885,89.439,397.905,80.496,568.374c-10.239,195.195-66.04,364.692-170.591,518.188
						c-39.528,58.027-104.507,93.423-173.815,94.679c-79.49,1.479-161.053-21.422-242.986-68.004
						c-16.157,74.766-67.502,129.937-131.226,137.803C1981.831,3429.129,1977.136,3429.422,1972.358,3429.422z"/>
				</g>
			</g>
			<g>
				<g>
					<path fill="#232323" d="M1670.032,2143.592c6.79,31.291,14.434,62.51,22.732,93.405c8.369,30.874,17.488,61.536,28.254,91.194
						l0.024,0.063c2.595,7.156-1.099,15.064-8.254,17.659c-7.156,2.598-15.061-1.097-17.659-8.252
						c-0.137-0.378-0.264-0.784-0.366-1.165c-8.425-31.721-14.868-63.5-20.549-95.361c-5.601-31.882-10.474-63.747-14.514-95.834
						c-0.361-2.874,1.672-5.494,4.543-5.855c2.71-0.342,5.195,1.451,5.771,4.065L1670.032,2143.592z"/>
				</g>
			</g>
			<g>
				<g>
					<path fill="#232323" d="M1422.659,2734.017c-3.232,0-6.475-1.133-9.092-3.433c-5.708-5.024-6.262-13.726-1.238-19.434
						l21.345-24.253c24.478-27.813,56.487-46.987,92.564-55.449l220.634-51.733c7.393-1.738,14.81,2.856,16.548,10.259
						c1.736,7.402-2.859,14.814-10.264,16.548l-220.632,51.733c-30.471,7.148-57.505,23.345-78.181,46.836l-21.345,24.253
						C1430.278,2732.435,1426.477,2734.017,1422.659,2734.017z"/>
				</g>
			</g>
			<g>
				<g>
					<path fill="#232323" d="M1650.347,2630.262c-0.762,0-1.531-0.063-2.305-0.195c-7.5-1.26-12.554-8.364-11.289-15.864
						c17.3-102.627-4.319-167.432-4.539-168.071c-2.463-7.183,1.345-15.015,8.521-17.494c7.18-2.496,15,1.303,17.495,8.471
						c0.999,2.871,24.243,71.529,5.676,181.675C1662.773,2625.506,1656.943,2630.262,1650.347,2630.262z"/>
				</g>
			</g>
			<g>
				<g>
					<path fill="#232323" d="M1407.258,2473.74c3.716,5.303,7.183,10.852,10.183,16.777c3.044,6.021,5.676,11.802,7.385,19.748
						c1.28,7.656,0.957,15.892-1.548,23.636c-2.668,7.642-7.092,14.616-12.786,20.41c-5.774,5.729-12.952,9.948-20.754,12.715
						c-7.795,2.896-16.567,3.421-24.987,2.126c-4.283-0.561-8.284-2.045-12.283-3.562c-1.975-0.784-3.745-1.921-5.586-2.946
						l-2.722-1.6c-0.85-0.532-1.438-1.04-2.168-1.563l-8.345-6.255c-2.688-2.29-5.286-4.753-7.866-7.185
						c-10.046-10.107-18.887-22.83-23.232-37.596c-4.484-14.712-4.065-30.474-0.542-44.363c7.256-28.034,23.01-50.264,39.363-70.515
						c4.775-5.918,13.445-6.841,19.36-2.065c5.916,4.777,6.841,13.445,2.063,19.363l-0.049,0.063l-0.181,0.218
						c-15.063,18.435-28.564,38.606-33.804,59.453c-2.568,10.347-2.737,20.554,0.217,29.841c2.908,9.303,8.853,17.77,16.726,25.068
						l6.118,5.371l6.743,4.961c0.544,0.387,1.157,0.898,1.643,1.182l1.362,0.726c0.92,0.442,1.75,1.116,2.668,1.517
						c1.868,0.695,3.677,1.613,5.654,1.872c7.634,2.019,16.785-0.052,23.936-5.391c3.525-2.705,6.484-6.136,8.628-10.081
						c2.139-3.965,3.052-8.477,3.274-13.271c0.059-4.512-1.199-10.717-2.615-16.398c-1.487-5.779-3.252-11.639-5.198-17.518
						l-0.012-0.039c-0.918-2.775,0.586-5.766,3.359-6.684C1403.535,2471.004,1405.952,2471.88,1407.258,2473.74z"/>
				</g>
			</g>
			<g>
				<g>
					<path fill="#232323" d="M1397.153,2551.072c5.701,17.204,5.41,35.769,0.405,52.238c-4.983,16.523-14.309,31.32-26.855,42.697
						c-12.439,11.346-28.818,19.275-46.108,19.713c-8.569,0.268-17.122-1.336-24.868-4.448c-7.771-3.101-14.719-7.622-20.835-12.833
						c-2.202-1.875-2.466-5.183-0.591-7.385c1.775-2.082,4.825-2.434,7.012-0.884l0.078,0.056
						c11.511,8.201,25.134,12.557,38.145,10.794c13.018-1.572,24.954-8.755,33.855-18.574c8.958-9.81,15.112-22.19,17.622-34.893
						c2.546-12.722,1.282-25.696-3.645-36.823c-3.083-6.963,0.061-15.11,7.024-18.193c6.965-3.084,15.11,0.061,18.193,7.026
						c0.181,0.405,0.339,0.813,0.476,1.226L1397.153,2551.072z"/>
				</g>
			</g>
			<g>
				<g>
					<path fill="#232323" d="M1373.95,3312.527c-5.442,0-10.598-3.247-12.766-8.598c-2.854-7.052,0.544-15.079,7.593-17.936
						c32.334-13.091,49.958-32.9,53.877-60.547c16.193-114.238-199.124-322.183-225.04-342.969
						c-36.062-21.494-67-27.476-91.951-17.769c-36.489,14.175-49.934,58.115-50.066,58.555c-2.166,7.275-9.805,11.44-17.092,9.302
						c-7.278-2.144-11.458-9.756-9.334-17.041c0.676-2.324,17.149-57.144,66.275-76.392c33.505-13.135,72.856-6.357,116.972,20.112
						c2.542,1.523,249.28,221.445,238.262,363.076c-3.21,41.255-27.288,71.265-71.567,89.199
						C1377.419,3312.205,1375.671,3312.527,1373.95,3312.527z"/>
				</g>
			</g>
			<g>
				<g>
					<path fill="#232323" d="M1338.186,2819.971c17.202,16.902,31.575,35.789,44.019,55.444
						c12.439,19.683,22.991,40.186,32.397,61.028c1.301,2.878,0.02,6.264-2.859,7.563c-2.637,1.191-5.71,0.201-7.205-2.185
						c-11.941-19.021-24.832-37.331-39.057-54.196c-14.214-16.849-29.805-32.242-46.866-44.915
						c-6.667-4.954-8.057-14.372-3.103-21.04c4.951-6.668,14.373-8.057,21.04-3.105c0.537,0.4,1.042,0.83,1.512,1.284
						L1338.186,2819.971z"/>
				</g>
			</g>
			<g>
				<g>
					<path fill="#232323" d="M1615.273,3046.663c-4.939,0-9.336-3.511-10.281-8.54c-19.78-105.361-65.515-182.466-132.263-222.979
						c-50.368-30.566-95.662-29.902-96.06-29.927c-0.078,0.005-0.156,0.005-0.234,0.005c-5.669,0-10.339-4.526-10.479-10.22
						c-0.139-5.771,4.409-10.571,10.181-10.723c2.041-0.083,50.901-0.957,106.34,32.285
						c50.625,30.347,116.545,96.221,143.101,237.69c1.067,5.688-2.675,11.162-8.361,12.227
						C1616.565,3046.604,1615.916,3046.663,1615.273,3046.663z"/>
				</g>
			</g>
			<g>
				<g>
					<path fill="#232323" d="M1053.54,3042.659c-3.879,0-7.734-1.631-10.459-4.805c-4.949-5.771-4.285-14.463,1.487-19.414
						l167.478-143.652c5.776-4.946,14.465-4.282,19.417,1.484c4.949,5.771,4.285,14.463-1.487,19.414l-167.478,143.652
						C1059.9,3041.565,1056.711,3042.659,1053.54,3042.659z"/>
				</g>
			</g>
			<g>
				<g>
					<path fill="#232323" d="M1115.442,3148.484c-3.813,0-7.605-1.577-10.327-4.658c-5.032-5.703-4.49-14.404,1.211-19.434
						c0,0,46.58-41.113,93.311-82.217c23.374-20.562,46.785-41.118,64.429-56.528c33.655-29.409,33.635-29.424,39.744-29.019
						l-0.886,13.74l-10.356,9.067l10.361-9.067l8.015,11.167c-6.702,5.166-115.141,100.61-186.394,163.501
						C1121.931,3147.347,1118.679,3148.484,1115.442,3148.484z"/>
				</g>
			</g>
			<g>
				<g>
					<path fill="#232323" d="M1183.579,3228.606c-4.077,0-8.11-1.802-10.828-5.254c-4.705-5.972-3.674-14.629,2.302-19.336
						l180.684-142.241c5.972-4.692,14.629-3.672,19.334,2.305c4.704,5.973,3.674,14.629-2.303,19.336l-180.684,142.241
						C1189.563,3227.64,1186.56,3228.606,1183.579,3228.606z"/>
				</g>
			</g>
			<g>
				<g>
					<path fill="#232323" d="M1282.146,3299.954c-3.733,0-7.451-1.509-10.168-4.482c-5.129-5.61-4.736-14.321,0.876-19.448
						l140.522-128.418c5.611-5.137,14.321-4.741,19.451,0.874c5.129,5.61,4.736,14.321-0.876,19.448l-140.522,128.418
						C1288.789,3298.764,1285.461,3299.954,1282.146,3299.954z"/>
				</g>
			</g>
			<g>
				<g>
					<path fill="#232323" d="M1902.52,2881.174l26.372,16.839c9.243,4.819,18.006,10.313,27.263,14.886l14.045,6.488
						c4.69,2.119,9.255,4.461,14.119,6.172l14.355,5.543l7.156,2.764l7.365,2.201c9.834,2.874,19.488,6.158,29.539,8.123
						c9.939,2.329,19.795,4.854,29.893,6.467l15.005,3.033l15.186,2.194l15.22,2.173l15.363,1.213
						c41.033,3.248,82.666,0.779,123.963-4.906c41.299-5.884,82.314-15.166,122.785-26.748l0.04-0.01
						c2.78-0.797,5.681,0.813,6.479,3.596c0.756,2.646-0.684,5.408-3.219,6.355c-39.865,14.768-80.785,27.246-122.814,35.773
						c-41.973,8.689-85.115,13.174-128.555,12.197l-16.304-0.435l-16.274-1.494c-5.422-0.571-10.877-0.94-16.281-1.687
						l-16.146-2.894c-5.344-1.157-10.774-1.895-16.042-3.408l-15.755-4.668c-10.583-2.806-20.612-7.378-30.791-11.299
						c-40.41-16.636-77.485-40.732-108.582-70.347c-2.1-2-2.18-5.324-0.181-7.424c1.763-1.851,4.553-2.135,6.626-0.807
						L1902.52,2881.174z"/>
				</g>
			</g>
			<g>
				<g>
					<path fill="#232323" d="M1905.234,2998.807c-5.781,0-11.162-3.667-13.071-9.453c-2.383-7.222,1.538-15.01,8.76-17.393
						l107.626-35.513c7.21-2.353,15.007,1.543,17.388,8.76c2.383,7.222-1.538,15.011-8.76,17.393l-107.626,35.513
						C1908.12,2998.582,1906.665,2998.807,1905.234,2998.807z"/>
				</g>
			</g>
			<g>
				<g>
					<path fill="#232323" d="M2248.133,3241.779c-5-3.783-9.918-7.734-14.771-11.797c-2.436-2.021-4.893-4.045-7.229-6.179
						l-6.672-6.731c-4.314-4.611-8.971-9.016-13.022-13.896c-3.948-4.948-7.983-9.873-11.827-14.948
						c-15.173-20.42-27.453-43.034-36.309-66.829c-9.025-23.705-16.56-47.907-21.934-72.617
						c-5.358-24.775-8.871-49.646-9.558-75.563c-0.202-7.601,5.796-13.926,13.396-14.126c7.604-0.203,13.926,5.796,14.129,13.396
						v0.007l0.008,0.313c0.603,23.115,3.896,47.021,8.936,70.14c5.053,23.198,11.953,46.016,21.191,67.813l7.365,16.127
						c2.505,5.345,5.337,10.518,7.889,15.836c2.441,5.385,5.332,10.512,8.115,15.715c2.922,5.109,5.18,10.669,8.433,15.596
						c11.444,20.825,25.349,40.027,39.209,60.283l0.19,0.278c1.645,2.405,1.029,5.688-1.375,7.334
						C2252.378,3243.24,2249.893,3243.107,2248.133,3241.779z"/>
				</g>
			</g>
			<g>
				<g>
					<path fill="#232323" d="M2155.752,3301.78c-5.376,0-9.951-4.116-10.422-9.575c-8.384-97.124,45.451-129.79,47.748-131.133
						c4.991-2.939,11.407-1.245,14.329,3.75c2.907,4.971,1.255,11.357-3.69,14.292c-1.961,1.191-44.684,28.257-37.518,111.294
						c0.498,5.762-3.772,10.835-9.534,11.333C2156.359,3301.766,2156.055,3301.78,2155.752,3301.78z"/>
				</g>
			</g>
			<g>
				<g>
					<path fill="#232323" d="M2095.986,3274.961l-70.916-58.777c-2.438-2.021-2.777-5.637-0.756-8.076
						c1.77-2.133,4.76-2.656,7.113-1.4l81.272,43.342c7.349,3.918,10.13,13.049,6.211,20.398
						c-3.919,7.346-13.052,10.127-20.397,6.208C2097.622,3276.182,2096.738,3275.576,2095.986,3274.961z"/>
				</g>
			</g>
			<g>
				<g>
					<g>
						<path fill="#FFFFFF" d="M2433.682,2571.821c-23.252,29.851-49.33,53.363-78.866,69.23
							c-153.02,34.615-319.969,59.909-496.554,78.71c-39.015,4.188-75.515-20.005-87.036-57.553l-16.024-52.264l-64.413-209.839
							c-5.132-16.602-2.88-34.615,6.074-49.488l33.883-56.139c8.378-13.93,21.942-23.983,37.757-27.808
							c171.925-41.789,344.32-70.277,517.188-84.417c18.172-1.466,35.872,2.775,51.059,11.521
							c13.092,7.542,24.352,18.434,32.312,31.998c47.341,80.228,73.054,174.856,83.946,279.383
							C2455.467,2528.984,2448.396,2552.916,2433.682,2571.821z"/>
					</g>
				</g>
				<g>
					<g>
						<path fill="#232323" d="M1849.6,2735.247c-42.097,0-80.117-27.578-92.715-68.623l-80.449-262.109
							c-6.345-20.674-3.577-43.154,7.6-61.669l33.865-56.119h-0.002c10.425-17.28,27.578-29.902,47.061-34.639
							c174.102-42.334,348.889-70.854,519.504-84.771c39.143-3.218,77.446,16.748,97.539,50.806
							c45.903,77.827,74.009,171.206,85.924,285.474c2.885,27.676-5.082,55.186-22.436,77.466
							c-25.186,32.334-53.305,56.968-83.581,73.223c-1.19,0.64-2.466,1.113-3.786,1.411
							c-145.709,32.959-308.691,58.804-498.265,79.004C1856.421,2735.066,1852.996,2735.247,1849.6,2735.247z M2292.707,2196.98
							c-1.928,0-3.863,0.078-5.805,0.239c-169.053,13.789-342.276,42.056-514.856,84.019c-11.765,2.861-22.139,10.508-28.459,20.986
							h-0.002l-33.865,56.118c-6.77,11.221-8.45,24.844-4.604,37.368l80.452,262.114c9.404,30.649,39.302,50.425,71.113,47.041
							c187.518-19.979,348.752-45.493,492.798-77.974c25.913-14.277,50.244-35.889,72.347-64.268
							c12.565-16.133,18.34-35.991,16.262-55.913c-11.457-109.897-38.257-199.312-81.924-273.345
							C2342.869,2210.833,2318.418,2196.98,2292.707,2196.98z M1730.742,2294.476h0.049H1730.742z"/>
					</g>
				</g>
				<g>
					<g>
						<path fill="#232323" d="M2340.22,2657.43c-1.221,0-2.46-0.171-3.691-0.532c-6.938-2.036-10.913-9.312-8.874-16.25
							c18.354-62.539-3.514-227.397-54.264-323.516c-8.832-16.729-26.799-26.875-45.658-25.981
							c-133.125,6.665-290.821,30.898-482.073,74.082c-12.656,4.346-21.311,11.558-26.45,22.031
							c-12.073,24.609-0.544,59.18-0.425,59.521c2.39,6.821-1.204,14.292-8.03,16.685c-6.809,2.378-14.294-1.201-16.682-8.032
							c-0.637-1.816-15.413-44.966,1.631-79.707c8.347-17.017,22.568-28.975,42.266-35.542c0.413-0.137,0.833-0.254,1.255-0.347
							c193.037-43.613,352.402-68.096,487.2-74.844c29.041-1.44,56.555,14.214,70.121,39.907
							c49.965,94.629,78.343,267.788,56.23,343.115C2351.102,2653.729,2345.881,2657.43,2340.22,2657.43z"/>
					</g>
				</g>
				<g>
					<g>
						<path fill="#232323" d="M2172.988,2689.412c-5.503,0-10.544-3.662-12.056-9.229l-38.929-143.413
							c-2.197-8.096-8.972-14.15-17.258-15.43l-152.61-23.56c-17.305-2.671-31.863-15.195-37.087-31.914l-43.477-139.229
							c-2.058-6.587,1.616-13.599,8.206-15.659c6.586-2.05,13.598,1.616,15.656,8.208l43.477,139.224
							c2.4,7.681,9.089,13.438,17.039,14.663l152.607,23.56c18.043,2.778,32.791,15.962,37.574,33.584l38.928,143.413
							c1.809,6.665-2.127,13.53-8.789,15.342C2175.174,2689.271,2174.072,2689.412,2172.988,2689.412z"/>
					</g>
				</g>
				<g opacity="0.3">
					<g>
						<path fill="#232323" d="M2433.682,2571.821c-23.252,29.851-49.33,53.363-78.866,69.23
							c-153.02,34.615-319.969,59.909-496.554,78.71c-39.015,4.188-75.515-20.005-87.036-57.553l-16.024-52.264
							c334.371,73.734,495.506-41.633,501.948-325.782l79.6-90.388c13.092,7.542,24.352,18.434,32.312,31.998
							c47.341,80.228,73.054,174.856,83.946,279.383C2455.467,2528.984,2448.396,2552.916,2433.682,2571.821z"/>
					</g>
				</g>
				<g>
					<g>
						<path fill="#FFFFFF" d="M2676.46,2447.133c-75.567,37.601-153.386,55.563-233.404,53.992
							c-15.71-0.262-29.431-10.632-33.726-25.713l-1.152-3.928L2405,2395c-5.918-20.528-6.157-41.857,15-45
							c66.141-9.688,120.879-34.782,179.428-55.572c8.482-2.984,16.914-6.127,25.188-9.427c20.108-7.907,42.575,3.719,47.603,24.771
							l23.146,97.248C2699.24,2423.148,2691.334,2439.749,2676.46,2447.133z"/>
					</g>
				</g>
				<g>
					<g>
						<path fill="#232323" d="M2466.152,2514.788c-35.383,0-66.521-23.213-76.277-57.222l-10.676-37.212
							c-6.16-21.475-2.896-44.648,8.957-63.579c11.92-19.033,31.473-32.168,53.65-36.035l0,0
							c53.621-9.346,103.672-22.051,148.763-37.759c21.079-7.339,44.392-5.41,63.954,5.303
							c19.544,10.703,33.714,29.277,38.875,50.962l9.773,41.045c8.85,37.163-10.228,75.342-45.364,90.781
							c-61.226,26.904-124.827,41.597-189.033,43.672C2467.898,2514.773,2467.023,2514.788,2466.152,2514.788z M2616.689,2306.063
							c-5.711,0-11.455,0.972-17.063,2.925c-46.497,16.196-98.004,29.277-153.089,38.882l0,0
							c-14.492,2.524-27.266,11.099-35.042,23.521c-7.826,12.5-9.895,27.192-5.827,41.367l10.677,37.212
							c6.511,22.705,27.59,38.027,51.54,37.256c60.677-1.963,120.85-15.879,178.845-41.362c22.949-10.083,35.42-34.98,29.654-59.194
							l-9.773-41.045c-3.41-14.331-12.4-26.113-25.313-33.184C2633.569,2308.206,2625.171,2306.063,2616.689,2306.063z
							 M2444.172,2334.305h0.049H2444.172z"/>
					</g>
				</g>
				<g opacity="0.3">
					<g>
						<path fill="#232323" d="M2676.46,2447.133c-75.567,37.601-153.386,55.563-233.404,53.992
							c-15.71-0.262-29.431-10.632-33.726-25.713l-1.152-3.928c174.753-19.481,193.187-124.793,191.25-177.057
							c8.482-2.984,16.914-6.127,25.188-9.427c20.108-7.907,42.575,3.719,47.603,24.771l23.146,97.248
							C2699.24,2423.148,2691.334,2439.749,2676.46,2447.133z"/>
					</g>
				</g>
				<g>
					<g>
						<g>
							
								<ellipse transform="matrix(0.9243 -0.3816 0.3816 0.9243 -754.092 1010.597)" fill="#22A7F0" cx="2170.829" cy="2406.484" rx="53.58" ry="57.431"/>
						</g>
					</g>
					<g opacity="0.5">
						<g>
							<path fill="#FFFFFF" d="M2138.468,2449.814c-12.106-29.318,0.254-62.24,27.606-73.533c18.352-7.578,38.768-3.45,53.885,8.919
								c-12.368-28.743-43.966-42.983-71.047-31.802c-27.353,11.293-39.713,44.215-27.606,73.533
								c3.98,9.643,10.14,17.654,17.553,23.719C2138.736,2450.365,2138.586,2450.103,2138.468,2449.814z"/>
						</g>
					</g>
					<g>
						<g>
							<path fill="#232323" d="M2173.459,2475.911c-9.226,0-18.506-2.021-27.346-6.064c-16.382-7.48-29.297-21.03-36.362-38.145
								c-14.714-35.645,0.714-75.952,34.39-89.858c33.664-13.906,73.049,3.779,87.766,39.424l0,0
								c14.717,35.64-0.71,75.947-34.389,89.854C2189.778,2474.319,2181.641,2475.911,2173.459,2475.911z M2168.146,2362.088
								c-4.87,0-9.762,0.924-14.467,2.861c-20.936,8.647-30.276,34.313-20.82,57.212c4.641,11.245,13.037,20.103,23.643,24.946
								c10.305,4.707,21.484,5.024,31.475,0.908c20.938-8.647,30.277-34.307,20.824-57.207l0,0
								C2201.47,2373.055,2184.953,2362.088,2168.146,2362.088z"/>
						</g>
					</g>
				</g>
			</g>
			<g>
				<g>
					<path fill="#232323" d="M2609.842,2184.165l-55.525,14.427c-2.83,0.736-5.721-0.963-6.457-3.795
						c-0.599-2.302,0.422-4.648,2.346-5.837l48.826-30.12c6.545-4.037,15.121-2.004,19.16,4.539
						c4.038,6.545,2.004,15.122-4.541,19.16C2612.456,2183.276,2611.133,2183.823,2609.842,2184.165z"/>
				</g>
			</g>
			<g>
				<g>
					<path fill="#232323" d="M2761.574,2552.742c-15.303,0-30.518-2.852-44.893-8.486c-10.251-4.014-21.498-8.472-30.15-12.026
						c-16.309-6.704-27.083-11.133-23.193-24.614c1.901-6.582,8.688-12.319,18.021-10.557c2.682,0.513,5.059,1.705,6.985,3.369
						c4.1,1.816,14.282,6.099,39.282,15.898c16.262,6.372,33.95,8.042,51.157,4.814c44.661-8.359,89.388-23.335,132.942-44.512
						c28.84-14.019,44.313-47.158,36.797-78.799l-62.428-262.847c-5.397-22.729-20.056-42.534-40.215-54.336l-27.031-15.83
						c-14.014-8.208-30.773-9.619-45.967-3.892l-65.459,24.688c-7.754,2.925-16.403-0.986-19.328-8.74
						c-2.922-7.749,0.991-16.406,8.742-19.326l65.457-24.688c23.709-8.945,49.849-6.729,71.715,6.069l27.03,15.83
						c27.19,15.918,46.963,42.632,54.245,73.291l62.428,262.847c10.736,45.2-11.496,92.603-52.869,112.715
						c-45.961,22.349-93.247,38.169-140.542,47.021C2776.768,2552.039,2769.16,2552.742,2761.574,2552.742z"/>
				</g>
			</g>
			<g>
				<g>
					<path fill="#232323" d="M2886.395,2119.932c-0.244-0.137-1.426-0.646-2.273-0.967c-0.939-0.366-1.909-0.715-2.925-1.035
						c-1.997-0.662-4.085-1.235-6.198-1.729c-4.236-0.962-8.592-1.694-13.001-2.012c-8.813-0.737-17.788-0.051-26.585,1.77
						c-2.209,0.416-4.401,0.938-6.563,1.611l-3.266,0.918l-3.489,1.246l-14.038,5.109l-28.104,10.227l-28.132,10.232
						c-1.146,0.43-2.412,0.852-3.454,1.284l-2.977,1.284c-2.007,0.825-3.846,1.982-5.754,3.01c-3.652,2.33-7.161,4.944-10.23,8.064
						c-12.404,12.329-18.693,31.018-15.495,48.826l45.446,236.481l-58.285-233.923c-5.123-21.639,1.205-45.735,16.408-62.591
						c3.76-4.255,8.123-7.949,12.77-11.253c2.404-1.511,4.779-3.132,7.343-4.385l3.838-1.906c1.247-0.591,2.347-1.016,3.525-1.533
						l27.868-11.89l27.9-11.899l13.963-5.952l3.525-1.478l3.912-1.348c2.592-0.949,5.24-1.74,7.934-2.412
						c10.705-2.844,21.895-4.32,33.13-4.014c5.62,0.105,11.243,0.711,16.849,1.67c2.805,0.496,5.6,1.1,8.415,1.855
						c1.401,0.364,2.82,0.784,4.248,1.246c1.521,0.505,2.688,0.881,4.743,1.752l0.496,0.211c6.672,2.829,9.787,10.531,6.958,17.207
						c-2.829,6.672-10.534,9.787-17.207,6.957C2887.246,2120.379,2886.807,2120.161,2886.395,2119.932z"/>
				</g>
			</g>
			<g opacity="0.3">
				<g>
					<path fill="#232323" d="M2604.454,2171.52c11.312,37.392,21.628,74.468,30.845,111.334l-210.677,49.488l-23.356-42.208
						c154.853,9.897,63.051-145.688,63.051-145.688c189.469-119.662,261.422-378.884,261.422-378.884l106.098,25.975l9.637,4.033
						C2841.473,1795.569,2789.471,2019.652,2604.454,2171.52z"/>
				</g>
			</g>
			<g opacity="0.3">
				<g>
					<path fill="#232323" d="M2129.057,3277.115c-8.222-4.609-16.443-9.479-24.718-14.611
						c-15.815,160.822-188.839,211.672-245.554,53.258c-3.457-9.739-6.232-19.638-8.327-29.691c0.053,0.052,0.053,0.052,0.105,0.104
						c127.621,142.389,193.396-64.203,193.396-64.203l26.813,18.014L2129.057,3277.115z"/>
				</g>
			</g>
			<g opacity="0.3">
				<g>
					<path fill="#232323" d="M1891.511,3036.191c0,0,177.026-61.712,276.525,56.989l-27.53-115.21l-115.91-24.471l-39.848,13.782
						l-74.188,17.756"/>
				</g>
			</g>
			<g opacity="0.3">
				<g>
					<path fill="#232323" d="M2002.85,2945.834l-61.167,27.18l-39.171,22.099l3.666-13.668l-235.656,5.237l-52.368,45.403
						l-149.197,212.3c-19.9,28.331-50.221,48.021-84.417,53.153c-17.857,2.671-39.224,3.143-63.836-0.995
						c-48.807-8.169-93.163-33.516-126.521-70.068c-36.5-39.957-72.111-79.966-99.971-121.127c0.052,0.053,0.104,0.104,0.157,0.157
						c272.157,221.831,234.033-105.208,234.033-105.208s62.527,86.094,66.664,92.9c44.565,73.055,86.932-96.043,86.932-96.043
						l115.209-129.139l270.586-8.746l47.393,38.229L2002.85,2945.834z"/>
				</g>
			</g>
			<g opacity="0.3">
				<g>
					<path fill="#232323" d="M1745.146,2577.268l-6.703,18.591l-246.287,62.685l-65.355,57.029c0,0-11.573,3.666-29.117,9.269
						c0,0-0.052-0.052-0.052,0c-98.242,14.192-190.882-19.952-213.452-111.963c133.067,73.734,151.291-83.789,151.291-83.789
						l59.281,21.314v53.362l146.63-18.538c162.341,1.729,176.533-96.619,176.533-96.619L1745.146,2577.268z"/>
				</g>
			</g>
		</g>
	</g>
</g>
</svg>
