<?xml version="1.0" encoding="utf-8"?>
<!-- Generator: Adobe Illustrator 15.0.0, SVG Export Plug-In . SVG Version: 6.00 Build 0)  -->
<!DOCTYPE svg PUBLIC "-//W3C//DTD SVG 1.1//EN" "http://www.w3.org/Graphics/SVG/1.1/DTD/svg11.dtd">
<svg version="1.1" id="Layer_1" xmlns="http://www.w3.org/2000/svg" xmlns:xlink="http://www.w3.org/1999/xlink" x="0px" y="0px"
	 width="4000px" height="4000px" viewBox="0 0 4000 4000" enable-background="new 0 0 4000 4000" xml:space="preserve">
<g>
	<g>
		<g>
			<g>
				<path fill="#ED1B24" d="M787.237,2448.141c13.634-2.108,28.613-3.229,43.772-3.14h0.046
					c43.189,0.269,87.859,10.271,106.562,34.265c20.048,25.609,28.749,54.089,39.961,78.397
					c13.455,29.107,30.498,52.295,75.033,57.407c4.799,0.538,9.509,0.897,14.217,1.031c68.126,2.287,124.592-31.888,142.308,44.267
					l212.766-268.2l367.319-463.072l-738.538,311.974l-263.806,200.254C779.836,2444.956,779.343,2449.351,787.237,2448.141z"/>
			</g>
		</g>
		<g opacity="0.2">
			<g>
				<path fill="#371A45" d="M787.237,2448.141c13.634-2.108,28.613-3.229,43.772-3.14h0.046
					c43.189,0.269,87.859,10.271,106.562,34.265c20.048,25.609,28.749,54.089,39.961,78.397
					c13.455,29.107,30.498,52.295,75.033,57.407c4.799,0.538,9.509,0.897,14.217,1.031c68.126,2.287,124.592-31.888,142.308,44.267
					l212.766-268.2l367.319-463.072l-738.538,311.974l-263.806,200.254C779.836,2444.956,779.343,2449.351,787.237,2448.141z"/>
			</g>
		</g>
		<g opacity="0.35">
			<g>
				<path fill="#371A45" d="M831.055,2445.001c43.189,0.269,87.859,10.271,106.562,34.265
					c20.048,25.609,28.749,54.089,39.961,78.397c0.897-17.851,6.952-40.634,25.205-66.019
					c43.056-59.784,493.032-279.593,470.428-301.435C1459.352,2176.801,840.518,2440.964,831.055,2445.001z"/>
			</g>
		</g>
		<g opacity="0.35">
			<g>
				<path fill="#371A45" d="M1066.829,2616.102c68.126,2.287,124.592-31.888,142.308,44.267l212.766-268.2
					C1275.334,2482.675,1108.898,2589.103,1066.829,2616.102z"/>
			</g>
		</g>
		<g>
			<g>
				<path fill="#371A45" d="M1208.201,2664.578l-0.884-3.796c-12.69-54.505-44.893-50.894-89.448-45.903
					c-19.763,2.214-42.161,4.729-65.459,2.038c-55.053-6.343-68.867-39.429-84.863-77.741
					c-8.176-19.583-16.631-39.832-31.421-58.765c-24.192-30.972-94.639-38.794-148.623-30.41c-5.5,0.837-7.261-0.848-7.771-2.422
					c-0.808-2.498,1.489-5.425,6.155-7.847l263.657-200.169l745.706-315.083L1208.201,2664.578z M1151.46,2608.502
					c27.4,0,48.401,8.737,58.599,47.681l573.091-722.503l-731.736,309.116l-263.662,200.21c-3.103,1.587-4.143,2.949-4.365,3.445
					c0.129-0.037,0.498,0.024,1.201,0.026c0.554,0,1.318-0.039,2.339-0.197c55.054-8.538,127.092-0.288,152.168,31.812
					c15.1,19.333,23.655,39.821,31.926,59.634c15.54,37.219,28.96,69.362,81.819,75.451c22.881,2.64,45.051,0.154,64.609-2.041
					C1129.553,2609.781,1140.979,2608.502,1151.46,2608.502z"/>
			</g>
		</g>
		<g>
			<g>
				<path fill="#371A45" d="M1200.11,2700.621l-8.433-36.196c-9.023-38.753-24.492-38.911-72.021-33.589
					c-20.612,2.31-43.972,4.932-69.084,2.033c-64.404-7.422-81.404-48.132-97.842-87.505c-7.769-18.604-15.798-37.839-29.258-55.07
					c-19.419-24.861-84.414-32.034-133.508-24.427c-14.875,2.337-23.047-5.742-25.508-13.342
					c-2.571-7.935-0.491-18.855,12.688-26.313l264.483-200.799l2.072-0.876l803.171-339.295L1200.11,2700.621z M1150.72,2592.552
					c24.941,0,48.518,6.146,63.867,32.08l516.941-651.714l-671.792,283.794l-224.302,170.291
					c46.902,0.83,94.092,12.756,116.313,41.206c16.431,21.035,25.813,43.506,34.089,63.33c15.256,36.535,25.334,60.674,68.84,65.686
					c21.06,2.43,41.357,0.154,60.981-2.046C1127.175,2593.89,1139.099,2592.552,1150.72,2592.552z M786.895,2441.331h0.049H786.895z
					"/>
			</g>
		</g>
		<g>
			<g>
				<path fill="#ED1B24" d="M2030.063,1818.97L809.147,2263.502c-102.527,37.33-164.931,141.329-149.63,249.361v0.001
					c0,0,176.778-104.167,308.188-180.823C1224.368,2182.322,2030.063,1818.97,2030.063,1818.97z"/>
			</g>
		</g>
		<g opacity="0.7">
			<g>
				<path fill="#FFFFFF" d="M659.505,2512.858c0,0,7.13-4.216,19.599-11.526c2.063-93.825,61.354-178.771,151.861-211.78
					l841.916-306.547c194.871-90.775,351.039-161.234,357.002-163.97L809.168,2263.494
					C706.641,2300.854,644.211,2404.815,659.505,2512.858z"/>
			</g>
		</g>
		<g>
			<g>
				<path fill="#371A45" d="M645.518,2541.937l-3.76-26.555c-16.394-115.73,51.423-228.75,161.252-268.738l1220.914-444.531
					l13.513,33.211c-8.05,3.63-807.773,364.678-1060.688,512.214c-129.875,75.76-306.355,179.741-308.123,180.784L645.518,2541.937z
					 M1625.881,1985.223l-810.596,295.137c-85.247,31.038-140.918,113.486-140.078,202.446
					c53.384-31.423,182.49-107.36,283.462-166.26C1093.792,2237.723,1383.018,2098.79,1625.881,1985.223z"/>
			</g>
		</g>
		<g>
			<g>
				<path fill="#FFFFFF" d="M1534.647,3212.319c75.212,53.147,238.51,46.599,212.812-172.401c0,0,157.422-18.344,286.141-80.146
					c63.955-30.722,120.824-72.163,147.779-127.418l-342.248-512.003c0,0-86.604,204.021-159.934,310.494
					c-41.934,60.861-103.333,116.16-156.346,152.04c-14.441,9.777-28.255,18.119-40.903,24.712
					C1392.294,2854.465,1432.57,3140.201,1534.647,3212.319z"/>
			</g>
		</g>
		<g opacity="0.35">
			<g>
				<path fill="#371A45" d="M1496.122,3171.462c11.526,16.908,24.443,30.901,38.525,40.857
					c75.212,53.147,238.51,46.599,212.812-172.401c0,0,157.377-18.344,286.096-80.146h0.045
					c12.781-6.145,25.295-12.692,37.314-19.733c2.242-1.301,4.485-2.646,6.727-4.037c17.313-10.45,33.549-21.932,48.169-34.489
					c1.167-1.031,2.333-2.019,3.499-3.05c5.067-4.484,9.956-9.104,14.576-13.903c1.391-1.435,2.78-2.87,4.125-4.351
					c2.736-2.96,5.383-5.92,7.895-8.97c1.121-1.346,2.242-2.735,3.363-4.126c2.557-3.229,5.023-6.503,7.355-9.867
					c1.076-1.524,2.107-3.05,3.095-4.574c1.167-1.705,2.242-3.409,3.319-5.158c0.986-1.614,1.973-3.273,2.915-4.978
					c0.718-1.211,1.39-2.422,2.063-3.678c0.493-0.853,0.942-1.75,1.391-2.646c0.718-1.301,1.345-2.557,1.974-3.857l-342.248-512.003
					c0,0,0,0.045-0.045,0.135c-0.044,0.045-0.044,0.09-0.044,0.135c-0.09,0.18-0.18,0.403-0.359,0.763
					c-0.852,2.018-2.959,6.951-6.144,14.217c-21.573,49.245-92.077,206.309-153.341,295.245
					c-41.934,60.861-103.333,116.16-156.346,152.04c58.608,67.794,137.17,121.742,227.756,153.499
					c32.712,11.468,26.083,59.469-8.5,61.829c-77.644,5.298-133.593-3.414-133.593-3.414
					C1713.463,3178.683,1574.025,3215.728,1496.122,3171.462z"/>
			</g>
		</g>
		<g>
			<g>
				<path fill="#371A45" d="M1624.172,3257.809c-37.139,0.002-73.787-12.417-99.89-30.859
					c-74.185-52.41-116.316-202.83-109.124-310.438c4.27-63.884,24.49-107.038,58.472-124.797
					c54.902-28.696,138.022-94.463,190.791-171.058c71.494-103.776,157.319-305.298,158.179-307.321
					c3.87-9.121,14.417-13.379,23.521-9.507c9.121,3.869,13.379,14.399,9.507,23.521c-3.562,8.398-88.123,206.919-161.66,313.664
					c-56.233,81.624-145.02,151.819-203.716,182.498c-21.677,11.328-35.999,46.098-39.294,95.393
					c-6.409,95.894,30.63,233.953,94.028,278.743c33.469,23.643,91.731,35.288,133.779,10.288
					c43.018-25.574,60.603-82.944,50.854-165.906l-2.095-17.824l17.83-2.088c3.43-0.402,343.954-41.973,419.914-197.648
					c4.349-8.904,15.093-12.596,23.989-8.257c8.906,4.346,12.603,15.085,8.257,23.989
					c-74.817,153.332-356.467,204.302-430.544,215.197c8.628,111.526-32.639,161.245-69.871,183.379
					C1674.646,3252.125,1649.297,3257.809,1624.172,3257.809z"/>
			</g>
		</g>
		<g>
			<g>
				<path fill="#371A45" d="M1864.644,3031.277c-0.832,0-1.68-0.078-2.527-0.239c-99.417-18.901-298.43-96.143-340.071-253.195
					c-1.904-7.183,2.375-14.549,9.559-16.453c7.168-1.906,14.548,2.373,16.452,9.559
					c35.437,133.657,210.239,212.959,319.084,233.654c7.302,1.387,12.095,8.431,10.706,15.73
					C1876.621,3026.785,1870.977,3031.277,1864.644,3031.277z"/>
			</g>
		</g>
		<g>
			<g>
				<path fill="#371A45" d="M1748.904,3056.8c-9.408,0.831-17.479,0.592-26.077-0.202c-4.242-0.308-8.456-0.845-12.642-1.557
					c-4.203-0.582-8.382-1.38-12.522-2.358c-16.645-3.526-32.798-9.547-48.259-16.946c-15.397-7.679-29.893-17.375-42.612-28.908
					c-12.511-11.894-22.651-26.086-29.248-41.319c-0.57-1.318,0.036-2.85,1.354-3.421c0.968-0.419,2.049-0.204,2.783,0.461
					l0.129,0.119c11.92,10.842,24.122,19.873,37.494,26.836c13.479,6.786,27.437,11.972,41.762,16.063
					c14.449,3.873,29.194,6.363,43.919,8.893c7.377,1.201,14.797,2.259,22.201,3.313c7.268,1.051,15.149,2.044,21.715,3.148
					l1.403,0.236c9.793,1.647,16.396,10.923,14.749,20.716C1763.667,3050.115,1756.859,3056.096,1748.904,3056.8z"/>
			</g>
		</g>
		<g>
			<g>
				<path fill="#FFFFFF" d="M2473.844,2637.034c37.582,30.273,74.449,53.729,102.974,66.602
					c239.99,108.267,362.923-106.339,339.556-215.906c-31.574-147.914-179.533-85.887-179.533-85.887
					c-53.953-5.606-100.014-32.427-130.242-87.367c-37.045-67.185-50.412-176.394-25.609-340.318
					c4.082-26.955,9.194-55.435,15.384-85.438l-46.194,66.602l-239.318,345.072
					C2254.572,2410.095,2367.101,2551.057,2473.844,2637.034z"/>
			</g>
		</g>
		<g opacity="0.35">
			<g>
				<path fill="#371A45" d="M2295.835,2363.676c0,2.063,0.045,4.126,0.134,6.234c0,0.313,0.045,0.627,0.045,0.896
					c0.09,1.839,0.18,3.723,0.359,5.606c0,0.313,0.045,0.583,0.045,0.896c0.18,1.974,0.359,3.947,0.628,5.92
					c0.179,1.705,0.448,3.454,0.718,5.158c0.09,0.897,0.224,1.794,0.403,2.646c1.031,6.188,2.376,12.333,3.991,18.522
					c0.583,2.197,1.211,4.396,1.884,6.593c0,0.045,0,0.045,0,0.09c0.583,1.929,1.211,3.901,1.839,5.875
					c0.135,0.404,0.27,0.808,0.404,1.256c0.672,2.019,1.39,4.037,2.152,6.055c0.763,2.243,1.615,4.44,2.512,6.639
					c0.404,1.076,0.852,2.152,1.301,3.184c0.896,2.287,1.883,4.53,2.869,6.772c0.135,0.313,0.27,0.628,0.404,0.896
					c0.584,1.391,1.256,2.781,1.884,4.172c1.076,2.377,2.242,4.754,3.408,7.131c0.674,1.435,1.391,2.87,2.153,4.261
					c2.377,4.664,4.934,9.328,7.58,13.993c1.076,1.884,2.197,3.767,3.318,5.65c7.445,12.514,15.742,24.892,24.757,37.001
					c1.076,1.48,2.198,2.916,3.319,4.396c1.076,1.479,2.197,2.915,3.363,4.396c2.242,2.87,4.529,5.785,6.862,8.655
					c2.242,2.736,4.485,5.473,6.772,8.208c6.055,7.221,12.378,14.352,18.836,21.349c1.256,1.346,2.512,2.735,3.813,4.081
					c14.352,15.294,29.422,29.87,44.715,43.504c1.929,1.704,3.902,3.409,5.83,5.158c0.449,0.358,0.853,0.717,1.256,1.076
					c2.736,2.377,5.473,4.709,8.209,6.996c4.08,3.454,8.162,6.817,12.244,10.092c37.582,30.273,74.449,53.729,102.974,66.602
					c196.396,88.578,314.396-39.02,337.986-148.362c-50.321,82.388-155.673,144.325-308.476,75.392
					c-0.263-0.118-0.526-0.237-0.791-0.357c-53.459-24.318-77.239-87.1-54.898-141.415c24.273-59.013,42.402-118.481,55.959-174.417
					c-37.045-67.185-50.412-176.394-25.609-340.318l-30.811-18.837l-224.338,323.5l-14.98,21.572
					C2300.498,2320.62,2295.835,2341.879,2295.835,2363.676z"/>
			</g>
		</g>
		<g>
			<g>
				<path fill="#371A45" d="M2702.183,2751.09c-41.946,0.002-86.699-10.332-132.749-31.111
					c-86.592-39.072-235.766-163.96-278.989-287.563c-18.149-51.899-16.647-99.072,4.46-140.207
					c4.521-8.818,15.332-12.298,24.153-7.771c8.813,4.524,12.292,15.337,7.771,24.153c-16.447,32.048-17.292,69.724-2.517,111.982
					c38.442,109.932,177.271,229.426,259.878,266.701c117.205,52.881,194.227,21.722,238.201-13.73
					c61.563-49.634,87.201-131.56,76.426-182.09c-7.801-36.564-23.975-61.525-48.074-74.194
					c-45.402-23.859-106.375,0.906-106.987,1.16l-4.204,1.74l-4.563-0.459c-54.42-5.684-97.925-30.334-129.313-73.262
					c-63.283-86.558-72.326-241.787-26.877-461.374c2.01-9.705,11.506-15.942,21.203-13.933c9.703,2.009,15.94,11.501,13.934,21.203
					c-42.697,206.296-35.539,355.998,20.705,432.927c24.349,33.304,57.943,52.891,99.902,58.27
					c17.469-6.353,80.086-25.649,132.682,1.857c34.099,17.832,56.533,50.999,66.682,98.579
					c12.859,60.291-13.963,157.012-88.996,217.508C2803.978,2734.479,2755.342,2751.087,2702.183,2751.09z"/>
			</g>
		</g>
		<g>
			<g>
				<path fill="#FFFFFF" d="M1689.558,2872.314c127.912,58.664,285.558,71.58,446.792,11.303
					c288.383-107.818,399.699-411.047,442.621-629.016c26.999-136.971,26.999-240.26,26.999-240.26l-642.291-392.612
					c-34.399,116.564-81.492,196.889-134.28,258.603c-101.135,118.447-222.948,168.589-315.292,275.511
					c-32.248,37.359-60.906,81.626-83.779,138.182c-0.853,2.063-1.705,4.171-2.511,6.278c-7.266,18.568-13.097,37.181-17.582,55.748
					C1358.254,2570.388,1486.39,2779.072,1689.558,2872.314z"/>
			</g>
		</g>
		<g opacity="0.35">
			<g>
				<path fill="#371A45" d="M2136.35,2883.617c207.295-77.5,323.096-255.957,387.77-431.14
					c-68.171,154.193-179.893,301.435-362.967,369.875c-430.019,160.786-834.742-199.133-717.056-559.499
					c-5.741,11.886-11.167,24.354-16.28,37.449C1283.804,2668.384,1696.869,3047.946,2136.35,2883.617z"/>
			</g>
		</g>
		<g>
			<g>
				<path fill="#371A45" d="M1923.008,2940.896c-43.848,0-87.371-4.841-129.907-14.58c-105.486-24.15-200.281-76.55-274.136-151.535
					c-132.676-134.702-172.988-314.526-107.837-481.028c56.384-144.089,146.395-211.108,241.689-282.065
					c111.602-83.096,227.002-169.021,293.633-395.02l6.611-22.429l670.847,410.026v10.062c0,7.189-0.676,178.308-59.463,373.957
					c-78.486,261.204-224.35,438.301-421.828,512.142C2070.672,2927.327,1996.394,2940.896,1923.008,2940.896z M1974.011,1649.095
					c-70.833,220.901-187.156,307.524-299.766,391.372c-91.057,67.801-177.065,131.841-229.705,266.362
					c-59.841,152.93-22.463,318.452,99.985,442.773c116.982,118.768,332.231,211.929,585.522,117.215
					c235.433-88.032,347.349-313.973,399.78-488.011c49.561-164.514,56.924-315.158,58.013-354.533L1974.011,1649.095z"/>
			</g>
		</g>
		<g opacity="0.35">
			<g>
				<path fill="#371A45" d="M1829.399,1880.332c130.692,273.537,448.9,439.75,749.572,374.27
					c26.999-136.971,26.999-240.26,26.999-240.26l-642.291-392.612C1929.279,1738.294,1882.187,1818.618,1829.399,1880.332z"/>
			</g>
		</g>
		<g opacity="0.35">
			<g>
				<path fill="#371A45" d="M1957.097,1885.033c94.671-6.857,161.511-123.719,142.379-254.128
					c-57.133,138.024-205.112-85.449-216.375-150.038C1640.848,1546.594,1783.481,1901.357,1957.097,1885.033z"/>
			</g>
		</g>
		<g opacity="0.7">
			<g>
				<path fill="#FFFFFF" d="M2159.771,1509.912c38.037,126.966,183.013,85.973,168.633-29.326
					C2302.055,1336.198,2130.406,1381.754,2159.771,1509.912z"/>
			</g>
		</g>
		<g>
			<g>
				<g>
					<path fill="#FFFFFF" d="M3169.906,1842.623c-511.564,805.008-1654.62,134.628-1248.258-689.148
						C2425.758,317.011,3606.651,1011.075,3169.906,1842.623z"/>
				</g>
			</g>
			<g>
				<g>
					<path fill="#FFFFFF" d="M3169.906,1842.623c-511.564,805.008-1654.62,134.628-1248.258-689.148
						C2425.758,317.011,3606.651,1011.075,3169.906,1842.623z"/>
				</g>
			</g>
			<g>
				<g>
					<path fill="#FFFFFF" d="M3169.906,1842.623c-511.564,805.008-1654.62,134.628-1248.258-689.148
						C2425.758,317.011,3606.651,1011.075,3169.906,1842.623z"/>
				</g>
			</g>
			<g>
				<g>
					<path fill="#371A45" d="M2559.731,2219.217c-123.601,0-248.218-32.868-361.719-96.682
						c-159.243-89.531-278.916-229.583-336.968-394.355c-64.907-184.227-48.188-385.044,48.353-580.75l0.549-1.006
						c118.423-196.499,283.022-323.75,476.003-368.002c171.131-39.246,354.485-10.662,516.268,80.473
						c162.127,91.326,282.922,233.909,340.137,401.485c64.121,187.802,43.252,391.335-60.354,588.596l-0.564,0.974
						c-120.322,189.341-284.497,311.543-474.777,353.396C2658.364,2213.968,2609.127,2219.217,2559.731,2219.217z
						 M1933.646,1160.035c-207.361,421.032-1.446,781.706,277.759,938.682c285.778,160.676,689.258,141.662,946.67-262.947
						c222.949-425.046,16.752-791.953-269.268-953.068C2605.574,723.149,2185.938,741.91,1933.646,1160.035z M3169.904,1842.623
						h0.052H3169.904z"/>
				</g>
			</g>
			<g opacity="0.35">
				<g>
					<path fill="#293856" d="M3169.906,1842.6c-429.745,703-1454.113,293.321-1319.988-487.15
						c39.825,255.165,127.229,267.883,257.324,401.009c398.482,436.01,1052.354,143.056,1148.768-367.425
						C3278.926,1547.933,3246.718,1707.284,3169.906,1842.6z"/>
				</g>
			</g>
			<g>
				<g>
					<path fill="#371A45" d="M2559.731,2224.72c-124.543,0-250.081-33.107-364.414-97.39
						c-160.407-90.186-280.964-231.292-339.463-397.324c-65.41-185.654-48.601-387.947,48.606-585.01l0.774-1.414
						c119.211-197.805,285.016-325.93,479.484-370.522c172.471-39.543,357.218-10.767,520.199,81.04
						c163.305,91.99,284.989,235.645,342.644,404.502c64.621,189.268,43.635,394.302-60.691,592.933l-0.791,1.367
						c-121.126,190.605-286.497,313.645-478.239,355.817C2659.158,2219.427,2609.517,2224.72,2559.731,2224.72z M1938.479,1162.677
						c-205.657,417.756-1.363,775.518,275.622,931.245c283.475,159.375,683.719,140.456,939.204-260.908
						c221.05-421.699,16.528-785.696-267.199-945.521C2605.161,729.236,2188.892,747.911,1938.479,1162.677z M3169.904,1842.623
						h0.052H3169.904z"/>
				</g>
			</g>
			<g>
				<g>
					<path fill="#371A45" d="M3060.103,1988.644c-709.228,445.263-1344.451-379.142-811.062-882.19
						C2880.72,579.294,3627.432,1353.191,3060.103,1988.644z"/>
				</g>
			</g>
			<g>
				<g>
					<path fill="#21102B" d="M3239.157,1487.587c24.003,756.493-1056.265,849.34-1191.724,161.319
						C2405.332,2046.594,3046.464,1859.278,3239.157,1487.587z"/>
				</g>
			</g>
			<g>
				<g>
					<path fill="#371A45" d="M2621.553,2201.451c-91.193,0-183.535-20.479-270.262-60.854
						c-144.67-67.352-261.211-182.598-328.156-324.512c-73.842-156.541-81.292-331.203-21.545-505.107
						c66.604-178.782,213.496-326.404,403.154-405.403c190.324-79.276,399.775-79.372,574.646-0.275l2.373,1.325
						c147.233,99.583,247.72,256.624,282.944,442.197c33.274,175.303,3.752,358.255-81.001,501.941l-0.061,0.104
						c-100.652,167.72-237.762,280.848-396.509,327.153C2733.428,2193.685,2677.707,2201.451,2621.553,2201.451z M2698.213,878.077
						c-93.934,0-189.79,19.025-281.147,57.08c-181.491,75.599-321.931,216.514-385.308,386.618
						c-123.367,359.104,74.131,669.224,333.059,789.769c225.352,104.909,567.796,95.285,791.307-277.095
						c156.818-265.928,117.307-690.898-191.184-900.513C2882.121,896.7,2791.104,878.077,2698.213,878.077z M3169.904,1842.623
						h0.049H3169.904z"/>
				</g>
			</g>
			<g>
				<g>
					<path fill="#371A45" d="M2651.043,2135.335c-36.885,0-73.453-3.115-109.576-9.395
						c-153.131-26.613-289.824-108.96-384.895-231.867c-87.793-113.499-131.867-251.849-124.104-389.561
						c8.574-152.109,78.918-294.575,203.422-412l0.872-0.773c149.541-124.798,316.179-186.567,481.938-178.563
						c149.043,7.178,288.862,70.83,393.709,179.236c107.285,110.928,167.049,257.126,168.281,411.667
						c1.374,172.649-69.959,344.622-206.294,497.327l-1.808,2.023l-2.297,1.443
						C2932.951,2091.1,2789.932,2135.335,2651.043,2135.335z M2261.766,1120.794c-261.389,246.897-225.996,554.458-74.876,749.829
						c166.452,215.193,496.938,330.281,860.723,103.23c284.069-319.976,218.66-667.224,37.249-854.795
						C2902.424,930.436,2577.207,857.887,2261.766,1120.794z M3060.103,1988.644h0.049H3060.103z"/>
				</g>
			</g>
			<g>
				<g>
					<path fill="#FFFFFF" d="M1746.078,1658.839c54.719,331.833,391.898,304.921,371.594-17.139
						C2073.086,1291.805,1712.653,1320.53,1746.078,1658.839z"/>
				</g>
			</g>
			<g>
				<g>
					<path fill="#371A45" d="M1951.375,1914.898c-91.081,0-195.073-76.287-224.204-252.942l-0.161-1.232
						c-18.003-182.195,73.54-276.458,166.211-286.937c54.089-6.12,109.946,15.254,153.28,58.633
						c47.857,47.908,79.043,119.438,90.182,206.858l0.115,1.216c10.998,174.463-76.11,263.018-167.319,273.386
						C1963.521,1914.557,1957.473,1914.898,1951.375,1914.898z M1765.09,1656.337c27.148,163.31,122.737,228.283,200.056,219.46
						c73.086-8.309,142.627-83.345,133.438-232.28c-21.188-164.609-117.139-241.143-201.055-231.646
						C1823.042,1420.297,1749.9,1500.394,1765.09,1656.337z"/>
				</g>
			</g>
			<g>
				<g>
					<path fill="#FFFFFF" d="M1733.327,1677.61c44.627,268.863,297.566,252.969,281.183-7.521
						C1979.307,1383.197,1704.442,1400.776,1733.327,1677.61z"/>
				</g>
			</g>
			<g>
				<g>
					<path fill="#371A45" d="M1892.615,1891.6c-71.331,0-153.77-63.713-178.193-210.852l-0.154-1.147
						c-15.676-150.254,54.61-227.476,126.548-235.643c80.972-9.165,173.196,64.725,192.715,223.797l0.104,1.13
						c8.945,142.241-57.685,213.973-127.688,221.963C1901.558,1891.349,1897.107,1891.6,1892.615,1891.6z M1752.329,1675.048
						c21.975,131.291,92.7,184.187,149.272,177.719c51.904-5.925,100.991-64.155,93.816-180.908
						c-16.611-133.935-88.166-196.909-150.278-189.816C1791.458,1488.136,1739.578,1551.126,1752.329,1675.048z"/>
				</g>
			</g>
			<g opacity="0.6">
				<g>
					<path fill="#FFFFFF" d="M2266.269,1708.21c18.536,50.973,86.634,33.129,71.629-24.12
						C2319.362,1633.122,2251.264,1650.965,2266.269,1708.21z"/>
				</g>
			</g>
			<g opacity="0.6">
				<g>
					<path fill="#FFFFFF" d="M3135.336,1537.316c79.668-496.373-434.714-556.417-589.601-449.903
						C2875.272,1107.272,3022.798,1309.413,3135.336,1537.316z"/>
				</g>
			</g>
			<g opacity="0.35">
				<g>
					<path fill="#371A45" d="M2028.632,1731.026c4.528-38.07-1.37-77.518-15.077-113.511
						c-46.413,182.585-230.378,103.85-274.042-26.451C1701.477,1860.833,1976.455,1984.271,2028.632,1731.026z"/>
				</g>
			</g>
		</g>
		<g>
			<g>
				<path fill="#371A45" d="M2745.591,2417.527c-1.113,0.729-3.632,2.493-5.518,3.959c-2.022,1.635-4.058,3.233-6.045,5.02
					c-2.035,1.683-3.965,3.53-5.87,5.42c-1.967,1.811-3.777,3.803-5.611,5.778c-7.271,7.932-13.978,16.54-19.514,25.936
					c-3.07,4.517-5.219,9.582-7.85,14.387c-2.337,4.956-4.449,10.054-6.53,15.165c-1.616,5.294-3.677,10.463-5.011,15.881
					c-1.2,5.453-2.938,10.802-3.814,16.375c-0.796,5.584-1.917,11.14-2.502,16.796c-0.373,5.686-0.792,11.383-1.303,17.104
					c-0.364,10.739,0.66,21.31,3.779,31.441c6.36,20.135,18.986,38.631,36.628,55.858l0.141,0.138
					c0.604,0.59,0.616,1.559,0.025,2.163c-0.364,0.373-0.883,0.519-1.361,0.438c-25.741-4.555-48.203-24.404-58.78-49.848
					c-5.402-12.65-8.183-26.373-9.059-39.91c-0.162-6.422-0.23-12.869-0.254-19.328c0.16-6.46,0.895-12.939,1.344-19.436
					c2.75-25.899,10.308-51.962,23.668-75.24c6.353-11.81,14.508-22.643,23.551-32.668c2.252-2.521,4.57-4.985,7.088-7.281
					c2.437-2.363,4.924-4.683,7.584-6.862c2.544-2.268,5.354-4.336,8.146-6.406c3.016-2.116,5.472-3.853,9.59-6.214
					c8.58-4.923,19.524-1.958,24.446,6.622c4.737,8.256,2.171,18.701-5.673,23.864L2745.591,2417.527z"/>
			</g>
		</g>
		<g>
			<g>
				<path fill="#FFFFFF" d="M2783.754,2390.229c0,0-87.676,21.45-120.408,105.269c0,0-34-2.312-40.455-40.848
					c-7.534-44.983,28.554-110.286,92.71-114.875C2764.281,2336.293,2783.754,2390.229,2783.754,2390.229z"/>
			</g>
		</g>
		<g opacity="0.35">
			<g>
				<path fill="#371A45" d="M2622.878,2454.631c6.458,38.57,40.454,40.857,40.454,40.857
					c32.74-83.823,120.421-105.262,120.421-105.262s-4.261-11.796-13.769-23.994c-25.706,5.613-68.822,20.249-101.311,58.072
					c-12.378,14.408-35.842,11.407-43.031-6.175c-0.085-0.21-0.17-0.422-0.254-0.635
					C2621.892,2430.277,2620.949,2443.104,2622.878,2454.631z"/>
			</g>
		</g>
		<g>
			<g>
				<path fill="#371A45" d="M2674.973,2513.829l-12.814-0.872c-16.531-1.123-49.614-14.15-56.525-55.415
					c-4.881-29.138,5.107-63.786,26.068-90.422c20.914-26.572,50.267-42.483,82.652-44.8c61.211-4.302,84.883,59.255,85.861,61.968
					l6.613,18.313l-18.881,4.619c-1.447,0.371-79.539,20.989-108.301,94.644L2674.973,2513.829z M2719.934,2357.12
					c-1.01,0-2.038,0.036-3.083,0.112c-22.432,1.604-42.903,12.803-57.644,31.533c-14.83,18.845-22.31,43.571-19.056,62.995
					c2.073,12.381,8.018,18.94,13.521,22.41c27.7-55.599,77.031-82.503,105.063-93.872
					C2751.221,2369.469,2738.566,2357.12,2719.934,2357.12z"/>
			</g>
		</g>
		<g>
			<g>
				<path fill="#FFFFFF" d="M1657.805,2074.351l331.169,96.606c115.667-143.429,255.419-471.594,255.419-471.594
					s38.705-1.39,82.389-21.124c32.65-14.755,68.081-39.781,92.211-82.119c7.714-13.41,14.262-28.614,19.195-45.792
					c48.482-168.32-148.767-293.495-315.921-244.206C1859.494,1383.667,1886.089,1764.126,1657.805,2074.351z"/>
			</g>
		</g>
		<g opacity="0.35">
			<g>
				<path fill="#371A45" d="M2152.54,1648.684c48.394,22.29,117.774,28.659,174.241,29.556
					c32.65-14.755,68.081-39.781,92.211-82.119c-92.48,4.574-326.82,3.408-356.062-122.395
					C2062.931,1473.726,2005.434,1580.916,2152.54,1648.684z"/>
			</g>
		</g>
		<g>
			<g>
				<path fill="#371A45" d="M1652.989,2070.826c6.865-16.354,15.264-31.359,22.816-46.886c7.939-15.251,15.618-30.57,23.755-45.578
					c15.906-30.258,31.058-60.847,45.881-91.706c14.559-30.992,28.862-62.238,41.673-94.214
					c13.092-31.858,24.9-64.353,36.821-96.901c23.882-65.068,46.595-131.189,76.897-195.359
					c15.22-32.004,32.504-63.513,53.798-92.897c21.13-29.401,47.04-56.335,77.492-77.479l11.512-7.773
					c3.778-2.688,8.017-4.634,12.008-6.978l12.162-6.727c4.183-1.967,8.436-3.789,12.655-5.683
					c4.243-1.828,8.423-3.846,12.727-5.501l13.077-4.488c4.389-1.425,8.664-3.121,13.148-4.307l13.465-3.517
					c36.171-8.228,73.734-9.66,110.199-4.048c36.516,5.29,71.939,17.542,104.204,35.777c32.213,18.252,61.139,43.438,82.515,74.817
					c10.641,15.684,19.246,32.957,25.076,51.25c5.842,18.29,8.64,37.586,8.566,56.733c-0.063,19.169-3.051,38.151-8.15,56.336
					c-5.211,17.966-12.518,35.549-22.188,51.892c-19.262,32.8-48.046,59.892-80.942,77.923
					c-16.43,9.097-33.777,16.199-51.566,21.521c-8.906,2.632-17.924,4.835-27.06,6.58c-4.57,0.873-9.168,1.627-13.828,2.248
					c-4.79,0.632-9.049,1.124-14.686,1.416l15.862-10.899c-17.906,41.547-36.583,82.295-55.816,123.011
					c-19.238,40.664-39.095,81.052-59.937,121.004c-10.217,20.068-21.161,39.805-31.803,59.689
					c-10.979,19.729-21.256,39.859-32.738,59.412c-2.793,4.927-5.717,9.776-8.622,14.636c-3.001,4.823-6.221,9.513-9.353,14.253
					c-3.104,4.761-6.422,9.381-9.658,14.049l-4.898,6.973l-5.299,6.75c-7.201,8.909-14.515,17.678-22.609,25.883
					c-8.432,7.999-16.984,15.819-26.497,22.668c-2.778,2.001-6.654,1.37-8.655-1.409c-1.301-1.806-1.491-4.075-0.701-5.991
					l0.045-0.107c17.592-42.356,40.338-79.359,63.295-117.388c5.664-9.52,11.826-18.72,17.41-28.324
					c5.652-9.556,11.301-19.121,16.77-28.785c10.675-19.507,21.328-39.022,31.475-58.852
					c20.594-39.477,40.273-79.499,59.346-119.813c19.033-40.283,37.683-80.989,55.234-121.714l4.439-10.302l11.424-0.6
					c3.033-0.158,7.414-0.595,11.227-1.123c3.946-0.525,7.918-1.176,11.873-1.933c7.918-1.513,15.786-3.435,23.53-5.722
					c15.474-4.631,30.437-10.779,44.39-18.505c27.967-15.388,51.43-37.635,67.438-64.769c8.023-13.553,14.176-28.289,18.637-43.664
					c4.248-15.258,6.672-30.851,6.73-46.408c0.061-15.543-2.164-31.043-6.896-45.854c-4.73-14.806-11.743-28.933-20.586-41.966
					c-17.745-26.055-42.427-47.84-70.586-63.758c-28.166-15.912-59.484-26.813-91.714-31.45
					c-32.192-4.975-65.218-3.646-96.761,3.508l-11.732,3.067c-3.912,1.021-7.718,2.57-11.585,3.82l-11.565,3.941
					c-3.791,1.457-7.432,3.253-11.16,4.853l-11.112,4.955l-10.614,5.905c-3.482,2.058-7.217,3.703-10.505,6.083l-10.062,6.812
					c-26.632,18.489-49.676,42.236-69.042,69.19c-19.488,26.884-35.814,56.494-50.393,87.17
					c-29.081,61.509-51.672,126.989-75.598,192.26c-23.975,65.275-48.141,131.09-77.205,195.249
					c-14.889,31.917-31.775,62.99-50.479,92.949c-9.784,14.734-19.646,29.397-31.087,42.975
					c-10.89,13.916-23.271,26.768-36.251,38.906c-2.452,2.293-6.299,2.165-8.592-0.288c-1.686-1.803-2.063-4.36-1.168-6.5
					L1652.989,2070.826z"/>
			</g>
		</g>
		<g>
			<g>
				<path fill="#371A45" d="M2065.502,1433.349c7.104,11.529,10.785,21.12,14.232,31.16c3.906,9.878,7.474,20.095,12.464,30.222
					c5.077,10.079,11.876,19.443,19.446,28.306c0.934,1.162,1.875,2.314,2.517,2.912c0.663,0.755,1.445,1.521,2.343,2.287
					c0.801,0.779,1.736,1.544,2.723,2.303c0.922,0.776,1.938,1.53,3.018,2.268c4.209,2.979,8.933,5.812,13.965,8.376
					c20.268,10.265,43.551,17.418,66.973,22.48c23.518,5.035,47.617,8.009,71.57,8.563c23.918,0.553,47.86-1.233,70.171-6.831
					c22.214-5.515,42.892-15.315,56.27-30.36c6.768-7.438,11.456-16.217,14.411-25.849c2.787-9.71,3.688-20.321,3.04-31.246
					c-0.341-5.466-1.058-11.01-2.081-16.565c-1.066-5.576-3.153-10.963-5.116-16.392c-2.03-5.413-3.203-11.085-3.833-17.164
					c-0.287-6.186,0.061-12.744,3.859-21.142l0.148-0.328c1.866-4.125,6.625-6.041,10.803-4.479
					c8.611,3.239,14.02,8.221,17.912,13.924c3.889,5.674,6.449,12.052,7.945,18.72c1.531,6.675,2.286,13.565,3.604,20.354
					c1.186,6.845,2.147,13.796,2.574,20.903c0.842,14.187-0.24,29.043-4.441,43.564c-4.329,14.462-11.855,28.38-22.066,39.602
					c-10.059,11.394-22.351,20.042-35.004,26.686c-12.737,6.551-25.969,11.285-39.258,14.566
					c-26.619,6.643-53.392,8.488-79.782,7.907c-26.416-0.622-52.534-3.853-78.271-9.355c-25.734-5.63-51.105-13.183-75.852-25.658
					c-6.184-3.163-12.32-6.774-18.387-11.073c-1.518-1.048-3.028-2.17-4.529-3.407c-1.503-1.171-3-2.404-4.481-3.799
					c-2.832-2.429-6.269-6.226-8.081-8.527c-8.813-10.28-16.621-21.534-24.307-33.168c-7.518-11.731-13.938-24.87-16.43-39.366
					c-2.445-14.312-1.851-30.431,10.428-43.661c2.395-2.581,6.428-2.732,9.008-0.337c0.426,0.394,0.784,0.832,1.077,1.302
					L2065.502,1433.349z"/>
			</g>
		</g>
		<g>
			<g>
				<path fill="#FFFFFF" d="M2445.215,1511.147c0,0-137.666-11.333-159.757,30.545c-26.727,50.666,18.188,76.776,62.091,85.903
					c42.517,8.839,73.68,13.709,95.119-19.328C2471.937,1563.168,2445.215,1511.147,2445.215,1511.147z"/>
			</g>
		</g>
		<g opacity="0.35">
			<g>
				<path fill="#371A45" d="M2347.547,1627.604c42.518,8.835,73.688,13.679,95.125-19.33c16.326-25.161,15.205-52.475,11.033-71.715
					c-2.063,8.521-5.561,17.177-11.033,25.564c-21.438,33.009-52.607,28.165-95.125,19.33c-26.058-5.427-52.475-16.818-64.046-35.79
					C2261.121,1593.743,2304.805,1618.68,2347.547,1627.604z"/>
			</g>
		</g>
		<g>
			<g>
				<path fill="#371A45" d="M2393.606,1651.624c-16.458,0-33.478-3.54-49.62-6.895c-22.849-4.751-63.435-17.505-78.525-49.543
					c-6.024-12.798-10.134-33.882,4.52-61.66c26.154-49.59,151.756-41.878,176.67-39.819l9.689,0.799l4.441,8.646
					c1.279,2.493,30.957,61.646-3.433,114.642C2440.242,1644.151,2417.52,1651.624,2393.606,1651.624z M2405.871,1527.073
					c-49.714,0-96.992,7.729-104.934,22.783c-6.447,12.222-7.695,22.171-3.811,30.415c6.201,13.164,26.381,24.451,53.984,30.191
					c46.547,9.68,63.22,9.323,76.877-11.722c16.948-26.118,10.142-56.313,5.139-70.892
					C2424.111,1527.332,2414.949,1527.073,2405.871,1527.073z"/>
			</g>
		</g>
		<g>
			<g>
				<path fill="#FFFFFF" d="M1446.094,2303.712c0,0-122.726,185.141-214.496,276.742
					c-66.745,66.623-162.792,118.805-226.606,138.632c-96.814,30.079-109.789,318.17-22.663,407.236
					c64.24,65.671,226.096,88.351,241.094-131.522c0,0,375.989,3.635,486.53-145.519l0,0c27.893-30.945,31.811-76.662,9.59-111.901
					L1446.094,2303.712z"/>
			</g>
		</g>
		<g opacity="0.35">
			<g>
				<path fill="#371A45" d="M937.61,3037.631c9.597,36.507,24.443,67.991,44.715,88.712
					c64.225,65.66,226.086,88.309,241.111-131.544c0,0,375.975,3.633,486.528-145.537c15.832-17.536,23.905-39.871,23.905-62.296
					c0-0.171,0-0.343-0.001-0.514c-0.145-26.392-32.146-39.675-51.618-21.858c-2.616,2.394-5.092,4.843-7.313,7.303
					c-210.748,235.236-583.608,123.293-583.608,123.293c125.585,215.965-100.585,247.075-143.987,153.788
					C945.282,3044.549,940.66,3041.712,937.61,3037.631z"/>
			</g>
		</g>
		<g>
			<g>
				<path fill="#371A45" d="M1090.156,3189.601c-46.816,0.002-92.756-22.217-120.652-50.735
					c-62.903-64.302-76.951-219.084-50.608-323.308c15.884-62.837,43.813-102.122,80.774-113.604
					c59.309-18.428,153.22-68.284,219.255-134.197c88.921-88.757,191.885-272.165,192.915-274.009
					c4.829-8.647,15.759-11.735,24.412-6.906c8.647,4.831,11.741,15.762,6.909,24.409c-4.302,7.7-106.414,189.595-198.889,281.901
					c-70.334,70.205-170.579,123.374-233.958,143.064c-23.694,7.363-44.336,39.484-56.633,88.132
					c-23.469,92.852-12.209,234.554,41.472,289.429c29.202,29.852,83.062,51.128,129.485,34.004
					c47.222-17.404,75.193-70.728,80.886-154.201l1.15-16.878l16.919,0.159c3.694,0.104,368.14,1.807,471.946-138.262l1.465-1.733
					c0.078-0.086,14.021-15.117,17.39-34.712c1.677-9.766,10.969-16.304,20.72-14.642c9.766,1.68,16.321,10.955,14.641,20.721
					c-4.763,27.705-21.592,47.702-25.996,52.541c-102.937,137.317-408.159,150.696-483.882,151.875
					c-11.88,112.063-61.917,153.719-102.832,168.799C1121.758,3187.083,1105.903,3189.598,1090.156,3189.601z"/>
			</g>
		</g>
		<g>
			<g>
				<path fill="#371A45" d="M2186.201,1840.87c-0.402,0-0.811-0.018-1.223-0.054c-12.915-1.165-316.656-30.096-346.06-167.337
					c-1.555-7.268,3.071-14.419,10.337-15.976c7.297-1.551,14.421,3.07,15.977,10.336
					c20.977,97.903,239.668,138.711,322.166,146.175c7.399,0.669,12.856,7.212,12.188,14.611
					C2198.955,1835.613,2193.086,1840.87,2186.201,1840.87z"/>
			</g>
		</g>
		<g>
			<g>
				<path fill="#371A45" d="M1343.657,3001.988c-0.674,0-1.355-0.052-2.043-0.156c-2.39-0.364-59.224-9.473-115.757-56.533
					c-51.802-43.123-113.047-127.601-110.625-285.151c0.112-7.432,6.05-13.479,13.66-13.245c7.429,0.112,13.36,6.229,13.245,13.66
					c-1.802,117.319,31.807,205.864,99.893,263.179c50.833,42.79,103.149,51.411,103.672,51.494
					c7.329,1.149,12.358,8.02,11.223,15.352C1355.896,2997.232,1350.181,3001.988,1343.657,3001.988z"/>
			</g>
		</g>
		<g>
			<g>
				<path fill="#371A45" d="M1223.845,3009.794c-5.001,0.442-8.701,0.438-12.888,0.229c-4.069-0.211-8.081-0.643-12.058-1.296
					c-3.992-0.572-7.899-1.536-11.819-2.444c-3.854-1.16-7.746-2.206-11.518-3.608c-15.194-5.365-29.249-14.001-41.273-24.582
					c-11.979-10.59-22.318-22.975-29.364-36.854c-3.995-6.651-6.436-14.046-9.129-21.111c-1.5-3.469-2.026-7.324-2.969-10.956
					c-0.872-3.665-1.609-7.34-2.35-10.964c-0.238-1.165,0.514-2.302,1.679-2.54c0.87-0.178,1.725,0.196,2.201,0.883l0.166,0.241
					c4.206,6.083,7.641,12.336,11.813,18.046c4.5,5.516,8.177,11.379,13.225,16.147c8.966,10.356,19.743,18.521,30.816,25.367
					c11.133,6.879,23.231,11.686,35.558,15.478c3.116,0.849,6.235,1.688,9.325,2.615c3.17,0.608,6.288,1.502,9.446,2.135
					c3.171,0.587,6.317,1.309,9.474,1.773l8.821,1.452l1.954,0.321c8.153,1.342,13.676,9.039,12.334,17.192
					C1236.156,3004.2,1230.484,3009.205,1223.845,3009.794z"/>
			</g>
		</g>
		<g>
			<g>
				<path fill="#FFFFFF" d="M2532.203,2494.644l-24.072-34.33c-11.717-16.707-28.282-29.412-47.457-36.396l-320.482-116.716
					c-5.294-1.897-19.839,66.533-21.691,71.843l32.126,83.956L2532.203,2494.644z"/>
			</g>
		</g>
		<g>
			<g>
				<path fill="#371A45" d="M2523.084,2506.37c-0.479,0-0.959-0.02-1.445-0.059l-379.876-31.504l-36.572-95.566l1.507-4.318
					c0.329-1.06,1.693-6.766,2.9-11.802c13.654-57.059,17.051-63.074,24.009-66.836c3.339-1.805,7.28-2.117,10.806-0.848
					l320.539,116.736c21.689,7.897,40.158,22.063,53.413,40.962l18.579,26.496c3.823,5.452,4.141,12.427,0.828,18.201
					C2534.699,2503.189,2529.162,2506.37,2523.084,2506.37z M2516.473,2493.98c0,0,0,0.002,0.002,0.002L2516.473,2493.98z
					 M2159.492,2451.194l347.163,28.789l-8.76-12.492c-10.298-14.686-24.648-25.691-41.499-31.826l-310.361-113.03
					c-4.048,12.549-9.678,36.079-12.124,46.304c-1.03,4.302-1.748,7.293-2.284,9.437L2159.492,2451.194z"/>
			</g>
		</g>
		<g>
			<g>
				<path fill="#FFFFFF" d="M1909.007,2715.117c51.801,37.987,133.966,97.548,135.849,94.543l71.536-127.463l158.454-282.373
					c1.031-1.839-85.305-64.718-134.639-92.614c-20.676-11.706-43.594,16.415-57.139,37.897l-100.194,158.006l-85.753,135.222
					C1880.528,2664.393,1885.73,2698.029,1909.007,2715.117z"/>
			</g>
		</g>
		<g opacity="0.35">
			<g>
				<path fill="#371A45" d="M1909.007,2715.117c51.801,37.987,133.966,97.548,135.849,94.543l71.536-127.463l40.006-164.104
					c0,0-80.998,54.627-144.774,11.033c-11.617-7.938-21.079-16.774-28.749-26.013l-85.753,135.222
					C1880.528,2664.393,1885.73,2698.029,1909.007,2715.117z"/>
			</g>
		</g>
		<g>
			<g>
				<path fill="#371A45" d="M2044.663,2822.313c-7.067,0-23.14-9.185-143.032-97.121c-28.538-20.931-35.149-62.034-15.048-93.577
					l185.919-293.203c33.883-53.799,60.813-49.468,73.844-42.087c30.402,17.199,71.152,45.417,87.261,56.753
					c13.269,9.333,25.739,18.376,35.114,25.456c15.586,11.772,22.7,17.144,17.095,27.324l-230.337,410.41l-2.889,4.624l-5.521,1.128
					C2046.284,2822.171,2045.543,2822.313,2044.663,2822.313z M2044.878,2809.645h0.049H2044.878z M2130.098,2317.088
					c-9.019,0-22.705,12.837-36.463,34.681l-185.954,293.259c-13.059,20.493-9.214,46.839,8.736,60.003
					c78.535,57.604,110.5,79.575,123.491,87.927L2259,2402.56c-20.67-16.021-83.795-61.185-124.965-84.478
					C2132.854,2317.413,2131.533,2317.088,2130.098,2317.088z"/>
			</g>
		</g>
		<g>
			<g>
				<path fill="#FFFFFF" d="M2048.669,2810.333l260.575,38.929c41.174,0.09,70.729-5.74,94.408-43.684l12.065-19.33l120.87-193.615
					c8.162-13.051,13.365-26.91,15.742-40.319c5.561-31.799-15.519-53.058-45.209-71.715l-217.924-79.608
					c-34.848-12.737-73.868,0.045-94.453,30.901l-22.739,37.091l-160.472,261.742
					C1991.8,2762.882,2011.354,2804.771,2048.669,2810.333z"/>
			</g>
		</g>
		<g opacity="0.35">
			<g>
				<path fill="#371A45" d="M2048.669,2810.333l260.575,38.929c41.174,0.09,70.729-5.74,94.408-43.684l12.065-19.33
					c-57.767,7.042-148.004,3.05-210.749-70.772c-59.918-70.414-50.142-174.778-32.964-246.493l-160.472,261.742
					C1991.8,2762.882,2011.354,2804.771,2048.669,2810.333z"/>
			</g>
		</g>
		<g>
			<g>
				<path fill="#371A45" d="M2310.166,2861.78c-0.314,0-0.625,0-0.938,0l-1.824-0.137l-260.588-38.928
					c-21.691-3.24-40.176-17.044-49.443-36.922s-7.954-42.907,3.508-61.604l183.22-298.842
					c24.109-36.18,68.979-50.872,109.37-36.111l219.17,80.057l1.12,0.703c27.535,17.312,58.201,42.556,50.869,84.465
					c-2.68,15.332-8.705,30.818-17.426,44.785l-132.928,212.949C2385.881,2857.688,2347.329,2861.78,2310.166,2861.78z
					 M2261.519,2408.565c-22.165,0-43.464,10.903-56.36,30.249l-182.963,298.442c-7.173,11.696-7.962,25.539-2.164,37.974
					c5.799,12.437,16.907,20.732,30.477,22.759l259.676,38.791c39.333-0.02,63.025-6.001,82.888-37.822l132.927-212.951
					c7.031-11.265,11.875-23.66,14.01-35.853c3.773-21.584-7.376-38.532-38.445-58.293l-216.67-79.144
					C2277.215,2409.913,2269.312,2408.565,2261.519,2408.565z"/>
			</g>
		</g>
		<g>
			<g>
				<path fill="#22A7F0" d="M2240.898,2630.132c-3.8,7.348-42.959,62.271-42.959,62.271s-15.434-7.981-34.385-17.782
					c-23.678-12.244-27.438-52.015-8.398-88.83s53.666-56.733,77.344-44.489c15.979,8.264,34.386,17.783,34.386,17.783
					S2247.088,2618.162,2240.898,2630.132z"/>
			</g>
		</g>
		<g>
			<g>
				<path fill="#22A7F0" d="M2240.898,2630.132c-3.8,7.348-42.959,62.271-42.959,62.271s-15.434-7.981-34.385-17.782
					c-23.678-12.244-27.438-52.015-8.398-88.83s53.666-56.733,77.344-44.489c15.979,8.264,34.386,17.783,34.386,17.783
					S2247.088,2618.162,2240.898,2630.132z"/>
			</g>
		</g>
		<g opacity="0.35">
			<g>
				<path fill="#371A45" d="M2240.898,2630.132c-3.8,7.348-42.959,62.271-42.959,62.271s-15.434-7.981-34.385-17.782
					c-23.678-12.244-27.438-52.015-8.398-88.83s53.666-56.733,77.344-44.489c15.979,8.264,34.386,17.783,34.386,17.783
					S2247.088,2618.162,2240.898,2630.132z"/>
			</g>
		</g>
		<g>
			<g>
				<path fill="#371A45" d="M2201.826,2708.484l-44.014-22.759c-30.266-15.654-36.309-62.072-13.76-105.676
					c10.295-19.91,25.142-36.152,41.805-45.735c18.418-10.596,37.021-12.058,52.385-4.116l43.898,22.703l-3.402,10.156
					c-2.059,6.14-20.291,60.349-26.736,72.814v0.003c-3.904,7.549-34.578,50.729-43.885,63.784L2201.826,2708.484z
					 M2217.189,2550.177c-7.373,0-14.516,3.303-18.869,5.808c-12.373,7.117-24.061,20.073-32.061,35.55
					c-15.573,30.114-14.182,63.078,3.037,71.984l24.744,12.796c16.961-23.919,33.715-48.062,35.754-51.924
					c3.647-7.059,14.009-36.253,21.81-59.136l-24.847-12.85C2223.668,2550.807,2220.405,2550.177,2217.189,2550.177z
					 M2240.898,2630.133h0.049H2240.898z"/>
			</g>
		</g>
		<g>
			<g>
				
					<ellipse transform="matrix(0.8882 0.4594 -0.4594 0.8882 1459.6194 -736.7625)" fill="#22A7F0" cx="2244.079" cy="2631.577" rx="48.265" ry="75.046"/>
			</g>
			<g>
				<path fill="#371A45" d="M2224.98,2714.388c-7.361,0-14.502-1.626-21.115-5.046c-30.267-15.654-36.309-62.073-13.76-105.677
					c10.295-19.909,25.141-36.152,41.804-45.734c18.415-10.596,37.024-12.061,52.386-4.116
					c30.264,15.651,36.309,62.07,13.76,105.676l0,0C2280.432,2693.567,2251.312,2714.388,2224.98,2714.388z M2263.242,2573.792
					c-7.373,0-14.517,3.306-18.869,5.809c-12.373,7.116-24.059,20.073-32.061,35.549c-15.574,30.115-14.183,63.079,3.037,71.985
					c17.217,8.911,44.924-9.012,60.498-39.129l0,0c15.573-30.114,14.182-63.081-3.037-71.984
					C2269.719,2574.422,2266.457,2573.792,2263.242,2573.792z M2286.951,2653.748H2287H2286.951z"/>
			</g>
		</g>
		<g opacity="0.6">
			<g>
				<path fill="#FFFFFF" d="M2272.811,2576.021c-3.092-1.599-6.354-2.229-9.568-2.229c-7.373,0-14.517,3.304-18.869,5.809
					c-12.373,7.116-24.059,20.073-32.061,35.549c-1.129,2.18-2.139,4.375-3.089,6.574c7.896-13.939,18.708-25.543,30.149-32.123
					c4.353-2.505,11.496-5.809,18.869-5.809c3.215,0,6.477,0.631,9.568,2.229c15.973,8.262,18.301,37.224,6.125,65.411
					c0.645-1.138,1.309-2.259,1.912-3.426C2291.421,2617.891,2290.029,2584.927,2272.811,2576.021z"/>
			</g>
		</g>
		<g opacity="0.35">
			<g>
				<path fill="#371A45" d="M2239.607,2663.236c-23.678-12.244-27.438-52.015-8.398-88.83c0.319-0.62,0.68-1.195,1.01-1.806
					c-11.807,8.369-22.846,21.018-31.01,36.806c-19.04,36.815-15.279,76.586,8.398,88.83c23.277,12.038,57.106-7.051,76.334-42.682
					C2270.217,2666.699,2253.13,2670.23,2239.607,2663.236z"/>
			</g>
		</g>
		<g>
			<g>
				<g>
					<path fill="#FFFFFF" d="M1572.861,2095.438c0,0,138.461,222.699,402.84,327.32c41.264,16.329,64.395,61.217,50.389,102.783
						c-7.389,21.931-24.201,39.456-59.087,39.398c-145.599-0.239-491.065-272.971-494.313-380.623
						C1469.655,2083.738,1572.861,2095.438,1572.861,2095.438z"/>
				</g>
			</g>
			<g opacity="0.35">
				<g>
					<path fill="#371A45" d="M1472.686,2184.333c3.248,107.654,348.711,380.368,494.306,380.62
						c34.915,0.042,51.708-17.465,59.101-39.392c7.222-21.464,4.573-43.812-5.427-62.665c-0.043,0.252-0.129,0.463-0.214,0.715
						c-7.394,21.927-24.23,39.477-59.101,39.435c-132.818-0.211-432-227.262-485.93-348.805
						C1473.37,2162.953,1472.344,2172.928,1472.686,2184.333z"/>
				</g>
			</g>
			<g>
				<g>
					<path fill="#371A45" d="M1967.163,2582.442c-0.063,0-0.122,0-0.188,0c-83.989-0.14-215.857-79.5-311.257-153.721
						c-95.625-74.397-198.518-177.534-200.52-243.877c-1.038-34.417,8.831-61.436,29.331-80.306
						c35.122-32.329,88.066-26.74,90.303-26.489l8.418,0.952l4.468,7.188c1.36,2.181,138.843,219.158,394.424,320.298
						c50.728,20.073,77.32,74.822,60.535,124.644C2031.523,2564.225,2004.707,2582.439,1967.163,2582.442z M1563.103,2112.532
						c-12.715,0.02-38.101,2.215-54.998,17.876c-12.61,11.688-18.64,29.646-17.922,53.382
						c2.795,92.697,335.105,363.418,476.851,363.652c0.049,0,0.1,0,0.149,0c22.864,0,35.921-8.481,42.324-27.488
						c10.835-32.16-6.843-67.705-40.244-80.923C1727.515,2343.365,1590.852,2154.026,1563.103,2112.532z"/>
				</g>
			</g>
		</g>
		<g>
			<g>
				<path fill="#371A45" d="M2238.911,2847.068c-2.19,0-4.407-0.557-6.438-1.729c-6.179-3.562-8.298-11.46-4.736-17.637
					l94.625-164.084c3.789-6.577,10.268-11.016,17.775-12.178l27.773-4.297l106.121-170.867c3.757-6.06,11.721-7.922,17.783-4.155
					c6.057,3.763,7.92,11.724,4.154,17.783l-106.34,171.221c-3.843,6.185-10.17,10.369-17.363,11.478l-27.749,4.294l-94.407,163.706
					C2247.72,2844.752,2243.377,2847.068,2238.911,2847.068z"/>
			</g>
		</g>
	</g>
</g>
</svg>
