<?xml version="1.0" encoding="utf-8"?>
<!-- Generator: Adobe Illustrator 15.0.0, SVG Export Plug-In . SVG Version: 6.00 Build 0)  -->
<!DOCTYPE svg PUBLIC "-//W3C//DTD SVG 1.1//EN" "http://www.w3.org/Graphics/SVG/1.1/DTD/svg11.dtd">
<svg version="1.1" id="Layer_1" xmlns="http://www.w3.org/2000/svg" xmlns:xlink="http://www.w3.org/1999/xlink" x="0px" y="0px"
	 width="4000px" height="4000px" viewBox="0 0 4000 4000" enable-background="new 0 0 4000 4000" xml:space="preserve">
<g>
	<g>
		<g>
			<g>
				<path fill="#FFFFFF" d="M1625.139,1954.723c-11.018,125.459-33.699,262.367-33.699,262.367
					c-34.001,111.169-78.848,187.477-125.976,239.684c-124.253,137.596-264.432,107.941-264.432,107.941v-335.359
					c170.65-70.93,235.467-238.996,300.671-358.343c12.653-23.198,25.35-44.545,38.778-62.966
					c17.731-24.188,36.798-43.384,58.964-55.134C1635.598,1733.761,1635.253,1839.421,1625.139,1954.723z"/>
			</g>
		</g>
		<g>
			<g>
				<path fill="#371A45" d="M1234.995,2584.643c-22.351,0-36.242-2.813-37.52-3.086l-13.654-2.885v-360.797l10.607-4.408
					c140.807-58.536,206.333-185.455,264.148-297.432c41.164-79.731,76.716-148.589,132.825-178.325
					c11.394-6.04,23.366-5.601,32.837,1.211c12.436,8.95,38.314,27.573,13.811,260.903
					c-11.647,110.922-29.461,218.985-29.639,220.063l-0.522,2.223c-65.74,214.941-172.793,301.381-251.025,336.049
					C1307.977,2579.824,1264.243,2584.643,1234.995,2584.643z M1218.255,2549.516c22.688,1.748,71.174,1.348,126.594-23.701
					c101.602-45.928,181.043-154.038,229.778-312.676c1.89-11.576,17.837-110.366,28.732-212.68
					c18.994-178.374,7.169-221.46,2.197-231.255c-45.557,25.439-78.42,89.092-116.383,162.627
					c-56.173,108.794-125.761,243.57-270.919,308.843V2549.516z M1607.397,1767.89l-7.935-14.971L1607.397,1767.89z"/>
			</g>
		</g>
		<g>
			<g>
				<path fill="#FFFFFF" d="M2663.12,2664.289c-98.733,128.725-355.816,84.104-355.816,84.104l-2.247-869.845l-0.459-175.684
					c0,0,146.656,3.897,258.092,49.94c53.701,22.149,99.193,54.113,116.206,100.109
					C2738.145,2012.73,2744.244,2558.493,2663.12,2664.289z"/>
			</g>
		</g>
		<g opacity="0.35">
			<g>
				<path fill="#371A45" d="M2723.264,2179.729c3.454,190.74-14.594,389.021-60.141,448.438
					c-98.723,128.733-355.841,84.119-355.841,84.119l-2.659-1045.492c0,0,2.73,0.058,7.742,0.336l2.06,815.166
					c0,0,257.118,44.613,355.84-84.119C2696.998,2363.289,2714.26,2280.613,2723.264,2179.729z"/>
			</g>
		</g>
		<g>
			<g>
				<path fill="#371A45" d="M2408.473,2773.291c-56.821,0-99.8-7.184-104.121-7.93c-9.365-1.627-15.64-10.533-14.019-19.898
					c1.621-9.359,10.532-15.645,19.895-14.028c2.469,0.425,248.045,41.255,339.229-77.636
					c75.156-97.994,73.504-632.457,13.302-794.893c-47.786-128.931-355.501-138.755-358.604-138.843
					c-9.502-0.254-16.999-8.169-16.743-17.671c0.257-9.502,8.279-16.938,17.666-16.743c13.618,0.361,334.129,10.635,389.966,161.294
					c28.691,77.412,47.103,251.036,45.813,432.036c-0.677,94.756-8.27,323.008-64.08,395.777
					C2614.036,2756.563,2495.159,2773.285,2408.473,2773.291z"/>
			</g>
		</g>
		<g>
			<g>
				<path fill="#FFFFFF" d="M2704.398,2296.029l-175.214,13.156c-15.643,1.174-28.533,12.725-31.326,28.16
					c-10.226,56.525-27.067,188.303,27.914,231.818c45.635,36.119,119.73,31.879,163.148-4.868
					c48.567-41.105,53.313-170.351,52.525-234.334C2741.202,2310.07,2724.235,2294.54,2704.398,2296.029z"/>
			</g>
		</g>
		<g opacity="0.35">
			<g>
				<path fill="#371A45" d="M2497.87,2337.365c-10.254,56.505-27.071,188.291,27.917,231.788
					c45.643,36.136,119.72,31.891,163.161-4.867c29.848-25.301,43.142-83.927,48.762-140.184
					c-7.894,28.106-20.285,50.932-35.698,65.907c-88.312,85.805-154.236-15.36-154.236-15.36s-11.441,24.565-20.561,25.956
					c-38.127,5.818-30.243-113.541-24.73-175.207C2500.25,2328.953,2498.646,2332.98,2497.87,2337.365z"/>
			</g>
		</g>
		<g>
			<g>
				<path fill="#371A45" d="M2602.977,2611.435c-31.955,0-63.571-9.526-87.888-28.769c-60.21-47.656-47.254-176.074-34.17-248.385
					c4.18-23.115,23.493-40.498,46.973-42.266l175.217-13.154c14.204-1.078,28.325,3.834,38.804,13.434
					c10.47,9.594,16.575,23.246,16.748,37.455c1.1,89.43-8.179,204.996-58.615,247.686
					C2673.367,2600.014,2637.968,2611.435,2602.977,2611.435z M2705.687,2313.197l-175.215,13.154
					c-7.837,0.592-14.282,6.373-15.671,14.059c-19.634,108.516-11.538,188.984,21.655,215.254
					c38.098,30.166,102.827,28.09,141.343-4.508c30.459-25.781,47.817-108.393,46.433-220.986c-0.058-4.809-2.041-9.248-5.583-12.49
					C2715.101,2314.428,2710.489,2312.842,2705.687,2313.197L2705.687,2313.197z"/>
			</g>
		</g>
		<g>
			<g>
				<path fill="#371A45" d="M2571.508,2370.568c-0.12,22.857-2.364,43.377-3.027,64.271c-0.771,20.745-0.571,41.36,2.545,61.489
					c3.116,20.039,9.229,39.797,21.009,56.431c11.605,16.733,29.391,29.146,49.444,36.097c-10.369-2.176-20.609-5.602-30.174-10.703
					c-9.567-5.078-18.388-11.852-25.927-19.935c-15.193-16.218-24.878-37.002-31.138-58.062c-6.298-21.184-9.446-42.98-11.57-64.5
					c-2.196-21.403-2.913-43.254-5.509-62.666l-0.03-0.222c-1.264-9.45,5.373-18.138,14.823-19.401
					c9.451-1.263,18.137,5.373,19.401,14.824C2571.457,2368.957,2571.506,2369.816,2571.508,2370.568z"/>
			</g>
		</g>
		<g>
			<g>
				<path fill="#371A45" d="M2600.792,1839.167c-32.928,3.884-65.497,9.741-97.589,16.958c-16.048,3.584-31.962,7.6-47.685,12.058
					c-15.761,4.319-31.237,9.412-46.551,14.629l-0.262,0.09c-9.04,3.079-18.864-1.75-21.944-10.791s1.752-18.865,10.791-21.943
					c0.929-0.317,1.961-0.562,2.897-0.715c16.785-2.632,33.508-5.056,50.27-6.646c16.739-1.729,33.468-2.964,50.179-3.743
					C2534.302,1837.461,2567.653,1837.317,2600.792,1839.167z"/>
			</g>
		</g>
		<g opacity="0.35">
			<g>
				<path fill="#371A45" d="M2562.689,1752.803c-76.813,58.377-164.54,101.072-257.633,125.744l-0.459-175.684
					C2304.598,1702.863,2451.254,1706.761,2562.689,1752.803z"/>
			</g>
		</g>
		<g>
			<g>
				<path fill="#FFFFFF" d="M1962.905,3338.69c-74.934,173.62-395.76,145.05-476.7,73.19
					c-82.959-73.695,66.999-165.643,66.999-165.643c-66.907-113.637-68.88-330.547-61.863-469.867
					c3.807-76.354,10.364-129.412,10.364-129.412l472.895-255.938c-0.321,96.258-16.418,178.574-30.863,244.519
					c-30.679,140.19-28.708,248.05-16.28,336.144C1950.523,3135.123,2009.497,3230.739,1962.905,3338.69z"/>
			</g>
		</g>
		<g opacity="0.35">
			<g>
				<path fill="#371A45" d="M1962.905,3338.69c-74.934,173.62-395.76,145.05-476.7,73.19c-26.14-23.205-29.166-48.244-21.004-71.632
					c109.373,64.478,388.102,113.271,442.123-50.856c26.42-80.355-25.289-135.883-53.479-244.353
					c-11.89-45.751-48.096-81.257-93.865-93.071c-97.091-25.063-216.44-77.406-265.704-169.682c-1.01-1.879-2.019-3.852-2.936-5.916
					c3.807-76.354,10.364-129.412,10.364-129.412l423.32-229.109l49.574-26.828c-0.321,96.258-16.418,178.574-30.863,244.519
					c-2.247,10.272-4.311,20.407-6.237,30.313c-1.926,9.952-3.669,19.72-5.228,29.35c-0.779,4.815-1.56,9.539-2.247,14.263
					c-2.155,14.17-3.944,27.973-5.411,41.455c-0.505,4.494-0.963,8.943-1.376,13.346c-0.825,8.438-1.514,16.783-2.063,24.992
					c-1.789,25.314-2.385,49.344-2.155,72.182c0.046,2.477,0.092,4.953,0.138,7.43c0.091,4.998,0.229,9.951,0.412,14.857
					c0.276,6.695,0.597,13.254,0.964,19.719c0.32,4.725,0.642,9.401,0.963,13.987c0.274,3.073,0.504,6.1,0.779,9.08
					c0.229,2.66,0.458,5.229,0.733,7.843c0.229,2.43,0.459,4.86,0.733,7.245c1.102,10.317,2.339,20.315,3.715,30.083
					C1950.523,3135.123,2009.497,3230.739,1962.905,3338.69z"/>
			</g>
		</g>
		<g opacity="0.35">
			<g>
				<path fill="#371A45" d="M1937.499,2640.029c-1.88,9.951-3.623,19.719-5.228,29.35
					C1933.83,2659.748,1935.573,2649.98,1937.499,2640.029z"/>
			</g>
		</g>
		<g>
			<g>
				<path fill="#371A45" d="M1699.355,3485.326c-95.815,0-186.034-26.362-224.57-60.59c-22.512-19.996-32.771-43.214-30.49-69.01
					c4.558-51.602,59.409-96.195,86.235-115.078c-94.985-185.736-47.991-578.721-45.892-595.791
					c1.165-9.434,9.773-16.123,19.189-14.98c9.437,1.162,16.146,9.752,14.985,19.189c-0.514,4.176-50.197,419.531,49.246,588.438
					l8.579,14.57l-14.417,8.844c-22.058,13.568-80.109,57.627-83.633,97.871c-1.271,14.531,4.964,27.68,19.063,40.204
					c45.798,40.685,181.947,67.319,295.604,42.085c53.846-11.957,124.243-40.615,153.857-109.232
					c29.09-67.408,13.86-129.264-7.219-214.873c-28.099-114.127-63.069-256.158-12.962-485.098
					c15.633-71.426,30.142-150.049,30.439-240.928c0.03-9.488,7.732-17.158,17.213-17.158c0.021,0,0.039,0,0.059,0
					c9.507,0.033,17.189,7.764,17.158,17.275c-0.308,94.096-15.193,174.887-31.235,248.174
					c-48.395,221.117-14.485,358.838,12.761,469.501c21.834,88.673,39.077,158.712,5.398,236.749
					c-27.999,64.883-89.553,109.561-178.004,129.203C1767.593,3482.051,1733.12,3485.322,1699.355,3485.326z"/>
			</g>
		</g>
		<g>
			<g>
				<path fill="#371A45" d="M1832.451,3111.313c-104.27,0-246.514-11.611-342.883-65.781c-6.219-3.49-8.423-11.367-4.93-17.582
					c3.491-6.217,11.367-8.424,17.581-4.928c157.933,88.77,459.067,56.465,462.088,56.129c7.028-0.83,13.472,4.311,14.26,11.4
					c0.789,7.09-4.316,13.472-11.403,14.264C1961.886,3105.4,1906.824,3111.313,1832.451,3111.313z"/>
			</g>
		</g>
		<g>
			<g>
				<path fill="none" stroke="#293856" stroke-width="34.4312" stroke-linecap="round" stroke-miterlimit="10" d="
					M1885.564,2733.604"/>
			</g>
		</g>
		<g>
			<g>
				<path fill="#32B1D1" d="M1778.556,1952.27"/>
			</g>
		</g>
		<g>
			<g>
				<path fill="#FFFFFF" d="M2478.775,2370.695c-1.506,55.434-7.229,104.154-17.259,144.955c-2.711,11.234-5.81,21.864-9.167,31.85
					c-0.516,1.506-0.99,2.969-1.507,4.433c-10.07,28.578-22.638,55.521-37.529,80.655
					c-47.86,81.258-119.219,143.836-205.899,182.399c-39.079,17.388-144.353,60.513-285.521,62.147
					c-18.637,0.216-37.961-0.344-57.801-1.721c-87.973-6.154-299.725-56.64-369.835-187.822
					c-22.123-41.447-31.332-119.563-28.794-230.818c2.756-124.684,20.186-290.986,50.528-493.873
					c3.486-23.37,7.145-47.17,11.018-71.488c4.262-27.2,8.78-54.961,13.472-83.366c18.507-111.643,40.198-232.411,64.859-361.571
					l685.053,37.013c38.262,100.324,70.541,198.023,96.967,291.504c2.109,7.403,4.132,14.719,6.111,22.036
					c5.467,19.798,10.631,39.424,15.537,58.792C2459.838,2056.338,2482.434,2233.96,2478.775,2370.695z"/>
			</g>
		</g>
		<g opacity="0.35">
			<g>
				<path fill="#371A45" d="M2450.841,2551.936c-42.648,120.929-129.917,212.554-243.417,263.045
					c-44.208,19.673-173.392,72.41-343.344,60.44c-87.957-6.145-299.732-56.634-369.804-187.837
					c-21.783-40.768-31.047-116.984-28.938-225.348c1.743,64.339,11.19,110.885,28.938,138.125
					c70.071,107.63,281.847,149.041,369.804,154.086c169.952,9.813,299.136-33.432,343.344-49.574
					c113.5-41.41,200.769-116.572,243.417-215.765c17.793-41.319,27.286-96.073,28.203-161.605
					C2480.19,2419.587,2470.605,2495.941,2450.841,2551.936z"/>
			</g>
		</g>
		<g opacity="0.35">
			<g>
				<path fill="#371A45" d="M1484.279,2202.722c-11.144,100.2-17.61,187.058-18.94,259.515
					C1463.505,2394.731,1470.063,2307.646,1484.279,2202.722z"/>
			</g>
		</g>
		<g opacity="0.35">
			<g>
				<path fill="#371A45" d="M2479.044,2327.503c-0.459-38.935-2.844-80.712-7.2-124.965
					C2477.255,2247.525,2479.64,2289.349,2479.044,2327.503z"/>
			</g>
		</g>
		<g>
			<g>
				<path fill="#371A45" d="M1517.238,2044.197c0.853,41.657-1.682,82.777-4.953,123.762c-1.626,20.49-3.812,40.898-5.845,61.318
					l-6.057,61.219c-7.85,81.504-17.064,163.112-16.437,244.226c0.095,10.117,0.279,20.225,0.767,30.276
					c0.532,10.056,1.31,20.063,2.358,29.982c2.079,19.826,5.179,39.463,10.772,57.695c2.807,9.058,6.022,17.915,10.272,25.684
					c4.323,8.198,9.541,16.299,15.124,23.965c5.652,7.668,11.801,15.029,18.353,22.088c3.239,3.559,6.829,6.83,10.259,10.236
					c3.38,3.452,7.025,6.678,10.686,9.891c29.297,25.707,63.388,46.818,99.233,65.01c35.882,18.306,73.582,33.725,112.154,48.542
					c1.342,0.513,2.016,2.015,1.504,3.356c-0.428,1.123-1.559,1.775-2.7,1.66c-41.435-4.318-82.259-14.616-121.591-29.682
					c-39.27-15.13-77.198-35.682-110.352-63.672c-16.527-13.971-31.948-29.725-44.695-47.806
					c-6.424-9.026-12.25-18.356-17.275-28.481c-5.351-10.454-8.91-21.141-11.944-31.772
					c-11.664-42.642-12.893-84.802-14.175-126.569c-0.4-20.898-0.109-41.719,0.565-62.483c0.622-20.767,1.501-41.491,2.765-62.165
					c2.328-41.37,6.102-82.549,10.759-123.579c9.909-81.978,20.884-163.748,45.347-243.421c0.423-1.379,1.883-2.153,3.262-1.73
					C1516.499,2042.086,1517.216,2043.104,1517.238,2044.197z"/>
			</g>
		</g>
		<g>
			<g>
				<path fill="#FFFFFF" d="M1936.91,2752.667c0,0-71.768,358.438,77.105,532.47c0,0-149.954,91.947-67.004,165.627
					c80.927,71.881,401.765,100.441,476.702-73.198c71.723-166.19-106.738-303.007-19.169-703.114
					c14.439-65.976,30.521-148.271,30.837-244.551L1936.91,2752.667z"/>
			</g>
		</g>
		<g opacity="0.35">
			<g>
				<path fill="#371A45" d="M2404.523,2675.433c-87.544,400.116,90.892,536.957,19.169,703.149
					c-74.933,173.621-395.76,145.051-476.7,73.189c-21.737-19.306-27.469-39.851-24.076-59.707
					c108.869,57.461,381.773,67.32,450.103-91.029c24.675-57.174-124.438-168.324-125.432-292.584
					c-0.833-104.135,28.313-210.529,58.851-292.877c24.576-66.273-22.344-136.918-92.929-140.652
					c-0.637-0.033-1.274-0.068-1.912-0.104c-39.943-2.156-83.509-7.566-130.284-17.472c0,0-75.621-95.616,8.621-149.546
					c0,0,256.166,35.174,388.835-37.1c-1.88,70.668-10.73,130.423-26.414,176.785c-7.659,2.431-16.28,4.953-25.773,7.43
					C2420.574,2599.582,2412.319,2639.893,2404.523,2675.433z"/>
			</g>
		</g>
		<g>
			<g>
				<path fill="#371A45" d="M1942.537,2754.787c0.302,46.326-2.003,91.817-3.56,137.203c-0.581,22.699-0.913,45.366-0.673,67.995
					c0.102,22.634,0.928,45.228,2.614,67.718c1.587,22.504,4.493,44.863,8.522,66.918c3.991,22.061,9.257,43.858,16.198,64.957
					c6.974,21.057,14.882,41.836,25.296,61.14c10.262,19.368,22.264,37.64,36.161,54.222l12.768,15.234l-16.851,10.632
					c-6.541,4.128-13.753,9.251-20.37,14.29c-6.707,5.117-13.206,10.488-19.388,16.101c-12.272,11.235-23.706,23.396-31.965,36.507
					c-8.284,13.029-13.281,26.945-11.81,39.118c1.425,12.054,8.963,23.753,20.654,33.394c11.389,9.434,26.175,17.095,41.535,23.279
					c15.449,6.201,31.751,11.062,48.322,15.017c33.263,7.669,67.652,11.579,101.988,12.198c17.176,0.197,34.334-0.44,51.386-1.932
					c16.995-1.783,33.951-4.048,50.493-7.838c33.058-7.37,65.043-19.242,92.39-37.39c13.528-9.187,26.014-19.688,36.544-31.823
					c10.346-12.283,18.78-25.928,25.338-40.574c12.822-30.229,17.721-62.854,15.116-96.336c-2.34-33.486-10.291-67.5-18.605-101.83
					c-8.408-34.365-17.227-69.178-24.123-104.605c-6.981-35.391-12.259-71.309-15.146-107.448
					c-2.919-36.136-3.477-72.464-1.855-108.63c1.606-36.178,5.354-72.181,10.656-107.896c5.503-35.557,13.342-71.296,20.495-105.453
					c7.122-34.494,11.1-69.31,16.005-103.848c4.943-34.622,9.269-69.014,18.969-104.229l0.012-0.041
					c0.87-3.162,4.138-5.018,7.298-4.146c2.114,0.581,3.646,2.246,4.168,4.224c9.351,35.854,9.222,72.493,5.812,108.447
					c-3.282,36.064-11.453,71.341-18.507,106.476c-7.452,35.385-14.817,69.096-20.218,103.789
					c-5.129,34.579-8.742,69.34-10.29,104.164c-3.309,69.69,2.647,139.363,16.384,207.935
					c6.682,34.346,15.314,68.462,23.796,103.118c8.354,34.665,16.836,70.148,19.505,107.658c1.407,18.684,0.858,37.92-2.08,56.902
					c-2.928,18.981-8.265,37.668-15.733,55.295c-7.909,17.83-18.306,34.614-30.908,49.502
					c-12.781,14.748-27.696,27.277-43.547,38.01c-32.003,21.199-67.854,34.256-104.014,42.344
					c-18.118,4.137-36.444,6.6-54.772,8.509c-18.352,1.611-36.732,2.29-55.091,2.073c-36.708-0.664-73.297-4.803-109.306-13.099
					c-17.982-4.292-35.83-9.58-53.36-16.611c-17.485-7.139-34.823-15.688-50.888-28.919c-2.065-1.545-3.909-3.396-5.77-5.225
					c-1.847-1.857-3.767-3.574-5.524-5.572c-3.452-4.125-6.951-8.162-9.81-13.009c-5.913-9.341-10.251-20.464-11.536-32.061
					c-1.359-11.604,0.363-23.093,3.602-33.347c3.266-10.309,8.009-19.566,13.359-28.047c10.776-16.971,24.056-30.833,37.919-43.57
					c6.974-6.328,14.184-12.282,21.6-17.943c7.531-5.703,14.788-10.924,23.273-16.277l-4.083,25.864
					c-15.774-18.776-29.181-39.243-40.497-60.625c-11.479-21.345-20.063-43.864-27.563-66.538
					c-7.531-22.707-12.889-45.913-17.43-69.154c-2.401-11.617-4.091-23.312-5.936-34.991c-1.45-11.712-3.079-23.413-4.171-35.142
					c-4.962-46.895-5.532-94.051-1.922-140.77c1.723-23.359,4.457-46.635,8.948-69.633c4.595-22.996,10.049-45.745,18.921-67.933
					c1.197-2.991,4.593-4.448,7.585-3.252c2.268,0.908,3.652,3.076,3.67,5.376L1942.537,2754.787z"/>
			</g>
		</g>
		<g>
			<g>
				<path fill="#371A45" d="M2158.406,3113.52c-76.423,0-160.996-11.465-238.177-47.49c-6.462-3.018-9.255-10.697-6.237-17.158
					c3.013-6.465,10.69-9.258,17.161-6.24c198.563,92.682,459.089,12.047,461.696,11.217c6.805-2.154,14.056,1.615,16.206,8.412
					c2.153,6.797-1.608,14.049-8.405,16.207C2393.717,3080.664,2287.758,3113.52,2158.406,3113.52z"/>
			</g>
		</g>
		<g>
			<g>
				<circle fill="#FFFFFF" cx="1484.266" cy="2349.893" r="85.277"/>
			</g>
		</g>
		<g opacity="0.35">
			<g>
				<path fill="#371A45" d="M1399.034,2352.101c1.227,47.08,40.36,84.294,87.44,83.067c47.081-1.227,84.292-40.429,83.065-87.509
					c-0.339-13.007-3.573-25.327-9.146-36.231c-12.935,29.146-41.813,49.896-75.82,50.781
					c-34.006,0.887-63.927-18.331-78.292-46.767C1401.286,2326.621,1398.695,2339.094,1399.034,2352.101z"/>
			</g>
		</g>
		<g>
			<g>
				<path fill="#371A45" d="M1484.229,2452.387c-55.288,0-100.972-44.232-102.422-99.824l0,0
					c-1.47-56.494,43.294-103.652,99.788-105.132c0.903-0.019,1.807-0.034,2.705-0.034c55.29,0,100.974,44.234,102.422,99.824
					c0.713,27.368-9.272,53.379-28.12,73.232c-18.848,19.859-44.3,31.188-71.67,31.9
					C1486.028,2452.372,1485.127,2452.387,1484.229,2452.387z M1416.226,2351.664c0.979,37.52,32.293,67.49,69.813,66.266
					c18.174-0.47,35.076-7.994,47.59-21.178c12.518-13.188,19.148-30.459,18.675-48.633c-0.961-36.914-31.302-66.289-68.016-66.289
					c-0.598,0-1.193,0.005-1.794,0.025C1444.976,2282.832,1415.249,2314.15,1416.226,2351.664L1416.226,2351.664z"/>
			</g>
		</g>
		<g>
			<g opacity="0.35">
				<g>
					<path fill="#371A45" d="M1470.999,2432.991c14.561-95.739,17.323-184.505,13.289-263.515
						c-1.955,45.631-6.288,93.52-13.889,143.377c-8.858,58.471-11.586,119.518-6.157,179.459
						C1465.754,2472.379,1468.055,2452.539,1470.999,2432.991z"/>
				</g>
			</g>
			<g>
				<g>
					<path fill="#FFFFFF" d="M1553.085,2598.128l445.331,22.886c52.707,2.725,98.092-38.193,100.816-90.968l12.166-236.982
						c2.375-46.202-28.718-86.706-71.909-97.887c-6.111-1.626-12.488-2.58-19.06-2.93l-445.264-22.886
						c-52.774-2.727-98.159,38.193-100.816,90.967l-9.681,187.695l-2.553,49.287
						C1459.392,2550.086,1500.378,2595.402,1553.085,2598.128z"/>
				</g>
			</g>
			<g opacity="0.35">
				<g>
					<path fill="#371A45" d="M1553.085,2598.128l445.331,22.886c52.707,2.725,98.092-38.193,100.816-90.968l12.166-236.982
						c2.375-46.202-28.718-86.706-71.909-97.887c-26.149,15.493-42.761,25.413-42.761,25.413
						c-31.459,189.111-90.503,281.184-326.917,272.902c-102.049-3.602-165.611-22.461-205.143-45.469l-2.553,49.287
						C1459.392,2550.086,1500.378,2595.402,1553.085,2598.128z"/>
				</g>
			</g>
			<g>
				<g>
					<path fill="#371A45" d="M2003.406,2638.379c-1.96,0-3.928-0.049-5.9-0.152l-445.296-22.895
						c-30.101-1.549-57.864-14.795-78.174-37.311c-20.313-22.514-30.645-51.488-29.097-81.587l12.185-237.017
						c3.208-62.348,56.563-110.404,118.899-107.271l445.296,22.896c30.1,1.549,57.863,14.795,78.174,37.311
						c20.313,22.514,30.645,51.488,29.097,81.586l-12.186,237.018c-1.548,30.102-14.797,57.865-37.31,78.178
						C2058.058,2628.114,2031.375,2638.379,2003.406,2638.379z M1570.166,2186.43c-41.616,0-76.496,32.734-78.657,74.756
						l-12.185,237.018c-1.074,20.912,6.125,41.068,20.275,56.752c14.15,15.689,33.462,24.917,54.378,25.992l445.298,22.895
						c20.936,1.051,41.069-6.128,56.753-20.273c15.687-14.15,24.915-33.461,25.991-54.379l12.186-237.018
						c1.074-20.912-6.126-41.068-20.276-56.752c-14.15-15.689-33.461-24.918-54.377-25.992l-445.295-22.895
						C1572.886,2186.464,1571.521,2186.43,1570.166,2186.43z"/>
				</g>
			</g>
			<g>
				<g>
					<path fill="#FFFFFF" d="M1535.301,2595.457c5.709,1.495,11.615,2.385,17.784,2.671l445.331,22.886
						c38.625,1.969,73.308-19.426,90.139-51.869c6.139-11.78,9.92-25.017,10.61-39.098l5.452-105.281l1.798-34.736l4.983-96.966
						c2.725-52.774-38.262-98.091-90.969-100.816l-96.229-4.923c43.925,10.641,75.69,51.473,73.318,98.146l-6.542,128.013
						l-5.623,109.035c-2.726,52.708-48.109,93.693-100.817,90.969L1535.301,2595.457z"/>
				</g>
			</g>
			<g opacity="0.35">
				<g>
					<path fill="#371A45" d="M1535.301,2595.457c5.709,1.495,11.615,2.385,17.784,2.671l445.331,22.886
						c52.707,2.725,98.092-38.193,100.749-90.967l7.25-140.018c-12.474,24.164-34.155,53.498-66.52,55.031
						c-17.755,0.881-34.488-12.725-48.918-31.578l-5.623,109.035c-2.726,52.708-48.109,93.693-100.817,90.969L1535.301,2595.457z"/>
				</g>
			</g>
			<g>
				<g>
					<path fill="#371A45" d="M2003.475,2638.379c-1.979,0-3.96-0.055-5.949-0.156l-445.325-22.906
						c-7.073-0.327-14.224-1.387-21.16-3.148l5.125-33.877l349.274,17.988c20.872,1.113,41.035-6.119,56.719-20.264
						c15.691-14.16,24.918-33.473,25.979-54.385l12.183-237.018c1.941-37.758-23.357-71.65-60.151-80.591l4.946-33.921l96.185,4.928
						c30.114,1.563,57.878,14.818,78.186,37.324c20.32,22.519,30.649,51.498,29.084,81.596l-12.185,236.992
						c-1.525,30.104-14.772,57.877-37.297,78.199C2058.06,2628.114,2031.404,2638.379,2003.475,2638.379z M1964.69,2602.055
						l34.612,1.783c20.872,1.084,41.035-6.109,56.721-20.26c15.688-14.16,24.915-33.471,25.977-54.385v-0.01l12.186-237.012
						c1.086-20.912-6.108-41.064-20.261-56.748c-14.153-15.688-33.473-24.922-54.4-26.01l-31.211-1.598
						c17.908,21.328,27.905,49.127,26.392,78.564l-12.183,237.008c-1.528,30.092-14.772,57.865-37.297,78.188
						C1965.047,2601.738,1964.869,2601.898,1964.69,2602.055z"/>
				</g>
			</g>
			<g>
				<g>
					<path fill="#22A7F0" d="M1815.744,2396.893c-0.399,8.768,8.693,80.096,8.693,80.096s22.418,1.023,49.945,2.28
						c34.391,1.569,63.896-32.765,65.9-76.689s-24.248-80.806-58.639-82.376c-23.209-1.059-49.944-2.279-49.944-2.279
						S1816.396,2382.611,1815.744,2396.893z"/>
				</g>
			</g>
			<g opacity="0.35">
				<g>
					<path fill="#371A45" d="M1815.744,2396.893c-0.399,8.768,8.693,80.096,8.693,80.096s22.418,1.023,49.945,2.28
						c34.391,1.569,63.896-32.765,65.9-76.689s-24.248-80.806-58.639-82.376c-23.209-1.059-49.944-2.279-49.944-2.279
						S1816.396,2382.611,1815.744,2396.893z"/>
				</g>
			</g>
			<g>
				<g>
					<path fill="#371A45" d="M1876.704,2492.23c-0.969,0-1.938-0.02-2.912-0.063l-34.688-1.583
						c-15.171-0.698-27.522-12.124-29.375-27.173c-7.254-58.891-6.985-64.863-6.883-67.104l0,0
						c0.379-8.355,4.702-30.724,12.85-66.494c3.333-14.648,16.668-24.805,31.665-24.102l34.87,1.592
						c20.684,0.941,39.471,11.85,52.9,30.717c12.739,17.896,19.15,41.035,18.05,65.146c-1.102,24.111-9.595,46.568-23.911,63.232
						C1914.888,2483.135,1896.319,2492.23,1876.704,2492.23z M1828.646,2397.46c-0.029,1.191,0.176,9.712,6.714,62.798
						c0.308,2.506,2.38,4.414,4.927,4.527l34.685,1.582c12.573,0.688,24.911-5.391,34.712-16.797
						c10.576-12.311,16.863-29.205,17.703-47.584c0.837-18.373-3.882-35.771-13.294-48.989
						c-8.723-12.255-20.456-19.321-33.037-19.892l-34.87-1.592c-2.471-0.074-4.751,1.582-5.308,4.033
						C1833.516,2367.861,1828.946,2391,1828.646,2397.46z M1815.745,2396.895h0.049H1815.745z"/>
				</g>
			</g>
			<g>
				<g>
					
						<ellipse transform="matrix(-0.999 -0.0456 0.0456 -0.999 3544.8999 4875.7871)" fill="#22A7F0" cx="1828.069" cy="2397.456" rx="62.334" ry="79.615"/>
				</g>
				<g>
					<path fill="#371A45" d="M1826.761,2489.951c-0.97,0-1.938-0.021-2.913-0.064c-20.681-0.941-39.468-11.85-52.896-30.713
						c-12.741-17.9-19.152-41.035-18.052-65.151l0,0c1.102-24.11,9.595-46.567,23.911-63.231
						c15.094-17.564,34.788-26.725,55.479-25.768c20.682,0.943,39.468,11.852,52.896,30.719
						c12.742,17.895,19.15,41.034,18.05,65.146c-1.102,24.111-9.593,46.566-23.909,63.232
						C1864.944,2480.854,1846.375,2489.951,1826.761,2489.951z M1778.697,2395.205c-0.838,18.373,3.881,35.771,13.291,48.994
						c8.725,12.25,20.456,19.316,33.039,19.887c12.546,0.684,24.907-5.391,34.712-16.797c10.576-12.309,16.86-29.204,17.7-47.582
						c0.84-18.375-3.882-35.772-13.291-48.99c-8.724-12.256-20.457-19.32-33.037-19.893c-12.566-0.688-24.91,5.391-34.712,16.797
						C1785.823,2359.931,1779.536,2376.826,1778.697,2395.205L1778.697,2395.205z"/>
				</g>
			</g>
			<g>
				<g>
					
						<ellipse transform="matrix(-0.999 -0.0456 0.0456 -0.999 3544.8999 4875.7871)" fill="#22A7F0" cx="1828.069" cy="2397.456" rx="62.334" ry="79.615"/>
				</g>
			</g>
			<g opacity="0.7">
				<g>
					<path fill="#FFFFFF" d="M1890.351,2400.305c-0.137,3.256-0.458,6.467-0.918,9.585c-5.089-35.128-28.478-62.093-57.735-63.423
						c-31.872-1.422-59.524,27.929-64.981,67.137c-0.871-6.099-1.238-12.473-0.917-18.985c2.018-43.933,31.505-78.28,65.898-76.675
						C1866.091,2319.502,1892.322,2356.373,1890.351,2400.305z"/>
				</g>
			</g>
			<g opacity="0.35">
				<g>
					<path fill="#371A45" d="M1890.351,2400.305c-2.019,43.934-31.505,78.234-65.899,76.676
						c-34.394-1.56-60.671-38.43-58.652-82.362c0.32-7.476,1.467-14.628,3.301-21.415c7.979,29.395,29.35,50.811,55.352,52.003
						c28.57,1.284,53.747-22.195,62.598-55.351C1889.616,2379.302,1890.809,2389.619,1890.351,2400.305z"/>
				</g>
			</g>
			<g>
				<g>
					<path fill="#371A45" d="M1826.761,2489.951c-0.97,0-1.938-0.021-2.913-0.064c-20.681-0.941-39.468-11.85-52.896-30.713
						c-12.741-17.9-19.152-41.035-18.052-65.151l0,0c1.102-24.11,9.595-46.567,23.911-63.231
						c15.094-17.564,34.788-26.725,55.479-25.768c20.682,0.943,39.468,11.852,52.896,30.719
						c12.742,17.895,19.15,41.034,18.05,65.146c-1.102,24.111-9.593,46.566-23.909,63.232
						C1864.944,2480.854,1846.375,2489.951,1826.761,2489.951z M1778.697,2395.205c-0.838,18.373,3.881,35.771,13.291,48.994
						c8.725,12.25,20.456,19.316,33.039,19.887c12.546,0.684,24.907-5.391,34.712-16.797c10.576-12.309,16.86-29.204,17.7-47.582
						c0.84-18.375-3.882-35.772-13.291-48.99c-8.724-12.256-20.457-19.32-33.037-19.893c-12.566-0.688-24.91,5.391-34.712,16.797
						C1785.823,2359.931,1779.536,2376.826,1778.697,2395.205L1778.697,2395.205z"/>
				</g>
			</g>
			<g>
				<g>
					<path fill="#371A45" d="M1691.616,2616.439c-0.122,0-0.244,0-0.366-0.005c-7.126-0.195-12.746-6.132-12.549-13.261
						l4.375-157.627l-73.938-51.969l10.627-221.743c0.342-7.118,6.401-12.642,13.516-12.275c7.124,0.342,12.62,6.392,12.28,13.517
						l-9.948,207.543l73.659,51.773l-4.756,171.494C1704.322,2610.893,1698.579,2616.439,1691.616,2616.439z"/>
				</g>
			</g>
		</g>
		<g>
			<g>
				<path fill="#FFFFFF" d="M2498.02,2289.033c0,0,41.212,32.797,43.025,83.396c2.097,58.502-34.504,82.225-34.504,82.225
					s-160.165,82.003-417.126,27.52c0,0-75.635-95.597,8.609-149.547C2098.024,2332.627,2369.238,2369.879,2498.02,2289.033z"/>
			</g>
		</g>
		<g opacity="0.35">
			<g>
				<path fill="#371A45" d="M2541.027,2372.467c2.095,58.434-34.482,82.15-34.482,82.15s-160.137,82.034-417.154,27.533
					c0,0-24.866-31.521-30.156-68.475c1.212,1.826,2,2.774,2,2.774c187.829,39.856,323.927,6.738,383.551-13.962
					c41.418-14.378,69.104-51.982,68.139-93.979c-0.014-0.578-0.031-1.159-0.052-1.743c-0.022-0.976-0.046-1.951-0.229-2.888
					C2524.671,2318.229,2539.965,2342.149,2541.027,2372.467z"/>
			</g>
		</g>
		<g>
			<g>
				<path fill="#371A45" d="M2263.512,2518.217c-52.319,0-111.838-5.244-177.668-19.203l-6.075-1.289l-3.854-4.869
					c-1.746-2.207-42.661-54.678-33.599-108.783c4.507-26.914,20.127-49.103,46.426-65.943l5.339-3.418l6.284,0.859
					c2.651,0.361,266.551,35.436,388.501-41.117l10.33-6.484l9.543,7.592c1.937,1.543,47.438,38.398,49.512,96.256
					c2.417,67.48-40.518,96.098-42.346,97.285l-1.517,0.873C2509.337,2472.563,2417.794,2518.217,2263.512,2518.217z
					 M2099.5,2466.689c233.46,47.646,384.856-20.538,398.265-26.91c4.131-3.115,27.648-22.842,26.077-66.732
					c-1.033-28.779-17.872-51.295-28.343-62.594c-125.535,68.668-350.739,45.264-393.187,40.078
					c-14.907,10.85-23.444,23.727-26.04,39.225C2071.082,2420.752,2091.212,2454.424,2099.5,2466.689z"/>
			</g>
		</g>
		<g>
			<g>
				<path fill="#371A45" d="M2249.591,3301.902c-17.771-10.318-37.063-17.479-56.666-22.369
					c-19.613-4.855-39.657-7.478-59.544-7.131c-19.837,0.352-39.553,2.412-58.413,7.808c-9.558,2.002-18.654,5.835-27.815,8.981
					c-4.634,1.404-8.93,3.902-13.37,5.843l-13.17,6.146l-1.267,0.59c-8.257,3.851-18.073,0.281-21.925-7.976
					c-3.853-8.257-0.281-18.073,7.976-21.927c0.636-0.297,1.371-0.576,2.021-0.785l15.545-4.893
					c5.213-1.5,10.211-3.516,15.598-4.439c10.637-2.172,21.048-4.916,31.86-5.764c21.314-3.07,42.977-2.453,64.006,0.02
					c21.093,2.476,41.612,8.042,61.023,15.711C2214.838,3279.412,2233.324,3289.289,2249.591,3301.902z"/>
			</g>
		</g>
		<g>
			<g>
				<path fill="#371A45" d="M1749.339,3251.678c-16.098-6.855-32.997-11.336-49.975-14.085c-16.988-2.751-34.16-3.376-50.929-2.046
					c-8.407,0.34-16.659,2.095-24.835,3.369c-8.055,2.176-16.16,3.693-23.817,6.826c-15.653,5.008-29.888,13.301-43.521,21.785
					l-0.881,0.549c-7.74,4.819-17.922,2.449-22.74-5.291c-4.818-7.741-2.449-17.922,5.291-22.741c0.693-0.43,1.493-0.84,2.219-1.157
					c17.356-7.441,34.98-14.094,53.438-17c9.057-2.08,18.386-2.428,27.499-3.354c9.212-0.025,18.348-0.452,27.413,0.583
					c18.114,1.416,35.864,4.938,52.796,10.491C1718.204,3235.154,1734.487,3242.381,1749.339,3251.678z"/>
			</g>
		</g>
		<g>
			<g>
				<path fill="#FFFFFF" d="M2503.136,2477.346c-12.438,14.418-26.426,27.115-41.619,38.305
					c-114.656,84.357-299.508,81.774-435.038,66.969c-95.073-10.371-143.277-147.451-73.124-271.189
					c40.457-71.443,154.382-91.715,154.382-91.715s130.882-4.52,177.363-124.513l41.231-231.679l23.629-132.905
					c13.127,14.762,25.608,29.568,37.4,44.374c4.089,5.122,8.092,10.243,12.051,15.365
					C2622.396,2080.956,2595.971,2369.878,2503.136,2477.346z"/>
			</g>
		</g>
		<g>
			<g>
				<path fill="#371A45" d="M2163.455,2607.846c-43.086,0-89.362-2.695-138.822-8.09c-42.29-4.615-79.013-31.611-100.751-74.068
					c-32.722-63.911-27.178-149.262,14.473-222.748c43.982-77.598,161.402-99.303,166.378-100.186
					c9.355-1.666,18.301,4.57,19.966,13.93c1.667,9.355-4.563,18.291-13.916,19.967l0,0c-1.06,0.189-106.514,19.824-142.471,83.266
					c-43.038,75.934-35.338,147.979-13.782,190.078c16.604,32.428,42.827,52.148,73.838,55.532
					c227.905,24.874,383.247-8.583,461.727-99.429c53.958-62.461,88.289-202.061,43.354-373.145
					c-32.197-122.587-98.26-240.635-196.353-350.869c-6.321-7.104-5.687-17.983,1.416-24.307c7.104-6.323,17.988-5.689,24.307,1.416
					c101.733,114.327,170.344,237.134,203.931,365.01c51.411,195.748,4.873,340.186-50.601,404.404
					C2447.63,2567.924,2329.288,2607.842,2163.455,2607.846z"/>
			</g>
		</g>
		<g>
			<g>
				<path fill="#C6C6C6" d="M2349.105,1707.347c0,0-77.192,479.977-521.036,454.471v-35.262c0,0,292.504-33.377,414.111-353.891
					L2349.105,1707.347z"/>
			</g>
		</g>
		<g>
			<g>
				<path fill="#C6C6C6" d="M1495.681,1707.347c0,0,18.643,455.454,313.843,454.471v-35.262c0,0-142.146-33.089-225.744-353.891
					L1495.681,1707.347z"/>
			</g>
		</g>
		<g>
			<g>
				<path fill="#371A45" d="M1861.443,2178.262c-11.177,0-22.586-0.322-34.263-0.996l-14.583-0.836v-63.682l13.716-1.563
					c0.696-0.082,72.134-8.832,156.954-55.601c113.293-62.465,195.539-159.501,244.448-288.408l1.88-4.951l140.12-85.601
					l-5.335,33.179c-0.809,5.029-20.679,124.531-96.323,242.685C2201.08,2057.113,2076.941,2178.262,1861.443,2178.262z
					 M1843.54,2147.035c170.772,5.679,304.576-65.121,397.926-210.4c48.654-75.713,73.525-153.696,84.675-197.129l-71.403,43.619
					c-64.778,166.772-175.716,255.273-257.778,300.249c-68.385,37.477-127.591,51.607-153.419,56.387V2147.035z"/>
			</g>
		</g>
		<g>
			<g>
				<path fill="#371A45" d="M1808.587,2177.295c-127.322,0-224.546-81.939-281.219-237.032
					c-41.906-114.688-46.953-227.534-47.148-232.28l-1.323-32.339l118.479,87.842l1.374,5.278
					c80.313,308.189,212.952,342.412,214.282,342.724l11.963,2.783v62.969l-15.42,0.055
					C1809.248,2177.295,1808.914,2177.295,1808.587,2177.295z M1513.925,1740.136c4.472,41.64,15.685,116.338,42.733,190.117
					c50.322,137.27,130.144,209.756,237.395,215.698v-8.432c-37.287-15.498-151.802-83.926-223.854-355.665L1513.925,1740.136z"/>
			</g>
		</g>
		<g>
			<g opacity="0.35">
				<g>
					<path fill="#371A45" d="M2399.411,1790.357c-1.979,2.237-3.916,4.475-5.939,6.67c-21.347,23.887-43.771,46.095-67.141,66.496
						c-96.838,84.744-209.342,138.973-327.183,157.307c-13.815,2.109-27.674,3.789-41.662,4.95
						c-38.261,3.142-76.954,2.496-115.775-2.151c-32.106-3.831-64.343-10.373-96.407-19.799
						c-37.186-10.802-74.199-25.479-110.696-44.115c-3.184-1.635-6.326-3.271-9.469-4.993c-8.866-4.691-17.603-9.554-26.167-14.633
						c-23.888-14.074-46.912-29.61-69.121-46.482c-0.947-0.731-1.894-1.463-2.841-2.195c-8.607-6.585-17-13.342-25.307-20.4
						c12.653-23.198,25.35-44.545,38.778-62.966c18.507-111.643,40.198-232.411,64.859-361.571l685.053,37.013
						c38.262,100.324,70.541,198.023,96.967,291.504C2391.449,1780.114,2395.452,1785.235,2399.411,1790.357z"/>
				</g>
			</g>
			<g>
				<g>
					<path fill="#FFFFFF" d="M1261.823,1566.199c59.54,104.395,145.841,194.396,254.234,259.097
						c22.11,13.183,45.056,25.32,68.893,36.292c11.581,5.374,23.461,10.438,35.521,15.319
						c36.421,14.514,73.329,25.883,110.483,34.236c32.007,7.277,64.212,12.259,96.316,15.137
						c38.769,3.495,77.476,3.799,115.759,1.164c13.959-1.008,27.851-2.377,41.673-4.104
						c252.943-32.169,482.104-194.432,585.577-444.273c152.503-368.009-25.549-786.537-397.569-934.853
						c-71.671-28.515-145.367-45.055-218.659-50.283c-8.56-0.692-17.175-1.14-25.788-1.408c-23.03-0.875-45.978-0.666-68.783,0.622
						c-52.743,2.995-104.765,11.692-155.096,25.646c-50.334,13.896-99.098,33.112-145.265,57.202
						c-14.684,7.651-29.113,15.778-43.29,24.441c-21.233,12.992-41.837,26.992-61.744,42.182
						c-99.312,75.332-180.409,176.831-231.184,299.439C1135.165,1153.743,1156.838,1382.112,1261.823,1566.199z"/>
				</g>
				<g>
					<path fill="#371A45" d="M1892.313,1930.917c-21.87,0-43.665-0.972-65.198-2.915c-32.626-2.92-65.109-8.027-96.542-15.171
						c-37.5-8.433-74.762-19.976-110.743-34.312c-13.269-5.376-24.914-10.396-35.607-15.361
						c-23.389-10.767-46.621-23.003-69.051-36.372c-105.856-63.189-193.984-153.003-254.854-259.727
						c-109.797-192.524-124.019-420.576-39.019-625.668c49.131-118.633,129.263-222.427,231.738-300.161
						c19.41-14.805,40.234-29.028,61.89-42.275c13.887-8.491,28.486-16.733,43.395-24.502c46.264-24.141,95.251-43.433,145.6-57.334
						c50.801-14.086,103.106-22.734,155.463-25.703c22.774-1.294,45.968-1.504,68.946-0.63c9.17,0.289,17.636,0.752,25.859,1.417
						c74.776,5.337,148.517,22.295,219.161,50.4c181.089,72.198,322.16,209.937,397.233,387.857
						c74.476,176.504,74.937,371.572,1.3,549.272c-99.962,241.358-324.874,411.998-586.964,445.328
						c-13.794,1.724-27.845,3.11-41.765,4.111C1926.226,1930.336,1909.243,1930.917,1892.313,1930.917z M1263.328,1565.341
						c60.574,106.211,148.273,195.586,253.618,258.467c22.321,13.306,45.446,25.488,68.73,36.206
						c10.645,4.941,22.238,9.941,35.444,15.288c35.803,14.268,72.888,25.757,110.215,34.15c31.286,7.109,63.613,12.192,96.09,15.103
						c38.02,3.423,76.876,3.818,115.484,1.157c13.855-0.996,27.848-2.374,41.578-4.092
						c260.854-33.174,484.707-203.003,584.191-443.218c73.281-176.836,72.825-370.957-1.289-546.597
						c-74.709-177.055-215.104-314.135-395.322-385.981c-70.312-27.979-143.706-44.854-218.143-50.166
						c-8.184-0.664-16.592-1.124-25.715-1.406c-22.879-0.874-45.967-0.659-68.633,0.62c-52.109,2.959-104.168,11.568-154.731,25.586
						c-50.117,13.838-98.875,33.037-144.925,57.07c-14.839,7.729-29.367,15.933-43.188,24.385
						c-21.553,13.184-42.277,27.339-61.599,42.075c-101.987,77.363-181.738,180.659-230.633,298.73
						c-84.59,204.097-70.437,431.035,38.828,622.622H1263.328z"/>
				</g>
			</g>
			<g opacity="0.35">
				<g>
					<path fill="#371A45" d="M2570.276,1479.048c-103.449,249.867-332.646,412.144-585.589,444.273
						c-13.822,1.747-27.704,3.118-41.645,4.111c-38.293,2.654-76.993,2.321-115.758-1.146c-32.107-2.904-64.327-7.865-96.31-15.133
						c-37.178-8.342-74.069-19.714-110.519-34.229c-12.032-4.921-23.909-9.958-35.515-15.309
						c-23.841-10.989-46.763-23.167-68.884-36.332c-108.393-64.702-194.713-154.671-254.248-259.103
						c-32.718-57.343-57.359-119.033-73.106-183.155c59.126,98.337,142.439,183.052,245.846,244.785
						c22.097,13.227,45.044,25.343,68.885,36.332c11.562,5.37,23.439,10.406,35.515,15.309
						c36.45,14.515,73.341,25.886,110.476,34.249c32.025,7.249,64.202,12.229,96.31,15.132c38.764,3.465,77.508,3.781,115.758,1.147
						c13.983-1.014,27.864-2.383,41.687-4.13c252.945-32.13,482.098-194.389,585.59-444.274
						c60.413-145.755,68.906-299.425,34.091-441.066C2635.138,1027.009,2660.307,1261.84,2570.276,1479.048z"/>
				</g>
			</g>
			<g>
				<g>
					<path fill="#371A45" d="M1892.305,1942.529c-22.222,0-44.359-0.986-66.232-2.959c-33.138-2.969-66.138-8.154-98.076-15.415
						c-38.066-8.56-75.916-20.288-112.464-34.849c-13.511-5.468-25.329-10.571-36.201-15.615
						c-23.726-10.923-47.326-23.35-70.107-36.929c-107.578-64.219-197.134-155.488-258.991-263.95l0,0
						c-111.589-195.669-126.045-427.432-39.66-635.865c49.917-120.537,131.333-225.991,235.448-304.965
						c19.7-15.029,40.853-29.478,62.847-42.93c14.114-8.633,28.945-17.007,44.087-24.897
						c46.985-24.517,96.738-44.112,147.876-58.228c51.585-14.307,104.712-23.091,157.894-26.109
						c23.145-1.309,46.711-1.523,70.046-0.634c9.287,0.288,17.938,0.762,26.357,1.445c75.855,5.41,150.763,22.637,222.518,51.187
						c184.002,73.354,327.347,213.325,403.638,394.126c75.693,179.39,76.165,377.642,1.328,558.232
						c-101.553,245.195-330.012,418.55-596.223,452.402c-14.021,1.753-28.276,3.159-42.398,4.175
						C1926.772,1941.938,1909.515,1942.529,1892.305,1942.529z M1273.416,1559.589c59.585,104.473,145.852,192.393,249.482,254.249
						c21.966,13.096,44.722,25.083,67.632,35.625c10.503,4.878,21.924,9.805,34.948,15.078
						c35.179,14.014,71.673,25.322,108.403,33.584c30.809,7.002,62.62,12.002,94.58,14.863c37.415,3.374,75.652,3.755,113.65,1.138
						c13.618-0.981,27.405-2.334,40.936-4.028c256.706-32.646,477.009-199.766,574.904-436.138
						c72.083-173.945,71.636-364.883-1.26-537.642c-73.493-174.17-211.616-309.019-388.923-379.707
						c-69.197-27.534-141.424-44.146-214.669-49.37c-8.103-0.654-16.32-1.104-25.251-1.382c-22.592-0.864-45.311-0.649-67.617,0.61
						c-51.279,2.91-102.518,11.382-152.285,25.181c-49.339,13.618-97.329,32.52-142.651,56.172
						c-14.612,7.612-28.909,15.684-42.505,23.999c-21.214,12.974-41.609,26.904-60.613,41.401
						c-100.373,76.138-178.84,177.773-226.948,293.94C1152.024,1147.919,1165.945,1371.142,1273.416,1559.589L1273.416,1559.589z"/>
				</g>
			</g>
			<g>
				<g>
					<path fill="#371A45" d="M1892.303,1946.401c-22.339,0-44.593-0.991-66.577-2.974c-33.309-2.988-66.479-8.198-98.587-15.498
						c-38.257-8.604-76.304-20.391-113.039-35.029c-13.592-5.503-25.468-10.625-36.396-15.698
						c-23.838-10.972-47.562-23.467-70.459-37.114c-108.154-64.561-198.187-156.318-260.374-265.357l0,0
						c-112.188-196.713-126.721-429.716-39.873-639.267c50.18-121.167,132.021-227.178,236.683-306.567
						c19.797-15.098,41.062-29.624,63.166-43.149c14.189-8.677,29.102-17.095,44.321-25.024
						c47.222-24.644,97.234-44.336,148.633-58.53c51.846-14.375,105.249-23.203,158.704-26.235
						c23.267-1.318,46.958-1.539,70.412-0.64c9.326,0.288,18.04,0.767,26.523,1.455c76.214,5.435,151.512,22.749,223.636,51.445
						c184.977,73.745,329.077,214.458,405.771,396.221c76.102,180.351,76.575,379.663,1.338,561.221
						c-102.08,246.475-331.724,420.728-599.309,454.761c-14.095,1.763-28.419,3.169-42.608,4.194
						C1926.956,1945.805,1909.603,1946.401,1892.303,1946.401z M1276.778,1557.67c59.255,103.896,145.046,191.328,248.104,252.847
						c21.845,13.018,44.481,24.941,67.267,35.43c10.457,4.854,21.816,9.756,34.783,15.005c34.968,13.931,71.267,25.181,107.8,33.394
						c30.649,6.968,62.288,11.938,94.075,14.785c37.219,3.364,75.249,3.73,113.039,1.138c13.539-0.977,27.257-2.329,40.721-4.009
						c255.325-32.471,474.443-198.687,571.81-433.779c71.685-172.983,71.24-362.862-1.25-534.658
						c-73.086-173.208-210.451-307.314-386.79-377.617c-68.825-27.383-140.664-43.906-213.511-49.102
						c-8.076-0.654-16.23-1.099-25.098-1.377c-22.495-0.85-45.093-0.645-67.275,0.605c-51.006,2.895-101.968,11.323-151.47,25.049
						c-49.079,13.549-96.814,32.344-141.897,55.874c-14.533,7.573-28.755,15.601-42.275,23.867
						c-21.101,12.91-41.383,26.763-60.285,41.177c-99.834,75.732-177.874,176.812-225.718,292.344
						C1156.063,1148.291,1169.903,1370.272,1276.778,1557.67L1276.778,1557.67z"/>
				</g>
			</g>
			<g>
				<g>
					<path fill="#371A45" d="M1373.202,1713.241c430.899,285.353,1007.946,63.906,1030.972-444.252
						c15.665-345.72-315.218-625.785-652.621-617.417c-245.565,6.09-483.239,118.019-580.09,496.609
						c0,0-16.682,173.977,32.737,288.574c49.42,114.597,117.134,217.707,117.134,217.707L1373.202,1713.241z"/>
				</g>
			</g>
			<g>
				<g>
					<path fill="#220F2D" d="M2404.154,1268.994c-23.014,508.145-600.074,729.585-1030.956,444.266l-10.503-11.927
						c470.525,73.086,934.019-213.642,966.982-727.051C2380.846,1061.87,2408.971,1162.305,2404.154,1268.994z"/>
				</g>
			</g>
			<g>
				<g>
					<path fill="#371A45" d="M1782.28,1930.029c-17.424,0-34.907-0.566-52.443-1.709l-2.659-0.381
						c-38.296-8.613-76.343-20.4-113.078-35.039c-13.592-5.499-25.468-10.625-36.396-15.698
						c-23.838-10.972-47.562-23.467-70.459-37.114c-108.154-64.561-198.187-156.318-260.374-265.357l0,0
						c-112.188-196.713-126.721-429.716-39.873-639.267c50.18-121.167,132.021-227.178,236.683-306.567l1.408-1.069l1.597-0.762
						c86.609-41.221,187.563-63.535,300.059-66.323c202.476-4.922,411.095,81.597,558.152,231.699
						c132.388,135.137,200.938,305.708,193.018,480.293c-8.633,190.083-84.396,354.301-219.106,474.907
						C2147.811,1864.921,1969.202,1930.029,1782.28,1930.029z M1733.418,1894.047c196.035,12.456,386.368-50.254,522.423-172.061
						c127.661-114.292,199.475-270.181,207.678-450.815c7.48-164.937-57.588-326.396-183.217-454.634
						c-140.496-143.403-339.601-226.147-532.704-221.372c-106.938,2.646-202.653,23.584-284.519,62.236
						c-99.126,75.582-176.653,176.25-224.272,291.241c-82.744,199.648-68.903,421.63,37.972,609.028
						c59.255,103.896,145.046,191.328,248.104,252.847c21.845,13.018,44.481,24.941,67.267,35.43
						c10.457,4.854,21.816,9.756,34.783,15.005C1661.482,1874.716,1697.327,1885.859,1733.418,1894.047z"/>
				</g>
			</g>
			<g>
				<g>
					<path fill="#371A45" d="M1784.155,1856.547c-144.439,0-291.423-43.501-420.458-128.95l-1.9-1.26l-54.853-62.427
						c-2.799-4.257-69.109-105.684-118.553-220.342c-50.589-117.304-34.764-289.746-34.065-297.031l0.459-2.622
						c84.521-330.4,285.159-501.836,596.341-509.556c180.637-4.502,366.782,72.793,497.974,206.699
						c118.154,120.601,179.334,272.851,172.271,428.711c-10.236,225.942-129.556,413.198-327.36,513.75
						C1997.828,1832.417,1891.685,1856.547,1784.155,1856.547z M1384.595,1700.136c214.453,141.099,480.096,161.343,693.812,52.69
						c186.438-94.771,298.909-271.411,308.569-484.619c6.626-146.211-51.074-289.351-162.471-403.052
						c-124.634-127.207-301.401-200.605-472.524-196.372c-293.47,7.275-483.052,169.565-563.491,482.314
						c-1.343,15.875-13.372,174.747,31.52,278.838c45.668,105.903,108.033,203.223,115.067,214.082L1384.595,1700.136z"/>
				</g>
			</g>
			<g>
				<g>
					<path fill="#FFFFFF" d="M2726.531,1230.813c10.895,141.236-64.514,266.478-168.464,279.715
						c-103.951,13.238-197.046-90.537-207.94-231.772c-0.085-0.883-0.132-1.824-0.169-2.718
						c-9.76-140.122,65.412-263.862,168.634-276.998c80.302-10.231,154.124,49.378,188.589,142.119
						C2717.313,1168.471,2724.051,1198.695,2726.531,1230.813z"/>
				</g>
			</g>
			<g opacity="0.35">
				<g>
					<path fill="#371A45" d="M2726.531,1230.813c10.895,141.236-64.514,266.478-168.464,279.715
						c-103.951,13.238-197.046-90.537-207.94-231.772c-0.085-0.883-0.132-1.824-0.169-2.718
						c12.546,13.038,31.434,25.046,55.16,17.167c41.555-13.819,110.294-114.286,110.294-114.286s83.056-16.916,191.769-37.76
						C2717.313,1168.471,2724.051,1198.695,2726.531,1230.813z"/>
				</g>
			</g>
			<g>
				<g>
					<path fill="#371A45" d="M2539.957,1528.886c-38.294,0.005-75.423-13.897-108.433-40.791
						c-55.955-45.581-91.878-121.406-98.563-208.032c-11.569-150.02,70.737-283.745,183.477-298.105
						c45.405-5.742,89.905,7.881,128.721,39.502c55.952,45.581,91.875,121.406,98.558,208.032l0,0
						c11.572,150.02-70.735,283.745-183.475,298.105C2553.455,1528.457,2546.688,1528.886,2539.957,1528.886z M2536.505,1015.117
						c-5.226,0-10.467,0.332-15.718,1.001c-94.817,12.07-163.678,129.292-153.494,261.299
						c5.872,76.133,38.013,144.912,85.977,183.984c31.326,25.522,66.8,36.592,102.625,32.036
						c94.819-12.07,163.677-129.292,153.491-261.299l0,0c-5.872-76.133-38.011-144.912-85.975-183.984
						C2596.681,1026.376,2566.915,1015.117,2536.505,1015.117z"/>
				</g>
			</g>
			<g>
				<g>
					<path fill="#FFFFFF" d="M2747.261,1332.742c-26.568,107.359-113.683,166.84-194.574,132.855
						c-80.893-33.985-124.931-148.566-98.362-255.925s113.683-166.84,194.574-132.855
						C2729.791,1110.801,2773.829,1225.383,2747.261,1332.742z"/>
				</g>
				<g>
					<path fill="#371A45" d="M2599.271,1477.035c-15.866,0-31.748-3.251-47.282-9.78c-81.543-34.258-126.141-150.005-99.412-258.018
						c14.9-60.2,49.217-107.666,94.155-130.225c33.394-16.763,68.963-18.096,102.866-3.857
						c81.546,34.258,126.141,150.004,99.412,258.022l0,0c-14.9,60.2-49.222,107.671-94.16,130.225
						C2636.757,1472.485,2618.025,1477.035,2599.271,1477.035z M2602.327,1068.984c-18.218,0-36.406,4.424-53.979,13.247
						c-43.999,22.085-77.631,68.692-92.275,127.876c-26.32,106.357,17.332,220.229,97.313,253.828
						c32.893,13.819,67.424,12.529,99.849-3.75c43.999-22.084,77.634-68.691,92.28-127.875l1.748,0.434l-1.748-0.434
						c26.323-106.362-17.332-220.234-97.313-253.833C2633.134,1072.143,2617.721,1068.984,2602.327,1068.984z"/>
				</g>
			</g>
			<g opacity="0.35">
				<g>
					<path fill="#371A45" d="M2462.228,1369.027c-12.398-36.571-14.654-76.686-8.387-115.035
						c35.399,80.998,114.881,108.783,184.081,61.394c44.729-30.604,74.848-85.601,84.513-144.947
						c2.267,5.094,4.311,10.478,6.202,16.02c31.525,93.141-2.551,209.518-76.132,259.928
						C2578.924,1496.798,2493.747,1462.114,2462.228,1369.027z"/>
				</g>
			</g>
			<g>
				<g>
					<path fill="#371A45" d="M2603.06,1492.539c-28.186,0.004-55.669-10.317-80.295-30.298
						c-45.188-36.665-75.376-102.432-80.752-175.928c-9.065-123.912,54.458-234.307,141.606-246.094
						c33.613-4.541,66.805,5.562,95.983,29.238c45.188,36.665,75.376,102.432,80.752,175.928l0,0
						c9.065,123.906-54.458,234.302-141.606,246.094C2613.504,1492.187,2608.27,1492.539,2603.06,1492.539z M2599.088,1073.608
						c-3.616,0-7.234,0.244-10.854,0.732c-69.454,9.39-119.644,103.354-111.88,209.463c4.695,64.194,30.154,120.908,68.105,151.699
						c21.618,17.544,45.698,25.088,69.676,21.855c69.452-9.395,119.643-103.359,111.879-209.463l0,0
						c-4.694-64.194-30.154-120.908-68.105-151.699C2639.557,1081.303,2619.415,1073.608,2599.088,1073.608z"/>
				</g>
			</g>
			<g opacity="0.5">
				<g>
					<path fill="#FFFFFF" d="M1930.053,779.979c0,0-324.602,28.516-499.761,217.535c-0.184,0.199-0.368,0.397-0.552,0.596
						c-36.831,39.813-62.132,88.69-73.622,141.295c-15.195,69.567-15.354,119.645-13.768,163.725
						c4.884,134.057,32.594,195.827,32.594,195.827c-79.875-67.646-126.359-146.261-131.55-257.875
						c-0.481-11.004-0.566-22.372-0.281-34.044c0.057-2.69,0.174-5.354,0.332-8.039c-0.06-0.023-0.035-0.083,0.032-0.161
						c2.264-23.612,6.425-54.537,14.07-89.049c22.993-104.104,77.384-240.899,206.076-308.646
						C1704.258,674.463,1940.736,765.518,1930.053,779.979z"/>
				</g>
			</g>
			<g opacity="0.5">
				<g>
					<path fill="#FFFFFF" d="M2091.983,1127.357c18.349,58.982,74.885,93.959,126.275,78.125
						c51.392-15.834,78.178-76.485,59.828-135.466c-18.349-58.981-74.884-93.959-126.275-78.125
						C2100.421,1007.726,2073.635,1068.376,2091.983,1127.357z"/>
				</g>
			</g>
			<g opacity="0.5">
				<g>
					<path fill="#FFFFFF" d="M2208.105,1307.712c9.638,23.625,34.146,36.065,54.743,27.786c20.596-8.279,29.48-34.143,19.844-57.769
						c-9.638-23.625-34.146-36.065-54.743-27.786S2198.469,1284.087,2208.105,1307.712z"/>
				</g>
			</g>
		</g>
		<g>
			<g>
				<g>
					<path fill="#C6C6C6" d="M1938.399,2173.065h-338.936l52.076-81.198c7.675-11.967,20.912-19.203,35.128-19.203h164.527
						c14.216,0,27.454,7.236,35.129,19.203L1938.399,2173.065z"/>
				</g>
			</g>
			<g opacity="0.35">
				<g>
					<path fill="#371A45" d="M1938.399,2173.065h-338.936l52.076-81.198c7.675-11.967,20.912-19.203,35.128-19.203h164.527
						c14.216,0,27.454,7.236,35.129,19.203L1938.399,2173.065z"/>
				</g>
			</g>
			<g>
				<g>
					<path fill="#371A45" d="M1961.985,2185.961h-386.108l64.812-101.055c10.091-15.736,27.28-25.137,45.979-25.137h164.526
						c18.701,0,35.891,9.4,45.983,25.143L1961.985,2185.961z M1623.05,2160.17h291.763l-39.341-61.338
						c-5.33-8.314-14.404-13.271-24.277-13.271h-164.526c-9.871,0-18.945,4.957-24.272,13.268L1623.05,2160.17z"/>
				</g>
			</g>
			<g>
				<g>
					<path fill="#00B1FF" d="M2160.227,2658.828h-844.451c-15.456,0-28.102-12.646-28.102-28.102v-429.561
						c0-15.455,12.646-28.101,28.102-28.101h844.451c15.456,0,28.102,12.646,28.102,28.101v429.561
						C2188.328,2646.183,2175.683,2658.828,2160.227,2658.828z"/>
				</g>
			</g>
			<g>
				<g>
					<rect x="2107.75" y="2344.574" fill="#FFFFFF" width="80.579" height="156.938"/>
				</g>
			</g>
			<g>
				<g>
					<path fill="#371A45" d="M2160.228,2676.045h-844.453c-24.988,0-45.317-20.332-45.317-45.318v-429.561
						c0-24.985,20.329-45.316,45.317-45.316h844.453c24.988,0,45.317,20.331,45.317,45.316v429.561
						C2205.545,2655.713,2185.216,2676.045,2160.228,2676.045z M1315.774,2190.283c-5.901,0-10.884,4.984-10.884,10.883v429.561
						c0,5.898,4.982,10.885,10.884,10.885h844.453c5.901,0,10.884-4.986,10.884-10.885v-429.561c0-5.898-4.982-10.883-10.884-10.883
						H1315.774z"/>
				</g>
			</g>
			<g>
				<g>
					<path fill="#00B1FF" d="M2079.647,2658.828h-844.451c-15.456,0-28.102-12.646-28.102-28.102v-429.561
						c0-15.455,12.646-28.101,28.102-28.101h844.451c15.456,0,28.102,12.646,28.102,28.101v429.561
						C2107.749,2646.183,2095.104,2658.828,2079.647,2658.828z"/>
				</g>
			</g>
			<g>
				<g>
					<rect x="1207.094" y="2344.574" fill="#FFFFFF" width="900.644" height="156.938"/>
				</g>
			</g>
			<g opacity="0.35">
				<g>
					<path fill="#371A45" d="M2107.737,2554.534v76.187c0,15.442-12.623,28.105-28.105,28.105h-844.433
						c-15.441,0-28.105-12.663-28.105-28.105v-76.187c0,15.481,12.664,28.104,28.105,28.104h844.433
						C2095.114,2582.639,2107.737,2570.016,2107.737,2554.534z"/>
				</g>
			</g>
			<g>
				<g>
					<path fill="#371A45" d="M2079.646,2676.045h-844.45c-24.988,0-45.318-20.332-45.318-45.318v-429.561
						c0-24.985,20.33-45.316,45.318-45.316h844.45c24.988,0,45.32,20.331,45.32,45.316v429.561
						C2124.967,2655.713,2104.635,2676.045,2079.646,2676.045z M1235.196,2190.283c-5.901,0-10.885,4.984-10.885,10.883v429.561
						c0,5.898,4.983,10.885,10.885,10.885h844.45c5.901,0,10.887-4.986,10.887-10.885v-429.561c0-5.898-4.985-10.883-10.887-10.883
						H1235.196z"/>
				</g>
			</g>
			<g>
				<g>
					<path fill="#C6C6C6" d="M1879.797,2173.065h-338.936l52.075-81.198c7.675-11.967,20.913-19.203,35.129-19.203h164.527
						c14.216,0,27.453,7.236,35.128,19.203L1879.797,2173.065z"/>
				</g>
			</g>
			<g opacity="0.7">
				<g>
					<path fill="#FFFFFF" d="M1841.046,2112.668c-7.688-11.946-20.932-19.2-35.142-19.2h-164.522c-14.21,0-27.454,7.254-35.107,19.2
						l-38.735,60.398h-26.688l52.078-81.195c7.688-11.98,20.932-19.201,35.141-19.201h164.523c14.209,0,27.454,7.221,35.141,19.201
						L1841.046,2112.668z"/>
				</g>
			</g>
			<g>
				<g>
					<path fill="#FFFFFF" d="M1809.523,2173.065h-198.389l30.481-47.527c4.492-7.005,12.24-11.24,20.562-11.24h96.303
						c8.32,0,16.069,4.235,20.562,11.24L1809.523,2173.065z"/>
				</g>
			</g>
			<g>
				<g>
					<path fill="#371A45" d="M1841.019,2190.283h-261.38l47.485-74.039c7.7-12.002,20.804-19.164,35.054-19.164h96.302
						c14.25,0,27.354,7.162,35.051,19.159L1841.019,2190.283z M1642.627,2155.85h135.403l-13.48-21.021
						c-1.333-2.074-3.603-3.314-6.07-3.314h-96.302c-2.468,0-4.736,1.24-6.071,3.32L1642.627,2155.85z"/>
				</g>
			</g>
			<g>
				<g>
					<path fill="#371A45" d="M1903.384,2185.961h-386.108l64.81-101.049c10.092-15.742,27.28-25.143,45.979-25.143h164.528
						c18.699,0,35.889,9.4,45.981,25.143L1903.384,2185.961z M1564.448,2160.17h291.763l-39.343-61.338
						c-5.33-8.314-14.404-13.271-24.275-13.271h-164.528c-9.87,0-18.945,4.957-24.272,13.268L1564.448,2160.17z"/>
				</g>
			</g>
			<g>
				<g>
					<path fill="#C6C6C6" d="M2078.589,2173.065h-145.558v-21.491c0-13.816,11.201-25.018,25.019-25.018h95.521
						c13.817,0,25.019,11.201,25.019,25.018V2173.065z"/>
				</g>
			</g>
			<g>
				<g>
					<path fill="#371A45" d="M2091.482,2185.961H1920.14v-34.385c0-20.902,17.007-37.91,37.91-37.91h95.52
						c20.906,0,37.913,17.008,37.913,37.91V2185.961z M1945.927,2160.17h119.77v-8.594c0-6.684-5.438-12.123-12.127-12.123h-95.52
						c-6.685,0-12.123,5.439-12.123,12.123V2160.17z"/>
				</g>
			</g>
			<g>
				<g>
					<path fill="#FAFCFB" d="M1473.354,2173.065h-232.758v-21.491c0-13.816,11.201-25.018,25.019-25.018h182.722
						c13.816,0,25.018,11.201,25.018,25.018V2173.065z"/>
				</g>
			</g>
			<g>
				<g>
					<path fill="#371A45" d="M1488.823,2188.539h-263.698v-36.963c0-22.329,18.161-40.492,40.488-40.492h182.722
						c22.327,0,40.488,18.163,40.488,40.492V2188.539z M1256.067,2157.592h201.813v-6.016c0-5.264-4.282-9.545-9.546-9.545h-182.722
						c-5.264,0-9.546,4.281-9.546,9.545V2157.592z"/>
				</g>
			</g>
			<g>
				<g>
					<path fill="#FAFCFB" d="M2049.336,2126.557h-87.051v-22.23c0-13.816,11.2-25.018,25.018-25.018h37.015
						c13.817,0,25.019,11.201,25.019,25.018V2126.557z"/>
				</g>
			</g>
			<g>
				<g>
					<path fill="#371A45" d="M2062.229,2139.453h-112.837v-35.127c0-20.904,17.007-37.91,37.91-37.91h37.015
						c20.905,0,37.912,17.006,37.912,37.91V2139.453z M1975.179,2113.662h61.265v-9.336c0-6.686-5.439-12.119-12.126-12.119h-37.015
						c-6.685,0-12.124,5.434-12.124,12.119V2113.662z"/>
				</g>
			</g>
			<g>
				<g>
					<path fill="#371A45" d="M1953.333,2278.159L1953.333,2278.159c-16.797,0-30.541-13.743-30.541-30.542l0,0
						c0-16.797,13.744-30.541,30.541-30.541l0,0c16.798,0,30.542,13.744,30.542,30.541l0,0
						C1983.875,2264.416,1970.131,2278.159,1953.333,2278.159z"/>
				</g>
			</g>
			<g>
				<g>
					<g>
						<circle fill="#FAFCFB" cx="1637.395" cy="2415.938" r="236.237"/>
					</g>
				</g>
				<g>
					<g>
						<path fill="#FAFCFB" d="M1873.375,2427.346c-5.971,125.189-109.331,224.814-235.985,224.814
							c-130.465,0-236.241-105.742-236.241-236.205c0-130.502,105.776-236.242,236.241-236.242c14.724,0,29.154,1.355,43.146,3.955
							c-0.219,5.055-0.329,10.183-0.329,15.311c0,130.501,68.785,236.242,153.686,236.242
							C1847.553,2435.221,1860.775,2432.473,1873.375,2427.346z"/>
					</g>
				</g>
				<g opacity="0.35">
					<g>
						<path fill="#371A45" d="M1873.375,2427.346c-5.971,125.189-109.331,224.814-235.985,224.814
							c-130.465,0-236.241-105.742-236.241-236.205c0-130.502,105.776-236.242,236.241-236.242c14.724,0,29.154,1.355,43.146,3.955
							c-0.219,5.055-0.329,10.183-0.329,15.311c0,130.501,68.785,236.242,153.686,236.242
							C1847.553,2435.221,1860.775,2432.473,1873.375,2427.346z"/>
					</g>
				</g>
				<g>
					<g>
						<path fill="#371A45" d="M1637.393,2667.646c-138.791,0-251.706-112.916-251.706-251.709
							c0-138.795,112.915-251.709,251.706-251.709c138.794,0,251.709,112.914,251.709,251.709
							C1889.102,2554.73,1776.187,2667.646,1637.393,2667.646z M1637.393,2195.176c-121.729,0-220.764,99.033-220.764,220.762
							s99.035,220.762,220.764,220.762c121.731,0,220.767-99.033,220.767-220.762S1759.124,2195.176,1637.393,2195.176z"/>
					</g>
				</g>
				<g>
					<g>
						<circle fill="#FAFCFB" cx="1578.791" cy="2415.938" r="236.237"/>
					</g>
				</g>
				<g opacity="0.35">
					<g>
						<path fill="#371A45" d="M1815.014,2415.953c0,130.437-105.764,236.24-236.241,236.24
							c-130.438,0-236.201-105.804-236.201-236.24c0-12.134,0.898-24.021,2.695-35.664
							c17.199,113.525,115.2,200.538,233.506,200.538c118.345,0,216.347-87.013,233.545-200.538
							C1814.114,2391.932,1815.014,2403.819,1815.014,2415.953z"/>
					</g>
				</g>
				<g>
					<g>
						<circle fill="#371A45" cx="1578.791" cy="2415.938" r="168.319"/>
					</g>
				</g>
				<g>
					<g>
						<circle fill="#270F35" cx="1572" cy="2410.304" r="71.363"/>
					</g>
				</g>
				<g>
					<g>
						<circle fill="#C1C1C1" cx="1563.031" cy="2398.455" r="26.566"/>
					</g>
				</g>
				<g>
					<g>
						<circle fill="#FAFCFB" cx="1559.34" cy="2392.18" r="10.161"/>
					</g>
				</g>
				<g>
					<g>
						<path fill="#371A45" d="M1578.792,2601.475c-102.305,0-185.537-83.232-185.537-185.537s83.232-185.537,185.537-185.537
							s185.534,83.232,185.534,185.537S1681.097,2601.475,1578.792,2601.475z M1578.792,2264.834
							c-83.32,0-151.104,67.783-151.104,151.104s67.783,151.104,151.104,151.104c83.317,0,151.101-67.783,151.101-151.104
							S1662.109,2264.834,1578.792,2264.834z"/>
					</g>
				</g>
				<g opacity="0.3">
					<g>
						<path fill="#FAFCFB" d="M1449.856,2431.41c-8.545,0-15.472-6.928-15.472-15.473c0-79.625,64.78-144.41,144.407-144.41
							c8.545,0,15.471,6.93,15.471,15.475s-6.926,15.473-15.471,15.473c-62.563,0-113.465,50.898-113.465,113.463
							C1465.327,2424.482,1458.401,2431.41,1449.856,2431.41z"/>
					</g>
				</g>
				<g opacity="0.3">
					<g>
						<path fill="#FAFCFB" d="M1622.563,2552.143c-6.26,0-12.15-3.822-14.484-10.029c-3.008-7.998,1.04-16.918,9.038-19.926
							c24.055-9.043,44.557-26.24,57.727-48.418c4.365-7.35,13.857-9.776,21.205-5.401c7.345,4.36,9.765,13.853,5.401,21.202
							c-16.75,28.202-42.832,50.072-73.443,61.581C1626.214,2551.826,1624.373,2552.143,1622.563,2552.143z"/>
					</g>
				</g>
				<g>
					<g>
						<path fill="#371A45" d="M1578.792,2667.646c-138.794,0-251.709-112.916-251.709-251.709
							c0-138.795,112.915-251.709,251.709-251.709c138.791,0,251.706,112.914,251.706,251.709
							C1830.498,2554.73,1717.583,2667.646,1578.792,2667.646z M1578.792,2195.176c-121.731,0-220.767,99.033-220.767,220.762
							s99.035,220.762,220.767,220.762c121.729,0,220.764-99.033,220.764-220.762S1700.521,2195.176,1578.792,2195.176z"/>
					</g>
				</g>
			</g>
		</g>
		<g>
			<g>
				<path fill="#FFFFFF" d="M2285.115,2095.205c-46.503,120.002-177.366,124.496-177.366,124.496s-113.92,20.279-154.416,91.727
					c-70.135,123.742-21.946,260.83,73.166,271.211c153.47,16.752,370.265,17.833,476.622-105.287
					c60.188-69.674,92.466-215.581,46.978-388.773"/>
			</g>
		</g>
		<g opacity="0.35">
			<g>
				<path fill="#371A45" d="M2503.136,2441.246c-106.393,123.134-323.181,122.059-476.657,105.273
					c-76.954-8.393-123.179-99.766-100.798-199.917c13.558,55.392,57.816,98.417,104.238,118.138
					c141.697,60.198,366.824,1.296,473.217-121.84c33.829-39.121,58.834-102.432,66.15-181.064
					C2580.089,2285.917,2550.135,2386.844,2503.136,2441.246z"/>
			</g>
		</g>
		<g>
			<g>
				<path fill="#371A45" d="M2163.455,2607.846c-43.086,0-89.362-2.695-138.822-8.09c-42.29-4.615-79.013-31.611-100.751-74.068
					c-32.722-63.911-27.178-149.262,14.473-222.748c34.986-61.725,117.205-88.209,150.929-96.729
					c9.23-2.343,18.579,3.253,20.91,12.471c2.329,9.22-3.257,18.579-12.473,20.908c-29.438,7.442-100.975,30.157-129.409,80.327
					c-43.038,75.934-35.338,147.979-13.782,190.078c16.604,32.428,42.827,52.148,73.838,55.532
					c227.905,24.874,383.247-8.583,461.727-99.429c53.958-62.461,88.289-202.061,43.354-373.145
					c-2.417-9.199,3.081-18.607,12.277-21.025c9.197-2.416,18.611,3.082,21.023,12.275c51.411,195.748,4.873,340.186-50.601,404.404
					C2447.63,2567.924,2329.288,2607.842,2163.455,2607.846z"/>
			</g>
		</g>
		<g>
			<g>
				<path fill="#371A45" d="M2290.466,2097.277c1.505,21.666-6.699,42.066-19.222,58.86c-6.358,8.396-14.225,15.481-22.054,22.364
					c-7.968,6.748-16.101,13.236-24.71,19.029c-17.248,11.529-35.978,20.452-55.345,27.01c-9.693,3.273-19.559,5.942-29.564,8.045
					c-5.004,1.057-10.045,1.955-15.153,2.686c-2.552,0.378-5.119,0.695-7.732,0.971c-2.707,0.286-5.014,0.508-8.346,0.664
					c-9.495,0.45-17.56-6.882-18.009-16.379s6.884-17.559,16.38-18.008l0.447-0.024c1.43-0.068,3.874-0.264,5.907-0.491
					c2.127-0.225,4.292-0.492,6.456-0.814c4.33-0.615,8.682-1.393,13.006-2.308c8.654-1.818,17.228-4.136,25.602-6.966
					c16.743-5.668,32.721-13.322,47.192-22.992c7.18-4.898,14.133-10.133,20.297-16.194c6.08-6.155,11.441-12.864,16.913-19.438
					c11.237-13.059,21.742-26.367,37.233-40.158l0.165-0.149c2.613-2.327,6.62-2.095,8.948,0.521
					C2289.847,2094.592,2290.372,2095.928,2290.466,2097.277z"/>
			</g>
		</g>
		<g>
			<g>
				<path fill="#FFFFFF" d="M1217.869,2217.076c0,0,90.006,28.141,90.006,185.868c0,95.073-50.323,154.803-90.008,160.838
					c-39.684,6.035-73.859-11.464-93.979-91.887C1106.638,2402.944,1103.717,2229.317,1217.869,2217.076z"/>
			</g>
		</g>
		<g opacity="0.35">
			<g>
				<path fill="#371A45" d="M1307.855,2371.988c0,95.073-50.313,154.811-89.995,160.836c-39.682,6.069-73.854-11.447-93.954-91.888
					c-7.704-30.729-12.524-82.29-5.423-131.054c1.463,10.932,3.314,20.788,5.423,29.138c20.1,80.396,54.272,97.913,93.954,91.888
					c32.796-4.992,72.865-46.654,85.734-114.612C1306.306,2332.779,1307.855,2351.242,1307.855,2371.988z"/>
			</g>
		</g>
		<g>
			<g>
				<path fill="#371A45" d="M1204.112,2582.089c-47.332,0-79.122-34.858-96.927-106.015
					c-13.477-53.873-18.279-163.082,26.201-226.803c20.254-29.014,48.06-45.605,82.646-49.316l3.561-0.381l3.413,1.07
					c4.17,1.303,102.086,33.857,102.086,202.299c0,100.029-54.315,170.205-104.639,177.861
					C1214.814,2581.66,1209.365,2582.089,1204.112,2582.089z M1215.691,2234.707c-22.651,3.402-40.369,14.643-54.07,34.271
					c-35.925,51.465-33.925,147.197-21.032,198.735c21.789,87.104,57.515,81.665,74.69,79.048
					c30.81-4.682,75.38-58.594,75.38-143.818C1290.659,2275.951,1230.442,2241.289,1215.691,2234.707z"/>
			</g>
		</g>
		<g>
			<g>
				<path fill="#371A45" d="M2477.566,2515.766c-1.047,0-2.109-0.127-3.171-0.395c-6.904-1.749-11.084-8.76-9.339-15.66
					c28.587-113.027,2.354-204.945-77.971-273.213c-60.933-51.781-131.782-70.137-132.49-70.317
					c-6.899-1.743-11.084-8.75-9.344-15.649c1.736-6.904,8.743-11.084,15.638-9.355c5.588,1.406,137.624,35.67,204.255,147.222
					c38.452,64.375,46.834,140.962,24.912,227.632C2488.58,2511.875,2483.328,2515.766,2477.566,2515.766z"/>
			</g>
		</g>
	</g>
</g>
</svg>
