<?xml version="1.0" encoding="utf-8"?>
<!-- Generator: Adobe Illustrator 15.0.0, SVG Export Plug-In . SVG Version: 6.00 Build 0)  -->
<!DOCTYPE svg PUBLIC "-//W3C//DTD SVG 1.1//EN" "http://www.w3.org/Graphics/SVG/1.1/DTD/svg11.dtd">
<svg version="1.1" id="Layer_1" xmlns="http://www.w3.org/2000/svg" xmlns:xlink="http://www.w3.org/1999/xlink" x="0px" y="0px"
	 width="4000px" height="4000px" viewBox="0 0 4000 4000" enable-background="new 0 0 4000 4000" xml:space="preserve">
<g>
	<g>
		<g>
			<rect fill="#FFFFFF" width="4000" height="4000"/>
		</g>
	</g>
	<g>
		<g>
			<g>
				<defs>
					<circle id="SVGID_1_" cx="2000" cy="2025" r="1410"/>
				</defs>
				<use xlink:href="#SVGID_1_"  overflow="visible" fill="#0BCBFF"/>
				<clipPath id="SVGID_2_">
					<use xlink:href="#SVGID_1_"  overflow="visible"/>
				</clipPath>
				<g clip-path="url(#SVGID_2_)">
					<path fill="#FFFFFF" d="M2872.082,1688.077h832.837c27.661,0,42.299-33.955,23.18-54.365
						c-16.5-17.614-42.329-25.196-73.028-17.561c-8.881-69.383-62.614-122.692-127.602-122.692c-28.074,0-54.102,9.99-75.301,26.972
						c-17.311-96.446-94.002-169.145-186-169.145c-92.12,0-168.853,72.834-186.082,169.417
						c-27.746-20.661-61.182-32.694-97.112-32.694c-77.571,0-143.285,38.617-166.046,126.739
						C2807.364,1651.776,2834.578,1688.077,2872.082,1688.077z"/>
				</g>
				<g clip-path="url(#SVGID_2_)">
					<path fill="#FFFFFF" d="M1026.78,2550H247.829c-25.871,0-39.562-31.758-21.679-50.848
						c15.432-16.475,39.589-23.566,68.303-16.425c8.306-64.894,58.563-114.754,119.345-114.754c26.258,0,50.602,9.343,70.429,25.228
						C500.417,2302.994,572.147,2235,658.192,2235c86.159,0,157.928,68.122,174.042,158.456
						c25.951-19.324,57.223-30.579,90.829-30.579c72.553,0,134.015,36.118,155.303,118.539
						C1087.311,2516.048,1061.857,2550,1026.78,2550z"/>
				</g>
			</g>
		</g>
		<g>
			<g>
				<path fill="#FFFFFF" d="M1246.739,2179.679c15.751-125.657-84.824-200.554-157.055-222.409
					c-264.61-80.158-321.861-272.854-270.96-415.666c37.255-104.47-49.639-145.689-203.992-142.005
					c-160.598,3.789-179.33-236.02,105.557-250.087c69.564-3.438,126.009,8.033,170.771,29.433
					c138.498,66.021,164.948,226.829,121.694,333.403c-5.612,13.857-10.068,27.222-13.366,40.132
					c-32.344,125.623,41.711,208.342,187.435,271.206c45.674,19.68,157.616,44.446,171.999,218.831L1246.739,2179.679z"/>
			</g>
			<g>
				<path fill="#ED7343" d="M1012.754,1512.346c-5.612,13.857-10.068,27.222-13.366,40.132
					c-76.335-63.881-124.886-159.861-124.886-267.207c0-37.08,5.788-72.792,16.558-106.328
					C1029.558,1244.964,1056.008,1405.772,1012.754,1512.346z"/>
			</g>
			<g opacity="0.3">
				<path fill="#000072" d="M1246.739,2179.679c15.751-125.657-84.824-200.554-157.055-222.409
					c-264.61-80.158-321.861-272.854-270.96-415.666c37.255-104.47-49.639-145.689-203.992-142.005
					c-102.96,2.42-147.618-95.278-91.279-169.403c-10.349,67.565,41.079,130.709,128.815,124.851
					c166.842-11.19,262.751,29.328,227.355,144.075c-48.376,156.879,22.592,362.695,312.601,436.995
					c53.217,13.611,121.413,52.585,156.984,118.186L1246.739,2179.679z"/>
			</g>
			<g opacity="0.4">
				<path fill="#FFFFFF" d="M1358.821,2042.515l-19.436,23.784c-16.522-168.736-126.323-193.152-171.437-212.586
					c-145.724-62.864-219.777-145.583-187.434-271.206c3.297-12.91,7.752-26.275,13.365-40.132
					c43.254-106.574,16.803-267.382-121.693-333.403c-44.764-21.399-101.207-32.87-170.771-29.432
					c-98.154,4.841-160.247,36.483-192.941,75.738c23.223-52.094,89.56-99.733,211.814-105.767
					c69.564-3.438,126.009,8.033,170.771,29.433c138.498,66.021,164.948,226.829,121.694,333.403
					c-5.612,13.857-10.068,27.222-13.366,40.132c-32.344,125.623,41.711,208.342,187.435,271.206
					C1232.496,1843.364,1344.438,1868.13,1358.821,2042.515z"/>
			</g>
			<g>
				<path fill="#000072" d="M1226.729,2226.332l6.074-48.394c15.552-123.96-89.472-189.772-147.178-207.251
					c-161.792-49.011-233.95-135.031-265.991-198.562c-37.021-73.408-42.035-156.953-14.126-235.244
					c11.45-32.117,10.361-56.937-3.335-75.874c-24.111-33.343-88.729-49.722-187.09-47.397
					c-82.563,2.068-128.119-53.872-130.176-110.046c-2.753-75.227,69.517-159.915,234.703-168.082
					c156.483-7.678,236.498,57.217,276.156,113.064c53.794,75.752,65.566,181.374,30,269.087
					c-52.831,130.28-1.455,220.695,166.603,293.159c4.37,1.885,9.37,3.813,14.843,5.93c53.086,20.525,151.9,58.729,165.582,224.644
					l0.463,5.645L1226.729,2226.332z M633.077,1385.327c98.9,0,163.393,19.9,191.84,59.238
					c19.244,26.612,21.606,60.843,7.027,101.741c-25.309,70.988-20.782,146.696,12.749,213.184
					c42.406,84.082,128.534,147.827,249.067,184.338c58.681,17.776,160.385,79.917,168.213,195.021l82.349-100.777
					c-13.882-143.62-97.198-175.827-147.232-195.171c-5.84-2.258-11.171-4.323-15.835-6.335
					c-87.593-37.771-145.253-80.796-176.284-131.536c-34.585-56.557-36.289-121.304-5.21-197.941
					c26.265-64.773,28.14-164.813-26.875-242.293c-35.6-50.126-108.252-108.408-251.89-101.279
					c-146.172,7.225-210.307,77.129-208.042,139.021c1.504,41.108,33.882,84.694,101.465,83.018
					C620.767,1385.402,626.988,1385.327,633.077,1385.327z"/>
			</g>
			<g>
				<path fill="#FFFFFF" d="M2258.181,2393.205c0,0,71.356,40.296,290.902,26.182c94.189-6.056,183.9-8.662,278.414,39.877
					c134.035,68.836,232.547,28.057,261.2-84.458c15.495-60.846-42.668-112.46-169.341-178.428
					c-136.262-70.963-472.932,1.226-625.743-135.285"/>
			</g>
			<g opacity="0.3">
				<path fill="#000072" d="M3088.701,2374.795c-28.661,112.538-127.167,153.301-261.208,84.474
					c-94.507-48.551-184.207-45.92-278.397-39.886c-219.568,14.102-290.921-26.17-290.921-26.17l35.431-332.105
					c0.912,0.842,1.86,1.648,2.807,2.455l-29.117,272.925c0,0,71.354,40.308,290.921,26.171
					c94.191-6.034,183.892-8.666,278.397,39.886c123.729,63.53,217.183,33.677,253.351-59.776
					C3091.893,2353.221,3091.472,2363.85,3088.701,2374.795z"/>
			</g>
			<g>
				<path fill="#000072" d="M2948.346,2507.06c-38.555,0-81.543-11.836-127.261-35.317c-89.438-45.923-172.197-44.712-271.099-38.35
					c-221.182,14.194-295.645-26.235-298.707-27.969c-6.747-3.809-9.13-12.368-5.316-19.116c3.789-6.719,12.295-9.121,19.028-5.366
					c1.035,0.552,72.944,37.949,283.193,24.443c99.722-6.416,190.063-7.729,285.723,41.396
					c65.947,33.867,124.253,41.206,168.604,21.221c35.454-15.981,60.557-49.409,72.588-96.66
					c12.461-48.936-34.536-96.021-162.222-162.52c-53.613-27.92-143.54-32.768-238.745-37.9
					c-138.989-7.49-296.528-15.981-389.868-99.365c-5.776-5.161-6.279-14.033-1.113-19.814c5.156-5.771,14.028-6.279,19.814-1.113
					c85.991,76.816,238.296,85.024,372.676,92.271c98.325,5.298,191.196,10.303,250.195,41.03
					c119.741,62.363,195.571,119.272,176.46,194.336c-14.219,55.825-44.736,95.703-88.252,115.322
					C2994.088,2502.582,2972.052,2507.055,2948.346,2507.06z"/>
			</g>
			<g>
				<path fill="#FFFFFF" d="M2595.401,2434.081c-257.84,206.062-843.821,308.286-1147.968,145.724
					c-235.248-125.763-286.642-439.802-149.723-645.407c20.347-30.59,44.867-58.795,73.599-83.597
					c162.247-140.146,387.637-105.03,569.283-37.185c6.033,2.246,12.067,4.561,17.996,6.876c2.14,0.842,4.245,1.648,6.35,2.526
					c53.322,70.511,107.907,129.762,154.739,154.809c-24.802,105.452-42.167,183.891-40.658,197.187
					c0.807,7.016,1.754,13.891,2.877,20.557C2126.869,2462.742,2423.648,2459.444,2595.401,2434.081z"/>
			</g>
			<g opacity="0.3">
				<path fill="#000072" d="M2595.401,2434.081c-257.84,206.062-843.821,308.286-1147.968,145.724
					c-162.912-87.104-237.669-264.506-222.759-433.628c12.313,141.128,86.857,276.608,222.759,349.26
					c252.473,134.954,699.115,87.42,991.089-50.48C2494.932,2446.043,2549.622,2440.852,2595.401,2434.081z"/>
			</g>
			<g>
				<path fill="#FFFFFF" d="M2674.647,2353.467c-1.543,2.104-3.087,4.174-4.7,6.244c-19.961,25.994-45.113,50.866-74.546,74.37
					c-176.033,25.994-483.477,28.801-516.382-259.067c-1.859-16.207,24.381-129.236,57.918-269.943
					c68.512,38.062,111.204,68.371,111.204,68.371L2674.647,2353.467z"/>
			</g>
			<g>
				<path fill="#000072" d="M1836.372,2674.101c-155.601,0-294.38-27.847-395.536-81.914
					c-128.521-68.691-211.992-195.815-229.009-348.77c-17.374-156.177,38.813-306.914,150.297-403.223
					c133.892-115.654,331.495-130.908,571.426-44.106c179.244,64.841,321.29,164.919,322.701,165.923l1.216,0.966l436.045,388.486
					l-7.524,10.288c-91.064,124.468-307.471,233.169-564.766,283.682C2023.331,2664.647,1926.992,2674.101,1836.372,2674.101z
					 M1650.728,1768.752c-95.658,0-191.079,24.287-270.254,92.681c-104.492,90.261-157.108,231.896-140.757,378.879
					c15.981,143.623,94.106,262.856,214.351,327.129c154.541,82.603,401.924,101.455,661.744,50.454
					c243.53-47.808,448.496-147.813,539.81-262.603l-416.216-370.82c-10.229-7.141-146.099-100.84-315.938-162.188
					C1843.224,1793.3,1746.851,1768.752,1650.728,1768.752z"/>
			</g>
			<g>
				<path fill="#FFFFFF" d="M1687.249,2492.599c0,0-30.524,158.356-262.032,190.916c-134.918,18.975-229.283-62.918-229.283-62.918
					s-80.52,96.898-188.569,74.031c-74.968-15.865-121.622-86.077-104.775-158.736c18.549-80.004,71.534-118.728,114.002-153.191
					c126.598-102.736,233.576,16.9,249.728-122.024"/>
			</g>
			<g opacity="0.3">
				<path fill="#000072" d="M1654.227,2561.44c-33.767,47.025-100.348,103.97-228.998,122.062
					c-134.92,18.979-229.285-62.899-229.285-62.899s-80.545,96.892-188.592,74.021c-74.967-15.857-121.624-86.088-104.75-158.738
					c0.632-2.702,1.298-5.368,1.999-7.999c13.928,54.094,54.551,103.873,107.521,111.239
					c158.388,22.031,115.169-126.569,115.169-126.569s163.018,112.397,297.938,93.419c91.892-12.916,155.274-40.473,197.911-70.977
					C1654.509,2512.556,1681.219,2523.849,1654.227,2561.44z"/>
			</g>
			<g>
				<path fill="#000072" d="M1646.636,2578.85c-9.614,19.279-23.97,35.918-40.386,49.829c-16.605,13.73-35.097,25.117-54.497,34.251
					c-19.413,9.12-39.702,16.098-60.239,21.454c-20.513,5.472-41.279,9.539-62.119,12.669c-5.229,0.793-10.669,1.133-15.996,1.714
					l-8.032,0.776c-2.67,0.317-5.355,0.498-8.047,0.461c-10.762,0.101-21.533,0.618-32.256-0.449
					c-21.503-1.066-42.764-5.061-63.447-10.668c-20.737-5.56-40.801-13.351-59.96-22.913c-9.585-4.773-18.941-10.01-28.077-15.659
					c-4.517-2.923-9.063-5.784-13.466-8.955c-4.522-3.145-8.628-6.238-13.374-10.164l19.984-1.631
					c-3.783,4.419-7.113,7.847-10.801,11.531c-3.633,3.584-7.319,7.077-11.133,10.425c-7.583,6.743-15.537,13.047-23.833,18.923
					c-16.577,11.731-34.561,21.802-53.906,29.077c-38.442,14.949-83.052,17.407-122.886,2.967
					c-39.907-13.938-74.224-45.413-89.404-85.628c-7.675-19.961-10.762-41.694-8.988-62.961c0.194-5.356,1.216-10.586,2.177-15.825
					c0.787-5.371,2.286-10.166,3.57-15.137c1.191-4.976,2.909-9.822,4.565-14.681c1.522-4.904,3.578-9.629,5.551-14.38
					c8.066-18.913,18.755-36.821,31.621-52.686c12.804-15.923,27.339-30.114,42.354-43c7.509-6.445,15.112-12.646,22.637-18.714
					c3.827-3.059,7.329-5.996,11.362-9.094c4.092-3.06,8.046-6.279,12.265-9.188c16.753-11.77,35.337-21.359,54.966-27.941
					c19.6-6.751,40.187-9.93,60.288-11.245c20.063-1.338,39.932-0.198,58.053-1.333c9.018-0.594,17.529-1.953,24.501-4.354
					c6.997-2.466,12.315-5.656,17.104-10.686c4.746-5.066,8.745-12.188,12.661-20.02c4.194-7.771,7.368-16.595,12.222-25.481
					l0.137-0.246c1.305-2.393,4.308-3.271,6.7-1.966c1.304,0.713,2.162,1.946,2.455,3.291c2.197,10.188,2.628,20.54,1.016,31.187
					c-1.611,10.547-5.161,21.612-12.671,31.565c-1.991,2.397-3.999,4.821-6.24,7.028c-2.431,2.024-4.766,4.263-7.407,5.999
					c-5.317,3.433-11.005,6.247-16.698,7.868c-11.421,3.504-22.296,4.038-32.496,4.349c-20.415,0.347-39.154-0.33-57.607,0.808
					c-18.325,1.219-36.196,4.012-53.104,9.847c-16.934,5.69-32.979,13.928-47.779,24.318c-3.726,2.559-7.241,5.455-10.884,8.152
					c-3.617,2.764-7.509,6.021-11.216,8.979c-7.484,6.032-14.824,12.026-21.947,18.14c-14.239,12.214-27.369,25.124-38.75,39.263
					c-11.437,14.089-20.665,29.646-27.729,46.177c-6.875,16.45-12.281,34.494-13.707,51.299c-1.421,17.139,1.05,34.504,7.192,50.542
					c12.174,32.292,39.869,57.834,72.617,69.302c4.009,1.701,8.296,2.603,12.5,3.74c4.161,1.277,8.565,1.846,12.886,2.673
					c8.717,1.185,17.505,1.821,26.305,1.543c17.592-0.612,35.131-4.302,51.87-10.715c16.771-6.297,32.738-15.198,47.617-25.73
					c7.441-5.269,14.618-10.959,21.445-17.031c3.438-3.01,6.747-6.154,9.98-9.338c3.145-3.115,6.499-6.646,8.988-9.551l9.067-10.584
					l10.923,8.955c3.175,2.603,7.241,5.735,11.162,8.431c3.926,2.834,8.076,5.437,12.173,8.096
					c8.331,5.144,16.899,9.946,25.694,14.323c17.572,8.777,35.985,15.926,54.921,20.984c18.896,5.112,38.242,8.774,57.774,9.714
					c9.74,1.006,19.517,0.477,29.286,0.418c2.447,0.047,4.883-0.119,7.31-0.42l7.296-0.718c4.872-0.54,9.701-0.801,14.618-1.548
					c19.795-2.822,39.282-7.163,58.359-12.581c19.054-5.571,37.397-12.944,55.19-21.157c17.774-8.276,34.893-17.731,51.295-28.433
					c16.645-10.456,32.25-22.292,49.252-34.265l0.098-0.071c2.173-1.528,5.171-1.008,6.7,1.162
					C1647.315,2575.43,1647.393,2577.321,1646.636,2578.85z"/>
			</g>
			<g>
				<path fill="#000072" d="M1186.284,2630.783c-5.688-4.541-9.692-8.729-13.856-13.511c-4.117-4.648-7.783-9.575-11.255-14.619
					c-6.998-10.044-12.652-20.867-17.911-31.758c-5.161-10.95-9.663-22.156-13.472-33.558c-3.77-11.421-6.87-23.032-9.028-34.865
					c-0.205-1.113,0.532-2.183,1.646-2.388c0.796-0.145,1.563,0.188,2.017,0.793l0.034,0.047c3.584,4.819,6.909,9.702,10.22,14.553
					c3.501,4.759,6.597,9.678,10.06,14.378c6.626,9.548,13.418,18.859,20.22,28.027c6.854,9.133,13.975,17.944,20.791,26.799
					l10.243,13.13c3.287,4.236,6.968,8.901,9.595,12.601l0.899,1.265c4.492,6.32,3.013,15.085-3.307,19.577
					C1197.954,2634.968,1191.055,2634.587,1186.284,2630.783z"/>
			</g>
			<g opacity="0.3">
				<path fill="#000072" d="M2079.02,2175.014c0.807,7.016,1.754,13.891,2.877,20.557l-17.821,56.584
					c0,0-259.56,54.831-503.894-113.555c-103.697-71.459-182.418-143.408-262.471-204.202c20.347-30.59,44.867-58.795,73.599-83.597
					c162.247-140.146,387.637-105.03,569.283-37.185c6.033,2.246,12.067,4.561,17.996,6.876c2.14,0.842,4.245,1.648,6.35,2.526
					c53.322,70.511,107.907,129.762,154.739,154.809C2094.876,2083.278,2077.511,2161.718,2079.02,2175.014z"/>
			</g>
			<g>
				<path fill="#ED1B24" d="M2147.11,1894.09l-83.035,263.523c0,0-259.56,54.83-503.894-113.555
					c-244.334-168.351-350.031-339.473-661.019-360.906c0,0,53.849-188.171,214.132-186.452c6.77,0.07,13.224,0,19.363-0.245
					c90.507-3.333,119.168-37.782,150.214-70.196c12.734-13.331,25.889-26.31,43.92-36.659
					c59.462-34.099,102.329-11.893,146.847,3.999c19.855,7.086,40.026,12.944,62.162,11.962
					c24.767-1.052,45.078-7.542,63.074-15.961c3.895-1.824,7.647-3.719,11.331-5.648c58.233-30.976,130.395-10.875,162.983,46.446
					C1857.487,1578.543,2034.573,1867.569,2147.11,1894.09z"/>
			</g>
			<g>
				<path fill="#E55757" d="M1062.428,1491.614c0.28-0.246,1.157-1.087,2.735-2.105
					C1063.655,1490.667,1062.708,1491.403,1062.428,1491.614z"/>
			</g>
			<g opacity="0.2">
				<path fill="#000072" d="M1807.545,2019.613c-98.856-7.613-415.188-238.763-553.579-410.621
					c-51.813-64.337-91.699-96.927-121.308-112.537c90.507-3.333,119.168-37.782,150.214-70.196
					c64.478,59.321,145.568,250.659,240.264,360.661C1673.898,1962.052,1807.545,2019.613,1807.545,2019.613z"/>
			</g>
			<g opacity="0.2">
				<path fill="#000072" d="M1920.421,1933.625c-92.12-33.572-338.595-332.14-446.782-540.026
					c19.855,7.086,40.026,12.944,62.162,11.962c24.767-1.052,45.078-7.542,63.074-15.961
					c37.256,81.421,77.353,173.051,110.293,243.352C1807.217,1842.207,1920.421,1933.625,1920.421,1933.625z"/>
			</g>
			<g>
				<path fill="#000072" d="M1003.257,2584.211c-1.621,8.352-4.813,16.094-8.804,23.599c-4.087,7.422-9.159,14.46-15.244,20.808
					c-6.015,6.399-13.242,12.051-21.415,16.146c-2.046,1.035-4.161,1.936-6.265,2.844c-2.168,0.77-4.39,1.411-6.617,2.017
					c-1.113,0.293-2.206,0.657-3.335,0.877l-3.438,0.469c-2.295,0.261-4.585,0.485-6.875,0.547
					c-6.908,0.188-12.661-5.262-12.846-12.168c-0.146-5.359,3.101-10.022,7.788-11.932l1.664-0.669
					c6.299-2.549,12.54-3.879,18.619-6.633c6.05-2.586,12.426-5.159,18.451-8.943c12.203-7.261,23.907-17.148,35.094-28.501
					l0.097-0.103c0.718-0.725,1.885-0.732,2.608-0.02C1003.194,2582.995,1003.365,2583.63,1003.257,2584.211z"/>
			</g>
			<g>
				<path fill="#000072" d="M1075.548,2619.271c1.079,8.506,0.439,16.927-1.06,25.386c-1.617,8.406-4.342,16.772-8.365,24.778
					c-3.94,8.027-9.496,15.649-16.494,21.936c-6.929,6.409-15.702,10.921-24.8,13.265c-6.68,1.724-13.491-2.298-15.214-8.979
					c-1.334-5.181,0.78-10.439,4.916-13.345l1.597-1.113c5.499-3.841,11.1-6.546,16.167-10.684
					c5.039-4.026,10.43-8.167,15.059-13.553c9.474-10.522,17.569-23.718,24.649-38.146l0.063-0.125
					c0.449-0.913,1.554-1.289,2.466-0.842C1075.103,2618.132,1075.469,2618.684,1075.548,2619.271z"/>
			</g>
			<g>
				<path fill="#000072" d="M2953.336,2394.851c8.003,2.896,15.151,7.253,21.948,12.358c6.694,5.186,12.861,11.289,18.188,18.288
					c5.391,6.934,9.854,14.949,12.627,23.662c0.708,2.181,1.265,4.407,1.836,6.629c0.425,2.263,0.718,4.558,0.967,6.849
					c0.117,1.145,0.308,2.282,0.352,3.432l-0.073,3.465c-0.098,2.31-0.229,4.606-0.527,6.88
					c-0.884,6.853-7.158,11.689-14.014,10.803c-5.313-0.688-9.419-4.618-10.576-9.546l-0.405-1.748
					c-1.538-6.618-1.885-12.99-3.662-19.419c-1.616-6.382-3.169-13.078-5.972-19.619c-5.278-13.179-13.232-26.276-22.71-39.089
					l-0.088-0.115c-0.605-0.817-0.43-1.973,0.386-2.578C2952.125,2394.724,2952.779,2394.652,2953.336,2394.851z"/>
			</g>
			<g>
				<path fill="#000072" d="M3013.346,2335.188c8.569,0.254,16.792,2.192,24.912,4.982c8.057,2.903,15.898,6.893,23.184,12.107
					c7.314,5.142,13.984,11.813,19.111,19.699c5.254,7.837,8.35,17.21,9.253,26.558c0.664,6.868-4.36,12.974-11.23,13.638
					c-5.322,0.516-10.19-2.393-12.417-6.929l-0.854-1.75c-2.939-6.023-4.746-11.978-8.047-17.63
					c-3.198-5.598-6.45-11.567-11.05-16.977c-8.926-10.989-20.708-21.038-33.862-30.271l-0.112-0.078
					c-0.83-0.586-1.035-1.733-0.449-2.566C3012.149,2335.448,3012.75,2335.175,3013.346,2335.188z"/>
			</g>
			<g opacity="0.4">
				<path fill="#FFFFFF" d="M2147.11,1894.09l-83.035,263.523c0,0-2.456,0.526-7.086,1.298l71.88-228.092
					c-112.538-26.521-289.624-315.547-373.922-463.691c-32.589-57.321-104.749-77.422-162.983-46.446
					c-3.683,1.929-7.437,3.824-11.33,5.647c-17.996,8.419-38.308,14.909-63.074,15.962c-22.136,0.982-42.308-4.876-62.162-11.962
					c-44.518-15.891-87.385-38.097-146.847-4c-18.031,10.349-31.187,23.329-43.921,36.659
					c-31.046,32.414-59.706,66.863-150.214,70.196c-6.139,0.246-12.594,0.316-19.364,0.246
					c-96.33-1.018-154.213,66.547-185.083,120.606c22.592-52.796,82.93-158.633,203.326-157.335c6.77,0.07,13.224,0,19.363-0.245
					c90.507-3.333,119.168-37.782,150.214-70.196c12.734-13.331,25.889-26.31,43.92-36.659
					c59.462-34.099,102.329-11.893,146.847,3.999c19.855,7.086,40.026,12.944,62.162,11.962
					c24.767-1.052,45.078-7.542,63.074-15.961c3.895-1.824,7.647-3.719,11.331-5.648c58.233-30.976,130.395-10.875,162.983,46.446
					C1857.487,1578.543,2034.573,1867.569,2147.11,1894.09z"/>
			</g>
			<g>
				<path fill="#000072" d="M1958.467,2180.556c-99.995,0-255.176-20.83-406.235-124.932
					c-65.829-45.366-120.728-90.161-173.818-133.479c-143.515-117.104-256.869-209.6-480.229-225.007l-17.294-1.194l4.771-16.668
					c0.566-1.975,58.227-196.623,225.478-196.623c0.772,0,1.533,0.002,2.311,0.012c95.288,0.977,124.384-29.45,155.059-61.706
					c14.517-15.266,29.53-31.05,51.293-43.535c59.253-33.987,105.044-16.912,145.464-1.849
					c23.506,8.765,45.757,17.005,69.933,15.979c29.721-1.302,52.173-11.375,68.418-20.005
					c65.547-34.824,145.395-12.024,181.781,51.921c154.888,272.26,287.906,438.818,364.942,456.965l14.707,3.464l-90.059,285.766
					l-8.018,1.694C2062.774,2172.245,2021.622,2180.556,1958.467,2180.556z M2064.068,2157.631h0.049H2064.068z M918.433,1670.598
					c220.47,19.883,339.946,117.38,477.725,229.802c52.656,42.967,107.104,87.398,172.002,132.119
					c212.745,146.611,440.157,119.893,485.089,112.769l76.284-242.072c-115.425-45.188-279.029-308.542-368.531-465.867
					c-28.823-50.659-92.178-68.669-144.219-41.016c-18.853,10.018-45.02,21.712-80.356,23.26
					c-30.015,1.304-55.873-8.367-80.967-17.72c-39.638-14.78-73.867-27.539-121.694-0.103
					c-18.212,10.446-31.187,24.087-44.921,38.528c-31.904,33.547-67.848,71.536-175.699,70.429c-0.645-0.007-1.313-0.01-1.958-0.01
					C992.061,1510.717,935.519,1626.823,918.433,1670.598z"/>
			</g>
			<g>
				<g>
					<path fill="#FFFFFF" d="M2218.276,1877.096c4.533-2.946,8.981-5.979,13.32-9.136
						C2227.434,1870.438,2223.018,1873.477,2218.276,1877.096z"/>
				</g>
				<g>
					<path fill="#F9744B" d="M2662.766,1458.663c54.203-27.008,302.002-146.636,341.746-103.448
						c69.626,75.644-36.651,304.497-61.989,356.102"/>
				</g>
				<g opacity="0.4">
					<path fill="#FFFFFF" d="M3009.512,1380.215c7.99,8.682,13.569,19.458,17.314,31.676c-2.366-22.838-9.233-42.463-22.314-56.676
						c-39.743-43.189-287.544,76.439-341.746,103.447l19.676,17.77C2756.756,1440.188,2972.642,1340.15,3009.512,1380.215z"/>
				</g>
				<g>
					<path fill="#000072" d="M2942.516,1725.354c-2.075,0-4.185-0.464-6.177-1.44c-6.953-3.416-9.824-11.824-6.411-18.779
						c60.591-123.413,113.779-286.616,64.263-340.415c-3.169-3.442-25.317-18.221-150.166,29.021
						c-75.205,28.458-152.964,66.502-175,77.483c-6.938,3.447-15.356,0.637-18.818-6.302c-3.457-6.936-0.635-15.361,6.299-18.815
						c22.339-11.131,101.157-49.692,177.588-78.613c132.002-49.949,165.933-37.871,180.747-21.777
						c74.316,80.742-26.919,304.982-59.717,371.787C2952.682,1722.468,2947.696,1725.354,2942.516,1725.354z"/>
				</g>
				<g>
					<path fill="#FA508E" d="M2969.924,1423.401c0,0,11.904-2.693,7.953,24.45c-6.771,46.516-40.999,161.091-99.985,196.861
						c0,0-65.325-128.749-85.176-145.167c-19.851-16.419,28.328-25.69,43.662-41.093
						C2851.711,1443.049,2961.771,1418.113,2969.924,1423.401z"/>
				</g>
				<g opacity="0.3">
					<path fill="#000072" d="M2792.731,1499.538c11.562,9.586,38.55,57.226,59.066,95.349
						c37.276-49.393,59.179-126.824,64.417-163.023c0.062-0.405,0.123-0.81,0.175-1.176c-33.375,7.616-71.456,19.136-80.014,27.755
						C2821.042,1473.851,2772.853,1483.135,2792.731,1499.538z"/>
				</g>
				<g>
					<path fill="#000072" d="M2872.74,1657.001c-6.895-14.805-13.892-29.512-21.655-43.799
						c-7.48-14.429-15.947-28.288-24.473-42.036c-8.711-13.645-18.008-26.87-27.798-39.644c-4.868-6.406-9.932-12.646-15.146-18.696
						c-5.156-5.959-10.752-12.112-15.986-17.12c-4.443-4.255-4.6-11.309-0.342-15.754c0.425-0.444,0.874-0.845,1.353-1.204
						l0.112-0.083c29.111-21.633,61.772-37.063,95.273-48.584c16.763-5.793,33.789-10.661,50.977-14.78
						c17.319-3.97,34.38-7.249,52.485-9.49l0.068-0.01c1.636-0.203,3.286-0.02,4.761,0.444c1.123,0.361,1.445,0.532,1.885,0.72
						c0.479,0.208,0.85,0.398,1.172,0.576c0.693,0.371,1.377,0.77,1.919,1.157c1.211,0.789,2.173,1.629,3.14,2.5
						c1.846,1.753,3.281,3.628,4.497,5.535c2.383,3.835,3.525,7.604,4.438,11.265c1.475,7.209,1.265,13.801,0.508,19.902
						c-0.698,6.128-2.065,12.014-3.506,17.49c-1.426,5.308-2.925,10.579-4.482,15.83c-6.172,21.016-13.711,41.58-22.104,61.813
						c-8.579,20.149-18.154,39.959-29.629,58.755c-11.401,18.799-24.575,36.768-40.444,52.256c-2.109,2.063-5.498,2.021-7.559-0.093
						c-1.924-1.968-2.017-5.036-0.317-7.116l0.034-0.042c13.281-16.267,24.238-34.328,33.887-53.054
						c9.556-18.794,17.847-38.276,25.068-58.177c7.388-19.836,13.525-40.163,19.136-60.566c1.377-5.107,2.695-10.227,3.931-15.349
						c1.172-4.969,2.104-9.624,2.505-14.214c0.513-4.573,0.269-8.899-0.43-12.241c-0.435-1.538-0.903-2.969-1.421-3.711
						c-0.254-0.347-0.464-0.613-0.576-0.716c-0.049-0.009-0.083-0.08-0.02-0.007c0,0,0.098,0.061,0.2,0.112l0.269,0.124
						c0.132,0.052,0.146,0.083,0.952,0.337l4.824,0.438c-16.226,2.146-33.184,5.52-49.561,9.426
						c-16.489,3.831-32.817,8.377-48.799,13.777c-15.981,5.405-31.646,11.616-46.787,18.73
						c-15.142,7.131-29.614,15.446-43.115,24.943l1.123-17.041c6.416,6.606,11.636,12.874,17.017,19.536
						c5.293,6.602,10.356,13.333,15.2,20.203c9.712,13.721,18.525,27.991,26.841,42.495c8.076,14.639,15.732,29.484,22.446,44.743
						c3.53,7.544,6.45,15.361,9.668,23.025c3.032,7.746,5.703,15.63,8.56,23.415c1.035,2.813-0.41,5.931-3.223,6.963
						c-2.661,0.979-5.601-0.261-6.782-2.783L2872.74,1657.001z"/>
				</g>
				<g opacity="0.3">
					<path fill="#000072" d="M2674.647,2353.467c-1.543,2.104-3.087,4.174-4.7,6.244c-19.961,25.994-45.113,50.866-74.546,74.37
						c-176.033,25.994-483.477,28.801-516.382-259.067c-1.859-16.207,24.381-129.236,57.918-269.943
						c68.512,38.062,111.204,68.371,111.204,68.371L2674.647,2353.467z"/>
				</g>
				<g>
					<path fill="#FFFFFF" d="M3062.461,2136.074c-4.842,27.292-64.303-9.297-64.303-9.297s-4.104,8.385,6.631,33.783
						c7.963,18.873,15.154,32.8,10.734,42.377c-4.701,10.208-22.697,11.225-43.359,7.507c-14.488-2.596-26.977-1.474-44.236,14.909
						c-3.403,3.191-6.911,6.98-10.699,11.4c0,0.035-0.035,0.035-0.07,0.07v0.035c-51.849,52.901-120.221,89.7-199.502,112.607
						c0,0-438.118,88.192-664.701-96.82c-34.94-29.538-64.724-64.514-87.14-105.662c-5.999-2.105-12.068-2.456-18.593-2.141
						c-20.943,1.018-38.729-2.245-42.062-12.979c-3.122-10.068,4.561-24.205,14.067-42.482c7.683-14.769,10.945-24.1,12.173-28.274
						c0.315-1.053-0.526-2.035-1.403-1.648c-11.05,4.665-61.671,24.767-62.898,0.069c-0.666-13.716,23.608-53.392,33.852-94.962
						c16.664-67.81,29.503-115.484,37.501-144.25c0.211-0.807,0.456-1.579,0.667-2.35c0.21-0.771,0.421-1.543,0.631-2.245
						c0.177-0.772,0.421-1.474,0.598-2.175c2.42-8.384,5.016-16.664,7.893-24.872c13.085-37.992,30.801-75.388,53.006-117.589
						c-25.117-50.585-130.533-275.17-60.584-353.609c39.922-44.797,287.238,64.864,341.367,89.666
						c62.443-25.363,132.253-39.009,208.868-37.501c15.471,0.281,30.59,1.158,45.358,2.701c0.387,0,0.737,0.07,1.088,0.105
						c24.802,2.49,48.201,7.612,70.581,14.313c27.644,8.314,53.778,18.979,79.352,30.099
						c180.138,78.545,267.348,257.314,267.348,257.314c20.978,43.394,37.325,82.509,48.832,122.149
						c3.121,10.629,5.894,21.259,8.278,32.028c2,8.945,3.754,17.961,5.262,27.152c0,0,0.07,0.351,0.176,1.087
						c1.403,8.454,10.91,67.214,23.854,180.944C3045.902,2080.086,3064.881,2122.533,3062.461,2136.074z"/>
				</g>
				<g>
					<path fill="#F9744B" d="M3011.734,1828.35c-30.204,9.086-62.197,13.927-95.348,13.927
						c-183.436,0-332.141-148.706-332.141-332.14c0-43.605,8.419-85.245,23.679-123.377c27.644,8.314,53.778,18.979,79.352,30.099
						c180.138,78.545,267.348,257.314,267.348,257.314c20.978,43.394,37.325,82.509,48.832,122.149
						C3006.577,1806.95,3009.35,1817.58,3011.734,1828.35z"/>
				</g>
				<g opacity="0.4">
					<path fill="#FFFFFF" d="M3062.461,2136.074c-0.947,5.332-3.964,8.209-8.244,9.437c-5.367-19.61-14.277-46.832-17.399-74.09
						c-12.945-113.73-22.452-172.49-23.855-180.944c-0.104-0.736-0.175-1.087-0.175-1.087c-1.509-9.191-3.263-18.207-5.263-27.152
						c-2.385-10.77-5.156-21.399-8.278-32.028c-11.507-39.641-27.854-78.756-48.832-122.15c0,0-87.21-178.769-267.347-257.314
						c-25.573-11.12-51.709-21.785-79.352-30.099c-22.382-6.7-45.78-11.822-70.581-14.313c-0.352-0.036-0.702-0.105-1.088-0.105
						c-14.77-1.544-29.889-2.421-45.359-2.701c-76.615-1.509-146.425,12.138-208.868,37.5
						c-54.129-24.802-301.445-134.462-341.366-89.665c-9.437,10.559-15.646,23.785-19.329,38.869
						c0.736-29.327,7.577-54.83,23.538-72.756c39.922-44.797,287.238,64.864,341.367,89.666
						c62.443-25.363,132.253-39.009,208.868-37.501c15.471,0.281,30.59,1.158,45.358,2.701c0.387,0,0.737,0.07,1.088,0.105
						c24.802,2.49,48.201,7.612,70.581,14.313c27.644,8.314,53.778,18.979,79.352,30.099
						c180.138,78.545,267.348,257.314,267.348,257.314c20.978,43.394,37.325,82.509,48.832,122.149
						c3.121,10.629,5.894,21.259,8.278,32.028c2,8.945,3.754,17.961,5.262,27.152c0,0,0.07,0.351,0.176,1.087
						c1.403,8.454,10.91,67.214,23.854,180.944C3045.902,2080.086,3064.881,2122.533,3062.461,2136.074z"/>
				</g>
				<g opacity="0.3">
					<path fill="#000072" d="M1919.22,2089.386c-9.485,18.256-17.192,32.403-14.064,42.468c3.353,10.736,21.109,14.02,42.085,12.974
						c6.524-0.31,12.56,0.043,18.572,2.158c22.403,41.134,52.208,76.13,87.145,105.676
						c226.582,185.001,664.708,96.823,664.708,96.823c79.28-22.926,147.628-59.738,199.483-112.628l0.002-0.034
						c0.032-0.032,0.063-0.03,0.094-0.063c3.758-4.432,7.298-8.22,10.679-11.396c17.266-16.408,29.751-17.513,44.227-14.925
						c20.671,3.712,38.673,2.719,43.367-7.503c4.414-9.582-2.772-23.506-10.742-42.36c-0.725-1.673-1.363-3.306-1.948-4.832
						c-7.574,0.935-17.005,0.262-27.075-1.56c-14.476-2.588-26.961-1.484-44.228,14.924c-3.381,3.176-6.92,6.964-10.679,11.396
						c-0.031,0.032-0.061,0.03-0.093,0.063l-0.002,0.035c-51.855,52.89-120.204,89.701-199.483,112.627
						c0,0-438.126,88.179-664.708-96.823c-31.641-26.758-59.072-57.987-80.608-94.196c-5.197-8.739-14.756-14.107-24.913-13.646
						c-0.065,0.003-0.131,0.006-0.196,0.01c-11.53,0.576-22.084-0.168-29.82-2.74
						C1920.472,2086.974,1919.862,2088.146,1919.22,2089.386z"/>
				</g>
				<g>
					<path fill="#EBA7A4" d="M1998.644,1392.117c0,0-11.464-4.188-11.006,23.236c0.784,47,20.123,165.004,74.067,208.003
						c0,0,81.208-119.368,102.99-133.122s-24.821-29.092-38.065-46.324S2007.403,1387.912,1998.644,1392.117z"/>
				</g>
				<g>
					<path fill="#FA508E" d="M2164.682,1490.226c-12.69,8.034-45.533,51.843-70.742,87.04c-18.074,25.269-32.24,46.092-32.24,46.092
						c-53.943-43.008-73.266-161.002-74.062-208.021c-0.471-27.423,11.003-23.205,11.003-23.205
						c3.871-1.85,26.715,4.672,52.171,14.039c32.132,11.81,68.433,28.092,75.821,37.731
						C2139.877,1461.139,2186.489,1476.492,2164.682,1490.226z"/>
				</g>
				<g opacity="0.3">
					<path fill="#000072" d="M2164.682,1490.226c-12.69,8.034-45.533,51.843-70.742,87.04
						c-30.675-53.743-42.524-133.334-43.104-169.906c-0.01-0.41-0.019-0.819-0.023-1.188c32.132,11.81,68.433,28.092,75.821,37.731
						C2139.877,1461.139,2186.489,1476.492,2164.682,1490.226z"/>
				</g>
				<g>
					<path fill="#000072" d="M2063.526,1614.475c7.441-13.147,15.059-26.245,23.496-38.831c8.252-12.72,17.305-24.907,26.567-36.958
						c9.448-11.906,19.277-23.562,29.858-34.587c10.688-11.092,21.353-21.536,34.072-31.592l-1.05,15.425
						c-14.053-12.781-29.746-23.884-46.206-33.784c-16.411-10-33.696-18.704-51.396-26.523
						c-17.651-7.922-35.82-14.819-54.199-20.933c-4.59-1.548-9.199-3.032-13.813-4.429c-2.935-0.916-3.071-0.884-4.102-0.996
						c-0.889-0.078-1.777,0.122-2.632,0.425c-1.724,0.618-3.228,1.953-3.872,3.488c-0.337,0.767-0.576,1.567-0.596,2.49
						c-0.02,1.78,0.029,4.527,0.103,6.81c0.493,19.219,2.036,38.688,4.727,57.814c2.529,19.178,6.304,38.128,11.796,56.357
						c2.872,9.185,5.934,17.679,10.025,26.748c3.96,8.963,7.949,17.92,12.148,26.78c4.219,8.848,8.555,17.644,13.047,26.353
						l3.13,5.908c0.527,0.954,1.338,1.608,2.373,2.073c2.168,0.884,4.976,0.237,6.597-1.995L2063.526,1614.475z M2072.794,1619.956
						c-1.699,3.14-4.546,5.844-7.954,7.388c-3.413,1.497-7.324,1.931-11.055,1.045c-3.711-0.876-7.305-3.049-9.648-6.158
						c-1.343-1.787-1.738-2.534-2.49-3.652l-2.041-3.161c-5.435-8.436-10.581-17.039-15.518-25.76
						c-4.956-8.708-9.756-17.51-14.277-26.45c-2.29-4.382-4.482-9.035-6.646-13.825c-2.197-4.727-3.955-9.568-5.846-14.383
						c-13.637-38.97-19.354-79.182-21.518-119.738c-0.098-2.669-0.181-4.876-0.176-8.047c0.049-4.036,0.977-8.147,2.637-11.897
						c3.315-7.578,9.727-13.413,17.256-16.276c3.765-1.434,7.842-2.207,11.914-2.059c3.931,0.022,8.618,1.363,10.4,1.943
						c4.878,1.431,9.712,2.942,14.521,4.517c19.248,6.302,38.022,13.89,56.45,22.32c36.631,17.168,72.012,38.554,101.509,67.615
						l0.107,0.107c3.96,3.901,4.004,10.273,0.103,14.233c-0.381,0.388-0.835,0.771-1.26,1.084
						c-11.128,8.066-22.427,18.091-32.9,28.154c-10.527,10.217-20.747,20.835-30.488,31.914
						c-9.6,11.191-19.058,22.573-27.764,34.538c-4.526,5.862-8.613,12.039-12.944,18.052c-4.214,6.096-8.188,12.358-12.3,18.54
						L2072.794,1619.956z"/>
				</g>
				<g>
					<path fill="#000072" d="M2492.97,2365.817c41.528-1.233,82.642-5.498,123.574-11.387c10.229-1.46,20.43-3.133,30.615-4.741
						l15.22-2.615c5.493-1.074,9.277-1.54,14.429-3.105c19.546-5.044,39.639-10.876,58.96-17.326
						c38.779-13.001,76.426-28.794,110.332-50.498c16.943-10.82,33.276-22.793,47.632-35.967c3.633-3.472,7.378-7.119,10.381-10.369
						l0.977-1.091l0.293-0.352l0.122-0.142l0.449-0.584c1.084-1.364,2.075-2.531,3.11-3.693c2.056-2.308,4.17-4.463,6.396-6.541
						c8.862-8.2,19.316-15.568,32.363-19.445c6.416-2.07,13.589-2.69,20.581-2.29l5.249,0.637c0.981,0.125,1.587,0.232,2.119,0.33
						l1.729,0.313c2.305,0.397,4.59,0.713,6.846,0.962c4.497,0.493,8.901,0.583,12.593,0.181c3.701-0.242,6.533-1.736,6.133-1.604
						c-0.088,0.052-0.205,0.249-0.327,0.467c-0.063,0.171,0.049-0.044,0.088-0.275c0.132-0.514,0.225-1.756,0.078-3.367
						c-0.313-3.306-1.509-7.764-2.979-12.298c-2.93-9.133-7.08-19.035-10.381-29.761c-1.65-5.329-3.154-10.71-4.341-16.589
						l-0.43-2.278l-0.098-0.596c0.024,0.164-0.107-0.568-0.181-1.486c-0.068-0.786-0.054-1.65,0.01-2.471
						c0.303-3.382,1.689-6.865,4.531-9.676c2.671-2.766,7.617-5.017,12.783-4.201c1.255,0.178,2.437,0.524,3.521,0.964
						c1.055,0.425,2.266,1.15,1.953,0.972l0.391,0.228l1.582,0.903c2.124,1.203,4.287,2.375,6.46,3.503
						c8.633,4.468,17.725,8.514,25.898,10.56c3.892,1.053,8.027,1.228,8.701,0.898c0.371-0.166-0.728,0.3-1.343,1.157
						c-0.293,0.358-0.381,0.605-0.366,0.632c-0.02-0.073,0-0.129,0.054-0.186c-0.044-0.073-0.078-0.137-0.059-0.199
						c0.063-0.504-0.146-2.645-0.503-4.637c-0.405-2.119-0.854-4.358-1.47-6.743c-1.138-4.683-2.568-9.656-3.97-14.617
						c-5.752-20.02-11.787-40.889-14.844-62.93l-7.49-62.497c-2.559-20.703-5.215-41.392-8.032-62.039l-4.36-30.935l-4.497-29.631
						l-0.283-1.858l-0.029-0.02l-0.02,0.027c0.044,0.468,0.132,0.94,0.264,1.394l-0.239-1.146
						c-4.683-29.033-12.427-57.661-22.178-85.656c-9.78-27.998-21.68-55.428-34.541-82.557
						c-12.271-26.279-28.633-51.44-45.84-75.552c-17.432-24.028-36.27-47.1-56.865-68.449c-5.015-5.464-10.518-10.438-15.752-15.684
						l-7.94-7.773l-8.319-7.352c-5.581-4.854-11.064-9.836-16.724-14.592l-17.485-13.628c-5.713-4.707-11.86-8.792-17.974-12.92
						c-6.133-4.092-12.119-8.436-18.369-12.332l-19.097-11.116c-3.198-1.824-6.328-3.779-9.58-5.501l-9.927-4.8l-19.844-9.621
						c-6.812-3.057-13.774-5.972-20.669-8.848c-13.823-5.728-27.681-11.113-41.665-15.886c-13.989-4.734-28.105-8.843-42.358-12.104
						c-7.124-1.661-14.292-3.018-21.475-4.244l-10.801-1.604l-5.415-0.625l-2.71-0.313l-1.357-0.159l-0.308-0.034l0.103,0.003
						c0.063-0.005,0.132-0.018,0.2-0.039l-1.46-0.078c-20.82-2.192-41.958-2.913-63.032-2.645
						c-21.06,0.306-42.085,1.761-62.93,4.502c-41.685,5.535-82.612,16.211-121.523,31.987c-3.706,1.502-7.676,1.312-11.055-0.21
						l-0.073-0.034c-55.356-25.162-111.758-48.619-168.994-68.459c-28.619-9.785-57.559-18.792-86.563-24.932
						c-14.448-3.011-29.038-5.332-42.832-5.613c-6.787-0.074-13.545,0.361-18.785,1.868c-2.612,0.72-4.818,1.68-6.25,2.671
						c-0.293,0.271-0.659,0.493-0.947,0.732c-0.244,0.314-0.42,0.386-0.801,0.815l-2.847,3.699
						c-7.544,9.902-12.343,22.493-14.692,36.094c-2.402,13.596-2.832,27.996-1.938,42.49c1.88,29.052,7.964,58.413,16.06,87.249
						c8.071,28.879,18.121,57.383,29.303,85.466c11.196,28.069,23.545,55.806,36.919,82.867c2.139,4.326,1.851,9.218-0.342,13.134
						l-0.059,0.098c-12.92,22.684-24.033,46.855-34.199,71.431c-5.063,12.305-9.873,24.746-14.453,37.271l-6.68,18.851
						c-2.164,6.237-4.337,12.93-6.017,18.093l-0.298,1.016c-1.587,5.088-3.34,11.353-4.936,17.129l-4.811,17.762l-9.302,35.752
						l-17.969,71.812c-6.279,25.591-16.938,49.194-26.509,71.528c-2.31,5.508-4.624,11.11-6.064,15.854
						c-0.346,1.164-0.693,2.334-0.781,3.066c-0.298,1.143-0.083,1.006-0.239,1.209c0.156,0.824-0.073-0.794-1.079-1.492
						c-0.869-0.659-0.38-0.137,1.143,0.031c1.49,0.215,3.701,0.218,6.061-0.005c4.77-0.432,10.189-1.628,15.581-3.161
						c5.409-1.533,10.897-3.428,16.299-5.522l4.018-1.611l0.991-0.415l0.249-0.105l0.801-0.313c0.63-0.225,1.216-0.405,1.914-0.559
						c2.7-0.64,6.05-0.408,8.735,0.693c5.503,2.275,8.218,6.599,9.214,10.676c0.493,2.083,0.532,4.209,0.19,6.206
						c-0.552,2.549-0.492,1.902-0.562,2.264c-1.055,3.462-2.261,6.726-3.511,9.849c-4.932,12.507-11.528,23.963-16.611,34.287
						c-2.519,5.148-4.824,10.366-5.684,14.211c-0.458,1.895-0.454,3.276-0.386,3.65c0.068,0.012,0.039,0.173,0.039,0.093
						c0.055-0.122-0.161-0.21-0.103-0.262c-0.049-0.122-0.083-0.041,0.24,0.215c1.078,1.204,5.858,3.423,10.854,4.771
						c5.142,1.46,10.835,2.596,16.738,3.613c2.451,0.269,7.266,1.624,11.152,2.771c3.917,1.291,7.091,3.11,10.641,4.724
						c3.105,1.849,6.108,3.772,9.15,5.691l8.218,6.206c10.435,8.56,19.604,17.71,28.335,27.085
						c8.701,9.382,16.943,18.975,24.771,28.674l11.665,14.341l5.684,6.768l2.729,3.076l2.124,2.129l-3.105-2.075
						c1.348,0.693,2.656,1.624,3.76,2.681l0.347,0.335l0.249,0.241l0.508,0.486l1.001,0.974l1.997,1.968l4.102,3.921
						c2.759,2.591,5.547,5.151,8.394,7.645c5.713,4.976,11.465,9.924,17.441,14.616c12.046,9.272,24.268,18.477,37.173,26.18
						c12.979,8.027,26.445,15.441,40.269,22.402c13.823,6.979,28.027,13.43,42.437,19.927c2.383,1.062,3.457,3.854,2.393,6.237
						c-0.869,1.961-2.939,3.027-4.961,2.757c-15.957-2.217-31.714-5.923-47.202-10.732c-15.479-4.844-30.63-10.942-45.322-18.164
						c-7.314-3.511-14.756-7.82-21.621-12.049c-7.002-4.235-13.784-8.84-20.439-13.635c-6.646-4.805-13.188-9.785-19.458-15.107
						c-3.154-2.635-6.245-5.35-9.312-8.096l-4.556-4.165l-2.271-2.139l-1.128-1.087l-0.562-0.544l-0.278-0.273l-0.068-0.068
						l-0.034-0.034c0.054,0.056-0.195-0.188,0.181,0.179c1.016,0.971,2.236,1.813,3.501,2.419l-3.11-2.078
						c-1.499-1.44-3.076-2.966-4.448-4.401l-3.413-3.865l-6.211-7.451l-11.665-14.475c-7.729-9.505-15.298-18.926-23.242-27.82
						c-7.925-8.869-16.084-17.432-24.731-24.611l-6.514-5.047l-6.539-4.177c-2.095-0.877-4.297-2.251-6.24-2.866
						c-2.08-0.459-3.115-1.191-6.812-1.731c-6.26-1.167-12.69-2.49-19.453-4.375c-6.748-2.165-14.058-4.067-22.236-11.208
						c-1.982-1.797-3.97-4.163-5.556-6.958c-0.841-1.321-1.417-2.957-2.017-4.468c-0.543-1.523-0.806-2.91-1.138-4.387
						c-0.934-5.748-0.23-10.628,0.692-14.734c1.987-8.213,4.99-14.275,7.822-20.234c5.864-11.821,11.641-21.855,15.767-32.391
						c1.051-2.609,1.978-5.151,2.725-7.603c0.04-0.01,0.22-1.022-0.249,1.147c-0.288,1.614-0.254,3.353,0.157,5.057
						c0.819,3.327,3.017,6.965,7.797,8.95c2.33,0.962,5.278,1.149,7.603,0.603c0.601-0.134,1.1-0.275,1.637-0.474
						c0.751-0.288,0.609-0.249,0.531-0.21l-0.288,0.122l-1.147,0.479l-4.579,1.839c-6.124,2.373-12.329,4.526-18.81,6.362
						c-6.493,1.826-13.174,3.403-20.718,4.116c-3.789,0.327-7.798,0.474-12.437-0.146c-4.536-0.698-10.249-1.992-15.815-6.751
						c-2.689-2.39-5.023-5.559-6.323-8.809c-0.791-1.667-1.064-3.149-1.504-4.768c-0.327-1.533-0.435-2.915-0.586-4.388
						c-0.054-2.875,0.196-6.123,0.669-7.99c0.4-2.322,0.942-4.114,1.471-5.913c2.178-7.078,4.668-12.889,7.113-18.779
						c9.907-23.03,19.59-44.78,25.107-67.31l18.032-72.056l9.371-36.014l4.878-18.024c1.703-6.133,3.251-11.78,5.351-18.489
						l-0.293,1.016c2.383-7.729,4.458-13.865,6.699-20.406l6.866-19.362c4.701-12.859,9.638-25.635,14.857-38.323
						c10.504-25.358,21.979-50.42,35.816-74.729l-0.4,13.229c-13.765-27.858-26.353-56.13-37.853-84.958
						c-11.475-28.823-21.835-58.174-30.259-88.301c-8.428-30.101-14.961-61.052-17.051-93.174
						c-0.972-16.055-0.591-32.5,2.334-49.092c2.881-16.497,8.911-33.521,19.937-48.057l4.214-5.366
						c0.879-1.004,2.145-2.207,3.242-3.257c1.163-1.004,2.369-1.883,3.584-2.791c4.897-3.35,9.902-5.264,14.644-6.599
						c9.547-2.627,18.272-2.935,26.754-2.898c16.86,0.369,32.646,3.006,48.159,6.206c30.947,6.568,60.615,15.85,89.937,25.864
						c58.54,20.301,115.391,43.96,171.553,69.483l-11.123-0.245c41.157-16.691,84.453-27.976,128.398-33.806
						c21.978-2.894,44.106-4.424,66.23-4.744c22.1-0.28,44.199,0.469,66.338,2.796l-1.46-0.076l1.621,0.098l1.206,0.115l1.47,0.171
						l2.944,0.337l5.884,0.684l11.714,1.738c7.773,1.32,15.518,2.793,23.174,4.575c15.332,3.508,30.386,7.9,45.142,12.896
						c14.736,5.029,29.175,10.645,43.384,16.533c7.109,2.966,14.146,5.91,21.177,9.064l21.123,10.22l10.552,5.122
						c3.452,1.829,6.772,3.887,10.161,5.82l20.239,11.792c6.616,4.124,12.939,8.694,19.424,13.025
						c6.46,4.365,12.944,8.698,18.965,13.638l18.413,14.36c5.957,5,11.714,10.22,17.578,15.324l8.73,7.728l8.325,8.14
						c5.483,5.49,11.245,10.723,16.499,16.431c21.548,22.346,41.196,46.398,59.385,71.479
						c17.988,25.249,34.941,51.184,48.418,79.917c26.323,55.247,49.116,113.781,59.063,175.728l-0.234-1.143
						c0.176,0.757,0.308,1.53,0.4,2.305l-0.332-1.851c0.547,2.725,0.42,2.417,0.571,3.184l0.303,1.858l0.62,3.916l1.216,7.817
						l2.329,15.605l4.395,31.194c2.842,20.793,5.513,41.594,8.081,62.399l7.437,62.093c2.686,19.438,8.223,38.923,14.028,59.063
						c1.44,5.1,2.91,10.178,4.243,15.656c0.688,2.679,1.299,5.564,1.855,8.582c0.498,3.154,1.069,6.226,0.889,10.944
						c-0.083,1.24-0.186,2.483-0.352,3.709c-0.264,1.213-0.562,2.424-0.898,3.62c-0.811,2.513-2.026,5.122-3.838,7.627
						c-3.662,5.171-9.653,8.281-14.316,9.363c-9.59,2.121-16.123,0.476-22.319-0.85c-12.129-3.113-22.202-7.84-32.139-12.91
						c-2.471-1.284-4.907-2.605-7.329-3.978l-1.821-1.045l-0.459-0.264c-0.454-0.264,0.61,0.394,1.519,0.745
						c0.933,0.388,1.958,0.674,3.052,0.837c4.517,0.713,8.779-1.274,11.001-3.574c2.363-2.355,3.496-5.195,3.73-7.93
						c0.063-0.659,0.053-1.357,0.015-1.982c-0.059-0.754-0.176-1.323-0.117-1.001l0.063,0.371l0.298,1.577
						c0.879,4.373,2.168,9.085,3.618,13.738c2.822,9.282,6.787,18.698,10.283,29.473c1.709,5.41,3.438,11.064,4.214,18.176
						c0.332,3.584,0.425,7.632-0.566,12.231c-0.513,2.319-1.25,4.607-2.534,7.083c-1.294,2.561-3.052,4.821-4.961,6.74
						c-3.911,3.843-8.135,5.828-11.89,7.168c-3.823,1.353-7.358,2.015-10.698,2.396c-6.699,0.762-12.817,0.547-18.711-0.032
						c-2.944-0.3-5.84-0.684-8.691-1.154l-2.134-0.369c-0.757-0.139-1.44-0.251-1.758-0.254l-2.539-0.285
						c-3.398-0.083-6.846,0.049-10.391,1.281c-7.07,2.088-14.355,6.899-20.664,12.962c-1.582,1.509-3.11,3.11-4.512,4.729
						c-0.693,0.796-1.382,1.636-1.914,2.324l-1.572,1.992l-1.606,1.855c-4.043,4.485-7.773,8.159-11.641,11.973
						c-16.27,15.304-33.618,28.438-51.841,40.215c-36.606,23.486-76.626,40.682-117.354,53.398
						c-20.479,6.424-40.762,11.624-61.841,16.517c-4.927,1.313-11.558,2.065-16.367,2.766l-15.811,1.995
						c-10.522,1.294-21.079,2.207-31.65,2.959c-21.118,1.618-42.334,2.241-63.545,1.77c-21.201-0.439-42.456-2.056-63.394-5.684
						c-2.559-0.444-4.272-2.876-3.828-5.435c0.386-2.238,2.3-3.83,4.487-3.894H2492.97z"/>
				</g>
				<g>
					<path fill="#000072" d="M2728.18,2027.077c-1.025-11.067,0.229-21.648,2.671-32.407c2.603-10.643,6.685-21.282,13.071-31.089
						c6.299-9.817,15.43-18.599,26.289-24.603c2.778-1.372,5.435-3.132,8.394-4.052l8.862-2.83c2.954-0.991,6.006-1.042,9.019-1.556
						c3.018-0.344,6.05-0.944,9.033-0.776c11.836-0.451,24.434,2.005,35.586,7.62c11.215,5.559,20.518,14.396,26.924,24.404
						c12.783,20.166,15.601,44.113,9.985,65.109c-0.674,2.524-3.267,4.023-5.791,3.35c-1.978-0.529-3.33-2.238-3.491-4.17
						l-0.015-0.186c-1.602-19.282-8.184-37.614-19.316-50.454c-11.226-12.769-26.226-18.814-43.115-17.791
						c-16.729,0.593-30.869,7.703-42.314,20.825c-11.357,13.135-19.751,31.022-26.475,49.448l-0.127,0.344
						c-0.898,2.466-3.623,3.733-6.09,2.835C2729.503,2030.451,2728.346,2028.845,2728.18,2027.077z"/>
				</g>
				<g>
					<path fill="#000072" d="M2225.934,2039.955c-1.958-12.803-1.382-25.329,0.679-38.073c2.178-12.664,6.25-25.334,13.027-37.2
						c6.777-11.763,16.533-22.702,28.862-30.146c12.153-7.644,26.479-11.55,39.932-12.453c13.55-1.162,27.964,0.173,41.265,5.508
						c3.242,1.496,6.533,2.891,9.668,4.556c3.003,1.904,6.084,3.708,8.95,5.769c2.676,2.308,5.425,4.531,7.944,6.943
						c2.339,2.583,4.775,5.083,6.938,7.754c16.992,21.888,22.734,49.056,19.956,73.994c-0.288,2.591-2.622,4.458-5.215,4.17
						c-2.119-0.236-3.755-1.846-4.121-3.843l-0.015-0.093c-4.15-22.837-13.301-44.367-27.969-59.006
						c-1.836-1.795-3.833-3.374-5.693-5.083c-2.012-1.514-4.141-2.82-6.152-4.263l-6.461-3.54c-2.245-0.979-4.584-1.733-6.83-2.656
						c-9.346-2.903-19.443-3.479-29.722-2.432c-20.801,1.694-38.008,11.323-50.366,28.352
						c-12.485,16.795-20.142,39.173-25.322,61.746l-0.078,0.342c-0.586,2.544-3.12,4.133-5.664,3.55
						C2227.604,2043.402,2226.222,2041.811,2225.934,2039.955z"/>
				</g>
				<g>
					<path fill="#000072" d="M2514.918,2033.244c1.889,19.362,38.763,33.306,66.194,35.303c20.711,1.507,54.821-9.851,56.179-30.614
						c1.071-16.397-16.646-29.426-66.259-28.81C2530.453,2009.627,2513.657,2020.317,2514.918,2033.244z"/>
				</g>
				<g opacity="0.7">
					<path fill="#FFFFFF" d="M2571.836,2019.833c-1.044,3.393,7.674,8.234,14.862,8.758c4.078,0.297,18.737,1.19,19.882-2.524
						c1.146-3.717-2.71-7.503-16.186-9.681C2578.142,2014.404,2572.88,2016.441,2571.836,2019.833z"/>
				</g>
				<g>
					<path fill="#000072" d="M2603.949,2144.584c0.336,6.857-0.056,14.801-2.398,22.655c-4.049,13.661-10.912,26.436-22.456,30.921
						c-3.422,1.44-7.341,2.048-11.672,1.725c-15.274-1.119-25.631-13.116-28.635-33.774c-0.566-3.968-0.886-8.237-0.913-12.858
						c-0.024-3.143,0.115-6.485,0.386-9.933c0.933-11.928,11.72-25.727,23.666-25.073l21.988,1.215
						C2594.982,2120.107,2603.35,2133.543,2603.949,2144.584z"/>
				</g>
				<g>
					<path fill="#FF525F" d="M2585.431,2184.928c0.512,3.882,0.73,8.068,0.699,12.557c-3.422,1.439-7.34,2.047-11.672,1.725
						c-15.273-1.121-25.63-13.117-28.635-33.775c-0.565-3.968-0.885-8.237-0.912-12.858c3.601-1.503,7.701-2.128,12.271-1.736
						C2572.474,2152.143,2582.655,2164.25,2585.431,2184.928z"/>
				</g>
				<g>
					<path fill="#000072" d="M2569.957,2208.725c-1.04,0-2.095-0.039-3.159-0.117c-11.899-0.864-21.763-6.201-28.525-15.425
						c-10.278-14.014-12.432-35.288-6.226-61.514c1.118-4.712,5.85-7.632,10.557-6.514c4.712,1.118,7.627,5.84,6.514,10.557
						c-4.917,20.767-3.745,37.495,3.301,47.1c3.682,5.02,8.95,7.817,15.654,8.306c6.265,0.42,11.357-1.255,15.537-5.239
						c12.324-11.733,14.414-39.976,14.18-49.868c-0.112-4.839,3.716-8.857,8.555-8.979c4.814-0.088,8.853,3.701,8.984,8.54
						c0.044,1.763,0.879,43.452-19.59,62.984C2588.727,2205.243,2579.864,2208.725,2569.957,2208.725z"/>
				</g>
				<g>
					<path fill="#000072" d="M2621.642,2147.523c-18.149,0-35.093-10.864-47.427-25.703c-15.796,16.035-44.019,32.822-73.662,16.436
						c-25.322-13.984-21.372-45.884-15.747-60.801c1.714-4.531,6.777-6.802,11.304-5.112c4.531,1.714,6.821,6.772,5.112,11.304
						c-0.435,1.162-10.547,29.117,7.808,39.258c30.615,16.88,57.544-18.823,58.677-20.356c1.709-2.324,4.487-3.711,7.349-3.555
						c2.881,0.093,5.537,1.592,7.095,4.023c2.51,3.906,25.313,37.769,53.042,23.545c14.858-7.607,6.89-33.55,6.807-33.813
						c-1.45-4.609,1.099-9.536,5.708-11.001c4.613-1.475,9.526,1.069,11.001,5.664c4.79,14.937,6.914,43.271-15.518,54.766
						C2635.958,2145.878,2628.707,2147.523,2621.642,2147.523z"/>
				</g>
				<g opacity="0.3">
					<path fill="#000072" d="M2504.802,2130.583c37.873,20.93,69.97-22.836,69.97-22.836c11.044,17.264,36.31,41.031,64.43,26.619
						c14.244-7.307,9.596-31.609,8.179-42.273c-1.981,5.401-5.32,15.849-9.053,20.485c-14.46,17.959-50.435-13.968-61.48-31.206
						c0,0-36.825,55.127-70.497,27.949c-9.368-7.562-8.477-21.682-9.631-30.411
						C2494.071,2089.656,2485.707,2120.043,2504.802,2130.583z"/>
				</g>
				<g>
					<path fill="#000072" d="M2584.869,2059.643c1.064,4.803,1.836,9.319,2.49,14.058c0.625,4.702,1.113,9.456,1.289,14.331
						c0.151,4.881,0.19,9.832-0.43,15.032c-0.625,5.192-1.626,10.603-4.067,16.372l-0.347,0.82
						c-2.676,6.323-9.976,9.282-16.299,6.606s-9.277-9.974-6.602-16.297c0.42-0.998,1.001-1.96,1.631-2.783
						c1.748-2.248,3.35-5.549,4.644-9.157c1.333-3.616,2.246-7.676,3.057-11.782c0.801-4.126,1.333-8.406,1.729-12.72
						c0.386-4.277,0.625-8.774,0.659-12.938v-0.249c0.029-3.423,2.822-6.177,6.245-6.149
						C2581.813,2054.809,2584.259,2056.887,2584.869,2059.643z"/>
				</g>
			</g>
			<g>
				<path fill="#FFFFFF" d="M2051.254,2620.972c0,0,70.137,42.381,290.005,34.742c94.326-3.276,184.075-3.239,277.117,48.064
					c131.948,72.756,231.619,34.896,263.575-76.725c17.281-60.362-39.336-113.668-164.009-183.341
					c-134.112-74.947-472.763-12.711-621.485-153.665"/>
			</g>
			<g opacity="0.3">
				<path fill="#000072" d="M2881.938,2627.058c-31.958,111.626-131.621,149.478-263.559,76.721
					c-93.033-51.287-182.803-51.357-277.134-48.06c-219.849,7.646-289.974-34.729-289.974-34.729l8.664-63.355
					c50.263-9.519,112.012,33.222,273.872,27.608c94.296-3.298,184.066-3.263,277.1,48.061
					c129.061,71.178,227.285,36.482,261.418-69.529C2884.849,2584.681,2888.146,2605.413,2881.938,2627.058z"/>
			</g>
			<g>
				<path fill="#000072" d="M2743.224,2755.194c-39.956,0-84.487-13.135-131.626-39.126
					c-88.032-48.545-170.796-49.771-269.849-46.333c-221.44,7.686-294.741-34.937-297.749-36.753
					c-6.636-4.009-8.76-12.637-4.756-19.268c3.994-6.606,12.563-8.75,19.189-4.8c1.274,0.724,72.202,40.078,282.339,32.773
					c99.897-3.477,190.225-2.114,284.38,49.8c64.927,35.796,122.983,44.868,167.905,26.182
					c35.908-14.932,61.987-47.603,75.405-94.478c13.896-48.55-31.694-96.997-157.368-167.227
					c-52.769-29.492-142.515-36.987-237.529-44.922c-138.706-11.587-295.918-24.717-386.763-110.811
					c-5.625-5.332-5.864-14.214-0.532-19.839c5.337-5.62,14.219-5.859,19.839-0.532c83.691,79.317,235.688,92.012,369.79,103.213
					c98.13,8.193,190.815,15.938,248.887,48.389c117.852,65.859,191.978,124.98,170.659,199.453
					c-15.859,55.381-47.539,94.341-91.616,112.666C2785.177,2751.337,2764.874,2755.194,2743.224,2755.194z"/>
			</g>
			<g>
				<path fill="#000072" d="M2741.905,2642.372c7.998,2.896,15.151,7.254,21.943,12.358c6.699,5.186,12.866,11.289,18.193,18.289
					c5.386,6.931,9.849,14.948,12.627,23.662c0.703,2.18,1.265,4.406,1.836,6.628c0.425,2.264,0.713,4.556,0.967,6.846
					c0.117,1.147,0.308,2.285,0.347,3.436l-0.068,3.464c-0.098,2.308-0.234,4.607-0.527,6.88
					c-0.884,6.854-7.158,11.689-14.014,10.804c-5.317-0.688-9.419-4.619-10.576-9.546l-0.405-1.748
					c-1.538-6.621-1.885-12.991-3.662-19.422c-1.616-6.379-3.169-13.076-5.972-19.616c-5.278-13.179-13.232-26.277-22.71-39.092
					l-0.088-0.115c-0.605-0.817-0.43-1.97,0.386-2.575C2740.694,2642.245,2741.349,2642.175,2741.905,2642.372z"/>
			</g>
			<g>
				<path fill="#000072" d="M2798.932,2594.201c8.569,0.254,16.787,2.189,24.912,4.982c8.052,2.903,15.898,6.893,23.184,12.107
					c7.314,5.142,13.984,11.813,19.106,19.699c5.259,7.837,8.354,17.21,9.258,26.558c0.664,6.868-4.365,12.974-11.23,13.638
					c-5.327,0.516-10.195-2.393-12.422-6.929l-0.85-1.75c-2.944-6.025-4.746-11.978-8.047-17.63
					c-3.198-5.601-6.45-11.567-11.05-16.978c-8.931-10.988-20.708-21.037-33.862-30.271l-0.112-0.078
					c-0.835-0.586-1.035-1.733-0.449-2.566C2797.735,2594.46,2798.336,2594.187,2798.932,2594.201z"/>
			</g>
		</g>
	</g>
</g>
</svg>
