<?xml version="1.0" encoding="utf-8"?>
<!-- Generator: Adobe Illustrator 15.0.0, SVG Export Plug-In . SVG Version: 6.00 Build 0)  -->
<!DOCTYPE svg PUBLIC "-//W3C//DTD SVG 1.1//EN" "http://www.w3.org/Graphics/SVG/1.1/DTD/svg11.dtd">
<svg version="1.1" id="Biene" xmlns="http://www.w3.org/2000/svg" xmlns:xlink="http://www.w3.org/1999/xlink" x="0px" y="0px"
	 width="364.668px" height="391.983px" viewBox="0 0 364.668 391.983" enable-background="new 0 0 364.668 391.983"
	 xml:space="preserve">
<g id="Lower_Wing">
	<g>
		<path d="M164.25,141.791l-0.915-19.79l-0.828-19.79l1.271,2.201L123.75,83.272l-19.973-10.643
			c-6.667-3.531-13.296-7.127-19.93-10.717l5.706,0c-12.835,7.928-25.741,15.732-38.467,23.849
			c-6.379,4.031-12.708,8.147-19.125,12.113c-6.395,4.003-12.89,7.833-19.467,11.52l4.147-7.184
			c-0.084,7.45-0.402,14.899-0.743,22.349c-0.368,7.449-0.828,14.899-1.404,22.348c-0.592,7.45-1.287,14.899-2.145,22.349
			c-0.865,7.449-1.843,14.898-3.205,22.348h-1.6c-1.362-7.45-2.34-14.899-3.205-22.348c-0.858-7.45-1.553-14.899-2.145-22.349
			c-0.576-7.449-1.036-14.899-1.404-22.348c-0.341-7.45-0.659-14.899-0.743-22.349L0,97.524l4.2-2.497
			c6.482-3.852,13.045-7.563,19.709-11.1c6.643-3.573,13.372-6.998,20.052-10.506c13.392-6.964,26.604-14.239,39.886-21.391
			l3.042-1.638l2.664,1.638c6.425,3.95,12.854,7.894,19.245,11.903l19.202,11.978l38.32,24.099l1.328,0.835l-0.057,1.366
			l-0.828,19.79l-0.915,19.79H164.25z"/>
	</g>
</g>
<g id="Upper_Wing">
	<g>
		<path d="M164.53,140.951l12.29-15.642l12.355-15.585l-0.476,2.497l-16.492-42.158l-8.167-21.106
			c-2.74-7.029-5.41-14.083-8.086-21.134l4.32,3.728c-14.896-2.384-29.766-4.907-44.704-7.077
			c-7.462-1.116-14.943-2.135-22.392-3.324c-7.457-1.147-14.876-2.492-22.264-3.998l7.833-2.729
			c-4.931,5.584-10.039,11.017-15.163,16.434c-5.146,5.399-10.361,10.738-15.664,16.002c-5.315,5.252-10.708,10.438-16.225,15.518
			c-5.521,5.074-11.129,10.075-17.027,14.825l-1.211-1.045c3.836-6.529,7.963-12.808,12.175-19.013
			c4.218-6.2,8.559-12.293,12.978-18.32c4.432-6.016,8.95-11.956,13.539-17.836c4.609-5.862,9.236-11.709,14.039-17.404L69.209,0
			l4.811,0.854c7.424,1.318,14.817,2.797,22.173,4.474c7.364,1.635,14.695,3.439,22.045,5.147
			c14.688,3.478,29.443,6.602,44.171,9.866l3.373,0.748l0.947,2.98c2.283,7.188,4.573,14.374,6.792,21.585l6.712,21.613
			l13.266,43.281l0.46,1.5l-0.936,0.997l-13.609,14.504l-13.674,14.447L164.53,140.951z"/>
	</g>
</g>
<g id="Feet">
	<g>
		<path d="M216.384,309.118c-3.5-1.69-7.02-3.348-10.505-5.064l-10.455-5.146l-1.146-0.564l-0.123-1.661l-0.873-11.833
			l-0.791-11.833l-0.151-2.263l2.491-1.534c2.738-1.686,5.504-3.316,8.259-4.969c2.754-1.653,5.527-3.269,8.306-4.876l-3.083,5.003
			c-0.804-3.462-1.192-6.923-1.49-10.385c-0.132-1.73-0.228-3.462-0.294-5.192c-0.054-1.73-0.085-3.462-0.076-5.192l0.022-4.504
			l3.884-2.056c1.605-0.85,3.21-1.701,4.85-2.488c1.626-0.813,3.282-1.569,4.937-2.329c1.667-0.736,3.331-1.479,5.025-2.165
			c1.686-0.702,3.394-1.362,5.11-2.008l3.7-1.393l1.902,1.396c3.112,2.284,6.164,4.678,9.132,7.227
			c1.482,1.277,2.947,2.587,4.378,3.96c1.426,1.381,2.838,2.787,4.183,4.317l-0.668,1.23c-2.016-0.296-3.965-0.716-5.898-1.162
			c-1.931-0.453-3.826-0.97-5.704-1.52c-3.753-1.104-7.422-2.362-11.031-3.731l5.603,0.004c-1.479,1.085-2.964,2.155-4.473,3.184
			c-1.5,1.046-3.03,2.033-4.558,3.027c-1.54,0.972-3.078,1.946-4.646,2.864c-1.555,0.943-3.145,1.823-4.733,2.704l3.906-6.56
			c0.009,1.73-0.022,3.462-0.076,5.192c-0.066,1.73-0.162,3.462-0.294,5.192c-0.298,3.462-0.687,6.923-1.49,10.385l-0.946,4.079
			l-2.137,0.924c-2.945,1.272-5.896,2.537-8.865,3.763c-2.969,1.228-5.927,2.476-8.912,3.67l2.34-3.797l-0.791,11.833l-0.873,11.833
			l-1.27-2.226l9.545,6.688c3.182,2.229,6.329,4.515,9.495,6.77L216.384,309.118z"/>
	</g>
</g>
<g id="Head-dings">
	<g>
		<polygon points="336.657,125.625 308.146,111.473 306.97,110.889 306.896,109.308 305.396,77.541 305.294,75.38 307.396,74.076 
			334.407,57.327 337.197,55.596 339.407,57.327 364.668,77.107 364.168,77.974 334.407,65.987 339.407,65.987 311.396,81.004 
			313.396,77.541 311.896,109.308 310.646,107.143 337.157,124.759 		"/>
	</g>
	<g>
		<polygon points="336.657,125.625 318.396,117.391 317.271,116.883 317.146,115.226 315.646,95.294 315.489,93.224 317.646,91.83 
			334.407,80.999 337.349,79.098 339.407,80.999 354.418,94.861 353.918,95.728 334.407,89.659 339.407,89.659 321.646,98.758 
			323.646,95.294 322.146,115.226 320.896,113.061 337.157,124.759 		"/>
	</g>
</g>
<g id="Auge">
	<g>
		<path d="M336.824,151.352c0.958,3.055,1.902,6.111,2.803,9.176c0.898,3.065,1.831,6.124,2.689,9.196l0.384,1.375l-1.416,1.461
			l-6.664,6.873l-6.727,6.798l-1.645,1.662l-3.166-0.814c-3.089-0.794-6.152-1.658-9.228-2.491c-3.073-0.834-6.133-1.71-9.187-2.6
			l-1.95-0.568l-2.164-4.335c-1.479-2.962-2.483-6.008-3.357-9.078c-0.425-1.537-0.809-3.081-1.146-4.633
			c-0.343-1.551-0.624-3.113-0.899-4.676l-0.881-4.99l3.798-3.023c1.242-0.989,2.475-1.99,3.751-2.937
			c1.271-0.954,2.572-1.874,3.883-2.78c2.636-1.798,5.357-3.492,8.155-5.095l4.349-2.492l2.212,1.335
			c1.385,0.835,2.769,1.676,4.13,2.575c1.363,0.894,2.711,1.833,4.044,2.81c1.329,0.989,2.647,2.006,3.936,3.106
			c1.285,1.109,2.562,2.244,3.781,3.531l0.481,0.508L336.824,151.352z M335.282,152.28c-1.593,0.159-3.144,0.216-4.687,0.237
			c-1.693,0.014-3.357-0.055-5.012-0.151c-1.649-0.108-3.284-0.256-4.903-0.448c-1.621-0.186-3.221-0.432-4.818-0.682l6.56-1.156
			c-2.064,2.477-4.206,4.864-6.434,7.146c-1.121,1.134-2.252,2.254-3.412,3.341c-1.154,1.093-2.354,2.132-3.544,3.184l2.917-8.013
			c0.275,1.563,0.546,3.127,0.754,4.702c0.214,1.574,0.381,3.156,0.508,4.746c0.229,3.183,0.326,6.389-0.051,9.678l-4.113-4.903
			c2.911,1.282,5.817,2.578,8.709,3.915c2.89,1.339,5.792,2.646,8.669,4.023l-4.811,0.848l7.863-5.443l7.926-5.368l-1.032,2.836
			c-0.244-3.18-0.414-6.374-0.618-9.561C335.564,158.239,335.419,155.26,335.282,152.28z"/>
	</g>
</g>
<g id="Body">
	<g>
		<path fill="#FECB34" d="M161.924,189.467c-5.349,3.534-10.672,7.111-16.042,10.609l-16.099,10.509l-1.326,0.865l-1.693-0.865
			l-17.116-8.748l-17.067-8.832l-2.313-1.197l-0.129-3.033l-0.816-19.196c-0.277-6.399-0.463-12.798-0.699-19.197l-0.108-2.923
			l3.308-2.619c5.07-4.015,10.382-7.613,15.759-11.097c2.695-1.73,5.411-3.425,8.15-5.079c2.737-1.659,5.505-3.263,8.275-4.863
			l4.324-2.497l4.205,2.497c2.751,1.634,5.508,3.257,8.227,4.947c2.739,1.655,5.424,3.403,8.134,5.108
			c2.676,1.764,5.377,3.485,8.024,5.299c2.668,1.778,5.297,3.624,7.932,5.459l3.645,2.539l-0.314,3.23
			c-0.312,3.2-0.627,6.399-1.007,9.598c-0.374,3.2-0.794,6.399-1.257,9.599c-0.474,3.199-0.979,6.398-1.572,9.598
			c-0.603,3.199-1.233,6.399-2.025,9.598l-0.126,0.512L161.924,189.467z M160.63,188.328c-0.741-3.051-1.357-6.101-1.931-9.152
			c-0.592-3.2-1.098-6.399-1.572-9.598c-0.462-3.2-0.883-6.399-1.257-9.599c-0.38-3.199-0.696-6.398-1.007-9.598l3.331,5.769
			c-2.907-1.365-5.82-2.718-8.693-4.14c-2.895-1.385-5.735-2.864-8.601-4.3c-2.832-1.494-5.688-2.946-8.491-4.49
			c-2.823-1.509-5.607-3.085-8.398-4.651h8.527c-2.771,1.6-5.544,3.195-8.349,4.735c-2.802,1.546-5.627,3.051-8.474,4.52
			c-5.706,2.915-11.478,5.716-17.49,8.1l3.2-5.542c-0.236,6.399-0.422,12.798-0.699,19.197l-0.816,19.196l-2.442-4.23l16.183,10.365
			l16.134,10.449h-3.019l17.151-8.688C149.466,193.852,155.059,191.109,160.63,188.328z"/>
	</g>
	<g>
		<path d="M174.768,149.689c5.348-3.534,10.672-7.111,16.042-10.609l16.1-10.509l1.325-0.865l1.692,0.865l17.116,8.748l17.066,8.832
			l2.313,1.197l0.129,3.033l0.815,19.196c0.277,6.399,0.464,12.798,0.7,19.197l0.107,2.923l-3.308,2.619
			c-5.07,4.015-10.382,7.613-15.76,11.097c-2.694,1.731-5.41,3.426-8.15,5.08c-2.736,1.659-5.504,3.263-8.275,4.863l-4.323,2.497
			l-4.204-2.497c-2.752-1.634-5.509-3.257-8.228-4.947c-2.738-1.655-5.424-3.403-8.134-5.108c-2.676-1.764-5.377-3.485-8.024-5.299
			c-2.667-1.778-5.296-3.624-7.931-5.459l-3.645-2.539l0.314-3.23c0.311-3.2,0.627-6.399,1.007-9.598
			c0.374-3.2,0.794-6.399,1.257-9.599c0.474-3.199,0.979-6.398,1.572-9.598c0.603-3.199,1.233-6.399,2.025-9.598l0.126-0.512
			L174.768,149.689z M176.063,150.828c0.741,3.051,1.356,6.101,1.931,9.152c0.592,3.2,1.098,6.399,1.571,9.598
			c0.463,3.2,0.884,6.399,1.257,9.599c0.38,3.199,0.696,6.398,1.008,9.598l-3.33-5.769c2.906,1.365,5.819,2.718,8.693,4.14
			c2.895,1.385,5.735,2.864,8.601,4.3c2.832,1.494,5.688,2.946,8.491,4.49c2.823,1.509,5.607,3.085,8.397,4.651h-8.527
			c2.771-1.6,5.544-3.195,8.349-4.735c2.803-1.546,5.628-3.051,8.475-4.52c5.705-2.915,11.477-5.716,17.489-8.1l-3.2,5.542
			c0.236-6.399,0.423-12.798,0.7-19.197l0.815-19.196l2.442,4.23l-16.183-10.365l-16.133-10.449h3.018l-17.15,8.688
			C187.227,145.304,181.634,148.047,176.063,150.828z"/>
	</g>
	<g>
		<path fill="#FECB34" d="M135.401,216.399c5.349-3.534,10.672-7.111,16.042-10.609l16.099-10.509l1.326-0.865l1.693,0.865
			l17.116,8.748l17.066,8.832l2.313,1.197l0.129,3.033L208,236.288c0.277,6.399,0.464,12.798,0.7,19.197l0.107,2.923l-3.308,2.62
			c-5.071,4.015-10.382,7.613-15.76,11.097c-2.695,1.73-5.411,3.425-8.15,5.079c-2.736,1.659-5.505,3.263-8.275,4.863l-4.324,2.496
			l-4.205-2.496c-2.751-1.634-5.508-3.257-8.227-4.947c-2.739-1.655-5.424-3.403-8.134-5.108c-2.676-1.764-5.377-3.484-8.024-5.299
			c-2.668-1.778-5.296-3.624-7.932-5.459l-3.645-2.538l0.314-3.23c0.311-3.199,0.627-6.399,1.007-9.599
			c0.374-3.199,0.794-6.398,1.257-9.599c0.474-3.199,0.979-6.398,1.572-9.598c0.603-3.199,1.233-6.399,2.025-9.598l0.126-0.512
			L135.401,216.399z M136.695,217.538c0.741,3.051,1.357,6.102,1.931,9.152c0.592,3.2,1.098,6.399,1.572,9.598
			c0.462,3.2,0.883,6.399,1.257,9.599c0.38,3.199,0.696,6.399,1.007,9.599l-3.331-5.769c2.907,1.364,5.82,2.718,8.693,4.139
			c2.895,1.386,5.735,2.864,8.601,4.3c2.832,1.494,5.688,2.945,8.491,4.49c2.823,1.509,5.607,3.085,8.398,4.65h-8.527
			c2.771-1.6,5.544-3.194,8.349-4.734c2.802-1.546,5.627-3.051,8.474-4.52c5.705-2.915,11.477-5.716,17.489-8.1l-3.2,5.543
			c0.236-6.399,0.423-12.798,0.7-19.197l0.815-19.196l2.442,4.23l-16.183-10.365l-16.133-10.449h3.019l-17.151,8.688
			C147.859,212.014,142.266,214.757,136.695,217.538z"/>
	</g>
	<g>
		<path d="M56.768,218.689c5.349-3.534,10.672-7.111,16.042-10.609l16.099-10.509l1.326-0.865l1.693,0.865l17.115,8.748
			l17.067,8.832l2.313,1.197l0.129,3.033l0.816,19.196c0.277,6.398,0.463,12.798,0.699,19.196l0.108,2.923l-3.308,2.62
			c-5.071,4.015-10.382,7.613-15.759,11.097c-2.695,1.73-5.411,3.426-8.15,5.079c-2.737,1.659-5.505,3.264-8.275,4.864l-4.324,2.496
			l-4.205-2.496c-2.751-1.634-5.508-3.258-8.227-4.948c-2.739-1.655-5.424-3.402-8.134-5.108c-2.676-1.764-5.377-3.484-8.024-5.299
			c-2.668-1.777-5.297-3.624-7.932-5.459l-3.645-2.538l0.314-3.23c0.312-3.199,0.627-6.398,1.007-9.599
			c0.374-3.199,0.794-6.398,1.257-9.598c0.475-3.199,0.979-6.399,1.572-9.598c0.603-3.199,1.233-6.399,2.025-9.598l0.126-0.512
			L56.768,218.689z M58.062,219.828c0.741,3.051,1.357,6.101,1.931,9.152c0.592,3.199,1.097,6.399,1.572,9.598
			c0.462,3.199,0.883,6.398,1.257,9.598c0.38,3.2,0.696,6.399,1.007,9.599l-3.331-5.769c2.907,1.364,5.82,2.718,8.694,4.14
			c2.894,1.385,5.735,2.863,8.601,4.3c2.832,1.494,5.688,2.945,8.491,4.49c2.823,1.509,5.608,3.085,8.398,4.65h-8.528
			c2.771-1.6,5.544-3.194,8.35-4.734c2.802-1.546,5.627-3.051,8.474-4.52c5.706-2.915,11.478-5.716,17.49-8.1l-3.2,5.542
			c0.236-6.398,0.422-12.798,0.699-19.196l0.816-19.196l2.442,4.23l-16.182-10.365l-16.134-10.449h3.019l-17.151,8.688
			C69.227,214.304,63.633,217.047,58.062,219.828z"/>
	</g>
	<g>
		<path fill="#FECB34" d="M94.625,285.689c5.349-3.534,10.672-7.111,16.041-10.609l16.1-10.51l1.326-0.865l1.693,0.865l17.115,8.749
			l17.067,8.832l2.313,1.197l0.129,3.033l0.816,19.196c0.277,6.398,0.463,12.798,0.699,19.196l0.108,2.923l-3.308,2.62
			c-5.071,4.015-10.382,7.613-15.759,11.097c-2.695,1.73-5.411,3.426-8.15,5.079c-2.737,1.659-5.505,3.264-8.275,4.864l-4.324,2.496
			l-4.205-2.496c-2.751-1.634-5.508-3.258-8.227-4.948c-2.739-1.655-5.424-3.402-8.134-5.108c-2.676-1.764-5.377-3.484-8.024-5.299
			c-2.668-1.777-5.297-3.624-7.932-5.459l-3.645-2.538l0.314-3.23c0.312-3.199,0.627-6.398,1.007-9.599
			c0.374-3.199,0.794-6.398,1.257-9.598c0.475-3.199,0.979-6.398,1.572-9.599c0.603-3.199,1.233-6.398,2.025-9.598l0.126-0.513
			L94.625,285.689z M95.919,286.828c0.741,3.051,1.357,6.102,1.931,9.151c0.592,3.2,1.097,6.399,1.572,9.599
			c0.462,3.199,0.883,6.398,1.257,9.598c0.38,3.2,0.696,6.399,1.007,9.599l-3.331-5.769c2.907,1.364,5.82,2.718,8.694,4.14
			c2.894,1.385,5.735,2.863,8.601,4.3c2.832,1.494,5.688,2.945,8.491,4.49c2.823,1.509,5.608,3.085,8.398,4.65h-8.528
			c2.771-1.6,5.544-3.194,8.35-4.734c2.802-1.546,5.627-3.051,8.474-4.52c5.706-2.915,11.478-5.716,17.49-8.1l-3.2,5.542
			c0.236-6.398,0.422-12.798,0.699-19.196l0.816-19.196l2.442,4.23L142.9,280.247l-16.134-10.448h3.019l-17.151,8.688
			C107.084,281.304,101.491,284.048,95.919,286.828z"/>
	</g>
	<g>
		<path fill="#FECB34" d="M305.354,118.309c8.654,4.558,17.346,9.051,25.97,13.662l25.905,13.775l1.425,0.758l0.064,1.82
			l1.022,29.321l0.844,29.321l0.076,2.655l-2.498,1.54l-24.972,15.392c-8.313,5.149-16.693,10.182-25.036,15.278l-2.729,1.667
			l-3.671-1.667c-4.471-2.031-8.869-4.187-13.237-6.394l-6.534-3.343l-6.486-3.426c-4.308-2.313-8.595-4.661-12.858-7.05
			c-4.267-2.384-8.501-4.823-12.733-7.266l-4.304-2.484l0.039-4.901c0.04-4.887,0.066-9.774,0.172-14.661
			c0.063-4.887,0.234-9.774,0.355-14.661c0.189-4.887,0.33-9.774,0.577-14.661c0.206-4.887,0.49-9.774,0.762-14.661l0.235-4.235
			l3.095-1.534c4.389-2.174,8.778-4.343,13.201-6.458c4.419-2.12,8.861-4.199,13.324-6.242l6.72-3.022l6.768-2.939
			c4.524-1.938,9.078-3.823,13.704-5.584l0.465-0.177L305.354,118.309z M304.995,119.973c-3.725,3.023-7.511,5.939-11.329,8.798
			l-5.93,4.392l-5.977,4.308c-4.001,2.844-8.022,5.652-12.068,8.419c-4.042,2.772-8.116,5.49-12.192,8.203l3.33-5.769
			c0.272,4.887,0.556,9.774,0.763,14.661c0.247,4.887,0.388,9.774,0.576,14.661c0.122,4.887,0.293,9.774,0.357,14.661
			c0.104,4.887,0.132,9.774,0.172,14.661l-4.265-7.385c4.232,2.443,8.462,4.892,12.66,7.395c4.2,2.497,8.378,5.036,12.534,7.61
			l6.211,3.904l6.162,3.987c4.096,2.68,8.161,5.412,12.155,8.268h-6.4c8.586-4.678,17.134-9.419,25.75-14.044l25.814-13.93
			l-2.422,4.195l0.844-29.321l1.022-29.321l1.489,2.578l-24.883-15.547C321.213,130.283,313.121,125.099,304.995,119.973z"/>
	</g>
	<g>
		<path d="M135.401,352.803c2.542-1.945,5.092-3.878,7.663-5.772c2.573-1.893,5.128-3.815,7.722-5.673l1.161-0.831l1.857,0.831
			l8.737,3.912l8.689,3.995l2.125,0.977l0.318,3.254c0.311,3.174,0.546,6.349,0.816,9.522c0.267,3.174,0.49,6.349,0.699,9.522
			l0.134,2.026l-3.333,3.517c-2.278,2.402-4.796,4.389-7.381,6.26c-1.299,0.925-2.618,1.813-3.961,2.661
			c-1.34,0.853-2.712,1.65-4.086,2.444l-4.389,2.535l-4.14-2.534c-1.354-0.829-2.716-1.646-4.043-2.521
			c-1.331-0.869-2.64-1.775-3.94-2.698c-2.591-1.861-5.114-3.84-7.578-5.921l-3.828-3.233l0.498-2.535
			c0.312-1.587,0.628-3.174,1.007-4.762c0.374-1.587,0.794-3.174,1.257-4.761c0.475-1.587,0.979-3.174,1.572-4.762
			c0.603-1.587,1.233-3.174,2.025-4.761l0.312-0.626L135.401,352.803z M136.8,353.934c0.694,1.442,1.278,2.88,1.826,4.322
			c0.592,1.588,1.097,3.175,1.572,4.762c0.462,1.587,0.883,3.174,1.257,4.761c0.379,1.588,0.696,3.175,1.007,4.762l-3.33-5.769
			c3.034,1.094,6.009,2.289,8.916,3.603c1.449,0.665,2.889,1.345,4.307,2.063c1.422,0.711,2.809,1.482,4.204,2.24h-8.528
			c1.375-0.793,2.751-1.582,4.16-2.316c1.406-0.739,2.835-1.438,4.285-2.101c2.913-1.303,5.892-2.491,9.112-3.263l-3.2,5.542
			c0.209-3.174,0.432-6.349,0.699-9.522c0.27-3.174,0.505-6.349,0.816-9.522l2.442,4.23l-7.804-5.528l-7.756-5.611h3.019
			c-2.905,1.316-5.848,2.569-8.773,3.852C142.304,351.63,139.554,352.786,136.8,353.934z"/>
	</g>
</g>
</svg>
