<?xml version="1.0" encoding="utf-8"?>
<!-- Generator: Adobe Illustrator 15.0.0, SVG Export Plug-In . SVG Version: 6.00 Build 0)  -->
<!DOCTYPE svg PUBLIC "-//W3C//DTD SVG 1.1//EN" "http://www.w3.org/Graphics/SVG/1.1/DTD/svg11.dtd">
<svg version="1.1" id="Layer_1" xmlns="http://www.w3.org/2000/svg" xmlns:xlink="http://www.w3.org/1999/xlink" x="0px" y="0px"
	 width="4000px" height="4000px" viewBox="0 0 4000 4000" enable-background="new 0 0 4000 4000" xml:space="preserve">
<g>
	<g>
		<path opacity="0.3" fill="#000C7A" d="M3411.75,2386.9c-10.299-14.158-13.914-31.988-9.7-48.98
			c9.29-37.466,12.403-75.328,8.779-113.297c-35.448-371.34-698.118-611.856-1480.114-537.206
			c-781.996,74.649-1387.192,436.195-1351.744,807.536c21.884,229.242,282.825,408.612,663.295,494.768
			c24.654,5.582,46.195,20.04,61.279,40.326c66.645,89.631,172.054,131.98,263.501,96.82c27.813-10.693,51.758-27.596,71.339-49.054
			c19.888-21.794,48.493-33.393,77.99-32.752c110.396,2.396,225.198-1.685,342.709-12.902
			c492.85-47.048,915.398-208.068,1151.669-413.664c22.67-19.728,52.54-28.622,82.433-25.525
			c56.038,5.805,108.527-15.351,134.146-59.724C3453.008,2488.773,3444.984,2432.586,3411.75,2386.9z"/>
		<g>
			<g>
				<g>
					
						<radialGradient id="SVGID_1_" cx="1487.3281" cy="1636.9429" r="934.653" fx="1161.5012" fy="1637.5615" gradientUnits="userSpaceOnUse">
						<stop  offset="0.0014" style="stop-color:#FFFFFF"/>
						<stop  offset="0.4301" style="stop-color:#FDFDFE"/>
						<stop  offset="0.5844" style="stop-color:#F6F6FA"/>
						<stop  offset="0.6945" style="stop-color:#EBEBF3"/>
						<stop  offset="0.7835" style="stop-color:#DADAE9"/>
						<stop  offset="0.8588" style="stop-color:#C4C4DC"/>
						<stop  offset="0.9252" style="stop-color:#A9A9CD"/>
						<stop  offset="0.9282" style="stop-color:#A8A8CC"/>
					</radialGradient>
					<path fill="url(#SVGID_1_)" d="M2088.275,2271.611c0,0-32.57,22.301-58.961,51.805
						c-77.685,28.854-151.56,50.227-221.485,65.279c-246.715,53.014-444.551,27.367-589.514-24.066
						c-86.094-30.479-153.511-70.112-201.506-107.746c-33.918-26.53-58.078-52.085-72.249-72.761
						c-19.793-28.899-29.039-58.031-31.873-85.443c-3.438-33.081,2.555-63.653,10.779-88.14c3.67-11.151,7.898-21.047,11.848-29.317
						c9.433-19.653,13.706-41.352,11.987-63.096c-3.159-40.19-5.715-110.859,4.879-192.818c0,0,0-0.046,0.046-0.093
						c0,0,0,0,0.047-0.047c1.765-4.414,54.965-131.07,196.07-112.531c122.057,16.029,152.954,137.899,144.312,284.535
						c-2.137,36.473-7.016,72.713-13.846,108.583c-3.438,18.073-7.712,41.77-11.15,66.859c-2.603,18.863-4.786,38.424-5.669,56.916
						c-0.186,3.113-0.325,6.226-0.418,9.292l-13.613,7.109l105.376,66.72l137.296-46.416l-6.411-3.949c0,0-0.187-1.301-0.512-3.81
						c-6.598-49.343-67.37-559.731,238.584-566.561c3.3-0.093,6.598-0.14,9.896-0.325c31.92-1.44,261.814-0.604,269.017,325.143
						c0,0-25.601-9.664-53.152-16.447c0,0,23.185,27.087,43.999,69.647c0,0-32.431-10.176-63.839-13.056
						c0,0,48.692,32.198,92.413,95.666C2056.496,2104.672,2088.972,2177.85,2088.275,2271.611z"/>
					<polygon fill="#FDD301" points="1490.631,2166.234 1353.335,2212.65 1247.959,2145.931 1261.572,2138.821 1361.095,2086.924 
						1484.22,2162.285 					"/>
					<path fill="#FF0000" d="M3095.112,2359.425c-153.325,167.589-576.086,69.832-576.086,69.832
						c-184.176,78.8-307.58,78.568-391.025,54.733c-48.646-13.893-83.726-35.776-109.373-54.733
						c-40.887-30.247-19.003-72.62,10.687-105.841c26.391-29.504,58.961-51.805,58.961-51.805
						c127.632-343.96,31.408-787.582-100.591-949.55c-134.74-94.318-363.567-130.094-363.567-130.094s0.047,0,0.093-0.046
						c5.529-3.392,303.585-185.198,554.342,69.554c7.062,7.202,14.124,14.728,21.094,22.627c2.091,2.323,4.182,4.693,6.226,7.109
						c32.013-1.952,77.359-3.16,130.466-0.232c141.152,7.759,336.759,44.696,480.142,175.023
						c26.669,24.207,51.526,51.713,73.875,82.796c40.701,56.591,71.877,115.877,95.665,175.209c0.047,0.093,0.047,0.139,0.094,0.232
						c84.236,210.242,75.454,420.809,65.883,512.432c-2.694,25.74,10.594,50.226,33.175,62.864c0.418,0.231,0.789,0.418,1.162,0.65
						C3107.61,2312.404,3111.652,2341.351,3095.112,2359.425z"/>
					<radialGradient id="SVGID_2_" cx="1736.7344" cy="3258.8086" r="1964.8246" gradientUnits="userSpaceOnUse">
						<stop  offset="0.0014" style="stop-color:#FFFFFF"/>
						<stop  offset="0.442" style="stop-color:#FDFDFE"/>
						<stop  offset="0.6127" style="stop-color:#F6F6FA"/>
						<stop  offset="0.7367" style="stop-color:#EAEAF3"/>
						<stop  offset="0.8379" style="stop-color:#D9D9E9"/>
						<stop  offset="0.9244" style="stop-color:#C3C3DC"/>
						<stop  offset="1" style="stop-color:#A8A8CC"/>
					</radialGradient>
					<path fill="url(#SVGID_2_)" d="M3350.19,2485.337c-4.554,4.739-9.107,9.014-13.567,12.917
						c-87.768,75.733-160.155-9.061-163.314-12.777c-0.047-0.047-0.047-0.093-0.094-0.14
						c-477.213,505.741-1541.85,431.263-1541.85,431.263c0,16.866-1.208,31.734-3.345,44.836
						c-3.067,19.282-11.104,36.52-22.581,50.598c-25.74,31.734-68.764,47.764-111.323,36.659
						c-186.872-48.692-183.341-246.669-183.341-246.669c-279.935,4.367-478.653-149.422-478.653-149.422
						c-256.704-176.836-140.177-414.723-63.561-525.07l-4.6-0.697c0,0-125.634-88.324-65.419-152.071
						c29.55-31.269,67.741-34.707,104.261-26.576c0.047,0,0.047,0,0.047,0c62.817,14.032,120.616,62.352,120.616,62.352
						c-15.007,44.743-22.581,109.837,21.094,173.583c11.569,16.913,29.829,37.03,54.64,58.311
						c5.529,4.739,11.383,9.571,17.609,14.45c0,0-21.233,7.712-45.394,24.438c-25.09,17.424-53.246,44.65-63.933,83.261
						c-0.79,2.834-1.301,5.622-1.533,8.409c-2.138,23.789,14.218,45.998,38.656,50.411c48.692,8.828,140.502,9.014,273.709-58.773
						c144.963,51.434,342.799,77.08,589.514,24.066c0,0-119.919,143.058,18.353,184.642
						c138.318,41.583,301.819-89.347,301.819-89.347c83.445,23.835,206.85,24.066,391.025-54.733c0,0,422.761,97.757,576.086-69.832
						c16.54-18.074,12.498-47.021-8.78-59.239c-0.373-0.232-0.744-0.419-1.162-0.65c67.788,25.646,124.193,28.388,169.726,19.979
						C3254.896,2319.514,3445.902,2385.723,3350.19,2485.337z"/>
					<g>
						<radialGradient id="SVGID_3_" cx="1113.9746" cy="1386.0469" r="1397.8972" gradientUnits="userSpaceOnUse">
							<stop  offset="0.0014" style="stop-color:#585B93"/>
							<stop  offset="0.3967" style="stop-color:#565A90"/>
							<stop  offset="0.6402" style="stop-color:#515688"/>
							<stop  offset="0.842" style="stop-color:#494F7A"/>
							<stop  offset="1" style="stop-color:#3E4768"/>
						</radialGradient>
						<path fill="url(#SVGID_3_)" d="M2088.275,2271.611c0.696-93.762-31.779-166.939-67.649-219.07
							c-43.721-63.467-92.413-95.666-92.413-95.666c31.408,2.88,63.839,13.056,63.839,13.056
							c-20.814-42.56-43.999-69.647-43.999-69.647c27.552,6.783,53.152,16.447,53.152,16.447
							c-7.202-325.747-237.097-326.583-269.017-325.143c-3.299,0.186-6.597,0.232-9.896,0.325
							c-321.473,7.155-238.072,570.371-238.072,570.371l-123.125-75.361l-99.522,51.897c1.301-45.161,10.779-99.15,17.237-133.067
							c6.83-35.869,11.709-72.109,13.846-108.583c8.643-146.635-22.255-268.505-144.312-284.535
							c-88.139-11.569-141.942,33.453-170.424,70.019c-16.169,20.722-24.113,38.75-25.508,42.095
							c-0.093,0.279-0.139,0.418-0.139,0.418h-0.047c22.813-177.253,106.91-407.056,377.924-494.962
							c0,0-76.431-8.735-115.087-89.951l138.271-3.856c0,0-24.159-72.527,12.592-106.398c0,0,131.999,92.367,258.19,161.967
							c0,0,69.275,10.826,154.069,36.287c69.274,20.815,148.911,51.387,209.498,93.807
							C2119.684,1484.029,2215.907,1927.651,2088.275,2271.611z"/>
						<radialGradient id="SVGID_4_" cx="1758.1406" cy="2501.1406" r="492.6744" gradientUnits="userSpaceOnUse">
							<stop  offset="0.0014" style="stop-color:#585B93"/>
							<stop  offset="0.3394" style="stop-color:#565A90"/>
							<stop  offset="0.6128" style="stop-color:#505586"/>
							<stop  offset="0.8627" style="stop-color:#464D75"/>
							<stop  offset="1" style="stop-color:#3E4768"/>
						</radialGradient>
						<path fill="url(#SVGID_4_)" d="M2128.001,2483.99c0,0-163.501,130.93-301.819,89.347
							c-138.271-41.584-18.353-184.642-18.353-184.642c69.926-15.053,143.801-36.426,221.485-65.279
							c-29.689,33.221-51.573,75.594-10.687,105.841C2044.275,2448.214,2079.354,2470.098,2128.001,2483.99z"/>
						<radialGradient id="SVGID_5_" cx="917.8379" cy="2375.6924" r="344.5356" gradientUnits="userSpaceOnUse">
							<stop  offset="0.0014" style="stop-color:#585B93"/>
							<stop  offset="0.2693" style="stop-color:#55588D"/>
							<stop  offset="0.6149" style="stop-color:#4D517D"/>
							<stop  offset="1" style="stop-color:#404563"/>
						</radialGradient>
						<path fill="url(#SVGID_5_)" d="M1218.315,2364.629c-133.207,67.787-225.017,67.602-273.709,58.773
							c-27.318-4.925-44.511-32.104-37.123-58.82c21.001-75.78,109.326-107.699,109.326-107.699
							C1064.805,2294.517,1132.222,2334.149,1218.315,2364.629z"/>
						<radialGradient id="SVGID_6_" cx="2798.5664" cy="1577.2056" r="778.1201" gradientUnits="userSpaceOnUse">
							<stop  offset="0.0014" style="stop-color:#585B93"/>
							<stop  offset="0.4482" style="stop-color:#575A91"/>
							<stop  offset="0.6711" style="stop-color:#525689"/>
							<stop  offset="0.844" style="stop-color:#4A507C"/>
							<stop  offset="0.9911" style="stop-color:#3F4869"/>
							<stop  offset="1" style="stop-color:#3E4768"/>
						</radialGradient>
						<path fill="url(#SVGID_6_)" d="M3356.556,2274.956c-24.067,18.073-57.846,36.473-101.66,44.558
							c-45.532,8.409-101.938,5.668-169.726-19.979c-22.581-12.639-35.869-37.124-33.175-62.864
							c12.267-117.503,23.278-430.612-161.596-687.827c-0.046-0.046-0.046-0.046-0.046-0.046s151.327-3.392,251.918-20.769
							c0,0,19.328,125.681-75.408,207.873c0.371,0.464,0.79,0.882,1.254,1.254c11.244,11.569,94.552,105.051,116.528,348.653
							c53.478,17.377,126.795,46.184,174.14,85.351c9.525,7.899,16.262,17.749,20.118,28.435
							C3388.382,2225.752,3380.855,2256.696,3356.556,2274.956z"/>
					</g>
					<g>
						
							<ellipse transform="matrix(0.9856 -0.1692 0.1692 0.9856 -330.9678 507.0746)" fill="#FF00FF" cx="2809.332" cy="2195.202" rx="89.19" ry="135.362"/>
						
							<ellipse transform="matrix(0.9991 0.0417 -0.0417 0.9991 86.6555 -102.5933)" fill="#FF00FF" cx="2505.039" cy="2027.993" rx="69.39" ry="105.312"/>
						
							<ellipse transform="matrix(0.9705 -0.241 0.241 0.9705 -319.0256 738.5361)" fill="#FF00FF" cx="2859.918" cy="1673.572" rx="55.02" ry="83.504"/>
						
							<ellipse transform="matrix(0.9705 -0.241 0.241 0.9705 -348.5908 591.2397)" fill="#FF00FF" cx="2242.928" cy="1720.798" rx="36.137" ry="54.845"/>
						
							<ellipse transform="matrix(0.9856 -0.1692 0.1692 0.9856 -222.7446 434.1288)" fill="#FF00FF" cx="2435.467" cy="1523.807" rx="78.843" ry="119.659"/>
					</g>
					<polygon opacity="0.3" fill="#000C7A" points="1461.367,2148.298 1359.721,2173.492 1269.334,2134.774 1261.572,2138.821 
						1247.959,2145.931 1353.335,2212.65 1490.631,2166.234 1484.22,2162.285 					"/>
					<g opacity="0.7">
						<defs>
							
								<filter id="Adobe_OpacityMaskFilter" filterUnits="userSpaceOnUse" x="1661.684" y="2063.19" width="215.011" height="91.732">
								<feFlood  style="flood-color:white;flood-opacity:1" result="back"/>
								<feBlend  in="SourceGraphic" in2="back" mode="normal"/>
							</filter>
						</defs>
						<mask maskUnits="userSpaceOnUse" x="1661.684" y="2063.19" width="215.011" height="91.732" id="SVGID_7_">
							<g filter="url(#Adobe_OpacityMaskFilter)">
								<defs>
									
										<filter id="Adobe_OpacityMaskFilter_1_" filterUnits="userSpaceOnUse" x="1661.684" y="2063.19" width="215.011" height="91.732">
										<feFlood  style="flood-color:white;flood-opacity:1" result="back"/>
										<feBlend  in="SourceGraphic" in2="back" mode="normal"/>
									</filter>
								</defs>
								<mask maskUnits="userSpaceOnUse" x="1661.684" y="2063.19" width="215.011" height="91.732" id="SVGID_7_">
									<g filter="url(#Adobe_OpacityMaskFilter_1_)">
									</g>
								</mask>
								
									<radialGradient id="SVGID_8_" cx="1882.3076" cy="2038.3584" r="93.2677" gradientTransform="matrix(0.9925 -0.1222 0.0717 0.5818 -245.1523 1153.1575)" gradientUnits="userSpaceOnUse">
									<stop  offset="0" style="stop-color:#FAFAFA"/>
									<stop  offset="0.0862" style="stop-color:#F0F0F0"/>
									<stop  offset="0.231" style="stop-color:#D6D6D6"/>
									<stop  offset="0.4166" style="stop-color:#ACACAC"/>
									<stop  offset="0.6356" style="stop-color:#717171"/>
									<stop  offset="0.8801" style="stop-color:#272727"/>
									<stop  offset="1" style="stop-color:#000000"/>
								</radialGradient>
								<path mask="url(#SVGID_7_)" fill="url(#SVGID_8_)" d="M1876.556,2095.833c2.987,24.249-42.662,49.826-101.959,57.13
									c-59.297,7.303-109.788-6.435-112.774-30.684c-2.986-24.248,42.662-49.826,101.96-57.129
									C1823.079,2057.848,1873.569,2071.584,1876.556,2095.833z"/>
							</g>
						</mask>
						
							<radialGradient id="SVGID_9_" cx="1882.3076" cy="2038.3584" r="93.2677" gradientTransform="matrix(0.9925 -0.1222 0.0717 0.5818 -245.1523 1153.1575)" gradientUnits="userSpaceOnUse">
							<stop  offset="0" style="stop-color:#FF4390"/>
							<stop  offset="1" style="stop-color:#FF4390"/>
						</radialGradient>
						<path fill="url(#SVGID_9_)" d="M1876.556,2095.833c2.987,24.249-42.662,49.826-101.959,57.13
							c-59.297,7.303-109.788-6.435-112.774-30.684c-2.986-24.248,42.662-49.826,101.96-57.129
							C1823.079,2057.848,1873.569,2071.584,1876.556,2095.833z"/>
					</g>
					<g opacity="0.7">
						<g>
							<defs>
								
									<filter id="Adobe_OpacityMaskFilter_2_" filterUnits="userSpaceOnUse" x="950.43" y="2012.911" width="214.652" height="87.522">
									<feFlood  style="flood-color:white;flood-opacity:1" result="back"/>
									<feBlend  in="SourceGraphic" in2="back" mode="normal"/>
								</filter>
							</defs>
							<mask maskUnits="userSpaceOnUse" x="950.43" y="2012.911" width="214.652" height="87.522" id="SVGID_10_">
								<g filter="url(#Adobe_OpacityMaskFilter_2_)">
									<defs>
										
											<filter id="Adobe_OpacityMaskFilter_3_" filterUnits="userSpaceOnUse" x="950.43" y="2012.911" width="214.652" height="87.522">
											<feFlood  style="flood-color:white;flood-opacity:1" result="back"/>
											<feBlend  in="SourceGraphic" in2="back" mode="normal"/>
										</filter>
									</defs>
									<mask maskUnits="userSpaceOnUse" x="950.43" y="2012.911" width="214.652" height="87.522" id="SVGID_10_">
										<g filter="url(#Adobe_OpacityMaskFilter_3_)">
										</g>
									</mask>
									
										<radialGradient id="SVGID_11_" cx="872.2646" cy="345.2104" r="93.2691" gradientTransform="matrix(0.9907 0.1359 -0.0749 0.546 219.46 1749.646)" gradientUnits="userSpaceOnUse">
										<stop  offset="0" style="stop-color:#FAFAFA"/>
										<stop  offset="0.0862" style="stop-color:#F0F0F0"/>
										<stop  offset="0.231" style="stop-color:#D6D6D6"/>
										<stop  offset="0.4166" style="stop-color:#ACACAC"/>
										<stop  offset="0.6356" style="stop-color:#717171"/>
										<stop  offset="0.8801" style="stop-color:#272727"/>
										<stop  offset="1" style="stop-color:#000000"/>
									</radialGradient>
									<path mask="url(#SVGID_10_)" fill="url(#SVGID_11_)" d="M1164.931,2071.377c-3.122,22.757-53.637,34.621-112.827,26.499
										c-59.191-8.121-104.644-33.153-101.521-55.909c3.123-22.756,53.638-34.62,112.828-26.499
										C1122.601,2023.59,1168.053,2048.621,1164.931,2071.377z"/>
								</g>
							</mask>
							
								<radialGradient id="SVGID_12_" cx="872.2646" cy="345.2104" r="93.2691" gradientTransform="matrix(0.9907 0.1359 -0.0749 0.546 219.46 1749.646)" gradientUnits="userSpaceOnUse">
								<stop  offset="0" style="stop-color:#FF4390"/>
								<stop  offset="1" style="stop-color:#FF4390"/>
							</radialGradient>
							<path fill="url(#SVGID_12_)" d="M1164.931,2071.377c-3.122,22.757-53.637,34.621-112.827,26.499
								c-59.191-8.121-104.644-33.153-101.521-55.909c3.123-22.756,53.638-34.62,112.828-26.499
								C1122.601,2023.59,1168.053,2048.621,1164.931,2071.377z"/>
						</g>
					</g>
				</g>
				<g>
					<g>
						<g>
							<g opacity="0.3">
								<path fill="#000C7A" d="M1292.655,1897.171c-2.137,36.473-7.016,72.713-13.846,108.583
									c-3.438,18.073-7.712,41.77-11.15,66.859c29.317-361.755-36.034-400.261-119.315-421.831
									c-85.146-22.053-193.097,71.645-196.07,74.386c1.765-4.414,54.965-131.07,196.07-112.531
									C1270.4,1628.666,1301.298,1750.536,1292.655,1897.171z"/>
							</g>
							<g opacity="0.3">
								<path fill="#000C7A" d="M2001.205,1916.732c-29.736-298.148-264.463-288.763-264.463-288.763
									c-294.199-16.401-252.522,534.316-252.522,534.316s-83.4-563.216,238.072-570.371c3.3-0.093,6.598-0.14,9.896-0.325
									C1764.108,1590.149,1994.003,1590.985,2001.205,1916.732z"/>
							</g>
							<g>
								<g opacity="0.3">
									<path fill="#000C7A" d="M3254.896,2319.514c-45.532,8.409-101.938,5.668-169.726-19.979
										c0.418,0.231,0.789,0.418,1.162,0.65c21.278,12.219,25.32,41.165,8.78,59.239
										c-153.325,167.589-576.086,69.832-576.086,69.832c-184.176,78.8-307.58,78.568-391.025,54.733
										c0,0-163.501,130.93-301.819,89.347c-138.271-41.584-18.353-184.642-18.353-184.642
										c-246.715,53.014-444.551,27.367-589.514-24.066c-133.207,67.787-225.017,67.602-273.709,58.773
										c-24.438-4.413-40.794-26.622-38.656-50.411c-1.533,1.998-45.998,60.494,30.294,92.785
										c65.753,27.843,234.729-13.916,285.082-27.399c9.316-2.495,19.064-2.403,28.328,0.281
										c46.796,13.559,204.783,54.072,375.398,38.627c29.728-2.691,55.844,19.789,57.422,49.596
										c3.018,56.971,36.631,134.642,199.137,129.577c0,0,95.247,0,266.647-89.626c0,0,175.395,18.26,384.475-68.532
										c0,0,274.778,88.232,519.727-13.194c0,0,7.478-3.493,18.799-7.537c-358.214,351.672-1251.024,355.333-1455.928,351.336
										c-22.58-0.439-41.427,16.832-43.344,39.334c-1.173,13.783-2.881,26.662-4.169,35.111
										c-7.604,49.882-65.627,75.455-106.552,45.94c-50.251-36.241-79.66-125.683-88.962-180.499
										c-3.726-21.948-21.883-38.605-44.041-40.756c-730.44-70.905-618.6-444.227-547.669-596.183
										c18.817-40.376,36.055-65.233,36.055-65.233l-38.283,1.809c-8.554,0.403-16.91-2.842-22.948-8.915
										c-85.798-86.304,44.426-110.787,47.386-111.326c-36.52-8.131-74.711-4.693-104.261,26.576
										c-60.215,63.747,65.419,152.071,65.419,152.071l4.6,0.697c-76.616,110.348-193.144,348.234,63.561,525.07
										c0,0,198.719,153.789,478.653,149.422c0,0-3.531,197.977,183.341,246.669c42.562,11.099,85.555-4.924,111.316-36.659h0.007
										c0.096-0.118,0.182-0.245,0.278-0.364c1.154-1.436,2.273-2.902,3.357-4.4c0.416-0.574,0.817-1.158,1.223-1.741
										c0.771-1.112,1.522-2.24,2.254-3.386c0.458-0.716,0.914-1.433,1.355-2.162c0.666-1.101,1.302-2.222,1.929-3.35
										c0.41-0.737,0.836-1.463,1.23-2.212c0.925-1.76,1.809-3.549,2.64-5.371c0.346-0.759,0.652-1.542,0.981-2.312
										c0.508-1.188,1.013-2.378,1.479-3.591c0.345-0.895,0.662-1.804,0.984-2.712c0.407-1.148,0.799-2.304,1.168-3.473
										c0.287-0.907,0.565-1.817,0.829-2.736c0.367-1.281,0.701-2.577,1.023-3.881c0.201-0.813,0.416-1.62,0.598-2.442
										c0.474-2.129,0.901-4.28,1.251-6.465c2.137-13.102,3.345-27.97,3.345-44.836c0,0,1064.634,74.479,1541.849-431.261
										c0.006,0.011,0.013,0.019,0.019,0.029c0.024,0.036,0.038,0.056,0.063,0.093c0.003,0.003,0.01,0.01,0.012,0.014
										c0.001,0,0.001,0.001,0.002,0.002c0.007,0.008,0.027,0.033,0.036,0.042c1.404,1.659,14.007,16.344,34.3,28.321
										c0.092,0.054,0.181,0.108,0.273,0.162c1.452,0.854,2.947,1.688,4.478,2.508c0.167,0.089,0.331,0.18,0.499,0.269
										c1.489,0.788,3.015,1.554,4.573,2.298c0.222,0.107,0.444,0.213,0.667,0.318c1.538,0.724,3.109,1.421,4.712,2.091
										c0.26,0.108,0.52,0.216,0.781,0.323c1.592,0.652,3.213,1.275,4.864,1.863c0.29,0.104,0.582,0.203,0.874,0.305
										c1.654,0.574,3.336,1.117,5.048,1.617c0.297,0.088,0.599,0.169,0.899,0.254c1.731,0.49,3.487,0.945,5.274,1.35
										c0.283,0.064,0.571,0.12,0.856,0.183c1.826,0.396,3.675,0.756,5.556,1.052c0.242,0.039,0.488,0.066,0.73,0.104
										c1.854,0.278,3.732,0.51,5.639,0.68c0.241,0.022,0.483,0.044,0.726,0.064c1.891,0.154,3.809,0.246,5.745,0.286
										c0.306,0.006,0.607,0.022,0.914,0.026c1.934,0.021,3.895-0.035,5.872-0.139c0.4-0.021,0.797-0.032,1.199-0.059
										c1.931-0.126,3.885-0.327,5.854-0.581c0.463-0.06,0.924-0.113,1.389-0.18c1.943-0.28,3.907-0.634,5.886-1.046
										c0.506-0.105,1.012-0.21,1.52-0.324c1.971-0.443,3.958-0.959,5.961-1.542c0.528-0.153,1.057-0.313,1.587-0.477
										c2.008-0.62,4.032-1.311,6.071-2.08c0.534-0.201,1.07-0.415,1.606-0.627c2.059-0.813,4.13-1.696,6.219-2.671
										c0.519-0.242,1.04-0.503,1.562-0.756c2.126-1.031,4.263-2.129,6.417-3.335c0.477-0.267,0.955-0.558,1.433-0.833
										c2.215-1.277,4.438-2.623,6.678-4.095c0.404-0.266,0.811-0.558,1.216-0.829c2.164-1.454,4.339-2.992,6.525-4.636
										c0.439-0.33,0.878-0.662,1.318-1c2.201-1.689,4.414-3.491,6.635-5.382c0.309-0.263,0.613-0.481,0.922-0.748l-0.022-0.009
										c4.492-3.876,9.023-8.159,13.59-12.908C3445.902,2385.723,3254.896,2319.514,3254.896,2319.514z"/>
								</g>
								<g opacity="0.3">
									<path fill="#000C7A" d="M2088.275,2271.611c0,0-32.57,22.301-58.961,51.805c-77.685,28.854-151.56,50.227-221.485,65.279
										c-246.715,53.014-444.551,27.367-589.514-24.066c-86.094-30.479-153.511-70.112-201.506-107.746
										c-33.918-26.53-58.078-52.085-72.249-72.761c-19.793-28.899-29.039-58.031-31.873-85.443
										c0,0,345.412,382.157,937.495,155.856c86.853-33.196,150.928-108.383,169.906-199.406c0.18-0.859,0.358-1.723,0.537-2.588
										c45.161-218.558,79.125-631.282-242.439-824.287c69.274,20.815,148.911,51.387,209.498,93.807
										C2119.684,1484.029,2215.907,1927.651,2088.275,2271.611z"/>
								</g>
								<g opacity="0.3">
									<path fill="#000C7A" d="M1016.81,2256.883c0,0-20.738,7.518-44.499,23.857c14.167,11.276,29.588,22.596,46.275,33.772
										c36.098,24.178,24.634,79.886-18.13,87.562c-30.882,5.544-58.087,7.576-81.727,7.393
										c6.656,7.011,15.535,12.072,25.877,13.936c48.692,8.828,140.502,9.014,273.709-58.773
										C1132.222,2334.149,1064.805,2294.517,1016.81,2256.883z"/>
								</g>
								<g opacity="0.3">
									<path fill="#000C7A" d="M1899.11,2407.967c22.822-6.569,44.006,12.68,41.046,36.243
										c-2.015,16.04,3.395,31.762,20.884,45.519c20.156,15.844,46.368,33.752,80.915,48.132
										c51.145-25.958,86.046-53.87,86.046-53.87c-48.646-13.893-83.726-35.776-109.373-54.733
										c-40.887-30.247-19.003-72.62,10.687-105.841c-77.685,28.854-151.56,50.227-221.485,65.279
										c0,0-17.682,21.108-31.639,49.456C1815.895,2430.117,1856.871,2420.126,1899.11,2407.967z"/>
								</g>
								<g opacity="0.3">
									<path fill="#000C7A" d="M3066.863,1735.901c-12.621-15.622-28.051-29.822-40.386-40.16
										c-9.744-8.167-8.647-23.513,2.118-30.276c82.55-51.86,113.676-137.437,113.676-137.437S3161.6,1653.709,3066.863,1735.901z
										"/>
								</g>
								<g opacity="0.3">
									<path fill="#000C7A" d="M3356.556,2274.956c-24.067,18.073-57.846,36.473-101.66,44.558
										c-45.532,8.409-101.938,5.668-169.726-19.979c-22.581-12.639-35.869-37.124-33.175-62.864
										c12.267-117.503,23.278-430.612-161.596-687.827c2.904,1.364,179.754,88.493,218.597,574.323
										c4.718,58.996,46.396,109.122,103.875,123.226c59.74,14.656,130.957,15.33,166.032-46.799
										C3388.382,2225.752,3380.855,2256.696,3356.556,2274.956z"/>
								</g>
								<g>
									<g opacity="0.3">
										<path fill="#000C7A" d="M3095.112,2359.425c-153.325,167.589-576.086,69.832-576.086,69.832
											c-184.176,78.8-307.58,78.568-391.025,54.733c-48.646-13.893-83.726-35.776-109.373-54.733
											c-40.887-30.247-19.003-72.62,10.687-105.841c26.391-29.504,58.961-51.805,58.961-51.805
											s-130.141,184.594,160.713,173.257c0,0,141.021-21.228,230.514-65.504c25.274-12.505,53.894-16.405,81.75-12.019
											c0.982,0.154,1.979,0.309,2.987,0.465c205.141,31.586,392.309-121.599,402.639-328.899
											c8.854-177.689-16.313-397.638-150.399-572.91c26.669,24.207,51.526,51.713,73.875,82.796
											c184.92,257.215,173.908,570.371,161.642,687.874c-2.694,25.74,10.594,50.226,33.175,62.864
											c0.418,0.231,0.789,0.418,1.162,0.65C3107.61,2312.404,3111.652,2341.351,3095.112,2359.425z"/>
									</g>
									<g opacity="0.3">
										<path fill="#000C7A" d="M2217.828,1398.438c0,0,239.971,206.567,146.934,777.134
											c-7.45,45.688,25.762,88.406,71.973,91.137c35.908,2.122,81.703-1.33,134.528-18.771c0,0-119.404,89.385-310.989,75.479
											c0,0-7.733-29.996,16.373-75.479C2276.646,2247.938,2448.025,1769.253,2217.828,1398.438z"/>
									</g>
									<g opacity="0.3">
										<path fill="#000C7A" d="M2832.499,1991.959c0,0,79.565-452.089-337.102-564.097
											C2495.397,1427.863,2781.807,1552.472,2832.499,1991.959z"/>
									</g>
								</g>
								<g opacity="0.3">
									<path fill="#000C7A" d="M2088.275,2271.611c127.632-343.96,31.408-787.582-100.591-949.55
										c-134.74-94.318-363.567-130.094-363.567-130.094s0.047,0,0.093-0.046c6.04-1.998,275.196-90.416,436.606,102.542
										C2224.065,1489.62,2285.973,2069.965,2088.275,2271.611z"/>
								</g>
							</g>
						</g>
						<g opacity="0.3">
							<path fill="#000C7A" d="M1490.631,2166.234c-33.522,46.441-93.048,68.066-123.532,76.497
								c-12.424,3.437-25.776,1.939-37.103-4.216c-68.887-37.438-82.037-92.585-82.037-92.585l105.376,66.72L1490.631,2166.234z"/>
						</g>
					</g>
					<g>
						<g opacity="0.7">
							<path fill="#FFFFFF" d="M1351.156,1236.827c-7.66-2.727-15.08-5.14-21.006-6.622
								c-271.014,87.907-355.111,317.709-377.924,494.962h0.047c0,0,0.046-0.139,0.139-0.418
								c2.174-9.003,40.514-161.774,145.62-291.954c3.436-4.255,7.973-7.591,13.149-9.355c14.615-4.979,38.613-20.422,63.31-41.605
								c26.861-23.041,46.834-46.261,52.294-59.604c2.304-5.629,6.595-10.178,11.837-13.264
								c33.51-19.735,70.542-35.742,111.443-46.352C1362.924,1259.281,1363.671,1241.283,1351.156,1236.827z"/>
						</g>
						<g opacity="0.7">
							<path fill="#FFFFFF" d="M2199.646,1284.102c-25.09,6.876-43.257,12.359-43.257,12.359
								c-188.079-235.517-526.604-106.678-532.179-104.54C1629.879,1188.436,1944.846,996.315,2199.646,1284.102z"/>
						</g>
						<g opacity="0.7">
							<path fill="#FFFFFF" d="M2986.019,1724.007c-188.915-429.683-829.63-427.546-829.63-427.546l22.163-34.986
								c7.062,7.202,14.124,14.728,21.094,22.627c2.091,2.323,4.182,4.693,6.226,7.109c32.013-1.952,77.359-3.16,130.466-0.232
								c141.152,7.759,336.759,44.696,480.142,175.023c26.669,24.207,51.526,51.713,73.875,82.796
								C2931.055,1605.389,2962.23,1664.674,2986.019,1724.007z"/>
						</g>
					</g>
				</g>
			</g>
			<g>
				<g>
					<path fill="#000C7A" d="M1543.327,2433.762c-93.597,0-183.332-11.582-267.515-34.578
						c-83.046-22.684-161.258-57.068-226.181-99.438c-51.679-33.724-94.723-72.613-118.096-106.697
						c-59.041-86.096-31.89-173.937-10.449-218.635c8.336-17.38,11.964-36.42,10.49-55.062
						c-5.557-70.32-7.78-209.257,39.756-349.684c27.196-80.346,67.116-149.74,118.648-206.253
						c52.141-57.179,116.622-101.618,192.125-132.483c-26.824-13.293-59.49-38.079-81.305-83.889
						c-2.297-4.823-2-10.479,0.788-15.036c2.789-4.556,7.69-7.394,13.03-7.543l118.651-3.319
						c-5.228-26.978-8.762-74.469,21.94-102.747c5.457-5.025,13.676-5.578,19.754-1.324c1.306,0.913,131.103,91.508,254.371,159.761
						c12.51,2.077,64.508,11.203,130.288,29.615c99.999,27.992,179.775,62.53,237.116,102.655l-18.111,25.881
						c-130.111-91.047-354.721-127.043-356.974-127.396c-1.819-0.285-3.576-0.886-5.188-1.775
						c-103.426-57.063-211.837-130.077-247.485-154.494c-16.717,29.417-0.845,79.508-0.658,80.068
						c1.581,4.742,0.823,9.953-2.043,14.049c-2.864,4.096-7.502,6.593-12.499,6.733l-111.927,3.131
						c13.335,19.448,30.529,34.782,51.336,45.737c21.277,11.204,38.626,13.436,38.799,13.457c7.386,0.842,13.149,6.715,13.893,14.11
						c0.744,7.396-3.806,14.305-10.876,16.598c-384.507,124.715-381.898,545.625-371.939,671.658
						c1.912,24.188-2.756,48.813-13.5,71.211c-18.489,38.55-42.034,114.118,8.02,187.108
						c21.123,30.801,60.964,66.561,109.309,98.109c62.204,40.594,137.325,73.59,217.24,95.42
						c152.002,41.52,403.715,64.795,739.69-60.099l11.007,29.608c-147.636,54.881-291.908,86.451-428.812,93.834
						C1584.946,2433.193,1564.043,2433.762,1543.327,2433.762z"/>
				</g>
				<g>
					<path fill="#000C7A" d="M1277.371,2139.252l-31.576-0.89c1.288-45.686,10.611-99.245,17.512-135.558
						c7.132-37.531,11.575-72.383,13.585-106.547c4.577-77.837-2.788-139.772-21.89-184.086
						c-21.404-49.65-56.966-77.09-108.719-83.886c-54.491-7.155-101.191,7.946-138.807,44.883
						c-28.392,27.881-40.511,57.709-40.63,58.007l-29.334-11.721c0.587-1.469,14.753-36.343,47.832-68.825
						c30.871-30.314,84.563-64.232,165.052-53.664c62.839,8.252,107.793,42.805,133.612,102.7
						c21.07,48.879,29.285,115.646,24.416,198.445c-2.089,35.535-6.697,71.709-14.085,110.589
						C1287.642,2043.949,1278.595,2095.83,1277.371,2139.252z"/>
				</g>
				<g>
					<path fill="#000C7A" d="M1357.78,2225.045c-9.31,0-18.521-2.624-26.621-7.752l-91.668-58.027
						c-4.772-3.021-7.568-8.362-7.332-14.006c0.236-5.645,3.47-10.732,8.479-13.344l96.045-50.075
						c15.431-8.046,34.238-7.399,49.08,1.683l113.135,69.232c5.23,3.199,8.135,9.137,7.452,15.23
						c-0.683,6.092-4.83,11.24-10.639,13.203l-121.913,41.21C1368.558,2224.171,1363.152,2225.045,1357.78,2225.045z
						 M1279.562,2147.246l68.493,43.357c4.682,2.964,10.379,3.646,15.628,1.871l89.929-30.398l-84.337-51.609
						c-5.438-3.328-12.333-3.564-17.988-0.616L1279.562,2147.246z"/>
				</g>
				<g>
					<path fill="#000C7A" d="M2104.058,2271.75l-31.588-0.242c0.631-82.225-24.76-157.822-75.47-224.694
						c-38.149-50.309-77.122-76.517-77.512-76.776c-6.023-4.006-8.564-11.597-6.155-18.417c2.407-6.821,9.126-11.135,16.336-10.475
						c10.718,0.99,21.463,2.755,31.118,4.698c-13.449-21.932-24.595-35.089-24.751-35.273c-4.45-5.215-5.033-12.713-1.436-18.549
						c3.598-5.835,10.541-8.692,17.206-7.055c11.897,2.922,23.367,6.337,32.727,9.338c-5.819-101.32-35.363-177.509-87.96-226.665
						c-65.753-61.451-147.865-60.977-163.664-60.256c-3.556,0.162-7.113,0.241-10.251,0.311
						c-60.546,1.35-109.984,24.24-146.942,68.035c-64.224,76.104-81.554,202.995-84.782,296.041
						c-3.552,102.354,8.787,187.363,8.912,188.21l-31.248,4.624c-0.526-3.555-12.845-88.249-9.253-193.374
						c2.12-62.022,9.408-118.152,21.662-166.832c15.567-61.843,39.3-111.976,70.538-149.006
						c43.06-51.044,100.394-77.718,170.41-79.278c2.966-0.066,6.328-0.141,9.517-0.286c10.402-0.475,38.314-0.657,72.836,7.843
						c43.858,10.799,82.157,31.286,113.835,60.891c62.919,58.803,96.184,150.261,98.87,271.833
						c0.116,5.246-2.381,10.208-6.664,13.239c-4.284,3.032-9.792,3.739-14.702,1.886c-0.087-0.033-3.229-1.212-8.413-3.009
						c6.103,9.912,12.65,21.5,18.994,34.483c2.771,5.669,1.9,12.444-2.213,17.229c-4.113,4.786-10.682,6.664-16.701,4.776
						c-0.056-0.018-1.145-0.355-3.069-0.913c11.607,11.677,24.378,25.882,37.15,42.62c24.27,31.809,43.547,66.267,57.297,102.418
						C2095.902,2174.375,2104.437,2222.361,2104.058,2271.75z"/>
				</g>
				<g>
					<path fill="#000C7A" d="M2155.699,1295.696c11.229-6.081,22.995-9.7,34.803-12.575c11.829-2.774,23.789-4.49,35.785-5.353
						c12.001-0.769,24.015-1.251,36.034-1.602c12.02-0.341,24.048-0.519,36.076-0.432c48.115,0.197,96.297,3.47,144.116,10.229
						c23.906,3.392,47.716,7.659,71.354,12.873c23.621,5.287,47.07,11.499,70.218,18.804c46.267,14.627,91.47,33.4,134.051,57.34
						c42.591,23.853,82.612,52.728,118.188,86.507c17.806,16.859,34.494,34.922,49.882,54.034l5.759,7.177
						c1.896,2.41,3.689,4.9,5.538,7.347l5.505,7.373c0.938,1.222,1.797,2.471,2.657,3.72l2.594,3.743l10.369,14.975l2.592,3.745
						l2.456,3.833l4.904,7.671l4.903,7.672l2.451,3.837c0.825,1.273,1.635,2.557,2.389,3.874l9.248,15.682l4.622,7.843l4.347,7.994
						l8.688,15.993c2.817,5.371,5.457,10.831,8.193,16.244c2.691,5.434,5.505,10.812,7.959,16.355l7.597,16.524
						c0.627,1.379,1.278,2.749,1.885,4.137l1.768,4.187l3.534,8.375l3.531,8.375l1.766,4.188l1.645,4.235l6.546,16.952l1.636,4.238
						c0.534,1.417,1.016,2.852,1.526,4.276l3.021,8.565l3.019,8.565l1.509,4.283c0.493,1.431,0.934,2.878,1.403,4.317l5.547,17.288
						l1.386,4.322l1.273,4.354l2.535,8.713l2.534,8.713c0.416,1.454,0.857,2.902,1.254,4.36l1.152,4.386l4.606,17.547
						c11.723,46.927,20.212,94.594,25.633,142.559c2.683,23.985,4.684,48.038,5.961,72.126c1.233,24.09,1.741,48.21,1.563,72.327
						c-0.179,24.118-1.093,48.23-2.752,72.316c-0.873,12.042-1.858,24.08-3.113,36.112c-0.19,1.693-0.195,2.539-0.283,3.663
						c-0.025,0.538-0.108,1.077-0.097,1.616l0.023,1.616l0.006,1.616l0.147,1.609l0.126,1.61c0.064,0.534,0.176,1.063,0.255,1.595
						c0.658,4.256,1.925,8.427,3.752,12.363c3.655,7.871,9.536,14.812,16.897,19.692c0.903,0.635,1.885,1.151,2.813,1.75
						l0.747,0.458l1.118,0.636l2.719,1.667c3.607,2.35,6.974,5.144,9.96,8.305c5.991,6.324,10.371,14.103,12.768,22.357
						c2.411,8.259,2.885,17.018,1.396,25.475c-1.474,8.456-4.994,16.595-10.094,23.476c-0.653,0.845-1.285,1.712-1.977,2.521
						l-1.043,1.21l-0.524,0.602c-0.189,0.221-0.333,0.372-0.466,0.508l-3.347,3.479c-2.244,2.307-4.431,4.676-6.814,6.824
						l-3.515,3.293c-1.182,1.084-2.319,2.224-3.561,3.234l-7.324,6.211c-19.938,16.016-41.945,28.927-64.842,38.949
						c-2.859,1.266-5.712,2.557-8.615,3.684c-2.894,1.152-5.773,2.36-8.683,3.465l-8.753,3.213
						c-2.919,1.069-5.875,1.988-8.811,2.988c-11.777,3.84-23.656,7.272-35.625,10.094c-23.925,5.764-48.093,9.783-72.295,12.502
						c-12.103,1.351-24.216,2.451-36.328,3.193c-12.111,0.779-24.222,1.314-36.322,1.562c-48.41,1.08-96.637-1.492-144.497-6.503
						c-23.932-2.521-47.78-5.655-71.535-9.423c-11.878-1.876-23.732-3.923-35.571-6.122c-5.92-1.107-11.835-2.25-17.753-3.451
						l-8.885-1.848c-2.994-0.641-5.874-1.266-9.027-1.995l9.771-0.867l-0.002,0.001c-28.253,11.965-56.938,23.038-86.17,32.745
						c-29.228,9.702-59.01,18.035-89.35,24.366c-30.329,6.327-61.226,10.642-92.447,12.225l-5.851,0.322l-5.869,0.117l-11.739,0.227
						l-11.764-0.2l-5.882-0.114l-5.885-0.326c-15.695-0.665-31.386-2.5-46.965-5.059l-5.837-1.018
						c-1.946-0.338-3.895-0.66-5.824-1.105l-11.604-2.492l-11.515-2.936c-1.927-0.462-3.82-1.053-5.723-1.614l-5.701-1.694
						c-15.163-4.659-30.036-10.36-44.428-17.088c-14.389-6.725-28.303-14.459-41.589-23.021
						c-6.602-4.329-13.152-8.744-19.452-13.397l-2.381-1.728l-2.688-2.096c-1.809-1.353-3.525-2.986-5.269-4.506
						c-3.403-3.263-6.676-6.813-9.572-10.86c-2.87-4.069-5.374-8.558-7.27-13.364c-1.918-4.797-3.143-9.915-3.695-14.994
						c-1.125-10.203,0.352-20.099,3.1-28.83c2.718-8.813,6.605-16.691,10.916-24.018c4.348-7.3,9.174-14.043,14.273-20.411
						c10.217-12.719,21.447-24.037,33.164-34.624c5.864-5.289,11.868-10.374,18.002-15.296c3.068-2.46,6.168-4.88,9.314-7.261
						l4.766-3.544l2.433-1.759l2.59-1.822l-5.89,7.54c9.802-26.604,18.298-53.719,25.541-81.192
						c7.152-27.499,13.1-55.337,17.904-83.393c4.723-28.072,8.333-56.352,10.911-84.74c2.493-28.397,3.963-56.9,4.477-85.43
						c0.429-28.533-0.079-57.09-1.523-85.607c-1.523-28.512-3.88-56.989-7.241-85.349c-6.705-56.717-17.072-113.018-31.373-168.226
						c-3.636-13.783-7.437-27.52-11.553-41.153c-4.149-13.621-8.486-27.179-13.172-40.604c-4.699-13.417-9.661-26.73-14.931-39.902
						c-5.315-13.149-10.942-26.152-16.926-38.958c-11.951-25.607-25.442-50.423-40.965-73.542
						c-7.766-11.52-16.086-22.686-25.008-32.923c-8.999-10.243-18.775-19.82-29.205-28.683
						c-10.486-8.799-21.588-16.918-33.219-24.29c-11.667-7.317-23.771-14.023-36.313-19.933
						c-25.038-11.913-51.552-21.021-78.688-27.949c-27.158-6.899-54.989-11.564-83.025-14.323
						c-14.018-1.383-28.096-2.288-42.165-2.688c-7.033-0.196-14.068-0.286-21.074-0.214c-3.503,0.031-7,0.099-10.474,0.211
						l-5.184,0.204l-2.556,0.131l-2.372,0.15l-0.483,0.031c-8.67,0.549-16.145-6.033-16.693-14.703
						c-0.384-6.062,2.736-11.546,7.602-14.481l2.504-1.503l2.333-1.351l4.632-2.596c3.081-1.698,6.169-3.322,9.265-4.924
						c6.193-3.193,12.433-6.218,18.725-9.111c12.58-5.79,25.355-11.072,38.312-15.866c25.9-9.607,52.523-17.274,79.631-22.868
						c27.106-5.579,54.722-9.001,82.493-9.962c27.768-1.02,55.688,0.648,83.239,4.888c13.786,2.071,27.438,5.025,40.943,8.494
						l5.06,1.33l2.529,0.666l2.508,0.744l10.028,2.981c6.617,2.202,13.272,4.301,19.78,6.808c6.577,2.326,12.987,5.073,19.45,7.688
						c6.349,2.871,12.776,5.581,18.99,8.73l4.693,2.295c1.569,0.756,3.13,1.528,4.657,2.363l9.222,4.899
						c1.548,0.797,3.051,1.672,4.558,2.542l4.522,2.602c3.013,1.739,6.051,3.437,8.978,5.312l8.856,5.504
						c2.933,1.863,5.787,3.841,8.684,5.758c5.834,3.78,11.378,7.953,17.033,11.974c2.814,2.029,5.514,4.204,8.273,6.3l4.118,3.173
						l2.056,1.591l2.005,1.65c5.328,4.421,10.756,8.733,15.884,13.374c20.821,18.226,40.184,37.982,58.133,58.844l-23.968,20.577
						c-17.064-19.832-35.38-38.502-54.955-55.637c-4.821-4.374-9.915-8.405-14.911-12.559l-1.88-1.55l-1.926-1.488l-3.855-2.969
						c-2.585-1.96-5.11-4.004-7.741-5.898c-5.287-3.749-10.465-7.664-15.903-11.177c-2.7-1.785-5.362-3.635-8.093-5.37l-8.244-5.121
						c-2.724-1.751-5.549-3.321-8.348-4.938l-4.202-2.419c-1.399-0.809-2.795-1.625-4.231-2.362l-8.558-4.546
						c-1.417-0.777-2.863-1.493-4.318-2.191l-4.351-2.125c-5.758-2.928-11.712-5.421-17.587-8.09
						c-5.982-2.41-11.91-4.964-17.993-7.108c-6.017-2.325-12.172-4.253-18.285-6.297l-9.27-2.753l-2.317-0.69l-2.339-0.613
						l-4.677-1.228c-12.485-3.204-25.104-5.945-37.869-7.857c-51.028-7.993-103.589-5.683-154.507,4.802
						c-25.469,5.255-50.586,12.484-75.019,21.547c-12.219,4.521-24.267,9.504-36.07,14.937c-5.903,2.714-11.743,5.546-17.48,8.504
						c-2.863,1.483-5.716,2.982-8.511,4.523l-4.15,2.326l-2.022,1.17l-1.813,1.085l-9.575-29.153l3.037-0.195l2.857-0.146
						l5.646-0.223c3.747-0.122,7.476-0.194,11.198-0.227c7.445-0.076,14.864,0.019,22.277,0.226
						c14.821,0.422,29.606,1.373,44.353,2.827c29.485,2.903,58.832,7.81,87.709,15.144c28.854,7.367,57.281,17.104,84.463,30.031
						c13.605,6.415,26.838,13.73,39.65,21.773c12.783,8.099,25.068,17.073,36.719,26.856c11.599,9.85,22.525,20.547,32.601,32.021
						c10.067,11.559,19.032,23.63,27.425,36.067c16.704,24.886,30.874,51.035,43.371,77.792
						c6.252,13.38,12.106,26.913,17.623,40.561c5.468,13.665,10.602,27.441,15.455,41.303c4.84,13.867,9.312,27.842,13.584,41.87
						c4.238,14.038,8.147,28.162,11.882,42.327c7.317,28.365,13.704,56.949,19.015,85.724c5.389,28.762,9.698,57.708,13.158,86.752
						c3.442,29.046,5.857,58.21,7.417,87.422c1.479,29.217,2.001,58.488,1.561,87.756c-0.526,29.268-2.034,58.529-4.598,87.718
						c-2.649,29.182-6.363,58.285-11.231,87.221c-4.953,28.921-11.09,57.664-18.49,86.111
						c-7.493,28.424-16.297,56.533-26.482,84.172c-1.143,3.103-3.165,5.627-5.679,7.395l-0.211,0.146l-2.053,1.447l-2.171,1.57
						l-4.349,3.234c-2.892,2.188-5.763,4.428-8.603,6.705c-5.678,4.557-11.236,9.265-16.618,14.119
						c-10.754,9.707-20.898,19.992-29.653,30.901c-4.368,5.451-8.357,11.065-11.761,16.78c-3.368,5.712-6.17,11.542-7.902,17.22
						c-1.806,5.688-2.423,11.126-1.894,15.996c0.49,4.892,2.328,9.26,5.286,13.53c1.517,2.115,3.394,4.15,5.44,6.142
						c1.131,0.943,2.13,1.964,3.369,2.865l1.785,1.403l2.217,1.606c5.883,4.349,11.901,8.395,17.961,12.374
						c12.174,7.844,24.799,14.854,37.849,20.953c13.049,6.1,26.523,11.265,40.311,15.503l5.187,1.541
						c1.729,0.512,3.449,1.054,5.208,1.47l10.498,2.68l10.607,2.275c1.761,0.41,3.549,0.703,5.334,1.011l5.353,0.932
						c14.298,2.343,28.752,4.052,43.324,4.66l5.457,0.308l5.475,0.102l10.951,0.19l10.975-0.216l5.486-0.105l5.491-0.307
						c29.288-1.486,58.569-5.551,87.533-11.595c28.973-6.044,57.631-14.053,85.89-23.435c28.263-9.387,56.134-20.142,83.666-31.798
						l0.002-0.001c3.213-1.344,6.611-1.573,9.771-0.867c2.643,0.589,5.576,1.205,8.399,1.784l8.586,1.714
						c5.742,1.117,11.507,2.184,17.28,3.216c11.553,2.052,23.145,3.958,34.765,5.698c23.239,3.477,46.565,6.421,69.938,8.733
						c23.372,2.292,46.787,4.012,70.2,4.967c11.706,0.512,23.41,0.812,35.105,0.917c11.696,0.131,23.384,0.028,35.049-0.296
						c11.669-0.291,23.313-0.859,34.922-1.659c11.616-0.764,23.184-1.87,34.701-3.208c23.028-2.708,45.85-6.554,68.139-12.004
						c11.165-2.662,22.137-5.879,32.948-9.436c2.687-0.927,5.409-1.774,8.067-2.761l7.978-2.954
						c2.645-1.013,5.242-2.117,7.867-3.169c2.639-1.026,5.196-2.201,7.77-3.348c20.626-9.089,39.905-20.58,57.017-34.388
						l6.259-5.343c1.067-0.864,2.021-1.843,3.026-2.77l2.987-2.809c2.042-1.825,3.873-3.844,5.772-5.799l2.838-2.942
						c0.128-0.13,0.239-0.247,0.288-0.313l0.203-0.241l0.414-0.477c0.279-0.315,0.506-0.665,0.771-0.987
						c1.968-2.674,3.295-5.737,3.858-8.998c0.566-3.253,0.37-6.67-0.557-9.818c-0.924-3.154-2.551-6.018-4.743-8.326
						c-1.1-1.156-2.338-2.184-3.713-3.078c-0.642-0.445-4.91-2.823-7.818-4.775c-12.456-8.274-22.616-20.076-28.986-33.754
						c-3.188-6.836-5.426-14.141-6.595-21.627c-0.145-0.937-0.313-1.87-0.426-2.81l-0.254-2.831l-0.23-2.833l-0.048-2.841
						l-0.021-2.841c-0.004-0.947,0.095-1.889,0.142-2.833c0.12-1.842,0.259-3.965,0.402-5.227
						c1.198-11.616,2.138-23.277,2.969-34.948c1.591-23.353,2.411-46.779,2.614-70.208c0.183-23.431-0.301-46.869-1.488-70.268
						c-1.232-23.397-3.166-46.748-5.758-70.018c-5.231-46.533-13.463-92.689-24.737-138.04l-4.412-16.956l-1.104-4.239
						c-0.379-1.41-0.803-2.806-1.201-4.21l-2.429-8.413l-2.428-8.414l-1.218-4.206l-1.329-4.169l-5.313-16.681
						c-0.449-1.388-0.87-2.786-1.343-4.166l-1.446-4.128l-2.893-8.257l-2.89-8.258c-0.489-1.374-0.948-2.758-1.461-4.123
						l-1.567-4.082l-6.266-16.33l-1.571-4.08l-1.691-4.03l-3.381-8.061l-3.38-8.062l-1.689-4.031
						c-0.579-1.336-1.204-2.652-1.805-3.979l-7.267-15.894c-2.343-5.337-5.037-10.5-7.611-15.723
						c-2.616-5.201-5.136-10.454-7.829-15.614l-8.306-15.36l-4.151-7.681l-4.419-7.527l-8.833-15.057
						c-0.719-1.266-1.492-2.497-2.282-3.718l-2.343-3.681l-4.684-7.362l-4.684-7.363l-2.343-3.68l-2.478-3.59l-9.903-14.365
						l-2.474-3.592c-0.822-1.201-1.644-2.403-2.518-3.538l-5.156-6.92c-1.732-2.297-3.406-4.638-5.183-6.9l-5.396-6.735
						c-14.407-17.94-30.034-34.898-46.733-50.75c-33.422-31.696-71.138-58.854-111.509-81.433
						c-20.192-11.291-41.035-21.481-62.379-30.593c-21.338-9.13-43.183-17.141-65.328-24.303
						c-22.158-7.13-44.641-13.363-67.359-18.736c-5.693-1.286-11.374-2.632-17.084-3.86c-5.721-1.178-11.418-2.472-17.165-3.541
						l-8.604-1.685c-2.868-0.562-5.751-1.052-8.627-1.581c-2.879-0.511-5.751-1.063-8.637-1.541l-8.657-1.433
						c-46.201-7.57-93.003-12.035-139.954-13.967c-23.479-0.944-47.001-1.202-70.509-0.777c-11.76,0.093-23.539-0.273-35.418-1.273
						C2179.971,1300.203,2168.048,1298.708,2155.699,1295.696z"/>
				</g>
				<g>
					<path fill="#000C7A" d="M1884.028,2597.268c-21.99,0-42.846-2.939-62.378-8.813c-40.223-12.095-65.198-33.549-74.232-63.766
						c-19.286-64.496,45.544-142.847,48.313-146.15l24.218,20.28c-15.82,18.945-54.253,76.871-42.255,116.864
						c5.813,19.378,23.662,33.685,53.052,42.521c128.85,38.745,285.817-85.28,287.388-86.538l19.743,24.66
						c-1.729,1.383-43.007,34.205-102.164,62.205c-35.007,16.569-69.039,27.979-101.151,33.912
						C1917.157,2595.66,1900.281,2597.267,1884.028,2597.268z"/>
				</g>
				<g>
					<path fill="#000C7A" d="M992.619,2443.318c-17.788,0-34.769-1.455-50.829-4.363c-17.436-3.158-32.821-13.55-42.213-28.511
						c-9.344-14.885-12.007-33.144-7.307-50.095c22.927-82.684,115.247-116.896,119.166-118.312l10.734,29.708l-5.367-14.854
						l5.392,14.845c-0.808,0.295-80.964,30.257-99.485,97.054c-2.367,8.539-1.081,17.367,3.621,24.859
						c4.752,7.568,12.241,12.619,21.088,14.222c41.604,7.536,131.183,10.107,263.718-57.309l14.323,28.155
						c-60.671,30.86-118.945,50.919-173.206,59.619C1031.552,2441.657,1011.625,2443.317,992.619,2443.318z"/>
				</g>
				<g>
					<path fill="#000C7A" d="M2217.828,1398.438c5.291,5.056,10.019,10.686,14.641,16.38c2.334,2.84,4.49,5.804,6.712,8.733
						c1.129,1.455,2.159,2.97,3.219,4.47l3.171,4.511c8.336,12.117,15.829,24.804,22.842,37.756
						c13.872,25.985,25.52,53.19,35.088,81.077c9.623,27.877,17.324,56.407,23.323,85.253c5.968,28.853,10.557,57.983,13.604,87.252
						c0.203,1.828,0.423,3.655,0.599,5.485l0.453,5.497l0.903,10.993c0.569,7.33,1.314,14.65,1.593,21.995l1.044,22.019
						c0.216,3.668,0.269,7.34,0.335,11.011l0.172,11.014l0.146,11.011l0.072,5.504c0.021,1.835-0.039,3.669-0.055,5.503
						c-0.087,7.337-0.256,14.673-0.404,22.006c-0.087,3.667-0.125,7.333-0.252,10.997l-0.537,10.985l-1.182,21.954
						c-0.111,1.828-0.168,3.659-0.324,5.484l-0.464,5.476l-0.948,10.946c-0.635,7.296-1.25,14.59-1.943,21.875
						c-1.693,14.544-3.462,29.07-5.381,43.561c-2.278,14.455-4.513,28.897-7.04,43.283c-2.773,14.354-5.71,28.668-8.818,42.928
						c3.552-58.308,6.926-116.283,7.205-174.205c0.018-28.949-0.046-57.861-1.453-86.7l-0.449-10.815
						c-0.131-3.605-0.249-7.211-0.527-10.807l-1.425-21.586c-0.358-7.204-1.105-14.371-1.717-21.551l-0.95-10.765l-0.475-5.383
						l-0.614-5.366l-2.387-21.469c-0.35-3.586-0.928-7.137-1.41-10.703l-1.487-10.692c-0.489-3.564-0.937-7.137-1.459-10.697
						l-1.751-10.646l-1.75-10.648c-0.303-1.772-0.563-3.554-0.886-5.323l-0.999-5.298l-1.997-10.601l-0.999-5.302
						c-0.327-1.769-0.658-3.537-1.063-5.287c-1.56-7.016-3.03-14.055-4.534-21.092l-5.09-20.961
						c-1.775-6.967-3.716-13.888-5.565-20.844c-7.714-27.722-17.106-54.971-28.17-81.609c-5.577-13.295-11.587-26.439-18.241-39.289
						c-3.379-6.391-6.801-12.785-10.525-19.007C2226.03,1410.471,2222.127,1404.343,2217.828,1398.438z"/>
				</g>
				<g>
					<path fill="#000C7A" d="M2276.647,2247.938c-1.536,8.581-3.321,16.928-4.973,25.218c-1.63,8.279-3.249,16.487-4.309,24.462
						c-0.268,1.989-0.483,3.961-0.629,5.895c-0.169,1.928-0.264,3.821-0.275,5.619c-0.019,1.791,0.093,3.504,0.304,4.928
						c0.195,1.409,0.646,2.553,0.849,2.668c0.094,0.053,0.066-0.203-0.256-0.608c-0.156-0.2-0.384-0.411-0.623-0.586
						c-0.118-0.088-0.246-0.164-0.358-0.232l-0.085-0.044l0.013-0.016l0.018-0.021c0.007-0.005,0.003-0.009,0.018-0.008l0.183,0.022
						l0.36,0.058l1.069,0.143l1.234,0.145l1.331,0.123c3.681,0.284,7.689,0.439,11.714,0.511c8.075,0.133,16.326,0.118,24.583-0.096
						c8.263-0.218,16.55-0.694,24.834-1.29c8.289-0.57,16.575-1.324,24.849-2.237c8.271-0.925,16.543-1.91,24.784-3.12
						c32.978-4.761,65.688-11.704,97.608-21.558c15.951-4.949,31.708-10.618,47.143-17.223c15.428-6.616,30.541-14.138,45.23-22.751
						c-12.685,11.371-26.701,21.367-41.442,30.164c-14.746,8.808-30.216,16.457-46.108,23.082
						c-31.806,13.26-65.183,22.592-99.052,28.855c-8.478,1.531-16.977,2.975-25.524,4.096c-8.545,1.137-17.116,2.108-25.716,2.892
						c-8.604,0.735-17.235,1.259-25.907,1.563c-8.677,0.305-17.38,0.401-26.234-0.178c-4.438-0.287-8.888-0.717-13.61-1.515
						l-1.812-0.335l-1.896-0.402c-0.654-0.149-1.361-0.346-2.037-0.522l-1.172-0.362l-0.582-0.187l-0.731-0.273l-0.729-0.289
						l-0.363-0.149l-0.447-0.207c-0.598-0.279-1.192-0.606-1.766-0.965c-1.148-0.718-2.219-1.582-3.13-2.524
						c-1.831-1.897-3-3.98-3.765-5.86c-1.485-3.784-1.676-6.901-1.718-9.709c-0.016-2.807,0.296-5.338,0.683-7.761
						c0.809-4.828,2.104-9.222,3.556-13.485c2.933-8.496,6.611-16.411,10.773-24.049
						C2266.715,2262.2,2271.271,2254.825,2276.647,2247.938z"/>
				</g>
				<g>
					<path fill="#000C7A" d="M2662.977,1566.904c8.163,5.445,15.643,11.921,22.781,18.692c1.823,1.667,3.53,3.432,5.28,5.17
						c1.762,1.729,3.446,3.521,5.148,5.305c1.704,1.783,3.385,3.59,5.012,5.438l4.923,5.527
						c12.844,14.977,24.486,30.999,35.053,47.681c10.608,16.667,19.986,34.082,28.563,51.854c2.111,4.459,4.251,8.91,6.191,13.442
						l2.982,6.771c0.982,2.261,2.026,4.5,2.915,6.799l5.481,13.734c1.859,4.567,3.468,9.223,5.149,13.854l2.496,6.955
						c0.838,2.316,1.563,4.669,2.35,7.001c1.551,4.672,3.087,9.349,4.572,14.041l4.15,14.162c0.682,2.362,1.393,4.716,2.052,7.085
						c0.639,2.374,1.223,4.762,1.838,7.141l3.639,14.285c1.156,4.774,2.129,9.591,3.2,14.381l1.571,7.192l0.775,3.597l0.665,3.621
						l2.649,14.474c0.445,2.41,0.866,4.825,1.265,7.243l1.078,7.274c0.733,4.845,1.426,9.694,2.091,14.545l0.502,3.636l0.416,3.65
						l0.797,7.302c0.503,4.871,1.051,9.729,1.515,14.598c0.779,9.757,1.405,19.521,1.945,29.273
						c0.324,9.78,0.487,19.561,0.477,29.331c-2.359-9.511-4.538-19.012-6.567-28.512c-2.306-9.462-4.41-18.93-6.571-28.371
						l-6.819-28.209c-1.222-4.676-2.414-9.353-3.566-14.035l-1.75-7.017l-1.896-6.978l-3.727-13.955l-0.932-3.486l-1-3.467
						l-1.977-6.937c-1.332-4.62-2.604-9.254-3.981-13.854l-4.178-13.782c-0.703-2.294-1.377-4.597-2.103-6.883
						c-0.764-2.274-1.477-4.563-2.218-6.843l-4.413-13.686c-3.246-9.014-6.063-18.178-9.513-27.107
						c-6.479-18.014-13.549-35.793-21.179-53.316c-7.526-17.574-15.731-34.847-24.49-51.856
						c-8.796-16.992-18.303-33.628-28.546-49.896C2686.699,1597.597,2675.785,1581.667,2662.977,1566.904z"/>
				</g>
				<g>
					<path fill="#000C7A" d="M1028.756,1924.48c8.725,4.808,17.069,9.153,25.463,13.278c8.353,4.136,16.623,8.058,24.918,11.764
						c16.563,7.448,33.206,13.989,50.086,20.063l6.367,2.192c1.06,0.368,2.11,0.767,3.181,1.109
						c1.072,0.334,2.141,0.685,3.207,1.042c2.141,0.692,4.263,1.446,6.412,2.123c2.156,0.659,4.309,1.335,6.457,2.042
						c2.143,0.722,4.327,1.315,6.492,1.988c2.178,0.624,4.324,1.403,6.521,1.985c4.376,1.244,8.741,2.632,13.173,3.83
						c2.212,0.611,4.42,1.289,6.641,1.934c2.229,0.596,4.464,1.203,6.701,1.845c4.466,1.351,8.996,2.456,13.535,3.804
						c4.542,1.342,9.138,2.495,13.758,3.958c4.629,1.333,9.299,2.653,14.023,4.402c-4.726,1.557-9.511,2.822-14.329,3.849
						c-2.409,0.494-4.826,0.885-7.254,1.305c-2.427,0.416-4.862,0.799-7.299,1.027c-4.874,0.494-9.786,1.001-14.69,1.078
						c-2.455,0.079-4.914,0.122-7.378,0.154c-2.455-0.05-4.915-0.116-7.374-0.222c-19.692-0.755-39.306-4.704-58.091-11.159
						c-18.73-6.604-36.654-15.861-52.43-28.043c-7.894-6.062-15.223-12.882-21.777-20.374c-3.272-3.75-6.336-7.688-9.114-11.835
						C1033.185,1933.484,1030.613,1929.164,1028.756,1924.48z"/>
				</g>
				<g>
					<path fill="#000C7A" d="M1837.921,1973.043c-4.139,5.347-9.016,10.05-14.08,14.475c-2.52,2.249-5.168,4.308-7.813,6.41
						c-1.324,1.048-2.701,1.999-4.056,3.006c-1.356,1.007-2.733,1.976-4.121,2.93c-11.117,7.618-22.974,14.195-35.306,19.687
						c-24.663,11.061-51.129,17.925-77.89,21.32c-26.793,3.182-53.945,3.055-80.422-0.994c-3.311-0.493-6.611-1.025-9.903-1.581
						c-3.281-0.663-6.554-1.337-9.815-2.047c-6.537-1.317-12.974-3.176-19.374-4.997c-3.201-0.909-6.371-1.951-9.519-3.062
						c-3.148-1.111-6.291-2.189-9.403-3.376c-6.208-2.438-12.321-5.157-18.309-8.15c6.744-0.507,13.328-0.551,19.878-0.655
						c3.29-0.138,6.548-0.169,9.802-0.232c1.628-0.042,3.245-0.033,4.861-0.034c1.613,0.025,3.241-0.084,4.857-0.124
						c6.473-0.23,12.872-0.148,19.272-0.45c3.196-0.104,6.382-0.168,9.558-0.225c3.18-0.127,6.355-0.302,9.52-0.399
						c6.33-0.149,12.636-0.611,18.919-0.883c3.143-0.089,6.276-0.447,9.407-0.608c3.13-0.226,6.262-0.339,9.379-0.65
						c3.119-0.285,6.235-0.535,9.352-0.767c1.559-0.093,3.108-0.306,4.662-0.45l4.657-0.467c1.552-0.159,3.103-0.311,4.656-0.443
						c1.552-0.145,3.095-0.369,4.642-0.549l9.279-1.085c24.682-3.261,49.166-7.541,73.578-13.409
						c12.218-2.905,24.404-6.203,36.658-9.847C1813.133,1981.746,1825.371,1977.741,1837.921,1973.043z"/>
				</g>
				<g>
					<path fill="#000C7A" d="M754.88,2139.744c-0.824-0.58-20.426-14.432-40.889-35.301c-28.699-29.271-44.579-57.27-47.197-83.219
						c-2.168-21.495,4.652-40.776,20.272-57.308c37.809-40.013,93.221-46.144,160.252-17.726
						c47.792,20.261,84.725,50.92,86.272,52.215l-20.256,24.238c-1.332-1.111-134.081-110.303-203.308-37.033
						c-9.159,9.693-13.021,20.295-11.808,32.412c3.814,38.071,55.313,82.123,74.833,95.884L754.88,2139.744z"/>
				</g>
				<g>
					<path fill="#000C7A" d="M816.663,2066.627c-2.545,6.078-5.321,11.784-8.187,17.396c-2.866,5.604-5.817,11.085-8.864,16.462
						c-6.092,10.754-12.458,21.178-19.055,31.412l-9.968,15.281c-3.289,5.112-6.507,10.268-9.649,15.465
						c-6.283,10.395-12.271,20.955-17.909,31.68c-11.286,21.441-21.219,43.529-29.399,66.14
						c-8.192,22.598-14.608,45.747-18.642,69.179c-4.015,23.424-5.631,47.127-4.348,70.563c1.284,23.431,5.567,46.568,12.896,68.697
						c7.272,22.152,17.634,43.246,30.374,62.9c6.415,9.804,13.403,19.263,20.892,28.353c7.503,9.081,15.505,17.793,23.916,26.14
						c16.822,16.703,35.308,31.891,54.81,45.81c2.47,1.772,5.136,3.602,7.694,5.4l0.969,0.677c0.195,0.141,0.188,0.118,0.787,0.575
						l0.383,0.288l1.697,1.258l3.561,2.563c4.82,3.421,9.791,6.789,14.819,10.081c10.063,6.589,20.371,12.923,30.835,19.006
						c41.863,24.38,86.041,45.062,131.512,62.031c22.746,8.473,45.836,16.018,69.217,22.499c23.36,6.56,47.024,11.978,70.857,16.451
						c47.691,8.805,96.158,13.368,144.686,13.297h0.001c8.857,0,16.038,7.18,16.038,16.037l-0.001,0.038l0.007,1.687l0.041,1.949
						c0.033,1.314,0.091,2.655,0.152,3.997c0.132,2.689,0.318,5.405,0.549,8.125c0.448,5.44,1.095,10.901,1.868,16.343
						c1.56,10.888,3.733,21.71,6.5,32.351c5.518,21.286,13.429,41.882,23.883,60.935c5.209,9.536,11.112,18.64,17.591,27.278
						c6.534,8.588,13.635,16.725,21.381,24.189c7.753,7.453,16.031,14.359,24.862,20.518c8.833,6.156,18.147,11.646,27.846,16.445
						c9.698,4.801,19.779,8.909,30.131,12.352c2.589,0.855,5.21,1.635,7.812,2.46c2.62,0.777,5.271,1.474,7.903,2.218l0.987,0.274
						l0.903,0.222l1.809,0.438c1.211,0.263,2.42,0.536,3.639,0.751c2.435,0.459,4.882,0.827,7.342,1.074
						c9.832,1.039,19.812,0.465,29.468-1.688c9.656-2.143,18.971-5.886,27.479-10.977c8.506-5.092,16.212-11.532,22.667-19.03
						c6.464-7.491,11.692-16.011,15.412-25.153c1.867-4.567,3.354-9.295,4.451-14.12c0.295-1.202,0.513-2.423,0.762-3.636
						c0.21-1.227,0.431-2.401,0.632-3.783c0.409-2.67,0.771-5.354,1.09-8.053c1.259-10.797,1.802-21.794,1.807-32.861
						c0.003-8.727,7.081-15.797,15.807-15.793c0.338,0,0.672,0.011,1.005,0.031l0.084,0.007c4.051,0.271,8.358,0.513,12.563,0.735
						l12.716,0.618c8.489,0.381,16.993,0.704,25.502,0.985c17.019,0.561,34.06,0.938,51.105,1.18
						c34.095,0.475,68.216,0.363,102.33-0.249c68.229-1.251,136.433-4.517,204.457-9.869c68.023-5.354,135.875-12.78,203.358-22.576
						c67.48-9.784,134.6-21.935,201.047-36.901c66.441-14.969,132.225-32.739,196.823-53.958
						c64.585-21.226,128.002-45.902,189.34-74.848c61.31-28.958,120.544-62.226,176.183-100.608
						c55.616-38.361,107.612-81.902,153.848-130.869c5.988-6.342,15.984-6.629,22.325-0.641c0.382,0.36,0.743,0.736,1.08,1.124
						l0.322,0.374l0.721,0.832l0.951,1.055c0.651,0.715,1.346,1.438,2.04,2.156c1.402,1.438,2.863,2.86,4.359,4.252
						c3,2.781,6.143,5.441,9.388,7.941c6.494,5.002,13.41,9.36,20.59,12.871c14.361,7.042,29.829,10.424,45.012,9.039
						c15.198-1.31,30.074-7.322,43.63-16.422c6.785-4.542,13.284-9.779,19.425-15.577c1.526-1.465,3.08-2.888,4.558-4.426
						l2.243-2.266c0.754-0.756,1.421-1.499,2.137-2.248c2.792-3.001,5.381-6.098,7.74-9.261c4.739-6.318,8.442-12.969,10.647-19.637
						c2.216-6.679,2.864-13.314,1.893-19.904c-0.962-6.588-3.584-13.199-7.513-19.578c-3.936-6.374-9.087-12.477-14.958-18.156
						c-11.783-11.387-26.143-21.166-41.267-29.721c-7.584-4.274-15.403-8.251-23.37-11.935c-3.983-1.841-8.004-3.609-12.043-5.293
						c-2.02-0.842-4.044-1.663-6.063-2.453l-3.018-1.16l-2.838-1.041l10.349-29.845l1.887,0.678l1.736,0.646l3.404,1.309
						c2.252,0.883,4.478,1.785,6.692,2.707c4.428,1.846,8.806,3.771,13.149,5.779c8.686,4.018,17.235,8.361,25.635,13.095
						c8.396,4.741,16.641,9.874,24.649,15.554c8.002,5.689,15.776,11.924,23.087,19.002c7.295,7.076,14.153,15.034,19.87,24.279
						c2.844,4.627,5.377,9.586,7.43,14.863c2.042,5.281,3.575,10.892,4.432,16.67c0.859,5.779,0.991,11.711,0.446,17.526
						c-0.573,5.811-1.798,11.505-3.59,16.87c-3.573,10.768-9.078,20.269-15.319,28.62c-3.125,4.188-6.438,8.133-9.893,11.849
						c-0.866,0.912-1.738,1.87-2.603,2.74l-2.596,2.625c-1.706,1.767-3.528,3.45-5.314,5.158
						c-7.202,6.791-15.016,13.133-23.479,18.796c-2.08,1.453-4.305,2.75-6.462,4.117c-2.242,1.269-4.43,2.606-6.748,3.774
						c-4.556,2.441-9.328,4.59-14.231,6.476c-9.788,3.814-20.296,6.283-30.972,7.256c-10.686,0.972-21.529,0.255-31.934-1.883
						c-10.416-2.142-20.395-5.683-29.689-10.233c-9.306-4.55-17.976-10.045-26.016-16.234c-4.021-3.098-7.887-6.371-11.614-9.826
						c-1.862-1.732-3.689-3.51-5.489-5.355c-0.899-0.931-1.794-1.863-2.688-2.843l-1.352-1.5l-0.692-0.793l-0.829-0.982
						l23.727,0.857c-47.93,50.763-101.659,95.72-158.885,135.192c-57.252,39.493-117.979,73.578-180.633,103.171
						c-62.683,29.579-127.301,54.712-192.966,76.293c-65.681,21.573-132.427,39.599-199.745,54.765
						c-67.325,15.165-135.235,27.455-203.451,37.346c-68.218,9.902-136.745,17.402-205.417,22.807
						c-68.673,5.404-137.494,8.697-206.362,9.961c-34.435,0.617-68.882,0.731-103.341,0.251c-17.23-0.243-34.462-0.625-51.705-1.193
						c-8.622-0.285-17.246-0.612-25.88-1l-12.964-0.63c-4.353-0.232-8.603-0.469-13.103-0.77l16.896-15.756
						c-0.006,12.109-0.596,24.304-2.021,36.533c-0.36,3.057-0.772,6.115-1.241,9.174c-0.218,1.484-0.518,3.161-0.803,4.789
						c-0.326,1.626-0.629,3.258-1.019,4.872c-1.472,6.474-3.476,12.841-5.991,19.001c-5.016,12.329-12.073,23.821-20.755,33.878
						c-8.673,10.068-18.98,18.684-30.358,25.495c-11.379,6.809-23.848,11.819-36.823,14.702c-12.968,2.895-26.432,3.67-39.65,2.271
						c-3.307-0.336-6.594-0.827-9.854-1.44c-1.634-0.293-3.253-0.651-4.872-1.009c-0.81-0.18-1.61-0.389-2.416-0.584l-1.206-0.299
						l-1.107-0.305c-2.944-0.827-5.899-1.609-8.834-2.479c-2.923-0.921-5.857-1.799-8.77-2.762
						c-11.643-3.872-23.08-8.525-34.155-14.007c-11.076-5.479-21.785-11.786-31.967-18.888
						c-10.183-7.104-19.765-15.083-28.714-23.694c-8.943-8.625-17.133-18.002-24.625-27.859
						c-7.434-9.902-14.162-20.301-20.068-31.105c-11.85-21.604-20.655-44.631-26.768-68.205c-3.065-11.793-5.463-23.732-7.191-35.79
						c-0.858-6.031-1.574-12.085-2.079-18.195c-0.259-3.055-0.47-6.12-0.621-9.22c-0.073-1.552-0.138-3.106-0.18-4.688l-0.049-2.396
						l-0.011-1.24l0.006-1.42l16.037,16.075h-0.001c-50.597,1.44-101.36-2.348-151.243-10.991
						c-49.887-8.66-98.92-21.99-146.366-39.501c-47.454-17.524-93.37-39.074-137.104-64.698
						c-10.927-6.429-21.707-13.129-32.341-20.17c-5.318-3.523-10.591-7.133-15.856-10.91l-3.964-2.889l-2.03-1.52l-0.542-0.414
						c0.296,0.216-0.033-0.021-0.153-0.105l-0.933-0.658c-2.502-1.776-4.938-3.46-7.493-5.313
						c-20.742-14.993-40.512-31.581-58.716-49.959c-9.093-9.192-17.801-18.821-25.976-28.935
						c-8.141-10.142-15.768-20.74-22.777-31.768c-13.925-22.105-25.332-45.998-33.149-71.078
						c-7.842-25.064-12.199-51.168-13.187-77.242c-1.026-26.088,1.306-52.114,6.207-77.431
						c4.902-25.331,12.313-49.981,21.503-73.787c9.214-23.807,20.281-46.746,32.614-68.871
						c6.169-11.064,12.681-21.915,19.481-32.565c3.402-5.325,6.876-10.6,10.422-15.822c3.551-5.22,7.129-10.421,10.96-15.439
						c7.646-10.045,16.063-19.523,25.314-28.23c4.634-4.347,9.49-8.487,14.605-12.362
						C805.438,2073.294,810.77,2069.624,816.663,2066.627z"/>
				</g>
				<g>
					<path fill="#000C7A" d="M3168.912,2087.378c-11.643-131.95-41.759-217.41-64.974-265.868
						c-25.05-52.289-47.622-73.813-47.848-74.024c-3.309-3.046-5.135-7.331-5.068-11.828s2.075-8.726,5.473-11.672
						c36.197-31.396,59.024-73.258,67.846-124.422c3.748-21.74,4.044-40.688,3.567-53.229
						c-99.365,15.021-231.304,18.129-237.187,18.261l-0.707-31.581c1.502-0.034,151.335-3.562,249.561-20.563
						c4.178-0.723,8.471,0.264,11.914,2.74c3.442,2.475,5.745,6.231,6.39,10.421c0.213,1.386,5.137,34.442-2.21,78.149
						c-8.83,52.523-31.779,98.212-66.691,133.112c26.835,32.796,92.472,133.199,111.401,347.728L3168.912,2087.378z"/>
				</g>
				<g>
					<path fill="#000C7A" d="M3117.128,2066.627c14.208,0.621,28.213,2.619,42.126,5.028c13.902,2.471,27.683,5.569,41.327,9.214
						c27.333,7.197,53.946,17.014,80.038,28.428c26.077,11.449,51.673,24.659,75.658,41.607c3.024,2.063,5.951,4.328,8.877,6.587
						c1.489,1.168,2.852,2.127,4.536,3.612c0.802,0.693,1.621,1.367,2.403,2.085l2.304,2.209c0.779,0.725,1.502,1.51,2.227,2.294
						c0.719,0.787,1.462,1.554,2.154,2.367c1.357,1.651,2.757,3.271,3.986,5.027c2.569,3.43,4.788,7.121,6.766,10.93
						c1.999,3.805,3.573,7.814,4.955,11.881c1.318,4.091,2.309,8.281,3.013,12.522c0.615,4.252,0.995,8.546,0.972,12.851
						c-0.059,4.299-0.312,8.613-1.047,12.868c-0.705,4.253-1.671,8.481-3.063,12.584c-0.625,2.074-1.475,4.073-2.254,6.097
						c-0.896,1.975-1.736,3.98-2.78,5.888c-3.949,7.751-9.297,14.778-15.491,20.857l-2.396,2.2l-1.206,1.092l-1.254,1.028
						l-2.523,2.039l-2.246,1.685c-2.967,2.248-6.013,4.39-9.075,6.506c-6.133,4.224-12.48,8.143-18.982,11.788
						c-3.236,1.853-6.556,3.552-9.864,5.272c-3.355,1.627-6.684,3.317-10.106,4.805c-6.787,3.104-13.742,5.836-20.786,8.301
						c-14.118,4.846-28.63,8.556-43.336,10.898c-14.697,2.363-29.554,3.628-44.36,3.56c-14.807-0.017-29.54-1.209-44.074-3.298
						c-29.074-4.297-57.194-12.496-84.035-23.141l11.191-29.54c25.395,8.904,51.308,15.908,77.534,19.394
						c26.191,3.614,52.634,3.574,78.342-0.452c12.861-1.989,25.49-5.178,37.777-9.335c6.13-2.115,12.22-4.368,18.149-7.006
						c2.996-1.248,5.904-2.692,8.847-4.063c2.896-1.466,5.809-2.9,8.647-4.481c5.694-3.12,11.32-6.39,16.74-9.991
						c2.709-1.799,5.408-3.617,8.038-5.535l1.967-1.414l1.566-1.225l0.787-0.607l0.739-0.657l1.491-1.302
						c3.805-3.634,7.129-7.754,9.641-12.381c0.681-1.128,1.191-2.345,1.789-3.521c0.483-1.227,1.068-2.416,1.465-3.68
						c0.932-2.478,1.573-5.063,2.086-7.672c1.984-10.463,0.613-21.646-3.995-31.331c-1.162-2.414-2.454-4.779-4.01-6.979
						c-0.722-1.14-1.595-2.171-2.401-3.255c-0.418-0.53-0.886-1.022-1.321-1.54c-0.44-0.515-0.875-1.036-1.366-1.507l-1.423-1.465
						c-0.484-0.478-1.008-0.92-1.508-1.387c-0.887-0.876-2.335-1.991-3.561-3.012l-3.801-3.127c-1.243-1.066-2.612-2.02-3.912-3.036
						c-10.486-8.058-21.717-15.448-33.34-22.334c-11.64-6.866-23.632-13.328-35.898-19.348l-9.241-4.45l-9.328-4.312l-9.406-4.177
						l-9.446-4.123c-3.168-1.335-6.34-2.668-9.49-4.061l-9.525-4.018l-19.107-8.03l-38.476-16.026
						C3142.963,2077.899,3130.062,2072.477,3117.128,2066.627z"/>
				</g>
			</g>
		</g>
	</g>
</g>
</svg>
