<?xml version="1.0" encoding="utf-8"?>
<!-- Generator: Adobe Illustrator 15.0.0, SVG Export Plug-In . SVG Version: 6.00 Build 0)  -->
<!DOCTYPE svg PUBLIC "-//W3C//DTD SVG 1.1//EN" "http://www.w3.org/Graphics/SVG/1.1/DTD/svg11.dtd">
<svg version="1.1" id="Layer_1" xmlns="http://www.w3.org/2000/svg" xmlns:xlink="http://www.w3.org/1999/xlink" x="0px" y="0px"
	 width="4000px" height="4000px" viewBox="0 0 4000 4000" enable-background="new 0 0 4000 4000" xml:space="preserve">
<g>
	<g>
		<g opacity="0.3">
			<path fill="#000072" d="M3710,3097.414c0,39.646-765.563,71.755-1710,71.755c-944.391,0-1710-32.108-1710-71.755
				c0-12.517,76.175-24.243,210.144-34.48h2999.713C3633.825,3073.171,3710,3084.897,3710,3097.414z"/>
		</g>
		<g>
			<path fill="#F28BED" d="M3322.332,2153.164c0,156.677-27.268,306.979-77.291,446.438
				c-62.494,174.268-160.539,331.642-285.435,463.331H1040.394c-42.578-44.904-82.038-92.787-118.009-143.322
				c-154.117-216.193-244.718-480.734-244.718-766.447c0-365.146,148.022-695.717,387.296-935.037
				C1304.282,978.854,1634.854,830.832,2000,830.832s695.717,148.022,935.037,387.295
				C3174.311,1457.447,3322.332,1788.019,3322.332,2153.164z"/>
		</g>
		<g opacity="0.3">
			<path fill="#000072" d="M3148.112,2453.442c-82.503-69.753-196.323-90.089-289.622-53.56
				c-11.634-89.39-26.664-175.709-54.071-255.467v-587.063c0-63.192-51.372-114.564-114.519-114.564H1266.498
				c-63.146,0-114.519,51.373-114.519,114.518v1001.254c0,26.152,8.795,50.256,23.593,69.521h-153.373
				c-26.523,0-48.069,21.591-48.069,48.068v115.309c0,52.723,25.966,99.441,65.705,128.152h-117.45
				c35.971,50.535,75.431,98.418,118.009,143.322h1919.213c124.896-131.689,222.94-289.063,285.435-463.331
				C3226.893,2542.274,3194.366,2492.576,3148.112,2453.442z M1290.229,2733.805h16.054c9.54,0,17.311,7.771,17.311,17.357
				c0,9.586-7.771,17.356-17.311,17.356h-16.054V2733.805z M1533.179,2831.012c-32.712,0-59.283,26.571-59.283,59.283
				c0,10.656,2.886,20.661,7.864,29.316h-257.188c22.802-16.426,41.229-38.901,52.769-65.658h28.943
				c56.678,0,102.746-46.114,102.746-102.791c0-31.224-13.96-59.19-35.97-78.037h382.176l32.806,157.887H1533.179z
				 M2450.999,2919.611c1.257-1.535,2.467-3.164,3.63-4.84c1.117,1.676,2.327,3.305,3.583,4.84H2450.999z"/>
		</g>
		<g>
			<path fill="#000072" d="M458.356,3057.74c64.236-8.064,128.47-9.996,192.706-10.987c32.116-0.546,64.235-0.653,96.352-0.512
				c32.119-0.04,64.236,0.33,96.353,0.595c64.236,0.474,128.472,0.595,192.705,0.519h192.705H2000h770.823h385.409l96.353-0.03
				l48.177-0.372l48.177-0.646c32.116-0.31,64.235,0.123,96.352,1.55c32.117,1.568,64.236,4.023,96.354,9.884
				c2.868,0.523,4.768,3.273,4.245,6.142c-0.405,2.218-2.153,3.857-4.245,4.244c-32.117,5.862-64.236,8.315-96.354,9.884
				c-32.116,1.429-64.235,1.861-96.352,1.551l-48.177-0.646l-48.177-0.372l-96.353-0.029h-385.409H2000h-770.823h-192.705
				c-64.233-0.076-128.469,0.043-192.705,0.518c-32.116,0.265-64.233,0.636-96.353,0.596c-32.116,0.14-64.235,0.032-96.352-0.514
				c-64.236-0.99-128.47-2.922-192.706-10.987c-2.868-0.36-4.902-2.976-4.541-5.845
				C454.121,3059.858,456.04,3058.031,458.356,3057.74z"/>
		</g>
		<g>
			<path fill="#CBD0D8" d="M1239.344,1457.724H2407.58h127.544c55.017,0,99.61,44.594,99.61,99.61v1001.23
				c0,55.017-44.594,99.61-99.61,99.61H2407.58H1239.344"/>
			<path fill="#000072" d="M2535.124,2660.498H1239.346v-4.648h1295.778c53.643,0,97.282-43.643,97.282-97.285v-1001.23
				c0-53.643-43.64-97.285-97.282-97.285H1239.346v-4.648h1295.778c56.208,0,101.936,45.728,101.936,101.934v1001.23
				C2637.06,2614.771,2591.332,2660.498,2535.124,2660.498z"/>
		</g>
		<g opacity="0.3">
			<path fill="#000072" d="M2636.87,1557.334v1001.222c0,55.017-44.594,99.61-99.61,99.61h-93.373
				c55.016,0,99.567-44.594,99.567-99.61V1557.334c0-55.017-44.552-99.61-99.567-99.61h93.373
				C2592.276,1457.724,2636.87,1502.317,2636.87,1557.334z"/>
		</g>
		<g>
			<polyline fill="#CBD0D8" points="2008.672,2845.938 1969.63,2658.166 1873.523,2658.166 1919.27,2845.938 2008.672,2845.938 			
				"/>
			<path fill="#000072" d="M2011.532,2848.268h-94.092l-46.88-192.432h100.962L2011.532,2848.268z M1921.099,2843.609h84.711
				l-38.071-183.115h-91.255L1921.099,2843.609z"/>
		</g>
		<g opacity="0.3">
			<polyline fill="#000072" points="2008.672,2845.938 1969.63,2658.166 1873.523,2658.166 1919.27,2845.938 2008.672,2845.938 			
				"/>
		</g>
		<g>
			<polygon fill="#CBD0D8" points="1912.563,2845.938 1651.665,2845.938 1629.197,2737.913 1612.624,2658.166 1873.522,2658.166 
				1890.096,2737.913 			"/>
			<path fill="#000072" d="M1915.424,2848.268h-265.651l-40.007-192.432h265.648L1915.424,2848.268z M1653.557,2843.609h256.145
				l-38.071-183.115h-256.147L1653.557,2843.609z"/>
		</g>
		<g>
			<path fill="#CBD0D8" d="M2407.568,2658.174H1111.764c-55.006,0-99.598-44.592-99.598-99.599V1557.322
				c0-55.006,44.592-99.598,99.598-99.598h1295.805c55.006,0,99.598,44.592,99.598,99.598v1001.253
				C2507.166,2613.582,2462.574,2658.174,2407.568,2658.174z"/>
			<path fill="#000072" d="M2407.567,2660.504H1111.765c-56.201,0-101.924-45.729-101.924-101.93V1557.32
				c0-56.201,45.723-101.924,101.924-101.924h1295.803c56.201,0,101.924,45.723,101.924,101.924v1001.254
				C2509.491,2614.775,2463.769,2660.504,2407.567,2660.504z M1111.765,1460.054c-53.636,0-97.271,43.633-97.271,97.266v1001.254
				c0,53.639,43.635,97.271,97.271,97.271h1295.803c53.636,0,97.271-43.633,97.271-97.271V1557.32
				c0-53.633-43.635-97.266-97.271-97.266H1111.765z"/>
		</g>
		<g opacity="0.3">
			<polygon fill="#000072" points="1890.096,2737.913 1629.197,2737.913 1612.624,2658.166 1873.522,2658.166 			"/>
		</g>
		<g opacity="0.3">
			<path fill="#000072" d="M2507.146,2517.038v41.518c0,55.017-44.551,99.61-99.566,99.61H1111.757
				c-55.017,0-99.609-44.594-99.609-99.61v-41.518c0,54.974,44.593,99.567,99.609,99.567H2407.58
				C2462.596,2616.605,2507.146,2572.012,2507.146,2517.038z"/>
		</g>
		<g opacity="0.6">
			<path fill="#FFFFFF" d="M2489.164,1500.267c-14.907-8.927-32.335-14.053-51.001-14.053h-1295.78
				c-55.017,0-99.61,44.594-99.61,99.567v1001.266c0,21.229,6.664,40.92,17.983,57.066c-29.132-17.386-48.608-49.207-48.608-85.558
				V1557.334c0-55.017,44.593-99.61,99.609-99.61H2407.58C2441.366,1457.724,2471.182,1474.553,2489.164,1500.267z"/>
		</g>
		<g>
			<path fill="#000072" d="M2407.567,2673.125H1111.765c-63.162,0-114.546-51.387-114.546-114.551V1557.32
				c0-63.159,51.384-114.546,114.546-114.546h1295.803c63.162,0,114.549,51.387,114.549,114.546v1001.254
				C2522.116,2621.738,2470.729,2673.125,2407.567,2673.125z M1111.765,1472.676c-46.675,0-84.646,37.969-84.646,84.644v1001.254
				c0,46.676,37.972,84.648,84.646,84.648h1295.803c46.675,0,84.646-37.973,84.646-84.648V1557.32
				c0-46.675-37.972-84.644-84.646-84.644H1111.765z"/>
		</g>
		<g>
			<path fill="#000072" d="M2535.124,2673.125H1239.346c-8.258,0-14.952-6.693-14.952-14.951c0-8.256,6.694-14.951,14.952-14.951
				h1295.778c46.683,0,84.66-37.979,84.66-84.658v-1001.23c0-46.68-37.978-84.658-84.66-84.658H1239.346
				c-8.258,0-14.952-6.694-14.952-14.951s6.694-14.951,14.952-14.951h1295.778c63.169,0,114.559,51.392,114.559,114.561v1001.23
				C2649.683,2621.734,2598.293,2673.125,2535.124,2673.125z"/>
		</g>
		<g>
			<path fill="#00B1FF" d="M2415.311,1604.191v801.875c0,27.123-21.955,49.121-49.121,49.121H1153.104
				c-27.123,0-49.121-21.998-49.121-49.121v-801.875c0-27.124,21.998-49.122,49.121-49.122h1213.086
				C2393.355,1555.07,2415.311,1577.067,2415.311,1604.191z"/>
		</g>
		<g opacity="0.6">
			<path fill="#FFFFFF" d="M2452.344,1636.953v801.875c0,27.123-21.997,49.121-49.121,49.121H1190.137
				c-21.741,0-40.193-14.139-46.601-33.701c3.118,0.598,6.321,0.939,9.567,0.939h1213.086c27.166,0,49.121-21.998,49.121-49.121
				v-801.875c0-5.382-0.854-10.551-2.52-15.42C2435.344,1593.213,2452.344,1613.118,2452.344,1636.953z"/>
		</g>
		<g opacity="0.35">
			<polygon fill="#FFFFFF" points="1882.749,2455.188 1640.772,2455.188 1274.798,1607.907 1516.73,1607.907 			"/>
		</g>
		<g opacity="0.35">
			<polygon fill="#FFFFFF" points="2154.754,2455.188 2003.674,2455.188 1637.654,1607.907 1788.735,1607.907 			"/>
		</g>
		<g opacity="0.3">
			<path fill="#000072" d="M2415.311,1604.191v3.715H1220.379c-27.124,0-49.121,21.999-49.121,49.122v798.159h-18.154
				c-27.123,0-49.121-21.998-49.121-49.121v-801.875c0-27.124,21.998-49.122,49.121-49.122h1213.086
				C2393.355,1555.07,2415.311,1577.067,2415.311,1604.191z"/>
		</g>
		<g>
			<path fill="#000072" d="M2366.208,2470.143H1153.124c-35.329,0-64.072-28.746-64.072-64.073V1604.2
				c0-35.327,28.743-64.072,64.072-64.072h1213.084c35.329,0,64.074,28.745,64.074,64.072v801.87
				C2430.282,2441.396,2401.537,2470.143,2366.208,2470.143z M1153.124,1570.03c-18.843,0-34.175,15.327-34.175,34.17v801.87
				c0,18.843,15.332,34.171,34.175,34.171h1213.084c18.843,0,34.172-15.328,34.172-34.171V1604.2
				c0-18.843-15.329-34.17-34.172-34.17H1153.124z"/>
		</g>
		<g>
			<circle fill="#000072" cx="1698.224" cy="2558.684" r="46.985"/>
		</g>
		<g opacity="0.6">
			<path fill="#FFFFFF" d="M1754.82,2564.749c0,25.929-21.016,46.986-46.986,46.986c-11.233,0-21.57-3.93-29.644-10.551
				c6.066,2.862,12.857,4.485,20.033,4.485c25.971,0,46.985-21.016,46.985-46.986c0-14.735-6.749-27.85-17.342-36.435
				C1743.8,2529.767,1754.82,2545.955,1754.82,2564.749z"/>
		</g>
		<g opacity="0.3">
			<path fill="#000072" d="M1651.238,2558.684c0,14.14,6.235,26.825,16.103,35.411c-17-7.091-28.917-23.878-28.917-43.397
				c0-25.971,21.016-46.986,46.985-46.986c11.832,0,22.639,4.356,30.882,11.575c-5.553-2.306-11.66-3.588-18.067-3.588
				C1672.253,2511.698,1651.238,2532.714,1651.238,2558.684z"/>
		</g>
		<g>
			<path fill="#000072" d="M1912.548,2860.889c-6.936,0-13.154-4.849-14.621-11.908l-36.565-175.865h-230.358l35.298,169.781
				c1.682,8.08-3.509,15.996-11.592,17.68c-8.096,1.637-16.001-3.51-17.681-11.596l-39.041-187.773
				c-0.915-4.404,0.2-8.984,3.04-12.477c2.839-3.49,7.097-5.518,11.597-5.518h260.898c7.082,0,13.195,4.971,14.636,11.91
				l39.041,187.773c1.682,8.08-3.509,15.996-11.595,17.68C1914.579,2860.787,1913.557,2860.889,1912.548,2860.889z"/>
		</g>
		<g>
			<path fill="#000072" d="M2008.656,2860.889c-6.936,0-13.154-4.849-14.621-11.908l-39.041-187.773
				c-1.682-8.082,3.509-15.996,11.595-17.682c8.068-1.68,15.996,3.512,17.678,11.598l39.041,187.773
				c1.682,8.08-3.509,15.996-11.595,17.68C2010.688,2860.787,2009.665,2860.889,2008.656,2860.889z"/>
		</g>
		<g>
			<path fill="#CBD0D8" d="M2286.218,2890.232v0.043c0,24.432-19.863,44.295-44.296,44.295h-863.519
				c-24.476,0-44.295-19.863-44.295-44.295v-0.043c0-24.434,19.819-44.295,44.295-44.295h863.519
				C2266.354,2845.938,2286.218,2865.799,2286.218,2890.232z"/>
			<path fill="#000072" d="M2241.923,2936.9h-863.521c-25.708,0-46.621-20.918-46.621-46.627c0-25.746,20.913-46.664,46.621-46.664
				h863.521c25.708,0,46.621,20.918,46.621,46.625v0.039C2288.544,2915.982,2267.631,2936.9,2241.923,2936.9z M1378.402,2848.262
				c-23.142,0-41.968,18.828-41.968,41.973c0,23.184,18.826,42.012,41.968,42.012h863.521c23.143,0,41.968-18.828,41.968-41.973
				v-0.039c0-23.145-18.825-41.973-41.968-41.973H1378.402z"/>
		</g>
		<g opacity="0.6">
			<path fill="#FFFFFF" d="M2286.229,2890.232v0.043c0,4.955-0.812,9.695-2.307,14.138c-5.895-17.556-22.468-30.198-41.988-30.198
				h-863.512c-19.521,0-36.094,12.643-41.945,30.198c-1.538-4.442-2.35-9.183-2.35-14.138v-0.043
				c0-24.434,19.819-44.295,44.295-44.295h863.512C2266.366,2845.938,2286.229,2865.799,2286.229,2890.232z"/>
		</g>
		<g>
			<path fill="#000072" d="M2241.923,2949.521h-863.521c-32.668,0-59.245-26.577-59.245-59.248
				c0-32.709,26.577-59.287,59.245-59.287h863.521c32.669,0,59.246,26.578,59.246,59.248v0.039
				C2301.169,2922.944,2274.592,2949.521,2241.923,2949.521z M1378.402,2860.889c-16.181,0-29.343,13.164-29.343,29.346
				c0,16.221,13.162,29.385,29.343,29.385h863.521c16.182,0,29.344-13.164,29.344-29.346v-0.039
				c0-16.182-13.162-29.346-29.344-29.346H1378.402z"/>
		</g>
		<g>
			<path fill="#000072" d="M2061.767,2949.521c-8.257,0-14.951-6.693-14.951-14.951c0-8.256,6.694-14.951,14.951-14.951
				c16.182,0,29.344-13.164,29.344-29.346c0-16.221-13.162-29.385-29.344-29.385c-8.257,0-14.951-6.694-14.951-14.951
				c0-8.256,6.694-14.951,14.951-14.951c32.669,0,59.246,26.578,59.246,59.248
				C2121.013,2922.944,2094.436,2949.521,2061.767,2949.521z"/>
		</g>
		<g>
			<polygon fill="#000072" points="2419.767,2906.094 2408.414,2923.18 2432.731,2924.247 			"/>
		</g>
		<g>
			<path fill="#DB9821" d="M2778.853,2934.57h513.83c35.445,0,64.179,28.733,64.179,64.179v0.001
				c0,35.444-28.733,64.179-64.179,64.179h-505.288"/>
			<path fill="#000072" d="M3292.683,3065.254h-505.288v-4.652h505.288c34.106,0,61.853-27.744,61.853-61.852
				c0-34.105-27.746-61.85-61.853-61.85h-513.831v-4.654h513.831c36.672,0,66.506,29.834,66.506,66.504
				S3329.354,3065.254,3292.683,3065.254z"/>
		</g>
		<g opacity="0.3">
			<path fill="#000072" d="M3355.11,3013.72c-2.819,11.703-8.799,22.169-17.043,30.412c-11.618,11.618-27.679,18.795-45.405,18.795
				h-505.268l-6.535-98.457h511.803C3322.989,2964.47,3348.361,2985.484,3355.11,3013.72z"/>
		</g>
		<g>
			<path fill="#DB9821" d="M2817.187,3062.929H707.317c-35.445,0-64.18-28.734-64.18-64.179v-0.001
				c0-35.445,28.734-64.179,64.18-64.179h2109.869c35.445,0,64.18,28.733,64.18,64.179v0.001
				C2881.366,3034.194,2852.632,3062.929,2817.187,3062.929z"/>
			<path fill="#000072" d="M2817.187,3065.26H707.318c-36.672,0-66.506-29.84-66.506-66.51s29.834-66.508,66.506-66.508h2109.868
				c36.673,0,66.507,29.838,66.507,66.508S2853.859,3065.26,2817.187,3065.26z M707.318,2936.895
				c-34.106,0-61.853,27.75-61.853,61.855c0,34.107,27.746,61.855,61.853,61.855h2109.868c34.106,0,61.854-27.748,61.854-61.855
				c0-34.105-27.747-61.855-61.854-61.855H707.318z"/>
		</g>
		<g opacity="0.6">
			<path fill="#FFFFFF" d="M2881.366,3000.639c0,0.939,0,1.836-0.085,2.732c-9.739-23.021-32.549-39.168-59.117-39.168H712.293
				c-17.727,0-33.787,7.176-45.363,18.793c-11.02,11.021-18.025,26.014-18.709,42.673c-3.289-7.688-5.083-16.146-5.083-25.03
				c0-17.727,7.177-33.787,18.795-45.406c11.618-11.618,27.679-18.794,45.406-18.794h2109.828
				C2852.62,2936.438,2881.366,2965.186,2881.366,3000.639z"/>
		</g>
		<g>
			<path fill="#000072" d="M2817.187,3077.881H707.318c-43.633,0-79.131-35.498-79.131-79.131s35.498-79.131,79.131-79.131h2109.868
				c43.633,0,79.131,35.498,79.131,79.131S2860.819,3077.881,2817.187,3077.881z M707.318,2949.521
				c-27.146,0-49.229,22.086-49.229,49.229c0,27.145,22.083,49.229,49.229,49.229h2109.868c27.146,0,49.229-22.084,49.229-49.229
				c0-27.143-22.082-49.229-49.229-49.229H707.318z"/>
		</g>
		<g>
			<path fill="#000072" d="M3292.683,3077.881h-505.288c-8.257,0-14.951-6.693-14.951-14.951c0-8.256,6.694-14.951,14.951-14.951
				h505.288c27.146,0,49.229-22.084,49.229-49.229c0-27.143-22.083-49.229-49.229-49.229h-513.831
				c-8.256,0-14.951-6.693-14.951-14.951c0-8.256,6.695-14.951,14.951-14.951h513.831c43.633,0,79.131,35.498,79.131,79.131
				S3336.315,3077.881,3292.683,3077.881z"/>
		</g>
		<g>
			<path fill="#FF9D00" d="M3124.353,2989.293c-11.755,13.809-26.128,25.127-38.422,38.396c-1.078,1.18-2.156,2.36-3.183,3.567
				c-10.908,12.576-19.737,27.487-20.943,43.966c-1.232,16.734,5.544,33.853,1.258,50.1c-5.621,21.148-30.491,33.802-51.819,28.977
				c-21.329-4.852-37.575-24.28-42.144-45.659c-4.543-21.406,1.283-44.069,12.371-62.933c11.062-18.865,27.025-34.367,43.837-48.406
				c0.616-0.514,1.231-1.053,1.873-1.565c13.501-11.165,27.643-21.79,39.372-34.7c0,0,0.025,0,0.025-0.025
				c1.591-1.746,3.106-3.517,4.595-5.34c12.936-15.912,23.612-35.188,24.306-55.694c1.822-54.026-48.586-64.652-66.706-58.261
				l10.626-74.944c46.48,6.391,88.419,38.78,106.719,81.925c0,0,0,0,0,0.025c0.59,1.387,1.129,2.772,1.668,4.158
				C3165.059,2898.103,3155.716,2952.437,3124.353,2989.293z"/>
			<path fill="#000072" d="M3020.658,3157.666c-3.313,0-6.641-0.356-9.929-1.098c-21.229-4.83-38.872-23.893-43.906-47.441
				c-4.331-20.42,0.158-43.359,12.642-64.596c12.194-20.805,30.107-37.123,44.351-49.018l1.907-1.592
				c2.68-2.217,5.409-4.43,8.139-6.646c10.669-8.656,21.702-17.607,30.97-27.803l0.664-0.732c1.333-1.488,2.614-2.998,3.877-4.546
				c15.192-18.687,23.193-36.958,23.781-54.296c0.867-25.733-10.583-39.664-20.344-46.822c-15.513-11.371-34.629-12.207-43.262-9.17
				l-3.615,1.279l11.488-81.039l2.295,0.316c47.222,6.494,89.827,39.199,108.543,83.326l0.186,0.463
				c0.503,1.201,0.972,2.402,1.438,3.604c17.539,45.914,7.962,101.67-23.757,138.945l0,0c-6.655,7.818-14.214,14.918-21.525,21.783
				c-5.701,5.355-11.595,10.893-16.964,16.689c-1.047,1.142-2.106,2.305-3.115,3.49c-12.524,14.443-19.382,28.779-20.397,42.627
				c-0.501,6.813,0.397,13.912,1.267,20.777c1.238,9.785,2.52,19.901-0.08,29.75
				C3060.378,3144.478,3040.856,3157.666,3020.658,3157.666z M3067.587,2963.35c-9.353,10.146-20.249,18.984-30.793,27.539
				c-2.72,2.207-5.438,4.41-8.13,6.637l-1.87,1.566c-13.95,11.646-31.484,27.607-43.315,47.793
				c-11.895,20.234-16.194,41.992-12.104,61.27c4.663,21.813,20.892,39.443,40.383,43.873c21.016,4.756,43.926-8.008,49.056-27.301
				c2.365-8.97,1.198-18.203-0.039-27.973c-0.896-7.096-1.826-14.43-1.289-21.705c1.086-14.867,8.323-30.117,21.506-45.316
				c1.028-1.211,2.127-2.413,3.223-3.613c5.486-5.924,11.443-11.514,17.2-16.925c7.219-6.782,14.68-13.788,21.167-21.411
				c30.651-36.016,39.907-89.893,23.032-134.072c-0.574-1.469-1.079-2.773-1.636-4.076l-0.186-0.465
				c-17.879-41.709-57.858-72.783-102.417-79.76l-9.8,69.121c11.633-2.438,29.66,0.293,43.986,10.791
				c10.664,7.822,23.179,22.968,22.241,50.732c-0.619,18.379-8.972,37.582-24.821,57.084c-1.331,1.621-2.676,3.209-4.075,4.766
				v1.432L3067.587,2963.35z"/>
		</g>
		<g>
			<path fill="#FFFFFF" d="M3063.063,3125.322c-5.621,21.148-30.491,33.802-51.819,28.977c-21.329-4.852-37.575-24.28-42.144-45.659
				c-4.543-21.406,1.283-44.069,12.371-62.933c11.062-18.865,27.025-34.367,43.837-48.406c0.616-0.514,1.231-1.053,1.873-1.565
				c22.048,3.105,41.604,16.221,55.567,35.521c-10.908,12.576-19.737,27.487-20.943,43.966
				C3060.572,3091.957,3067.349,3109.075,3063.063,3125.322z"/>
		</g>
		<g opacity="0.3">
			<path fill="#000072" d="M3066.578,2961.01c1.591-1.746,3.106-3.517,4.595-5.34c12.936-15.912,23.612-35.188,24.306-55.694
				c1.822-54.026-48.586-64.652-66.706-58.261l10.626-74.944c46.48,6.391,88.419,38.78,106.719,81.925c0,0,0,0,0,0.025
				C3146.168,2850.313,3147.785,2916.068,3066.578,2961.01z"/>
		</g>
		<g>
			<path fill="#000072" d="M3020.912,3168.189c-4.152,0-8.345-0.449-12.505-1.393c-25.142-5.703-45.972-28.008-51.831-55.498
				c-4.896-22.959,0.015-48.559,13.833-72.09c13.03-22.188,31.787-39.307,46.673-51.738c3.348-2.797,6.743-5.551,10.137-8.306
				c12.607-10.229,24.514-19.892,34.014-31.577c13.728-16.889,20.942-33.051,21.447-48.041c0.574-16.988-4.829-29.775-16.057-38.014
				c-12.739-9.34-28.154-9.639-33.587-7.744c-6.672,2.369-13.989-1.152-16.343-7.826c-2.351-6.676,1.155-13.994,7.832-16.344
				c14.08-4.971,38.265-2.686,57.256,11.256c12.698,9.311,27.603,27.201,26.514,59.531c-0.697,20.707-9.841,42.021-27.175,63.344
				c-11.177,13.75-24.688,24.713-37.752,35.313c-3.301,2.682-6.602,5.361-9.855,8.076c-13.296,11.104-29.971,26.26-41.004,45.049
				c-10.566,17.994-14.426,37.086-10.869,53.77c3.758,17.623,17.095,32.363,32.435,35.846c15.476,3.51,32.922-5.914,36.592-19.766
				c1.853-6.998,0.809-15.254-0.298-23.994c-0.962-7.594-1.956-15.445-1.353-23.756c1.338-18.422,10.591-37.025,27.505-55.297
				c5.734-6.191,11.831-11.92,17.727-17.457c7.322-6.875,14.241-13.373,20.332-20.537c28.24-33.188,36.771-82.836,21.23-123.545
				c-15.539-40.713-54.985-72.051-98.156-77.979c-7.012-0.961-11.914-7.426-10.952-14.438s7.429-11.91,14.438-10.953
				c52.983,7.275,99.543,44.264,118.615,94.229c19.07,49.961,9.002,108.564-25.654,149.297
				c-7.021,8.252-14.792,15.553-22.307,22.607c-5.833,5.479-11.341,10.654-16.468,16.188c-12.863,13.896-19.844,27.266-20.749,39.74
				c-0.418,5.768,0.376,12.037,1.216,18.677c1.304,10.294,2.78,21.954-0.352,33.78
				C3069.24,3151.998,3045.806,3168.189,3020.912,3168.189z"/>
		</g>
		<g>
			<path fill="#FF9D00" d="M3091.705,2766.59c-3.413,30.234-9.958,62.138-20.019,95.605
				c-12.782,42.529-54.746,71.839-102.356,71.839h-416.325l137.261-514.189C2864.383,2333.89,3125.225,2471.895,3091.705,2766.59z"
				/>
			<path fill="#000072" d="M2969.33,2936.363h-419.355l138.315-518.141l0.945-0.463c84.653-41.797,193.14-30.986,276.389,27.539
				c97.078,68.241,143.875,185.443,128.394,321.557v-0.004c-3.493,30.961-10.259,63.262-20.103,96.016
				C3060.91,2906.139,3017.902,2936.363,2969.33,2936.363z M2556.034,2931.709h413.296c46.536,0,87.71-28.861,100.127-70.18
				c9.767-32.486,16.473-64.518,19.937-95.195v-0.006c15.283-134.365-30.806-249.99-126.445-317.227
				c-81.567-57.344-187.7-68.139-270.708-27.637L2556.034,2931.709z"/>
		</g>
		<g opacity="0.6">
			<path fill="#FFFFFF" d="M3071.687,2862.195c-3.209,10.678-8.239,20.508-14.732,29.26c0.59-1.592,1.129-3.234,1.616-4.877
				c106.591-354.934-181.765-532.489-373.874-445.893l5.569-20.841C2882.246,2325.061,3179.688,2502.592,3071.687,2862.195z"/>
		</g>
		<g>
			<path fill="#FFFFFF" d="M2818.749,2826.187l31.608,2.089c0,0,41.534,34.775-11.399,108.137l-63.144-5.041
				C2728.276,2891.455,2762.998,2830.043,2818.749,2826.187z"/>
		</g>
		<g>
			<path fill="#FFFFFF" d="M2838.958,2824.675c-82.811-23.248-111.476,68.849-67.69,111.737H2573.64
				c84.27-14.971,71.968-124.798,18.488-140.137l58.363-45.241c101-81.593,184.085-20.138,188.017,71.606L2838.958,2824.675z"/>
		</g>
		<g>
			<path fill="#000072" d="M2969.335,2946.842h-416.32c-7.078,0-12.815-5.738-12.815-12.813c0-7.076,5.737-12.813,12.815-12.813
				h416.32c41.946,0,78.989-25.787,90.078-62.711c48.042-159.955,17.928-300.463-82.624-385.498
				c-80.535-68.109-193.403-84.854-280.856-41.68c-6.349,3.141-14.036,0.527-17.164-5.814c-3.135-6.349-0.529-14.033,5.815-17.164
				c96.473-47.622,220.547-29.502,308.755,45.088c108.704,91.93,141.733,242.262,90.62,412.441
				C3069.641,2913.551,3022.504,2946.842,2969.335,2946.842z"/>
		</g>
		<g opacity="0.6">
			<path fill="#FFFFFF" d="M2990.864,2609.182l-2.182,1.848c-15.143,12.961-34.752,18.736-54.694,18.043
				c-42.682-1.463-91.396,68.451-72.506,201.426l-22.432-5.313c-31.62-164.877,34.726-227.399,109.567-224.346
				c21.97,4.287,40.654,8.034,42.144,8.316C2990.839,2609.182,2990.864,2609.182,2990.864,2609.182z"/>
		</g>
		<g>
			<path fill="#000072" d="M2839.299,2839.121c-5.838,0-11.15-4.076-12.542-10c-0.153-0.648-0.269-1.303-0.368-1.953
				c-21.648-112.855,3.452-171.068,28.335-199.955c23.088-26.813,56.574-40.777,94.416-39.176
				c14.983,0.605,30.273,3.594,45.452,8.883c0.178,0.053,0.354,0.111,0.527,0.176c1.452,0.507,2.902,1.045,4.354,1.582
				c6.635,2.455,10.023,9.828,7.565,16.465c-2.459,6.635-9.829,10.014-16.468,7.568c-1.191-0.439-2.383-0.885-3.576-1.309
				c-0.018-0.006-0.037-0.01-0.057-0.016c-13.335-4.672-26.262-7.23-38.84-7.744c-21.089-0.771-51.048,3.701-73.955,30.293
				c-21.196,24.604-42.305,75.605-22.508,178.838c0.013,0.068,0.107,0.654,0.12,0.723c1.621,6.891-2.674,13.668-9.563,15.289
				C2841.223,2839.01,2840.253,2839.121,2839.299,2839.121z"/>
		</g>
		<g>
			<path fill="#000072" d="M2811.063,2946.842h-11.235c-20.046,0-38.42-9.443-50.415-25.908
				c-12.146-16.676-15.498-37.451-9.199-57.008c10.662-33.09,45.928-63.129,112.938-48.154c16.511,3.688,32.712,5.557,48.156,5.557
				c7.078,0,12.815,5.738,12.815,12.813c0,7.076-5.737,12.813-12.815,12.813c-17.319,0-35.4-2.074-53.742-6.172
				c-42.61-9.496-73.633,2.07-82.957,31.006c-3.759,11.666-1.748,24.082,5.521,34.059c7.116,9.766,17.939,15.371,29.699,15.371
				h11.235c7.078,0,12.815,5.736,12.815,12.813C2823.879,2941.104,2818.142,2946.842,2811.063,2946.842z"/>
		</g>
		<g>
			<path fill="#FF9D00" d="M2722.288,2582.126c0,72.583-28.412,131.589-76.689,176.351c-5.877,5.492-12.063,10.703-18.505,15.759
				c0,0,0,0.025-0.025,0.025c-24.563,19.198-53.181,35.316-84.979,48.354c-52.796,21.611-114.42,34.675-180.894,38.91h-0.026
				c-15.887,1.026-32.056,1.514-48.432,1.514c-100.353,0-192.288-19.019-263.511-56.285c-18.377-9.625-35.367-20.456-50.793-32.493
				c-0.025,0-0.025-0.025-0.025-0.025c-7.521-5.853-14.655-12.012-21.38-18.454c-19.506-18.633-35.624-39.653-47.79-63.035
				c-16.837-32.416-26.076-69.323-26.076-110.62c0-37.267,7.776-73.789,21.995-108.36c2.927-25.384,5.929-50.537,9.163-75.381
				c11.729-89.42,26.897-175.145,54.54-254.144c14.527-41.425,64.37-57.825,100.328-32.724
				c51.588,36.086,101.534,86.879,130.229,129.253l-3.388,2.694c16.99-3.875,34.392-6.826,52.102-8.803
				c16.657-1.822,33.545-2.772,50.716-2.772c30.876,0,60.802,3.08,89.522,8.881c28.694-42.374,78.64-93.167,130.229-129.253
				c35.957-25.102,85.826-8.701,100.327,32.724c11.371,32.493,20.661,66.141,28.413,100.738
				c16.554,73.532,26.384,151.249,35.572,231.121l-0.616-0.487c3.646,9.599,6.854,19.326,9.522,29.207
				C2718.695,2529.922,2722.288,2555.818,2722.288,2582.126z"/>
			<path fill="#000072" d="M2312.738,2865.361c-102.392,0-193.887-19.551-264.592-56.547c-18.34-9.605-35.33-20.445-50.511-32.223
				h-1.528l-0.015-1.211c-7.219-5.664-14.17-11.689-20.674-17.92c-19.963-19.066-36.195-40.479-48.244-63.643
				c-17.479-33.643-26.338-71.225-26.338-111.693c0-36.621,7.417-73.277,22.046-108.945c3.408-29.561,6.309-53.428,9.131-75.098
				c10.212-77.852,24.689-168.98,54.648-254.605c7.212-20.562,23.203-36.176,43.874-42.842c20.483-6.605,42.347-3.334,59.985,8.975
				c49.505,34.629,100.854,85.602,130.82,129.859l0.262,0.385c15.2-3.252,30.737-5.771,46.271-7.504
				c46.582-5.088,94.189-3.135,139.438,5.84c30.083-43.961,80.923-94.283,129.952-128.574c17.646-12.325,39.516-15.586,60.014-8.975
				c20.669,6.674,36.648,22.285,43.841,42.836c10.962,31.318,20.28,64.355,28.488,100.996
				c16.982,75.436,26.905,155.659,35.613,231.363l0.158,1.371c3.387,9.131,6.304,18.203,8.682,27.008
				c7.002,25.541,10.552,51.758,10.552,77.91c0,70.512-26.052,130.42-77.434,178.057c-5.364,5.014-11.185,9.99-17.759,15.18v1.197
				l-1.541,0.02c-24.162,18.783-52.725,34.994-84.906,48.193c-52.825,21.615-113.932,34.766-181.629,39.076
				C2345.707,2864.854,2329.362,2865.361,2312.738,2865.361z M2000.734,2773.105c14.902,11.539,31.574,22.164,49.57,31.588
				c70.042,36.645,160.791,56.02,262.434,56.02c16.526,0,32.769-0.508,48.281-1.514c67.222-4.277,127.835-17.309,180.188-38.734
				c31.68-12.994,59.785-28.922,83.56-47.359v-0.004l0.891-0.699c6.836-5.361,12.837-10.473,18.35-15.625
				c50.4-46.729,75.952-105.488,75.952-174.652c0-25.738-3.496-51.539-10.388-76.689c-2.552-9.439-5.73-19.195-9.453-29
				l-3.001-7.904l2.837,2.25c-8.542-73.926-18.371-151.924-34.888-225.287c-8.169-36.465-17.438-69.332-28.34-100.484
				c-6.706-19.16-21.606-33.721-40.878-39.941c-19.09-6.166-39.476-3.115-55.918,8.359
				c-49.078,34.326-99.962,84.824-129.637,128.648l-0.869,1.283l-1.519-0.307c-45.234-9.141-92.905-11.188-139.521-6.075
				c-17.439,1.938-34.881,4.888-51.839,8.761l-9.958,2.27l9.688-7.709c-29.834-43.408-80.008-93.009-128.421-126.875
				c-16.431-11.475-36.801-14.518-55.891-8.359c-19.275,6.215-34.185,20.775-40.91,39.951
				c-29.82,85.219-44.246,176.054-54.427,253.672c-2.827,21.719-5.737,45.658-9.158,75.346l-0.161,0.615
				c-14.478,35.205-21.818,71.363-21.818,107.477c0,39.717,8.684,76.572,25.813,109.545c11.812,22.711,27.737,43.711,47.332,62.428
				c6.657,6.381,13.791,12.533,21.201,18.301L2000.734,2773.105z"/>
		</g>
		<g>
			<path fill="#FFFFFF" d="M2561.08,2811.271c0,0-7.211,4.286-18.991,11.344c-52.796,21.611-114.42,34.675-180.894,38.91h-0.026
				c-15.887,1.026-32.056,1.514-48.432,1.514c-100.353,0-192.288-19.019-263.511-56.285
				c-16.939-51.691,28.412-88.471,101.944-112.006c27.771-8.881,49.51-31.056,56.491-59.365
				c28.848-116.908,167.752-116.908,196.601,0c6.98,28.31,28.72,50.484,56.49,59.365
				C2536.416,2718.951,2582.255,2757.193,2561.08,2811.271z"/>
		</g>
		<g opacity="0.3">
			<path fill="#000072" d="M2694.106,2576.499c0,41.301-9.229,78.213-26.08,110.623c-12.154,23.38-28.274,44.396-47.772,63.021
				c-6.724,6.442-13.87,12.604-21.382,18.456c0,0,0,0.028-0.027,0.028c-75.118,58.688-188.049,88.791-314.314,88.791
				c-16.374,0-32.552-0.507-48.419-1.52h-0.028c-59.644-3.798-115.35-14.686-164.331-32.551
				c-27.262-12.098-51.991-26.615-73.599-43.468c-0.028,0-0.028-0.028-0.028-0.028c-6.442-5.035-12.632-10.269-18.512-15.754
				c-4.643-4.305-9.115-8.75-13.393-13.336c61.192,34.436,138.955,54.664,224.848,60.122h0.029
				c15.866,1.013,32.044,1.52,48.418,1.52c126.266,0,239.196-30.104,314.313-88.791c0.028,0,0.028-0.028,0.028-0.028
				c7.512-5.852,14.658-12.014,21.383-18.456c19.496-18.625,35.617-39.641,47.771-63.021c16.852-32.41,26.08-69.322,26.08-110.623
				c0-37.277-7.765-73.796-22.001-108.372c-2.926-25.377-5.908-50.529-9.144-75.371c-11.142-84.937-25.377-166.526-50.501-242.207
				c5.486-0.506,11.001-0.337,16.374,0.507c10.916,7.652,22.334,15.99,27.563,29.729c27.824,73.111,43.13,168.017,54.861,257.427
				c3.235,24.842,6.452,49.647,9.378,75.024C2689.858,2502.797,2694.106,2539.222,2694.106,2576.499z"/>
		</g>
		<g opacity="0.6">
			<path fill="#FFFFFF" d="M2088.527,2111.528c4.389,3.066,8.75,6.245,13.11,9.509c-34.745-16.684-77.65,0.254-90.929,38.207
				c-35.562,101.648-50.501,214.438-63.978,331.841l0.619-0.479c-12.997,34.015-20.004,69.886-20.004,106.516
				c0,72.587,28.416,131.583,76.694,176.345c5.88,5.486,12.069,10.719,18.512,15.755c0,0,0,0.028,0.028,0.028
				c2.616,2.054,5.289,4.08,8.019,6.049c-10.747-6.555-20.96-13.561-30.525-21.044c-0.028,0-0.028-0.028-0.028-0.028
				c-6.442-5.036-12.633-10.27-18.513-15.755c-48.278-44.762-76.693-103.759-76.693-176.345c0-36.631,7.006-72.502,20.003-106.516
				l-0.618,0.479c13.476-117.404,28.415-230.193,63.977-331.842C2002.719,2102.807,2052.572,2086.404,2088.527,2111.528z"/>
		</g>
		<g opacity="0.6">
			<path fill="#FFFFFF" d="M2618.419,2119.49c-19.722-7.99-43.102-6.499-62.458,7.033c-45.688,31.937-90.073,75.432-119.564,114.392
				c-6.73,8.891-17.887,13.098-28.885,11.258c-0.061-0.011-0.122-0.021-0.183-0.03h-0.027c-1.689-3.123-3.546-6.471-5.347-9.707
				c1.548,0.338,3.123,0.676,4.671,1.041l-3.404-2.7c28.696-42.37,78.635-93.181,130.232-129.248
				C2560.997,2092.284,2596.699,2097.404,2618.419,2119.49z"/>
		</g>
		<g>
			<path fill="#FF78CF" d="M2005.571,2350.978v-0.028c1.604-59.025,12.688-115.856,20.566-149.532
				c3.122-13.364,20.256-17.274,28.837-6.584c16.149,20.06,38.572,50.136,55.902,81.87"/>
			<path fill="#000072" d="M2007.897,2351.012l-4.653-0.064c1.572-57.881,12.085-113.545,20.627-150.063
				c1.65-7.061,7.068-12.447,14.139-14.053c7.065-1.611,14.256,0.908,18.779,6.547c15.933,19.785,38.604,50.113,56.13,82.213
				l-4.082,2.227c-17.362-31.793-39.86-61.885-55.674-81.523c-3.457-4.313-8.74-6.152-14.121-4.928
				c-5.402,1.227-9.38,5.182-10.64,10.576C2019.909,2238.252,2009.457,2293.584,2007.897,2351.012z"/>
		</g>
		<g>
			<path fill="#FF78CF" d="M2511.284,2276.703c17.331-31.734,39.754-61.811,55.902-81.87c8.581-10.69,25.715-6.78,28.838,6.584
				c7.877,33.676,18.962,90.507,20.565,149.532v0.028"/>
			<path fill="#000072" d="M2616.591,2350.977h-2.326c-1.561-57.367-12.012-112.709-20.506-149.027
				c-1.26-5.4-5.236-9.355-10.64-10.582c-5.376-1.225-10.661,0.615-14.118,4.922c-15.815,19.645-38.313,49.736-55.677,81.529
				l-4.082-2.227c17.527-32.1,40.198-62.428,56.133-82.217c4.524-5.635,11.712-8.154,18.777-6.543
				c7.07,1.605,12.487,6.992,14.138,14.057c8.543,36.529,19.056,92.203,20.628,149.996L2616.591,2350.977z"/>
		</g>
		<g opacity="0.6">
			<path fill="#FFFFFF" d="M2129.239,2293.316l-74.117,49.516c-13.064,8.729-29.357,11.13-44.384,6.541l0,0l103.502-72.67
				c-17.331-31.734-39.754-61.811-55.902-81.87c-0.057-0.084-0.112-0.141-0.197-0.196c6.246-7.568,18.625-8.385,25.518,0.196
				c13.393,16.635,34.613,44.491,51.353,71.616C2140.611,2275.525,2138.107,2287.392,2129.239,2293.316z"/>
		</g>
		<g opacity="0.3">
			<path fill="#000072" d="M2058.889,2202.683c-0.563,1.126-1.013,2.335-1.322,3.657c-6.527,27.938-15.277,71.854-18.991,119.711
				l-35.336,24.927v-0.028c1.604-59.025,12.688-115.856,20.566-149.532c3.123-13.364,20.256-17.274,28.837-6.584
				C2054.64,2197.309,2056.722,2199.926,2058.889,2202.683z"/>
		</g>
		<g opacity="0.3">
			<path fill="#000072" d="M2596.671,2214.611c-0.984,0.76-1.912,1.688-2.757,2.729c-15.896,19.75-37.896,49.234-55.086,80.435
				l-29.879-21.072c17.331-31.734,39.754-61.811,55.902-81.87c8.581-10.69,25.715-6.78,28.838,6.584
				C2594.646,2205.496,2595.631,2209.885,2596.671,2214.611z"/>
		</g>
		<g>
			<path fill="#000072" d="M2259.615,2612.19c0.027,11.311,15.638,20.441,34.865,20.395c19.229-0.047,34.794-9.254,34.767-20.564
				s-15.618-12.25-34.847-12.203C2275.173,2599.864,2259.587,2600.879,2259.615,2612.19z"/>
		</g>
		<g>
			<path fill="#000072" d="M2219.748,2623.746c2.698,8.105,6.236,15.575,11.612,20.371c5.166,4.953,11.776,7.007,18.566,6.563
				c6.746-0.509,13.652-2.9,19.318-7.125c1.429-1.021,2.693-2.258,4.078-3.328c1.237-1.232,2.36-2.571,3.576-3.813l3.318-4.619
				c3.035-4.494,8.488-7.19,13.64-7.132c5.148-0.075,10.615,2.587,13.672,7.066l3.335,4.608c1.223,1.236,2.354,2.568,3.599,3.797
				c1.392,1.056,2.651,2.303,4.087,3.314c5.693,4.188,12.61,6.565,19.365,7.037c6.797,0.408,13.405-1.679,18.547-6.662
				c5.353-4.83,8.851-12.319,11.499-20.439l0.045-0.139c0.488-1.493,2.092-2.309,3.584-1.821c1.166,0.381,1.921,1.451,1.96,2.61
				c0.298,9.197-1.535,19.169-7.559,27.875c-2.947,4.363-7.239,7.874-11.938,10.705c-2.434,1.168-4.992,2.322-7.607,3.047
				c-2.639,0.518-5.335,1.387-8.013,1.378c-10.832,0.918-21.362-2.392-30.317-7.821c-2.275-1.329-4.275-3.075-6.389-4.653
				c-1.971-1.755-3.804-3.682-5.679-5.553l-4.529-5.966c0.563,0.836,1.636,1.336,2.388,1.305c0.752,0.035,1.823-0.476,2.383-1.314
				l-4.492,5.992c-1.87,1.881-3.693,3.817-5.654,5.581c-2.111,1.583-4.092,3.354-6.362,4.692
				c-8.936,5.465-19.448,8.846-30.291,7.974c-2.678,0.021-5.38-0.836-8.021-1.343c-2.617-0.717-5.188-1.847-7.628-3.006
				c-4.719-2.812-9.022-6.308-11.996-10.654c-6.063-8.685-7.942-18.649-7.681-27.85c0.047-1.57,1.354-2.805,2.924-2.76
				c1.224,0.034,2.247,0.84,2.615,1.938L2219.748,2623.746z"/>
		</g>
		<g>
			
				<ellipse transform="matrix(1 -0.0024 0.0024 1 -6.2185 6.0388)" fill="#FFFFFF" cx="2473.609" cy="2553.518" rx="76.501" ry="97.039"/>
		</g>
		<g>
			<path fill="#000072" d="M2473.693,2663.369c-24.373,0-47.114-11.762-64.055-33.145c-16.275-20.541-25.274-47.705-25.345-76.488
				c-0.07-28.785,8.799-55.992,24.971-76.611c16.88-21.52,39.636-33.398,64.077-33.457c0.061,0,0.122,0,0.186,0
				c24.37,0,47.112,11.762,64.053,33.145c16.274,20.537,25.273,47.699,25.344,76.488l0,0c0.071,28.785-8.799,55.992-24.971,76.611
				c-16.877,21.52-39.634,33.398-64.074,33.457C2473.817,2663.369,2473.754,2663.369,2473.693,2663.369z M2473.522,2469.293
				c-0.042,0-0.078,0-0.117,0c-16.429,0.043-32.044,8.441-43.975,23.651c-12.637,16.108-19.565,37.677-19.507,60.733
				c0.056,23.051,7.087,44.584,19.802,60.629c11.976,15.117,27.591,23.434,43.973,23.438c0.041,0,0.078,0,0.117,0
				c16.426-0.043,32.043-8.441,43.972-23.652c12.637-16.107,19.565-37.676,19.507-60.732l0,0
				c-0.056-23.051-7.087-44.584-19.802-60.635C2505.517,2477.613,2489.904,2469.293,2473.522,2469.293z"/>
		</g>
		<g>
			
				<ellipse transform="matrix(1 -0.0024 0.0024 1 -6.2402 6.0071)" fill="#000072" cx="2461.098" cy="2562.906" rx="61.292" ry="79.221"/>
		</g>
		<g>
			
				<ellipse transform="matrix(1 -0.0024 0.0024 1 -6.2021 6.0688)" fill="#FFFFFF" cx="2475.39" cy="2535.951" rx="14.357" ry="21.023"/>
		</g>
		<g>
			
				<ellipse transform="matrix(-1 -0.0024 0.0024 -1 4223.2988 5112.1836)" fill="#FFFFFF" cx="2114.766" cy="2553.518" rx="76.501" ry="97.039"/>
		</g>
		<g>
			<path fill="#000072" d="M2114.677,2663.369c-0.061,0-0.119,0-0.181,0c-49.245-0.117-89.194-49.496-89.048-110.068l0,0
				c0.149-60.498,40.239-109.633,89.404-109.633c0.062,0,0.12,0,0.181,0c49.246,0.117,89.194,49.496,89.048,110.068
				C2203.933,2614.234,2163.842,2663.369,2114.677,2663.369z M2051.078,2553.359c-0.112,46.445,28.364,84.297,63.481,84.385
				c0.04,0,0.081,0,0.117,0c35.063,0,63.662-37.68,63.774-84.066c0.112-46.445-28.364-84.297-63.481-84.385c-0.038,0-0.08,0-0.117,0
				C2079.789,2469.293,2051.19,2506.973,2051.078,2553.359L2051.078,2553.359z"/>
		</g>
		<g>
			
				<ellipse transform="matrix(-1 -0.0024 0.0024 -1 4248.2988 5130.9907)" fill="#000072" cx="2127.276" cy="2562.906" rx="61.292" ry="79.221"/>
		</g>
		<g>
			
				<ellipse transform="matrix(-1 -0.0024 0.0024 -1 4219.7549 5077.0688)" fill="#FFFFFF" cx="2112.985" cy="2535.951" rx="14.357" ry="21.024"/>
		</g>
		<g>
			<path fill="#000072" d="M2338.435,2659.066c0,11.845-3.489,21.326-9.116,28.444c-16.88,21.466-52.92,21.466-69.801,0
				c-5.626-7.118-9.115-16.6-9.115-28.444c17.077-3.432,32.045-9.706,44.03-19.947
				C2306.84,2650.261,2320.991,2657.97,2338.435,2659.066z"/>
		</g>
		<g>
			<path fill="#FF2C4B" d="M2329.318,2687.511c-16.88,21.466-52.92,21.466-69.801,0
				C2276.37,2665.988,2312.467,2665.988,2329.318,2687.511z"/>
			<path fill="#000072" d="M2294.418,2705.938c-14.851,0-28.239-6.195-36.729-16.986l-1.128-1.436l1.126-1.441
				c8.474-10.824,21.86-17.031,36.729-17.035c14.868,0,28.257,6.211,36.733,17.035l1.125,1.441l-1.128,1.436
				C2322.658,2699.742,2309.27,2705.938,2294.418,2705.938z M2262.533,2687.506c7.64,8.779,19.148,13.773,31.885,13.773
				c12.737,0,24.246-4.994,31.885-13.773c-7.627-8.799-19.138-13.814-31.887-13.809
				C2281.667,2673.697,2270.16,2678.707,2262.533,2687.506z"/>
		</g>
		<g>
			<path fill="#000072" d="M2294.431,2712.584c-26.335,0-52.996-18.379-52.996-53.506h17.964c0,24.551,17.596,35.541,35.032,35.541
				c17.438,0,35.034-10.99,35.034-35.541h17.964C2347.429,2694.205,2320.769,2712.584,2294.431,2712.584z"/>
		</g>
		<g>
			<path fill="#000072" d="M2616.576,2362.598c-2.803,0-5.568-1.006-7.741-2.949c-32.954-29.482-67.605-53.93-102.993-72.66
				c-2.752-1.455-4.803-3.955-5.698-6.934c-0.896-2.979-0.562-6.197,0.93-8.926c17.856-32.701,40.882-63.506,57.051-83.59
				c6.766-8.422,17.527-12.172,28.089-9.785c10.571,2.402,18.672,10.455,21.14,21.016c8.641,36.949,19.275,93.287,20.867,151.861
				c0.127,4.643-2.522,8.93-6.736,10.889C2619.914,2362.246,2618.239,2362.598,2616.576,2362.598z M2527.229,2272.154
				c26.052,14.639,51.636,32.197,76.394,52.426c-3.4-46.674-11.851-90.264-18.926-120.512c-0.6-2.568-2.536-3.375-3.638-3.624
				c-1.096-0.249-3.171-0.356-4.8,1.671C2562.37,2219.365,2543.275,2244.756,2527.229,2272.154z"/>
		</g>
		<g>
			<path fill="#000072" d="M2309.929,2875.859c-118.602,0-221.128-25.361-296.494-73.35
				c-82.361-52.441-125.896-128.646-125.896-220.381c0-37.539,7.49-75.063,22.267-111.553
				c13.381-116.156,28.545-228.793,64.147-330.561c8.298-23.691,26.721-41.686,50.547-49.371
				c23.641-7.617,48.867-3.838,69.211,10.381c48.445,33.863,98.709,83.213,129.778,127.184
				c58.127-11.572,118.633-12.109,176.311-1.588c31.146-43.564,80.786-92.139,128.65-125.596
				c20.347-14.219,45.576-17.992,69.214-10.381c23.825,7.686,42.248,25.68,50.547,49.365
				c36.016,102.955,51.115,217.031,64.614,334.619c0,0.006,0,0.016,0.002,0.025c12.918,35.043,19.466,71.186,19.466,107.475
				c0,91.738-43.53,167.945-125.882,220.381C2531.049,2850.498,2428.527,2875.859,2309.929,2875.859z M1931.955,2484.248
				c-12.471,32.139-18.787,65.035-18.787,97.881c0,162.867,155.737,268.105,396.761,268.105
				c241.006,0,396.733-105.238,396.733-268.105c0-34.18-6.354-68.262-18.887-101.299c-0.762-2.006-0.989-4.102-0.74-6.113
				c-13.242-115.088-28.156-226.596-63.015-326.234c-5.623-16.051-18.099-28.242-34.224-33.443
				c-15.942-5.137-32.947-2.592-46.668,6.992c-48.073,33.609-97.912,83.037-126.963,125.934c-2.897,4.277-8.093,6.371-13.145,5.375
				c-59.836-12.07-123.271-11.42-183.649,1.92c-3.789,0.83-7.754-0.094-10.781-2.52c-2.422-1.943-4.035-4.678-4.585-7.682
				c-29.307-42.207-77.983-90.176-124.976-123.027c-13.719-9.584-30.735-12.129-46.665-6.992
				c-16.126,5.201-28.601,17.393-34.224,33.447c-34.847,99.605-49.764,211.07-63.003,326.123c-0.027,0.416-0.076,0.826-0.142,1.24
				c-0.065,0.566-0.132,1.133-0.198,1.699C1934.506,2480.107,1933.48,2482.402,1931.955,2484.248z"/>
		</g>
		<g>
			<path fill="#000072" d="M2005.568,2362.613c-1.922,0-3.853-0.479-5.608-1.445c-4.116-2.266-6.465-6.787-5.954-11.455
				c0.522-4.762,12.856-116.973,20.803-150.947c2.469-10.557,10.569-18.609,21.141-21.012c10.537-2.396,21.32,1.354,28.098,9.801
				c16.16,20.068,39.185,50.879,57.039,83.574c2.99,5.479,1.128,12.334-4.219,15.547c-32.744,19.672-66.777,43.682-104.043,73.398
				C2010.717,2361.754,2008.151,2362.613,2005.568,2362.613z M2042.266,2200.313c-0.447,0-0.846,0.059-1.163,0.132
				c-1.101,0.249-3.037,1.056-3.638,3.618c-5.282,22.588-12.941,84.42-17.189,120.68c26.167-19.971,50.91-37.168,74.941-52.1
				c-16.104-27.584-35.34-53.17-49.305-70.514C2044.748,2200.674,2043.361,2200.313,2042.266,2200.313z"/>
		</g>
		<g opacity="0.2">
			<path fill="#FFFFFF" d="M2350.56,2273.13c50.032,7.976,90.546,22.896,119.449,46.289c10.247,8.293,6.214,24.866-6.655,27.724
				c-57.84,12.84-102.529-0.975-129.366-50.976C2327.818,2284.675,2337.68,2271.076,2350.56,2273.13z"/>
		</g>
		<g opacity="0.2">
			<path fill="#FFFFFF" d="M2533.059,2400.034c9.354-7.044,9.08-23.187-0.611-36.056c-9.69-12.87-25.129-17.594-34.482-10.55
				c-9.354,7.043-3.302,18.834,6.389,31.704C2514.045,2398.002,2523.704,2407.077,2533.059,2400.034z"/>
		</g>
		<g>
			<path fill="#FF9D00" d="M2568.035,2934.03h-207.566c-33.474,0-60.609-27.136-60.609-60.608l0,0
				c0-30.87,23.202-56.808,53.881-60.234l206.416-20.679c42.06-4.698,78.859,28.22,78.859,70.541l0,0
				C2639.016,2902.251,2607.236,2934.03,2568.035,2934.03z"/>
			<path fill="#000072" d="M2568.034,2936.357h-207.566c-34.702,0-62.935-28.232-62.935-62.934c0-32.1,24.053-58.99,55.947-62.549
				l206.443-20.68c20.666-2.305,41.462,4.332,56.987,18.219c15.527,13.891,24.431,33.803,24.431,54.639
				C2641.342,2903.473,2608.456,2936.357,2568.034,2936.357z M2568.015,2794.4c-2.527,0-5.063,0.141-7.601,0.424l-206.442,20.68
				c-29.512,3.291-51.785,28.193-51.785,57.92c0,32.133,26.146,58.275,58.281,58.275h207.566c37.856,0,68.654-30.795,68.654-68.646
				c0-19.513-8.339-38.16-22.881-51.168C2601.169,2800.576,2584.812,2794.4,2568.015,2794.4z"/>
		</g>
		<g>
			<path fill="#FFFFFF" d="M2299.862,2873.412c0,33.493,27.129,60.622,60.623,60.622h37.139c27.668,0,49.458-23.587,47.276-51.151
				l-2.336-29.901c-2.104-26.41-25.383-45.968-51.717-43.504c-0.103,0-0.205,0.026-0.308,0.026l-36.805,3.695
				c-15.349,1.694-28.797,9.035-38.447,19.814C2305.663,2843.793,2299.862,2857.986,2299.862,2873.412z"/>
		</g>
		<g opacity="0.3">
			<path fill="#000072" d="M2639.011,2863.043c0,19.608-7.931,37.369-20.789,50.202c-12.833,12.833-30.568,20.789-50.177,20.789
				h-207.586c-33.468,0-60.597-27.129-60.597-60.622c0-3.901,0.385-7.752,1.078-11.447c10.625,17.504,29.85,29.182,51.819,29.182
				h207.585c19.608,0,37.344-7.931,50.177-20.789c10.755-10.754,18.068-24.922,20.147-40.731
				C2635.982,2839.532,2639.011,2850.902,2639.011,2863.043z"/>
		</g>
		<g opacity="0.6">
			<path fill="#FFFFFF" d="M2639.011,2863.043c0,3.413-0.23,6.775-0.718,10.035c-5.313-37.293-39.5-64.729-78.128-60.418
				l-206.43,20.688c-15.349,1.719-28.798,9.06-38.447,19.813c-7.495,8.394-12.654,18.839-14.578,30.337
				c-0.565-3.285-0.848-6.647-0.848-10.086c0-15.426,5.801-29.619,15.426-40.398c9.649-10.779,23.099-18.12,38.447-19.814
				l206.43-20.687C2602.206,2787.816,2639.011,2820.72,2639.011,2863.043z"/>
		</g>
		<g>
			<path fill="#FF9D00" d="M2299.862,2873.412c0,33.493-27.129,60.622-60.623,60.622h-207.56c-19.608,0-37.343-7.956-50.177-20.789
				c-12.858-12.833-20.789-30.594-20.789-50.202c0-42.323,36.779-75.227,78.845-70.53l169.318,16.965
				c0.103,0,0.205,0.026,0.308,0.026l36.806,3.695c15.348,1.694,28.797,9.035,38.447,19.814
				C2294.062,2843.793,2299.862,2857.986,2299.862,2873.412z"/>
			<path fill="#000072" d="M2239.24,2936.357H2031.68c-19.573,0-37.979-7.621-51.822-21.465
				c-13.845-13.823-21.469-32.236-21.469-51.85c0-20.836,8.9-40.748,24.421-54.629c15.522-13.893,36.315-20.543,57.009-18.213
				l206.404,20.684c15.412,1.699,29.592,9.008,39.948,20.576c10.33,11.572,16.019,26.469,16.019,41.953
				C2302.189,2908.121,2273.949,2936.357,2239.24,2936.357z M2031.708,2794.404c-16.813,0-33.164,6.178-45.796,17.477
				c-14.536,13.002-22.871,31.65-22.871,51.162c0,18.369,7.142,35.615,20.105,48.559c12.966,12.965,30.203,20.107,48.533,20.107
				h207.561c32.144,0,58.296-26.152,58.296-58.295c0-14.336-5.269-28.135-14.834-38.854c-9.588-10.708-22.718-17.475-36.968-19.047
				l-206.406-20.684C2036.786,2794.547,2034.24,2794.404,2031.708,2794.404z"/>
		</g>
		<g>
			<path fill="#FFFFFF" d="M2299.862,2873.412c0,33.493-27.129,60.622-60.623,60.622h-37.139c-27.668,0-49.458-23.587-47.276-51.151
				l2.336-29.901c2.104-26.41,25.384-45.968,51.717-43.504c0.103,0,0.205,0.026,0.308,0.026l36.806,3.695
				c15.348,1.694,28.797,9.035,38.447,19.814C2294.062,2843.793,2299.862,2857.986,2299.862,2873.412z"/>
		</g>
		<g opacity="0.3">
			<path fill="#000072" d="M2299.862,2873.412c0,33.493-27.129,60.622-60.623,60.622h-207.56c-19.608,0-37.343-7.956-50.177-20.789
				c-12.858-12.833-20.789-30.594-20.789-50.202c0-2.798,0.153-5.545,0.487-8.239c3.183,5.724,7.161,10.96,11.755,15.554
				c12.833,12.833,30.568,20.789,50.178,20.789h207.559c29.952,0,54.797-21.688,59.725-50.228
				C2296.424,2850.338,2299.862,2861.503,2299.862,2873.412z"/>
		</g>
		<g opacity="0.6">
			<path fill="#FFFFFF" d="M2299.76,2870.203c-2.516-5.467-5.852-10.497-9.805-14.938c-9.65-10.779-23.1-18.12-38.447-19.813
				l-36.805-3.696c-0.103,0-0.205-0.025-0.308-0.025l-169.318-16.965c-42.066-4.697-78.846,28.207-78.846,70.529
				c0,1.977,0.077,3.927,0.257,5.852c-3.722-8.624-5.774-18.12-5.774-28.104c0-42.323,36.779-75.227,78.845-70.53l169.318,16.965
				c0.103,0,0.205,0.026,0.308,0.026l36.806,3.695c15.348,1.694,28.797,9.035,38.447,19.814
				C2293.395,2843.049,2299.041,2856.01,2299.76,2870.203z"/>
		</g>
		<g>
			<path fill="#000072" d="M2568.034,2946.842h-207.566c-40.485,0-73.423-32.936-73.423-73.418
				c0-37.447,28.062-68.818,65.273-72.969l206.561-20.693c23.511-2.623,47.275,4.961,65.024,20.834
				c17.746,15.879,27.927,38.643,27.927,62.457C2651.83,2909.254,2614.24,2946.842,2568.034,2946.842z M2568.017,2804.889
				c-2.141,0-4.289,0.117-6.438,0.355l-206.563,20.693c-24.077,2.691-42.342,23.111-42.342,47.486
				c0,26.352,21.44,47.793,47.793,47.793h207.566c32.072,0,58.166-26.094,58.166-58.164c0-16.529-7.065-32.334-19.385-43.355
				C2596.107,2810.123,2582.248,2804.889,2568.017,2804.889z"/>
		</g>
		<g>
			<path fill="#000072" d="M2239.25,2946.842h-207.566c-46.206,0-83.796-37.588-83.796-83.789c0-23.814,10.181-46.578,27.927-62.457
				c17.749-15.879,41.514-23.457,65.171-20.82l206.27,20.664c37.356,4.166,65.42,35.537,65.42,72.984
				C2312.675,2913.906,2279.735,2946.842,2239.25,2946.842z M2031.755,2804.898c-14.312,0-28.154,5.229-38.853,14.799
				c-12.319,11.021-19.385,26.826-19.385,43.355c0,32.07,26.094,58.164,58.166,58.164h207.566c26.354,0,47.795-21.441,47.795-47.793
				c0-24.375-18.264-44.795-42.487-47.5l-206.272-20.664C2036.103,2805.016,2033.923,2804.898,2031.755,2804.898z"/>
		</g>
		<g opacity="0.3">
			<path fill="#000072" d="M2591.606,2798.245c64.129,9.897,75.286,114.641-2.301,132.539l197.788,3.25
				c-41.92-2.327-40.615-73.926-12.941-96.252l-3.223-0.266c-30.518-2.511-45.566-37.746-26.898-62.018
				c54.211-70.485,70.73-193.144-47.325-328.433l6.204,29.034C2756.781,2617.752,2688.2,2753.115,2591.606,2798.245z"/>
		</g>
		<g opacity="0.3">
			<path fill="#000072" d="M3091.705,2766.59c-3.413,30.234-9.958,62.138-20.019,95.605
				c-12.782,42.529-54.746,71.839-102.356,71.839h-179.122l-9.548-3.927c-48.533-19.146-32.646-79.59,6.776-99.609
				c-21.303,81.746,260.226,71.069,301.446-67.116L3091.705,2766.59z"/>
		</g>
		<g>
			<g>
				<path fill="#FF0339" d="M1120.513,2676.148v115.328c0,16.658-2.861,32.677-8.073,47.541
					c-19.605,55.656-72.656,95.553-135.02,95.553c-79.021,0-143.093-64.072-143.093-143.094v-115.328
					c0-18.281,14.822-33.104,33.104-33.104h219.978c13.754,0,25.543,8.372,30.541,20.289
					C1119.616,2667.264,1120.513,2671.621,1120.513,2676.148z"/>
				<path fill="#000072" d="M977.421,2936.9c-80.186,0-145.42-65.24-145.42-145.426v-115.326c0-19.537,15.894-35.43,35.431-35.43
					h219.978c14.326,0,27.155,8.525,32.688,21.719c1.818,4.287,2.741,8.9,2.741,13.711v115.326c0,16.529-2.759,32.783-8.203,48.315
					C1094.174,2897.871,1039.03,2936.9,977.421,2936.9z M867.432,2645.377c-16.971,0-30.777,13.803-30.777,30.771v115.326
					c0,77.623,63.147,140.768,140.767,140.768c59.639,0,113.018-37.773,132.825-93.994c5.269-15.035,7.939-30.771,7.939-46.773
					v-115.326c0-4.18-0.798-8.189-2.376-11.904c-4.81-11.465-15.954-18.867-28.4-18.867H867.432z"/>
			</g>
			<g opacity="0.3">
				<path fill="#000072" d="M1083.494,2676.148v115.328c0,16.658-2.862,32.677-8.072,47.541
					c-19.606,55.656-72.658,95.553-135.021,95.553c-9.995,0-19.777-1.025-29.217-2.99c49.335-10.209,89.401-45.832,105.846-92.563
					c5.211-14.864,8.073-30.883,8.073-47.541v-115.328c0-4.527-0.897-8.885-2.563-12.814c-4.997-11.917-16.785-20.289-30.54-20.289
					h58.391c13.754,0,25.543,8.372,30.54,20.289C1082.597,2667.264,1083.494,2671.621,1083.494,2676.148z"/>
			</g>
			<g opacity="0.6">
				<path fill="#FFFFFF" d="M993.779,2933.63c-5.339,0.641-10.807,0.94-16.359,0.94c-79.021,0-143.093-64.072-143.093-143.094
					v-115.328c0-18.281,14.822-33.104,33.104-33.104h32.761c-18.281,0-33.104,14.822-33.104,33.104v32.591
					c33.958,6.92,39.34,64.071,0,77.398v5.339C867.089,2864.945,922.489,2925.515,993.779,2933.63z"/>
			</g>
			<g>
				<path fill="#000072" d="M977.421,2949.521c-87.146,0-158.044-70.898-158.044-158.047v-115.326
					c0-26.494,21.558-48.053,48.055-48.053h219.978c19.426,0,36.826,11.563,44.328,29.459c2.464,5.805,3.726,12.08,3.726,18.594
					v115.326c0,17.949-3,35.611-8.913,52.49C1104.304,2907.109,1044.377,2949.521,977.421,2949.521z M867.432,2657.998
					c-10.011,0-18.152,8.141-18.152,18.15v115.326c0,70.66,57.483,128.145,128.142,128.145c54.295,0,102.889-34.385,120.918-85.566
					c4.79-13.666,7.222-28.002,7.222-42.578v-115.326c0-2.441-0.474-4.854-1.372-6.973c-2.856-6.813-9.434-11.178-16.779-11.178
					H867.432z"/>
			</g>
			<g>
				<g>
					<path fill="#FF0339" d="M1239.344,2751.155c0,48.437-39.383,87.862-87.82,87.862h-39.084
						c5.212-14.864,8.073-30.883,8.073-47.541v-7.987h31.011c6.364,0,12.387-1.88,17.385-5.169
						c8.97-5.681,14.907-15.761,14.907-27.165c0-17.813-14.48-32.292-32.292-32.292h-31.011v-42.715
						c0-4.527-0.896-8.885-2.563-12.814h33.573c23.236,0,44.338,9.056,60.057,23.835
						C1228.665,2703.187,1239.344,2725.953,1239.344,2751.155z"/>
					<path fill="#000072" d="M1151.522,2841.344h-42.363l1.087-3.096c5.269-15.035,7.939-30.771,7.939-46.773v-10.307h33.337
						c5.782,0,11.351-1.661,16.106-4.791c8.691-5.502,13.859-14.926,13.859-25.225c0-16.523-13.442-29.965-29.966-29.965h-33.337
						v-45.039c0-4.18-0.798-8.189-2.376-11.904l-1.372-3.232h37.085c22.979,0,44.873,8.686,61.65,24.463
						c18.11,16.973,28.499,40.912,28.499,65.678C1241.672,2800.885,1201.232,2841.344,1151.522,2841.344z M1115.683,2836.694h35.84
						c47.144,0,85.496-38.374,85.496-85.542c0-23.48-9.852-46.186-27.031-62.285c-15.913-14.965-36.675-23.207-58.465-23.207
						h-30.246c1.037,3.35,1.563,6.865,1.563,10.488v40.391h28.684c19.09,0,34.619,15.527,34.619,34.613
						c0,11.904-5.977,22.793-15.988,29.137c-5.483,3.607-11.938,5.527-18.631,5.527h-28.684v5.658
						C1122.839,2806.904,1120.434,2822.1,1115.683,2836.694z"/>
				</g>
			</g>
			<g>
				<g>
					<path fill="#000072" d="M1151.522,2853.971h-39.082c-4.846,0-9.392-2.35-12.194-6.305c-2.803-3.949-3.516-9.018-1.914-13.594
						c4.797-13.686,7.229-28.021,7.229-42.598v-7.982c0-8.258,6.694-14.952,14.952-14.952h31.01c9.563,0,17.342-7.798,17.342-17.388
						c0-9.561-7.778-17.338-17.342-17.338h-31.01c-8.258,0-14.952-6.695-14.952-14.951v-42.715c0-2.441-0.474-4.854-1.372-6.979
						c-1.96-4.613-1.472-9.906,1.297-14.086c2.769-4.186,7.451-6.699,12.466-6.699h33.571c56.67,0,102.773,46.104,102.773,102.768
						C1254.296,2807.848,1208.192,2853.971,1151.522,2853.971z M1132.097,2824.068h19.426c40.181,0,72.871-32.711,72.871-72.916
						c0-40.18-32.69-72.865-72.871-72.865h-16.06v25.625h16.06c26.05,0,47.244,21.19,47.244,47.24
						c0,26.074-21.194,47.291-47.244,47.291h-16.211C1134.936,2807.086,1133.861,2815.645,1132.097,2824.068z"/>
				</g>
			</g>
			<g opacity="0.3">
				<path fill="#000072" d="M1239.344,2751.155c0,48.437-39.383,87.862-87.82,87.862h-39.084
					c5.212-14.864,8.073-30.883,8.073-47.541v-7.987h31.011c6.364,0,12.387-1.88,17.385-5.169c0.043,0,0.043,0,0.085,0
					c50.531-6.364,42.843-88.546,42.587-91.151C1228.665,2703.187,1239.344,2725.953,1239.344,2751.155z"/>
			</g>
		</g>
		<g opacity="0.6">
			<path fill="#FFFFFF" d="M985.566,2588.214c0.762-2.391,0.622-4.936,0.672-7.42c0.013-2.495-0.079-4.998-0.175-7.495
				c-0.212-4.998-0.549-9.995-0.926-14.988l-1.139-14.978l-0.313-3.743l-0.159-1.871l-0.236-1.661
				c-0.347-2.183-0.968-4.306-1.93-6.256c-3.689-7.901-11.818-13.112-20.003-13.146l-1.528,0.005l-1.866,0.08l-3.758,0.168
				l-7.518,0.336l-15.035,0.674l-60.139,2.145l-7.518,0.264l-3.758,0.133c-1.249,0.041-2.92-0.047-4.363-0.079
				c-5.977-0.296-11.964-1.514-17.604-3.723c-11.205-4.524-21.047-12.665-27.283-23.245c-3.126-5.269-5.402-11.067-6.716-17.101
				c-1.335-6.045-1.481-12.276-0.808-18.437c1.315-12.404,7.335-24.15,16.063-33.073c8.814-8.883,20.701-14.871,33.282-16.437
				c1.562-0.262,3.144-0.262,4.718-0.384l2.305-0.115l1.879-0.024l7.518-0.096l15.035-0.193l60.139-0.521l60.139-0.179l60.139,0.157
				l15.035,0.117l3.758,0.029l1.88,0.015c0.63,0.006,1.306,0.017,1.656-0.02c0.86-0.061,1.729-0.043,2.587-0.118
				c0.85-0.137,1.699-0.255,2.556-0.356c6.748-1.3,12.957-5.268,17.148-10.837c4.215-5.558,6.199-12.676,5.548-19.762
				c-0.616-7.022-4.024-13.774-9.349-18.619c-2.656-2.42-5.768-4.348-9.133-5.641c-0.825-0.377-1.692-0.629-2.568-0.854
				l-1.305-0.384l-1.341-0.229c-0.894-0.166-1.786-0.356-2.706-0.37c-0.983-0.045-1.63-0.194-3.042-0.197l-30.069-0.766
				c-20.046-0.557-40.093-0.918-60.139-1.635l-30.069-1.063l-15.034-0.531l-1.88-0.066l-2.334-0.173
				c-1.566-0.072-3.108-0.467-4.643-0.745c-3.042-0.774-5.985-1.897-8.681-3.457c-5.37-3.137-9.795-7.71-12.63-13.106
				c-2.841-5.37-4.164-11.531-3.659-17.452c0.393-5.949,2.588-11.684,6.019-16.396c1.771-2.32,3.789-4.428,6.083-6.181
				c2.333-1.695,4.823-3.152,7.494-4.163c2.675-0.962,5.433-1.718,8.246-1.887c1.386-0.188,2.818-0.074,4.175-0.095l3.759,0.205
				c2.613,0.152,4.72,0.246,7.033-0.045c2.245-0.359,4.52-0.877,6.633-1.854c4.269-1.821,8.138-4.9,10.86-8.889
				c1.402-1.969,2.507-4.172,3.27-6.508c0.869-2.316,1.225-4.793,1.449-7.297c0.397,4.986-0.476,10.267-2.967,14.856
				c-2.37,4.643-6.172,8.633-10.813,11.362c-2.304,1.423-4.895,2.318-7.526,3.037c-2.619,0.654-5.546,0.837-7.939,0.952
				l-3.759,0.204c-1.138,0.158-2.234,0.164-3.316,0.447c-2.183,0.359-4.234,1.21-6.178,2.146c-1.937,0.986-3.666,2.301-5.248,3.725
				c-1.525,1.499-2.875,3.139-3.987,4.922c-2.136,3.621-3.272,7.729-3.152,11.818c0.065,8.21,5.168,15.718,12.182,18.848
				c1.747,0.775,3.563,1.318,5.407,1.658c0.941,0.063,1.856,0.283,2.803,0.225l1.42,0.01l1.88-0.066l15.034-0.531l30.069-1.063
				c20.046-0.716,40.093-1.078,60.139-1.634l30.069-0.767c1.096-0.062,2.949,0.016,4.469,0.07c1.595,0.012,3.175,0.232,4.757,0.462
				l2.372,0.349l2.337,0.552c1.563,0.354,3.111,0.766,4.612,1.338c6.07,2.066,11.752,5.284,16.667,9.426
				c9.842,8.236,16.628,20.352,18.117,33.314c1.617,12.839-1.703,26.414-9.336,37.063c-7.513,10.714-19.23,18.409-32.156,21.135
				l-4.876,0.779c-1.632,0.18-3.274,0.23-4.914,0.325c-0.9,0.053-1.478,0.048-2.101,0.053l-1.88,0.015l-3.758,0.029l-15.035,0.117
				l-60.139,0.157l-60.139-0.179l-60.139-0.521l-15.035-0.193l-7.518-0.096l-1.879-0.024l-1.449,0.052
				c-0.921,0.066-1.864-0.014-2.776,0.139c-7.344,0.757-14.464,3.906-19.984,9.048c-5.426,5.183-9.354,12.092-10.501,19.646
				c-0.599,3.752-0.771,7.682-0.118,11.479c0.632,3.798,1.855,7.509,3.654,10.967c3.584,6.952,9.711,12.576,16.89,15.967
				c3.63,1.64,7.537,2.643,11.543,3.062c1.061,0.065,1.889,0.196,3.147,0.235l3.758,0.132l7.518,0.265l60.139,2.145l15.035,0.673
				l7.518,0.337l3.758,0.168l1.894,0.088l2.226,0.189c5.908,0.64,11.607,2.968,16.139,6.627c2.286,1.801,4.327,3.905,5.95,6.291
				c1.676,2.343,2.994,4.924,3.892,7.627c0.961,2.681,1.462,5.501,1.596,8.298l0.06,2.085l-0.044,1.886l-0.093,3.771
				c-0.136,5.028-0.279,10.057-0.51,15.085c-0.257,5.029-0.555,10.057-0.978,15.08c-0.225,2.512-0.441,5.021-0.784,7.525
				C986.904,2583.341,986.673,2585.931,985.566,2588.214z"/>
		</g>
	</g>
</g>
</svg>
