<?xml version="1.0" encoding="utf-8"?>
<!-- Generator: Adobe Illustrator 15.0.0, SVG Export Plug-In . SVG Version: 6.00 Build 0)  -->
<!DOCTYPE svg PUBLIC "-//W3C//DTD SVG 1.1//EN" "http://www.w3.org/Graphics/SVG/1.1/DTD/svg11.dtd">
<svg version="1.1" id="Layer_1" xmlns="http://www.w3.org/2000/svg" xmlns:xlink="http://www.w3.org/1999/xlink" x="0px" y="0px"
	 width="4000px" height="4000px" viewBox="0 0 4000 4000" enable-background="new 0 0 4000 4000" xml:space="preserve">
<g>
	<g>
		<g opacity="0.2">
			<ellipse fill="#371A45" cx="1961.133" cy="3508.117" rx="772.5" ry="165.336"/>
		</g>
		<g>
			<path fill="#FFFFFF" d="M2517.563,1867.259v722.911c0,96.307-77.972,174.279-174.28,174.279h-762.128
				c-96.168,0-174.233-77.973-174.233-174.279v-722.911c0-40.514,13.891-78.019,37.273-107.56c0.185-0.278,0.417-0.556,0.648-0.833
				c17.965-22.549,41.347-40.561,68.249-51.997c20.929-8.89,43.895-13.798,68.063-13.798h762.128
				c24.309,0,47.46,4.954,68.435,13.983c17.178,7.27,32.874,17.271,46.672,29.402c1.528,1.296,3.01,2.639,4.445,4.028
				C2496.543,1772.247,2517.563,1817.299,2517.563,1867.259z"/>
		</g>
		<g>
			<path fill="#371A45" d="M2357.362,2782.983h-790.217c-98.558,0-178.738-80.181-178.738-178.735v-750.974
				c0-98.557,80.181-178.738,178.738-178.738h790.217c98.558,0,178.738,80.181,178.738,178.738v750.974
				C2536.101,2702.803,2455.92,2782.983,2357.362,2782.983z M1567.146,1711.577c-78.133,0-141.697,63.564-141.697,141.697v750.974
				c0,78.13,63.564,141.694,141.697,141.694h790.217c78.133,0,141.697-63.564,141.697-141.694v-750.974
				c0-78.132-63.564-141.697-141.697-141.697H1567.146z"/>
		</g>
		<g>
			<path fill="#FFFFFF" d="M2664.417,2269.03c-209.979,28.383-363.377-135.942-363.377-135.942l-30.606-240.63l-27.549-216.785
				c0,0,289.804,257.577,381.064,84.316c14.399-27.318,23.891-65.425,26.484-116.912c0.231-4.399,0.371-8.937,0.51-13.521
				l2.083,0.695l320.27,107.328C2973.296,1737.578,3012.514,2222.034,2664.417,2269.03z"/>
		</g>
		<g opacity="0.25">
			<path fill="#371A45" d="M2664.417,2269.03c-209.979,28.383-363.377-135.942-363.377-135.942l-30.606-240.63l61.721-15.187
				c0,0,36.116,193.958,226.046,248.456c187.939,53.941,222.249-57.184,187.105-107.051
				c-41.903-59.497-134.876-115.939-121.356-258.688c2.269-23.938,7.501-50.331,16.529-79.547
				c4.167-13.613,7.455-26.021,9.955-37.365c0.972-4.445,1.806-8.705,2.593-12.826l320.27,107.328
				C2973.296,1737.578,3012.514,2222.034,2664.417,2269.03z"/>
		</g>
		<g>
			<path fill="#371A45" d="M2614.862,2290.896c-189.497,0.017-321.379-138.743-327.375-145.166
				c-6.98-7.479-6.577-19.197,0.898-26.178c7.476-6.982,19.196-6.574,26.177,0.898c1.462,1.559,149.694,156.934,347.373,130.232
				c135.974-18.369,226.584-108.84,269.312-268.901c26.643-99.805,25.581-197.28,24.222-230.63l-287.205-96.25
				c-6.639,92.078-36.57,150.239-89.144,173.027c-128.125,55.532-339.614-130.452-348.552-138.398
				c-7.646-6.792-8.335-18.496-1.543-26.14c6.792-7.649,18.496-8.34,26.145-1.55c56.03,49.746,220.804,170.442,309.236,132.095
				c42.761-18.547,65.649-74.011,68.032-164.854l0.654-25.032l357.656,119.861l0.986,12.183
				c0.412,5.073,9.67,125.754-24.458,254.336c-46.175,173.965-150.044,276.652-300.381,296.963
				C2649.135,2289.79,2631.755,2290.896,2614.862,2290.896z"/>
		</g>
		<g>
			<g>
				<path fill="#FFFFFF" d="M1230.46,2509.985c0,0-57.258,178.511,130.916,216.861c33.877,6.919,66.323,4.116,95.25-6.501
					c124.892-45.984,185.251-238.512,21.292-431.158c-8.648-10.199-17.952-20.397-27.913-30.597
					c-0.417-0.417-0.835-0.835-1.252-1.253c0,0,8.708-14.434,36.561-34.711c17.475-12.764,42.585-27.854,77.714-43.123
					l67.456-206.364l0.119-0.358l84.872-259.386c0,0-66.859,22.664-152.268,61.372c-36.024,16.283-75.448,35.488-114.455,57.078
					c0,0-18.549,9.96-47.536,27.973C1252.766,1952.206,830.912,2255.668,1230.46,2509.985z"/>
			</g>
			<g opacity="0.25">
				<path fill="#371A45" d="M1583.161,2011.596l-20.126,167.91c-91.203,39.574-114.304,77.804-114.304,77.804
					c0.432,0.433,0.865,0.864,1.249,1.297c-24.446-20.171-57.248-43.224-91.683-56.144c0,0,63.491-34.867,84.671-59.793
					c91.347-107.531,67.831-171.342,153.703-160.392C1610.166,1984.007,1592.079,1993.142,1583.161,2011.596z"/>
			</g>
			<g>
				<path fill="#371A45" d="M1397.582,2749.072c-13.135,0-26.475-1.333-39.893-4.07c-61.665-12.57-105.674-40.71-130.806-83.637
					c-31.696-54.141-23.591-115.945-17.673-143.105c-112.684-74.869-168.022-160.943-164.532-255.986
					c8.682-236.194,379.483-438.277,395.264-446.763c131.228-72.417,268.205-119.165,269.572-119.629
					c9.681-3.274,20.2,1.907,23.484,11.594c3.283,9.688-1.907,20.203-11.592,23.486c-1.341,0.454-135.322,46.206-263.746,117.075
					c-3.85,2.073-368.105,200.594-375.966,415.633c-3.074,84.076,50.317,161.689,158.693,230.684l12.054,7.673l-4.363,13.606
					c-0.212,0.668-21.963,71.391,10.901,127.24c19.611,33.328,55.31,55.479,106.105,65.836
					c69.893,14.232,134.954-16.813,169.817-81.051c43.361-79.906,40.024-215.752-99.388-357.38l-10.104-10.267l7.461-12.321
					c2.358-3.892,25.337-39.134,104.978-77.056c9.231-4.387,20.288-0.477,24.683,8.76c4.397,9.233,0.477,20.285-8.76,24.683
					c-44.392,21.14-68.467,40.889-80.107,52.464c141.895,151.781,142.18,299.621,93.794,388.783
					C1531.842,2710.959,1467.787,2749.067,1397.582,2749.072z"/>
			</g>
			<g>
				<path fill="#371A45" d="M1243.471,2495.215c7.2,4.097,14.673,8.589,21.997,13.022c7.407,4.358,14.739,8.933,22.146,13.421
					l45.012,27.221c-8.989-0.153-17.888-1.242-26.755-2.546c-8.826-1.413-17.573-3.228-26.223-5.339
					c-8.63-2.156-17.236-4.453-25.664-7.207c-8.501-2.691-16.775-5.506-25.163-9.046L1243.471,2495.215z"/>
			</g>
			<g opacity="0.25">
				<path fill="#371A45" d="M1361.364,2726.863c-185.936-37.914-132.219-212.709-130.968-216.859l0.057-0.057
					c0,0,32.287,173.032,200.374,125.568c107.492-30.412,98.396-181.9,77.876-287.117c1.819-4.15,3.297-8.471,4.491-12.848
					c0,0,0,0,0.057,0C1661.612,2556.275,1529.734,2761.197,1361.364,2726.863z"/>
			</g>
			<g>
				<path fill="#371A45" d="M1104.85,2415.109c-10.208,0-18.496-8.262-18.521-18.474c-0.136-54.841,45.083-111.536,115.203-144.44
					c79.18-37.146,199.512-47.012,299.788,36.738c7.851,6.557,8.899,18.236,2.341,26.088c-6.553,7.85-18.234,8.902-26.086,2.344
					c-86.921-72.598-191.459-63.942-260.308-31.635c-57.141,26.811-93.999,70.31-93.896,110.813
					c0.027,10.229-8.245,18.543-18.474,18.566C1104.882,2415.109,1104.865,2415.109,1104.85,2415.109z"/>
			</g>
			<g>
				<path fill="#371A45" d="M1444.079,2270.285c-6.05-6.367-12.847-12.92-19.544-19.18c-6.758-6.291-13.687-12.432-20.773-18.415
					c-14.236-11.878-29.07-23.128-45.464-32.454c18.41,4.205,36.462,10.885,54.072,18.398c8.789,3.807,17.507,7.835,26.14,12.08
					c8.68,4.297,17.07,8.59,25.825,13.57L1444.079,2270.285z"/>
			</g>
		</g>
		<g>
			<path fill="#371A45" d="M1804.389,3351.304c-3.367,0-6.772-0.915-9.834-2.839c-90.771-57.018-224.104-31.797-225.444-31.536
				c-10.027,1.966-19.765-4.573-21.738-14.604c-1.97-10.029,4.551-19.761,14.58-21.738c6.028-1.196,148.931-28.42,252.305,36.512
				c8.662,5.439,11.272,16.872,5.833,25.534C1816.571,3348.232,1810.549,3351.304,1804.389,3351.304z"/>
		</g>
		<g>
			<path fill="#FFFFFF" d="M2332.156,1877.258c52.379,249.49,133.394,588.108,97.7,923.58
				c-22.891,215.143-70.837,497.922-70.837,497.922s142.589,46.99,132.383,148.215c-0.256,2.738,6.037,108.54-276.335,97.955
				c-119.706-4.486-201.112-27.404-230.242-90.383c-26.103-56.434-22.359-307.41-22.359-307.41v-355.061h-0.372v355.061
				c0,0,3.743,250.977-22.359,307.41c-29.13,62.979-97.229,85.896-216.935,90.383c-282.372,10.585-289.386-95.217-289.641-97.955
				c-10.206-101.225,132.382-148.215,132.382-148.215s-47.946-282.779-70.836-497.922
				c-36.551-343.533,47.931-691.514,101.474-941.368"/>
		</g>
		<g>
			<path fill="#371A45" d="M2341.218,1875.356c37.456,114.211,58.774,232.419,79.854,350.825
				c20.119,118.557,34.507,238.594,37.775,359.533c0.76,30.228,0.535,60.496-0.142,90.76c-0.944,30.264-2.485,60.527-4.99,90.744
				c-2.612,30.318-5.991,60.162-9.535,89.964c-3.546,29.821-7.32,59.593-11.3,89.321c-7.842,59.478-16.945,118.73-26.128,177.954
				c-9.226,59.235-18.942,118.294-29.473,177.397l-12.461-20.686l0.015,0.004c8.413,2.906,15.415,5.838,22.874,9.158
				c7.321,3.286,14.512,6.834,21.592,10.643c14.141,7.644,27.847,16.35,40.764,26.553c12.879,10.219,25.013,21.975,35.249,35.866
				c10.181,13.862,18.343,30.11,22.295,47.764c1.978,8.799,2.9,17.858,2.83,26.833c-0.091,2.227-0.088,4.505-0.278,6.689
				l-0.259,3.294l-0.057,0.737l0.057-0.615c0.012-0.34,0.007-0.291,0.002-0.027l-0.078,2.029c-0.305,5.521-1.269,10.535-2.681,15.35
				c-5.681,19.307-17.949,34.421-31.411,45.808c-13.628,11.377-28.652,19.583-43.884,25.862
				c-15.254,6.313-30.781,10.977-46.338,14.447c-31.133,7.1-62.361,10.193-93.398,11.729c-31.069,1.455-61.893,0.898-92.72-0.537
				c-30.85-1.672-61.89-4.519-92.974-10.832c-15.532-3.123-31.072-7.234-46.431-12.729c-15.325-5.586-30.525-12.655-44.707-22.292
				c-14.185-9.52-27.173-21.956-37.127-36.666c-2.507-3.664-4.736-7.497-6.88-11.374l-2.959-5.935c-0.959-2.073-1.843-4.4-2.736-6.6
				c-3.104-8.643-5.164-16.743-6.753-24.67c-6.304-31.66-8.582-62.154-10.693-92.857c-3.792-61.257-4.615-122.104-4.278-183.127
				l0.09-363.596l18.521,18.52h-0.371l18.52-18.52l0.088,363.051c0.352,60.936-0.471,121.692-4.219,182.854
				c-2.072,30.647-4.382,61.113-10.537,92.681c-1.606,7.925-3.576,15.986-6.506,24.51l-2.695,6.67
				c-0.933,2.055-1.89,3.898-2.84,5.854c-1.989,3.828-4.074,7.625-6.426,11.292c-9.226,14.756-21.491,27.878-35.413,38.083
				c-13.938,10.198-29.16,17.871-44.57,23.543c-15.424,5.734-31.067,9.775-46.648,12.801c-31.199,6.071-62.217,8.483-93.005,9.836
				c-30.76,1.167-61.621,1.313-92.635-0.51c-30.991-1.775-62.151-5.547-93.107-13.033c-15.459-3.838-30.869-8.576-45.97-14.98
				c-15.056-6.455-29.927-14.404-43.503-25.3c-13.475-10.882-25.952-24.69-33.353-42.881c-1.826-4.595-3.306-9.313-4.211-14.993
				l-0.291-2.26l-0.142-1.686l-0.256-3.288c-0.159-2.197-0.186-4.46-0.254-6.687c-0.032-8.963,0.886-18.011,2.905-26.787
				c3.979-17.62,12.18-33.809,22.355-47.637c10.237-13.855,22.363-25.576,35.228-35.771c12.9-10.182,26.592-18.867,40.713-26.497
				c7.067-3.802,14.25-7.341,21.56-10.625c7.449-3.313,14.438-6.24,22.845-9.144l0.015-0.004l-12.461,20.686
				c-10.657-59.855-20.491-119.668-29.817-179.66c-9.294-59.977-18.467-119.993-26.408-180.228
				c-4.007-30.112-7.793-60.271-11.377-90.474l-5.137-45.356c-1.469-15.225-3.173-30.537-4.243-45.833
				c-4.893-61.211-6.043-122.582-4.578-183.793c3.726-122.444,18.631-243.951,39.344-363.958
				c10.339-60.026,22.222-119.7,34.782-179.134c6.194-29.733,13.257-59.26,20.947-88.615c7.791-29.336,16.213-58.489,26.328-87.275
				c1.707-4.863,7.034-7.424,11.899-5.718c4.099,1.438,6.561,5.461,6.211,9.6c-2.59,30.458-7.109,60.496-12.124,90.383
				c-5.119,29.868-10.739,59.59-16.885,89.177c-12.019,59.226-23.325,118.521-33.074,178.003
				c-19.553,118.914-33.176,238.706-35.913,358.623c-1.507,59.927-0.452,119.871,4.24,179.48c1.023,14.929,2.661,29.736,4.08,44.665
				l5.037,44.958c3.518,29.971,7.241,59.939,11.188,89.893c7.922,59.905,15.991,119.844,24.783,179.69l13.436,89.743l13.798,89.637
				l2.432,15.783l-14.896,4.902l-0.005,0.003c-5.9,2.034-12.912,4.897-19.279,7.759c-6.495,2.915-12.896,6.072-19.155,9.438
				c-12.503,6.751-24.451,14.368-35.315,22.946c-21.694,17.051-39.097,38.582-44.44,62.591c-1.375,5.974-1.983,12.083-1.978,18.247
				c0.061,1.553,0.061,3.076,0.181,4.653l0.185,2.368l0.093,1.145l0.07,0.553c0.286,1.797,1.001,4.369,1.997,6.789
				c3.994,9.99,12.126,19.734,22.148,27.72c20.327,16.159,47.39,26.321,75.066,33.169c13.906,3.494,28.281,5.818,42.683,7.951
				c14.502,1.797,29.095,3.297,43.821,4.082c29.426,1.736,59.166,1.604,88.889,0.479c29.653-1.286,59.173-3.659,87.43-9.177
				c28.13-5.513,55.319-14.326,76.333-29.79c10.48-7.71,19.216-17.107,26.062-28c1.741-2.701,3.291-5.547,4.798-8.428l2.114-4.355
				l1.553-3.855c1.97-5.799,3.679-12.443,5.061-19.354c5.477-27.881,7.9-57.937,9.868-87.646
				c3.665-59.689,4.5-120.072,4.146-180.189l-0.088-363.369l-0.005-18.523h18.526h0.371h18.528l-0.004,18.523l-0.093,363.903
				c-0.34,60.21,0.495,120.684,4.201,180.454c2.002,29.736,4.412,59.871,9.998,87.703c1.359,6.934,3.161,13.537,5.156,19.16
				c0.562,1.296,0.977,2.536,1.602,3.903l2.109,4.238c1.54,2.747,3.105,5.474,4.888,8.063c7.065,10.389,16.276,19.395,27.248,26.761
				c21.912,14.888,49.485,23.601,77.705,29.36c28.354,5.776,57.864,8.543,87.518,10.139c29.722,1.385,59.58,1.917,89.079,0.527
				c29.468-1.445,58.818-4.426,86.824-10.83c14.023-3.112,27.627-7.258,40.383-12.539c12.778-5.231,24.568-11.896,34.236-19.973
				c9.587-8.052,16.838-17.822,19.717-27.793c0.742-2.449,1.164-4.939,1.274-6.987l0.031-0.811l0.093-2.063l0.052-0.678l0.186-2.371
				c0.151-1.59,0.117-3.107,0.2-4.666c0.036-6.179-0.584-12.291-1.924-18.283c-5.291-24.055-22.681-45.64-44.397-62.727
				c-10.876-8.594-22.839-16.229-35.358-22.99c-6.268-3.373-12.676-6.537-19.183-9.457c-6.374-2.865-13.394-5.732-19.309-7.773
				h-0.003l-15.021-4.063l2.562-16.623l13.622-88.511l13.274-88.613c8.696-59.095,16.647-118.281,24.538-177.427
				c3.921-29.578,7.635-59.168,11.113-88.762c3.489-29.609,6.795-59.232,9.282-88.525c2.4-29.417,3.862-58.922,4.751-88.457
				c0.643-29.551,0.76-59.127,0.076-88.714c-2.229-118.398-15.381-236.712-34.331-354.185
				c-9.446-58.765-20.449-117.344-32.08-175.877c-5.63-29.309-11.238-58.647-15.991-88.2c-4.849-29.531-9.222-59.202-11.924-89.234
				l-0.005-0.065c-0.462-5.127,3.317-9.653,8.444-10.115C2335.935,1868.584,2339.899,1871.326,2341.218,1875.356z"/>
		</g>
		<g>
			<path fill="#371A45" d="M2355.434,3316.924l-14.121-1.541c-4.863-0.5-9.748-0.824-14.648-1.232
				c-9.787-0.789-19.614-1.398-29.438-1.753c-19.653-0.843-39.294-0.622-58.859,0.518c-19.57,1.296-38.853,4.265-57.92,8.493
				c-19.046,4.402-37.322,11.082-55.364,19.215l-0.527,0.236c-4.67,2.107-10.163,0.027-12.271-4.644
				c-1.828-4.058-0.495-8.737,2.947-11.276c17.275-12.762,36.359-23.551,56.614-31.175c5.014-2.085,10.197-3.483,15.314-5.257
				l7.734-2.471c2.595-0.72,5.212-1.313,7.824-1.975c5.232-1.24,10.462-2.695,15.732-3.748l15.887-2.793
				c21.23-3.288,42.683-4.652,64.05-4.318c10.684,0.275,21.353,0.848,31.99,2.051c5.319,0.493,10.625,1.365,15.938,2.176
				c5.4,0.85,10.456,1.758,16.291,3.154c9.951,2.38,16.089,12.375,13.709,22.326c-2.195,9.182-10.877,15.117-20.024,14.109
				L2355.434,3316.924z"/>
		</g>
		<g>
			<path fill="#371A45" d="M1564.066,3280.584c5.84-1.379,10.887-2.347,16.284-3.232c5.308-0.862,10.628-1.575,15.94-2.178
				c10.64-1.182,21.301-1.883,31.992-2.135c21.377-0.534,42.837,0.836,64.116,3.937c21.274,3.176,42.334,8.693,62.59,16.271
				c20.291,7.649,39.346,18.665,56.455,31.692c4.07,3.1,4.859,8.91,1.758,12.98c-2.517,3.306-6.821,4.445-10.532,3.098l-1.076-0.395
				c-9.41-3.431-17.889-8.115-27.474-10.631c-4.699-1.403-9.113-3.35-13.911-4.424c-4.763-1.14-9.451-2.426-14.141-3.643
				c-19.063-4.082-38.273-7.211-57.822-8.461c-19.514-1.331-39.147-1.546-58.792-0.904c-9.819,0.379-19.653,0.859-29.436,1.67
				c-9.68,0.608-19.854,1.758-28.779,2.693l-0.991,0.103c-10.171,1.064-19.282-6.318-20.347-16.491
				C1548.92,3291.157,1555.124,3282.686,1564.066,3280.584z"/>
		</g>
		<g>
			<g opacity="0.25">
				<path fill="#371A45" d="M2459.82,2542.486c-8.259,5.087-17.574,8.512-27.697,9.771c-58.567,7.353-141.105,12.54-203.148-4.382
					v31.122c0,43.007-33.892,78.207-75.236,78.207h-411.081c-41.396,0-75.237-35.2-75.237-78.207v-24.827
					c-57.006,9.014-123.783,4.331-173.437-1.913c-10.727-1.36-20.597-5.087-29.208-10.728c0.504-43.309,2.065-86.365,4.583-128.919
					c10.021-5.489,21.352-8.562,33.237-8.562c1.108,0,2.216,0.051,3.324,0.102c45.676,2.266,108.121,3.625,161.501-1.158v-55.799
					c0-43.006,33.841-78.156,75.237-78.156h411.081c33.036,0,61.338,22.46,71.359,53.43c2.518,7.756,3.877,16.065,3.877,24.727
					v52.223c58.417,8.813,136.725,7.402,191.214,4.734c1.107-0.051,2.216-0.102,3.323-0.102c11.331,0,22.058,2.77,31.676,7.705
					C2457.706,2454.912,2459.367,2498.573,2459.82,2542.486z"/>
			</g>
			<g>
				<path fill="#FFFFFF" d="M1721.532,2472.25c-63.154,26.551-160.891,20.995-227.524,12.622
					c-39.964-5.022-68.017-43.321-62.13-84.68l0,0c5.372-37.739,37.359-65.184,74.053-63.397
					c62.325,3.032,155.81,4.453,215.013-9.186"/>
			</g>
			<g opacity="0.25">
				<path fill="#371A45" d="M1721.551,2472.238c-63.152,26.551-160.932,21.029-227.551,12.627
					c-39.944-4.993-68.007-43.307-62.135-84.694c1.248-8.786,3.929-17.044,7.859-24.486c10.633,20.453,30.328,35.386,54.275,38.41
					c66.527,8.354,164.122,13.924,227.273-12.531L1721.551,2472.238z"/>
			</g>
			<g>
				<path fill="#371A45" d="M1595.932,2510.305c-36.643,0-73.054-3.139-104.233-7.055c-23.76-2.986-44.998-15.306-59.802-34.69
					c-15.244-19.964-21.934-45.833-18.352-70.977c6.753-47.461,46.873-81.582,93.289-79.287
					c91.592,4.448,166.157,1.351,209.953-8.733c9.08-2.092,31.653-2.448,45.122,39.287c15.076,46.702,11.924,121.504-33.198,140.472
					l0,0C1691.361,2505.024,1643.454,2510.305,1595.932,2510.305z M1502.536,2355.232c-26.143,0-48.401,20.033-52.322,47.57
					c-2.222,15.605,1.729,30.975,11.123,43.276c8.729,11.429,21.15,18.679,34.98,20.417c94.891,11.927,172.32,7.903,218.037-11.32
					l0,0c8.491-3.569,14.825-15.975,17.371-34.033c4.38-31.057-4.163-64.932-11.047-74.504
					c-60.305,12.852-150.129,11.84-215.647,8.654C1504.196,2355.252,1503.363,2355.232,1502.536,2355.232z"/>
			</g>
			<g>
				<path fill="#FFFFFF" d="M2204.587,2472.25c63.154,26.551,160.892,20.995,227.524,12.622c39.964-5.022,68.017-43.321,62.13-84.68
					l0,0c-5.372-37.739-37.359-65.184-74.054-63.397c-62.324,3.032-155.809,4.453-215.012-9.186"/>
			</g>
			<g opacity="0.25">
				<path fill="#371A45" d="M2432.128,2484.865c-66.665,8.402-164.399,13.924-227.551-12.627l0.277-70.53
					c63.151,26.455,160.7,20.885,227.273,12.53c23.947-3.023,43.688-18.053,54.321-38.506c3.838,7.395,6.564,15.652,7.813,24.438
					C2500.134,2441.559,2472.072,2479.872,2432.128,2484.865z"/>
			</g>
			<g>
				<path fill="#371A45" d="M2330.188,2510.305c-47.527,0-95.425-5.277-132.778-20.983c-45.122-18.97-48.271-93.77-33.198-140.474
					c13.472-41.738,36.05-41.372,45.122-39.285c43.794,10.086,118.366,13.187,209.953,8.733
					c46.479-2.214,86.538,31.829,93.289,79.287c3.581,25.144-3.108,51.013-18.353,70.977c-14.805,19.385-36.042,31.704-59.802,34.69
					C2403.246,2507.166,2366.825,2510.303,2330.188,2510.305z M2205.441,2346.639c-6.885,9.572-15.428,43.447-11.045,74.504
					c2.546,18.059,8.877,30.464,17.368,34.033l0,0c45.723,19.224,123.159,23.244,218.037,11.32
					c13.83-1.738,26.253-8.988,34.98-20.417c9.395-12.302,13.345-27.671,11.123-43.276c-4.043-28.408-27.69-48.882-54.817-47.51
					C2355.575,2358.479,2265.741,2359.487,2205.441,2346.639z"/>
			</g>
			<g>
				<path fill="#FFFFFF" d="M2228.987,2279.803v231.806c0,43.02-33.888,78.214-75.265,78.214h-411.044
					c-41.424,0-75.265-35.194-75.265-78.214v-231.806c0-42.971,33.841-78.164,75.265-78.164h411.044
					c33.055,0,61.349,22.47,71.381,53.438C2227.6,2262.854,2228.987,2271.16,2228.987,2279.803z"/>
			</g>
			<g opacity="0.25">
				<path fill="#371A45" d="M2228.987,2279.803v231.806c0,43.02-33.888,78.214-75.265,78.214h-411.044
					c-41.424,0-75.265-35.194-75.265-78.214v-78.021c70.918,40.763,211.417,101.979,352.422,51.469
					c68.884-24.693,147.861-109.32,147.861-109.32s3.043,88.795,15.728,87.395c35.271-3.897,35.011-183.555,41.679-208.055
					C2227.6,2262.854,2228.987,2271.16,2228.987,2279.803z"/>
			</g>
			<g>
				<path fill="#371A45" d="M2158.456,2608.318h-420.54c-49.099,0-89.045-39.944-89.045-89.043v-247.112
					c0-49.099,39.946-89.044,89.045-89.044h420.54c49.1,0,89.046,39.945,89.046,89.044v247.112
					C2247.502,2568.374,2207.556,2608.318,2158.456,2608.318z M1737.917,2220.161c-28.674,0-52.004,23.327-52.004,52.002v247.112
					c0,28.674,23.33,52.002,52.004,52.002h420.54c28.675,0,52.005-23.328,52.005-52.002v-247.112
					c0-28.675-23.33-52.002-52.005-52.002H1737.917z"/>
			</g>
			<g>
				<ellipse fill="#22A7F0" cx="2093.807" cy="2395.719" rx="64.91" ry="67.412"/>
			</g>
			<g>
				<path fill="#FFFFFF" d="M2158.732,2395.739c0,4.593-0.426,9.054-1.275,13.382c-5.996-30.871-32.234-54.102-63.661-54.102
					s-57.664,23.23-63.618,54.102c-0.851-4.328-1.275-8.789-1.275-13.382c0-37.229,29.045-67.438,64.894-67.438
					S2158.732,2358.51,2158.732,2395.739z"/>
			</g>
			<g>
				<path fill="#197BDD" d="M2158.715,2395.706c0,37.259-29.079,67.409-64.908,67.409s-64.909-30.15-64.909-67.409
					c0-6.241,0.832-12.339,2.358-18.053c7.627,28.423,32.777,49.31,62.551,49.31c29.772,0,54.922-20.887,62.551-49.31
					C2157.883,2383.367,2158.715,2389.465,2158.715,2395.706z"/>
			</g>
			<g>
				<path fill="#371A45" d="M2093.806,2477.021c-43.45,0-78.802-36.473-78.802-81.301c0-44.832,35.352-81.305,78.802-81.305
					c43.452,0,78.804,36.473,78.804,81.305C2172.609,2440.549,2137.258,2477.021,2093.806,2477.021z M2093.806,2342.199
					c-28.133,0-51.019,24.01-51.019,53.521s22.886,53.518,51.019,53.518c28.132,0,51.021-24.006,51.021-53.518
					S2121.938,2342.199,2093.806,2342.199z"/>
			</g>
			<g>
				<path fill="#371A45" d="M1909.86,2608.318c-10.23,0-18.521-8.291-18.521-18.521v-118.645c0-23.555-10.755-46.025-28.77-60.107
					l-10.44-8.164c-26.923-21.047-42.998-54.426-42.998-89.289v-111.951c0-10.229,8.291-18.521,18.521-18.521
					s18.521,8.292,18.521,18.521v111.951c0,23.555,10.756,46.025,28.771,60.107l10.44,8.164
					c26.921,21.045,42.995,54.426,42.995,89.289v118.645C1928.38,2600.027,1920.09,2608.318,1909.86,2608.318z"/>
			</g>
		</g>
		<g>
			<path fill="#371A45" d="M1735.241,2998.605c-73.88,0-156.478-13.311-234.114-54.961c-9.014-4.836-12.399-16.062-7.565-25.075
				c4.838-9.014,16.057-12.402,25.076-7.565c195.224,104.73,434.633,12.455,437.026,11.506c9.504-3.748,20.271,0.916,24.023,10.425
				c3.758,9.509-0.898,20.261-10.403,24.023C1962.707,2959.561,1861.765,2998.605,1735.241,2998.605z"/>
		</g>
		<g>
			<path fill="#371A45" d="M2189.377,2998.605c-126.489,0-227.344-39.047-233.916-41.65c-9.512-3.767-14.168-14.528-10.4-24.037
				c3.767-9.508,14.519-14.156,24.028-10.406l0,0c2.393,0.943,241.617,93.223,436.833-11.508c9.014-4.84,20.237-1.448,25.076,7.565
				c4.836,9.014,1.447,20.239-7.566,25.075C2345.808,2985.291,2263.215,2998.605,2189.377,2998.605z"/>
		</g>
		<g>
			<path fill="#FFFFFF" d="M1781.386,2783.094c0,0,73.364,32.788,180.894,32.788s181.267-32.788,181.267-32.788
				s-48.727-38.482-181.267-38.482C1829.741,2744.611,1781.386,2783.094,1781.386,2783.094z"/>
		</g>
		<g>
			<path fill="#371A45" d="M1758.024,2771.792c16.401,4.702,33.867,8.952,51.032,12.36c17.229,3.558,34.568,6.451,51.943,8.846
				c17.425,2.061,34.788,4.355,52.28,5.229c8.724,0.642,17.459,0.991,26.189,1.406c8.732,0.354,17.478,0.261,26.21,0.403
				c17.468-0.182,34.958-0.494,52.393-1.976c17.495-0.827,34.846-3.21,52.268-5.261l13.03-1.861l12.99-2.141
				c8.67-1.416,17.334-2.977,25.928-4.819c17.183-3.347,34.642-7.593,51.092-12.194l0.532-0.149
				c4.938-1.382,10.063,1.501,11.445,6.442c1.182,4.229-0.77,8.594-4.453,10.631c-16.802,9.281-33.789,15.854-51.336,22.016
				c-17.541,5.84-35.376,10.895-53.496,14.666c-9.045,1.941-18.14,3.73-27.302,5.049c-9.153,1.408-18.328,2.71-27.549,3.65
				c-18.438,1.921-36.982,2.663-55.53,2.932c-37.092-0.278-74.175-3.921-110.368-11.714c-18.12-3.765-35.953-8.825-53.496-14.658
				c-17.557-6.123-34.534-12.712-51.36-21.948c-4.495-2.469-6.138-8.11-3.669-12.605c2.126-3.874,6.613-5.629,10.69-4.46
				L1758.024,2771.792z"/>
		</g>
		<g opacity="0.25">
			<path fill="#371A45" d="M2411.718,1707.054c-92.974,117.746-259.383,214.061-449.267,214.061
				c-189.93,0-356.432-96.408-449.359-214.246c20.929-8.89,43.895-13.798,68.063-13.798h762.128
				C2367.592,1693.071,2390.743,1698.025,2411.718,1707.054z"/>
		</g>
		<g opacity="0.3">
			<path fill="#371A45" d="M2491.351,3446.993c-0.269,2.72-7.267,108.513-289.647,97.946
				c-119.702-4.502-187.779-27.418-216.935-90.412c-10.209-22.111-15.871-69.503-18.947-118.943l-2.63-189.641l-4.503,189.641
				c-3.076,49.44-8.738,96.832-18.947,118.943c-29.156,62.994-97.233,85.91-216.935,90.412
				c-282.381,10.566-289.38-95.227-289.648-97.946c-1.471-14.667,0.268-28.22,4.28-40.614
				c10.209,16.808,40.704,41.016,130.224,53.32c145.292,19.928,301.328,2.185,327.81-94.424
				c19.928-72.713,52.74-463.461-57.689-510.629c-170.748-72.98-233.43-131.65-185.951-141.102
				c24.119-4.814,87.698,15.203,310.423,15.203c222.726,0,286.305-20.018,310.423-15.203c47.479,9.451-15.202,68.121-185.95,141.102
				c-110.429,47.168-77.617,437.916-57.689,510.629c26.482,96.608,182.518,114.352,327.81,94.424
				c89.521-12.305,120.015-36.513,130.224-53.32C2491.082,3418.773,2492.821,3432.326,2491.351,3446.993z"/>
		</g>
		<g>
			<path fill="#FFFFFF" d="M2622.383,1377.057L2622.383,1377.057c-7.676-0.03-13.875-6.278-13.844-13.955l1.594-400.373
				c0.03-7.677,6.278-13.875,13.955-13.844l0,0c80.535,0.32,145.562,65.867,145.241,146.402l-0.544,136.529
				C2768.465,1312.351,2702.918,1377.378,2622.383,1377.057z"/>
			<path fill="#371A45" d="M2622.971,1380.386c-0.2,0-0.4,0-0.601,0h-0.003c-9.499-0.039-17.194-7.798-17.155-17.297l1.594-400.371
				c0.037-9.475,7.759-17.161,17.229-17.161c0.021,0,0.044,0,0.065,0c39.842,0.159,77.234,15.823,105.291,44.106
				c28.059,28.284,43.423,65.798,43.264,105.637l-0.542,136.528C2771.786,1313.87,2704.938,1380.386,2622.971,1380.386z
				 M2622.395,1373.73c0.188,0,0.388,0.002,0.576,0.002c78.317,0,142.178-63.545,142.487-141.929l0.542-136.528
				c0.154-38.062-14.526-73.904-41.333-100.925s-62.529-41.987-100.591-42.139c-0.015,0-0.029,0-0.041,0
				c-5.813,0-10.552,4.714-10.574,10.53l-1.594,400.374c-0.024,5.83,4.699,10.591,10.529,10.615H2622.395z"/>
		</g>
		<g opacity="0.35">
			<path fill="#371A45" d="M2769.04,1167.795l-0.241,64.033c-0.331,80.507-65.872,145.548-146.424,145.257
				c-7.675-0.022-13.869-6.311-13.847-13.985l0.389-106.434c2.136,4.86,6.979,8.23,12.614,8.296l9.494,0.011
				C2694.668,1265.242,2748.984,1224.659,2769.04,1167.795z"/>
		</g>
		<g>
			<path fill="#371A45" d="M2622.973,1395.581c-0.222,0-0.441-0.002-0.664-0.002h-0.002c-8.66-0.037-16.787-3.44-22.884-9.587
				c-6.101-6.15-9.44-14.304-9.404-22.964l1.595-400.371c0.068-17.83,14.6-32.292,32.419-32.292c0.044,0,0.086,0,0.127,0
				c43.901,0.176,85.103,17.434,116.019,48.599c30.918,31.165,47.847,72.502,47.671,116.399l-0.542,136.528
				C2786.947,1322.288,2713.29,1395.581,2622.973,1395.581z M2628.635,967.507l-1.556,390.967
				c68.079-2.166,122.913-58.081,123.187-126.731l0.542-136.528C2751.081,1026.567,2696.688,970.22,2628.635,967.507z"/>
		</g>
		<g>
			<path fill="#FFFFFF" d="M1302.55,943.625L1302.55,943.625c7.677,0.03,13.875,6.278,13.844,13.955l-1.594,400.373
				c-0.031,7.677-6.278,13.875-13.955,13.844l0,0c-80.535-0.32-145.562-65.867-145.241-146.402l0.543-136.529
				C1156.468,1008.331,1222.015,943.304,1302.55,943.625z"/>
			<path fill="#371A45" d="M1300.9,1375.125c-0.022,0-0.043,0-0.066,0c-39.841-0.159-77.234-15.823-105.293-44.104
				c-28.059-28.284-43.423-65.798-43.264-105.637l0.542-136.531c0.329-82.036,67.18-148.555,149.138-148.555c0.205,0,0.4,0,0.605,0
				c4.603,0.017,8.921,1.826,12.161,5.093c3.242,3.267,5.017,7.6,4.997,12.202l-1.592,400.371
				C1318.09,1367.441,1310.368,1375.125,1300.9,1375.125z M1301.957,946.951c-78.308,0-142.17,63.547-142.482,141.926
				l-0.542,136.531c-0.154,38.062,14.526,73.904,41.333,100.925c26.807,27.021,62.531,41.985,100.593,42.136
				c0.015,0,0.029,0,0.042,0c5.811,0,10.549-4.714,10.574-10.532l1.592-400.371c0.013-2.825-1.076-5.483-3.066-7.488
				c-1.987-2.004-4.639-3.115-7.461-3.125l0,0C1302.346,946.953,1302.15,946.951,1301.957,946.951z"/>
		</g>
		<g opacity="0.35">
			<path fill="#371A45" d="M1315.274,1246.881l-0.455,111.071c-0.022,7.674-6.312,13.868-13.984,13.847
				c-42.27-0.187-80.309-18.318-106.838-47.193c-23.957-26.076-38.524-60.95-38.378-99.187l0.226-57.53
				c22.66,50.564,73.455,85.93,132.501,86.176l14.61,0.056C1308.29,1254.13,1312.836,1251.201,1315.274,1246.881z"/>
		</g>
		<g>
			<path fill="#371A45" d="M1300.902,1390.317c-0.044,0-0.085,0-0.127,0c-43.901-0.173-85.103-17.434-116.021-48.596
				c-30.918-31.165-47.847-72.502-47.671-116.399l0.542-136.531c0.361-90.393,74.023-163.689,164.331-163.689
				c0.225,0,0.439,0.002,0.667,0.002c8.659,0.034,16.787,3.438,22.886,9.585c6.101,6.147,9.44,14.304,9.404,22.964l-1.592,400.371
				C1333.249,1375.859,1318.715,1390.317,1300.902,1390.317z M1297.854,962.209c-68.071,2.168-122.91,58.081-123.187,126.729
				l-0.542,136.531c-0.137,34.004,12.979,66.025,36.927,90.164c22.861,23.044,52.98,36.272,85.249,37.544L1297.854,962.209z"/>
		</g>
		<g>
			<circle fill="#FFFFFF" cx="1962.549" cy="1160.341" r="682.273"/>
			<path fill="#371A45" d="M1963.622,1845.986c-17.412,0-34.88-0.652-52.424-1.97c-376.98-28.315-660.64-358.047-632.324-735.027
				c28.315-376.978,358.063-660.596,735.026-632.324c376.98,28.318,660.64,358.049,632.324,735.027l-3.317-0.249l3.317,0.249
				c-13.716,182.617-97.727,348.962-236.555,468.391C2284.18,1788.04,2127.453,1845.986,1963.622,1845.986z M1962.067,481.372
				c-351.497,0-649.809,271.997-676.557,628.115c-28.04,373.32,252.866,699.854,626.187,727.893
				c180.825,13.577,356.152-44.067,493.635-162.341c137.48-118.271,220.674-283,234.258-463.845
				c28.04-373.32-252.866-699.851-626.187-727.893C1996.2,482.009,1979.047,481.372,1962.067,481.372z"/>
		</g>
		<g opacity="0.35">
			<path fill="#371A45" d="M2643.46,1116.774c2.022,31.088,1.854,62.691-0.541,94.677
				c-28.273,375.736-355.741,657.457-731.482,629.27c-375.736-28.272-657.456-355.741-629.27-731.481
				c0.805-10.806,1.868-21.602,3.186-32.212c20.992,334.637,286.015,610.97,629.811,636.804
				C2280.098,1741.214,2599.441,1476.278,2643.46,1116.774z"/>
		</g>
		<g>
			<path fill="#371A45" d="M1963.049,1861.157c-17.549,0-35.208-0.654-52.988-1.99c-385.335-28.943-675.281-365.981-646.338-751.316
				c28.942-385.337,366.003-675.293,751.315-646.338c385.335,28.945,675.281,365.984,646.338,751.316l-18.469-1.387l18.469,1.387
				C2633.769,1580.383,2325.822,1861.157,1963.049,1861.157z M1962.077,496.565c-343.628,0-635.267,265.913-661.416,614.06
				c-27.412,364.968,247.207,684.192,612.172,711.604c176.78,13.269,348.184-43.083,482.588-158.708
				s215.737-276.667,229.016-453.464c27.412-364.966-247.207-684.189-612.173-711.604
				C1995.446,497.188,1978.676,496.565,1962.077,496.565z"/>
		</g>
		<g>
			<path fill="#371A45" d="M2639.418,1228.754c-7.987,133.271-58.664,254.408-138.788,352.346
				c-60.068,73.424-296.141,194.078-577.859,179.732c-261.214-13.301-490.408-166.734-541.277-246.808
				c-67.853-106.807-103.698-233.129-95.71-366.401c21.138-352.676,332.906-480.719,706.719-458.315
				C2366.313,711.713,2660.557,876.079,2639.418,1228.754z"/>
		</g>
		<g>
			<path fill="#371A45" d="M1970.36,1780.564c-15.979,0-32.151-0.4-48.532-1.235c-270.926-13.794-502.466-171.155-555.967-255.371
				c-72.449-114.041-106.531-244.558-98.567-377.441c10.389-173.286,87.889-302.737,230.354-384.756
				c124.187-71.499,295.668-102.947,495.962-90.938c200.273,12.002,366.789,63.708,481.548,149.526
				c131.647,98.447,193.135,236.228,182.749,409.514c-7.967,132.886-57.396,258.396-142.942,362.966
				C2458.869,1661.394,2245.912,1780.564,1970.36,1780.564z M1911.654,705.359c-158.633,0-294.216,30.178-395.525,88.503
				c-130.986,75.41-202.265,194.807-211.858,354.871c-7.497,125.056,24.612,247.939,92.854,355.361
				c48.443,76.252,271.99,225.278,526.587,238.242c282.18,14.336,509.092-107.583,562.583-172.964
				c80.583-98.499,127.139-216.667,134.634-341.726l18.488,1.108l-18.488-1.108c25.988-433.582-431.595-507.986-629.536-519.851
				C1964.237,706.169,1937.624,705.359,1911.654,705.359z"/>
		</g>
		<g opacity="0.5">
			
				<ellipse transform="matrix(-0.9715 -0.2368 0.2368 -0.9715 4499.1689 2875.8071)" fill="#FFFFFF" cx="2422.32" cy="1167.66" rx="87.491" ry="120.741"/>
		</g>
		<g opacity="0.5">
			
				<ellipse transform="matrix(-0.9295 -0.3688 0.3688 -0.9295 3923.4946 3549.948)" fill="#FFFFFF" cx="2301.025" cy="1399.995" rx="47.558" ry="55.419"/>
		</g>
		<g opacity="0.7">
			<path fill="#111A28" d="M2527.501,891.85c78.007,83.912,120.382,195.236,111.911,336.884
				c-7.988,133.299-58.691,254.426-138.764,352.369c-60.086,73.422-296.179,194.068-577.894,179.751
				c-99.473-5.038-194.268-30.43-276.385-64.39c346.67,10.217,634.315-137.99,708.806-229.058
				c101.699-124.3,166.012-278.066,176.124-447.178C2534.037,975.032,2532.598,932.262,2527.501,891.85z"/>
		</g>
		<g>
			<path fill="#371A45" d="M2599.682,934.495c-4.538,0-9.082-1.665-12.651-5.037l-1.721-1.626l-1.346-2.087
				c-104.888-167.422-320.708-272.776-592.124-289.053c-272.891-16.331-499.731,65.466-622.29,224.473l-1.572,1.79
				c-7.023,7.437-18.601,7.627-26.04,0.603c-7.165-6.77-7.604-18.037-1.342-25.5c130.251-168.552,368.386-255.413,653.461-238.337
				c283.328,16.987,509.663,128.503,621.067,305.991c4.646,7.021,4.067,16.582-1.956,22.959
				C2609.516,932.537,2604.604,934.495,2599.682,934.495z"/>
		</g>
		<g opacity="0.5">
			<path fill="#FFFFFF" d="M1425.208,1366.539c0,0-88.377-354.463,107.436-481.869s465.543-110.678,458.198-93.756
				c0,0-302.981,54.401-433.984,283.497C1455.838,1251.073,1425.208,1366.539,1425.208,1366.539z"/>
		</g>
		<g>
			<path fill="#E5E5E5" d="M3053.23,1873.022l-289.6,82.911c-27.042,7.742-55.24-7.904-62.982-34.946l-148.619-519.105
				c-7.742-27.043,7.904-55.241,34.947-62.983l289.599-82.912c27.042-7.742,55.241,7.904,62.983,34.946l148.618,519.105
				C3095.919,1837.082,3080.273,1865.28,3053.23,1873.022z"/>
		</g>
		<g>
			<path fill="#BCBCBC" d="M3053.213,1873.011l-289.572,82.927c-27.039,7.732-55.237-7.917-62.969-34.958l-148.63-519.09
				c-5.463-19.169,0.787-38.939,14.492-51.487c0.047,0.277,0.093,0.556,0.186,0.833l148.629,519.089
				c7.732,27.041,35.931,42.69,62.971,34.958l289.618-82.927c7.917-2.269,14.816-6.25,20.465-11.482
				C3095.579,1837.636,3079.976,1865.371,3053.213,1873.011z"/>
		</g>
		<g>
			<path fill="#371A45" d="M2749.512,1976.453c-11.637,0-23.141-2.952-33.595-8.752c-16.223-9.001-27.969-23.782-33.073-41.616
				l-148.618-519.104c-5.107-17.834-2.964-36.592,6.037-52.813c9.002-16.223,23.782-27.969,41.616-33.074l289.6-82.913
				c17.835-5.1,36.59-2.964,52.813,6.04c16.221,9.001,27.967,23.779,33.071,41.614l148.621,519.106
				c10.539,36.819-10.838,75.347-47.654,85.886l-289.6,82.91C2762.39,1975.554,2755.93,1976.453,2749.512,1976.453z
				 M2890.642,1272.524c-2.996,0-6.009,0.42-8.968,1.267l-289.6,82.913c-8.322,2.383-15.222,7.864-19.421,15.435
				c-4.199,7.568-5.2,16.323-2.817,24.646l148.618,519.104c2.383,8.323,7.863,15.222,15.435,19.421
				c7.57,4.199,16.311,5.198,24.646,2.817l289.6-82.91l5.098,17.805l-5.098-17.805c17.181-4.919,27.158-22.9,22.239-40.081
				l-148.621-519.106c-2.383-8.323-7.863-15.22-15.435-19.419C2901.439,1273.904,2896.068,1272.524,2890.642,1272.524z"/>
		</g>
		<g>
			<path fill="#371A45" d="M2749.512,1976.453c-11.637,0-23.141-2.952-33.595-8.752c-16.223-9.001-27.969-23.782-33.073-41.616
				l-148.618-519.104c-5.107-17.834-2.964-36.592,6.037-52.813c9.002-16.223,23.782-27.969,41.616-33.074l289.6-82.913
				c17.835-5.1,36.59-2.964,52.813,6.04c16.221,9.001,27.967,23.779,33.071,41.614l148.621,519.106
				c10.539,36.819-10.838,75.347-47.654,85.886l-289.6,82.91C2762.39,1975.554,2755.93,1976.453,2749.512,1976.453z
				 M2890.642,1272.524c-2.996,0-6.009,0.42-8.968,1.267l-289.6,82.913c-8.322,2.383-15.222,7.864-19.421,15.435
				c-4.199,7.568-5.2,16.323-2.817,24.646l148.618,519.104c2.383,8.323,7.863,15.222,15.435,19.421
				c7.57,4.199,16.311,5.198,24.646,2.817l289.6-82.91l5.098,17.805l-5.098-17.805c17.181-4.919,27.158-22.9,22.239-40.081
				l-148.621-519.106c-2.383-8.323-7.863-15.22-15.435-19.419C2901.439,1273.904,2896.068,1272.524,2890.642,1272.524z"/>
		</g>
		<g>
			<path fill="#371A45" d="M2998.809,1783.926l-157.611,45.098l-78.574,22.503c-1.436,0.417-2.871,0.648-4.26,0.787
				c-10.881,1.019-21.253-5.788-24.354-16.669l-20.883-72.879l-49.45-172.752l-50.562-176.734
				c-3.519-12.27,3.565-25.096,15.882-28.615l131.08-37.504l105.105-30.096c8.288-2.361,16.808,0.093,22.549,5.741
				c2.778,2.686,4.908,6.112,6.065,10.14l29.587,103.392l30.883,107.791l60.424,211.183
				C3018.209,1767.582,3011.125,1780.407,2998.809,1783.926z"/>
		</g>
		<g opacity="0.4">
			<path fill="#FFFFFF" d="M2887.73,1322.806l-174.604,439.96l-49.45-172.752l96.4-242.853l105.105-30.096
				C2873.47,1314.704,2881.989,1317.158,2887.73,1322.806z"/>
		</g>
		<g opacity="0.4">
			<path fill="#FFFFFF" d="M2954.266,1544.129l-113.068,284.895l-78.574,22.503c-1.436,0.417-2.871,0.648-4.26,0.787l165.02-415.976
				L2954.266,1544.129z"/>
		</g>
		<g>
			<path fill="#371A45" d="M2756.213,1865.491c-6.063,0-12.059-1.541-17.505-4.563c-8.455-4.69-14.575-12.393-17.236-21.687
				l-120.918-422.354c-5.493-19.185,5.645-39.263,24.831-44.758l236.185-67.617c19.192-5.496,39.263,5.647,44.758,24.832
				l120.918,422.356c5.491,19.185-5.649,39.263-24.831,44.758l-236.187,67.617
				C2762.924,1865.022,2759.558,1865.491,2756.213,1865.491z M2871.527,1329.197c-0.918,0-1.853,0.127-2.778,0.393l-236.184,67.617
				c-5.356,1.533-8.47,7.141-6.934,12.5l120.918,422.356c0.742,2.595,2.451,4.746,4.812,6.055c2.361,1.309,5.093,1.633,7.686,0.879
				l236.187-67.617c5.356-1.533,8.467-7.144,6.934-12.502l-120.918-422.354C2879.979,1332.092,2875.925,1329.197,2871.527,1329.197z
				"/>
		</g>
		<g>
			<path fill="#FFFFFF" d="M2614.958,1621.679c0,0,109.106,14.076,109.106,88.159c0,50.201-47.121,61.498-95.055,52.184
				C2572.806,1751.101,2537.495,1652.097,2614.958,1621.679z"/>
		</g>
		<g opacity="0.25">
			<path fill="#371A45" d="M2724.054,1709.843c0,50.191-47.09,61.489-95.058,52.182c-39.773-7.732-69.037-59.498-55.377-99.919
				c8.057,27.086,29.494,50.747,55.377,55.794c40.051,7.778,79.5,1.157,91.4-30.42
				C2722.711,1694.24,2724.054,1701.694,2724.054,1709.843z"/>
		</g>
		<g>
			<path fill="#371A45" d="M2658.332,1783.547c-10.33,0-21.331-1.106-32.854-3.345c-37.915-7.366-69.465-45.313-73.391-88.264
				c-3.616-39.575,17.355-72.283,56.101-87.498l4.427-1.738l4.714,0.608c5.112,0.659,125.257,17.185,125.257,106.528
				c0,29.248-13.076,46.167-24.046,55.21C2703.72,1777.266,2682.941,1783.547,2658.332,1783.547z M2617.27,1640.83
				c-25.744,12.031-29.699,32.383-28.296,47.737c2.402,26.277,21.946,51.072,43.569,55.273c27.1,5.273,50.444,2.515,62.435-7.373
				c7.109-5.862,10.566-14.57,10.566-26.628C2705.544,1660.508,2636.19,1644.324,2617.27,1640.83z"/>
		</g>
		<g>
			<g>
				<path fill="#FFFFFF" d="M3042.921,1610.818c0,0-105.736,49.948-83.398,121.354c15.934,50.932,83.888,50.932,116.163,17.704
					C3110.364,1714.172,3125.801,1645.56,3042.921,1610.818z"/>
			</g>
			<g opacity="0.25">
				<path fill="#371A45" d="M3075.67,1749.894c-32.272,33.199-100.198,33.199-116.125-17.733
					c-4.307-13.706-3.844-26.624-0.371-38.523c22.781,37.042,80.936,34.125,110.013,4.167
					c11.854-12.224,21.485-28.291,25.605-45.561C3114.008,1685.998,3099.283,1725.586,3075.67,1749.894z"/>
			</g>
			<g>
				<path fill="#371A45" d="M3018.817,1791.45c-7.231,0-14.431-0.803-21.413-2.466c-27.134-6.465-47.383-25.156-55.557-51.282
					c-26.846-85.808,88.252-141.311,93.164-143.63l7.461-3.525l7.609,3.191c49.785,20.869,65.716,52.075,70.313,74.578
					c7.729,37.839-11.164,73.608-31.423,94.465C3071.242,1781.033,3044.848,1791.45,3018.817,1791.45z M3043.529,1631.414
					c-21.271,11.833-80.617,49.558-66.33,95.229c5.435,17.371,18.654,23.894,28.789,26.306c19.551,4.67,42.751-1.909,56.411-15.979
					c17.173-17.678,25.693-41.716,21.704-61.24C3080.412,1657.654,3066.774,1642.771,3043.529,1631.414z"/>
			</g>
		</g>
		<g>
			<g>
				<path fill="#FFFFFF" d="M3010.51,1499.693c0,0-105.736,49.948-83.398,121.354c15.934,50.932,83.889,50.932,116.163,17.704
					C3077.953,1603.048,3093.39,1534.436,3010.51,1499.693z"/>
			</g>
			<g opacity="0.25">
				<path fill="#371A45" d="M3043.259,1638.77c-32.272,33.198-100.198,33.198-116.126-17.733
					c-4.306-13.706-3.843-26.624-0.37-38.523c22.781,37.042,80.936,34.125,110.013,4.167c11.854-12.223,21.484-28.29,25.605-45.561
					C3081.596,1574.874,3066.872,1614.461,3043.259,1638.77z"/>
			</g>
			<g>
				<path fill="#371A45" d="M2986.408,1680.327c-7.231,0-14.432-0.803-21.414-2.466c-27.136-6.465-47.385-25.156-55.559-51.284
					c-26.846-85.808,88.252-141.309,93.164-143.628l7.461-3.525l7.609,3.191c49.788,20.869,65.718,52.075,70.315,74.578
					c7.729,37.837-11.165,73.606-31.424,94.463C3038.832,1669.907,3012.438,1680.327,2986.408,1680.327z M3011.117,1520.291
					c-21.271,11.831-80.617,49.556-66.33,95.227c5.435,17.371,18.654,23.894,28.789,26.309c19.556,4.661,42.751-1.917,56.413-15.979
					c17.173-17.681,25.691-41.719,21.704-61.24C3048,1546.531,3034.362,1531.648,3011.117,1520.291z"/>
			</g>
		</g>
		<g>
			<g>
				<path fill="#FFFFFF" d="M2968.838,1393.199c0,0-105.736,49.948-83.398,121.354c15.934,50.932,83.889,50.932,116.163,17.704
					C3036.281,1496.554,3051.718,1427.941,2968.838,1393.199z"/>
			</g>
			<g opacity="0.25">
				<path fill="#371A45" d="M3001.587,1532.275c-32.272,33.199-100.198,33.199-116.126-17.733
					c-4.305-13.705-3.843-26.624-0.37-38.523c22.781,37.042,80.937,34.125,110.014,4.167c11.853-12.224,21.484-28.291,25.604-45.561
					C3039.924,1468.379,3025.2,1507.967,3001.587,1532.275z"/>
			</g>
			<g>
				<path fill="#371A45" d="M2944.735,1573.833c-7.231,0-14.429-0.803-21.411-2.466c-27.136-6.462-47.388-25.156-55.562-51.284
					c-26.841-85.808,88.252-141.309,93.165-143.628l7.46-3.525l7.61,3.191c49.787,20.869,65.718,52.075,70.314,74.578
					c7.729,37.837-11.164,73.606-31.423,94.463C2997.16,1563.413,2970.764,1573.833,2944.735,1573.833z M2969.445,1413.796
					c-21.272,11.831-80.618,49.556-66.331,95.227c5.435,17.373,18.657,23.896,28.792,26.309
					c19.558,4.651,42.751-1.917,56.411-15.979c17.173-17.681,25.69-41.719,21.704-61.24
					C3006.327,1440.037,2992.689,1425.154,2969.445,1413.796z"/>
			</g>
		</g>
		<g>
			<path fill="#371A45" d="M2752.611,2261.707c-75.402,0.002-133.037-25.252-171.354-75.101
				c-97.947-127.417-31.743-369.773-28.877-380.027c2.754-9.849,12.966-15.603,22.814-12.849
				c9.849,2.749,15.605,12.964,12.861,22.813c-0.651,2.336-64.087,234.846,22.605,347.534
				c31.543,41.003,80.622,61.438,145.759,60.563c10.179-0.02,18.623,8.063,18.753,18.289c0.127,10.229-8.062,18.623-18.289,18.752
				C2755.456,2261.699,2754.027,2261.707,2752.611,2261.707z"/>
		</g>
		<path fill="#371A45" d="M2926.807,1870.351l-42.339,11.919c-5.12,1.441-10.44-1.542-11.882-6.662l-2.846-10.107
			c-1.441-5.121,1.541-10.441,6.662-11.882l42.339-11.919c5.121-1.442,10.44,1.541,11.883,6.662l2.845,10.107
			C2934.91,1863.59,2931.928,1868.91,2926.807,1870.351z"/>
	</g>
</g>
</svg>
