<?xml version="1.0" encoding="utf-8"?>
<!-- Generator: Adobe Illustrator 15.0.0, SVG Export Plug-In . SVG Version: 6.00 Build 0)  -->
<!DOCTYPE svg PUBLIC "-//W3C//DTD SVG 1.1//EN" "http://www.w3.org/Graphics/SVG/1.1/DTD/svg11.dtd">
<svg version="1.1" id="Layer_1" xmlns="http://www.w3.org/2000/svg" xmlns:xlink="http://www.w3.org/1999/xlink" x="0px" y="0px"
	 width="4000px" height="4000px" viewBox="0 0 4000 4000" enable-background="new 0 0 4000 4000" xml:space="preserve">
<g>
	<g>
		<g>
			<g>
				<g>
					<path fill="#FFFFFF" d="M1433.463,1753.19c-122.703,73.491-269.221,468.896-268.015,713.806
						c1.207,244.908,427.39,307.515,673.012,325.094c245.622,17.578,302.279-536.028,314.476-684.638
						C2171.979,1875.395,1615.28,1644.293,1433.463,1753.19z"/>
				</g>
			</g>
			<g opacity="0.25">
				<g>
					<path fill="#371A45" d="M1838.466,2792.092c-245.621-17.578-671.781-80.213-673.037-325.115
						c-0.131-32.07,2.217-66.701,6.775-102.864c62.083,60.177,161.199,22.657,179.31-41.147
						c58.219-205.103,130.967-340.946,198.304-430.428c77.931-103.558,218.877-138.502,335.576-82.122
						c152.006,73.439,276.74,185.116,267.514,297.049C2140.758,2256.059,2084.087,2809.67,1838.466,2792.092z"/>
				</g>
			</g>
			<g>
				<g>
					<path fill="#371A45" d="M1850.169,2811.323c-4.319,0-8.658-0.161-13.052-0.474c-314.332-22.495-689.277-100.396-690.477-343.76
						c-0.581-117.69,32.591-277.642,88.73-427.861c57.93-155.01,126.608-265.146,188.428-302.173l9.663,16.135l-9.663-16.135
						c122.332-73.274,381.504-4.502,551.46,101.233c134.144,83.45,203.898,179.587,196.421,270.701
						c-8.945,108.999-28.425,268.35-70.432,408.501C2042.783,2712.554,1958.348,2811.309,1850.169,2811.323z M1443.126,1769.326
						c-114.882,68.806-260.042,459.971-258.868,697.578c1.111,225.874,411.196,288.94,655.544,306.426
						c94.578,6.729,170.357-82.944,225.416-266.641c41.066-137.021,60.176-293.574,68.972-400.776
						c6.177-75.249-58.994-161.152-178.799-235.686C1774.397,1757.632,1539.822,1711.423,1443.126,1769.326L1443.126,1769.326z"/>
				</g>
			</g>
			<g>
				<g>
					<path fill="#FFFFFF" d="M1415.289,2162.005l-104.147-54.599c-23.539-12.341-52.618-1.311-61.91,23.59
						c-31.973,85.672-86.081,264.51-1.367,311.071c102.664,56.429,153.59-63.472,190.139-231.675
						C1442.215,2191.015,1432.852,2171.212,1415.289,2162.005z"/>
				</g>
			</g>
			<g opacity="0.25">
				<g>
					<path fill="#371A45" d="M1437.811,2210.096c-36.148,168.285-86.817,288.338-189.598,232.107
						c-42.228-23.029-50.111-79.001-43.432-139.921c7.141,18.377,18.574,33.221,35.764,42.593
						c92.026,50.291,142.319-40.656,177.7-181.134C1433.791,2173.434,1441.76,2191.976,1437.811,2210.096z"/>
				</g>
			</g>
			<g>
				<g>
					<path fill="#371A45" d="M1296.338,2475.054c-18.123,0-37.227-5.449-57.139-16.333c-95.339-52.119-45.905-231.704-7.951-334.111
						c6.267-16.904,19.519-30.317,36.359-36.807c16.892-6.494,35.783-5.435,51.831,2.939l104.271,54.36
						c25.065,13.071,38.435,41.431,32.517,68.965c-32.397,150.728-70.452,228.755-123.396,252.993
						C1321.189,2472.393,1309.002,2475.054,1296.338,2475.054z M1290.311,2121.177c-3.084,0-6.183,0.576-9.185,1.729
						c-6.868,2.646-12.054,7.896-14.604,14.78c-56.561,152.607-60.029,260.283-9.277,288.027
						c23.169,12.666,42.768,14.99,59.926,7.148c59.399-27.197,91.673-177.358,102.278-226.699
						c2.375-11.045-3.027-22.437-13.133-27.71l-104.268-54.355C1298.325,2122.153,1294.331,2121.177,1290.311,2121.177z"/>
				</g>
			</g>
			<g>
				<g>
					<path fill="#371A45" d="M1409.985,1765.315c13.003,6.184,25.514,12.449,38.125,18.906c12.566,6.45,25.045,13.059,37.443,19.829
						c24.772,13.579,49.224,27.834,72.89,43.56c4.333,2.878,5.511,8.721,2.634,13.054c-2.681,4.033-7.937,5.332-12.145,3.167
						l-0.071-0.039c-24.506-12.578-49.839-23.772-75.459-34.282c-12.824-5.232-25.716-10.308-38.667-15.215
						c-12.914-4.88-26.046-9.697-38.881-14.119l-0.1-0.034c-9.84-3.391-15.066-14.114-11.677-23.95
						c3.391-9.839,14.112-15.066,23.95-11.677C1408.697,1764.746,1409.36,1765.02,1409.985,1765.315z"/>
				</g>
			</g>
		</g>
		<g>
			<g>
				<path fill="#FFFFFF" d="M1808.231,2873.906c252.875,43.87,563.772,30.799,552.582,71.611
					c-4.984,18.15-109.745,439.124,98.648,470.203c312.592,46.645,446.27-2.867,446.6-110.685c0-1.834-0.047-3.621-0.095-5.407
					c-4.514-109.887-157.706-106.689-157.706-106.689s215.729-400.425,52.193-624.618
					c-82.475-112.942-266.605-137.723-370.19-142.331c-44.765-2.021-74.528-0.281-74.528-0.281S1756.32,2864.926,1808.231,2873.906z
					"/>
			</g>
		</g>
		<g opacity="0.25">
			<g>
				<path fill="#371A45" d="M1808.231,2873.906c252.875,43.87,563.772,30.799,552.582,71.611
					c-4.984,18.15-109.745,439.124,98.648,470.203c312.592,46.645,446.27-2.867,446.6-110.685c0-1.834-0.047-3.621-0.095-5.407
					c-30.563,23.979-95.498,48.807-236.512,38.838c-250.337-17.727-287.388-66.393-281.322-164.854
					c11.144-180.369,121.171-198.896,53.133-365.677c36.347-128.271,40.391-287.764-11.002-381.946
					c-44.765-2.021-74.528-0.281-74.528-0.281S1756.32,2864.926,1808.231,2873.906z"/>
			</g>
		</g>
		<g>
			<g>
				<path fill="#371A45" d="M2663.757,3451.948c-59.196,0-128.275-5.869-207.08-17.627c-43.952-6.558-78.645-28.926-103.112-66.479
					c-79.538-122.07-24.426-371.787-12.878-419.399c-24.275-9.995-113.936-15.913-193.738-21.177
					c-101.543-6.704-227.915-15.044-341.95-34.814c-9.185-1.592-16.153-7.964-18.187-16.636
					c-3.963-16.899-8.062-34.375,278.95-255.649c137.3-105.854,277.441-208.613,278.841-209.639l4.478-3.281l5.539-0.322
					c13.76-0.825,338.311-17.842,461.007,150.317c70.321,96.372,83.554,238.921,38.261,412.222
					c-23.906,91.475-57.635,168.125-75.986,206.372c31.543,3.516,80.935,14.194,113.691,46.367
					c22.183,21.782,33.381,49.673,33.284,82.9c-0.11,37.676-14.266,68.896-42.07,92.788
					C2840.906,3433.896,2767.536,3451.943,2663.757,3451.948z M1835.205,2859.316c105.755,16.655,220.627,24.238,314.222,30.415
					c157.185,10.371,209.354,15.63,225.483,38.291c4.746,6.67,6.181,14.648,4.038,22.456c-0.747,2.725-71.313,277.964,6.133,396.831
					c18.599,28.545,43.833,44.834,77.148,49.805c256.169,38.232,356.776,6.011,396.06-27.754
					c19.416-16.685,28.892-37.739,28.969-64.365c0.069-22.993-7.111-41.274-21.945-55.879
					c-38.911-38.32-115.886-37.363-116.677-37.354l-32.134,0.586l15.204-28.306c2.101-3.901,208.182-392.69,53.533-604.634
					c-102.688-140.732-380.674-136.636-423.005-135.166C2136.577,2609.741,1892.881,2798.384,1835.205,2859.316z M2345.212,2950.918
					h0.052H2345.212z M2342.669,2940.537c-0.008,0.034-0.018,0.063-0.024,0.093
					C2342.656,2940.591,2342.664,2940.562,2342.669,2940.537z"/>
			</g>
		</g>
		<g>
			<g>
				<path fill="#FFFFFF" d="M2235.106,2016.826l53.515,217.936c0,0,399.016,33.947,642.463-97.951
					c10.035-5.38,19.827-11.119,29.32-17.129c182.653-116.014,177.307-307.031,119.958-430.086
					c-121.808-261.268-458.668-389.368-572.433-281.826c-173.112,163.633,66.802,289.413,94.969,399.086
					c2.837,11.164,3.524,22.081,1.383,32.91C2580.91,1957.252,2235.106,2016.826,2235.106,2016.826z"/>
			</g>
		</g>
		<g opacity="0.25">
			<g>
				<path fill="#371A45" d="M2276.37,1984.037l78.007,210.416c0,0,371.188-17.109,598.013-175.896
					c-35.923,0.939-51.449-2.734-74.865-46.369c-39.544-73.869-135.747-219.632-259.693-238.675
					c4.091,10.767,6.019,21.535,5.125,32.538C2613.13,1885.436,2276.37,1984.037,2276.37,1984.037z"/>
			</g>
		</g>
		<g>
			<g>
				<path fill="#371A45" d="M2407.977,2257.749c-68.687,0-115.262-3.765-120.95-4.248c-10.35-0.879-18.024-9.98-17.146-20.332
					c0.881-10.352,10.041-17.993,20.331-17.148c4.273,0.371,429.165,34.473,660.107-112.222
					c172.186-109.368,168.47-287.197,112.975-406.25c-80.942-173.635-254.979-278.914-382.427-303.254
					c-70.454-13.447-127.278-3.818-160.015,27.122c-106.912,101.04-41.267,181.448,28.232,266.575
					c43.225,52.947,84.055,102.957,73.63,155.437c-25.125,126.509-347.705,185.596-384.404,191.914
					c-10.246,1.763-19.963-5.107-21.726-15.342c-1.766-10.234,5.103-19.963,15.339-21.729
					c128.785-22.209,338.745-85.876,353.896-162.173c6.97-35.093-28.413-78.433-65.874-124.319
					c-36.102-44.216-73.428-89.939-87.49-142.219c-16.792-62.429,3.67-119.829,62.556-175.483
					c41.763-39.465,110.271-52.507,192.911-36.731c136.555,26.079,322.937,138.689,409.463,324.309
					c66.828,143.359,53.511,339.307-126.897,453.892C2805.503,2240.347,2555.661,2257.749,2407.977,2257.749z"/>
			</g>
		</g>
		<g>
			<g>
				<path fill="#371A45" d="M2691.002,2233.877c-4.962,0-9.913-1.953-13.606-5.83c-6.118-6.421-149.202-159.839-94.261-382.595
					c2.485-10.085,12.681-16.245,22.767-13.757c10.085,2.488,16.245,12.681,13.757,22.766
					c-49.883,202.239,83.638,346.228,84.993,347.659c7.134,7.539,6.828,19.438-0.696,26.582
					C2700.313,2232.158,2695.652,2233.877,2691.002,2233.877z"/>
			</g>
		</g>
		<g>
			<g>
				<path fill="#FFFFFF" d="M809.379,1536.272c1.269,11.52,10.86,22.193,25.626,32.209c56.565,38.133,189.068,65.546,219.114,87.41
					c158.693,115.624,372.495,214.743,516.988,275.116c94.84,39.638,159.822,62.584,159.822,62.584l49.465-95.545l21.301-41.189
					l120.184-232.092c-32.443-9.828-66.11-20.501-100.388-31.786c-66.582-21.865-135.607-46.127-203.223-71.283
					c-229.6-85.436-442.366-181.499-484.967-232.375c-45.187-53.932-106.925-130.011-168.803-118.021
					c-39.827,7.711-117.881,30.046-133.161,106.078c-16.223,80.875,59.62,214.225,59.62,214.225S802.562,1473.547,809.379,1536.272z
					"/>
			</g>
		</g>
		<g opacity="0.25">
			<g>
				<path fill="#371A45" d="M835.005,1568.482c56.565,38.133,189.068,65.546,219.114,87.41
					c262.797,191.515,676.811,337.7,676.811,337.7l70.766-136.734l-155.449-77.302c0,0-282.31,8.558-498.744-121.829
					C1028.681,1586.114,920.77,1583.151,835.005,1568.482z"/>
			</g>
		</g>
		<g>
			<g>
				<path fill="#371A45" d="M1730.942,2012.422c-2.044,0-4.121-0.337-6.16-1.045c-3.726-1.289-375.954-131.511-681.271-339.934
					c-10.804-7.375-43.758-18.062-75.625-28.396c-100.615-32.627-172.217-59.238-177.18-104.749
					c-2.866-26.265,7.497-41.768,16.696-50.149c14.1-12.844,34.079-16.956,51.421-17.678
					c-22.219-45.925-58.535-133.948-45.907-196.814c12.604-62.744,63.788-104.526,148.021-120.828
					c71.148-13.806,136.021,63.723,183.353,120.325l3.439,4.111c57.913,69.17,473.838,236.802,779.598,329.478
					c9.938,3.015,15.556,13.516,12.543,23.457c-3.015,9.939-13.51,15.549-23.456,12.544
					c-286.357-86.797-728.294-258.638-797.527-341.333l-3.452-4.126c-41.323-49.417-97.923-117.046-147.349-107.527
					c-69.003,13.357-108.804,44.077-118.291,91.306c-14.671,73.03,56.772,199.98,57.498,201.255c3.643,6.414,3.2,14.37-1.136,20.339
					s-11.76,8.857-18.987,7.378c-12.81-2.563-43.039-4.5-54.458,5.942c-1.643,1.501-6.002,5.491-4.614,18.242
					c0.255,2.312,3.67,14.851,46.268,34.648c30.657,14.248,70.221,27.078,105.122,38.396c39.09,12.676,69.966,22.688,85.229,33.108
					c301.221,205.627,668.709,334.189,672.386,335.464c9.813,3.403,15.012,14.116,11.611,23.931
					C1746.019,2007.544,1738.732,2012.422,1730.942,2012.422z"/>
			</g>
		</g>
		<g>
			<g>
				<path fill="#FFFFFF" d="M1973.272,2895.912c155.12,11.566,365.583-32.727,428.261-231.199
					c48.479-153.38-33.948-249.113,12.508-526.251c1.128-6.818,2.351-13.777,3.667-20.83c0,0,201.529-357.354-163.771-552.677
					c-177.878-95.123-326.649-46.691-432.445,28.024c-66.063,46.644-115.435,103.585-144.588,142.189
					c-20.077,26.519-30.657,44.387-30.657,44.387c-25.25,48.29-50.594,97.379-75.139,151.452
					c-52.192,115.012-100.529,252.688-135.324,453.417C1398.966,2596.816,1438.839,2856.085,1973.272,2895.912z"/>
			</g>
		</g>
		<g opacity="0.25">
			<g>
				<path fill="#371A45" d="M1973.272,2895.912c155.12,11.566,365.583-32.727,428.261-231.199c2.633-8.275,4.843-16.41,6.771-24.403
					c-86.8,132.222-259.271,162.925-391.491,153.099c-534.434-39.874-574.307-299.097-537.489-511.487
					c26.096-150.653,59.857-265.806,97.097-362.48c-54.215,117.363-104.668,257.436-140.638,464.984
					C1398.966,2596.816,1438.839,2856.085,1973.272,2895.912z"/>
			</g>
		</g>
		<g>
			<g>
				<path fill="#371A45" d="M1651.781,1782.444c-16.883,52.085-38.837,101.086-60.141,150.088
					c-21.089,49.099-41.168,98.423-59.341,148.575c-18.028,50.188-33.321,101.421-46.082,153.335
					c-12.707,51.908-23.289,104.504-32.563,157.139c-8.72,51.926-12.327,104.597-5.736,155.693
					c6.394,51.013,24.053,100.039,53.747,141.201c29.404,41.403,70.152,74.311,115.404,99.438
					c22.659,12.607,46.481,23.398,71.016,32.62c24.516,9.263,49.67,17.139,75.238,23.745
					c51.151,13.208,103.683,22.007,156.632,27.798c13.239,1.44,26.499,2.796,39.797,3.845c13.397,1.141,26.36,2.164,39.444,2.532
					c26.151,0.879,52.367,0.024,78.344-2.581c51.888-5.268,103.129-17.678,149.52-39.727c46.347-21.904,87.33-54.211,116.465-95.573
					c29.259-41.087,46.893-90.884,52.836-141.331c5.991-50.658-1.482-103.242-7.387-157.17c-2.989-26.975-5.575-54.266-7.117-81.707
					c-1.514-27.436-2.719-55.007-2.164-82.575c1.548-55.032,9.041-110.273,31.863-161.279c1.455-3.252,5.271-4.707,8.521-3.252
					c2.241,1.001,3.629,3.125,3.8,5.41l0.008,0.124c2.009,27.672,1.032,54.383-0.124,80.965c-1.476,26.535-2.662,52.922-3.86,79.305
					c-1.169,26.379-1.713,52.826-0.38,79.289c1.288,26.465,3.932,52.923,6.843,79.592c2.898,26.699,6.34,53.616,8.292,81.268
					c1.014,13.794,1.637,27.771,1.521,41.87c-0.025,14.079-0.754,28.288-2.442,42.435c-3.074,28.379-10.097,56.195-19.775,82.937
					c-9.815,26.765-23.116,52.456-39.749,75.879c-16.567,23.464-36.532,44.524-58.746,62.546
					c-22.215,18.06-46.67,33.063-72.235,45.232c-51.255,24.334-106.538,37.547-161.904,43.188
					c-27.729,2.783-55.581,3.685-83.372,2.751c-13.899-0.393-27.852-1.491-41.342-2.641c-13.604-1.077-27.2-2.464-40.786-3.943
					c-54.335-5.949-108.562-14.99-161.957-28.779c-26.688-6.896-53.125-15.156-79.101-24.971
					c-25.983-9.773-51.464-21.289-75.982-34.927c-48.898-27.139-94.414-63.567-127.709-110.423
					c-16.677-23.275-30.249-48.832-40.268-75.593c-10.064-26.761-16.574-54.651-20.193-82.663
					c-7.218-56.155-3.163-112.396,5.944-166.766c9.454-53.677,20.177-106.953,33.138-159.912
					c13.142-52.883,28.197-105.361,45.454-157.192c17.135-51.858,37.395-102.8,61.379-151.792
					c23.719-49.126,51.048-96.216,84.137-139.807c2.123-2.798,6.112-3.345,8.91-1.221
					C1651.786,1777.092,1652.585,1779.944,1651.781,1782.444z"/>
			</g>
		</g>
		<g>
			<g>
				<path fill="#FFFFFF" d="M1463.506,2312.85c-83.038,172.319-419.587,888.406-450.926,882.357
					c-169.466,1.07-208.917,239.784,173.41,239.784c377.938,0,472.97-480.799,651.465-663.446L1463.506,2312.85z"/>
			</g>
		</g>
		<g opacity="0.25">
			<g>
				<path fill="#371A45" d="M1186.011,3435c368.452,0,467.993-457.084,638.207-649.21
					c-250.289,144.493-293.454,549.902-647.517,549.902c-156.343,0-242.483-36.957-278.031-80.687
					C861.9,3326.054,927.682,3435,1186.011,3435z"/>
			</g>
		</g>
		<g>
			<g>
				<path fill="#371A45" d="M1480.449,2321.014l-106.084,224.408c-35.558,74.762-71.295,149.451-107.427,223.98
					c-36.077,74.561-72.75,148.848-110.483,222.734c-18.886,36.943-37.999,73.786-57.893,110.412
					c-9.972,18.313-20.106,36.561-30.866,54.738c-5.402,9.098-10.927,18.157-17.007,27.291c-3.067,4.582-6.232,9.154-9.988,13.952
					c-1.923,2.422-3.903,4.856-6.668,7.666c-1.428,1.419-2.947,2.915-5.541,4.814c-1.296,0.923-2.861,2.007-5.553,3.21
					c-0.588,0.271-1.416,0.596-2.309,0.889c-0.771,0.267-1.845,0.564-3.025,0.797c-2.163,0.449-5.482,0.717-9.022,0.039l4.131,0.381
					c-27.636,0.139-55.008,7.924-74.881,24.025c-9.895,7.959-17.741,17.861-22.413,28.76c-4.696,10.898-6.05,22.705-4.049,34.258
					c1.97,11.572,7.398,22.883,15.269,33.094c7.944,10.186,18.181,19.307,29.77,27.07c11.569,7.813,24.369,14.421,37.852,19.932
					c13.449,5.583,27.533,10.166,41.949,13.945c28.855,7.553,58.952,11.999,89.342,14.426c30.305,2.303,61.568,3.281,91.065,1.32
					c29.777-2.23,59.207-7.746,87.435-17.072c28.271-9.191,55.28-22.158,80.654-37.998c50.849-31.766,94.385-75.308,132.493-123.273
					c38.176-48.111,71.237-100.789,102.589-154.727c31.385-53.982,60.913-109.461,92.76-164.285
					c16.032-27.346,32.246-54.839,51.428-80.656c19.302-25.605,40.622-50.472,66.754-70.174c4.194-3.162,10.159-2.324,13.322,1.87
					c2.542,3.374,2.499,7.894,0.202,11.177l-0.073,0.1c-17.788,25.374-34.628,50.809-50.793,77.078
					c-16.289,26.121-32.544,52.541-48.1,79.559c-31.086,54.072-60.416,109.787-91.988,164.689
					c-31.573,54.878-65.251,109.24-105.058,159.91c-39.746,50.473-86.088,97.631-141.979,132.949
					c-27.866,17.588-57.889,32.188-89.387,42.593c-31.45,10.549-64.26,16.851-97.155,19.455
					c-33.257,2.314-65.029,1.387-97.409-0.869c-32.281-2.425-64.676-6.978-96.72-15.183c-31.94-8.318-63.911-19.98-92.97-39.598
					c-14.476-9.751-28.158-21.662-39.55-36.301c-11.295-14.632-20.163-32.356-23.476-51.858c-3.418-19.421-0.93-40.127,6.891-58.093
					c7.749-18.05,20.222-33.338,34.798-45.047c14.607-11.755,31.306-20.132,48.547-25.42c17.256-5.4,35.059-7.717,52.613-7.896
					l4.134,0.381c-6.216-1.006-9.14,0.562-10.594,1.067c-1.508,0.686-1.972,1.076-2.225,1.234c-0.497,0.384-0.118,0.11,0.276-0.305
					c0.872-0.869,2.2-2.424,3.484-4.058c2.626-3.343,5.378-7.263,8.063-11.279c5.392-8.081,10.659-16.683,15.825-25.371
					c10.329-17.419,20.306-35.339,30.134-53.356c19.63-36.08,38.657-72.682,57.464-109.407
					c37.55-73.506,74.193-147.604,110.803-221.731c73.163-148.334,144.251-297.617,216.752-446.576
					c4.546-9.342,15.802-13.229,25.143-8.682c9.271,4.514,13.169,15.639,8.778,24.938L1480.449,2321.014z"/>
			</g>
		</g>
		<g>
			<g>
				<path fill="#6B184E" d="M2776.668,1759.841c-2.975,0-5.989-0.696-8.812-2.166c-9.351-4.873-12.986-16.399-8.125-25.754l0,0
					c0.623-1.199,61.567-120.652,4.324-174.275c-16.041-15.029-32.752-20.901-51.165-17.949
					c-31.323,5.024-65.888,35.806-90.205,80.332c-5.058,9.258-16.67,12.656-25.925,7.61c-9.261-5.059-12.669-16.665-7.61-25.925
					c30.31-55.498,74.305-92.786,117.688-99.746c29.995-4.807,58.796,4.802,83.339,27.793c78.372,73.416,6.546,213.857,3.45,219.8
					C2790.223,1756.096,2783.563,1759.841,2776.668,1759.841z"/>
			</g>
		</g>
		<g>
			<g opacity="0.25">
				<g>
					<path fill="#371A45" d="M1618.269,1521.696c8.323,75.75,28.541,147.456,58.635,213.472
						c26.99,59.34,61.973,114.071,103.491,162.878c65.829,77.537,148.114,140.262,240.933,183.192
						c12.179,5.596,24.545,10.908,37.052,15.846c34.373,13.542,70.014,24.45,106.643,32.396
						c30.327,6.631,61.408,11.285,92.958,13.777c36.63,3.009,73.917,3.104,111.721,0.141c12.508-1.034,24.921-2.304,37.194-3.949
						c2.396-0.33,4.795-0.658,7.146-0.987c1.128-6.818,2.351-13.777,3.667-20.83c0,0,201.529-357.354-163.771-552.677
						c-177.878-95.123-326.649-46.691-432.445,28.024C1754.909,1571.115,1685.884,1546.852,1618.269,1521.696z"/>
				</g>
			</g>
			<g>
				<g>
					<path fill="#FFFFFF" d="M2898.396,1858.629c-85.839,79.77-191.959,138.43-310.815,167.199
						c-24.239,5.854-48.935,10.496-74.101,13.797c-12.24,1.645-24.662,2.914-37.193,3.962c-37.78,2.954-75.068,2.845-111.684-0.138
						c-31.565-2.494-62.629-7.176-92.971-13.784c-36.647-7.962-72.285-18.87-106.657-32.388
						c-12.519-4.972-24.867-10.261-37.045-15.862c-222.692-103.017-384.713-320.015-405.166-582.035
						c-30.209-385.975,258.231-723.313,644.15-753.541c74.332-5.769,146.948,0.172,215.817,16.506
						c8.067,1.832,16.114,3.907,24.104,6.147c21.411,5.847,42.423,12.675,62.981,20.465c47.544,18.031,92.723,41.151,134.781,68.667
						c42.076,27.462,81.124,59.412,116.33,95.14c11.202,11.354,22.029,23.075,32.462,35.222
						c15.622,18.208,30.364,37.172,44.113,57.039c68.719,98.697,112.9,216.438,122.934,345.022
						C3137.824,1512.074,3049.757,1717.965,2898.396,1858.629z"/>
				</g>
			</g>
			<g opacity="0.25">
				<g>
					<path fill="#371A45" d="M1722.773,1399.365c20.422,262.038,182.471,479.06,405.176,582.04
						c12.173,5.619,24.512,10.906,37.017,15.859c34.375,13.536,70.016,24.416,106.65,32.403
						c30.353,6.585,61.423,11.292,92.964,13.786c36.634,2.999,73.907,3.101,111.713,0.154c12.52-1.093,24.931-2.337,37.186-3.954
						c25.175-3.315,49.86-8.001,74.104-13.837c118.856-28.77,224.983-87.395,310.83-167.201
						c47.163-43.812,88.206-93.998,121.807-149.016c-83.65,74.262-185.448,128.875-298.84,156.328
						c-24.24,5.899-48.931,10.521-74.105,13.837c-12.22,1.646-24.632,2.891-37.186,3.954c-37.806,2.946-75.079,2.843-111.679-0.124
						c-31.575-2.525-62.611-7.202-92.964-13.787c-36.634-7.988-72.31-18.897-106.65-32.403
						c-12.539-4.984-24.878-10.27-37.051-15.889c-222.705-102.98-384.719-319.973-405.176-582.04
						c-11.976-152.875,26.092-298.091,100.342-419.611C1798.132,960.665,1704.926,1171.547,1722.773,1399.365z"/>
				</g>
			</g>
			<g>
				<g>
					<path fill="#371A45" d="M2421.187,2060.317c-19.353,0-38.65-0.781-57.768-2.339c-31.521-2.485-63.463-7.222-94.892-14.072
						c-36.778-7.983-73.417-19.111-108.889-33.062c-12.732-5.059-25.435-10.496-37.8-16.184
						c-235.013-108.716-393.486-336.375-413.611-594.146c-30.786-393.333,264.19-738.401,657.549-769.209
						c74.624-5.793,148.75-0.122,220.32,16.855c7.805,1.77,15.92,3.838,24.673,6.292c21.667,5.918,43.305,12.947,64.213,20.872
						c48.069,18.228,94.363,41.814,137.596,70.1c42.842,27.959,82.793,60.635,118.733,97.104
						c11.548,11.704,22.697,23.804,33.137,35.957c16.255,18.943,31.406,38.538,45.044,58.242
						c72.195,103.689,115.593,225.483,125.48,352.183c17.154,219.048-65.458,430.596-226.652,580.398v0.002
						c-89.375,83.052-199.099,142.075-317.31,170.688c-25.009,6.04-50.454,10.776-75.634,14.077
						c-11.474,1.543-23.877,2.866-37.875,4.038C2458.762,2059.585,2439.946,2060.317,2421.187,2060.317z M2422.282,658.267
						c-18.029,0-36.117,0.703-54.239,2.109c-377.32,29.553-660.277,360.559-630.743,737.866
						c19.302,247.273,171.328,465.662,396.751,569.941c11.872,5.459,24.097,10.693,36.309,15.544
						c33.972,13.362,69.101,24.031,104.364,31.687c30.157,6.572,60.777,11.113,91.025,13.496
						c36.146,2.949,72.94,2.993,109.402,0.142c13.426-1.123,25.354-2.393,36.384-3.877c24.204-3.174,48.624-7.72,72.622-13.516
						c113.36-27.441,218.593-84.05,304.314-163.711c154.636-143.706,233.887-346.641,217.43-556.765
						c-9.482-121.538-51.104-238.357-120.364-337.83c-13.089-18.911-27.619-37.7-43.213-55.874
						c-10-11.643-20.691-23.245-31.775-34.478c-34.484-34.995-72.813-66.338-113.921-93.169
						c-41.483-27.144-85.886-49.763-131.979-67.244c-20.042-7.595-40.786-14.336-61.655-20.034
						c-8.374-2.346-16.025-4.299-23.488-5.991C2528.147,664.382,2475.481,658.267,2422.282,658.267z M2898.396,1858.63h0.048
						H2898.396z"/>
				</g>
			</g>
			<g>
				<g>
					<path fill="#371A45" d="M2421.182,2064.546c-19.468,0-38.877-0.786-58.108-2.354c-31.701-2.5-63.83-7.266-95.445-14.15
						c-36.998-8.037-73.855-19.229-109.537-33.262c-12.814-5.088-25.586-10.56-38.021-16.277
						c-236.405-109.363-395.817-338.364-416.057-597.659c-30.97-395.657,265.75-742.764,661.431-773.755
						c75.059-5.835,149.626-0.125,221.629,16.956c7.834,1.777,16.016,3.862,24.836,6.335c21.772,5.945,43.538,13.018,64.572,20.989
						c48.354,18.337,94.922,42.063,138.414,70.515c43.088,28.123,83.276,60.991,119.428,97.678
						c11.614,11.768,22.83,23.94,33.333,36.169c16.35,19.055,31.595,38.765,45.313,58.589
						c72.617,104.297,116.274,226.814,126.219,354.263c17.256,220.339-65.843,433.137-227.989,583.823l0,0
						c-89.904,83.547-200.279,142.92-319.193,171.704c-25.157,6.074-50.75,10.84-76.079,14.16
						c-11.528,1.553-24.002,2.881-38.069,4.058C2458.992,2063.809,2440.059,2064.546,2421.182,2064.546z M2422.275,662.495
						c-17.918,0-35.894,0.698-53.906,2.097c-374.992,29.37-656.204,358.337-626.855,733.32
						c19.185,245.752,170.276,462.795,394.312,566.433c11.797,5.425,23.952,10.63,36.094,15.452
						c33.747,13.274,68.659,23.875,103.704,31.487c29.971,6.528,60.399,11.04,90.458,13.413c35.931,2.93,72.5,2.969,108.738,0.142
						c13.333-1.118,25.192-2.383,36.152-3.857c24.069-3.154,48.34-7.671,72.192-13.433
						c112.654-27.268,217.236-83.528,302.43-162.695l0,0c153.684-142.825,232.446-344.509,216.094-553.34
						c-9.427-120.789-50.791-236.885-119.619-335.742c-13.013-18.804-27.454-37.473-42.954-55.537
						c-9.935-11.567-20.56-23.096-31.575-34.26c-34.274-34.783-72.366-65.935-113.223-92.6
						c-41.232-26.978-85.359-49.458-131.169-66.831c-19.912-7.546-40.528-14.243-61.271-19.907
						c-8.329-2.336-15.915-4.27-23.308-5.947C2527.5,668.574,2475.151,662.495,2422.275,662.495z M2898.396,1858.63h0.048H2898.396z
						"/>
				</g>
			</g>
			<g>
				<g>
					<path fill="#371A45" d="M2752.22,1963.032c-480.896,140.512-944.735-232.049-814.205-710.789
						c88.805-325.707,476.271-490.224,783.631-384.9c223.701,76.656,408.564,249.355,384.505,629.07
						c0,0-36.609,166.449-116.199,258.623c-79.59,92.174-172.553,168.385-172.553,168.385L2752.22,1963.032z"/>
				</g>
			</g>
			<g>
				<g>
					<path fill="#220F2D" d="M1938.031,1252.252c-130.538,478.724,333.317,851.285,814.187,710.798l13.206-8.043
						c-453.93-68.142-794.001-468.519-671.029-955.011C2021.26,1066.571,1965.452,1151.745,1938.031,1252.252z"/>
				</g>
			</g>
			<g>
				<g>
					<path fill="#371A45" d="M2421.182,2064.546c-19.468,0-38.877-0.786-58.108-2.354l-2.927-0.474
						c-191.89-46.782-355.781-164.917-449.651-324.109c-89.805-152.295-111.177-328.542-61.806-509.69
						c45.441-166.692,161.252-306.599,326.101-393.95c179.362-95.037,395.794-114.307,578.953-51.548
						c102.817,35.234,189.17,85.337,256.657,148.914l1.421,1.338l1.116,1.604c72.648,104.341,116.306,226.858,126.25,354.307
						c17.256,220.339-65.843,433.137-227.989,583.823l0,0c-89.904,83.547-200.279,142.92-319.193,171.704
						c-25.157,6.074-50.75,10.84-76.079,14.16c-11.528,1.553-24.002,2.881-38.069,4.058
						C2458.992,2063.809,2440.059,2064.546,2421.182,2064.546z M2367.612,2024.819c35.415,2.808,71.475,2.808,107.207,0.02
						c13.333-1.118,25.192-2.383,36.152-3.857c24.069-3.154,48.34-7.671,72.192-13.433
						c112.654-27.268,217.236-83.528,302.43-162.695l0,0c153.684-142.825,232.446-344.509,216.094-553.34
						c-9.375-120.134-50.345-235.627-118.504-334.133c-63.359-59.248-144.644-106.135-241.633-139.373
						c-173.514-59.46-378.801-41.067-549.148,49.199c-155.566,82.432-264.743,214.05-307.42,370.605
						c-46.638,171.123-26.61,337.344,57.915,480.691C2031.409,1868.608,2186.143,1980.19,2367.612,2024.819z M2898.396,1858.63
						h0.048H2898.396z"/>
				</g>
			</g>
			<g>
				<g>
					<path fill="#371A45" d="M2545.474,2011.689c-179.458,0-350.598-65.583-475.264-188.015
						c-154.143-151.379-208.94-361.46-150.342-576.379c40.588-148.86,143.989-273.787,291.159-351.765
						c160.063-84.814,353.226-102,516.715-45.981c284.616,97.532,418.247,315.569,397.177,648.052l-0.399,2.852
						c-1.536,6.985-38.572,172.188-120.332,266.875c-79.731,92.339-171.019,167.485-174.866,170.64l-2.156,1.526l-67.295,40.898
						l-2.375,0.696C2687.08,2001.66,2615.632,2011.689,2545.474,2011.689z M2527.405,854.639
						c-102.151,0-206.258,25.112-298.766,74.128c-137.887,73.062-234.655,189.697-272.478,328.423
						c-54.912,201.396-3.738,398.088,140.405,539.646c163.159,160.237,411.263,217.153,648.013,148.831l61.882-37.61
						c10.157-8.438,96.048-80.535,169.253-165.315c71.808-83.159,108.089-233.215,111.758-249.028
						c19.373-312.629-105.757-517.368-371.924-608.579C2655.928,864.705,2592.051,854.639,2527.405,854.639z M2752.219,1963.032
						h0.052H2752.219z"/>
				</g>
			</g>
			<g>
				<g>
					<path fill="#FFFFFF" d="M1653.349,1123.57c-52.163,128.063-20.267,266.209,71.244,308.558
						c91.511,42.349,207.98-27.137,260.144-155.201c52.164-128.063,20.267-266.209-71.243-308.558
						C1821.982,926.021,1705.513,995.507,1653.349,1123.57z"/>
				</g>
			</g>
			<g>
				<g>
					<path fill="#FFFFFF" d="M1987.933,1268.767c-1.007,2.729-2.099,5.439-3.19,8.149
						c-52.188,128.088-168.634,197.563-260.136,155.197c-74.113-34.268-109.151-131.429-92.036-235.168
						c3.979-24.342,10.885-49.039,20.782-73.375c52.138-128.054,168.635-197.563,260.136-155.197
						C2003.077,1009.815,2035.505,1143.049,1987.933,1268.767z"/>
				</g>
			</g>
			<g opacity="0.25">
				<g>
					<path fill="#371A45" d="M1987.933,1268.767c-1.007,2.729-2.099,5.439-3.19,8.149
						c-52.188,128.088-168.634,197.563-260.136,155.197c-74.113-34.268-109.151-131.429-92.036-235.168l204.853-53.277
						c0,0-0.408,114.678,60.263,138.337C1938.164,1297.769,1970.746,1281.365,1987.933,1268.767z"/>
				</g>
			</g>
			<g>
				<g>
					<path fill="#371A45" d="M1781.406,1463.423c-22.437,0-44.221-4.741-64.712-14.226
						c-100.347-46.438-136.577-195.696-80.764-332.722l0,0c32.453-79.673,88.972-140.3,155.063-166.338
						c45.188-17.8,90.283-17.405,130.397,1.165c100.347,46.438,136.577,195.696,80.765,332.72
						c-32.454,79.675-88.973,140.303-155.063,166.34C1824.985,1459.07,1802.896,1463.423,1781.406,1463.423z M1670.77,1130.664
						c-48.348,118.691-20.657,246.272,61.724,284.397c30.556,14.143,65.414,14.248,100.813,0.303
						c55.739-21.96,105.84-76.365,134.012-145.532c48.347-118.691,20.659-246.27-61.724-284.395
						c-30.558-14.141-65.418-14.246-100.813-0.303C1749.04,1007.095,1698.94,1061.499,1670.77,1130.664L1670.77,1130.664z"/>
				</g>
			</g>
			<g>
				<g>
					<path fill="#FFFFFF" d="M1603.906,1212.275c-7.645,107.419,54.604,187.864,139.035,179.679
						c84.433-8.185,159.076-101.899,166.722-209.318c7.646-107.419-54.603-187.864-139.034-179.679
						C1686.195,1011.142,1611.552,1104.856,1603.906,1212.275z"/>
				</g>
				<g>
					<path fill="#371A45" d="M1731.014,1394.504c-30.513,0-58.313-11.482-81.004-33.599c-34.856-33.977-52.375-88.201-48.064-148.77
						l0,0c7.698-108.159,83.284-202.876,168.492-211.138c35.258-3.433,67.46,7.993,93.122,33.008
						c34.855,33.977,52.376,88.201,48.063,148.77c-7.697,108.159-83.283,202.876-168.491,211.138
						C1739.051,1394.309,1735.007,1394.504,1731.014,1394.504z M1605.867,1212.415c-4.227,59.412,12.863,112.507,46.887,145.674
						c24.805,24.177,55.911,35.205,89.998,31.909c83.386-8.083,157.38-101.169,164.95-207.5
						c4.227-59.412-12.863-112.507-46.887-145.674c-24.805-24.18-55.913-35.232-89.997-31.909
						C1687.432,1012.998,1613.438,1106.084,1605.867,1212.415L1605.867,1212.415z"/>
				</g>
			</g>
			<g opacity="0.25">
				<g>
					<path fill="#371A45" d="M1846.594,1330.443c22.302-30.39,36.348-67.005,42.038-104.443
						c-56.687,65.013-137.973,67.846-187.378,3.813c-31.943-41.363-43.188-101.163-34.35-159.091
						c-3.603,4.077-7.086,8.488-10.478,13.09c-56.753,77.413-60.194,195.381-7.667,263.486
						C1701.286,1415.403,1789.862,1407.808,1846.594,1330.443z"/>
				</g>
			</g>
			<g>
				<g>
					<path fill="#371A45" d="M1722.256,1409.563c-16.896,0-33.234-3.616-48.533-10.84c-78.905-37.278-104.304-156.88-57.819-272.285
						c27.275-67.72,75.428-120.63,128.807-141.536c34.076-13.35,67.829-12.969,97.617,1.104
						c78.905,37.278,104.304,156.88,57.819,272.285c-27.275,67.72-75.428,120.63-128.807,141.536
						C1754.764,1406.318,1738.26,1409.563,1722.256,1409.563z M1793.738,1012.844c-11.378,0-23.253,2.361-35.311,7.085
						c-43.916,17.2-84.153,62.268-107.632,120.562l0,0c-37.749,93.721-19.89,196.399,38.997,224.219
						c20.183,9.539,43.638,9.57,67.829,0.09c43.916-17.2,84.152-62.268,107.632-120.562
						c37.749-93.721,19.893-196.401-38.997-224.219C1816.136,1015.237,1805.188,1012.844,1793.738,1012.844z M1633.35,1133.464
						h0.049H1633.35z"/>
				</g>
			</g>
			<g opacity="0.5">
				<g>
					<path fill="#FFFFFF" d="M2513.83,941.462c0,0,283.976,118.007,386.392,339.864c0.108,0.233,0.216,0.466,0.322,0.699
						c21.516,46.712,29.994,98.413,24.945,149.593c-6.677,67.684-21.192,113.349-35.523,153.056
						c-43.636,120.741-86.669,169.156-86.669,169.156c91.73-38.979,156.604-97.418,193.946-197.627
						c3.655-9.888,7.059-20.22,10.219-30.935c0.735-2.466,1.41-4.927,2.053-7.417c0.062-0.004,0.057-0.065,0.019-0.155
						c4.872-22.152,10.177-51.504,13.394-85.113c9.764-101.358,0.822-241.398-95.244-339.602
						C2748.057,909.354,2508.441,925.259,2513.83,941.462z"/>
				</g>
			</g>
			<g opacity="0.5">
				<g>
					
						<ellipse transform="matrix(0.8207 0.5714 -0.5714 0.8207 1054.031 -1043.8445)" fill="#FFFFFF" cx="2190.096" cy="1157.387" rx="93.7" ry="109.188"/>
				</g>
			</g>
			<g opacity="0.5">
				<g>
					
						<ellipse transform="matrix(0.7695 0.6386 -0.6386 0.7695 1321.7317 -1021.9702)" fill="#FFFFFF" cx="2076.744" cy="1320.195" rx="38.692" ry="45.087"/>
				</g>
			</g>
		</g>
		<g>
			<g>
				<path fill="#FFFFFF" d="M2511.983,1688.666c0,0-67.332,18.103-23.18,82.52c9.639,14.106,23.979,27.696,41.425,41.143
					c91.219,70.39,266.98,136.312,299.331,244.929c2.492,8.322,4.138,16.88,4.843,25.72l91.454,25.203
					c0,0,23.182,18.62,31.503,13.259c101.377-65.498,139.229-163.724,139.229-163.724c67.615-192.595-32.632-317.857-64.982-351.241
					c-80.451-82.85-303.845-270.978-571.532-132.268C2307.681,1553.2,2511.983,1688.666,2511.983,1688.666z"/>
			</g>
		</g>
		<g opacity="0.25">
			<g>
				<path fill="#371A45" d="M2530.229,1812.329c91.219,70.39,266.98,136.312,299.331,244.929
					c32.631-30.799,122.816-126.156,122.816-238.017c0-180.275-204.961-237.406-240.038-213.661
					c-188.787,127.755-44.575,147.738-70.813,178.02C2613.266,1816.185,2570.524,1819.522,2530.229,1812.329z"/>
			</g>
		</g>
		<g>
			<g>
				<path fill="#371A45" d="M2825.045,2083.719c-10.085-44.365-41.789-77.703-77.55-107.029
					c-35.995-29.446-77.159-54.233-118.846-78.806c-20.882-12.314-42.008-24.592-63.001-37.698
					c-20.963-13.176-41.909-27.002-61.777-43.982c-9.881-8.577-19.521-17.983-28.101-29.285
					c-4.356-5.757-7.947-11.575-11.504-17.979c-3.373-6.528-6.409-13.579-8.37-21.563c-1.955-7.935-2.729-16.99-1.116-26.218
					c1.488-9.25,5.775-18.142,11.218-25.244c5.53-7.073,12.064-12.485,18.782-16.726c3.374-2.109,6.811-3.945,10.331-5.566
					c1.758-0.818,3.551-1.56,5.378-2.273l2.829-1.028c1.046-0.356,1.77-0.603,3.435-1.077l-5.908,36.213
					c-7.542-5.085-13.966-9.878-20.688-15.081c-6.618-5.146-13.093-10.466-19.431-15.989c-12.664-11.057-24.83-22.861-36.1-35.938
					c-11.243-13.074-21.696-27.412-29.863-44.121c-4.002-8.401-7.437-17.405-9.569-27.173c-2.08-9.758-2.948-20.288-1.521-30.886
					c1.274-10.591,4.859-20.986,9.942-30.085c5.058-9.155,11.508-17.039,18.461-23.73c6.958-6.726,14.417-12.388,22.046-17.295
					c7.552-4.871,15.664-9.292,22.957-12.847c29.816-15.022,61.29-27.244,93.939-35.596c32.624-8.384,66.373-12.842,100.143-13.13
					c33.778-0.269,67.513,3.652,100.262,11.174c65.605,15.168,126.696,44.517,181.454,81.519
					c27.431,18.525,53.404,39.004,77.91,61.067c12.265,11.023,24.145,22.463,35.657,34.307c12.139,12.595,22.79,25.945,32.47,40.017
					c38.698,56.064,60.659,123.904,61.21,192.065c0.155,17.007-0.839,33.975-2.852,50.784c-2.272,16.76-5.295,33.391-9.488,49.683
					c-2.086,8.162-4.406,16.172-6.904,24.263l-4.023,12.104l-1.009,3.025c-0.216,0.603-0.203,0.715-0.72,1.995l-0.69,1.667
					l-2.7,6.096c-7.292,15.688-15.594,30.291-24.756,44.458c-18.303,28.254-39.927,54.316-64.612,77.3
					c-24.685,22.956-52.481,42.698-82.438,58.33c-9.209,4.805-20.57,1.235-25.376-7.974c-4.765-9.133-1.294-20.381,7.746-25.254
					l0.036-0.021c53.423-28.77,98.386-72.559,131.082-123.897c8.149-12.798,15.586-26.208,21.688-39.644l2.128-4.91l0.452-1.111
					c-0.12,0.356,0.157-0.498,0.267-0.842l0.862-2.686l3.467-10.737c2.164-7.234,4.254-14.646,6.075-22.017
					c3.686-14.788,6.26-29.758,8.192-44.768c1.668-15.034,2.427-30.117,2.179-45.161c-0.636-30.081-5.624-59.922-14.742-88.481
					c-9.203-28.513-22.538-55.806-39.612-80.469c-8.482-12.329-17.933-24.084-28.05-34.556
					c-10.837-11.133-22.063-21.931-33.644-32.324c-23.143-20.811-47.646-40.093-73.351-57.427
					c-51.34-34.656-107.873-61.56-167.379-75.264c-29.722-6.799-60.089-10.293-90.425-10.037
					c-30.337,0.259-60.582,4.355-90.063,11.819c-29.507,7.407-58.193,18.379-85.663,32.07c-7.123,3.445-13.101,6.714-19.05,10.474
					c-5.872,3.716-11.234,7.805-15.823,12.197c-9.262,8.843-14.927,18.608-16.271,29.177c-1.539,10.574,1.356,22.815,7.128,34.971
					c5.841,12.163,14.22,24.099,23.813,35.332c9.591,11.267,20.406,21.924,31.828,32c5.714,5.039,11.599,9.929,17.605,14.653
					c5.913,4.651,12.34,9.448,18.063,13.354l33.328,22.747l-39.236,13.469l-2.367,0.813c-1.004,0.388-2.024,0.796-3.023,1.257
					c-2.004,0.908-3.938,1.934-5.729,3.03c-3.569,2.217-6.448,4.746-8.444,7.244c-1.873,2.556-3.091,4.902-3.53,7.688
					c-0.492,2.756-0.399,6.074,0.524,9.922c0.91,3.833,2.616,8.057,4.78,12.336c2.335,4.216,5.087,8.796,8.061,12.744
					c6.066,8.123,13.791,15.913,22.215,23.298c17.004,14.753,36.61,28.018,56.705,40.796c20.161,12.769,40.987,25.059,61.896,37.566
					c20.914,12.51,41.941,25.217,62.663,38.809c20.662,13.657,41.279,27.932,60.47,44.614c9.612,8.298,18.99,17.061,27.534,26.809
					c8.657,9.624,16.717,19.98,23.522,31.348c13.823,22.371,22.71,49.333,21.329,75.847c-0.272,5.232-4.732,9.251-9.963,8.978
					c-4.335-0.225-7.837-3.325-8.756-7.358L2825.045,2083.719z"/>
			</g>
		</g>
		<g>
			<g>
				<g>
					<circle fill="#FFFFFF" cx="2392.615" cy="2464.633" r="77.583"/>
				</g>
			</g>
			<g opacity="0.25">
				<g>
					<path fill="#371A45" d="M2468.333,2481.478c-9.311,41.823-50.746,68.222-92.571,58.911
						c-41.823-9.311-68.208-50.807-58.897-92.631c2.572-11.554,7.611-21.99,14.489-30.754c6.462,28.281,28.627,51.848,58.837,58.572
						c30.209,6.726,60.278-5.213,78.067-28.096C2470.769,2458.335,2470.905,2469.923,2468.333,2481.478z"/>
				</g>
			</g>
			<g>
				<g>
					<path fill="#371A45" d="M2392.806,2561.06c-7.032,0-14.107-0.776-21.136-2.339c-51.88-11.553-84.69-63.154-73.143-115.034
						c11.551-51.875,63.152-84.683,115.032-73.145c25.134,5.596,46.582,20.645,60.397,42.373
						c13.814,21.724,18.343,47.529,12.747,72.661s-20.642,46.582-42.37,60.396C2428.685,2555.923,2410.913,2561.06,2392.806,2561.06
						z M2392.612,2405.85c-26.931,0-51.277,18.657-57.365,46.011c-7.044,31.636,12.963,63.101,44.597,70.142
						c15.32,3.423,31.058,0.654,44.307-7.773c13.249-8.423,22.424-21.499,25.835-36.826l0,0c3.413-15.322,0.651-31.06-7.771-44.307
						c-8.426-13.247-21.502-22.422-36.826-25.835C2401.108,2406.309,2396.826,2405.85,2392.612,2405.85z"/>
				</g>
			</g>
			<g>
				<g>
					<g opacity="0.35">
						<g>
							<path fill="#371A45" d="M2375.88,2516.529c11.894-87.297,32.291-165.477,56.114-233.395
								c-10.02,40.326-18.544,83.234-24.721,128.699c-7.293,53.306-20.6,107.286-40.739,158.203
								C2370.337,2552.252,2373.427,2534.346,2375.88,2516.529z"/>
						</g>
					</g>
					<g>
						<g>
							<path fill="#FFFFFF" d="M2261.802,2639.557l-394.54-94.456c-46.7-11.165-75.796-58.538-64.613-105.297l50.277-209.95
								c9.798-40.934,47.342-68.293,87.909-66.953c5.753,0.151,11.562,0.957,17.387,2.341l394.481,94.438
								c46.759,11.182,75.854,58.556,64.612,105.297l-39.779,166.297l-10.438,43.671
								C2355.915,2621.703,2308.501,2650.722,2261.802,2639.557z"/>
						</g>
					</g>
					<g>
						<g>
							<path fill="#FFFFFF" d="M1481.057,2142.625c0,0-54.813,2.794-72.676,68.367c-13.998,51.386,3.396,79.581,3.396,79.581
								s155.348,109.102,394.217,116.237c0,0,47.031-5.997,68.057-65.884c8.03-22.875,4.412-62.347-25.861-79.616
								C1848.188,2261.311,1634.693,2241.937,1481.057,2142.625z"/>
						</g>
					</g>
					<g>
						<g>
							<path fill="#FFFFFF" d="M2261.802,2639.557l-394.54-94.456c-46.7-11.165-75.796-58.538-64.613-105.297l50.277-209.95
								c9.798-40.934,47.342-68.293,87.909-66.953c5.753,0.151,11.562,0.957,17.387,2.341l394.481,94.438
								c46.759,11.182,75.854,58.556,64.612,105.297l-39.779,166.297l-10.438,43.671
								C2355.915,2621.703,2308.501,2650.722,2261.802,2639.557z"/>
						</g>
					</g>
					<g>
						<g>
							<path fill="#FFFFFF" d="M1481.057,2142.625c0,0-54.813,2.794-72.676,68.367c-13.998,51.386,3.396,79.581,3.396,79.581
								s155.348,109.102,394.217,116.237c0,0,47.031-5.997,68.057-65.884c8.03-22.875,4.412-62.347-25.861-79.616
								C1848.188,2261.311,1634.693,2241.937,1481.057,2142.625z"/>
						</g>
					</g>
					<g>
						<g>
							<path fill="#FFFFFF" d="M2261.802,2639.557l-394.54-94.456c-46.7-11.165-75.796-58.538-64.613-105.297l50.277-209.95
								c9.798-40.934,47.342-68.293,87.909-66.953c5.753,0.151,11.562,0.957,17.387,2.341l394.481,94.438
								c46.759,11.182,75.854,58.556,64.612,105.297l-39.779,166.297l-10.438,43.671
								C2355.915,2621.703,2308.501,2650.722,2261.802,2639.557z"/>
						</g>
					</g>
					<g opacity="0.25">
						<g>
							<path fill="#371A45" d="M2261.808,2639.559l-394.539-94.456c-46.7-11.164-75.796-58.538-64.613-105.296l50.276-209.951
								c9.799-40.934,47.343-68.293,87.91-66.953c18.842,20.242,30.79,33.168,30.79,33.168
								c-21.138,173.128,6.733,268.655,215.19,322.175c89.987,23.079,150.307,22.952,190.721,13.03l-10.438,43.671
								C2355.923,2621.705,2308.508,2650.725,2261.808,2639.559z"/>
						</g>
					</g>
					<g>
						<g>
							<path fill="#371A45" d="M2292.103,2659.741c-6.907,0-13.854-0.811-20.729-2.456l-420.651-100.693
								c-47.68-11.421-77.188-59.497-65.771-107.178l56.523-236.123c5.511-23.022,19.719-42.559,40.012-55.01
								c20.291-12.456,44.14-16.274,67.163-10.767l420.649,100.693c47.684,11.421,77.19,59.497,65.774,107.178l-56.523,236.123
								c-5.51,23.022-19.719,42.559-40.012,55.01C2324.307,2655.254,2308.32,2659.741,2292.103,2659.741z M1857.707,2527.412
								l420.652,100.693c15.227,3.652,31.022,1.104,44.487-7.153c13.462-8.262,22.883-21.201,26.529-36.426l56.522-236.123
								c7.563-31.592-11.987-63.452-43.584-71.016l-420.648-100.693c-15.235-3.657-31.026-1.108-44.488,7.153
								s-22.884,21.201-26.528,36.426l-56.522,236.123c-7.564,31.592,11.986,63.452,43.583,71.016H1857.707z"/>
						</g>
					</g>
					<g>
						<g>
							<path fill="#FFFFFF" d="M2278.016,2641.798c-5.367-0.162-10.75-0.903-16.208-2.239l-394.539-94.456
								c-34.216-8.207-58.987-35.79-65.341-68.431c-2.33-11.857-2.229-24.381,0.786-36.848l22.294-93.284l7.357-30.778
								l20.566-85.906c11.183-46.758,58.597-75.777,105.297-64.612l85.248,20.431c-41.068-2.001-79.284,25.473-89.207,66.815
								l-27.183,113.403l-23.111,96.605c-11.164,46.7,17.912,94.132,64.613,105.297L2278.016,2641.798z"/>
						</g>
					</g>
					<g opacity="0.25">
						<g>
							<path fill="#371A45" d="M2278.016,2641.798c-5.367-0.162-10.75-0.903-16.208-2.239l-394.539-94.456
								c-46.7-11.164-75.796-58.538-64.555-105.278l29.651-124.063c4.677,24.295,16.063,55.467,43.913,65.121
								c15.27,5.331,33.37-2.244,50.809-14.99l-23.111,96.605c-11.164,46.7,17.912,94.132,64.613,105.297L2278.016,2641.798z"/>
						</g>
					</g>
					<g>
						<g>
							<path fill="#371A45" d="M2277.456,2656.816c-6.477-0.249-12.944-1.152-19.221-2.69l-394.466-94.419
								c-26.472-6.323-48.952-22.676-63.291-46.04c-14.343-23.374-18.74-50.835-12.383-77.324l50.269-209.976
								c6.325-26.494,22.679-48.984,46.047-63.325c23.362-14.331,50.818-18.73,77.317-12.407l85.223,20.42l-4.215,29.565
								c-34.73-1.611-65.798,21.626-73.881,55.386l-50.267,209.98c-4.49,18.706-1.374,38.105,8.774,54.644
								c10.144,16.533,26.018,28.091,44.7,32.554l309.455,74.053L2277.456,2656.816z M1937.961,2177.827
								c-13.213,0-26.245,3.662-37.858,10.786c-16.533,10.146-28.096,26.03-32.562,44.727l-50.272,209.995
								c-4.487,18.696-1.37,38.101,8.779,54.639c10.144,16.533,26.018,28.091,44.696,32.554l32.262,7.72
								c-0.411-0.635-0.816-1.279-1.213-1.929c-14.342-23.374-18.738-50.835-12.377-77.324l50.265-209.971
								c6.327-26.44,22.614-48.34,44.226-62.227l-29.154-6.987C1949.185,2178.481,1943.555,2177.827,1937.961,2177.827z
								 M1802.683,2439.834h0.049H1802.683z"/>
						</g>
					</g>
					<g>
						<g>
							<path fill="#22A7F0" d="M2084.282,2396.441c-1.903,7.754-28.169,67.668-28.169,67.668s-19.827-4.866-44.174-10.843
								c-30.418-7.467-47.346-45.014-37.809-83.864c9.537-38.85,41.925-64.291,72.343-56.824
								c20.527,5.039,44.175,10.844,44.175,10.844S2087.383,2383.811,2084.282,2396.441z"/>
						</g>
					</g>
					<g opacity="0.35">
						<g>
							<path fill="#371A45" d="M2084.282,2396.441c-1.903,7.754-28.169,67.668-28.169,67.668s-19.827-4.866-44.174-10.843
								c-30.418-7.467-47.346-45.014-37.809-83.864c9.537-38.85,41.925-64.291,72.343-56.824
								c20.527,5.039,44.175,10.844,44.175,10.844S2087.383,2383.811,2084.282,2396.441z"/>
						</g>
					</g>
					<g>
						<g>
							<path fill="#371A45" d="M2046.619,2473.784c-2.31,0-4.651-0.278-6.983-0.85l-30.676-7.529
								c-18.525-4.546-33.55-17.744-42.303-37.163c-8.282-18.374-9.941-40.327-4.665-61.816
								c5.273-21.494,16.909-40.186,32.76-52.632c16.75-13.164,36.179-17.915,54.701-13.354l30.842,7.568
								c13.636,3.35,22.894,15.947,22.018,29.951c-2.083,33.34-4.065,54.019-5.892,61.46l0,0c-0.49,2.002-1.792,7.305-23.291,56.924
								C2068.449,2467.139,2057.938,2473.784,2046.619,2473.784z M2035.71,2323.779c-8.585,0-17.416,3.311-25.517,9.673
								c-11.478,9.014-19.974,22.842-23.924,38.931c-3.947,16.089-2.82,32.28,3.179,45.586c5.527,12.256,14.573,20.483,25.47,23.159
								l30.68,7.529c1.909,0.469,3.826-0.479,4.593-2.256c14.971-34.546,21.182-50.117,21.961-52.974
								c0.529-2.192,2.441-12.69,5.209-57.031c0.12-1.919-1.151-3.652-3.026-4.111l-30.838-7.568
								C2040.942,2324.092,2038.337,2323.779,2035.71,2323.779z M2084.282,2396.44h0.049H2084.282z"/>
						</g>
					</g>
					<g>
						<g>
							
								<ellipse transform="matrix(0.9712 0.2384 -0.2384 0.9712 630.4337 -425.2637)" fill="#22A7F0" cx="2073.381" cy="2393.766" rx="56.711" ry="72.432"/>
						</g>
					</g>
					<g opacity="0.7">
						<g>
							<path fill="#FFFFFF" d="M2123.724,2421.452c2.606-33.229-13.636-62.616-40.158-69.112
								c-26.628-6.531-54.683,12.075-67.708,42.838c0.374-4.905,1.187-9.9,2.421-14.934c9.584-38.843,41.972-64.277,72.384-56.803
								c30.412,7.474,47.338,44.975,37.807,83.835C2127.252,2412.257,2125.646,2416.994,2123.724,2421.452z"/>
						</g>
					</g>
					<g opacity="0.35">
						<g>
							<path fill="#371A45" d="M2056.138,2464.096c-30.429-7.421-47.391-44.992-37.859-83.852
								c2.212-8.924,5.588-17.115,9.901-24.418c1.439,28.354,16.927,52,40.369,57.725s48.03-7.993,62.43-32.403
								c0.474,8.397-0.315,17.259-2.51,26.129C2118.938,2446.136,2086.55,2471.57,2056.138,2464.096z"/>
						</g>
					</g>
					<g>
						<g>
							<path fill="#371A45" d="M2066.731,2477.896c-4.529,0-9.078-0.537-13.597-1.646c-37.063-9.097-58.133-53.501-46.967-98.984
								c11.163-45.483,50.417-75.049,87.46-65.981c18.525,4.546,33.55,17.744,42.303,37.163c8.283,18.374,9.941,40.327,4.665,61.816
								C2130.794,2450.2,2099.346,2477.896,2066.731,2477.896z M2079.771,2334.609c-21.235,0-42.319,20.068-49.326,48.613
								c-7.876,32.1,4.974,62.939,28.647,68.75c23.685,5.786,49.346-15.571,57.227-47.666c3.947-16.089,2.82-32.28-3.179-45.586
								c-5.527-12.256-14.572-20.483-25.469-23.159C2085.054,2334.922,2082.41,2334.609,2079.771,2334.609z"/>
						</g>
					</g>
					<g>
						<g>
							<path fill="#371A45" d="M2139.528,2621.187c-1.057,0-2.133-0.137-3.202-0.42c-6.675-1.768-10.654-8.608-8.89-15.283
								l27.937-105.605c7.566-28.604,28.819-51.348,56.849-60.825c20.547-6.958,35.874-23.696,40.998-44.775l36.367-149.624
								c1.632-6.704,8.387-10.825,15.099-9.194c6.709,1.631,10.825,8.394,9.194,15.103l-36.368,149.624
								c-7.157,29.448-28.568,52.832-57.277,62.549c-20.065,6.787-35.275,23.062-40.69,43.54l-27.938,105.605
								C2150.124,2617.48,2145.063,2621.187,2139.528,2621.187z"/>
						</g>
					</g>
				</g>
				<g>
					<g>
						<path fill="#FFFFFF" d="M1481.057,2142.625c0,0-54.813,2.794-72.676,68.367c-13.998,51.386,3.396,79.581,3.396,79.581
							s155.348,109.102,394.217,116.237c0,0,47.031-5.997,68.057-65.884c8.03-22.875,4.412-62.347-25.861-79.616
							C1848.188,2261.311,1634.693,2241.937,1481.057,2142.625z"/>
					</g>
				</g>
				<g opacity="0.25">
					<g>
						<path fill="#371A45" d="M1874.023,2340.945c-20.989,59.861-68.037,65.865-68.037,65.865
							c-238.856-7.148-394.225-116.266-394.225-116.266s-17.396-28.144-3.386-79.555c4.258-15.56,10.563-27.58,17.792-36.884
							c-4.03,36.233,8.034,55.709,8.034,55.709s155.368,109.116,394.226,116.265c0,0,27.045-3.459,49.21-31.208
							C1878.043,2324.421,1876.606,2333.554,1874.023,2340.945z"/>
					</g>
				</g>
				<g>
					<g>
						<path fill="#371A45" d="M1806.844,2424.346l-1.372-0.044c-241.339-7.212-397.234-114.834-403.753-119.409l-2.944-2.07
							l-1.89-3.062c-2.19-3.55-20.936-36.304-5.388-93.369c20.951-76.919,85.915-81.104,88.67-81.24l5.644-0.288l4.746,3.066
							c148.096,95.732,357.124,115.762,359.219,115.952l3.781,0.342l3.304,1.885c39.666,22.627,43.587,72.461,33.699,100.615
							c-24.321,69.287-79.995,77.148-82.351,77.446L1806.844,2424.346z M1425.402,2278.618
							c24.204,15.679,169.412,103.901,379.366,110.645c6.034-1.279,37.248-9.927,52.768-54.131
							c5.65-16.089,3.224-43.877-15.173-56.816c-31.499-3.311-220.569-26.445-365.225-117.432
							c-11.685,2.529-40.495,12.935-51.873,54.707C1415.965,2249.736,1422.3,2271.099,1425.402,2278.618z"/>
					</g>
				</g>
			</g>
		</g>
		<g>
			<g>
				<g>
					<path fill="#FFFFFF" d="M2641.503,1783.6c-50.893-58.161-129.531-94.914-129.531-94.914L2641.503,1783.6z"/>
				</g>
			</g>
			<g>
				<g>
					<path fill="#371A45" d="M2634.427,1789.792c-9.309-9.106-18.959-17.817-29.343-25.75c-10.368-7.93-21.011-15.498-32.145-22.388
						c-11.079-6.946-22.428-13.472-34.007-19.521c-11.465-5.967-23.635-11.802-34.924-16.409l-0.311-0.127
						c-9.638-3.933-14.264-14.934-10.33-24.573s14.937-14.265,24.575-10.33c0.655,0.266,1.383,0.62,1.992,0.952
						c12.935,7.144,24.317,14.412,35.945,22.271c11.495,7.827,22.655,16.106,33.485,24.8c10.872,8.628,21.228,17.964,31.214,27.642
						c9.997,9.678,19.248,20.193,28,31.047c3.263,4.045,2.627,9.968-1.418,13.23c-3.754,3.027-9.124,2.698-12.485-0.598
						L2634.427,1789.792z"/>
				</g>
			</g>
		</g>
		<g>
			<g>
				<g>
					<path fill="#FFFFFF" d="M2611.631,1699.925c29.872-57.531,126.435-103.843,141.359-129.289
						c14.925-25.446-134.168-50.776-124.063-106.918L2611.631,1699.925z"/>
				</g>
			</g>
			<g>
				<g>
					<path fill="#371A45" d="M2605.371,1696.675c6.374-15.293,16.283-28.455,26.86-40.427c10.776-11.829,22.423-22.62,34.53-32.546
						c12-10.081,24.495-19.316,36.72-28.489l18.027-13.638c5.766-4.504,11.526-9.182,15.757-13.645l1.485-1.624l1.181-1.482
						l0.791-1.189c0.098-0.171-0.534,0.957-0.622,1.86c-0.507,2.278,0.393,4.343,0.54,4.426c0.184,0.239-0.264-0.417-1.021-1.111
						c-1.613-1.499-4.252-3.357-7.11-5.081c-2.866-1.75-6-3.464-9.228-5.146c-12.926-6.895-27.057-13.325-40.85-20.801
						c-13.825-7.471-27.715-15.623-40.382-26.819c-6.216-5.698-12.246-12.227-16.578-20.535c-2.119-4.153-3.71-8.796-4.392-13.628
						c-0.638-4.844-0.288-9.802,0.907-14.333c0.995-3.777,4.863-6.03,8.639-5.034c3.272,0.864,5.403,3.887,5.263,7.136l-0.02,0.396
						c-0.259,6.055,1.688,11.304,5.246,16.189c3.582,4.888,8.653,9.309,14.308,13.257c5.621,4.023,11.87,7.598,18.331,10.935
						c6.447,3.398,13.123,6.594,19.965,9.648c13.677,6.189,27.7,11.997,42.146,18.962c3.601,1.812,7.232,3.716,10.95,5.903
						c3.716,2.209,7.512,4.595,11.622,8.215c2.054,1.899,4.266,4.065,6.415,7.605c0.525,0.857,1.039,1.819,1.512,2.983
						c0.474,1.042,0.882,2.317,1.194,3.669c0.656,2.646,0.718,5.833,0.153,8.76c-0.542,2.769-1.904,5.686-2.846,7.129
						c-0.792,1.196-1.627,2.488-2.447,3.564l-2.446,2.983l-2.425,2.593c-6.457,6.555-12.8,11.394-19.154,16.265
						c-6.331,4.807-12.673,9.285-19.039,13.63c-12.677,8.74-25.174,17.31-37.413,26.038c-24.163,17.629-47.979,36.038-64.05,59.88
						l-0.119,0.176c-2.185,3.242-6.582,4.097-9.823,1.914C2605.104,1703.347,2604.099,1699.724,2605.371,1696.675z"/>
				</g>
			</g>
		</g>
		<g>
			<g>
				<g>
					<path fill="#FFFFFF" d="M2553.271,1481.143c0,0-29.59,38.718,41.488,82.563c34.196,21.093,103.317,52.131,103.317,52.131
						L2553.271,1481.143z"/>
				</g>
			</g>
			<g>
				<g>
					<path fill="#371A45" d="M2558.874,1485.425c-0.229,1.069-1.002,3.157-1.258,4.841c-0.386,1.763-0.6,3.562-0.673,5.332
						c-0.16,3.55,0.214,7.012,1.166,10.342c0.845,3.337,2.227,6.57,4.051,9.663c1.726,3.137,3.883,6.162,6.334,9.06
						c9.983,11.68,23.884,21.287,38.763,30.12c15.104,8.96,31.024,17.612,46.749,26.584c15.765,8.938,31.599,18.022,46.96,28.035
						l0.054,0.034c3.298,2.151,4.23,6.567,2.08,9.866c-1.746,2.678-4.992,3.792-7.913,2.969
						c-17.896-5.059-35.095-11.541-52.1-18.706c-17.01-7.188-33.664-15.09-50.104-24.531c-16.519-9.497-32.964-21.641-45.032-39.277
						c-2.9-4.497-5.489-9.319-7.489-14.517c-1.896-5.234-3.159-10.837-3.494-16.55c-0.296-5.718,0.443-11.504,2.16-16.89
						c0.904-2.686,2.016-5.271,3.358-7.732c1.482-2.529,2.769-4.551,5.182-7.207c2.54-2.795,6.867-3.003,9.662-0.464
						c1.866,1.697,2.579,4.187,2.093,6.489L2558.874,1485.425z"/>
				</g>
			</g>
		</g>
		<g>
			<g>
				<g>
					<path fill="#FFFFFF" d="M2482.18,1525.121c0,0-22.673,23.369,48.688,90.716c32.91,31.059,92.902,65.461,92.902,65.461
						L2482.18,1525.121z"/>
				</g>
			</g>
			<g>
				<g>
					<path fill="#371A45" d="M2487.241,1530.032c0.562-0.474,0.21,0.071,0.273,0.234c-0.04,0.239-0.099,0.54-0.13,0.859
						c-0.09,0.615-0.116,1.335-0.105,2.065c-0.01,1.472,0.182,3.081,0.549,4.736c0.747,3.33,2.035,6.865,3.88,10.344
						c3.454,7.043,8.462,13.926,13.807,20.618c10.778,13.369,23.723,25.955,36.668,38.184c12.769,11.765,27.14,22.966,41.529,34.148
						c14.448,11.138,29.235,22.263,43.567,33.96l0.116,0.095c3.049,2.488,3.503,6.975,1.015,10.024
						c-2.013,2.463-5.34,3.228-8.149,2.117c-17.755-7.048-34.406-15.786-50.646-25.605c-16.192-9.89-31.913-20.679-46.556-34.036
						c-14.165-13.123-27.252-27.361-38.106-44.255c-5.382-8.44-10.13-17.581-13.106-28.005c-1.377-5.225-2.36-10.806-2.081-16.77
						c0.177-2.983,0.642-6.047,1.631-9.116c0.53-1.533,1.162-3.049,2.016-4.558c0.414-0.752,0.879-1.494,1.429-2.251
						c0.644-0.842,0.943-1.27,2.277-2.61c2.712-2.795,7.176-2.864,9.973-0.151
						C2489.887,1522.771,2489.953,1527.236,2487.241,1530.032z"/>
				</g>
			</g>
		</g>
		<g>
			<g>
				<path fill="#371A45" d="M1292.08,1817.307c-0.178,0-0.356-0.002-0.536-0.007c-10.384-0.291-18.565-8.945-18.274-19.329
					c6.045-215.708,177.544-344.055,184.841-349.414c8.367-6.14,20.143-4.343,26.292,4.031c6.145,8.369,4.343,20.137-4.024,26.287
					c-2.183,1.619-163.996,123.542-169.506,320.151C1310.586,1809.229,1302.222,1817.307,1292.08,1817.307z"/>
			</g>
		</g>
		<g>
			<g>
				<path fill="#371A45" d="M1659.406,3068.311c-15.412,0-378.671-2.104-483.303-185.054c-5.159-9.014-2.029-20.508,6.987-25.664
					c9.021-5.151,20.511-2.026,25.664,6.992c93.818,164.033,447.1,166.108,450.656,166.108c10.387,0.005,18.804,8.428,18.802,18.813
					C1678.21,3059.893,1669.793,3068.311,1659.406,3068.311z"/>
			</g>
		</g>
		<g>
			<g>
				<path fill="#371A45" d="M2359.016,2971.323c-8.605,0-16.367-5.942-18.332-14.688c-2.277-10.137,4.092-20.2,14.227-22.476
					c258.532-58.096,361.042-152.461,401.513-221.396c44.144-75.19,26.768-136.426,26.007-138.999
					c-2.94-9.917,2.673-20.4,12.577-23.394c9.905-2.998,20.353,2.529,23.399,12.417c0.971,3.149,23.158,78.135-28.775,167.7
					c-63.938,110.278-207.426,191.147-426.475,240.371C2361.768,2971.172,2360.381,2971.323,2359.016,2971.323z"/>
			</g>
		</g>
		<g>
			<g>
				<g>
					<path fill="#FFFFFF" d="M2748.267,3192.959c0,0-45.36,14.105-96.259,12.643L2748.267,3192.959z"/>
				</g>
			</g>
			<g>
				<g>
					<path fill="#371A45" d="M2753.852,3210.918c-9.252,1.914-17.322,2.98-25.933,3.965c-8.481,0.947-16.961,1.58-25.443,1.914
						c-8.476,0.366-16.958,0.418-25.428,0.107c-8.457-0.207-16.922-0.988-25.31-1.902c-5.178-0.563-8.92-5.217-8.355-10.395
						c0.495-4.561,4.162-8.006,8.566-8.379l0.328-0.027c7.847-0.672,15.639-1.447,23.389-2.766c7.747-1.219,15.44-2.767,23.055-4.6
						c7.616-1.8,15.164-3.867,22.589-6.197c7.295-2.284,15.047-4.955,21.372-7.639c9.609-4.08,20.706,0.405,24.784,10.018
						c4.078,9.609-0.408,20.705-10.018,24.782c-1.134,0.481-2.289,0.843-3.45,1.091L2753.852,3210.918z"/>
				</g>
			</g>
		</g>
	</g>
</g>
</svg>
